<svg width="36" height="23" fill="none" xmlns="http://www.w3.org/2000/svg"><path d="M35 5.231H16.692M1 5.231h5.23" stroke="#484848" stroke-width="1.5" stroke-linecap="round"/><path d="M16.692 5.23a5.23 5.23 0 11-10.461 0 5.23 5.23 0 0110.461 0zm-8.892 0a3.662 3.662 0 107.323 0 3.662 3.662 0 00-7.323 0z" fill="#484848"/><path d="M1 17.692h18.308m15.692 0h-5.23" stroke="#484848" stroke-width="1.5" stroke-linecap="round"/><path d="M19.308 17.692a5.23 5.23 0 1010.461 0 5.23 5.23 0 00-10.461 0zm8.892 0a3.662 3.662 0 11-7.323 0 3.662 3.662 0 017.323 0z" fill="#484848"/></svg>