<svg width="151" height="149" fill="none" xmlns="http://www.w3.org/2000/svg"><path d="M73.651 141.538c0 .721.584 1.297 1.302 1.297.715 0 1.297-.577 1.297-1.297 0-.715-.582-1.302-1.297-1.302-.719 0-1.302.536-1.302 1.302z" fill="#000"/><path d="M76.415 141.537c0 .722-.582 1.297-1.301 1.297-.715 0-1.3-.576-1.3-1.297 0-.715.585-1.302 1.3-1.302.719 0 1.301.537 1.301 1.302zm-2.764-7.325c0 .72.584 1.306 1.302 1.306.715 0 1.297-.586 1.297-1.306 0-.713-.582-1.294-1.297-1.294-.719 0-1.302.535-1.302 1.294zm-14.257-6.753a1.299 1.299 0 101.3-1.302c-.72-.001-1.3.54-1.3 1.302zm-3.304 3.358c0 .713.583 1.3 1.299 1.3a1.3 1.3 0 100-2.602c-.716 0-1.3.537-1.3 1.302zm6.954.401a1.3 1.3 0 002.6 0c0-.721-.582-1.296-1.3-1.296-.716 0-1.3.53-1.3 1.296zm-3.351 3.332a1.3 1.3 0 002.6 0 1.3 1.3 0 00-1.3-1.298c-.716-.001-1.3.533-1.3 1.298zm24.639-3.4c0 .713.581 1.293 1.3 1.293a1.3 1.3 0 000-2.597c-.719 0-1.3.538-1.3 1.304zm3.446 3.488a1.3 1.3 0 101.3-1.3c-.717 0-1.3.538-1.3 1.3z" fill="#000"/><path d="M61.736 128.244l-1.66-1.639-3.436 3.483 1.66 1.638 3.436-3.482zm-.195 7.205l-1.64-1.655 3.62-3.601 1.643 1.654-3.623 3.602z" fill="#000"/><path d="M73.867 142.235l-10.145-10.193 1.649-1.649 10.15 10.197-1.654 1.645zm67.267-67.747c0 .645.522 1.172 1.171 1.172a1.17 1.17 0 001.167-1.172c0-.645-.521-1.17-1.167-1.17-.65 0-1.171.483-1.171 1.17zm-7.084-.111a1.17 1.17 0 102.339 0c0-.645-.524-1.172-1.171-1.172-.645 0-1.168.488-1.168 1.172zm0 14.267c0 .642.523 1.172 1.168 1.172.646 0 1.171-.53 1.171-1.172a1.17 1.17 0 00-1.171-1.172c-.645 0-1.168.481-1.168 1.172zm-57.638 45.568c0 .72-.583 1.306-1.301 1.306a1.3 1.3 0 110-2.6c.718 0 1.3.535 1.3 1.294zm14.26-6.753a1.3 1.3 0 11-1.3-1.302c.718 0 1.3.54 1.3 1.302zm3.298 3.358a1.3 1.3 0 11-1.297-1.302c.72 0 1.297.537 1.297 1.302zm-6.952.401c0 .717-.582 1.3-1.302 1.3a1.298 1.298 0 010-2.596c.72 0 1.302.53 1.302 1.296zm3.35 3.332a1.3 1.3 0 01-2.599 0c0-.716.578-1.298 1.298-1.298.718-.001 1.301.533 1.301 1.298z" fill="#000"/><path d="M93.404 130.085l-3.439-3.481-1.655 1.636 3.439 3.481 1.655-1.636zm-3.268 3.704l-3.621-3.602-1.646 1.654 3.622 3.602 1.645-1.654z" fill="#000"/><path d="M76.192 142.235l-1.65-1.645 10.146-10.197 1.652 1.649-10.148 10.193zM76.118 7.328a1.167 1.167 0 11-1.166-1.163c.647 0 1.166.521 1.166 1.163zM76.06 35.83a1.19 1.19 0 01-1.192 1.192 1.193 1.193 0 111.191-1.192zm35.172 13.66a1.14 1.14 0 01-1.143 1.14 1.14 1.14 0 01-1.143-1.14c0-.63.513-1.143 1.143-1.143a1.12 1.12 0 011.143 1.144zm-70.264.02a1.172 1.172 0 11-1.173-1.169c.646 0 1.173.482 1.173 1.17zm1.335-15.4c0 .645-.524 1.172-1.174 1.172a1.173 1.173 0 010-2.344c.649 0 1.174.484 1.174 1.171zm5.567 8.468a1.17 1.17 0 11-1.17-1.169c.647 0 1.17.479 1.17 1.169zm-3.691 3.525a1.173 1.173 0 11-1.173-1.173c.647 0 1.173.482 1.173 1.173zm-3.499-3.525a1.17 1.17 0 11-1.17-1.169c.646 0 1.17.479 1.17 1.169zM8.93 74.488a1.172 1.172 0 11-2.343 0c0-.645.525-1.17 1.172-1.17.647 0 1.17.483 1.17 1.17zm10.614 10.587a1.17 1.17 0 11-1.171-1.172 1.145 1.145 0 011.171 1.172zm3.496 3.569c0 .642-.524 1.172-1.171 1.172a1.172 1.172 0 110-2.344c.646 0 1.17.481 1.17 1.172zm-3.496 3.546a1.172 1.172 0 01-2.342 0c0-.646.523-1.173 1.17-1.173a1.15 1.15 0 011.172 1.172zm-3.532-17.813a1.17 1.17 0 11-2.341 0c0-.645.524-1.172 1.169-1.172a1.15 1.15 0 011.172 1.172zm0 14.267c0 .642-.525 1.172-1.172 1.172-.645 0-1.17-.53-1.17-1.172a1.17 1.17 0 011.17-1.172c.647 0 1.172.481 1.172 1.172zm60.161-45.791a1.222 1.222 0 11-2.445 0 1.223 1.223 0 112.446 0zm-10.76-24.926a1.166 1.166 0 01-2.33 0 1.167 1.167 0 011.165-1.17c.643 0 1.165.524 1.165 1.17zm21.409 0a1.168 1.168 0 11-2.333-.005 1.168 1.168 0 012.333.005zm-13.149-3.593a1.167 1.167 0 002.332 0c0-.645-.52-1.163-1.168-1.163-.642 0-1.164.518-1.164 1.163z" fill="#000"/><path d="M75.789 8.156L74.148 6.5 63.443 17.1l1.641 1.657 10.705-10.6z" fill="#000"/><path d="M86.466 17.1L75.761 6.502l-1.639 1.655 10.705 10.597 1.64-1.656zm6.046 2.27c0 .646.52 1.17 1.163 1.17a1.169 1.169 0 000-2.336c-.644 0-1.163.525-1.163 1.167zm-8.268 5.332c.089.736.547 1.224 1.223 1.224.673 0 1.12-.546 1.219-1.224.104-.67-.546-1.221-1.22-1.221-.675 0-1.299.55-1.222 1.221z" fill="#000"/><path d="M86.409 25.435l-1.772-1.52c4.357-5.075 8.78-5.687 8.968-5.71l.295 2.308-.148-1.153.152 1.153c-.035.006-3.764.573-7.495 4.922z" fill="#000"/><path d="M86.332 24.014L75.645 13.512l-1.635 1.664 10.688 10.501 1.634-1.663zM57.168 19.37a1.164 1.164 0 11-2.33 0 1.164 1.164 0 112.33.001zm8.266 5.332c-.086.736-.546 1.224-1.223 1.224-.676 0-1.12-.546-1.22-1.224-.101-.67.544-1.221 1.22-1.221.677 0 1.301.55 1.223 1.221z" fill="#000"/><path d="M63.272 25.435c-3.733-4.348-7.459-4.916-7.5-4.922l.303-2.309c.186.024 4.61.636 8.966 5.71l-1.77 1.521z" fill="#000"/><path d="M75.659 15.17l-1.635-1.661-10.676 10.506 1.634 1.66L75.66 15.17zm36.036 44.229L81.882 30.213l-.064-.09c-1.584-2.297-3.656-4.649-6.998-4.708-2.83-.045-4.236 1.56-6.775 4.476l-.207.238-29.166 29.26-1.652-1.645L66.157 28.51l.13-.147c2.659-3.055 4.592-5.277 8.404-5.277h.166c4.376.075 7.008 3.024 8.812 5.62l29.659 29.029-1.634 1.664z" fill="#000"/><path d="M54.343 108.312l-6.34-6.216-.992-.915c-7.116-6.55-16.866-15.52-17.1-24.694-.255-9.96 3.046-14.977 9.635-21.264l1.609 1.688c-6.226 5.941-9.15 10.378-8.916 19.518.207 8.188 9.54 16.772 16.35 23.039l1.02.941 6.365 6.235-1.63 1.668zm40.616.827l-1.603-1.693 8.423-7.978c6.812-6.267 16.141-14.85 16.352-23.04.234-9.14-2.691-13.576-8.92-19.517l1.61-1.688c6.594 6.287 9.894 11.304 9.637 21.264-.233 9.173-9.983 18.144-17.101 24.694l-1.019.941-7.379 7.017z" fill="#000"/><path d="M75.77 135.224l-1.637-1.654 33.22-32.818c7.574-6.994 16.262-16.062 16.478-24.401.231-9.108-1.732-13.978-8.071-20.02l-6.411-5.915 1.581-1.714 6.427 5.928c6.834 6.515 9.054 12.014 8.804 21.783-.235 9.157-8.826 18.293-17.196 26.02L75.77 135.224zm-1.94-78.557a1.166 1.166 0 102.334 0c0-.642-.521-1.166-1.168-1.166-.642 0-1.165.482-1.165 1.166zm-10.525 3.696c0 .645.542 1.166 1.208 1.166.662 0 1.2-.52 1.2-1.166 0-.645-.538-1.165-1.2-1.165-.666 0-1.208.481-1.208 1.165zm10.522 24.705a1.166 1.166 0 101.167-1.166c-.645 0-1.167.482-1.167 1.166zm-.041 7.113a1.164 1.164 0 101.167-1.163c-.643 0-1.167.48-1.167 1.163z" fill="#000"/><path d="M74.133 135.224l-33.246-32.811c-8.343-7.707-16.935-16.844-17.165-26-.252-9.768 1.965-15.267 8.785-21.77l6.444-5.94 1.579 1.713-6.43 5.928c-6.327 6.029-8.285 10.896-8.051 20.007.212 8.338 8.898 17.407 16.447 24.371l33.273 32.844-1.636 1.658zm2.027-78.557h-2.328v28.401h2.329v-28.4zM65.708 60.29h-2.33v28.4h2.33v-28.4zm20.737.073c0 .645-.538 1.166-1.202 1.166-.667 0-1.204-.52-1.204-1.166 0-.645.537-1.165 1.204-1.165.664 0 1.202.481 1.202 1.165z" fill="#000"/><path d="M86.374 60.29h-2.329v28.4h2.33v-28.4zM75.36 91.088l-10.555-3.775-.785 2.195 10.555 3.776.785-2.196z" fill="#000"/><path d="M85.83 89.528l-.784-2.196-10.557 3.774.785 2.195 10.557-3.773zM74.239 99.85l-12.66-12.68a33.606 33.606 0 01-.638-.632c-1.095-1.114-2.34-2.368-3.542-2.368-1.311 0-2.507 1.261-2.507 2.649h-2.329c0-2.652 2.261-4.98 4.837-4.98 2.176 0 3.857 1.696 5.203 3.061.208.215.413.42.61.609L75.893 98.2l-1.654 1.649z" fill="#000"/><path d="M75.524 99.85l-1.65-1.649 12.668-12.677c.21-.202.412-.408.623-.62 1.347-1.368 3.023-3.065 5.2-3.065 2.576 0 4.842 2.328 4.842 4.98h-2.331c0-1.387-1.196-2.648-2.51-2.648-1.204 0-2.445 1.258-3.542 2.368-.227.225-.44.444-.647.645L75.524 99.85zM64.15 113.667c-6.283 0-11.588-5.13-11.588-11.212h2.327c0 4.811 4.243 8.886 9.26 8.886 5.106 0 9.258-3.877 9.258-8.644h2.333c.001 6.048-5.2 10.97-11.59 10.97z" fill="#000"/><path d="M85.713 113.667c-6.338 0-11.49-4.922-11.49-10.97h2.327c0 4.769 4.11 8.644 9.164 8.644 5.052 0 9.161-3.914 9.161-8.716h2.331c0 6.091-5.156 11.042-11.493 11.042z" fill="#000"/><path d="M76.63 98.41h-3.497v6.821h3.497v-6.82zM54.89 86.746h-2.328v15.951h2.329V86.746zm42.315 0h-2.331v15.951h2.33V86.746zM74.917 112.6c-1.942 0-3.616-1.008-4.5-1.868l1.622-1.667-.812.83.806-.837c.286.267 2.855 2.557 5.574-.013l1.6 1.697c-1.445 1.368-2.934 1.858-4.29 1.858z" fill="#000"/><path d="M74.845 121.683c-2.82 0-4.826-.365-4.952-.388-8.449-1.795-9.024-8.641-9.029-8.71l2.324-.16-1.16.078 1.16-.09c.018.215.506 5.185 7.16 6.599.014 0 4.267.765 8.964-.01 7.12-1.186 7.602-6.361 7.619-6.577l2.325.153c-.001.072-.565 7.229-9.561 8.72a29.482 29.482 0 01-4.85.385zM45.942 43.465c-5.916-5.082-5.975-9.186-5.975-9.355l2.329.003-1.168-.003 1.168-.016c0 .032.158 3.3 5.165 7.602l-1.519 1.77zm61.923-9.355c0 .645.524 1.172 1.17 1.172a1.173 1.173 0 000-2.345c-.645 0-1.17.485-1.17 1.172zm-5.572 8.468a1.17 1.17 0 001.173 1.172 1.17 1.17 0 100-2.341c-.648 0-1.173.479-1.173 1.169z" fill="#000"/><path d="M104.226 43.465l-1.519-1.768c5.028-4.32 5.164-7.554 5.164-7.583l2.333-.004c0 .168-.061 4.273-5.978 9.355zm-56.965.172l-1.602-1.684-3.458 3.29 1.602 1.684 3.458-3.29z" fill="#000"/><path d="M43.707 45.074l-3.364-3.317-1.636 1.66 3.364 3.316 1.636-1.66z" fill="#000"/><path d="M8.585 75.316l-1.652-1.648L38.75 41.703l1.65 1.644L8.585 75.316z" fill="#000"/><path d="M17.551 85.896L6.985 75.316l1.647-1.648L19.196 84.25l-1.645 1.646z" fill="#000"/><path d="M19.215 85.894l-1.67-1.622-3.396 3.5 1.67 1.621 3.396-3.499zm3.602 3.479l-1.648-1.648-3.586 3.584 1.647 1.649 3.587-3.585z" fill="#000"/><path d="M67.709 149c-.055 0-.116 0-.172-.01a3.413 3.413 0 01-2.483-1.186L30.057 112.82 1.172 83.863a3.411 3.411 0 01-1.17-2.49 3.89 3.89 0 01.938-2.67 3.876 3.876 0 012.476-1.37 3.418 3.418 0 012.697.771l.08.075 9.479 9.648-1.658 1.632-9.436-9.603a1.158 1.158 0 00-.86-.216c-.38.05-.735.248-.998.564a1.554 1.554 0 00-.388 1.079c.012.338.15.638.386.84l.073.068 28.915 28.981 35.102 35.101c.196.237.492.375.834.391.385.01.768-.117 1.079-.38.613-.506.766-1.33.364-1.854l-9.184-9.164 1.643-1.647 9.304 9.282c1.257 1.516.973 3.832-.634 5.17a3.89 3.89 0 01-2.505.929zM4.303 71.15c-.906 0-1.79-.324-2.506-.923-1.609-1.342-1.892-3.661-.635-5.173l.075-.078 9.574-9.55 1.65 1.651-9.53 9.502c-.408.528-.25 1.352.357 1.857.314.264.71.397 1.08.384.34-.02.636-.156.838-.397l.071-.078 35.029-35.023 1.65 1.648L6.962 69.958a3.442 3.442 0 01-2.485 1.185c-.057.006-.117.006-.173.006z" fill="#000"/><path d="M11.542 57.992l-1.648-1.647L65.113 1.192c.618-.72 1.497-1.14 2.48-1.186a3.9 3.9 0 012.681.915 3.9 3.9 0 011.388 2.469 3.431 3.431 0 01-.754 2.7l-.068.082-14.011 14.023-1.647-1.649 13.962-13.98c.18-.235.256-.538.212-.86a1.593 1.593 0 00-.572-.993 1.574 1.574 0 00-1.08-.381 1.153 1.153 0 00-.84.394l-.073.081-55.249 55.185zm4.124 17.212l-1.649-1.647 14.476-14.473 1.645 1.649-14.472 14.471z" fill="#000"/><path d="M32.737 90.63L15.67 73.553l-1.649 1.649 17.066 17.075 1.649-1.649zm27.134 37.468l-38.92-38.72 1.642-1.652L61.51 126.44l-1.64 1.658zm-1.731 1.973L19.105 91.269l-1.64 1.651 39.032 38.802 1.642-1.651zM73.944 7.328c0 .648.522 1.172 1.166 1.172a1.167 1.167 0 000-2.335c-.644 0-1.166.521-1.166 1.163zm.06 28.502c0 .661.53 1.192 1.19 1.192a1.192 1.192 0 10-1.19-1.192zm35.087 13.68a1.172 1.172 0 101.173-1.17c-.646.001-1.173.483-1.173 1.17zm-1.331-15.4a1.172 1.172 0 101.17-1.173c-.647 0-1.17.485-1.17 1.172zm-5.571 8.468a1.17 1.17 0 101.168-1.169c-.646 0-1.168.479-1.168 1.169zm3.699 3.525a1.17 1.17 0 102.341 0 1.17 1.17 0 00-1.17-1.173c-.647 0-1.171.482-1.171 1.173zm3.494-3.525a1.171 1.171 0 101.17-1.169c-.644 0-1.17.479-1.17 1.169zm21.134 42.497a1.172 1.172 0 101.172-1.172 1.145 1.145 0 00-1.172 1.172zm-3.493 3.569c0 .642.523 1.172 1.17 1.172.648 0 1.172-.53 1.172-1.172a1.17 1.17 0 00-1.172-1.172c-.646 0-1.17.481-1.17 1.172zm3.493 3.546a1.172 1.172 0 101.172-1.173 1.15 1.15 0 00-1.172 1.172zM73.887 42.853a1.224 1.224 0 102.449 0 1.224 1.224 0 10-2.449 0zM84.65 17.927a1.166 1.166 0 002.333 0 1.167 1.167 0 10-2.332 0zm-8.26-3.593a1.168 1.168 0 01-2.337 0c0-.645.526-1.163 1.17-1.163.645 0 1.167.518 1.167 1.163z" fill="#000"/><path d="M86.639 17.097L75.934 6.501l-1.642 1.658 10.705 10.597 1.642-1.659z" fill="#000"/><path d="M65.222 18.755l-1.635-1.658L74.289 6.5l1.64 1.657-10.707 10.598zm-7.669.615c0 .646-.523 1.17-1.167 1.17a1.168 1.168 0 010-2.336c.644 0 1.167.525 1.167 1.167zm8.264 5.332c-.087.736-.546 1.224-1.223 1.224-.67 0-1.12-.546-1.22-1.224-.101-.67.55-1.221 1.22-1.221.677 0 1.302.55 1.223 1.221z" fill="#000"/><path d="M63.654 25.435c-3.731-4.348-7.46-4.916-7.496-4.922l.3-2.309c.188.024 4.61.636 8.966 5.71l-1.77 1.521z" fill="#000"/><path d="M76.052 15.168l-1.635-1.66-10.675 10.51 1.635 1.66 10.675-10.51zm16.841 4.202c0 .646.522 1.17 1.166 1.17a1.167 1.167 0 000-2.336c-.644 0-1.166.525-1.166 1.167zm-8.265 5.332c.086.736.548 1.224 1.222 1.224.673 0 1.12-.546 1.222-1.224.099-.67-.549-1.221-1.222-1.221-.674 0-1.302.55-1.222 1.221z" fill="#000"/><path d="M86.79 25.435l-1.768-1.52c4.357-5.075 8.778-5.687 8.965-5.71l.292 2.308-.145-1.153.154 1.153c-.037.006-3.765.573-7.498 4.922z" fill="#000"/><path d="M86.722 24.014L76.04 13.512l-1.634 1.662 10.681 10.501 1.634-1.661zM38.366 59.399l-1.63-1.664 29.654-29.03c1.809-2.596 4.44-5.544 8.811-5.619h.17c3.811 0 5.74 2.216 8.399 5.27l.132.154 29.136 29.234-1.649 1.642L82.175 30.07l-.16-.182c-2.54-2.913-3.92-4.515-6.771-4.474-3.344.06-5.417 2.41-7 4.708l-.144.169-29.734 29.108z" fill="#000"/><path d="M95.722 108.312l-1.635-1.668 6.342-6.215 1.043-.961c6.811-6.267 16.139-14.85 16.351-23.04.234-9.143-2.689-13.58-8.916-19.517l1.606-1.688c6.594 6.287 9.894 11.3 9.639 21.264-.235 9.173-9.984 18.144-17.101 24.694l-1.021.941-6.308 6.19zm-21.429 26.912l-33.221-32.811c-8.345-7.707-16.935-16.844-17.169-26-.25-9.768 1.968-15.267 8.792-21.77l6.44-5.94 1.58 1.713-6.43 5.928C27.959 62.373 26 67.24 26.232 76.357c.215 8.332 8.9 17.401 16.448 24.365l33.25 32.847-1.637 1.655zm1.938-78.557a1.166 1.166 0 11-2.334 0c0-.642.52-1.166 1.167-1.166.645 0 1.168.482 1.168 1.166zm10.521 3.696c0 .645-.535 1.166-1.2 1.166-.666 0-1.205-.52-1.205-1.166 0-.645.54-1.165 1.205-1.165s1.2.481 1.2 1.165zm-10.52 24.705a1.166 1.166 0 11-1.168-1.166c.646 0 1.168.482 1.168 1.166zm.041 7.113a1.164 1.164 0 11-1.16-1.162c.64 0 1.16.479 1.16 1.162z" fill="#000"/><path d="M75.93 135.224l-1.638-1.658 33.244-32.814c7.574-6.994 16.262-16.062 16.474-24.401.234-9.111-1.726-13.978-8.068-20.02l-6.41-5.915 1.578-1.714 6.426 5.928c6.836 6.515 9.056 12.014 8.807 21.783-.234 9.157-8.824 18.293-17.199 26.02l-33.215 32.791zm.302-78.557h-2.33v28.401h2.33v-28.4zm10.45 3.623h-2.331v28.4h2.331v-28.4z" fill="#000"/><path d="M86.058 89.49l-.787-2.196-10.552 3.783.787 2.196 10.552-3.784z" fill="#000"/><path d="M75.577 91.092l-10.555-3.776-.785 2.195 10.555 3.776.785-2.195zm.241 8.758l-1.646-1.65 12.664-12.677c.213-.202.415-.408.624-.62 1.348-1.368 3.025-3.065 5.204-3.065 2.577 0 4.84 2.328 4.84 4.98h-2.33c0-1.387-1.198-2.648-2.51-2.648-1.202 0-2.45 1.258-3.543 2.368-.222.225-.44.444-.646.645L75.818 99.85z" fill="#000"/><path d="M74.54 99.85L61.874 87.17c-.197-.188-.412-.407-.634-.632-1.098-1.114-2.34-2.368-3.542-2.368-1.312 0-2.511 1.261-2.511 2.649h-2.328c0-2.652 2.262-4.98 4.84-4.98 2.177 0 3.854 1.696 5.2 3.061.21.215.414.42.61.609L76.189 98.2l-1.65 1.649zm11.37 13.817c-6.39 0-11.59-4.922-11.59-10.97h2.329c0 4.768 4.157 8.644 9.26 8.644 5.02 0 9.263-4.075 9.263-8.886h2.33c0 6.082-5.307 11.212-11.592 11.212z" fill="#000"/><path d="M64.348 113.667c-6.333 0-11.49-4.951-11.49-11.042h2.329c0 4.802 4.108 8.716 9.161 8.716s9.162-3.876 9.162-8.644h2.328c0 6.048-5.155 10.97-11.49 10.97z" fill="#000"/><path d="M76.929 98.41h-3.496v6.821h3.496v-6.82zm20.574-11.664h-2.33v15.951h2.33V86.746zm-22.358 25.853c-1.36 0-2.844-.489-4.293-1.857l1.601-1.697c2.8 2.645 5.457.124 5.568.019l1.624 1.668c-.884.859-2.557 1.867-4.5 1.867z" fill="#000"/><path d="M75.213 121.683c-1.447 0-3.112-.095-4.847-.385-8.997-1.491-9.558-8.648-9.56-8.719l2.326-.15c.018.213.497 5.388 7.617 6.573 4.716.78 8.95.011 8.994 0 6.622-1.404 7.114-6.374 7.13-6.588l2.326.172c-.007.069-.582 6.915-9 8.707-.144.019-2.159.39-4.986.39zm28.905-78.218l-1.518-1.768c5.029-4.32 5.165-7.554 5.165-7.583l2.33-.004c0 .168-.058 4.273-5.977 9.355z" fill="#000"/><path d="M106.253 46.944l-3.46-3.287 1.607-1.686 3.458 3.289-1.605 1.684z" fill="#000"/><path d="M111.372 43.415l-1.636-1.658-3.361 3.315 1.635 1.658 3.362-3.315z" fill="#000"/><path d="M141.479 75.316l-31.818-31.969 1.652-1.644 31.814 31.965-1.648 1.648z" fill="#000"/><path d="M143.073 75.306l-1.65-1.646-10.562 10.59 1.65 1.645 10.562-10.59z" fill="#000"/><path d="M135.907 87.736l-3.394-3.495-1.672 1.624 3.394 3.495 1.672-1.624zm-3.437 3.607l-3.58-3.588-1.65 1.646 3.58 3.588 1.65-1.646z" fill="#000"/><path d="M82.352 149a3.904 3.904 0 01-2.507-.928 3.92 3.92 0 01-1.387-2.466 3.431 3.431 0 01.758-2.705l.068-.074 9.233-9.208 1.645 1.647-9.185 9.164c-.18.231-.252.537-.209.856.052.384.254.736.57.998.316.263.709.39 1.083.38.34-.016.635-.153.833-.391l.074-.078 35.032-35.023 28.983-29.05c.238-.201.378-.5.388-.84a1.583 1.583 0 00-.388-1.078 1.571 1.571 0 00-.999-.564 1.15 1.15 0 00-.858.216l-9.434 9.603-1.663-1.632 9.559-9.723a3.446 3.446 0 012.694-.772c.958.121 1.839.61 2.482 1.37.642.757.973 1.708.935 2.672-.037.983-.451 1.863-1.171 2.489l-28.88 28.955-34.999 34.986a3.422 3.422 0 01-2.483 1.186c-.061.01-.114.01-.174.01zm63.407-77.85c-.058 0-.116 0-.171-.007a3.44 3.44 0 01-2.486-1.186L108.107 34.97l1.647-1.648 35.099 35.101c.203.241.497.379.839.398a1.6 1.6 0 001.084-.385 1.6 1.6 0 00.567-.994 1.151 1.151 0 00-.208-.863l-9.534-9.505 1.647-1.648 9.648 9.629c.625.748.893 1.706.757 2.703a3.919 3.919 0 01-1.388 2.47c-.716.6-1.601.923-2.506.923z" fill="#000"/><path d="M138.522 57.993L83.23 2.768l-.033-.043c-.198-.237-.495-.377-.841-.394a1.588 1.588 0 00-1.078.381c-.316.263-.52.616-.57.993-.045.323.03.626.21.86l13.965 13.98-1.65 1.649-14.08-14.105c-.626-.746-.893-1.707-.755-2.7A3.902 3.902 0 0179.786.92c.765-.635 1.708-.965 2.68-.915.983.045 1.863.466 2.484 1.186l55.217 55.153-1.645 1.649zm-2.48 15.559L121.57 59.08l-1.648 1.649 14.472 14.472 1.648-1.648z" fill="#000"/><path d="M136.02 75.196l-1.651-1.648-17.056 17.084 1.652 1.648 17.055-17.084zm-45.824 52.902l-1.646-1.658 38.918-38.714 1.643 1.651-38.915 38.721zm42.394-35.185l-1.643-1.65-39.016 38.818 1.642 1.651 39.017-38.819zM57.42 53.33a3.605 3.605 0 01-2.644-1.148l-5.335-5.231 1.63-1.665 5.409 5.3a1.27 1.27 0 001.901-1.677L47.935 38.715c-1.78-1.694-2.837-3.957-2.965-6.365-.127-2.435.702-4.723 2.34-6.442 3.364-3.538 9.121-3.538 12.832-.007l15.533 16.084-1.672 1.619L58.5 27.552c-2.747-2.61-7.026-2.641-9.505-.042-1.19 1.257-1.793 2.928-1.697 4.716.094 1.81.894 3.517 2.254 4.808L60.088 47.32a3.602 3.602 0 01-.255 5.082 3.576 3.576 0 01-2.413.929z" fill="#000"/><path d="M67.857 49.563c-.06 0-.125 0-.183-.007a3.59 3.59 0 01-2.467-1.15L50.803 34.18a3.599 3.599 0 015.472-4.676L70.518 43.55c.645.71.976 1.63.927 2.593a3.575 3.575 0 01-1.18 2.489 3.576 3.576 0 01-2.408.93zM52.575 32.66l14.337 14.153a1.27 1.27 0 001.792.092 1.266 1.266 0 00.105-1.772L54.37 30.896a1.27 1.27 0 00-1.587.017 1.271 1.271 0 00-.207 1.746zm1.078 45.274c-.062 0-.124 0-.184-.003a3.592 3.592 0 01-2.466-1.154l-15.638-15.47 1.64-1.66 15.703 15.541c.227.251.541.398.878.414.336.02.663-.098.915-.325.51-.463.555-1.25.105-1.773L41.718 60.801l1.635-1.662 12.963 12.789a3.598 3.598 0 01-.25 5.074 3.583 3.583 0 01-2.413.933zm42.634.001a3.56 3.56 0 01-2.41-.933 3.595 3.595 0 01-.252-5.074l.043-.053 12.917-12.736 1.638 1.661-12.89 12.704c-.45.522-.403 1.31.11 1.775.25.225.573.342.91.323a1.26 1.26 0 00.88-.414l.043-.049 15.66-15.492 1.639 1.66-15.641 15.47a3.574 3.574 0 01-2.462 1.154c-.061.004-.122.004-.185.004zm-49.519 7.133c-.883 0-1.726-.32-2.39-.912l-.05-.045-13.56-13.571 1.65-1.648 13.53 13.545c.249.215.567.315.896.3a1.26 1.26 0 00.873-.424c.225-.253.34-.577.32-.916a1.255 1.255 0 00-.424-.873l-.055-.049-14.935-15.13 1.658-1.636L49.195 78.81a3.571 3.571 0 011.169 2.453 3.59 3.59 0 01-.905 2.6 3.585 3.585 0 01-2.478 1.197c-.074.008-.144.008-.213.008zm56.586 0c-.067 0-.142 0-.211-.007a3.572 3.572 0 01-2.478-1.198 3.57 3.57 0 01-.906-2.6 3.561 3.561 0 011.169-2.452l14.914-15.101 1.656 1.634-14.991 15.18a1.273 1.273 0 00-.1 1.79 1.264 1.264 0 001.764.124l13.536-13.545 1.648 1.647-13.611 13.616a3.57 3.57 0 01-2.39.912zM81.759 49.562a3.578 3.578 0 01-2.412-.931 3.59 3.59 0 01-1.18-2.49 3.584 3.584 0 01.925-2.592l.05-.05 14.202-14.003a3.573 3.573 0 012.332-1.182 3.563 3.563 0 012.635.801 3.567 3.567 0 011.298 2.427 3.59 3.59 0 01-.802 2.638l-.083.084-14.321 14.137a3.554 3.554 0 01-2.463 1.154c-.06.007-.122.007-.181.007zm-.956-4.43a1.277 1.277 0 00-.311.893c.019.338.166.65.417.88a1.273 1.273 0 001.793-.092l.045-.045L97.04 32.66a1.271 1.271 0 00-1.8-1.763L80.803 45.132z" fill="#000"/><path d="M92.191 53.331a3.59 3.59 0 01-2.413-.928 3.606 3.606 0 01-.253-5.082l.054-.052 10.473-10.221c1.37-1.303 2.167-3.01 2.264-4.822.096-1.788-.508-3.459-1.702-4.716-1.182-1.244-2.817-1.931-4.599-1.931h-.02c-1.805.006-3.543.713-4.896 1.99L75.942 43.651l-1.696-1.597 15.223-16.153c1.79-1.703 4.106-2.645 6.517-2.651h.03c2.424 0 4.654.94 6.288 2.658 1.635 1.72 2.47 4.006 2.337 6.442-.128 2.408-1.182 4.672-2.972 6.375L91.233 48.907a1.267 1.267 0 001.898 1.677l.077-.075 5.755-5.29 1.576 1.717-5.72 5.257a3.571 3.571 0 01-2.628 1.138zM75.673 34.995l-7.137-7.483-1.687 1.609 7.137 7.482 1.687-1.608z" fill="#000"/><path d="M83.033 29.201l-1.66-1.632-7.247 7.373 1.66 1.632 7.247-7.373zM64.512 59.198H37.436v2.331h27.076v-2.331zm47.806 0H85.243v2.331h27.075v-2.331z" fill="#000"/><path d="M65.356 73.665L51.213 59.538l-1.647 1.65 14.142 14.126 1.648-1.65zm.001-6.752l-7.067-7.378-1.685 1.614 7.067 7.377 1.685-1.613zm27.284-13.582a3.58 3.58 0 01-2.411-.928 3.575 3.575 0 01-1.18-2.489 3.56 3.56 0 01.927-2.593l.049-.052L100.5 37.048c2.794-2.658 3.041-6.932.566-9.538-2.48-2.602-6.758-2.567-9.538.082L76.06 43.605l-1.677-1.619 15.5-16.053c3.747-3.564 9.505-3.564 12.868-.026 3.364 3.53 3.078 9.284-.636 12.818L91.682 48.907a1.265 1.265 0 00.109 1.77c.52.47 1.32.43 1.793-.092l.045-.049 5.362-5.25 1.631 1.664-5.34 5.231a3.586 3.586 0 01-2.64 1.15z" fill="#000"/><path d="M82.204 49.562a3.59 3.59 0 01-2.411-.931 3.608 3.608 0 01-.252-5.082l.046-.05 14.206-14.003a3.573 3.573 0 012.328-1.182 3.57 3.57 0 012.64.801 3.596 3.596 0 01.495 5.065l-.084.084-14.317 14.14a3.589 3.589 0 01-2.467 1.15c-.059.008-.12.008-.184.008zm-.95-4.43a1.27 1.27 0 00.106 1.772c.25.227.584.339.912.325a1.25 1.25 0 00.878-.417l.045-.045 14.292-14.108c.195-.257.282-.57.25-.89a1.249 1.249 0 00-.455-.856 1.262 1.262 0 00-1.589-.017l-14.44 14.236zm15.159 32.803c-.86 0-1.725-.306-2.411-.932a3.592 3.592 0 01-.254-5.082l.046-.046 12.912-12.737 1.636 1.662-12.885 12.703a1.278 1.278 0 00-.308.896c.015.336.162.649.414.876.519.47 1.32.43 1.795-.09l.043-.046 15.659-15.493 1.638 1.661-15.639 15.47a3.589 3.589 0 01-2.646 1.158zm6.883 7.133c-.07 0-.141 0-.213-.007a3.576 3.576 0 01-2.477-1.198 3.554 3.554 0 01-.905-2.6 3.55 3.55 0 011.17-2.452l14.91-15.101 1.658 1.634-14.988 15.18a1.258 1.258 0 00-.424.874c-.019.338.093.661.321.916.222.253.53.403.871.423.332.02.645-.085.895-.3l13.533-13.544 1.647 1.647-13.61 13.616a3.577 3.577 0 01-2.388.912zM83.182 29.124l-1.688-1.61L74.36 35l1.689 1.61 7.133-7.486z" fill="#000"/><path d="M112.627 59.198H85.552v2.331h27.075v-2.331z" fill="#000"/><path d="M100.499 61.184l-1.647-1.648-14.139 14.127 1.647 1.648 14.139-14.127zM86.391 68.55l-1.68-1.612 7.069-7.382 1.679 1.615-7.068 7.379z" fill="#000"/><path d="M100.282 61.203l-1.65-1.648L84.503 73.7l1.65 1.648 14.128-14.145zM86.167 68.55l-1.681-1.612 7.066-7.382 1.683 1.615-7.068 7.379z" fill="#000"/></svg>