<svg width="118" height="20" fill="none" xmlns="http://www.w3.org/2000/svg"><path fill-rule="evenodd" clip-rule="evenodd" d="M45.497 9.738v8.902c-.002.775-.346 1.119-1.13 1.119H41.95c-.704 0-1.067-.366-1.067-1.075V5.761c0-1.58-.003-3.16 0-4.741.003-.766.696-1.24 1.344-.918.123.062.233.157.334.25 3.305 3.151 6.605 6.3 9.908 9.448.067.063.137.124.25.225V1.114c0-.761.35-1.105 1.112-1.107.826 0 1.65-.003 2.475.002.65 0 1.026.374 1.026 1.034.003 5.896 0 11.792 0 17.689 0 .434-.159.775-.569.952-.422.176-.779.048-1.102-.261-3.306-3.158-6.615-6.31-9.925-9.464-.06-.06-.126-.118-.238-.221zm-.945-2.206l11.822 11.273V.963H53.65v11.263C49.695 8.452 45.783 4.722 41.836.958V18.81h2.716V7.532zm61.11 2.196v8.926c0 .768-.338 1.105-1.106 1.105h-2.447c-.678 0-1.044-.361-1.044-1.036 0-5.889 0-11.775-.004-17.664 0-.45.149-.795.569-.977.419-.177.778-.046 1.101.26 3.262 3.116 6.525 6.227 9.788 9.342l.359.336c.007-.162.017-.268.017-.374V1.25c0-.106-.003-.209.005-.317.032-.564.401-.923.969-.925.877-.005 1.755-.005 2.63 0 .636.003 1.004.383 1.004 1.026V16.59c0 .701-.009 1.405.003 2.107.007.445-.145.798-.564.98-.431.188-.793.046-1.122-.268-2.116-2.027-4.239-4.046-6.36-6.07-1.166-1.115-2.335-2.228-3.504-3.343-.081-.078-.163-.149-.294-.27zm-.937-2.198c3.97 3.783 7.878 7.51 11.821 11.27V.96h-2.726v11.26A27179.01 27179.01 0 00102.015.962v17.841h2.71V7.53zM31.747 4.447v2.665h.308c1.904 0 3.809-.003 5.712 0 .752 0 1.097.346 1.097 1.092.002.76.002 1.524 0 2.287 0 .696-.356 1.06-1.047 1.06h-6.064v3.764h.312c1.885 0 3.773.017 5.658-.008.775-.012 1.186.455 1.15 1.164-.035.76-.005 1.526-.009 2.286-.002.62-.385 1.002-1 1.002h-9.742c-.6 0-.998-.386-.998-.982-.002-5.93-.002-11.861 0-17.794 0-.586.39-.974.979-.974 3.263-.003 6.528-.003 9.793 0 .588 0 .966.388.969.978.005.815.004 1.632 0 2.45-.001.635-.37 1.008-1.016 1.008-1.921.005-3.843.002-5.765.002h-.337zM28.083.958v17.846h9.825v-2.562h-7.095v-5.629h7.097V8.044h-7.098V3.507h7.094V.957l-9.823.001zM4.626 4.448v2.665h.324c1.896 0 3.791-.002 5.687 0 .763 0 1.104.346 1.104 1.11 0 .772.003 1.545 0 2.316 0 .637-.376 1.01-1.017 1.013H4.625c-.007.116-.017.209-.017.302 0 1.053.007 2.105-.005 3.158-.004.238.059.31.304.308 1.896-.007 3.791-.004 5.687-.002.818 0 1.147.331 1.147 1.146 0 .763.002 1.526 0 2.292 0 .616-.386 1.004-1 1.004h-9.74c-.614 0-1-.388-1-1.002V1.015C0 .392.376.01.995.01c3.247-.002 6.493-.002 9.74 0 .635 0 1.005.383 1.005 1.023.002.8.002 1.597 0 2.395 0 .64-.368 1.019-1.012 1.019-1.922.005-3.842.002-5.763.002h-.34zm6.162 3.593h-7.1V3.516h7.099V.96H.962v17.843h9.819V16.24H3.693v-5.627h7.096V8.041zM96.92 19.76c-.458 0-.913-.008-1.37.002-.489.01-.81-.214-1-.658-.491-1.143-.992-2.284-1.477-3.425-.078-.182-.172-.24-.369-.24-1.975.007-3.947.007-5.922 0-.19 0-.274.063-.349.23-.503 1.129-1.026 2.248-1.522 3.376-.215.498-.552.731-1.099.719-.886-.02-1.772-.005-2.658-.005-.866 0-1.285-.653-.922-1.448 2.02-4.412 4.045-8.821 6.068-13.233.676-1.474 1.354-2.944 2.025-4.421.2-.44.515-.665 1.006-.65.376.012.755.014 1.13.004.533-.017.865.226 1.075.712 1.47 3.384 2.947 6.763 4.423 10.141l3.247 7.442c.355.82-.055 1.453-.944 1.453H96.92zm1.47-.94c-.035-.1-.06-.172-.091-.239-2.534-5.808-5.067-11.614-7.596-17.419-.064-.145-.133-.218-.305-.21-.307.011-.616.009-.922-.008-.182-.01-.276.049-.356.223-2.655 5.808-5.32 11.614-7.98 17.417-.031.069-.053.142-.088.236.915 0 1.802-.005 2.687.007.192.002.272-.07.345-.236.577-1.286 1.166-2.567 1.74-3.857.082-.18.178-.238.373-.236 2.362.008 4.721.008 7.082-.002.225 0 .334.063.424.274.542 1.284 1.102 2.56 1.663 3.833.039.089.14.207.215.209.928.015 1.856.007 2.809.007zM65.571 9.888V1.123c0-.783.332-1.117 1.12-1.117 1.456.003 2.913-.012 4.37.013 1.777.032 3.517.282 5.115 1.119 2.676 1.401 4.264 3.64 4.873 6.568.508 2.437.267 4.817-.95 7.015-1.496 2.7-3.832 4.282-6.858 4.812-.893.157-1.813.191-2.72.218-1.309.034-2.616.007-3.924.007-.657 0-1.026-.365-1.026-1.025-.002-2.95 0-5.896 0-8.845zm.949 8.931c1.26 0 2.489.02 3.716-.007.893-.022 1.794-.03 2.674-.172 2.92-.469 5.142-1.982 6.503-4.635.972-1.894 1.147-3.93.743-5.997-.522-2.67-1.942-4.723-4.37-6.019-1.402-.746-2.934-.988-4.499-1.023C69.77.932 68.251.95 66.734.946c-.068-.002-.134.013-.213.018l-.001 17.855zm-48.208-3.504h.35c1.817 0 3.633 0 5.45.002.8 0 1.132.332 1.134 1.134 0 .746 0 1.492-.002 2.238 0 .714-.354 1.07-1.063 1.07h-9.425c-.688 0-1.059-.368-1.059-1.055-.002-5.88-.002-11.759 0-17.638 0-.69.366-1.057 1.053-1.06.815-.002 1.632 0 2.448 0 .763.003 1.112.346 1.112 1.107.002 4.607.002 9.213.002 13.824v.378zM14.656.958v17.844h9.658c0-.769-.01-1.512.007-2.255.005-.246-.07-.307-.31-.305-2.106.008-4.212.005-6.317.005h-.328V.958h-2.71z" fill="#000"/><path fill-rule="evenodd" clip-rule="evenodd" d="M89.824 5.415c.897 2.195 1.767 4.335 2.65 6.501h-5.406l2.756-6.501zm-1.34 5.57h2.599l-1.276-3.122c-.457 1.078-.884 2.081-1.323 3.122zM69.25 16.22V3.512c.338 0 .66.003.983 0 1.073-.002 2.138.055 3.175.368 2.262.69 3.552 2.28 4.032 4.53.469 2.196.012 4.2-1.521 5.896-.963 1.06-2.195 1.637-3.59 1.801-.98.12-1.975.098-2.967.137-.032 0-.066-.014-.111-.024zm.93-.88c.614-.037 1.201-.047 1.783-.116 1.163-.143 2.238-.52 3.086-1.374 1.502-1.52 1.908-3.352 1.446-5.386-.34-1.497-1.143-2.685-2.564-3.379-.776-.378-1.607-.545-2.464-.594-.424-.025-.851-.005-1.287-.005v10.853z" fill="#000"/></svg>