<svg width="179" height="178" fill="none" xmlns="http://www.w3.org/2000/svg"><path d="M87.856 160.093c0 .859.696 1.558 1.552 1.558.853 0 1.548-.699 1.548-1.558 0-.851-.695-1.544-1.548-1.544-.858 0-1.552.639-1.552 1.544zm-17.01-8.055a1.549 1.549 0 003.096 0 1.55 1.55 0 00-1.545-1.553c-.86-.001-1.551.644-1.551 1.553zm-3.94 4.005c0 .851.696 1.551 1.55 1.551a1.551 1.551 0 100-3.104c-.854 0-1.55.641-1.55 1.553zm8.297.478a1.552 1.552 0 003.101 0c0-.859-.694-1.546-1.55-1.546-.855 0-1.55.633-1.55 1.546zm-3.998 3.975a1.55 1.55 0 003.101 0 1.55 1.55 0 00-1.55-1.549c-.855-.001-1.55.636-1.55 1.549zm29.387-4.055c0 .851.694 1.542 1.552 1.542.854 0 1.548-.69 1.548-1.542a1.55 1.55 0 00-1.548-1.555c-.858 0-1.552.641-1.552 1.555zm4.113 4.16a1.55 1.55 0 103.1 0c0-.851-.691-1.551-1.549-1.551-.856 0-1.551.642-1.551 1.551z" fill="#000"/><path d="M73.643 152.973l-1.98-1.953-4.099 4.153 1.98 1.954 4.099-4.154zm-.233 8.596l-1.957-1.974 4.318-4.296 1.96 1.974-4.322 4.296z" fill="#000"/><path d="M88.113 169.663l-12.101-12.159 1.966-1.967 12.109 12.164-1.974 1.962zm80.237-80.811c0 .77.622 1.398 1.396 1.398a1.396 1.396 0 000-2.793c-.775 0-1.396.575-1.396 1.395zm-8.452-.132a1.396 1.396 0 102.79 0c0-.77-.625-1.398-1.396-1.398-.77 0-1.394.582-1.394 1.398zm0 17.018a1.4 1.4 0 001.394 1.398c.77 0 1.396-.633 1.396-1.398 0-.773-.625-1.398-1.396-1.398-.77-.001-1.394.574-1.394 1.398zM91.15 160.093c0 .859-.696 1.558-1.553 1.558a1.55 1.55 0 010-3.102c.857 0 1.552.639 1.552 1.544zm17.009-8.055a1.55 1.55 0 11-1.551-1.553c.857 0 1.551.644 1.551 1.553zm3.932 4.005a1.55 1.55 0 01-1.548 1.551 1.55 1.55 0 110-3.104c.86 0 1.548.641 1.548 1.553zm-8.294.478c0 .855-.695 1.551-1.554 1.551a1.55 1.55 0 010-3.097c.859 0 1.554.633 1.554 1.546zm3.997 3.975a1.55 1.55 0 01-1.553 1.547 1.545 1.545 0 01-1.548-1.547c0-.855.69-1.549 1.548-1.549.857-.001 1.553.636 1.553 1.549z" fill="#000"/><path d="M111.417 155.17l-4.103-4.152-1.974 1.951 4.102 4.152 1.975-1.951zm-3.9 4.418l-4.32-4.296-1.962 1.973 4.32 4.297 1.962-1.974z" fill="#000"/><path d="M90.885 169.663l-1.969-1.962 12.104-12.164 1.97 1.967-12.105 12.159zm-.09-160.922a1.392 1.392 0 11-1.391-1.387c.772 0 1.39.622 1.39 1.387zm-.066 33.999a1.42 1.42 0 01-1.421 1.421 1.423 1.423 0 111.421-1.422zm41.954 16.294c0 .754-.614 1.36-1.365 1.36a1.36 1.36 0 01-1.363-1.36c0-.753.612-1.364 1.363-1.364s1.365.564 1.365 1.364zm-83.814.024a1.398 1.398 0 11-2.795 0c0-.77.626-1.395 1.397-1.395.77 0 1.398.575 1.398 1.395zm1.591-18.371a1.4 1.4 0 01-1.4 1.398 1.4 1.4 0 010-2.797c.774 0 1.4.579 1.4 1.399zm6.642 10.102a1.397 1.397 0 11-1.395-1.394c.77 0 1.395.57 1.395 1.394zm-4.404 4.204a1.399 1.399 0 11-1.4-1.398c.773 0 1.4.574 1.4 1.398zm-4.174-4.204a1.396 1.396 0 11-1.395-1.394c.77 0 1.395.57 1.395 1.394zM10.652 88.852a1.398 1.398 0 11-2.795 0c0-.77.627-1.395 1.399-1.395.771 0 1.396.575 1.396 1.395zm12.661 12.628a1.397 1.397 0 11-1.397-1.398c.77-.001 1.397.574 1.397 1.398zm4.172 4.258c0 .765-.625 1.398-1.397 1.398a1.398 1.398 0 110-2.796c.771 0 1.397.574 1.397 1.398zm-4.172 4.229a1.398 1.398 0 01-2.793 0c0-.77.623-1.399 1.396-1.399a1.37 1.37 0 011.397 1.399zM19.101 88.72a1.396 1.396 0 11-2.793 0c0-.77.625-1.398 1.395-1.398.772 0 1.398.582 1.398 1.398zm0 17.018c0 .765-.626 1.398-1.398 1.398a1.402 1.402 0 01-1.394-1.398c0-.773.624-1.398 1.394-1.398.772-.001 1.398.574 1.398 1.398zM90.86 51.116a1.458 1.458 0 11-2.917 0 1.46 1.46 0 112.917 0zM78.028 21.384a1.39 1.39 0 01-2.78 0c0-.77.62-1.396 1.391-1.396.766 0 1.39.626 1.39 1.396zm25.536 0a1.393 1.393 0 11-2.784-.006 1.393 1.393 0 012.784.006zm-15.681-4.286a1.392 1.392 0 002.782 0c0-.77-.62-1.387-1.394-1.387a1.386 1.386 0 00-1.388 1.387z" fill="#000"/><path d="M90.405 9.729l-1.958-1.977-12.769 12.643 1.958 1.977L90.405 9.73z" fill="#000"/><path d="M103.139 20.397l-12.77-12.64-1.955 1.975 12.769 12.64 1.956-1.975zm7.211 2.709c0 .77.619 1.395 1.388 1.395a1.394 1.394 0 000-2.786 1.39 1.39 0 00-1.388 1.39zm-9.86 6.36c.105.878.652 1.46 1.458 1.46.804 0 1.338-.651 1.454-1.46.124-.8-.65-1.457-1.454-1.457-.806 0-1.55.656-1.458 1.457z" fill="#000"/><path d="M103.073 30.34l-2.114-1.814c5.198-6.053 10.474-6.783 10.698-6.811l.351 2.754-.175-1.375.18 1.375c-.042.007-4.489.684-8.94 5.871z" fill="#000"/><path d="M102.981 28.644L90.232 16.118l-1.95 1.984 12.749 12.527 1.95-1.985zm-34.787-5.538c0 .77-.615 1.395-1.389 1.395a1.392 1.392 0 010-2.786 1.387 1.387 0 011.39 1.39zm9.859 6.36c-.103.878-.652 1.46-1.46 1.46-.806 0-1.336-.651-1.456-1.46-.12-.8.65-1.457 1.457-1.457s1.552.656 1.459 1.457z" fill="#000"/><path d="M75.474 30.34c-4.453-5.187-8.897-5.864-8.947-5.87l.362-2.755c.222.028 5.5.758 10.696 6.81l-2.111 1.815z" fill="#000"/><path d="M90.248 18.095l-1.95-1.98-12.734 12.53 1.949 1.982 12.735-12.532zm42.986 52.758L97.672 36.04l-.076-.109c-1.89-2.74-4.362-5.545-8.348-5.615-3.376-.054-5.053 1.861-8.081 5.34l-.247.282-34.79 34.903-1.972-1.962 34.758-34.872.156-.174c3.17-3.645 5.476-6.295 10.023-6.295h.198c5.22.089 8.36 3.606 10.512 6.702l35.378 34.628-1.949 1.985z" fill="#000"/><path d="M64.825 129.198l-7.562-7.414-1.184-1.091c-8.488-7.814-20.119-18.514-20.399-29.456-.302-11.881 3.634-17.866 11.495-25.364l1.918 2.012c-7.426 7.088-10.915 12.38-10.635 23.282.247 9.768 11.38 20.007 19.503 27.482l1.218 1.123 7.591 7.437-1.945 1.989zm48.444.988l-1.912-2.02 10.047-9.517c8.125-7.475 19.254-17.713 19.505-27.482.28-10.902-3.21-16.194-10.639-23.282l1.92-2.012c7.865 7.498 11.802 13.483 11.495 25.364-.278 10.942-11.908 21.643-20.399 29.456l-1.215 1.122-8.802 8.371z" fill="#000"/><path d="M90.38 161.3l-1.952-1.973 39.627-39.147c9.034-8.342 19.397-19.159 19.654-29.106.276-10.864-2.065-16.674-9.627-23.88l-7.647-7.056 1.886-2.044 7.666 7.07c8.152 7.772 10.8 14.33 10.501 25.984-.279 10.922-10.527 21.821-20.512 31.038L90.381 161.3zm-2.312-93.706a1.39 1.39 0 102.784 0c0-.766-.622-1.39-1.394-1.39-.766 0-1.39.574-1.39 1.39zm-12.556 4.409c0 .77.646 1.391 1.441 1.391.79 0 1.432-.621 1.432-1.39 0-.77-.643-1.39-1.432-1.39-.795 0-1.441.573-1.441 1.39zm12.552 29.47a1.392 1.392 0 101.393-1.391c-.77 0-1.392.575-1.392 1.391zm-.048 8.485a1.39 1.39 0 101.392-1.387c-.767 0-1.392.571-1.392 1.387z" fill="#000"/><path d="M88.429 161.3L48.77 122.162c-9.951-9.193-20.2-20.093-20.475-31.014-.3-11.652 2.344-18.21 10.48-25.968l7.686-7.086 1.883 2.044-7.67 7.07c-7.546 7.192-9.882 12.998-9.603 23.866.253 9.946 10.615 20.764 19.619 29.071l39.69 39.178-1.952 1.977zm2.416-93.705h-2.777v33.878h2.777V67.595zm-12.467 4.321H75.6v33.878h2.778V71.916zm24.738.087c0 .77-.642 1.391-1.433 1.391-.797 0-1.437-.621-1.437-1.39 0-.77.64-1.39 1.437-1.39.791 0 1.433.573 1.433 1.39z" fill="#000"/><path d="M103.032 71.916h-2.778v33.878h2.778V71.916zM89.89 108.654L77.3 104.15l-.936 2.619 12.59 4.503.937-2.618z" fill="#000"/><path d="M102.383 106.792l-.936-2.619-12.592 4.501.936 2.619 12.592-4.501zm-13.83 12.313L73.45 103.982c-.234-.225-.494-.487-.76-.754-1.306-1.329-2.79-2.825-4.225-2.825-1.564 0-2.99 1.504-2.99 3.159h-2.779c0-3.163 2.698-5.94 5.77-5.94 2.595 0 4.6 2.023 6.207 3.652.248.256.492.501.728.726l15.123 15.139-1.972 1.966z" fill="#000"/><path d="M90.088 119.105l-1.969-1.966 15.111-15.123c.251-.24.492-.486.744-.738 1.607-1.633 3.605-3.657 6.201-3.657 3.073 0 5.776 2.777 5.776 5.941h-2.78c0-1.655-1.426-3.159-2.995-3.159-1.435 0-2.915 1.501-4.224 2.825-.27.267-.524.529-.771.769l-15.093 15.108zM76.52 135.586c-7.494 0-13.823-6.119-13.823-13.374h2.776c0 5.739 5.062 10.599 11.046 10.599 6.09 0 11.043-4.623 11.043-10.31h2.782c.003 7.214-6.201 13.085-13.824 13.085z" fill="#000"/><path d="M102.24 135.586c-7.56 0-13.705-5.871-13.705-13.085h2.776c0 5.688 4.901 10.311 10.931 10.311 6.027 0 10.928-4.669 10.928-10.397h2.78c0 7.265-6.15 13.171-13.71 13.171z" fill="#000"/><path d="M91.406 117.387h-4.172v8.136h4.172v-8.136zm-25.931-13.914h-2.778V122.5h2.778v-19.027zm50.475 0h-2.78V122.5h2.78v-19.027zm-26.588 30.84c-2.317 0-4.313-1.202-5.368-2.227l1.934-1.989-.967.99.961-.999c.341.319 3.405 3.051 6.649-.015l1.908 2.024c-1.723 1.633-3.5 2.216-5.117 2.216z" fill="#000"/><path d="M89.278 145.148c-3.365 0-5.756-.435-5.906-.462-10.079-2.141-10.765-10.308-10.77-10.39l2.771-.191-1.383.093 1.383-.107c.022.256.603 6.185 8.541 7.871.017 0 5.09.913 10.693-.012 8.493-1.414 9.067-7.588 9.088-7.845l2.773.183c-.001.086-.674 8.622-11.405 10.401-2.067.348-4.058.459-5.785.459zM54.804 51.847c-7.057-6.062-7.128-10.958-7.128-11.16l2.778.004-1.393-.004 1.393-.018c0 .038.189 3.935 6.161 9.068l-1.811 2.11zm73.86-11.16c0 .77.625 1.398 1.395 1.398a1.4 1.4 0 001.399-1.398 1.4 1.4 0 00-1.399-1.398c-.769 0-1.395.578-1.395 1.398zm-6.644 10.102c0 .777.627 1.398 1.399 1.398.771 0 1.396-.622 1.396-1.398 0-.77-.624-1.395-1.396-1.395-.773 0-1.399.572-1.399 1.395z" fill="#000"/><path d="M124.324 51.847l-1.812-2.11c5.997-5.151 6.16-9.01 6.16-9.045l2.782-.004c0 .2-.072 5.096-7.13 11.159zm-67.948.205l-1.911-2.009-4.125 3.924 1.911 2.009 4.125-3.924z" fill="#000"/><path d="M52.133 53.766l-4.012-3.956-1.951 1.979 4.012 3.956 1.951-1.98z" fill="#000"/><path d="M10.24 89.84l-1.97-1.967 37.952-38.128 1.968 1.961L10.24 89.84z" fill="#000"/><path d="M20.935 102.46L8.332 89.84l1.964-1.966 12.602 12.623-1.963 1.963z" fill="#000"/><path d="M22.92 102.458l-1.992-1.935-4.051 4.174 1.992 1.934 4.052-4.173zm4.3 4.15l-1.966-1.966-4.278 4.275 1.965 1.967 4.278-4.276z" fill="#000"/><path d="M80.766 177.733c-.065 0-.139 0-.205-.012-1.17-.049-2.222-.551-2.962-1.415l-41.747-41.73L1.4 100.034a4.068 4.068 0 01-1.396-2.969 4.64 4.64 0 011.119-3.186 4.623 4.623 0 012.952-1.635c1.192-.159 2.337.175 3.218.922l.094.088 11.308 11.509-1.978 1.947L5.461 95.255a1.381 1.381 0 00-1.026-.257 1.865 1.865 0 00-1.19.672c-.32.376-.485.831-.464 1.287.015.404.18.76.461 1.002l.088.081 34.49 34.57 41.87 41.869c.235.283.588.448.996.467.459.012.916-.139 1.287-.453.731-.604.914-1.586.434-2.212L71.453 161.35l1.959-1.965 11.098 11.073c1.5 1.807 1.161 4.571-.757 6.166a4.635 4.635 0 01-2.987 1.109zM5.132 84.87a4.655 4.655 0 01-2.99-1.1c-1.918-1.601-2.256-4.368-.757-6.17l.09-.094 11.42-11.392 1.969 1.97-11.37 11.334c-.485.63-.296 1.613.427 2.215.375.315.847.474 1.288.459.406-.024.759-.188 1-.475l.085-.093 41.783-41.776 1.97 1.965L8.302 83.448a4.107 4.107 0 01-2.964 1.414c-.069.008-.14.008-.207.008z" fill="#000"/><path d="M13.77 69.175l-1.967-1.965L77.67 1.421c.737-.86 1.787-1.36 2.959-1.415 1.145-.059 2.285.335 3.198 1.092a4.651 4.651 0 011.656 2.945c.164 1.185-.157 2.331-.9 3.221l-.081.097-16.713 16.727-1.964-1.966L82.479 5.446c.215-.28.305-.642.252-1.026a1.9 1.9 0 00-.682-1.184 1.877 1.877 0 00-1.288-.455c-.407.02-.762.187-1.002.47l-.087.097L13.77 69.175zm4.916 20.531l-1.967-1.965 17.267-17.263 1.962 1.966-17.262 17.262z" fill="#000"/><path d="M39.048 108.107L18.69 87.739l-1.967 1.966 20.357 20.368 1.967-1.966zM71.415 152.8L24.99 106.612l1.958-1.969 46.423 46.18-1.956 1.977zm-2.062 2.353l-46.56-46.284-1.958 1.97 46.56 46.284 1.958-1.97zM88.203 8.741c0 .773.622 1.398 1.391 1.398a1.392 1.392 0 000-2.785c-.77 0-1.39.622-1.39 1.387zm.072 33.999c0 .788.632 1.421 1.42 1.421a1.422 1.422 0 10-1.42-1.422zm41.854 16.318a1.397 1.397 0 101.399-1.395c-.771 0-1.399.575-1.399 1.395zm-1.59-18.371a1.398 1.398 0 101.395-1.398c-.771 0-1.395.578-1.395 1.398zm-6.644 10.102a1.396 1.396 0 101.393-1.394c-.771 0-1.393.57-1.393 1.394zm4.412 4.204a1.397 1.397 0 102.792 0c0-.774-.625-1.398-1.395-1.398-.772 0-1.397.574-1.397 1.398zm4.17-4.204a1.397 1.397 0 101.395-1.394c-.768 0-1.395.57-1.395 1.394zm25.207 50.691a1.398 1.398 0 002.796 0c0-.773-.627-1.398-1.398-1.398-.771-.001-1.398.574-1.398 1.398zm-4.166 4.258a1.4 1.4 0 001.395 1.398c.773 0 1.398-.633 1.398-1.398 0-.773-.624-1.398-1.398-1.398-.771-.001-1.395.574-1.395 1.398zm4.166 4.229a1.397 1.397 0 101.398-1.399 1.371 1.371 0 00-1.398 1.399zM88.135 51.116a1.46 1.46 0 102.92 0 1.46 1.46 0 10-2.92 0zm12.84-29.732a1.39 1.39 0 002.782 0c0-.77-.625-1.396-1.394-1.396-.768 0-1.388.626-1.388 1.396zm-9.855-4.286a1.393 1.393 0 01-2.788 0c0-.77.627-1.387 1.395-1.387a1.386 1.386 0 011.392 1.387z" fill="#000"/><path d="M103.346 20.394l-12.77-12.64-1.958 1.978 12.77 12.64 1.958-1.978z" fill="#000"/><path d="M77.802 22.371l-1.95-1.977L88.617 7.752l1.957 1.978-12.772 12.64zm-9.152.735c0 .77-.624 1.395-1.392 1.395a1.394 1.394 0 010-2.786 1.393 1.393 0 011.391 1.39zm9.858 6.36c-.105.878-.652 1.46-1.46 1.46-.798 0-1.335-.651-1.456-1.46-.12-.8.658-1.457 1.457-1.457.807 0 1.553.656 1.459 1.457z" fill="#000"/><path d="M75.929 30.34c-4.451-5.187-8.9-5.864-8.943-5.87l.358-2.755c.225.028 5.5.758 10.696 6.81l-2.111 1.815z" fill="#000"/><path d="M90.718 18.093l-1.95-1.981-12.734 12.537 1.95 1.981 12.734-12.537zm20.087 5.013c0 .77.623 1.395 1.391 1.395a1.392 1.392 0 000-2.786 1.393 1.393 0 00-1.391 1.39zm-9.857 6.36c.102.878.653 1.46 1.457 1.46.803 0 1.336-.651 1.458-1.46.118-.8-.655-1.457-1.458-1.457-.804 0-1.552.656-1.457 1.457z" fill="#000"/><path d="M103.524 30.34l-2.108-1.814c5.197-6.053 10.471-6.783 10.694-6.811l.348 2.754-.174-1.375.184 1.375c-.044.007-4.491.684-8.944 5.871z" fill="#000"/><path d="M103.446 28.644l-12.74-12.526-1.95 1.981 12.742 12.527 1.948-1.982zM45.763 70.853l-1.945-1.985L79.191 34.24c2.158-3.098 5.297-6.614 10.51-6.703h.204c4.545 0 6.847 2.643 10.017 6.286l.157.183 34.756 34.872-1.968 1.958L98.02 35.868l-.192-.217c-3.028-3.475-4.675-5.386-8.076-5.336-3.988.07-6.462 2.875-8.349 5.615l-.172.201-35.468 34.722z" fill="#000"/><path d="M114.18 129.198l-1.95-1.989 7.565-7.414 1.244-1.146c8.124-7.475 19.252-17.713 19.504-27.482.28-10.907-3.207-16.198-10.635-23.282l1.915-2.012c7.866 7.498 11.802 13.479 11.498 25.364-.28 10.942-11.909 21.643-20.399 29.456l-1.217 1.122-7.525 7.383zM88.621 161.3l-39.627-39.138c-9.954-9.193-20.2-20.093-20.48-31.014-.298-11.652 2.347-18.21 10.487-25.968l7.681-7.086 1.886 2.044-7.67 7.07c-7.546 7.192-9.883 12.998-9.605 23.873.256 9.939 10.616 20.757 19.62 29.064l39.66 39.181-1.952 1.974zm2.309-93.706a1.39 1.39 0 01-1.392 1.394 1.392 1.392 0 110-2.785c.77 0 1.392.575 1.392 1.391zm12.55 4.409c0 .77-.638 1.391-1.431 1.391-.794 0-1.438-.621-1.438-1.39 0-.77.644-1.39 1.438-1.39.793 0 1.431.573 1.431 1.39zm-12.547 29.47a1.391 1.391 0 11-1.393-1.391c.77 0 1.393.575 1.393 1.391zm.048 8.485a1.389 1.389 0 11-1.385-1.387c.763 0 1.385.571 1.385 1.387z" fill="#000"/><path d="M90.572 161.3l-1.953-1.977 39.655-39.143c9.034-8.342 19.398-19.159 19.651-29.106.278-10.868-2.059-16.674-9.624-23.88l-7.647-7.056 1.883-2.044 7.665 7.07c8.154 7.772 10.802 14.33 10.506 25.984-.28 10.922-10.526 21.821-20.516 31.038L90.572 161.3zm.359-93.705h-2.779v33.878h2.78V67.595zm12.465 4.321h-2.781v33.878h2.781V71.916z" fill="#000"/><path d="M102.654 106.746l-.939-2.619-12.587 4.513.939 2.619 12.587-4.513z" fill="#000"/><path d="M90.151 108.657l-12.59-4.503-.937 2.619 12.59 4.503.937-2.619zm.285 10.448l-1.963-1.966 15.105-15.123c.255-.24.496-.486.745-.738 1.608-1.633 3.608-3.657 6.208-3.657 3.074 0 5.774 2.777 5.774 5.941h-2.779c0-1.655-1.431-3.159-2.994-3.159-1.435 0-2.923 1.501-4.227 2.825-.266.267-.526.529-.772.769l-15.097 15.108z" fill="#000"/><path d="M88.914 119.105l-15.108-15.123c-.235-.225-.491-.487-.757-.754-1.309-1.329-2.79-2.825-4.224-2.825-1.565 0-2.995 1.504-2.995 3.159h-2.777c0-3.163 2.698-5.94 5.773-5.94 2.597 0 4.597 2.023 6.203 3.652a32 32 0 00.728.726l15.126 15.139-1.969 1.966zm13.562 16.481c-7.621 0-13.824-5.871-13.824-13.085h2.777c0 5.688 4.96 10.31 11.046 10.31 5.988 0 11.05-4.86 11.05-10.599h2.779c.001 7.255-6.331 13.374-13.828 13.374z" fill="#000"/><path d="M76.758 135.586c-7.554 0-13.705-5.906-13.705-13.171h2.777c0 5.728 4.9 10.397 10.928 10.397 6.027 0 10.928-4.624 10.928-10.311h2.777c.001 7.214-6.148 13.085-13.705 13.085z" fill="#000"/><path d="M91.762 117.387h-4.17v8.136h4.17v-8.136zm24.54-13.914h-2.779V122.5h2.779v-19.027zm-26.667 30.84c-1.621 0-3.392-.584-5.121-2.216l1.91-2.024c3.339 3.155 6.51.148 6.642.023l1.937 1.989c-1.054 1.025-3.05 2.228-5.368 2.228z" fill="#000"/><path d="M89.717 145.148c-1.726 0-3.712-.113-5.781-.459-10.732-1.779-11.402-10.316-11.405-10.4l2.776-.179c.02.253.592 6.427 9.085 7.84 5.626.93 10.677.013 10.73 0 7.898-1.675 8.485-7.604 8.504-7.859l2.775.206c-.009.081-.694 8.248-10.736 10.386-.172.023-2.575.465-5.948.465zm34.481-93.301l-1.811-2.11c5.999-5.151 6.161-9.01 6.161-9.045l2.78-.004c0 .2-.07 5.096-7.13 11.159z" fill="#000"/><path d="M126.742 55.996l-4.127-3.92 1.917-2.011 4.125 3.923-1.915 2.008z" fill="#000"/><path d="M132.847 51.788l-1.951-1.978-4.009 3.954 1.951 1.978 4.009-3.954z" fill="#000"/><path d="M168.762 89.84l-37.953-38.134 1.971-1.96 37.949 38.127-1.967 1.967z" fill="#000"/><path d="M170.663 89.827l-1.968-1.962-12.599 12.631 1.968 1.962 12.599-12.63z" fill="#000"/><path d="M162.113 104.655l-4.049-4.169-1.994 1.937 4.049 4.169 1.994-1.937zm-4.096 4.302l-4.271-4.279-1.968 1.964 4.271 4.279 1.968-1.964z" fill="#000"/><path d="M98.234 177.733a4.65 4.65 0 01-2.99-1.108 4.675 4.675 0 01-1.655-2.941c-.164-1.184.156-2.332.904-3.226l.081-.089 11.014-10.984 1.961 1.965-10.956 10.931c-.214.276-.3.641-.249 1.021.062.459.303.878.68 1.191.377.314.846.465 1.292.453.404-.019.758-.183.993-.467l.089-.092 41.787-41.777 34.573-34.652c.283-.24.45-.597.463-1.001.019-.455-.148-.91-.463-1.287a1.878 1.878 0 00-1.192-.672 1.37 1.37 0 00-1.023.257l-11.254 11.455-1.984-1.947 11.403-11.597a4.109 4.109 0 013.213-.922 4.646 4.646 0 012.961 1.635 4.653 4.653 0 011.116 3.186c-.045 1.173-.539 2.223-1.398 2.969l-34.448 34.539-41.748 41.733c-.742.863-1.79 1.365-2.962 1.415-.074.012-.137.012-.208.012zm75.633-92.863c-.069 0-.138 0-.203-.008a4.103 4.103 0 01-2.966-1.414l-41.743-41.736 1.964-1.965 41.868 41.87c.242.287.593.451 1.001.474.458.016.916-.144 1.293-.459a1.91 1.91 0 00.676-1.185 1.37 1.37 0 00-.249-1.03L164.136 68.08l1.965-1.965L177.609 77.6c.746.893 1.066 2.035.904 3.225a4.677 4.677 0 01-1.657 2.945 4.652 4.652 0 01-2.989 1.101z" fill="#000"/><path d="M165.236 69.176L99.281 3.3l-.04-.05c-.235-.283-.59-.45-1.003-.47-.46-.016-.91.14-1.285.454-.377.314-.62.734-.68 1.185a1.34 1.34 0 00.251 1.025l16.657 16.677-1.968 1.966L94.417 7.264c-.746-.89-1.064-2.037-.9-3.221a4.654 4.654 0 011.656-2.946C96.085.34 97.21-.053 98.37.006c1.172.053 2.222.555 2.962 1.415l65.866 65.789-1.962 1.966zm-2.959 18.56l-17.263-17.263-1.967 1.967 17.263 17.263 1.967-1.967z" fill="#000"/><path d="M162.251 89.697l-1.97-1.966-20.344 20.378 1.97 1.966 20.344-20.378zM107.588 152.8l-1.963-1.977 46.423-46.18 1.96 1.969-46.42 46.188zm50.571-41.97l-1.96-1.969-46.54 46.304 1.959 1.969 46.541-46.304zM68.493 63.615a4.3 4.3 0 01-3.154-1.37l-6.364-6.24 1.945-1.986 6.451 6.32a1.51 1.51 0 002.135.11c.61-.552.67-1.492.133-2.11L57.18 46.183c-2.124-2.02-3.384-4.72-3.537-7.592-.152-2.906.837-5.634 2.79-7.685 4.014-4.22 10.881-4.22 15.308-.008l18.528 19.185-1.994 1.931L69.78 32.865c-3.277-3.112-8.381-3.15-11.338-.05-1.419 1.5-2.139 3.492-2.025 5.625.113 2.16 1.067 4.196 2.69 5.736l12.567 12.27a4.296 4.296 0 01-.304 6.062 4.265 4.265 0 01-2.878 1.107z" fill="#000"/><path d="M80.943 59.12c-.072 0-.149 0-.22-.007a4.282 4.282 0 01-2.942-1.371L60.6 40.77a4.293 4.293 0 016.527-5.577l16.99 16.755a4.243 4.243 0 011.105 3.093 4.265 4.265 0 01-1.407 2.969 4.266 4.266 0 01-2.872 1.11zM62.714 38.958L79.816 55.84a1.515 1.515 0 002.138.11c.301-.272.476-.646.494-1.05a1.51 1.51 0 00-.37-1.064l-17.224-16.98a1.514 1.514 0 00-1.893.02 1.516 1.516 0 00-.247 2.082zM64 92.963c-.075 0-.148 0-.22-.004a4.284 4.284 0 01-2.941-1.376L42.185 73.13l1.956-1.98 18.732 18.538c.27.3.646.474 1.047.493a1.49 1.49 0 001.09-.388c.61-.552.664-1.491.127-2.114L49.764 72.526l1.95-1.982 15.463 15.254a4.292 4.292 0 01-.299 6.053A4.274 4.274 0 0164 92.963zm50.855 0a4.242 4.242 0 01-2.874-1.112 4.288 4.288 0 01-.302-6.053l.052-.063 15.407-15.192 1.954 1.982-15.375 15.153a1.521 1.521 0 00.13 2.118c.299.269.685.408 1.086.385a1.51 1.51 0 001.051-.493l.05-.06 18.68-18.479 1.955 1.981-18.657 18.453a4.262 4.262 0 01-2.936 1.376c-.073.004-.147.004-.221.004zm-59.068 8.51a4.26 4.26 0 01-2.851-1.089l-.06-.054L36.7 84.142l1.968-1.965 16.14 16.157c.296.256.675.376 1.068.357a1.504 1.504 0 001.042-.505 1.5 1.5 0 00.381-1.092 1.498 1.498 0 00-.505-1.042l-.066-.058-17.816-18.05 1.978-1.949 17.79 18.013a4.26 4.26 0 011.395 2.926 4.281 4.281 0 01-1.08 3.1 4.276 4.276 0 01-2.955 1.429c-.089.01-.172.01-.254.01zm67.498-.001c-.079 0-.169 0-.252-.008a4.262 4.262 0 01-2.955-1.43 4.254 4.254 0 01-1.08-3.1 4.246 4.246 0 011.394-2.925l17.789-18.013 1.976 1.95-17.882 18.106a1.515 1.515 0 00-.499 1.042c-.023.404.107.79.381 1.093a1.507 1.507 0 002.103.148l16.146-16.157 1.966 1.965-16.235 16.241a4.257 4.257 0 01-2.852 1.088zM97.524 59.12a4.268 4.268 0 01-2.876-1.111 4.282 4.282 0 01-1.408-2.97 4.276 4.276 0 011.104-3.092l.06-.06 16.939-16.703a4.262 4.262 0 012.782-1.41 4.25 4.25 0 013.144.956 4.252 4.252 0 011.548 2.895 4.28 4.28 0 01-.956 3.146l-.099.1-17.084 16.864a4.238 4.238 0 01-2.937 1.376c-.072.009-.145.009-.217.009zm-1.14-5.285a1.524 1.524 0 00-.37 1.065c.022.404.198.777.497 1.05.298.271.69.404 1.093.388.4-.02.773-.194 1.046-.498l.054-.054 17.049-16.828a1.52 1.52 0 00-.245-2.083 1.508 1.508 0 00-1.902-.02l-17.222 16.98z" fill="#000"/><path d="M109.967 63.615a4.275 4.275 0 01-2.878-1.107 4.3 4.3 0 01-.303-6.062l.065-.062 12.492-12.192c1.635-1.554 2.585-3.59 2.701-5.751.114-2.133-.606-4.126-2.031-5.626-1.409-1.484-3.359-2.304-5.485-2.304h-.023c-2.154.008-4.227.851-5.841 2.375l-18.08 19.183-2.023-1.905 18.159-19.268c2.136-2.032 4.897-3.155 7.773-3.163h.035c2.893 0 5.552 1.123 7.501 3.17 1.951 2.052 2.947 4.78 2.789 7.685-.153 2.872-1.41 5.573-3.546 7.604l-12.448 12.146a1.51 1.51 0 002.263 2l.092-.088 6.866-6.31 1.879 2.047-6.823 6.271a4.259 4.259 0 01-3.134 1.357zM90.266 41.743l-8.514-8.926-2.012 1.92 8.514 8.925 2.011-1.92z" fill="#000"/><path d="M99.045 34.832l-1.98-1.946-8.644 8.794 1.98 1.947 8.644-8.795zM76.952 70.613H44.654v2.781h32.298v-2.78zm57.024 0H101.68v2.781h32.296v-2.78z" fill="#000"/><path d="M77.957 87.87l-16.87-16.85-1.965 1.967 16.87 16.85 1.965-1.967zm.003-8.054l-8.43-8.8-2.01 1.924 8.43 8.8 2.01-1.924zm32.547-16.201a4.268 4.268 0 01-2.876-1.107 4.265 4.265 0 01-1.409-2.969 4.244 4.244 0 011.107-3.093l.058-.062 12.494-12.192c3.332-3.17 3.628-8.268.675-11.377-2.958-3.104-8.061-3.062-11.377.097l-18.45 19.102-2-1.931 18.488-19.15c4.47-4.25 11.339-4.25 15.35-.03 4.013 4.211 3.672 11.074-.758 15.29l-12.447 12.145a1.51 1.51 0 00.131 2.11c.619.56 1.574.513 2.138-.108l.054-.058 6.396-6.264 1.945 1.986-6.37 6.24a4.276 4.276 0 01-3.149 1.371z" fill="#000"/><path d="M98.057 59.12a4.282 4.282 0 01-2.876-1.111 4.304 4.304 0 01-.3-6.062l.054-.06 16.946-16.703a4.262 4.262 0 012.777-1.41 4.26 4.26 0 013.149.956 4.293 4.293 0 01.591 6.041l-.1.1-17.079 16.868a4.279 4.279 0 01-2.942 1.372c-.07.009-.144.009-.22.009zm-1.134-5.285a1.516 1.516 0 00.127 2.113c.3.272.697.405 1.089.389.404-.02.773-.195 1.047-.498l.053-.054 17.049-16.828c.232-.307.337-.68.298-1.06a1.488 1.488 0 00-.543-1.023 1.53 1.53 0 00-1.108-.339c-.293.031-.563.14-.787.32l-17.225 16.98zm18.081 39.129a4.252 4.252 0 01-2.876-1.112 4.285 4.285 0 01-.303-6.062l.055-.055 15.402-15.192 1.952 1.981-15.37 15.153a1.53 1.53 0 00-.368 1.07c.019.4.194.773.495 1.044.618.56 1.575.514 2.141-.108l.05-.055 18.679-18.48 1.954 1.981-18.654 18.453a4.281 4.281 0 01-3.157 1.382zm8.21 8.508c-.083 0-.168 0-.253-.008a4.262 4.262 0 01-2.955-1.43 4.237 4.237 0 01-1.08-3.1 4.23 4.23 0 011.395-2.925l17.786-18.013 1.977 1.95-17.878 18.106a1.497 1.497 0 00-.505 1.042c-.023.404.11.79.382 1.093.265.302.633.481 1.04.505a1.48 1.48 0 001.067-.357l16.142-16.157 1.965 1.965-16.234 16.241a4.265 4.265 0 01-2.849 1.088zM99.223 34.74l-2.014-1.92-8.51 8.93 2.015 1.919 8.509-8.929z" fill="#000"/><path d="M134.346 70.613h-32.295v2.781h32.295v-2.78z" fill="#000"/><path d="M119.88 72.983l-1.964-1.966-16.865 16.851 1.964 1.966 16.865-16.851zm-16.829 8.786l-2.004-1.923 8.432-8.806 2.003 1.928-8.431 8.8z" fill="#000"/><path d="M119.621 73.006l-1.969-1.966-16.851 16.872 1.969 1.966 16.851-16.872zm-16.836 8.763l-2.006-1.923 8.429-8.806 2.008 1.928-8.431 8.8z" fill="#000"/></svg>