<svg width="268" height="102" fill="none" xmlns="http://www.w3.org/2000/svg"><path d="M251.668 49.195c0 .954.929 1.734 2.082 1.734 1.149 0 2.076-.78 2.076-1.734s-.927-1.73-2.076-1.73c-1.155 0-2.082.713-2.082 1.73zm-12.604-.164c0 .958.931 1.735 2.078 1.735 1.149 0 2.082-.775 2.082-1.735 0-.955-.932-1.734-2.082-1.734-1.147 0-2.078.723-2.078 1.734zm0 21.106c0 .95.931 1.734 2.078 1.734 1.149 0 2.082-.785 2.082-1.734 0-.959-.932-1.734-2.082-1.734-1.147-.001-2.078.712-2.078 1.734zm-40.583-57.922c0 .935-.915 1.685-2.034 1.685-1.12 0-2.033-.75-2.033-1.685 0-.934.913-1.692 2.033-1.692 1.119 0 2.034.699 2.034 1.692zm-124.978.03c0 .959-.935 1.734-2.085 1.734-1.147 0-2.082-.776-2.082-1.734 0-.955.933-1.73 2.082-1.73 1.149 0 2.085.712 2.085 1.73zM85.785 1.988c0 .965-.932 1.735-2.08 1.735-1.15 0-2.086-.771-2.086-1.735 0-.954.935-1.729 2.085-1.729s2.08.709 2.08 1.73zm-6.572 5.215c0 .959-.936 1.734-2.087 1.734-1.15 0-2.085-.775-2.085-1.734 0-.96.933-1.734 2.085-1.734s2.087.712 2.087 1.734zm-6.225-5.215c0 .965-.93 1.735-2.08 1.735-1.151 0-2.086-.771-2.086-1.735 0-.954.935-1.729 2.085-1.729s2.08.709 2.08 1.73zM16.515 49.195c0 .954-.93 1.734-2.082 1.734-1.152 0-2.085-.78-2.085-1.734s.934-1.73 2.085-1.73c1.15 0 2.082.713 2.082 1.73zm18.877 15.662c0 .953-.935 1.73-2.083 1.73-1.15 0-2.082-.776-2.082-1.73 0-.96.93-1.734 2.082-1.734 1.148-.002 2.083.712 2.083 1.734zm6.226 5.28c0 .95-.932 1.734-2.084 1.734-1.152 0-2.085-.785-2.085-1.734 0-.959.935-1.734 2.085-1.734s2.084.712 2.084 1.734zm-6.226 5.245c0 .954-.935 1.73-2.083 1.73-1.15 0-2.082-.776-2.082-1.73 0-.955.93-1.735 2.082-1.735 1.148 0 2.083.722 2.083 1.735zm-6.279-26.351c0 .958-.933 1.735-2.085 1.735-1.145 0-2.079-.775-2.079-1.735 0-.955.932-1.734 2.08-1.734 1.151 0 2.084.723 2.084 1.734zm0 21.106c0 .95-.933 1.734-2.085 1.734-1.145 0-2.079-.785-2.079-1.734 0-.959.932-1.734 2.08-1.734 1.151-.001 2.084.712 2.084 1.734zM136.12 2.395c0 1.001-.972 1.81-2.178 1.81-1.196 0-2.172-.809-2.172-1.81 0-1.003.976-1.814 2.172-1.814 1.206 0 2.178.811 2.178 1.814z" fill="#fff"/><path d="M199.308 26.872l-53.029-43.175-.114-.135c-2.818-3.398-6.503-6.877-12.448-6.964-5.034-.066-7.535 2.308-12.05 6.622l-.368.351L69.42 26.858l-2.94-2.433 51.83-43.249.232-.216c4.728-4.52 8.167-7.807 14.947-7.807h.296c7.783.11 12.465 4.473 15.674 8.312l52.755 42.945-2.906 2.462z" fill="#fff"/><path d="M97.298 99.233l-11.275-9.195-1.767-1.354c-12.657-9.69-30-22.961-30.417-36.531-.452-14.736 5.419-22.158 17.14-31.458l2.86 2.497c-11.073 8.79-16.275 15.352-15.858 28.874.368 12.114 16.97 24.813 29.083 34.083l1.815 1.392 11.321 9.225-2.902 2.466zm72.24 1.224l-2.85-2.505 14.98-11.803c12.117-9.27 28.712-21.968 29.086-34.083.417-13.522-4.786-20.084-15.865-28.874l2.863-2.497c11.728 9.3 17.599 16.722 17.141 31.458-.414 13.57-17.757 26.842-30.417 36.53l-1.813 1.393-13.125 10.381z" fill="#fff"/><path d="M135.406 139.046l-2.912-2.447 59.09-48.55c13.472-10.347 28.926-23.762 29.309-36.098.411-13.474-3.08-20.679-14.355-29.617l-11.404-8.75 2.812-2.535 11.431 8.77c12.157 9.637 16.105 17.771 15.66 32.224-.417 13.546-15.698 27.062-30.587 38.493l-59.044 48.51zm-3.451-116.215c0 .96.93 1.73 2.073 1.73 1.15 0 2.077-.772 2.077-1.73 0-.95-.927-1.725-2.077-1.725-1.143 0-2.073.713-2.073 1.725zM113.23 28.3c0 .953.965 1.724 2.15 1.724 1.177 0 2.135-.77 2.135-1.725 0-.954-.958-1.724-2.135-1.724-1.185 0-2.15.712-2.15 1.724zm18.717 36.547c0 .954.93 1.725 2.076 1.725 1.147 0 2.07-.772 2.07-1.725 0-.953-.923-1.725-2.07-1.725-1.147 0-2.076.713-2.076 1.725zm-.066 10.523c0 .954.932 1.725 2.076 1.725 1.144 0 2.069-.772 2.069-1.725 0-.953-.927-1.72-2.069-1.72-1.143 0-2.076.708-2.076 1.72z" fill="#fff"/><path d="M132.491 139.046l-59.137-48.54c-14.839-11.4-30.121-24.917-30.531-38.462-.448-14.451 3.496-22.585 15.627-32.206l11.461-8.788 2.809 2.534-11.438 8.77c-11.252 8.92-14.735 16.119-14.32 29.598.378 12.335 15.828 25.752 29.255 36.054l59.184 48.589-2.91 2.452zm3.605-116.214h-4.141v42.015h4.141V22.832zm-18.59 5.358h-4.143v42.016h4.143V28.191zm36.885.11c0 .953-.958 1.724-2.138 1.724-1.187 0-2.142-.77-2.142-1.725 0-.954.955-1.724 2.142-1.724 1.18 0 2.138.712 2.138 1.724z" fill="#fff"/><path d="M154.269 28.19h-4.142v42.016h4.142V28.191zM134.67 73.753l-18.774-5.585-1.396 3.248L133.273 77l1.397-3.248z" fill="#fff"/><path d="M153.3 71.445l-1.396-3.248-18.777 5.582 1.396 3.248 18.777-5.582zm-20.622 15.27l-22.519-18.756c-.35-.28-.736-.603-1.134-.935-1.948-1.649-4.161-3.503-6.3-3.503-2.333 0-4.46 1.865-4.46 3.918h-4.142c0-3.923 4.022-7.369 8.604-7.369 3.87 0 6.86 2.51 9.255 4.53.37.318.735.622 1.086.9l22.551 18.776-2.941 2.439z" fill="#fff"/><path d="M134.963 86.715l-2.936-2.439 22.533-18.755c.374-.298.733-.603 1.109-.915 2.396-2.025 5.376-4.536 9.248-4.536 4.583 0 8.613 3.444 8.613 7.369h-4.146c0-2.053-2.127-3.918-4.466-3.918-2.14 0-4.347 1.86-6.298 3.503-.404.332-.783.656-1.151.954l-22.506 18.737zm-20.227 20.44c-11.176 0-20.613-7.589-20.613-16.586h4.14c0 7.117 7.547 13.144 16.471 13.144 9.081 0 16.467-5.734 16.467-12.787h4.149c.003 8.948-9.248 16.229-20.614 16.229z" fill="#fff"/><path d="M153.087 107.155c-11.272 0-20.437-7.281-20.437-16.229h4.14c0 7.055 7.309 12.788 16.299 12.788 8.987 0 16.296-5.79 16.296-12.894h4.146c0 9.01-9.171 16.335-20.444 16.335z" fill="#fff"/><path d="M136.935 84.585h-6.22v10.09h6.22v-10.09zM98.266 67.328h-4.143v23.598h4.143V67.328zm75.266 0h-4.145v23.598h4.145V67.328zm-39.644 38.248c-3.456 0-6.433-1.491-8.005-2.763l2.884-2.466-1.443 1.228 1.434-1.239c.508.396 5.077 3.784 9.914-.019l2.846 2.51c-2.57 2.025-5.219 2.749-7.63 2.749zM82.353 3.3C71.831-4.216 71.725-10.287 71.725-10.54l4.142.006-2.077-.005 2.077-.024c0 .048.282 4.882 9.188 11.247l-2.702 2.617zm100.229-1.312c0 .965.936 1.735 2.087 1.735 1.15 0 2.082-.771 2.082-1.735 0-.954-.93-1.729-2.082-1.729-1.152 0-2.087.709-2.087 1.73z" fill="#fff"/><path d="M186.021 3.3L183.318.685c8.943-6.39 9.186-11.175 9.186-11.219l4.149-.005c0 .249-.108 6.32-10.632 13.84zm-101.324.255l-2.85-2.491-6.15 4.866 2.85 2.492 6.15-4.867z" fill="#fff"/><path d="M78.372 5.68L72.389.774l-2.91 2.454 5.983 4.907 2.91-2.455z" fill="#fff"/><path d="M15.9 50.42l-2.94-2.439L69.556.694l2.934 2.433L15.9 50.42z" fill="#fff"/><path d="M31.852 66.071L13.06 50.421l2.929-2.44 18.79 15.656-2.926 2.434z" fill="#fff"/><path d="M34.807 66.069l-2.971-2.4-6.04 5.177 2.97 2.399 6.041-5.177zm6.413 5.147l-2.93-2.44-6.38 5.304 2.93 2.439 6.38-5.303z" fill="#fff"/><path d="M121.066 159.426c-.097 0-.206 0-.304-.014-1.747-.062-3.314-.684-4.417-1.755l-62.252-51.754-51.377-42.84C1.44 62.14.696 60.839.636 59.382c-.066-1.425.523-2.833 1.668-3.95 1.14-1.128 2.705-1.85 4.402-2.028 1.778-.198 3.485.216 4.799 1.142l.14.11 16.861 14.273-2.949 2.415L8.775 57.136c-.418-.265-.958-.38-1.531-.319a2.959 2.959 0 00-1.774.834c-.478.466-.724 1.031-.692 1.596.022.5.267.944.687 1.242l.131.102 51.43 42.873 62.437 51.927c.35.351.877.555 1.485.579a3.226 3.226 0 001.919-.562c1.09-.749 1.363-1.967.647-2.744l-16.335-13.556 2.921-2.437 16.55 13.733c2.236 2.241 1.731 5.669-1.128 7.647-1.275.893-2.845 1.375-4.456 1.375zM8.288 44.256c-1.613 0-3.185-.478-4.459-1.364-2.86-1.985-3.364-5.417-1.128-7.653l.132-.115 17.03-14.129 2.936 2.443L5.845 37.495c-.724.78-.442 2 .636 2.747.56.39 1.263.588 1.92.569.607-.03 1.132-.232 1.493-.588l.126-.115 62.306-51.813 2.937 2.438-62.248 51.76c-1.108 1.065-2.671 1.691-4.42 1.754-.101.009-.209.009-.307.009z" fill="#fff"/><path d="M21.163 24.792l-2.933-2.437 98.22-81.592c1.099-1.066 2.664-1.687 4.412-1.755 1.708-.073 3.408.415 4.769 1.354 1.36.94 2.239 2.241 2.469 3.653.245 1.469-.234 2.89-1.342 3.995l-.121.12-24.922 20.745-2.929-2.439 24.836-20.682c.32-.347.454-.795.375-1.272-.094-.558-.457-1.08-1.018-1.469a3.163 3.163 0 00-1.92-.563c-.607.024-1.136.231-1.494.582l-.129.12-98.273 81.64zm7.333 25.462l-2.933-2.437 25.748-21.41 2.926 2.439-25.74 21.408z" fill="#fff"/><path d="M58.86 73.075l-30.354-25.26-2.933 2.438 30.354 25.26 2.934-2.439zm48.261 55.429L37.893 71.221l2.92-2.442 69.224 57.272-2.916 2.453zm-3.071 2.919L34.621 74.02l-2.92 2.443 69.43 57.402 2.919-2.442zm90.628-119.178c0 .959.938 1.734 2.086 1.734 1.149 0 2.082-.776 2.082-1.734 0-.955-.931-1.73-2.082-1.73-1.15 0-2.086.712-2.086 1.73zM182.395 1.988c0 .965.928 1.735 2.077 1.735 1.153 0 2.087-.771 2.087-1.735 0-.954-.934-1.729-2.087-1.729-1.149 0-2.077.709-2.077 1.73zm6.58 5.215c0 .959.933 1.734 2.083 1.734 1.147 0 2.081-.775 2.081-1.734 0-.96-.932-1.734-2.081-1.734-1.15 0-2.083.712-2.083 1.734zm6.214-5.215c0 .965.935 1.735 2.081 1.735 1.149 0 2.085-.771 2.085-1.735 0-.954-.935-1.729-2.085-1.729-1.144 0-2.081.709-2.081 1.73zm37.588 62.869c0 .953.935 1.73 2.086 1.73 1.148 0 2.085-.776 2.085-1.73 0-.96-.935-1.734-2.085-1.734-1.149-.002-2.086.712-2.086 1.734zm-6.207 5.28c0 .95.93 1.734 2.081 1.734 1.153 0 2.085-.785 2.085-1.734 0-.959-.93-1.734-2.085-1.734-1.149-.001-2.081.712-2.081 1.734zm6.207 5.245c0 .954.935 1.73 2.086 1.73 1.148 0 2.085-.776 2.085-1.73 0-.955-.935-1.735-2.085-1.735-1.149 0-2.086.722-2.086 1.735zM132.055 2.395c0 1.001.974 1.81 2.179 1.81 1.201 0 2.176-.809 2.176-1.81 0-1.003-.975-1.814-2.176-1.814-1.205 0-2.179.811-2.179 1.814z" fill="#fff"/><path d="M68.87 26.872l-2.9-2.462 52.748-42.945c3.217-3.84 7.898-8.202 15.672-8.312h.304c6.777 0 10.21 3.278 14.937 7.796l.234.227 51.827 43.249-2.934 2.428-51.963-43.369-.287-.269c-4.515-4.31-6.971-6.68-12.042-6.618-5.948.087-9.636 3.566-12.449 6.964l-.258.25-52.888 43.061z" fill="#fff"/><path d="M170.894 99.233l-2.908-2.467 11.281-9.195 1.854-1.422c12.115-9.27 28.708-21.968 29.084-34.083.417-13.527-4.782-20.09-15.859-28.874l2.857-2.497c11.728 9.3 17.599 16.717 17.144 31.458-.417 13.57-17.757 26.842-30.417 36.53l-1.816 1.393-11.22 9.157zm-38.11 39.813l-59.092-48.54C58.85 79.106 43.57 65.589 43.155 52.044c-.446-14.451 3.498-22.585 15.636-32.206l11.455-8.788 2.812 2.534-11.438 8.77c-11.252 8.92-14.737 16.119-14.323 29.607.382 12.326 15.83 25.742 29.256 36.045l59.142 48.592-2.911 2.449zm3.438-116.215c0 .96-.931 1.73-2.076 1.73-1.151 0-2.078-.772-2.078-1.73 0-.95.927-1.725 2.078-1.725 1.147 0 2.076.713 2.076 1.725zm18.716 5.469c0 .953-.952 1.724-2.134 1.724-1.184 0-2.144-.77-2.144-1.725 0-.954.96-1.724 2.144-1.724 1.182 0 2.134.712 2.134 1.724zm-18.711 36.547c0 .954-.928 1.725-2.077 1.725-1.134 0-2.07-.772-2.07-1.725 0-.953.935-1.725 2.07-1.725 1.149 0 2.077.713 2.077 1.725zm.074 10.523c0 .954-.927 1.725-2.065 1.725-1.145 0-2.078-.772-2.078-1.725 0-.953.932-1.72 2.078-1.72 1.138 0 2.065.708 2.065 1.72z" fill="#fff"/><path d="M135.687 139.046l-2.912-2.452 59.132-48.545c13.472-10.347 28.926-23.762 29.303-36.098.416-13.48-3.069-20.679-14.351-29.617l-11.402-8.75 2.807-2.535 11.43 8.77c12.16 9.637 16.108 17.771 15.666 32.224-.417 13.546-15.695 27.062-30.593 38.493l-59.08 48.51zm.537-116.214h-4.144v42.015h4.144V22.832zm18.585 5.358h-4.147v42.016h4.147V28.191z" fill="#fff"/><path d="M153.705 71.388l-1.4-3.248-18.769 5.597 1.4 3.248 18.769-5.597z" fill="#fff"/><path d="M135.06 73.758l-18.775-5.585-1.397 3.247 18.775 5.586 1.397-3.248zm.424 12.957l-2.927-2.439 22.525-18.755c.38-.298.739-.603 1.11-.915 2.398-2.025 5.381-4.536 9.257-4.536 4.585 0 8.61 3.444 8.61 7.369h-4.144c0-2.053-2.133-3.918-4.464-3.918-2.139 0-4.359 1.86-6.304 3.503-.395.332-.783.656-1.15.954l-22.513 18.737z" fill="#fff"/><path d="M133.218 86.715L110.69 67.959c-.351-.28-.733-.603-1.129-.935-1.952-1.649-4.162-3.503-6.3-3.503-2.333 0-4.466 1.865-4.466 3.918h-4.14c0-3.923 4.023-7.369 8.608-7.369 3.873 0 6.856 2.51 9.25 4.53.373.318.736.622 1.086.9l22.555 18.776-2.936 2.439zm20.222 20.44c-11.365 0-20.614-7.281-20.614-16.23h4.141c0 7.056 7.395 12.788 16.472 12.788 8.929 0 16.476-6.027 16.476-13.144h4.144c.002 8.997-9.44 16.586-20.619 16.586z" fill="#fff"/><path d="M115.091 107.155c-11.265 0-20.437-7.325-20.437-16.335h4.141c0 7.103 7.307 12.894 16.296 12.894 8.988 0 16.296-5.734 16.296-12.788h4.141c.002 8.948-9.169 16.229-20.437 16.229z" fill="#fff"/><path d="M137.466 84.585h-6.218v10.09h6.218v-10.09zm36.59-17.257h-4.144v23.598h4.144V67.328zm-39.767 38.248c-2.418 0-5.059-.724-7.637-2.748l2.849-2.51c4.979 3.913 9.707.183 9.904.028l2.889 2.467c-1.572 1.272-4.549 2.763-8.005 2.763zM185.83 3.3L183.129.685c8.946-6.39 9.187-11.175 9.187-11.219l4.146-.005c0 .249-.105 6.32-10.632 13.84z" fill="#fff"/><path d="M189.626 8.447l-6.153-4.862 2.858-2.495 6.151 4.866-2.856 2.491z" fill="#fff"/><path d="M198.731 3.227L195.822.774l-5.979 4.904 2.909 2.453 5.979-4.904z" fill="#fff"/><path d="M252.285 50.42L195.689 3.127l2.94-2.433 56.588 47.287-2.932 2.439z" fill="#fff"/><path d="M255.12 50.405l-2.934-2.434-18.788 15.665 2.934 2.434 18.788-15.665z" fill="#fff"/><path d="M242.369 68.793l-6.037-5.17-2.974 2.403 6.038 5.17 2.973-2.403zm-6.106 5.337l-6.368-5.308-2.935 2.436 6.368 5.307 2.935-2.435z" fill="#fff"/><path d="M147.114 159.426c-1.609 0-3.177-.481-4.459-1.373-1.355-.94-2.233-2.24-2.467-3.648-.245-1.469.232-2.892 1.347-4.001l.122-.11 16.424-13.623 2.924 2.437-16.338 13.556a1.483 1.483 0 00-.371 1.267c.093.569.452 1.089 1.015 1.477a3.3 3.3 0 001.925.562c.604-.024 1.13-.227 1.482-.579l.132-.115 62.312-51.812 51.554-42.975c.422-.298.671-.741.69-1.242.029-.564-.221-1.129-.69-1.596a2.981 2.981 0 00-1.778-.834c-.572-.061-1.111.054-1.526.32l-16.781 14.206-2.958-2.415 17.003-14.383c1.32-.925 3.031-1.335 4.792-1.142 1.703.179 3.271.901 4.415 2.027 1.141 1.12 1.73 2.526 1.664 3.951-.067 1.455-.803 2.757-2.084 3.683l-51.369 42.835-62.253 51.758c-1.106 1.069-2.669 1.692-4.417 1.755a2.313 2.313 0 01-.31.014zM259.9 44.256c-.104 0-.207 0-.304-.01-1.752-.063-3.314-.689-4.423-1.753L192.928-9.268l2.929-2.438 62.432 51.928c.36.356.884.56 1.492.588a3.23 3.23 0 001.928-.569c.556-.392.918-.916 1.009-1.47a1.49 1.49 0 00-.371-1.277l-16.959-14.062 2.931-2.438 17.16 14.244c1.112 1.108 1.589 2.525 1.347 4-.234 1.412-1.11 2.708-2.47 3.653-1.273.888-2.847 1.365-4.456 1.365z" fill="#fff"/><path d="M247.026 24.792l-98.351-81.698-.058-.063c-.352-.35-.88-.558-1.496-.582a3.196 3.196 0 00-1.917.563c-.562.39-.924.91-1.013 1.47-.082.477.052.925.374 1.271l24.838 20.682-2.935 2.439-25.045-20.865c-1.113-1.105-1.587-2.526-1.342-3.995.229-1.413 1.111-2.713 2.47-3.653a7.814 7.814 0 014.766-1.354c1.748.067 3.314.69 4.418 1.755l98.217 81.592-2.926 2.438zm-4.413 23.018L216.871 26.4l-2.932 2.44 25.742 21.41 2.932-2.44z" fill="#fff"/><path d="M242.574 50.243l-2.937-2.439L209.3 73.078l2.937 2.438 30.337-25.273zm-81.512 78.261l-2.927-2.453 69.225-57.272 2.923 2.442-69.221 57.283zm75.411-52.051l-2.922-2.443-69.4 57.427 2.922 2.442 69.4-57.426zM102.765 17.895c-1.72 0-3.442-.572-4.703-1.7l-9.49-7.738 2.9-2.463 9.621 7.84c.833.77 2.264.829 3.183.136.908-.686.998-1.851.199-2.617L85.895-3.725c-3.168-2.506-5.047-5.854-5.275-9.416-.226-3.603 1.248-6.987 4.161-9.53 5.985-5.234 16.226-5.234 22.826-.01l27.629 23.793-2.974 2.395-27.576-23.747c-4.887-3.86-12.497-3.908-16.906-.063-2.116 1.86-3.19 4.332-3.02 6.976.168 2.68 1.59 5.204 4.01 7.114l18.74 15.217c2.37 2.18 2.162 5.552-.453 7.518-1.221.921-2.755 1.373-4.292 1.373z" fill="#fff"/><path d="M121.33 12.321c-.106 0-.221 0-.326-.009-1.685-.068-3.239-.675-4.387-1.7l-25.621-21.05c-2.24-2.265-1.843-5.623.887-7.488 2.66-1.821 6.58-1.553 8.846.572l25.334 20.78c1.149 1.05 1.737 2.413 1.649 3.836-.085 1.417-.829 2.727-2.099 3.682-1.183.89-2.698 1.377-4.283 1.377zM94.148-12.684L119.65 8.253c.404.376.957.593 1.562.618.607.019 1.179-.145 1.626-.482.45-.337.71-.8.738-1.301.03-.482-.171-.954-.552-1.32l-25.685-21.06c-.813-.53-1.99-.544-2.823.025-.94.641-1.093 1.788-.368 2.583zm1.92 66.978c-.111 0-.22 0-.328-.005-1.688-.073-3.242-.68-4.386-1.708L63.539 29.696l2.915-2.456 27.934 22.99c.403.371.962.588 1.561.612a2.517 2.517 0 001.627-.481c.908-.684.988-1.85.187-2.622L74.84 28.947l2.908-2.458 23.058 18.919c2.367 2.168 2.162 5.542-.445 7.506-1.195.897-2.707 1.38-4.292 1.38zm75.83 0c-1.592 0-3.095-.482-4.286-1.38-2.612-1.966-2.818-5.338-.449-7.506l.077-.078 22.974-18.842 2.914 2.458-22.927 18.793c-.801.772-.718 1.938.194 2.627a2.51 2.51 0 001.62.477c.605-.024 1.161-.24 1.566-.612l.076-.073 27.855-22.918 2.915 2.456-27.821 22.885c-1.132 1.028-2.689 1.633-4.378 1.708-.11.005-.219.005-.33.005zM83.82 64.847c-1.573 0-3.071-.473-4.252-1.35l-.09-.067L55.36 43.354l2.934-2.438 24.068 20.038c.442.318 1.007.467 1.593.444.599-.03 1.15-.25 1.553-.627.4-.375.604-.854.569-1.355-.034-.497-.3-.96-.753-1.292l-.099-.072-26.566-22.384 2.95-2.419 26.528 22.34c1.248.94 1.978 2.226 2.08 3.629.096 1.415-.478 2.784-1.61 3.845-1.14 1.06-2.709 1.69-4.407 1.772-.133.012-.258.012-.38.012zm100.653 0c-.118 0-.252 0-.376-.01-1.707-.083-3.272-.714-4.407-1.773-1.138-1.06-1.709-2.429-1.611-3.845.093-1.403.838-2.69 2.079-3.629l26.528-22.34 2.946 2.419-26.665 22.456c-.445.333-.71.795-.745 1.292-.034.5.16.979.568 1.355.399.376.946.597 1.549.627.573.024 1.144-.126 1.588-.444l24.076-20.038 2.932 2.438-24.21 20.143c-1.181.876-2.678 1.349-4.252 1.349zM146.057 12.32c-1.592 0-3.101-.486-4.289-1.377-1.269-.956-2.011-2.266-2.1-3.683-.083-1.423.505-2.785 1.646-3.836l.089-.073 25.261-20.715c1.07-.998 2.534-1.62 4.148-1.75 1.7-.14 3.365.28 4.688 1.186 1.321.9 2.141 2.174 2.308 3.59.164 1.416-.338 2.8-1.426 3.903l-.147.124-25.475 20.914c-1.136 1.031-2.693 1.638-4.379 1.706-.108.012-.218.012-.324.012zm-1.7-6.553c-.382.366-.577.838-.553 1.32.034.501.296.964.743 1.302.443.337 1.028.502 1.629.481.597-.024 1.153-.24 1.56-.617l.08-.067 25.423-20.87c.344-.38.499-.844.445-1.316-.061-.502-.348-.945-.81-1.268a2.569 2.569 0 00-1.655-.42 2.547 2.547 0 00-1.181.396L144.357 5.767z" fill="#fff"/><path d="M164.61 17.896c-1.531 0-3.068-.452-4.292-1.373-2.618-1.97-2.81-5.338-.451-7.518l.097-.077 18.627-15.12c2.438-1.928 3.855-4.454 4.027-7.134.171-2.644-.902-5.116-3.027-6.976-2.102-1.84-5.01-2.858-8.179-2.858h-.035c-3.211.01-6.303 1.056-8.71 2.945l-26.961 23.79-3.017-2.361 27.079-23.897c3.185-2.52 7.303-3.913 11.592-3.922h.052c4.314 0 8.279 1.392 11.185 3.932 2.909 2.544 4.393 5.928 4.158 9.53-.228 3.562-2.102 6.912-5.287 9.431l-18.563 15.063c-.8.766-.716 1.933.194 2.617.923.694 2.35.635 3.182-.136l.137-.11 10.238-7.825 2.802 2.538-10.174 7.778c-1.251 1.12-2.957 1.683-4.674 1.683zm-49.232 8.679H67.217v3.45h48.161v-3.45zm85.034 0h-48.16v3.45h48.16v-3.45z" fill="#fff"/><path d="M116.878 47.977L91.723 27.079l-2.931 2.44 25.155 20.898 2.931-2.44zm.005-9.988l-12.571-10.914-2.995 2.386 12.57 10.915 2.996-2.387zm48.529-20.093c-1.532 0-3.064-.452-4.288-1.373-1.268-.954-2.016-2.26-2.101-3.682-.085-1.422.498-2.78 1.651-3.836l.086-.077 18.631-15.121c4.969-3.932 5.41-10.254 1.007-14.11-4.411-3.85-12.021-3.797-16.966.12L135.92 3.508l-2.982-2.395 27.57-23.748c6.665-5.272 16.907-5.272 22.888-.038 5.985 5.223 5.476 13.733-1.13 18.962l-18.56 15.063c-.382.372-.574.834-.547 1.317.031.504.296.963.741 1.301.924.694 2.349.635 3.189-.136l.081-.071 9.537-7.768 2.901 2.463-9.499 7.738c-1.252 1.127-2.972 1.701-4.697 1.701z" fill="#fff"/><path d="M146.846 12.32c-1.588 0-3.096-.486-4.289-1.377-2.609-1.968-2.811-5.345-.447-7.519l.08-.073 25.27-20.715c1.07-.998 2.535-1.62 4.141-1.75 1.708-.14 3.369.28 4.695 1.186 1.317.9 2.139 2.174 2.307 3.59.163 1.416-.342 2.8-1.426 3.903l-.149.124-25.467 20.92c-1.146 1.025-2.704 1.632-4.387 1.7-.105.012-.214.012-.328.012zm-1.691-6.553c-.801.771-.719 1.931.189 2.62.447.337 1.04.503 1.623.482.602-.024 1.154-.24 1.562-.617l.08-.067 25.422-20.87c.346-.38.502-.845.445-1.316-.051-.502-.347-.945-.81-1.268a2.612 2.612 0 00-1.652-.42c-.438.039-.84.174-1.174.396l-25.685 21.06zm26.97 48.528c-1.53 0-3.067-.454-4.289-1.38-1.269-.949-2.012-2.255-2.102-3.677-.083-1.42.505-2.786 1.651-3.841l.082-.068 22.967-18.842 2.911 2.458-22.92 18.793c-.385.373-.573.84-.548 1.326.028.497.289.96.738 1.296.922.694 2.348.637 3.192-.134l.075-.068 27.854-22.919 2.914 2.457-27.817 22.885c-1.255 1.135-2.98 1.714-4.708 1.714zm12.238 10.552c-.124 0-.25 0-.378-.01-1.703-.083-3.274-.714-4.406-1.773-1.142-1.06-1.712-2.429-1.61-3.845.095-1.403.83-2.69 2.08-3.629l26.522-22.34 2.949 2.419-26.66 22.456c-.452.333-.72.795-.753 1.292-.034.5.164.979.569 1.355.396.376.944.597 1.551.627a2.504 2.504 0 001.591-.444l24.071-20.038 2.931 2.438-24.209 20.143c-1.182.876-2.684 1.349-4.248 1.349z" fill="#fff"/><path d="M200.965 26.575h-48.158v3.45h48.158v-3.45z" fill="#fff"/><path d="M179.392 29.514l-2.929-2.438-25.149 20.899 2.929 2.438 25.149-20.9zM154.296 40.41l-2.989-2.385 12.574-10.92 2.986 2.39-12.571 10.915z" fill="#fff"/><path d="M179.008 29.542l-2.936-2.438-25.128 20.925 2.936 2.439 25.128-20.926zM153.897 40.41l-2.991-2.385 12.569-10.92 2.994 2.39-12.572 10.915z" fill="#fff"/></svg>