<svg width="19" height="20" fill="none" xmlns="http://www.w3.org/2000/svg"><path d="M13.187 9.5h0c1.446.578 2.671 1.482 3.543 2.618.895 1.166 1.37 2.522 1.37 3.92v.005c0 .13-.065.247-.17.327h0c-2.314 1.762-5.308 2.73-8.43 2.73s-6.116-.968-8.43-2.73h0a.413.413 0 01-.17-.327v-.005c0-1.398.475-2.754 1.37-3.92.873-1.136 2.098-2.04 3.543-2.617h7.374zm0 0a.556.556 0 00-.553.082h0m.553-.081l-.553.081m0 0c-.943.789-2.026 1.203-3.134 1.203m3.134-1.203L9.5 10.785m0 0c-1.108 0-2.191-.414-3.133-1.203M9.5 10.785L6.367 9.582m0 0a.556.556 0 00-.554-.081l.554.081zm3.133.865c1.307 0 2.574-.665 3.572-1.858.878-1.051 1.408-2.355 1.408-3.494C14.48 2.766 12.229.9 9.5.9 6.772.9 4.52 2.766 4.52 5.095c0 1.139.53 2.443 1.409 3.494.997 1.193 2.265 1.858 3.571 1.858zm0-8.68c2.214 0 3.984 1.51 3.984 3.328 0 .935-.463 2.08-1.217 2.982-.804.962-1.815 1.502-2.767 1.502s-1.962-.54-2.766-1.502C5.98 7.176 5.517 6.03 5.517 5.095c0-1.819 1.77-3.327 3.983-3.327zm0 16.465c-2.806 0-5.496-.847-7.6-2.386.04-1.155.452-2.273 1.198-3.245.708-.922 1.684-1.674 2.837-2.187 1.068.81 2.294 1.239 3.565 1.239 1.27 0 2.497-.428 3.566-1.239 1.153.513 2.128 1.265 2.836 2.187.746.972 1.158 2.09 1.199 3.245-2.105 1.54-4.795 2.386-7.6 2.386z" fill="#181818" stroke="#181818" stroke-width=".2"/></svg>