<svg width="118" height="80" fill="none" xmlns="http://www.w3.org/2000/svg"><path d="M58.28 53.709a.492.492 0 10.987 0 .495.495 0 00-.492-.494.483.483 0 00-.494.494z" fill="#000"/><path d="M59.33 53.709a.492.492 0 01-.494.492.492.492 0 110-.986c.273 0 .494.203.494.494zm-1.05-2.78a.495.495 0 10.494-.491.482.482 0 00-.493.49zm-5.41-2.563a.493.493 0 10.494-.494.483.483 0 00-.493.494zm-1.253 1.274a.495.495 0 00.987 0 .494.494 0 00-.494-.493.483.483 0 00-.493.494zm2.638.153a.494.494 0 00.987 0 .491.491 0 00-.493-.492.481.481 0 00-.494.492zm-1.271 1.264a.493.493 0 10.494-.492.482.482 0 00-.494.492zm9.35-1.29a.492.492 0 10.493-.495.483.483 0 00-.493.495zm1.308 1.324a.494.494 0 10.493-.493.483.483 0 00-.493.493z" fill="#000"/><path d="M53.76 48.664l-.63-.621-1.304 1.321.63.622 1.303-1.322zm-.075 2.735l-.622-.628 1.374-1.367.623.628-1.375 1.367z" fill="#000"/><path d="M58.362 53.973l-3.85-3.868.626-.625 3.852 3.869-.628.624zm25.526-25.707a.445.445 0 10.444-.444.434.434 0 00-.444.444zm-2.688-.042a.444.444 0 10.443-.445.435.435 0 00-.443.445zm0 5.413c0 .244.199.445.443.445a.444.444 0 100-.89.434.434 0 00-.443.445zM59.328 50.929a.495.495 0 01-.494.495.493.493 0 010-.987c.273 0 .494.203.494.492zm5.412-2.563a.493.493 0 11-.494-.494c.273 0 .493.205.493.494zm1.251 1.274a.493.493 0 11-.492-.493c.273 0 .492.203.492.494zm-2.638.153a.494.494 0 01-.987 0 .49.49 0 01.493-.492c.273 0 .494.201.494.492zm1.271 1.264a.493.493 0 11-.494-.492c.273 0 .494.202.494.492z" fill="#000"/><path d="M65.776 49.363l-1.305-1.321-.628.62 1.305 1.322.628-.621zm-1.24 1.405l-1.374-1.367-.624.628 1.374 1.367.624-.628z" fill="#000"/><path d="M59.245 53.973l-.626-.624 3.85-3.87.627.626-3.85 3.868zm-.028-51.192a.443.443 0 11-.886.004.443.443 0 01.886-.004zm-.023 10.815a.452.452 0 11-.907.001.452.452 0 01.907-.001zm13.347 5.184a.433.433 0 11-.433-.434c.238 0 .433.18.433.434zm-26.663.008a.445.445 0 11-.445-.444c.245 0 .445.183.445.444zm.507-5.845a.445.445 0 11-.445-.445c.246 0 .445.184.445.445zm2.113 3.214a.443.443 0 11-.89 0c0-.244.2-.443.446-.443.245 0 .444.181.444.443zm-1.401 1.338a.445.445 0 11-.445-.445c.246 0 .445.183.445.445zm-1.328-1.338a.444.444 0 11-.444-.443c.245 0 .444.181.444.443zM33.721 28.266a.445.445 0 11-.444-.444c.245 0 .444.183.444.444zm4.028 4.017a.445.445 0 11-.445-.445c.246 0 .445.183.445.445zm1.326 1.354a.446.446 0 01-.444.445.445.445 0 110-.89c.245 0 .444.183.444.445zm-1.326 1.346a.445.445 0 11-.445-.445c.246 0 .445.185.445.445zm-1.341-6.759a.445.445 0 11-.444-.445c.245 0 .444.186.444.445zm0 5.413a.446.446 0 01-.444.445.446.446 0 010-.89c.245 0 .444.183.444.445zm22.83-17.376a.464.464 0 11-.928.001.464.464 0 01.928 0zm-4.084-9.459a.443.443 0 11-.885 0 .443.443 0 01.885 0zm8.125 0a.443.443 0 11-.887-.002.443.443 0 01.887.002zM58.29 5.44a.443.443 0 00.884 0 .44.44 0 00-.443-.442.44.44 0 00-.442.441z" fill="#000"/><path d="M59.092 3.095l-.623-.63-4.062 4.023.623.629 4.062-4.022z" fill="#000"/><path d="M63.144 6.489L59.08 2.468l-.621.628 4.062 4.021.622-.628zm2.294.861a.443.443 0 10.885.003.443.443 0 00-.885-.002zM62.3 9.374c.034.279.208.464.464.464s.426-.207.463-.464c.04-.255-.207-.464-.463-.464s-.493.209-.464.464z" fill="#000"/><path d="M63.122 9.652l-.673-.577c1.654-1.926 3.332-2.158 3.404-2.167l.111.876-.056-.437.058.437c-.014.003-1.428.218-2.844 1.868z" fill="#000"/><path d="M63.093 9.113l-4.056-3.985-.62.631 4.055 3.985.62-.631zM52.026 7.35a.442.442 0 11-.884 0 .443.443 0 01.884 0zm3.137 2.024c-.033.279-.207.464-.464.464s-.425-.207-.464-.464c-.038-.255.207-.464.464-.464s.493.209.464.464z" fill="#000"/><path d="M54.342 9.652c-1.416-1.65-2.83-1.865-2.846-1.868l.115-.876c.07.01 1.75.241 3.403 2.167l-.672.577z" fill="#000"/><path d="M59.042 5.756l-.62-.63-4.05 3.986.62.63 4.05-3.986zM72.717 22.54L61.404 11.465l-.024-.034c-.601-.872-1.388-1.764-2.656-1.787-1.074-.017-1.607.592-2.57 1.699l-.079.09-11.068 11.103-.627-.624L55.437 10.82l.05-.056c1.009-1.16 1.742-2.002 3.189-2.002h.063c1.66.028 2.659 1.147 3.344 2.132L73.337 21.91l-.62.631z" fill="#000"/><path d="M50.954 41.1l-2.406-2.358-.376-.347c-2.7-2.486-6.4-5.89-6.49-9.37-.096-3.78 1.157-5.684 3.657-8.07l.61.64c-2.362 2.255-3.472 3.939-3.383 7.407.079 3.107 3.62 6.364 6.204 8.742l.388.358 2.415 2.366-.62.632zm15.412.314l-.608-.642 3.196-3.028c2.585-2.378 6.125-5.635 6.205-8.742.09-3.468-1.02-5.152-3.384-7.407l.61-.64c2.502 2.386 3.755 4.29 3.657 8.07-.088 3.48-3.788 6.884-6.489 9.37l-.386.357-2.8 2.662z" fill="#000"/><path d="M59.085 51.313l-.622-.628L71.07 38.23c2.874-2.653 6.17-6.095 6.252-9.259.088-3.456-.657-5.304-3.063-7.597l-2.432-2.244.6-.65 2.438 2.249c2.594 2.472 3.436 4.559 3.341 8.266-.089 3.474-3.349 6.941-6.525 9.874L59.085 51.313zm-.736-29.81a.442.442 0 10.442-.442.433.433 0 00-.442.442zm-3.994 1.403a.45.45 0 00.458.443.45.45 0 00.456-.443.449.449 0 00-.456-.442c-.253 0-.459.183-.459.442zm3.993 9.374a.443.443 0 10.443-.442.433.433 0 00-.443.442zm-.017 2.7a.443.443 0 10.443-.44.433.433 0 00-.443.44z" fill="#000"/><path d="M58.463 51.313L45.847 38.862c-3.165-2.925-6.426-6.392-6.513-9.866-.096-3.707.746-5.793 3.334-8.261l2.445-2.255.599.65-2.44 2.25c-2.4 2.288-3.144 4.135-3.055 7.592.08 3.164 3.377 6.606 6.241 9.248l12.626 12.464-.62.629zm.77-29.81h-.883V32.28h.883V21.503zm-3.966 1.375h-.884v10.777h.884V22.878zm7.869.028a.45.45 0 01-.456.443.45.45 0 01-.457-.443c0-.245.203-.442.457-.442a.44.44 0 01.456.442z" fill="#000"/><path d="M63.108 22.878h-.883v10.777h.883V22.878zm-4.179 11.686l-4.005-1.432-.298.833 4.005 1.432.298-.833z" fill="#000"/><path d="M62.902 33.973l-.297-.833-4.006 1.431.298.834 4.005-1.432zm-4.399 3.917L53.7 33.077a17.87 17.87 0 01-.241-.24c-.416-.422-.888-.898-1.344-.898-.498 0-.952.478-.952 1.005h-.884c0-1.007.858-1.89 1.836-1.89.825 0 1.463.644 1.974 1.162.08.081.157.159.232.23l4.81 4.817-.627.625z" fill="#000"/><path d="M58.991 37.89l-.626-.626 4.807-4.811c.08-.077.157-.155.237-.235.511-.52 1.147-1.163 1.973-1.163.977 0 1.837.883 1.837 1.89h-.884c0-.527-.454-1.005-.953-1.005-.457 0-.927.477-1.344.898-.086.085-.167.169-.245.245l-4.802 4.806zm-4.316 5.242c-2.384 0-4.397-1.946-4.397-4.254h.883c0 1.826 1.61 3.372 3.514 3.372 1.937 0 3.513-1.471 3.513-3.28h.885c0 2.295-1.973 4.162-4.398 4.162z" fill="#000"/><path d="M62.858 43.133c-2.405 0-4.36-1.868-4.36-4.163h.883c0 1.81 1.559 3.28 3.477 3.28 1.917 0 3.476-1.486 3.476-3.308h.885c0 2.312-1.957 4.19-4.361 4.19z" fill="#000"/><path d="M59.41 37.344h-1.326v2.588h1.327v-2.588zm-8.248-4.427h-.884v6.053h.884v-6.053zm16.056 0h-.884v6.053h.884v-6.053zm-8.458 9.811c-.736 0-1.371-.383-1.707-.709l.616-.633-.308.316.306-.318c.108.101 1.083.97 2.115-.005l.607.644c-.549.52-1.114.705-1.628.705z" fill="#000"/><path d="M58.733 46.175a11.17 11.17 0 01-1.878-.147c-3.207-.681-3.425-3.28-3.427-3.305l.882-.061-.44.03.44-.035c.007.082.192 1.968 2.717 2.504.005 0 1.62.29 3.402-.004 2.701-.45 2.884-2.413 2.89-2.495l.883.058c0 .027-.214 2.743-3.628 3.309-.658.11-1.291.146-1.84.146zM47.766 16.494c-2.245-1.929-2.267-3.486-2.267-3.55h.883-.443l.443-.007c0 .013.06 1.253 1.96 2.885l-.576.672zm23.498-3.551a.445.445 0 10.444-.445.435.435 0 00-.444.445zm-2.114 3.214a.444.444 0 10.445-.443.434.434 0 00-.446.443z" fill="#000"/><path d="M69.883 16.493l-.577-.67c1.908-1.64 1.96-2.867 1.96-2.878l.885-.002c0 .064-.023 1.622-2.268 3.55zm-21.616.066l-.608-.64-1.313 1.25.608.638 1.313-1.248z" fill="#000"/><path d="M46.918 17.104l-1.276-1.258-.621.63 1.276 1.258.621-.63z" fill="#000"/><path d="M33.59 28.58l-.627-.625 12.074-12.13.626.624L33.59 28.58z" fill="#000"/><path d="M36.993 32.594l-4.01-4.014.625-.626 4.009 4.016-.624.624z" fill="#000"/><path d="M37.624 32.594l-.634-.616-1.288 1.328.634.616 1.288-1.328zm1.366 1.32l-.624-.626-1.361 1.36.625.626 1.36-1.36z" fill="#000"/><path d="M56.026 56.54c-.021 0-.044 0-.065-.004a1.296 1.296 0 01-.942-.45L41.738 42.811l-10.96-10.988a1.294 1.294 0 01-.444-.945 1.476 1.476 0 01.355-1.014 1.47 1.47 0 01.94-.52 1.3 1.3 0 011.023.293l.03.029 3.597 3.66-.629.62-3.58-3.644a.44.44 0 00-.327-.082.594.594 0 00-.378.214.59.59 0 00-.148.41.433.433 0 00.147.318l.028.026 10.972 10.997 13.32 13.32a.43.43 0 00.316.148.607.607 0 00.41-.144c.232-.192.29-.504.138-.703l-3.485-3.478.623-.625 3.531 3.523c.477.575.37 1.454-.24 1.961a1.474 1.474 0 01-.951.353zM31.965 26.999a1.48 1.48 0 01-.95-.35c-.611-.51-.719-1.39-.242-1.963l.029-.03 3.633-3.624.626.627-3.617 3.605c-.154.2-.094.514.136.705.12.1.27.15.41.146a.44.44 0 00.318-.15l.027-.03 13.292-13.29.627.625-13.28 13.277a1.31 1.31 0 01-.943.45c-.022.002-.045.002-.066.002z" fill="#000"/><path d="M34.712 22.006l-.625-.625L55.04.45c.234-.272.568-.432.94-.45A1.48 1.48 0 0157 .35c.29.241.478.575.527.937.052.377-.05.742-.286 1.025l-.026.03-5.317 5.322-.625-.626 5.299-5.305a.432.432 0 00.08-.326.605.605 0 00-.217-.377.597.597 0 00-.41-.144.438.438 0 00-.319.15l-.027.03-20.966 20.94zm1.565 6.531l-.626-.625 5.493-5.492.625.625-5.492 5.492z" fill="#000"/><path d="M42.755 34.39l-6.476-6.479-.626.626 6.476 6.479.626-.625zm10.296 14.219L38.283 33.916l.623-.627 14.768 14.69-.623.63zm-.657.749L37.583 34.634l-.623.626 14.81 14.724.623-.626zm5.998-46.577c0 .246.197.445.442.445a.443.443 0 10-.442-.445zm.023 10.815a.452.452 0 10.906 0 .452.452 0 00-.906 0zm13.314 5.192a.445.445 0 10.445-.444.435.435 0 00-.445.444zm-.505-5.845a.445.445 0 10.444-.445.435.435 0 00-.444.445zm-2.114 3.214a.444.444 0 10.443-.443.433.433 0 00-.443.443zm1.403 1.338a.445.445 0 10.445-.445.435.435 0 00-.445.445zm1.327-1.338a.444.444 0 10.443-.443.434.434 0 00-.444.443zm8.019 16.126a.445.445 0 10.445-.445.435.435 0 00-.445.445zm-1.326 1.354c0 .244.199.445.444.445a.444.444 0 100-.89.434.434 0 00-.444.445zm1.326 1.346a.445.445 0 10.445-.445.436.436 0 00-.445.445zM58.37 16.261a.464.464 0 10.929 0 .464.464 0 00-.929 0zm4.085-9.459a.442.442 0 10.884 0 .442.442 0 00-.884 0zM59.32 5.44a.443.443 0 01-.887 0c0-.246.2-.442.444-.442a.44.44 0 01.443.441z" fill="#000"/><path d="M63.209 6.488l-4.063-4.021-.622.629 4.062 4.021.623-.63z" fill="#000"/><path d="M55.082 7.117l-.62-.629 4.06-4.021.623.629-4.063 4.021zm-2.91.233a.444.444 0 01-.443.445.444.444 0 010-.887c.244 0 .443.2.443.443zm3.136 2.024c-.033.279-.208.464-.464.464-.254 0-.425-.207-.464-.464-.038-.255.21-.464.464-.464.256 0 .494.209.464.464z" fill="#000"/><path d="M54.487 9.652c-1.416-1.65-2.83-1.865-2.844-1.868l.113-.876c.072.01 1.75.241 3.403 2.167l-.672.577z" fill="#000"/><path d="M59.192 5.755l-.62-.63-4.052 3.988.621.63 4.05-3.988zm6.39 1.595a.443.443 0 10.443-.443c-.245 0-.443.2-.443.444zm-3.136 2.024c.032.279.208.464.464.464.255 0 .425-.207.463-.464.038-.255-.208-.464-.463-.464-.256 0-.494.209-.464.464z" fill="#000"/><path d="M63.266 9.652l-.67-.577c1.653-1.926 3.33-2.158 3.402-2.167l.11.876-.055-.437.059.437c-.014.003-1.43.218-2.846 1.868z" fill="#000"/><path d="M63.24 9.113l-4.053-3.985-.62.63 4.054 3.985.62-.63zM44.891 22.54l-.618-.631 11.252-11.016c.687-.985 1.685-2.104 3.344-2.132h.065c1.445 0 2.178.84 3.186 2l.05.058 11.057 11.093-.626.623-11.086-11.124-.061-.07c-.963-1.105-1.487-1.713-2.57-1.697-1.268.022-2.055.915-2.655 1.786l-.055.064L44.891 22.54z" fill="#000"/><path d="M66.656 41.1l-.62-.632 2.406-2.359.396-.365c2.584-2.378 6.124-5.635 6.204-8.742.09-3.47-1.02-5.153-3.383-7.407l.61-.64c2.502 2.386 3.754 4.288 3.657 8.07-.089 3.48-3.788 6.884-6.49 9.37l-.386.357-2.394 2.348zm-8.132 10.213L45.918 38.862c-3.166-2.925-6.426-6.392-6.515-9.866-.095-3.707.747-5.793 3.336-8.261l2.444-2.255.6.65-2.44 2.25c-2.401 2.288-3.145 4.135-3.056 7.594.081 3.162 3.377 6.604 6.241 9.246l12.617 12.464-.62.629zm.736-29.81a.443.443 0 11-.443-.442c.245 0 .443.183.443.442zm3.992 1.403a.448.448 0 01-.455.443.45.45 0 01-.458-.443.45.45 0 01.458-.442c.252 0 .455.183.455.442zM59.26 32.28a.442.442 0 11-.443-.442c.245 0 .443.183.443.442zm.015 2.7a.442.442 0 11-.44-.44c.243 0 .44.18.44.44z" fill="#000"/><path d="M59.145 51.313l-.621-.63 12.615-12.452c2.874-2.653 6.17-6.095 6.251-9.259.089-3.457-.655-5.304-3.061-7.597l-2.433-2.244.6-.65 2.437 2.249c2.594 2.472 3.437 4.559 3.343 8.266-.09 3.474-3.349 6.941-6.527 9.874L59.145 51.313zm.115-29.81h-.884V32.28h.884V21.503zm3.966 1.375h-.885v10.777h.885V22.878z" fill="#000"/><path d="M62.989 33.958l-.3-.833-4.003 1.436.298.833 4.005-1.436z" fill="#000"/><path d="M59.011 34.566l-4.005-1.432-.298.833 4.005 1.433.298-.834zm.092 3.324l-.625-.626 4.805-4.811c.082-.077.158-.155.237-.235.512-.52 1.148-1.163 1.975-1.163.978 0 1.837.883 1.837 1.89h-.884c0-.527-.455-1.005-.952-1.005-.457 0-.93.477-1.345.898-.085.085-.167.169-.246.245l-4.802 4.806z" fill="#000"/><path d="M58.618 37.89l-4.806-4.812c-.075-.072-.157-.155-.241-.24-.417-.422-.888-.898-1.344-.898-.498 0-.953.478-.953 1.005h-.883c0-1.007.858-1.89 1.836-1.89.826 0 1.463.644 1.974 1.162.08.081.157.159.231.23l4.812 4.817-.626.625zm4.314 5.242c-2.424 0-4.397-1.867-4.397-4.162h.883c0 1.81 1.578 3.28 3.514 3.28 1.905 0 3.515-1.546 3.515-3.372h.884c0 2.308-2.014 4.254-4.399 4.254z" fill="#000"/><path d="M54.75 43.133c-2.403 0-4.36-1.88-4.36-4.19h.884c0 1.821 1.559 3.307 3.477 3.307 1.917 0 3.476-1.471 3.476-3.28h.884c0 2.295-1.957 4.163-4.36 4.163z" fill="#000"/><path d="M59.524 37.344h-1.326v2.588h1.326v-2.588zm7.807-4.427h-.884v6.053h.884v-6.053zm-8.484 9.81c-.515 0-1.079-.185-1.629-.704l.608-.644c1.062 1.004 2.07.047 2.113.007l.616.633c-.335.326-.97.709-1.708.709z" fill="#000"/><path d="M58.873 46.175c-.55 0-1.18-.036-1.84-.146-3.413-.566-3.626-3.282-3.627-3.309l.883-.057c.006.08.188 2.045 2.89 2.494 1.79.296 3.396.004 3.413 0 2.513-.532 2.7-2.419 2.706-2.5l.882.066c-.002.026-.22 2.624-3.415 3.304-.055.007-.82.148-1.892.148zm10.969-29.682l-.576-.67c1.908-1.64 1.96-2.867 1.96-2.878l.884-.002c0 .064-.022 1.622-2.268 3.55z" fill="#000"/><path d="M70.652 17.814l-1.313-1.247.61-.64 1.312 1.248-.609.639z" fill="#000"/><path d="M72.594 16.475l-.62-.63-1.276 1.259.62.629 1.276-1.258z" fill="#000"/><path d="M84.019 28.58L71.945 16.45l.627-.625 12.072 12.13-.625.625z" fill="#000"/><path d="M84.624 28.576l-.626-.625-4.008 4.018.626.625 4.008-4.018z" fill="#000"/><path d="M81.905 33.293l-1.288-1.326-.635.616 1.288 1.326.635-.616zM80.6 34.661L79.242 33.3l-.626.625 1.358 1.361.626-.625z" fill="#000"/><path d="M61.582 56.54a1.48 1.48 0 01-.951-.352 1.487 1.487 0 01-.526-.935c-.053-.377.05-.742.287-1.027l.026-.028 3.504-3.494.624.625-3.486 3.477a.433.433 0 00-.079.325c.02.146.096.28.217.379.12.1.268.148.41.144a.428.428 0 00.316-.149l.029-.029 13.293-13.29 10.998-11.023a.43.43 0 00.147-.319.602.602 0 00-.147-.41.597.597 0 00-.379-.213.436.436 0 00-.325.082l-3.58 3.644-.631-.62 3.627-3.69a1.307 1.307 0 011.022-.292c.364.046.698.231.942.52.243.287.369.648.355 1.014a1.297 1.297 0 01-.445.944L75.872 42.81 62.59 56.087a1.3 1.3 0 01-.943.45c-.023.003-.043.003-.066.003zM85.643 27c-.022 0-.044 0-.065-.004a1.306 1.306 0 01-.943-.45L71.355 13.27l.625-.625 13.32 13.32a.438.438 0 00.318.15.61.61 0 00.411-.146.608.608 0 00.215-.377.436.436 0 00-.079-.328l-3.618-3.607.625-.625 3.661 3.654c.237.284.34.647.288 1.026a1.49 1.49 0 01-.527.937 1.48 1.48 0 01-.951.35z" fill="#000"/><path d="M82.897 22.006L61.915 1.05l-.012-.016a.433.433 0 00-.32-.15.603.603 0 00-.408.145.597.597 0 00-.216.377.427.427 0 00.08.326l5.298 5.305-.626.626-5.343-5.352a1.297 1.297 0 01-.286-1.025 1.48 1.48 0 01.527-.937 1.47 1.47 0 011.017-.347c.372.017.707.177.942.45L83.521 21.38l-.624.625zm-.941 5.904l-5.492-5.491-.625.625 5.491 5.492.626-.625z" fill="#000"/><path d="M81.947 28.535l-.626-.626-6.472 6.483.626.625 6.472-6.482zM64.559 48.609l-.625-.63 14.768-14.69.624.627-14.767 14.693zm16.087-13.352l-.624-.626-14.805 14.73.623.627 14.806-14.73zm-28.524-15.02a1.37 1.37 0 01-1.004-.436l-2.024-1.985.619-.632 2.052 2.011a.48.48 0 00.721-.636l-3.963-3.868a3.594 3.594 0 01-1.126-2.415 3.256 3.256 0 01.888-2.445c1.277-1.342 3.462-1.342 4.87-.002l5.894 6.103-.635.614-5.883-6.091c-1.042-.99-2.666-1.002-3.606-.016a2.387 2.387 0 00-.644 1.79c.035.687.339 1.334.855 1.824l3.998 3.903a1.367 1.367 0 01-1.012 2.28z" fill="#000"/><path d="M56.082 18.807c-.023 0-.048 0-.07-.002a1.362 1.362 0 01-.936-.436l-5.466-5.4a1.366 1.366 0 012.077-1.773l5.404 5.33c.245.27.37.619.352.984-.018.363-.177.7-.448.944a1.357 1.357 0 01-.913.353zm-5.8-6.414l5.441 5.37a.482.482 0 00.72-.638l-5.48-5.4a.482.482 0 00-.68.668zm.41 17.18h-.07a1.363 1.363 0 01-.936-.439l-5.934-5.87.622-.63 5.96 5.897a.474.474 0 00.333.157.482.482 0 00.387-.796l-4.89-4.82.62-.63 4.919 4.852a1.365 1.365 0 01-1.011 2.28zm16.178.001a1.364 1.364 0 01-1.01-2.28l.016-.02 4.902-4.833.621.63-4.89 4.821a.484.484 0 00.04.674c.095.086.218.13.346.123a.479.479 0 00.334-.157l.016-.019 5.943-5.879.622.63-5.935 5.87a1.356 1.356 0 01-.934.439h-.07zM48.08 32.28a1.35 1.35 0 01-.908-.346l-.019-.017-5.145-5.15.626-.625 5.134 5.14a.48.48 0 00.672-.047.478.478 0 00-.04-.679l-.021-.018-5.667-5.742.629-.62 5.66 5.73a1.362 1.362 0 01-.84 2.372.747.747 0 01-.082.003zm21.472 0c-.025 0-.054 0-.08-.002a1.356 1.356 0 01-.94-.455 1.354 1.354 0 01-.344-.986c.02-.36.179-.69.443-.931l5.66-5.73.628.62-5.688 5.76a.483.483 0 00.292.84.48.48 0 00.34-.114l5.135-5.14.626.626-5.165 5.166a1.355 1.355 0 01-.907.346zm-8.195-13.473a1.362 1.362 0 01-1.012-2.282l.02-.019 5.388-5.313c.228-.256.54-.415.885-.449.363-.036.718.072 1 .304a1.363 1.363 0 01.188 1.922l-.031.032-5.435 5.365c-.242.264-.574.42-.934.437-.023.003-.046.003-.07.003zm-.363-1.68a.484.484 0 00-.118.338.485.485 0 00.506.457.475.475 0 00.333-.158l.017-.017 5.424-5.354a.482.482 0 00-.683-.669l-5.479 5.402z" fill="#000"/><path d="M65.316 20.237a1.36 1.36 0 01-.916-.352 1.368 1.368 0 01-.096-1.929l.021-.02 3.974-3.878a2.72 2.72 0 00.859-1.83 2.379 2.379 0 00-.646-1.789 2.379 2.379 0 00-1.745-.733h-.007a2.718 2.718 0 00-1.859.755l-5.751 6.103-.644-.606 5.777-6.13a3.595 3.595 0 012.473-1.006h.011a3.246 3.246 0 013.273 3.453 3.596 3.596 0 01-1.127 2.42l-3.96 3.863a.48.48 0 00.72.637l.029-.029 2.184-2.007.598.651-2.17 1.995a1.353 1.353 0 01-.998.432zm-6.268-6.957l-2.709-2.84-.64.61 2.709 2.84.64-.61z" fill="#000"/><path d="M61.84 11.081l-.63-.62-2.75 2.799.63.619 2.75-2.798zm-7.027 11.383H44.538v.885h10.275v-.885zm18.141 0H62.68v.885h10.274v-.885z" fill="#000"/><path d="M55.133 27.953l-5.367-5.36-.625.626 5.366 5.36.626-.626zm0-2.562l-2.682-2.8-.639.613 2.682 2.8.639-.613zm10.354-5.154c-.327 0-.654-.116-.915-.352-.27-.245-.43-.58-.448-.944a1.35 1.35 0 01.352-.984l.018-.02 3.975-3.879c1.06-1.008 1.154-2.63.215-3.619-.941-.987-2.565-.974-3.62.031l-5.869 6.077-.636-.615 5.881-6.091c1.422-1.353 3.607-1.353 4.883-.01 1.277 1.34 1.169 3.523-.24 4.864l-3.96 3.863a.48.48 0 00.721.637l.018-.018 2.034-1.993.62.632-2.027 1.985c-.267.29-.634.436-1.002.436z" fill="#000"/><path d="M61.526 18.807c-.339 0-.66-.125-.915-.353a1.37 1.37 0 01-.095-1.929l.017-.018 5.39-5.314a1.364 1.364 0 011.886-.145 1.365 1.365 0 01.188 1.922l-.032.032-5.433 5.366a1.362 1.362 0 01-.936.436c-.022.003-.045.003-.07.003zm-.36-1.68a.482.482 0 00.386.795.475.475 0 00.333-.159l.017-.017 5.424-5.353a.476.476 0 00.095-.337.474.474 0 00-.173-.326.478.478 0 00-.603-.006l-5.48 5.402zm5.752 12.446a1.35 1.35 0 01-.915-.354 1.363 1.363 0 01-.096-1.928l.017-.018 4.9-4.833.62.63-4.889 4.821a.486.486 0 00.04.673.483.483 0 00.682-.035l.016-.017 5.942-5.879.621.63-5.934 5.87a1.36 1.36 0 01-1.004.44zm2.612 2.707c-.027 0-.054 0-.08-.002a1.356 1.356 0 01-.94-.455 1.348 1.348 0 01-.344-.986c.02-.36.177-.69.443-.931l5.658-5.73.63.62-5.688 5.76a.478.478 0 00-.04.68.472.472 0 00.332.16.47.47 0 00.34-.114l5.134-5.14.626.626-5.165 5.166a1.358 1.358 0 01-.906.346zm-7.633-21.228l-.64-.61-2.708 2.84.641.61 2.707-2.84z" fill="#000"/><path d="M73.07 22.464H62.798v.885H73.07v-.885z" fill="#000"/><path d="M68.468 23.217l-.625-.625-5.365 5.36.625.626 5.365-5.36zm-5.353 2.795l-.638-.611L65.16 22.6l.637.613-2.682 2.8z" fill="#000"/><path d="M68.386 23.224l-.626-.625-5.36 5.367.625.626 5.361-5.368zm-5.356 2.788l-.638-.611 2.682-2.801.638.613-2.682 2.8z" fill="#000"/><path fill-rule="evenodd" clip-rule="evenodd" d="M45.497 69.97v8.902c-.002.775-.346 1.118-1.13 1.118H41.95c-.704 0-1.067-.365-1.067-1.074V65.992c0-1.58-.003-3.16 0-4.741.003-.765.696-1.239 1.344-.918.123.062.233.158.334.251 3.305 3.15 6.605 6.3 9.908 9.447.067.064.137.125.25.226v-8.912c0-.76.35-1.104 1.112-1.107.826 0 1.65-.002 2.475.003.65 0 1.026.373 1.026 1.033.003 5.896 0 11.793 0 17.69 0 .433-.159.775-.569.951-.422.177-.779.049-1.102-.26-3.306-3.158-6.615-6.311-9.925-9.465-.06-.059-.126-.118-.238-.22zm-.945-2.206l11.822 11.272V61.195H53.65v11.263c-3.955-3.774-7.867-7.504-11.814-11.268v17.85h2.716V67.764zm61.11 2.195v8.926c0 .768-.338 1.105-1.106 1.105h-2.447c-.678 0-1.044-.361-1.044-1.036 0-5.889 0-11.775-.004-17.664 0-.45.149-.795.569-.977.419-.177.778-.047 1.101.26 3.262 3.116 6.525 6.227 9.788 9.342l.359.336c.007-.162.017-.268.017-.374v-8.396c0-.106-.003-.209.005-.317.032-.564.401-.923.969-.925a235.27 235.27 0 012.63 0c.636.003 1.004.383 1.004 1.026v15.557c0 .701-.009 1.405.003 2.107.007.445-.145.798-.564.98-.431.188-.793.046-1.122-.268-2.116-2.027-4.239-4.046-6.36-6.07-1.166-1.115-2.335-2.228-3.504-3.343-.081-.078-.163-.149-.294-.27zm-.937-2.198c3.97 3.783 7.878 7.51 11.821 11.27V61.192h-2.726v11.26a33952.89 33952.89 0 00-11.805-11.258v17.841h2.71V67.761zm-72.978-3.082v2.664h.308c1.904 0 3.809-.002 5.712 0 .752 0 1.097.346 1.097 1.092.002.761.002 1.524 0 2.287 0 .697-.356 1.06-1.047 1.06h-6.064v3.764h.312c1.885 0 3.773.017 5.658-.007.775-.012 1.186.454 1.15 1.163-.035.76-.005 1.526-.009 2.287-.002.618-.385 1.001-1 1.001h-9.742c-.6 0-.998-.385-.998-.981-.002-5.93-.002-11.862 0-17.795 0-.586.39-.974.979-.974 3.263-.002 6.528-.002 9.793 0 .588 0 .966.388.969.979.005.814.004 1.632 0 2.45-.001.634-.37 1.007-1.016 1.007-1.921.005-3.843.003-5.765.003h-.337zm-3.664-3.49v17.846h9.825v-2.561h-7.095v-5.63h7.097v-2.568h-7.098v-4.537h7.094v-2.55h-9.823zM4.626 64.68v2.664h.324c1.896 0 3.791-.002 5.687 0 .763 0 1.104.346 1.104 1.11 0 .772.003 1.545 0 2.316 0 .637-.376 1.01-1.017 1.013H4.625c-.007.115-.017.209-.017.302 0 1.053.007 2.105-.005 3.158-.004.238.059.31.304.309 1.896-.008 3.791-.006 5.687-.003.818 0 1.147.331 1.147 1.146 0 .763.002 1.526 0 2.292 0 .616-.386 1.004-1 1.004h-9.74c-.614 0-1-.388-1-1.002V61.246c0-.623.376-1.006.995-1.006 3.247-.002 6.493-.002 9.74 0 .635 0 1.005.383 1.005 1.023.002.8.002 1.597 0 2.395 0 .64-.368 1.019-1.012 1.019-1.922.005-3.842.002-5.763.002h-.34zm6.162 3.592h-7.1v-4.525h7.099v-2.556H.962v17.843h9.819V76.47H3.693v-5.627h7.096v-2.571zM96.92 79.99c-.458 0-.913-.007-1.37.003-.489.01-.81-.213-1-.657-.491-1.144-.992-2.285-1.477-3.426-.078-.182-.172-.24-.369-.24-1.975.007-3.947.007-5.922 0-.19 0-.274.063-.349.23-.503 1.13-1.026 2.248-1.522 3.376-.215.499-.552.732-1.099.72-.886-.02-1.772-.006-2.658-.006-.866 0-1.285-.652-.922-1.448 2.02-4.411 4.045-8.82 6.068-13.232.676-1.475 1.354-2.945 2.025-4.422.2-.439.515-.665 1.006-.65.376.012.755.015 1.13.005.533-.017.865.226 1.075.712 1.47 3.383 2.947 6.762 4.423 10.14 1.081 2.481 2.165 4.964 3.247 7.443.355.82-.055 1.453-.944 1.453H96.92zm1.47-.94c-.035-.098-.06-.17-.091-.237-2.534-5.809-5.067-11.614-7.596-17.42-.064-.144-.133-.218-.305-.21a9.67 9.67 0 01-.922-.008c-.182-.01-.276.05-.356.224-2.655 5.808-5.32 11.613-7.98 17.416-.031.07-.053.142-.088.236.915 0 1.802-.005 2.687.007.192.002.272-.069.345-.236.577-1.285 1.166-2.567 1.74-3.857.082-.179.178-.237.373-.235 2.362.007 4.721.007 7.082-.002.225 0 .334.063.424.274.542 1.283 1.102 2.56 1.663 3.833.039.088.14.206.215.209.928.014 1.856.007 2.809.007zm-32.819-8.931v-8.765c0-.783.332-1.117 1.12-1.117 1.456.003 2.913-.012 4.37.013 1.777.032 3.517.282 5.115 1.119 2.676 1.401 4.264 3.64 4.873 6.568.508 2.437.267 4.817-.95 7.015-1.496 2.7-3.832 4.282-6.858 4.812-.893.157-1.813.191-2.72.218-1.309.034-2.616.007-3.924.007-.657 0-1.026-.365-1.026-1.025-.002-2.95 0-5.896 0-8.845zm.949 8.931c1.26 0 2.489.02 3.716-.007.893-.022 1.794-.03 2.674-.172 2.92-.469 5.142-1.982 6.503-4.635.972-1.895 1.147-3.93.743-5.997-.522-2.67-1.942-4.723-4.37-6.019-1.402-.746-2.934-.988-4.499-1.023-1.517-.034-3.036-.017-4.553-.02-.068-.002-.134.013-.213.018L66.52 79.05zm-48.208-3.504h.35c1.817 0 3.633 0 5.45.003.8 0 1.132.331 1.134 1.133 0 .746 0 1.492-.002 2.238 0 .715-.354 1.07-1.063 1.07h-9.425c-.688 0-1.059-.368-1.059-1.055-.002-5.88-.002-11.758 0-17.638 0-.69.366-1.057 1.053-1.06.815-.002 1.632 0 2.448 0 .763.003 1.112.347 1.112 1.107.002 4.608.002 9.214.002 13.824v.378zM14.656 61.19v17.843h9.658c0-.768-.01-1.512.007-2.255.005-.245-.07-.307-.31-.304-2.106.007-4.212.005-6.317.005h-.328v-15.29h-2.71z" fill="#000"/><path fill-rule="evenodd" clip-rule="evenodd" d="M89.824 65.645c.897 2.196 1.767 4.336 2.65 6.502h-5.406c.918-2.163 1.825-4.306 2.756-6.502zm-1.34 5.57h2.599l-1.276-3.12c-.457 1.077-.884 2.08-1.323 3.12zM69.25 76.452V63.744c.338 0 .66.002.983 0 1.073-.002 2.138.054 3.175.368 2.262.69 3.552 2.28 4.032 4.53.469 2.196.012 4.2-1.521 5.896-.963 1.06-2.195 1.637-3.59 1.801-.98.12-1.975.098-2.967.138-.032 0-.066-.015-.111-.025zm.93-.88c.614-.037 1.201-.048 1.783-.116 1.163-.142 2.238-.52 3.086-1.374 1.502-1.52 1.908-3.352 1.446-5.386-.34-1.497-1.143-2.685-2.564-3.38-.776-.377-1.607-.544-2.464-.593-.424-.025-.851-.005-1.287-.005V75.57z" fill="#000"/></svg>