<svg width="157" height="283" fill="none" xmlns="http://www.w3.org/2000/svg"><g opacity=".2" fill="#AFAFAF"><path d="M139.88 254.896a2.477 2.477 0 002.471 2.479 2.475 2.475 0 002.465-2.479 2.465 2.465 0 00-2.465-2.458c-1.365 0-2.471 1.016-2.471 2.458zm-27.079-12.824a2.467 2.467 0 002.469 2.463 2.466 2.466 0 002.46-2.463 2.467 2.467 0 00-2.46-2.473c-1.368-.002-2.469 1.026-2.469 2.473zm-6.275 6.377a2.476 2.476 0 002.468 2.468 2.47 2.47 0 100-4.941c-1.36 0-2.468 1.019-2.468 2.473zm13.208.762c0 1.362 1.11 2.47 2.468 2.47a2.47 2.47 0 002.47-2.47 2.46 2.46 0 00-2.47-2.461c-1.36 0-2.468 1.008-2.468 2.461zm-6.363 6.328a2.469 2.469 0 004.938 0 2.47 2.47 0 00-2.468-2.467c-1.362-.001-2.47 1.013-2.47 2.467z"/><path d="M117.25 243.563l-3.154-3.111-6.524 6.613 3.153 3.111 6.525-6.613zm-.371 13.683l-3.115-3.143 6.875-6.84 3.121 3.142-6.881 6.841z"/><path d="M140.29 270.134l-19.268-19.359 3.131-3.132 19.279 19.366-3.142 3.125zm4.831-15.238a2.476 2.476 0 01-2.471 2.479 2.477 2.477 0 01-2.468-2.479 2.468 2.468 0 012.468-2.458c1.364 0 2.471 1.016 2.471 2.458z"/><path d="M144.706 270.134l-3.136-3.125 19.271-19.366 3.138 3.132-19.273 19.359zm-.143-256.215a2.216 2.216 0 01-2.215 2.226 2.222 2.222 0 01-2.216-2.226c0-1.219.995-2.209 2.216-2.209 1.23 0 2.215.99 2.215 2.209zm-.11 54.128a2.26 2.26 0 01-2.263 2.265 2.265 2.265 0 112.263-2.264zM77.806 94.03a2.226 2.226 0 01-2.226 2.226 2.224 2.224 0 010-4.448c1.227 0 2.227.916 2.227 2.222zm2.536-29.249a2.229 2.229 0 01-2.23 2.227 2.23 2.23 0 01-2.221-2.227c0-1.224.996-2.226 2.221-2.226 1.234 0 2.23.921 2.23 2.226zm10.574 16.083a2.224 2.224 0 11-2.221-2.22c1.226 0 2.221.91 2.221 2.22zm-7.011 6.694a2.227 2.227 0 11-2.228-2.227c1.23 0 2.228.915 2.228 2.227zm-6.645-6.694a2.218 2.218 0 01-2.222 2.226 2.223 2.223 0 110-4.446c1.226 0 2.221.91 2.221 2.22zm-60.3 60.604a2.226 2.226 0 01-2.224 2.226 2.229 2.229 0 01-2.226-2.226c0-1.225.998-2.221 2.226-2.221 1.229 0 2.223.915 2.223 2.221zm20.157 20.106a2.223 2.223 0 11-2.225-2.226c1.227-.002 2.225.914 2.225 2.226zm6.641 6.781a2.232 2.232 0 01-2.225 2.226 2.233 2.233 0 01-2.226-2.226c0-1.232.998-2.227 2.226-2.227 1.229 0 2.225.915 2.225 2.227zm-6.641 6.732a2.224 2.224 0 11-2.225-2.226c1.227-.002 2.225.926 2.225 2.226zm-6.706-33.829a2.223 2.223 0 11-4.446 0c0-1.227.995-2.227 2.22-2.227 1.23 0 2.226.928 2.226 2.227zm0 27.097a2.233 2.233 0 01-2.226 2.226 2.232 2.232 0 01-2.22-2.226c0-1.232.995-2.227 2.22-2.227 1.23-.001 2.226.915 2.226 2.227zM144.67 81.386a2.322 2.322 0 11-4.645 0 2.325 2.325 0 012.32-2.328 2.324 2.324 0 012.325 2.328zm-20.437-47.338a2.216 2.216 0 01-2.212 2.213 2.218 2.218 0 010-4.435 2.22 2.22 0 012.212 2.222zm15.688-6.826a2.216 2.216 0 004.43 0 2.207 2.207 0 00-2.22-2.208 2.206 2.206 0 00-2.21 2.208z"/><path d="M143.939 15.49l-3.116-3.148-20.331 20.13 3.117 3.148 20.33-20.13z"/><path d="M164.218 32.476l-20.331-20.125-3.113 3.145 20.331 20.125 3.113-3.145zm-.255 13.129l-20.297-19.944-3.105 3.16 20.298 19.944 3.104-3.16zm-55.389-8.816a2.21 2.21 0 01-2.212 2.221 2.218 2.218 0 010-4.436 2.209 2.209 0 012.212 2.215zm15.7 10.127c-.164 1.397-1.037 2.325-2.323 2.325-1.284 0-2.128-1.038-2.318-2.325-.191-1.274 1.034-2.32 2.318-2.32 1.286 0 2.471 1.044 2.323 2.32z"/><path d="M120.166 48.307c-7.09-8.26-14.166-9.336-14.245-9.348l.576-4.385c.353.044 8.756 1.207 17.03 10.844l-3.361 2.889z"/><path d="M143.691 28.812l-3.103-3.154-20.277 19.952 3.104 3.154 20.276-19.952zm68.442 83.998l-56.621-55.429-.122-.173c-3.009-4.362-6.943-8.828-13.29-8.94-5.375-.085-8.046 2.963-12.867 8.501l-.393.45-55.392 55.573-3.14-3.124 55.341-55.523.248-.278c5.048-5.802 8.72-10.022 15.959-10.022h.316c8.31.142 13.309 5.742 16.736 10.672l56.328 55.132-3.103 3.161zm-108.924 92.895l-12.04-11.804-1.886-1.739c-13.514-12.44-32.032-29.477-32.478-46.898-.481-18.917 5.787-28.446 18.301-40.385l3.055 3.205c-11.824 11.284-17.378 19.71-16.933 37.068.393 15.552 18.119 31.855 31.053 43.756l1.938 1.788 12.087 11.842-3.097 3.167z"/><path d="M143.903 256.818l-3.11-3.142 63.093-62.328c14.384-13.283 30.885-30.505 31.294-46.343.439-17.298-3.289-26.547-15.328-38.022l-12.176-11.234 3.003-3.254 12.205 11.259c12.98 12.373 17.196 22.816 16.721 41.37-.446 17.39-16.762 34.742-32.659 49.417l-63.043 62.277zm-3.683-149.195c0 1.231.993 2.219 2.213 2.219a2.217 2.217 0 100-4.434c-1.22 0-2.213.916-2.213 2.215zm-19.991 7.019c0 1.225 1.03 2.215 2.296 2.215 1.256 0 2.279-.99 2.279-2.215 0-1.225-1.023-2.213-2.279-2.213-1.266 0-2.296.914-2.296 2.213zm19.984 46.92c0 1.225.993 2.215 2.216 2.215a2.21 2.21 0 002.21-2.215 2.209 2.209 0 00-2.21-2.214c-1.225 0-2.216.915-2.216 2.214zm-.078 13.511c0 1.225.995 2.214 2.217 2.214a2.212 2.212 0 000-4.423c-1.22 0-2.217.91-2.217 2.209z"/><path d="M140.793 256.818l-63.142-62.315c-15.844-14.637-32.162-31.991-32.6-49.379-.478-18.553 3.733-28.996 16.687-41.346l12.237-11.283 2.999 3.254-12.212 11.259c-12.015 11.45-15.734 20.693-15.29 37.997.402 15.836 16.9 33.06 31.236 46.287l63.193 62.378-3.108 3.148zm3.852-149.193h-4.422v53.939h4.422v-53.939zm-19.853 6.878h-4.423v53.939h4.423v-53.939z"/><path d="M143.125 172.995l-20.046-7.17-1.491 4.17 20.045 7.17 1.492-4.17z"/><path d="M163.01 170.031l-1.49-4.17-20.049 7.167 1.49 4.17 20.049-7.167zm-22.016 19.605l-24.044-24.079c-.373-.358-.786-.774-1.21-1.2-2.08-2.116-4.443-4.497-6.727-4.497-2.491 0-4.762 2.394-4.762 5.03h-4.423c0-5.037 4.295-9.46 9.187-9.46 4.132 0 7.325 3.223 9.882 5.816.394.408.784.797 1.159 1.156l24.079 24.104-3.141 3.13z"/><path d="M143.437 189.636l-3.134-3.13 24.059-24.078c.399-.383.783-.774 1.184-1.175 2.558-2.6 5.74-5.823 9.874-5.823 4.893 0 9.196 4.422 9.196 9.46h-4.426c0-2.636-2.271-5.03-4.769-5.03-2.285 0-4.641 2.389-6.725 4.497-.431.426-.835.842-1.228 1.225l-24.031 24.054zm-21.602 26.241c-11.933 0-22.009-9.742-22.009-21.293h4.42c0 9.137 8.059 16.875 17.587 16.875 9.697 0 17.583-7.361 17.583-16.416h4.429c.004 11.487-9.874 20.834-22.01 20.834z"/><path d="M162.787 215.876c-12.036 0-21.821-9.348-21.821-20.835h4.42c0 9.057 7.804 16.417 17.403 16.417 9.596 0 17.4-7.434 17.4-16.553h4.426c0 11.567-9.791 20.971-21.828 20.971z"/><path d="M145.536 186.9h-6.641v12.954h6.641V186.9zm-41.287-22.153h-4.423v30.294h4.423v-30.294zm38.034 49.103c-3.69 0-6.868-1.914-8.547-3.547l3.08-3.167-1.541 1.577 1.531-1.59c.542.508 5.421 4.857 10.586-.025l3.038 3.223c-2.744 2.6-5.572 3.529-8.147 3.529z"/><path d="M142.146 231.102c-5.357 0-9.166-.692-9.404-.737-16.047-3.408-17.14-16.411-17.148-16.541l4.413-.304-2.203.148 2.203-.171c.035.407.96 9.847 13.598 12.532.027 0 8.105 1.454 17.025-.019 13.523-2.251 14.437-12.081 14.47-12.49l4.415.291c-.002.136-1.072 13.728-18.158 16.559-3.292.554-6.462.732-9.211.732zM87.254 82.548c-11.236-9.652-11.35-17.446-11.35-17.768l4.424.007-2.218-.007 2.218-.03c0 .061.3 6.267 9.81 14.439l-2.885 3.36z"/><path d="M89.76 82.875l-3.043-3.198-6.568 6.247 3.043 3.199 6.568-6.248z"/><path d="M83.008 85.605l-6.388-6.299-3.107 3.151 6.388 6.299 3.107-3.151z"/><path d="M16.305 143.04l-3.137-3.13 60.427-60.707 3.133 3.122-60.423 60.715z"/><path d="M33.333 163.133L13.267 143.04l3.127-3.131 20.064 20.098-3.125 3.126z"/><path d="M36.494 163.132l-3.173-3.08-6.45 6.646 3.173 3.079 6.45-6.645zm6.84 6.607l-3.129-3.131-6.811 6.808 3.129 3.131 6.811-6.808z"/><path d="M128.593 282.982c-.103 0-.22 0-.325-.018-1.865-.079-3.539-.878-4.716-2.253l-66.469-66.442-54.856-54.996c-1.363-1.187-2.158-2.858-2.222-4.728a7.386 7.386 0 011.781-5.072c1.217-1.447 2.89-2.374 4.701-2.603 1.898-.253 3.721.278 5.124 1.467l.15.141 18.003 18.324-3.15 3.099-17.919-18.238c-.445-.34-1.022-.488-1.634-.409-.72.093-1.396.47-1.894 1.07-.51.599-.773 1.324-.739 2.049.024.643.285 1.212.734 1.595l.14.13 54.914 55.04 66.666 66.665c.373.45.935.712 1.585.743a3.042 3.042 0 002.049-.722c1.164-.962 1.455-2.526.69-3.522l-17.441-17.403 3.119-3.129 17.672 17.63c2.387 2.877 1.848 7.277-1.206 9.818-1.361 1.146-3.037 1.764-4.757 1.764zM8.173 135.126a7.41 7.41 0 01-4.76-1.751c-3.056-2.549-3.593-6.954-1.206-9.824l.142-.148 18.184-18.139 3.134 3.136-18.102 18.046c-.773 1.003-.472 2.568.679 3.527a3.067 3.067 0 002.05.73c.648-.038 1.209-.297 1.594-.755l.134-.148L76.55 63.284l3.135 3.13-66.463 66.45c-1.184 1.366-2.853 2.17-4.72 2.251-.108.011-.223.011-.328.011z"/><path d="M21.92 110.138l-3.13-3.129L123.663 2.262c1.174-1.368 2.844-2.166 4.71-2.253 1.824-.094 3.639.533 5.093 1.738 1.452 1.207 2.391 2.878 2.636 4.69.261 1.886-.25 3.71-1.433 5.128l-.129.155-26.61 26.632-3.127-3.13L131.32 8.67c.342-.446.485-1.021.401-1.633-.1-.717-.488-1.386-1.087-1.886a2.987 2.987 0 00-2.05-.724c-.648.032-1.213.298-1.595.749l-.138.154-104.93 104.808zm7.833 32.69l-3.132-3.129 27.493-27.486 3.124 3.131-27.485 27.484z"/><path d="M62.173 172.123l-32.41-32.43-3.132 3.131 32.41 32.429 3.133-3.13zm51.535 71.163l-73.917-73.539 3.117-3.136 73.914 73.526-3.114 3.149zm-3.29 3.745l-74.132-73.693-3.117 3.136 74.132 73.692 3.117-3.135zm30.018-233.112c0 1.231.99 2.226 2.215 2.226a2.217 2.217 0 002.208-2.226 2.211 2.211 0 00-4.423 0zm.114 54.128a2.255 2.255 0 002.261 2.265 2.264 2.264 0 100-4.529 2.26 2.26 0 00-2.261 2.264zm-.223 13.339a2.324 2.324 0 104.65 0 2.325 2.325 0 10-4.65 0zm4.754-54.164a2.219 2.219 0 01-4.438 0c0-1.225.998-2.208 2.221-2.208a2.208 2.208 0 012.217 2.208z"/><path d="M164.544 32.47l-20.331-20.125-3.117 3.15 20.331 20.125 3.117-3.15z"/><path d="M123.871 35.62l-3.106-3.149 20.325-20.126 3.116 3.149-20.335 20.126zm-14.567 1.169a2.22 2.22 0 01-2.214 2.221 2.219 2.219 0 010-4.436 2.218 2.218 0 012.214 2.215zm15.697 10.127c-.166 1.397-1.037 2.325-2.323 2.325-1.271 0-2.126-1.038-2.319-2.325-.19-1.274 1.048-2.32 2.319-2.32 1.286 0 2.473 1.044 2.323 2.32z"/><path d="M120.893 48.307c-7.087-8.26-14.169-9.336-14.238-9.348l.569-4.385c.359.044 8.758 1.207 17.03 10.844l-3.361 2.889z"/><path d="M144.439 28.807l-3.105-3.155-20.274 19.962 3.105 3.154 20.274-19.961z"/><path d="M164.703 45.605l-20.286-19.944-3.102 3.155 20.286 19.945 3.102-3.156zM72.866 112.81l-3.096-3.161 56.32-55.132c3.435-4.932 8.433-10.53 16.734-10.672h.324c7.236 0 10.901 4.208 15.949 10.009l.25.291 55.337 55.523-3.133 3.117-55.483-55.677-.306-.345c-4.821-5.533-7.443-8.575-12.858-8.496-6.35.111-10.288 4.577-13.292 8.94l-.275.32-56.471 55.283z"/><path d="M141.099 256.818l-63.094-62.315c-15.848-14.637-32.163-31.991-32.607-49.379-.475-18.553 3.736-28.996 16.696-41.346l12.23-11.283 3.003 3.254-12.212 11.259c-12.015 11.45-15.736 20.693-15.293 38.009.407 15.824 16.903 33.048 31.238 46.275l63.147 62.382-3.108 3.144zm3.68-149.195a2.215 2.215 0 01-2.217 2.219 2.217 2.217 0 110-4.434c1.225 0 2.217.916 2.217 2.215zm.002 53.939a2.215 2.215 0 01-2.218 2.215c-1.21 0-2.21-.991-2.21-2.215 0-1.223.998-2.214 2.21-2.214 1.226 0 2.218.915 2.218 2.214zm.078 13.511a2.21 2.21 0 01-2.205 2.214 2.218 2.218 0 01-2.218-2.214c0-1.224.994-2.209 2.218-2.209 1.215 0 2.205.91 2.205 2.209z"/><path d="M144.205 256.818l-3.109-3.148 63.137-62.322c14.384-13.283 30.885-30.505 31.287-46.343.444-17.304-3.277-26.547-15.323-38.022l-12.174-11.234 2.998-3.254 12.203 11.259c12.984 12.373 17.2 22.816 16.728 41.37-.446 17.39-16.759 34.742-32.666 49.417l-63.081 62.277zm.574-149.193h-4.424v53.939h4.424v-53.939zm18.664 62.333l-1.495-4.17-20.041 7.186 1.495 4.169 20.041-7.185z"/><path d="M143.537 173.002l-20.047-7.17-1.491 4.169 20.047 7.171 1.491-4.17zm.456 16.634l-3.126-3.13 24.051-24.078c.407-.383.79-.774 1.186-1.175 2.56-2.6 5.745-5.823 9.884-5.823 4.895 0 9.193 4.422 9.193 9.46h-4.425c0-2.636-2.277-5.03-4.767-5.03-2.284 0-4.653 2.389-6.73 4.497-.422.426-.837.842-1.228 1.225l-24.038 24.054z"/><path d="M141.567 189.636l-24.054-24.079c-.375-.358-.783-.774-1.205-1.2-2.085-2.116-4.445-4.497-6.727-4.497-2.491 0-4.769 2.394-4.769 5.03h-4.421c0-5.037 4.297-9.46 9.192-9.46 4.135 0 7.32 3.223 9.877 5.816.398.408.786.797 1.159 1.156l24.082 24.104-3.134 3.13zm21.594 26.241c-12.135 0-22.01-9.347-22.01-20.834h4.421c0 9.056 7.896 16.416 17.587 16.416 9.534 0 17.593-7.738 17.593-16.875h4.424c.002 11.551-10.079 21.293-22.015 21.293z"/><path d="M122.211 215.876c-12.028 0-21.822-9.404-21.822-20.971h4.422c0 9.119 7.802 16.553 17.4 16.553 9.596 0 17.399-7.362 17.399-16.417h4.422c.002 11.487-9.79 20.835-21.821 20.835z"/><path d="M146.103 186.9h-6.64v12.954h6.64V186.9zm-3.387 26.948c-2.582 0-5.402-.929-8.154-3.527l3.041-3.223c5.316 5.023 10.364.235 10.575.036l3.085 3.167c-1.679 1.633-4.858 3.547-8.547 3.547z"/><path d="M142.844 231.1c-2.748 0-5.91-.179-9.205-.73-17.087-2.833-18.153-16.425-18.158-16.559l4.42-.285c.033.403.942 10.233 14.465 12.484 8.958 1.479 16.999.019 17.082 0 12.578-2.667 13.512-12.107 13.541-12.513l4.418.327c-.013.13-1.105 13.133-17.092 16.536-.275.037-4.101.74-9.471.74zm13.561 51.883c-1.718 0-3.392-.616-4.762-1.762-1.447-1.207-2.384-2.876-2.634-4.683-.261-1.886.248-3.713 1.439-5.137l.13-.142 17.536-17.488 3.123 3.129-17.445 17.403c-.34.439-.477 1.021-.396 1.626.099.73.482 1.398 1.084 1.896.598.5 1.345.74 2.055.722.645-.031 1.207-.291 1.582-.743l.141-.148 66.533-66.516 55.046-55.171c.45-.383.716-.952.736-1.595.031-.724-.235-1.449-.736-2.049-.504-.6-1.179-.978-1.898-1.07-.612-.079-1.187.069-1.629.409l-17.918 18.238-3.159-3.099 18.155-18.465c1.409-1.187 3.236-1.714 5.117-1.467 1.818.23 3.492 1.158 4.714 2.603a7.407 7.407 0 011.776 5.073c-.071 1.867-.857 3.538-2.225 4.727l-54.848 54.991-66.471 66.448c-1.18 1.372-2.849 2.172-4.715 2.252-.117.018-.218.018-.331.018zM263.082 110.14L158.07 5.256l-.062-.08c-.375-.451-.939-.717-1.597-.749a3.014 3.014 0 00-2.047.724c-.6.5-.987 1.169-1.082 1.886-.087.613.056 1.189.399 1.633l26.521 26.552-3.134 3.13-26.741-26.787c-1.189-1.417-1.695-3.242-1.434-5.128.245-1.814 1.188-3.483 2.638-4.69C152.983.542 154.773-.085 156.62.01c1.866.086 3.538.885 4.717 2.253l104.87 104.747-3.125 3.131zm-154.03-8.853a6.847 6.847 0 01-5.021-2.181L93.899 89.17l3.096-3.162 10.272 10.064a2.405 2.405 0 003.399.175 2.41 2.41 0 00.212-3.36L91.039 73.532c-3.382-3.218-5.388-7.516-5.631-12.089-.242-4.625 1.332-8.97 4.442-12.235 6.39-6.718 17.325-6.718 24.372-.013l29.5 30.546-3.175 3.075-29.444-30.487c-5.217-4.956-13.343-5.017-18.051-.08-2.26 2.387-3.405 5.56-3.225 8.956.18 3.44 1.699 6.68 4.282 9.132l20.01 19.536c2.53 2.798 2.308 7.128-.484 9.652a6.791 6.791 0 01-4.583 1.762z"/><path d="M128.875 94.13c-.114 0-.237 0-.349-.01a6.815 6.815 0 01-4.684-2.184L96.486 64.914c-2.391-2.91-1.968-7.22.947-9.615 2.84-2.338 7.026-1.992 9.445.735l27.05 26.677a6.757 6.757 0 011.761 4.925 6.794 6.794 0 01-2.241 4.727 6.793 6.793 0 01-4.573 1.768zm-29.023-32.1l27.229 26.879a2.368 2.368 0 001.667.792 2.413 2.413 0 001.737-.618c.48-.433.758-1.028.787-1.67a2.403 2.403 0 00-.588-1.696l-27.425-27.035a2.411 2.411 0 00-3.014.031 2.414 2.414 0 00-.393 3.316zm2.045 85.982c-.118 0-.235 0-.35-.006a6.824 6.824 0 01-4.683-2.192l-29.7-29.38 3.114-3.154 29.825 29.516a2.398 2.398 0 001.668.787 2.38 2.38 0 001.736-.619 2.416 2.416 0 00.2-3.366l-24.476-24.126 3.104-3.156 24.62 24.288c2.527 2.784 2.309 7.115-.475 9.637a6.806 6.806 0 01-4.583 1.771zm-13.073 13.552a6.78 6.78 0 01-4.54-1.733l-.095-.086-25.753-25.774 3.132-3.129 25.699 25.725a2.406 2.406 0 003.359-.236 2.387 2.387 0 00.607-1.739 2.384 2.384 0 00-.804-1.659l-.106-.092-28.365-28.738 3.149-3.104 28.326 28.68a6.78 6.78 0 012.22 4.658 6.815 6.815 0 01-1.719 4.936 6.807 6.807 0 01-4.706 2.276c-.141.015-.274.015-.404.015zm66.453-67.434c-1.7 0-3.312-.626-4.58-1.77a6.82 6.82 0 01-2.242-4.727 6.809 6.809 0 011.757-4.925l.096-.094 26.971-26.594a6.785 6.785 0 014.43-2.247 6.769 6.769 0 015.005 1.523 6.776 6.776 0 012.465 4.61 6.818 6.818 0 01-1.523 5.01l-.158.159-27.2 26.85a6.747 6.747 0 01-4.676 2.19c-.115.014-.232.014-.345.014zm-1.815-8.415a2.427 2.427 0 00-.591 1.696c.036.643.316 1.236.793 1.67a2.416 2.416 0 001.739.618 2.38 2.38 0 001.666-.792l.086-.085L184.3 62.028a2.418 2.418 0 00-.39-3.317 2.4 2.4 0 00-1.767-.539c-.466.05-.905.224-1.261.508l-27.42 27.035z"/><path d="M175.09 101.286a6.81 6.81 0 01-4.583-1.763c-2.795-2.53-3-6.853-.481-9.652l.103-.098 19.889-19.413c2.603-2.474 4.116-5.717 4.3-9.157.183-3.395-.963-6.569-3.232-8.956-2.245-2.363-5.349-3.669-8.733-3.669h-.038c-3.428.012-6.73 1.355-9.3 3.78l-28.787 30.543-3.221-3.032L169.92 49.19c3.401-3.234 7.798-5.023 12.377-5.035h.056c4.605 0 8.84 1.788 11.942 5.048 3.106 3.266 4.691 7.61 4.44 12.235-.243 4.573-2.245 8.873-5.645 12.107l-19.82 19.339a2.406 2.406 0 00.207 3.359 2.4 2.4 0 003.397-.174l.146-.142 10.932-10.046 2.992 3.259-10.864 9.985a6.783 6.783 0 01-4.99 2.161zm-31.371-34.823l-13.555-14.211-3.203 3.055 13.555 14.21 3.203-3.054z"/><path d="M157.697 55.46l-3.154-3.1-13.762 14.002 3.153 3.1 13.763-14.002zm-35.174 56.969H71.1v4.428h51.423v-4.428z"/><path d="M124.124 139.904l-26.86-26.829-3.128 3.133 26.859 26.829 3.129-3.133zm.002-12.823l-13.422-14.012-3.199 3.064 13.422 14.012 3.199-3.064zm51.819-25.793a6.798 6.798 0 01-4.58-1.763 6.793 6.793 0 01-2.243-4.728 6.767 6.767 0 011.763-4.924l.092-.099 19.893-19.412c5.306-5.048 5.776-13.164 1.075-18.114-4.709-4.942-12.835-4.875-18.115.155l-29.375 30.413-3.185-3.075 29.437-30.489c7.117-6.767 18.053-6.767 24.44-.049 6.389 6.706 5.847 17.632-1.207 24.344l-19.817 19.338a2.4 2.4 0 00-.584 1.69 2.41 2.41 0 004.196 1.496l.086-.091 10.183-9.973 3.098 3.162-10.142 9.935a6.813 6.813 0 01-5.015 2.184z"/><path d="M156.122 94.13a6.817 6.817 0 01-4.579-1.77c-2.786-2.526-3.001-6.862-.477-9.652l.085-.094 26.981-26.594a6.786 6.786 0 014.422-2.247 6.781 6.781 0 015.013 1.523 6.789 6.789 0 012.463 4.61 6.83 6.83 0 01-1.522 5.01l-.16.159-27.191 26.856a6.818 6.818 0 01-4.685 2.183c-.112.015-.228.015-.35.015zm-1.806-8.415c-.855.99-.767 2.48.203 3.365.477.432 1.11.644 1.733.618a2.377 2.377 0 001.667-.793l.086-.085 27.143-26.794a2.38 2.38 0 00.476-1.689 2.374 2.374 0 00-.865-1.627 2.438 2.438 0 00-1.765-.54c-.466.05-.896.224-1.253.508l-27.425 27.037zm3.664-30.401l-3.207-3.056-13.548 14.216 3.207 3.056 13.548-14.216z"/></g></svg>