<svg width="330" height="195" fill="none" xmlns="http://www.w3.org/2000/svg"><rect opacity=".4" x=".5" y=".5" width="329" height="194" rx=".5" fill="#000" stroke="#AFAFAF"/><mask id="a" maskUnits="userSpaceOnUse" x="1" y="1" width="329" height="193"><path fill="#F7F7F7" stroke="#DDD" d="M1.5 1.5h328v192H1.5z"/></mask><g mask="url(#a)" fill="#AFAFAF"><path d="M30.3 183.332a1.977 1.977 0 003.954 0 1.97 1.97 0 00-1.974-1.959c-1.093 0-1.98.81-1.98 1.959zM8.611 173.109c0 1.079.883 1.963 1.979 1.963a1.97 1.97 0 001.97-1.963 1.971 1.971 0 00-1.97-1.971c-1.096-.001-1.979.818-1.979 1.971zm-5.027 5.084c0 1.08.888 1.967 1.977 1.967 1.095 0 1.98-.888 1.98-1.967 0-1.09-.885-1.97-1.98-1.97-1.09 0-1.977.812-1.977 1.97zm10.584.607c0 1.085.89 1.968 1.977 1.968a1.974 1.974 0 001.979-1.968c0-1.09-.886-1.961-1.979-1.961-1.09 0-1.977.803-1.977 1.961zm-5.1 5.043c0 1.085.89 1.963 1.979 1.963a1.97 1.97 0 001.977-1.963 1.973 1.973 0 00-1.977-1.966c-1.09-.001-1.979.808-1.979 1.966zm37.485-5.147c0 1.08.885 1.957 1.98 1.957a1.966 1.966 0 001.974-1.957 1.972 1.972 0 00-1.974-1.973c-1.095 0-1.98.814-1.98 1.973zm5.242 5.279c0 1.09.886 1.97 1.978 1.97a1.97 1.97 0 001.976-1.97c0-1.08-.881-1.968-1.976-1.968-1.092 0-1.978.814-1.978 1.968z"/><path d="M12.178 174.297l-2.526-2.479-5.226 5.27 2.526 2.479 5.226-5.27zm-.3 10.905l-2.495-2.504 5.507-5.45 2.5 2.503-5.512 5.451z"/><path d="M30.632 195.472l-15.435-15.425 2.508-2.496 15.444 15.432-2.517 2.489zm102.345-102.53a1.777 1.777 0 003.556 0c0-.976-.793-1.77-1.776-1.77-.987 0-1.78.73-1.78 1.77zm-10.778-.165c0 .98.796 1.774 1.777 1.774.983 0 1.781-.793 1.781-1.774 0-.978-.797-1.774-1.781-1.774-.981 0-1.777.739-1.777 1.774zm0 21.593c0 .97.796 1.774 1.777 1.774.983 0 1.781-.804 1.781-1.774 0-.982-.797-1.775-1.781-1.775-.981-.001-1.777.729-1.777 1.775zm-87.695 68.962a1.978 1.978 0 01-3.957 0c0-1.08.889-1.959 1.977-1.959 1.093 0 1.98.81 1.98 1.959zm21.697-10.223a1.974 1.974 0 01-1.978 1.963 1.974 1.974 0 01-1.979-1.963c0-1.089.885-1.971 1.979-1.971 1.093 0 1.978.818 1.978 1.971zm5.017 5.084a1.977 1.977 0 01-3.953 0c0-1.09.886-1.97 1.98-1.97 1.095 0 1.974.812 1.974 1.97zm-10.573.607a1.975 1.975 0 01-1.981 1.968 1.97 1.97 0 01-1.974-1.968c0-1.09.88-1.961 1.974-1.961 1.094 0 1.981.803 1.981 1.961zm5.091 5.043a1.972 1.972 0 01-1.98 1.963 1.966 1.966 0 01-1.975-1.963c0-1.085.88-1.966 1.975-1.966 1.092-.001 1.98.808 1.98 1.966z"/><path d="M60.361 177.084l-5.232-5.268-2.519 2.475 5.232 5.268 2.52-2.475zm-4.974 5.607l-5.51-5.451-2.503 2.503 5.51 5.452 2.503-2.504z"/><path d="M34.17 195.472l-2.512-2.489 15.438-15.432 2.513 2.496-15.439 15.425zM33.972 34.44a1.805 1.805 0 01-1.813 1.804 1.807 1.807 0 01-1.817-1.804 1.81 1.81 0 011.818-1.805c1 0 1.812.809 1.812 1.805zm53.511 20.673c0 .957-.783 1.725-1.74 1.725a1.73 1.73 0 01-1.74-1.725c0-.955.782-1.73 1.74-1.73.957 0 1.74.715 1.74 1.73zM34.14 45.068a1.855 1.855 0 01-1.863 1.852 1.857 1.857 0 01-1.859-1.852c0-1.026.835-1.856 1.859-1.856 1.03 0 1.862.83 1.862 1.855zM17.77 7.345A1.77 1.77 0 0116 9.108a1.77 1.77 0 01-1.774-1.763 1.773 1.773 0 013.546 0zm32.576 0c0 .97-.797 1.763-1.775 1.763-.98 0-1.776-.792-1.776-1.763a1.775 1.775 0 013.551 0zM30.342 1.906c0 .971.795 1.765 1.77 1.765a1.77 1.77 0 001.778-1.765c0-.976-.791-1.76-1.778-1.76a1.762 1.762 0 00-1.77 1.76z"/><path d="M33.557-7.441L31.06-9.95 14.774 6.09l2.497 2.51L33.557-7.441z"/><path d="M49.799 6.096L33.512-9.941l-2.494 2.506L47.305 8.602l2.494-2.506zM59 9.53c0 .976.79 1.77 1.77 1.77s1.776-.794 1.776-1.77a1.773 1.773 0 00-3.546 0zM46.422 17.6c.134 1.113.831 1.852 1.86 1.852 1.025 0 1.706-.827 1.855-1.853.157-1.015-.83-1.848-1.855-1.848-1.029 0-1.977.832-1.86 1.848z"/><path d="M49.712 18.708l-2.696-2.302c6.63-7.68 13.359-8.606 13.645-8.641l.447 3.494-.224-1.745.23 1.745c-.053.01-5.725.868-11.402 7.45z"/><path d="M49.598 16.558L33.338.665 30.85 3.182l16.26 15.894 2.487-2.518zM5.226 9.53c0 .976-.785 1.77-1.772 1.77A1.771 1.771 0 011.68 9.53a1.77 1.77 0 011.774-1.765A1.765 1.765 0 015.226 9.53zm12.579 8.07c-.132 1.113-.832 1.852-1.862 1.852-1.028 0-1.704-.827-1.857-1.853-.153-1.015.829-1.848 1.857-1.848 1.03 0 1.98.832 1.862 1.848z"/><path d="M14.518 18.708c-5.68-6.581-11.347-7.44-11.41-7.449l.46-3.494c.284.035 7.014.962 13.643 8.641l-2.693 2.302z"/><path d="M33.363 3.174L30.877.661l-16.243 15.9 2.486 2.512L33.363 3.174zm54.822 66.935L42.827 25.94l-.098-.138c-2.41-3.476-5.562-7.034-10.646-7.123-4.306-.069-6.446 2.36-10.308 6.774l-.314.359-44.374 44.282-2.515-2.49 44.332-44.242.199-.222c4.044-4.624 6.985-7.986 12.784-7.986h.253c6.657.113 10.662 4.575 13.407 8.504L90.67 67.59l-2.485 2.519z"/><path d="M.932 144.134l-9.645-9.406-1.51-1.385c-10.827-9.913-25.661-23.489-26.018-37.37-.386-15.075 4.635-22.668 14.66-32.182l2.448 2.554c-9.472 8.992-13.922 15.706-13.565 29.538.315 12.392 14.515 25.384 24.876 34.867l1.553 1.424 9.682 9.437-2.481 2.523zm61.791 1.253l-2.438-2.563L73.1 130.75c10.364-9.483 24.558-22.473 24.878-34.867.357-13.832-4.094-20.546-13.57-29.538l2.449-2.554c10.032 9.514 15.053 17.107 14.661 32.181-.354 13.882-15.188 27.459-26.017 37.371l-1.55 1.425-11.227 10.619z"/><path d="M33.53 184.862l-2.49-2.503 50.541-49.667c11.523-10.584 24.741-24.308 25.069-36.928.352-13.784-2.634-21.154-12.279-30.298l-9.754-8.952 2.406-2.593 9.777 8.971c10.398 9.86 13.775 18.181 13.395 32.966-.357 13.857-13.428 27.685-26.162 39.379L33.53 184.862zM30.576 65.973a1.77 1.77 0 001.773 1.769 1.77 1.77 0 001.777-1.77 1.77 1.77 0 00-1.777-1.764c-.977 0-1.773.73-1.773 1.765zM14.563 71.57c0 .977.824 1.765 1.838 1.765 1.007 0 1.826-.788 1.826-1.764 0-.977-.82-1.764-1.826-1.764-1.014 0-1.838.728-1.838 1.763zm16.013 37.385a1.77 1.77 0 001.776 1.765 1.765 1.765 0 100-3.53c-.982 0-1.776.73-1.776 1.765zm-.064 10.768a1.77 1.77 0 001.775 1.765 1.763 1.763 0 100-3.525c-.977 0-1.775.725-1.775 1.76z"/><path d="M31.044 184.862l-50.582-49.656c-12.692-11.663-25.764-25.492-26.115-39.348-.383-14.783 2.99-23.105 13.367-32.946l9.803-8.991 2.402 2.593-9.782 8.971c-9.625 9.125-12.605 16.49-12.25 30.279.324 12.619 13.54 26.344 25.024 36.884l50.622 49.705-2.49 2.509zm3.08-118.886h-3.542v42.981h3.542V65.976zm-15.907 5.481h-3.543v42.981h3.543V71.457zm31.557.113c0 .977-.82 1.765-1.828 1.765-1.016 0-1.833-.788-1.833-1.764 0-.977.817-1.764 1.833-1.764 1.009 0 1.828.728 1.828 1.763z"/><path d="M49.662 71.457H46.12v42.981h3.543V71.457zm-16.76 46.609l-16.058-5.713-1.195 3.322 16.058 5.714 1.195-3.323z"/><path d="M48.837 115.706l-1.194-3.323-16.061 5.711 1.194 3.322 16.06-5.71zm-17.643 15.623l-19.261-19.188c-.3-.285-.63-.617-.97-.956-1.666-1.687-3.559-3.584-5.388-3.584-1.996 0-3.815 1.908-3.815 4.008h-3.543c0-4.013 3.44-7.538 7.359-7.538 3.31 0 5.868 2.568 7.916 4.635.316.325.629.635.929.921l19.289 19.207-2.516 2.495z"/><path d="M33.157 131.329l-2.51-2.495 19.273-19.186c.32-.306.627-.617.948-.937 2.05-2.072 4.599-4.64 7.91-4.64 3.92 0 7.367 3.524 7.367 7.538h-3.546c0-2.1-1.819-4.008-3.82-4.008-1.83 0-3.718 1.904-5.387 3.584-.345.339-.67.671-.984.976l-19.25 19.168zm-17.309 20.91c-9.56 0-17.631-7.763-17.631-16.968h3.54c0 7.281 6.456 13.447 14.09 13.447 7.767 0 14.084-5.866 14.084-13.081h3.549c.002 9.153-7.91 16.602-17.632 16.602z"/><path d="M48.652 152.235c-9.642 0-17.48-7.448-17.48-16.602h3.54c0 7.217 6.252 13.082 13.942 13.082 7.687 0 13.938-5.924 13.938-13.191h3.546c0 9.218-7.844 16.711-17.486 16.711z"/><path d="M34.842 129.148h-5.32v10.322h5.32v-10.322zM1.76 111.495h-3.543v24.14H1.76v-24.14zm64.382 0h-3.546v24.14h3.546v-24.14zM32.23 150.621c-2.956 0-5.502-1.526-6.847-2.827l2.467-2.523-1.234 1.256 1.226-1.267c.435.405 4.343 3.871 8.48-.019l2.434 2.568c-2.198 2.071-4.464 2.812-6.526 2.812z"/><path d="M32.124 164.37c-4.292 0-7.342-.551-7.533-.587-12.855-2.716-13.73-13.077-13.738-13.181l3.536-.242-1.765.118 1.765-.137c.028.325.77 7.847 10.893 9.987.021 0 6.493 1.158 13.638-.016 10.833-1.793 11.565-9.626 11.592-9.952l3.536.232c0 .108-.858 10.939-14.545 13.195-2.637.442-5.177.583-7.38.583zM82.36 31.837a1.78 1.78 0 001.779 1.774 1.78 1.78 0 001.783-1.774 1.78 1.78 0 00-1.783-1.774c-.981 0-1.78.733-1.78 1.774zm-8.477 12.815c0 .987.8 1.774 1.785 1.774.983 0 1.78-.788 1.78-1.774 0-.976-.795-1.769-1.78-1.769-.986 0-1.785.725-1.785 1.77z"/><path d="M76.82 45.996l-2.312-2.676c7.649-6.537 7.857-11.432 7.857-11.476l3.548-.005c0 .254-.092 6.466-9.093 14.157zM21.265 205.709c-.083 0-.176 0-.26-.014-1.494-.063-2.835-.7-3.778-1.795l-53.247-52.945-43.944-43.824c-1.092-.946-1.728-2.277-1.78-3.767a5.869 5.869 0 011.427-4.042c.974-1.153 2.314-1.892 3.766-2.074 1.52-.202 2.98.221 4.104 1.168l.12.113 14.422 14.602-2.523 2.469-14.354-14.533a1.769 1.769 0 00-1.31-.326 2.385 2.385 0 00-1.517.853c-.408.477-.62 1.055-.592 1.632.019.513.228.966.588 1.271l.112.104 43.99 43.859 53.405 53.122c.299.359.75.567 1.27.592a2.442 2.442 0 001.64-.575c.934-.766 1.167-2.013.554-2.807L9.387 184.925l2.498-2.494 14.156 14.049c1.913 2.293 1.48 5.799-.965 7.823a5.926 5.926 0 01-3.81 1.406zM-64.19 67.981l-2.507-2.493 84.01-83.469c.941-1.09 2.28-1.725 3.774-1.795 1.461-.074 2.915.425 4.08 1.385 1.163.962 1.915 2.293 2.111 3.737.21 1.503-.2 2.957-1.147 4.087l-.104.123L4.71 10.778 2.205 8.283l21.243-21.157c.274-.356.388-.814.321-1.302-.08-.57-.391-1.104-.87-1.502a2.402 2.402 0 00-1.643-.577c-.519.025-.972.237-1.278.596l-.11.123-84.057 83.517zM9.344 174.078l-59.213-58.6 2.497-2.499 59.211 58.59-2.495 2.509z"/><path d="M6.702 177.064l-59.386-58.722-2.497 2.498 59.386 58.723 2.497-2.499zM30.842 34.44c0 1 .806 1.804 1.81 1.804a1.81 1.81 0 001.82-1.804c0-.996-.815-1.805-1.82-1.805a1.805 1.805 0 00-1.81 1.805zm53.381 20.704a1.78 1.78 0 001.784 1.774c.983 0 1.781-.794 1.781-1.774 0-.976-.797-1.77-1.78-1.77-.984 0-1.785.73-1.785 1.77zM82.2 31.837a1.781 1.781 0 003.563 0 1.78 1.78 0 00-1.784-1.774c-.984 0-1.78.733-1.78 1.774zm-8.477 12.815a1.77 1.77 0 001.777 1.774c.986 0 1.784-.788 1.784-1.774 0-.976-.798-1.769-1.784-1.769-.983 0-1.777.725-1.777 1.77zm5.627 5.336c0 .981.798 1.774 1.782 1.774.981 0 1.78-.793 1.78-1.774s-.798-1.774-1.78-1.774c-.984 0-1.782.729-1.782 1.774zm5.316-5.336c0 .987.8 1.774 1.78 1.774.982 0 1.783-.788 1.783-1.774 0-.976-.8-1.769-1.783-1.769-.98 0-1.78.725-1.78 1.77zm32.154 64.314c0 .975.8 1.77 1.784 1.77a1.78 1.78 0 001.783-1.77c0-.981-.799-1.774-1.783-1.774-.983-.001-1.784.729-1.784 1.774zm-5.312 5.404a1.782 1.782 0 003.563 0c0-.982-.796-1.775-1.784-1.775-.982-.001-1.779.729-1.779 1.775zm5.312 5.364c0 .976.8 1.77 1.784 1.77a1.78 1.78 0 001.783-1.77c0-.976-.799-1.774-1.783-1.774-.983-.002-1.784.737-1.784 1.774zM30.66 45.068c0 1.024.834 1.852 1.864 1.852a1.856 1.856 0 001.861-1.852 1.858 1.858 0 00-1.861-1.856c-1.03 0-1.864.83-1.864 1.855zM47.037 7.345c0 .97.793 1.763 1.77 1.763.98 0 1.779-.792 1.779-1.763 0-.976-.797-1.77-1.779-1.77a1.77 1.77 0 00-1.77 1.77zM34.473 1.906c0 .971-.794 1.765-1.776 1.765a1.776 1.776 0 01-1.779-1.765c0-.976.8-1.76 1.78-1.76a1.764 1.764 0 011.775 1.76z"/><path d="M50.064 6.09L33.777-9.949l-2.497 2.51L47.567 8.6l2.497-2.51z"/><path d="M17.484 8.597l-2.488-2.509L31.278-9.949l2.496 2.509-16.29 16.037zM5.812 9.53a1.774 1.774 0 01-3.548 0c0-.971.795-1.765 1.774-1.765A1.772 1.772 0 015.812 9.53zm12.576 8.07c-.133 1.113-.83 1.852-1.86 1.852-1.019 0-1.704-.827-1.858-1.853-.153-1.015.839-1.848 1.857-1.848 1.03 0 1.981.832 1.861 1.848z"/><path d="M15.095 18.708c-5.677-6.581-11.35-7.44-11.406-7.449l.456-3.494c.287.035 7.016.962 13.642 8.641l-2.692 2.302z"/><path d="M33.957 3.171L31.469.658 15.227 16.564l2.488 2.513L33.957 3.171zM59.576 9.53a1.774 1.774 0 003.547 0 1.77 1.77 0 00-1.773-1.765 1.772 1.772 0 00-1.774 1.765zM47.005 17.6c.13 1.113.833 1.852 1.858 1.852 1.025 0 1.705-.827 1.86-1.853.15-1.015-.835-1.848-1.86-1.848-1.025 0-1.98.832-1.858 1.848z"/><path d="M50.296 18.708l-2.689-2.302c6.629-7.68 13.355-8.606 13.64-8.641l.444 3.494-.221-1.745.234 1.745c-.057.01-5.728.868-11.408 7.45z"/><path d="M50.192 16.558L33.942.665l-2.486 2.514 16.251 15.893 2.485-2.514zm-73.573 53.551l-2.48-2.519 45.116-43.932c2.752-3.93 6.756-8.391 13.405-8.504h.26c5.797 0 8.733 3.353 12.777 7.976l.2.232 44.329 44.243-2.51 2.484-44.445-44.366-.245-.276c-3.863-4.409-5.963-6.833-10.301-6.77-5.087.09-8.242 3.648-10.648 7.124l-.22.256-45.238 44.052z"/><path d="M63.883 144.134l-2.486-2.523 9.648-9.406 1.586-1.455c10.362-9.483 24.555-22.473 24.876-34.867.357-13.837-4.09-20.551-13.564-29.538l2.443-2.554c10.032 9.514 15.053 17.102 14.665 32.181-.357 13.882-15.189 27.459-26.018 37.371l-1.553 1.424-9.597 9.367zm-32.605 40.728l-50.543-49.656c-12.696-11.663-25.765-25.492-26.12-39.348-.381-14.783 2.992-23.105 13.374-32.946l9.798-8.991 2.405 2.593-9.783 8.971c-9.625 9.125-12.606 16.49-12.251 30.288.326 12.61 13.54 26.335 25.024 36.875l50.586 49.709-2.49 2.505zm2.95-118.889a1.77 1.77 0 01-1.775 1.769 1.77 1.77 0 01-1.777-1.77 1.77 1.77 0 011.777-1.764c.981 0 1.775.73 1.775 1.765zm16.005 5.597c0 .977-.814 1.765-1.825 1.765-1.013 0-1.834-.788-1.834-1.764 0-.977.82-1.764 1.834-1.764 1.011 0 1.825.728 1.825 1.763zm-16.004 37.385a1.77 1.77 0 01-1.777 1.765c-.97 0-1.77-.79-1.77-1.765 0-.975.8-1.765 1.77-1.765.983 0 1.777.73 1.777 1.765zm.066 10.768a1.773 1.773 0 01-3.543 0c0-.975.797-1.76 1.777-1.76.973 0 1.766.725 1.766 1.76z"/><path d="M33.774 184.862l-2.49-2.509 50.577-49.661c11.523-10.584 24.741-24.308 25.064-36.928.355-13.79-2.626-21.154-12.275-30.298l-9.753-8.952 2.401-2.593 9.777 8.971c10.4 9.86 13.778 18.181 13.4 32.966-.357 13.857-13.425 27.685-26.168 39.379l-50.533 49.625zm.458-118.886h-3.544v42.981h3.544V65.976zm15.898 5.481h-3.548v42.981h3.547V71.457z"/><path d="M49.186 115.647l-1.198-3.323-16.054 5.726 1.198 3.323 16.054-5.726z"/><path d="M33.24 118.072l-16.058-5.714-1.195 3.323 16.059 5.714 1.195-3.323zm.358 13.257l-2.504-2.495 19.266-19.186c.326-.306.633-.617.95-.937 2.051-2.072 4.602-4.64 7.918-4.64 3.921 0 7.364 3.524 7.364 7.538h-3.544c0-2.1-1.825-4.008-3.819-4.008-1.83 0-3.728 1.904-5.391 3.584-.339.339-.67.671-.984.976l-19.256 19.168z"/><path d="M31.653 131.329l-19.269-19.188c-.3-.285-.627-.617-.966-.956-1.67-1.687-3.56-3.584-5.388-3.584-1.996 0-3.82 1.908-3.82 4.008h-3.542c0-4.013 3.442-7.538 7.363-7.538 3.313 0 5.864 2.568 7.913 4.635.318.325.63.635.928.921l19.292 19.207-2.51 2.495zm17.305 20.91c-9.72 0-17.632-7.449-17.632-16.602h3.542c0 7.217 6.325 13.081 14.089 13.081 7.637 0 14.093-6.166 14.093-13.447h3.544c.002 9.205-8.074 16.968-17.636 16.968z"/><path d="M16.148 152.235c-9.635 0-17.48-7.493-17.48-16.711H2.21c0 7.267 6.25 13.191 13.938 13.191 7.688 0 13.94-5.866 13.94-13.082h3.541c.001 9.154-7.843 16.602-17.48 16.602z"/><path d="M35.288 129.148h-5.32v10.322h5.32v-10.322zm31.307-17.653h-3.544v24.14h3.544v-24.14zm-34.018 39.126c-2.068 0-4.327-.741-6.532-2.811l2.437-2.568c4.258 4.003 8.302.188 8.47.029l2.472 2.524c-1.345 1.301-3.891 2.826-6.847 2.826z"/><path d="M32.68 164.369c-2.202 0-4.735-.143-7.374-.582-13.689-2.257-14.542-13.088-14.546-13.195l3.54-.227c.027.321.755 8.154 11.588 9.947 7.176 1.18 13.617.016 13.684 0 10.075-2.125 10.824-9.647 10.847-9.971l3.54.261c-.01.104-.886 10.465-13.693 13.177-.22.029-3.285.59-7.587.59zM76.664 45.996l-2.31-2.676c7.651-6.537 7.858-11.432 7.858-11.476l3.546-.005c0 .254-.09 6.466-9.094 14.157z"/><path d="M79.906 51.259l-5.263-4.974 2.444-2.552 5.261 4.978-2.442 2.548z"/><path d="M87.695 45.92l-2.488-2.51-5.114 5.017 2.488 2.51 5.114-5.018z"/><path d="M133.502 94.197l-48.408-48.38 2.514-2.49 48.402 48.376-2.508 2.494z"/><path d="M135.92 94.183l-2.51-2.49-16.069 16.026 2.509 2.49 16.07-16.026z"/><path d="M125.025 112.995l-5.164-5.289-2.543 2.457 5.164 5.289 2.543-2.457zm-5.23 5.458l-5.447-5.43-2.51 2.492 5.446 5.43 2.511-2.492z"/><path d="M43.543 205.709a5.951 5.951 0 01-3.815-1.405c-1.159-.961-1.91-2.291-2.11-3.731-.21-1.503.199-2.959 1.153-4.094l.104-.112 14.048-13.936 2.501 2.493-13.974 13.868c-.273.35-.382.814-.318 1.296.08.582.386 1.114.868 1.511a2.5 2.5 0 001.647.575c.516-.025.967-.232 1.267-.592l.113-.118 53.298-53.004 44.096-43.963a1.71 1.71 0 00.59-1.271c.025-.576-.188-1.154-.59-1.633a2.398 2.398 0 00-1.52-.853c-.49-.062-.951.056-1.305.327L125.242 115.6l-2.53-2.47 14.543-14.714c1.129-.946 2.592-1.365 4.099-1.169 1.457.184 2.798.923 3.776 2.075a5.879 5.879 0 011.423 4.042c-.057 1.488-.686 2.819-1.782 3.767l-43.938 43.82-53.248 52.948c-.946 1.095-2.282 1.731-3.777 1.795-.094.015-.174.015-.265.015zm96.465-117.818c-.088 0-.176 0-.259-.01-1.499-.064-2.835-.705-3.783-1.794L82.725 33.136l2.505-2.493 53.4 53.121c.309.365.757.573 1.277.602a2.45 2.45 0 001.649-.582c.475-.401.785-.937.863-1.504.068-.488-.046-.951-.318-1.307l-14.505-14.385 2.507-2.493 14.677 14.571c.951 1.133 1.36 2.583 1.153 4.092-.2 1.444-.95 2.77-2.113 3.737a5.951 5.951 0 01-3.812 1.396z"/><path d="M129.001 67.981L44.878-15.596l-.05-.064c-.3-.36-.752-.572-1.28-.596a2.424 2.424 0 00-1.64.576c-.48.398-.79.932-.866 1.503-.07.489.045.947.32 1.301L62.607 8.282l-2.51 2.495L38.675-10.57c-.952-1.13-1.358-2.583-1.148-4.086.196-1.446.95-2.775 2.112-3.737 1.163-.96 2.598-1.46 4.077-1.385 1.495.068 2.835.705 3.779 1.795l84.008 83.468-2.502 2.495zm-3.768 23.547l-22.018-21.902-2.508 2.495 22.018 21.902 2.508-2.495z"/><path d="M125.196 94.017l-2.512-2.495-25.948 25.855 2.512 2.495 25.948-25.855zm-69.719 80.061l-2.504-2.509 59.21-58.59 2.5 2.499-59.206 58.6zm64.503-53.248l-2.5-2.499-59.36 58.748 2.5 2.498 59.36-58.747zM5.61 60.925a5.5 5.5 0 01-4.024-1.738L-6.53 51.27l2.48-2.52 8.229 8.02a1.933 1.933 0 002.722.14 1.913 1.913 0 00.17-2.678L-8.82 38.808c-2.71-2.564-4.316-5.99-4.511-9.633-.194-3.686 1.067-7.147 3.559-9.75 5.119-5.353 13.878-5.353 19.523-.01l23.632 24.34-2.543 2.45L7.252 21.913c-4.18-3.949-10.69-3.997-14.46-.064-1.81 1.903-2.728 4.431-2.584 7.137.144 2.741 1.361 5.324 3.43 7.277L9.668 51.83a5.43 5.43 0 01-.388 7.692 5.456 5.456 0 01-3.67 1.404z"/><path d="M21.49 55.222c-.09 0-.19 0-.28-.01a5.474 5.474 0 01-3.752-1.74L-4.456 31.94a5.427 5.427 0 01.759-7.661c2.274-1.863 5.628-1.588 7.566.586l21.669 21.257a5.366 5.366 0 011.41 3.924 5.4 5.4 0 01-1.795 3.767 5.457 5.457 0 01-3.663 1.409zm-23.25-25.58L20.053 51.06a1.939 1.939 0 002.726.139c.385-.344.608-.819.631-1.33a1.91 1.91 0 00-.471-1.352L.969 26.974A1.94 1.94 0 00-1.445 27a1.917 1.917 0 00-.315 2.643zM-.122 98.16c-.095 0-.188 0-.28-.004a5.476 5.476 0 01-3.752-1.747l-23.791-23.412 2.493-2.513 23.893 23.52c.345.38.823.602 1.335.627a1.917 1.917 0 001.552-3.175L-18.28 72.231l2.487-2.514L3.93 89.07c2.024 2.219 1.849 5.67-.381 7.68a5.467 5.467 0 01-3.671 1.41zm64.864 0a5.428 5.428 0 01-3.666-1.41c-2.234-2.012-2.41-5.462-.385-7.68l.066-.08L80.41 69.715l2.492 2.514-19.61 19.225a1.922 1.922 0 00.165 2.688c.38.34.873.517 1.386.488a1.923 1.923 0 001.34-.626l.064-.075 23.826-23.445 2.493 2.513-23.797 23.411a5.448 5.448 0 01-3.744 1.747c-.094.005-.188.005-.282.005zm10.75 10.795c-.101 0-.216 0-.321-.01a5.45 5.45 0 01-3.77-1.813 5.387 5.387 0 01-1.378-3.934 5.38 5.38 0 011.778-3.712l22.69-22.853 2.52 2.474-22.807 22.972c-.38.341-.607.814-.638 1.322a1.88 1.88 0 00.486 1.387 1.93 1.93 0 002.683.187L97.33 84.476l2.508 2.493-20.708 20.607a5.45 5.45 0 01-3.637 1.379zM42.638 55.222a5.46 5.46 0 01-3.669-1.41 5.422 5.422 0 01-.388-7.691l.076-.075 21.606-21.192a5.445 5.445 0 013.549-1.79 5.441 5.441 0 014.01 1.214 5.389 5.389 0 011.974 3.672 5.413 5.413 0 01-1.22 3.993l-.126.127-21.79 21.395a5.42 5.42 0 01-3.746 1.745c-.092.012-.185.012-.276.012zm-1.454-6.705a1.927 1.927 0 00-.473 1.351c.029.512.253.985.635 1.331.379.345.88.514 1.393.493a1.91 1.91 0 001.334-.632l.069-.068 21.746-21.35a1.917 1.917 0 00-.313-2.643 1.93 1.93 0 00-1.416-.43c-.372.04-.724.178-1.01.405L41.184 48.517z"/><path d="M58.512 60.923a5.47 5.47 0 01-3.671-1.405 5.437 5.437 0 01-.386-7.69l.083-.08L70.47 36.28c2.085-1.972 3.297-4.556 3.444-7.297.146-2.706-.772-5.235-2.59-7.137-1.797-1.883-4.284-2.923-6.995-2.923h-.03c-2.747.009-5.392 1.08-7.45 3.012L33.79 46.273l-2.581-2.416L54.371 19.41c2.724-2.577 6.246-4.003 9.914-4.012h.045c3.69 0 7.081 1.424 9.567 4.023 2.488 2.602 3.758 6.064 3.556 9.75-.195 3.643-1.798 7.07-4.522 9.647l-15.877 15.41a1.91 1.91 0 00.166 2.676c.789.71 2.01.65 2.721-.138l.117-.113 8.757-8.006 2.397 2.597-8.702 7.957a5.446 5.446 0 01-3.998 1.722zM33.38 33.176L22.521 21.852l-2.565 2.434L30.814 35.61l2.566-2.434z"/><path d="M44.579 24.409l-2.526-2.47-11.025 11.157 2.526 2.47 11.025-11.158zM16.401 69.807h-41.194v3.528h41.194v-3.528zm72.737 0H47.945v3.528h41.193v-3.528z"/><path d="M17.684 91.698L-3.832 70.32l-2.507 2.496 21.516 21.379 2.507-2.497zm.004-10.217L6.935 70.316l-2.563 2.441 10.752 11.166 2.563-2.442zm41.507-20.556a5.462 5.462 0 01-3.668-1.405 5.399 5.399 0 01-1.797-3.767 5.371 5.371 0 011.412-3.924l.074-.078L71.15 36.28c4.25-4.022 4.628-10.49.862-14.433-3.773-3.939-10.282-3.885-14.512.123L33.97 46.206l-2.551-2.45L55 19.46c5.7-5.393 14.461-5.393 19.577-.04 5.119 5.344 4.684 14.05-.966 19.399L57.736 54.23a1.908 1.908 0 00.166 2.678c.79.71 2.008.65 2.727-.14l.069-.073 8.157-7.946 2.482 2.52-8.125 7.916a5.47 5.47 0 01-4.017 1.74z"/><path d="M43.32 55.222a5.477 5.477 0 01-3.668-1.41 5.44 5.44 0 01-.382-7.691l.069-.075 21.614-21.192a5.445 5.445 0 013.541-1.79 5.452 5.452 0 014.017 1.214 5.425 5.425 0 01.754 7.665l-.129.127-21.782 21.4a5.471 5.471 0 01-3.753 1.74c-.09.012-.183.012-.28.012zm-1.446-6.705a1.916 1.916 0 001.55 3.174 1.908 1.908 0 001.336-.632l.069-.068 21.744-21.35c.296-.39.43-.864.38-1.346a1.887 1.887 0 00-.692-1.297 1.96 1.96 0 00-1.413-.43c-.375.04-.718.178-1.004.405l-21.97 21.544zm23.064 49.645a5.44 5.44 0 01-3.669-1.412 5.419 5.419 0 01-.386-7.691l.07-.07 19.645-19.274 2.49 2.514-19.604 19.225c-.33.382-.49.859-.47 1.357.024.508.248.98.632 1.325.789.71 2.008.652 2.73-.137l.065-.07 23.824-23.445 2.492 2.513-23.793 23.411a5.473 5.473 0 01-4.026 1.754zm10.469 10.793c-.106 0-.214 0-.323-.01a5.45 5.45 0 01-3.769-1.813 5.36 5.36 0 01-1.377-3.934 5.36 5.36 0 011.78-3.712l22.684-22.853 2.522 2.474-22.803 22.972a1.903 1.903 0 00-.644 1.322 1.89 1.89 0 00.487 1.387 1.9 1.9 0 001.327.64 1.89 1.89 0 001.36-.453l20.59-20.499 2.506 2.493-20.706 20.607a5.46 5.46 0 01-3.634 1.379zM44.809 24.292l-2.569-2.435-10.853 11.328 2.569 2.435 10.853-11.328z"/><path d="M89.608 69.807H48.416v3.528h41.192v-3.528z"/><path d="M71.15 72.81l-2.506-2.494-21.51 21.38 2.505 2.494 21.51-21.38zM49.688 83.958l-2.557-2.44 10.755-11.17 2.554 2.444-10.752 11.166z"/><path d="M70.818 72.838l-2.511-2.494-21.493 21.407 2.51 2.494 21.494-21.407zm-21.471 11.12l-2.558-2.44 10.751-11.17 2.56 2.444-10.753 11.166z"/></g><path d="M79.84 153.498c0 .6.49 1.08 1.092 1.08.6 0 1.09-.481 1.09-1.08a1.09 1.09 0 00-1.09-1.085c-.603 0-1.092.447-1.092 1.085z" fill="#AFAFAF"/><path d="M82.162 153.498c0 .6-.489 1.08-1.092 1.08-.6 0-1.091-.48-1.091-1.08 0-.596.49-1.084 1.09-1.084.604 0 1.093.447 1.093 1.084z" fill="#AFAFAF"/><path d="M184.198 47.832c.019 0 .028.028.028.084 0 .056-.009.084-.028.084h-1.89a.57.57 0 01-.336-.098c-.093-.075-.257-.266-.49-.574a66.17 66.17 0 01-1.204-1.68l-.168-.238a20.55 20.55 0 00-.882-1.19c-.187-.233-.383-.397-.588-.49-.196-.093-.457-.14-.784-.14h-.126v3.276c0 .28.028.49.084.63a.47.47 0 00.322.266c.168.047.425.07.77.07.019 0 .028.028.028.084 0 .056-.009.084-.028.084-.308 0-.551-.005-.728-.014l-1.05-.014-.98.014c-.168.01-.406.014-.714.014-.019 0-.028-.028-.028-.084 0-.056.009-.084.028-.084.345 0 .597-.023.756-.07a.47.47 0 00.322-.266c.065-.14.098-.35.098-.63v-6.482c0-.28-.028-.485-.084-.616a.47.47 0 00-.322-.266c-.159-.056-.411-.084-.756-.084-.019 0-.028-.028-.028-.084 0-.056.009-.084.028-.084l.714.014c.392.019.714.028.966.028.28 0 .635-.01 1.064-.028l.714-.014c.019 0 .028.028.028.084 0 .056-.009.084-.028.084-.336 0-.588.028-.756.084a.554.554 0 00-.336.294c-.056.13-.084.336-.084.616v2.954c.504-.019.817-.028.938-.028h.182l1.624-2.254c.401-.55.602-.966.602-1.246s-.219-.42-.658-.42c-.019 0-.028-.028-.028-.084 0-.056.009-.084.028-.084l.616.014a19.693 19.693 0 002.058 0l.532-.014c.028 0 .042.028.042.084 0 .056-.014.084-.042.084-.457 0-.896.13-1.316.392-.42.261-.835.653-1.246 1.176l-1.876 2.38c.28.028.513.107.7.238.196.121.387.299.574.532.187.224.495.635.924 1.232.448.635.803 1.11 1.064 1.428.261.317.532.57.812.756.28.177.593.27.938.28zm.884.336c-.224 0-.401-.051-.532-.154-.13-.093-.196-.233-.196-.42 0-.345.21-.518.63-.518h.294c.523 0 .971-.331 1.344-.994.383-.663.668-1.489.854-2.478.196-.99.294-1.96.294-2.912 0-.448-.093-.77-.28-.966-.177-.205-.541-.308-1.092-.308-.028 0-.042-.028-.042-.084 0-.056.014-.084.042-.084h6.818c.019 0 .028.028.028.084 0 .056-.009.084-.028.084-.345 0-.602.028-.77.084a.52.52 0 00-.336.266c-.056.13-.084.336-.084.616v6.482c0 .28.028.49.084.63a.52.52 0 00.336.266c.168.047.425.07.77.07.019 0 .028.028.028.084 0 .056-.009.084-.028.084-.298 0-.536-.005-.714-.014l-.994-.014-1.036.014c-.168.01-.41.014-.728.014-.018 0-.028-.028-.028-.084 0-.056.01-.084.028-.084.355 0 .612-.023.77-.07a.47.47 0 00.322-.266c.056-.13.084-.34.084-.63v-6.384c0-.317-.018-.527-.056-.63-.028-.103-.102-.168-.224-.196-.112-.028-.345-.042-.7-.042h-.77c-.28 0-.49.023-.63.07a.505.505 0 00-.308.294c-.065.15-.098.387-.098.714 0 .961-.093 2.016-.28 3.164-.177 1.148-.494 2.156-.952 3.024-.457.859-1.064 1.288-1.82 1.288zm17.301-8.918c.028 0 .042.028.042.084 0 .056-.014.084-.042.084-.252 0-.499.103-.742.308-.243.196-.443.467-.602.812l-2.968 6.566c-.168.373-.359.644-.574.812-.205.168-.471.252-.798.252-.308 0-.565-.07-.77-.21a.648.648 0 01-.308-.56c0-.168.056-.313.168-.434a.576.576 0 01.462-.196c.177 0 .308.047.392.14a1.3 1.3 0 01.252.392c.047.112.093.2.14.266a.226.226 0 00.182.084c.093 0 .182-.047.266-.14.084-.093.173-.247.266-.462l.392-.868-3.066-5.768c-.205-.373-.392-.63-.56-.77-.159-.15-.373-.224-.644-.224-.019 0-.028-.028-.028-.084 0-.056.009-.084.028-.084l.504.014c.28.019.565.028.854.028.439 0 .863-.01 1.274-.028.14-.01.313-.014.518-.014.028 0 .042.028.042.084 0 .056-.014.084-.042.084-.607 0-.91.154-.91.462 0 .103.042.233.126.392l2.464 4.648 1.988-4.424c.075-.15.112-.303.112-.462 0-.41-.35-.616-1.05-.616-.028 0-.042-.028-.042-.084 0-.056.014-.084.042-.084l.588.014c.336.019.635.028.896.028.168 0 .373-.01.616-.028l.532-.014zm3.937 3.808c.989 0 1.783.187 2.38.56.597.373.896.966.896 1.778a2.563 2.563 0 01-1.414 2.324c-.448.224-.957.336-1.526.336-.252 0-.546-.014-.882-.042a20.55 20.55 0 00-.504-.028c-.196-.01-.411-.014-.644-.014l-.98.014c-.177.01-.415.014-.714.014-.028 0-.042-.028-.042-.084 0-.056.014-.084.042-.084.336 0 .583-.023.742-.07a.47.47 0 00.322-.266c.056-.14.084-.35.084-.63v-6.482c0-.28-.028-.485-.084-.616a.47.47 0 00-.322-.266c-.149-.056-.392-.084-.728-.084-.019 0-.028-.028-.028-.084 0-.056.009-.084.028-.084h5.628c.084 0 .135.014.154.042.028.028.042.089.042.182l.168 1.89c0 .028-.028.047-.084.056-.047 0-.075-.014-.084-.042-.112-.588-.331-1.04-.658-1.358a1.597 1.597 0 00-1.176-.476h-.728c-.289 0-.504.028-.644.084a.464.464 0 00-.294.266c-.056.13-.084.322-.084.574v2.66c.42-.047.798-.07 1.134-.07zm.07 4.718c.7 0 1.209-.168 1.526-.504.327-.336.49-.84.49-1.512 0-.84-.215-1.447-.644-1.82-.42-.373-1.027-.56-1.82-.56a4.79 4.79 0 00-.756.056v3.43c0 .308.079.537.238.686.168.15.49.224.966.224zm14.074.056c.028 0 .042.028.042.084 0 .056-.014.084-.042.084-.298 0-.536-.005-.714-.014l-1.008-.014-1.106.014c-.158.01-.378.014-.658.014-.028 0-.042-.028-.042-.084 0-.056.014-.084.042-.084.355 0 .616-.023.784-.07.168-.047.28-.135.336-.266.056-.14.084-.35.084-.63v-3.262h-5.096v3.262c0 .28.028.49.084.63.056.13.168.22.336.266.168.047.43.07.784.07.019 0 .028.028.028.084 0 .056-.009.084-.028.084-.298 0-.536-.005-.714-.014l-1.078-.014-.994.014c-.177.01-.42.014-.728.014-.018 0-.028-.028-.028-.084 0-.056.01-.084.028-.084.346 0 .598-.023.756-.07.168-.047.28-.135.336-.266.066-.14.098-.35.098-.63v-6.482c0-.28-.028-.485-.084-.616a.47.47 0 00-.322-.266c-.158-.056-.41-.084-.756-.084-.028 0-.042-.028-.042-.084 0-.056.014-.084.042-.084l.714.014c.392.019.719.028.98.028.299 0 .663-.01 1.092-.028l.7-.014c.019 0 .028.028.028.084 0 .056-.009.084-.028.084-.345 0-.602.028-.77.084a.56.56 0 00-.35.294c-.056.13-.084.336-.084.616v2.87h5.096v-2.87c0-.28-.032-.485-.098-.616a.51.51 0 00-.336-.294c-.158-.056-.415-.084-.77-.084-.028 0-.042-.028-.042-.084 0-.056.014-.084.042-.084l.658.014c.43.019.798.028 1.106.028.262 0 .598-.01 1.008-.028l.714-.014c.028 0 .042.028.042.084 0 .056-.014.084-.042.084-.345 0-.597.028-.756.084a.52.52 0 00-.336.266c-.056.13-.084.336-.084.616v6.482c0 .28.028.49.084.63a.52.52 0 00.336.266c.159.047.411.07.756.07zm10.371 0c.037 0 .056.028.056.084 0 .056-.019.084-.056.084-.177 0-.462-.01-.854-.028a18.298 18.298 0 00-.826-.028c-.215 0-.481.01-.798.028-.317.019-.555.028-.714.028-.037 0-.056-.028-.056-.084 0-.056.019-.084.056-.084.317 0 .546-.028.686-.084a.343.343 0 00.21-.336c0-.159-.07-.378-.21-.658l-1.568-3.248h-2.576l-1.148 2.646c-.131.308-.196.565-.196.77 0 .607.453.91 1.358.91.047 0 .07.028.07.084 0 .056-.023.084-.07.084-.168 0-.411-.01-.728-.028a17.876 17.876 0 00-.924-.028c-.243 0-.532.01-.868.028a12.14 12.14 0 01-.728.028c-.037 0-.056-.028-.056-.084 0-.056.019-.084.056-.084.261 0 .481-.051.658-.154.187-.103.364-.28.532-.532.168-.252.359-.625.574-1.12l2.982-6.874c.009-.028.042-.042.098-.042.056-.01.089.005.098.042l3.374 6.93c.317.681.588 1.143.812 1.386.224.243.476.364.756.364zm-6.524-4.648h2.296l-1.204-2.52-1.092 2.52zm14.505 4.648c.018 0 .028.028.028.084 0 .056-.01.084-.028.084-.318 0-.565-.005-.742-.014l-.994-.014-.994.014c-.178.01-.416.014-.714.014-.019 0-.028-.028-.028-.084 0-.056.009-.084.028-.084.345 0 .592-.023.742-.07.158-.047.261-.135.308-.266.056-.13.084-.34.084-.63v-3.388a1.84 1.84 0 00-.756.238c-.215.121-.444.331-.686.63-.234.299-.514.733-.84 1.302a35.008 35.008 0 01-1.022 1.694c-.224.327-.383.518-.476.574a.703.703 0 01-.364.084h-1.568c-.028 0-.042-.028-.042-.084 0-.056.014-.084.042-.084a1.46 1.46 0 00.826-.266c.233-.177.452-.415.658-.714.205-.299.513-.793.924-1.484.354-.616.695-1.064 1.022-1.344.336-.29.718-.476 1.148-.56-.84-.075-1.484-.294-1.932-.658-.439-.373-.658-.854-.658-1.442 0-.42.112-.793.336-1.12.233-.327.55-.579.952-.756.41-.187.872-.28 1.386-.28.214 0 .462.014.742.042.112.01.242.019.392.028.149.01.312.014.49.014.261 0 .588-.01.98-.028l.742-.014c.018 0 .028.028.028.084 0 .056-.01.084-.028.084-.355 0-.612.028-.77.084a.47.47 0 00-.322.266c-.056.13-.084.336-.084.616v6.482c0 .29.028.5.084.63a.47.47 0 00.322.266c.168.047.429.07.784.07zm-4.886-6.818c0 .672.182 1.213.546 1.624.373.401.914.602 1.624.602.177 0 .312-.005.406-.014v-2.814c0-.373-.103-.635-.308-.784-.196-.159-.448-.238-.756-.238-1.008 0-1.512.541-1.512 1.624zm17.834 6.818c.019 0 .028.028.028.084 0 .056-.009.084-.028.084h-1.89a.574.574 0 01-.336-.098c-.093-.075-.256-.266-.49-.574a68.898 68.898 0 01-1.204-1.68l-.168-.238a20.55 20.55 0 00-.882-1.19c-.186-.233-.382-.397-.588-.49-.196-.093-.457-.14-.784-.14h-.126v3.276c0 .28.028.49.084.63.056.13.164.22.322.266.168.047.425.07.77.07.019 0 .028.028.028.084 0 .056-.009.084-.028.084-.308 0-.55-.005-.728-.014l-1.05-.014-.98.014c-.168.01-.406.014-.714.014-.018 0-.028-.028-.028-.084 0-.056.01-.084.028-.084.346 0 .598-.023.756-.07a.47.47 0 00.322-.266c.066-.14.098-.35.098-.63v-6.482c0-.28-.028-.485-.084-.616a.47.47 0 00-.322-.266c-.158-.056-.41-.084-.756-.084-.018 0-.028-.028-.028-.084 0-.056.01-.084.028-.084l.714.014c.392.019.714.028.966.028.28 0 .635-.01 1.064-.028l.714-.014c.019 0 .028.028.028.084 0 .056-.009.084-.028.084-.336 0-.588.028-.756.084a.56.56 0 00-.336.294c-.056.13-.084.336-.084.616v2.954c.504-.019.817-.028.938-.028h.182l1.624-2.254c.402-.55.602-.966.602-1.246s-.219-.42-.658-.42c-.018 0-.028-.028-.028-.084 0-.056.01-.084.028-.084l.616.014a19.664 19.664 0 002.058 0l.532-.014c.028 0 .042.028.042.084 0 .056-.014.084-.042.084-.457 0-.896.13-1.316.392-.42.261-.835.653-1.246 1.176l-1.876 2.38c.28.028.514.107.7.238.196.121.388.299.574.532.187.224.495.635.924 1.232.448.635.803 1.11 1.064 1.428.262.317.532.57.812.756.28.177.593.27.938.28zm9.915 0c.037 0 .056.028.056.084 0 .056-.019.084-.056.084-.178 0-.462-.01-.854-.028a18.344 18.344 0 00-.826-.028c-.215 0-.481.01-.798.028a13.32 13.32 0 01-.714.028c-.038 0-.056-.028-.056-.084 0-.056.018-.084.056-.084.317 0 .546-.028.686-.084a.343.343 0 00.21-.336c0-.159-.07-.378-.21-.658l-1.568-3.248h-2.576l-1.148 2.646c-.131.308-.196.565-.196.77 0 .607.452.91 1.358.91.046 0 .07.028.07.084 0 .056-.024.084-.07.084-.168 0-.411-.01-.728-.028a17.876 17.876 0 00-.924-.028c-.243 0-.532.01-.868.028a11.92 11.92 0 01-.728.028c-.038 0-.056-.028-.056-.084 0-.056.018-.084.056-.084.261 0 .48-.051.658-.154.186-.103.364-.28.532-.532.168-.252.359-.625.574-1.12l2.982-6.874c.009-.028.042-.042.098-.042.056-.01.088.005.098.042l3.374 6.93c.317.681.588 1.143.812 1.386.224.243.476.364.756.364zm-6.524-4.648h2.296l-1.204-2.52-1.092 2.52zm9.338 3.626c0 .299.038.518.112.658.075.13.215.224.42.28.215.056.556.084 1.022.084.028 0 .042.028.042.084 0 .056-.014.084-.042.084-.382 0-.681-.005-.896-.014l-1.218-.014-.966.014c-.177.01-.42.014-.728.014-.018 0-.028-.028-.028-.084 0-.056.01-.084.028-.084.336 0 .579-.023.728-.07a.47.47 0 00.322-.266c.056-.14.084-.35.084-.63v-6.482c0-.28-.028-.485-.084-.616a.47.47 0 00-.322-.266c-.149-.056-.392-.084-.728-.084-.018 0-.028-.028-.028-.084 0-.056.01-.084.028-.084l.728.014c.392.019.71.028.952.028.224 0 .49-.014.798-.042.112 0 .285-.005.518-.014a8.21 8.21 0 01.63-.028c.878 0 1.582.196 2.114.588.532.383.798.966.798 1.75 0 .607-.154 1.12-.462 1.54-.298.42-.686.733-1.162.938a3.576 3.576 0 01-1.456.308 2.69 2.69 0 01-.672-.07c-.028 0-.042-.023-.042-.07 0-.028.005-.056.014-.084.019-.028.038-.037.056-.028.15.037.318.056.504.056.551 0 1.018-.2 1.4-.602.383-.401.574-.98.574-1.736 0-.737-.186-1.311-.56-1.722-.373-.42-.868-.63-1.484-.63-.28 0-.49.023-.63.07a.42.42 0 00-.28.266c-.056.13-.084.34-.084.63v6.398zm7.629-7.28c-.579 0-1.031.163-1.358.49-.327.317-.569.83-.728 1.54-.009.019-.042.028-.098.028-.047 0-.07-.01-.07-.028.037-.27.079-.7.126-1.288.047-.588.07-1.031.07-1.33 0-.047.028-.07.084-.07.056 0 .084.023.084.07 0 .205.257.308.77.308.793.028 1.731.042 2.814.042.551 0 1.134-.01 1.75-.028l.952-.014c.345 0 .597-.023.756-.07a.427.427 0 00.308-.28c.009-.037.037-.056.084-.056.056 0 .084.019.084.056a32.84 32.84 0 00-.098 1.26 30.302 30.302 0 00-.042 1.4c0 .019-.028.028-.084.028-.047 0-.07-.01-.07-.028-.065-.719-.252-1.237-.56-1.554-.308-.317-.765-.476-1.372-.476-.345 0-.593.023-.742.07a.432.432 0 00-.308.238c-.056.112-.084.303-.084.574v6.454c0 .29.028.5.084.63.065.13.187.22.364.266.177.047.462.07.854.07.019 0 .028.028.028.084 0 .056-.009.084-.028.084-.327 0-.583-.005-.77-.014l-1.106-.014-1.078.014c-.187.01-.448.014-.784.014-.028 0-.042-.028-.042-.084 0-.056.014-.084.042-.084.383 0 .663-.023.84-.07.177-.047.299-.135.364-.266.065-.14.098-.35.098-.63v-6.482c0-.261-.028-.448-.084-.56a.432.432 0 00-.308-.238c-.149-.037-.397-.056-.742-.056zm15.014 8.302c.037 0 .056.028.056.084 0 .056-.019.084-.056.084-.178 0-.462-.01-.854-.028a18.344 18.344 0 00-.826-.028c-.215 0-.481.01-.798.028a13.32 13.32 0 01-.714.028c-.038 0-.056-.028-.056-.084 0-.056.018-.084.056-.084.317 0 .546-.028.686-.084a.343.343 0 00.21-.336c0-.159-.07-.378-.21-.658l-1.568-3.248h-2.576l-1.148 2.646c-.131.308-.196.565-.196.77 0 .607.452.91 1.358.91.046 0 .07.028.07.084 0 .056-.024.084-.07.084-.168 0-.411-.01-.728-.028a17.876 17.876 0 00-.924-.028c-.243 0-.532.01-.868.028a11.92 11.92 0 01-.728.028c-.038 0-.056-.028-.056-.084 0-.056.018-.084.056-.084.261 0 .48-.051.658-.154.186-.103.364-.28.532-.532.168-.252.359-.625.574-1.12l2.982-6.874c.009-.028.042-.042.098-.042.056-.01.088.005.098.042l3.374 6.93c.317.681.588 1.143.812 1.386.224.243.476.364.756.364zm-6.524-4.648h2.296l-1.204-2.52-1.092 2.52z" fill="#CACACA"/><path fill-rule="evenodd" clip-rule="evenodd" d="M220.498 99.739v8.903c-.003.775-.346 1.119-1.13 1.119h-2.419c-.703 0-1.067-.366-1.067-1.075V95.761c0-1.58-.003-3.16 0-4.741.003-.766.697-1.24 1.344-.918.123.062.234.157.334.25l9.909 9.448c.066.064.137.125.25.226v-8.912c0-.761.349-1.105 1.111-1.107.826 0 1.651-.003 2.475.002.651 0 1.027.374 1.027 1.034.003 5.896 0 11.793 0 17.69 0 .435-.159.776-.569.952-.423.177-.779.049-1.102-.26-3.307-3.158-6.616-6.311-9.925-9.465-.061-.06-.126-.118-.238-.221zm-.946-2.206c3.965 3.781 7.882 7.514 11.822 11.273V90.963h-2.723v11.264c-3.955-3.774-7.868-7.504-11.815-11.268v17.852h2.716V97.533zm61.11 2.196v8.927c0 .768-.338 1.104-1.106 1.104h-2.447c-.678 0-1.044-.361-1.044-1.035 0-5.89 0-11.776-.004-17.666 0-.45.149-.795.569-.977.419-.176.778-.046 1.101.26 3.262 3.117 6.525 6.228 9.788 9.343l.359.335c.007-.161.017-.267.017-.373V91.25c0-.106-.003-.209.005-.317.032-.564.401-.923.969-.925a235.27 235.27 0 012.63 0c.636.003 1.004.383 1.004 1.026v15.558c0 .702-.009 1.406.003 2.108.007.445-.145.797-.564.979-.431.189-.793.047-1.122-.268-2.116-2.026-4.239-4.046-6.36-6.071-1.166-1.114-2.335-2.227-3.504-3.342-.081-.078-.163-.149-.294-.27zm-.937-2.199l11.821 11.271v-17.84h-2.726v11.261c-3.955-3.774-7.861-7.5-11.805-11.259v17.843h2.71V97.53zm-72.978-3.082v2.664h.309c1.904 0 3.808-.002 5.712 0 .752 0 1.097.347 1.097 1.092.002.761.002 1.525 0 2.287 0 .697-.356 1.061-1.047 1.061h-6.065v3.764h.312c1.886 0 3.773.017 5.659-.007.774-.012 1.185.454 1.149 1.163-.035.761-.004 1.526-.008 2.287-.003.619-.385 1.001-1.001 1.001h-9.741c-.601 0-.998-.385-.998-.981-.002-5.931-.002-11.863 0-17.796 0-.586.39-.974.978-.974 3.264-.003 6.528-.003 9.793 0 .589 0 .967.388.969.979.005.814.004 1.632 0 2.449-.001.635-.37 1.008-1.015 1.008-1.922.005-3.843.003-5.766.003h-.337zm-3.663-3.49v17.848h9.824v-2.562h-7.094v-5.63h7.097v-2.569h-7.099v-4.537h7.094v-2.55h-9.822zm-23.458 3.491v2.664h.324c1.896 0 3.791-.002 5.687 0 .763 0 1.104.347 1.104 1.11 0 .773.003 1.546 0 2.317 0 .637-.376 1.01-1.017 1.013h-6.099c-.007.116-.017.209-.017.302 0 1.053.007 2.105-.005 3.158-.004.238.059.311.304.309 1.896-.007 3.791-.005 5.687-.003.818 0 1.147.332 1.147 1.147 0 .762.003 1.526 0 2.292-.001.616-.386 1.003-1 1.003h-9.74c-.614 0-1.001-.387-1.001-1.001V91.015c0-.623.377-1.006.996-1.006 3.247-.002 6.493-.002 9.74 0 .635 0 1.005.383 1.005 1.023.003.8.003 1.598 0 2.396-.001.64-.368 1.018-1.012 1.018-1.922.005-3.842.002-5.763.002h-.34zm6.162 3.593h-7.099v-4.526h7.098V90.96h-9.825v17.845h9.819v-2.565h-7.088v-5.627h7.095v-2.571zm86.132 11.719c-.458 0-.912-.008-1.369.002-.49.01-.81-.213-1.001-.658-.491-1.143-.991-2.284-1.477-3.425-.077-.182-.172-.241-.368-.241a730.63 730.63 0 01-5.922 0c-.19 0-.275.064-.349.231-.503 1.129-1.026 2.248-1.522 3.376-.216.499-.552.732-1.099.719-.886-.02-1.772-.005-2.659-.005-.866 0-1.284-.652-.921-1.448 2.02-4.412 4.044-8.822 6.068-13.233.676-1.475 1.354-2.945 2.024-4.422.2-.44.515-.665 1.006-.65.376.011.755.014 1.131.004.533-.017.864.226 1.075.712 1.469 3.384 2.947 6.763 4.422 10.142l3.247 7.443c.356.819-.054 1.453-.943 1.453h-1.343zm1.47-.94c-.035-.099-.06-.172-.091-.239-2.533-5.808-5.066-11.614-7.596-17.42-.064-.145-.133-.218-.304-.211a9.67 9.67 0 01-.922-.007c-.183-.01-.277.049-.357.223-2.655 5.809-5.319 11.615-7.979 17.418-.032.069-.053.142-.088.236.915 0 1.801-.005 2.686.007.192.002.272-.069.346-.236.577-1.285 1.166-2.567 1.739-3.857.082-.179.179-.238.373-.236 2.362.008 4.722.008 7.083-.002.225 0 .333.063.424.274.542 1.284 1.101 2.56 1.662 3.833.039.089.14.207.215.209.929.015 1.856.008 2.809.008zm-32.819-8.933v-8.765c0-.783.333-1.117 1.12-1.117 1.456.003 2.913-.012 4.369.012 1.778.033 3.518.283 5.116 1.12 2.676 1.401 4.264 3.64 4.872 6.568.509 2.437.268 4.818-.95 7.016-1.495 2.7-3.831 4.282-6.857 4.812-.893.158-1.813.192-2.721.219-1.308.034-2.615.007-3.923.007-.657 0-1.026-.366-1.026-1.026-.002-2.949 0-5.896 0-8.846zm.949 8.933c1.259 0 2.489.019 3.716-.008.893-.021 1.794-.029 2.674-.171 2.92-.469 5.142-1.983 6.503-4.636.972-1.895 1.147-3.931.743-5.997-.522-2.67-1.942-4.724-4.371-6.02-1.401-.746-2.933-.989-4.498-1.023-1.517-.034-3.036-.017-4.553-.02-.068-.002-.134.013-.214.018v17.857zm-48.209-3.505h.35c1.818 0 3.634 0 5.45.003.801 0 1.132.331 1.134 1.133 0 .747.001 1.492-.002 2.239 0 .714-.354 1.07-1.062 1.07h-9.425c-.688 0-1.059-.368-1.059-1.056-.002-5.879-.002-11.759 0-17.639 0-.69.365-1.057 1.052-1.06.816-.002 1.633 0 2.448 0 .763.003 1.113.346 1.113 1.107l.001 13.825v.378zm-3.655-14.357v17.845h9.657c0-.769-.009-1.513.008-2.256.005-.245-.071-.306-.31-.304-2.107.007-4.212.005-6.318.005h-.328v-15.29h-2.709z" fill="#CACACA"/><path fill-rule="evenodd" clip-rule="evenodd" d="M264.824 95.415c.897 2.196 1.768 4.335 2.651 6.502h-5.407l2.756-6.502zm-1.34 5.571h2.599l-1.276-3.122c-.456 1.077-.883 2.08-1.323 3.122zm-19.234 5.236v-12.71c.337 0 .66.003.983 0 1.072-.002 2.138.055 3.175.369 2.262.69 3.552 2.28 4.031 4.53.469 2.196.012 4.201-1.521 5.897-.962 1.06-2.194 1.636-3.589 1.801-.98.12-1.976.098-2.967.137-.032 0-.066-.014-.112-.024zm.93-.881c.614-.037 1.201-.047 1.783-.115 1.163-.143 2.238-.521 3.085-1.375 1.503-1.519 1.909-3.352 1.447-5.386-.341-1.497-1.143-2.685-2.564-3.38-.776-.377-1.608-.544-2.464-.593-.425-.025-.852-.006-1.287-.006v10.855z" fill="#CACACA"/></svg>