<svg width="20" height="20" fill="none" xmlns="http://www.w3.org/2000/svg"><g clip-path="url(#clip0)" fill="#000"><path d="M17.063 2.937A9.929 9.929 0 0010 0C4.493 0 0 4.494 0 10c0 1.63.4 3.238 1.16 4.668L.016 19.273a.586.586 0 00.71.71l4.605-1.142a9.97 9.97 0 0011.731-1.778A9.93 9.93 0 0020 10a9.93 9.93 0 00-2.937-7.063zM10 18.828a8.793 8.793 0 01-4.3-1.122.587.587 0 00-.428-.058l-3.883.963.963-3.883a.586.586 0 00-.058-.428A8.79 8.79 0 011.172 10c0-4.868 3.96-8.828 8.828-8.828 4.868 0 8.828 3.96 8.828 8.828 0 4.868-3.96 8.828-8.828 8.828z"/><path d="M15.288 11.78c-.388-.39-.816-.781-1.31-1.02-.738-.355-1.442-.253-1.983.287-.246.246-.584.732-.78.97-.502-.084-1.506-.93-1.905-1.328-.397-.399-1.243-1.403-1.327-1.904.237-.194.724-.534.97-.78.54-.54.643-1.245.287-1.983-.238-.494-.63-.921-1.019-1.31-.79-.807-2.01-.867-3.063.186-.786.787-1.487 2.245-.36 4.726.668 1.467 1.744 2.765 2.274 3.3l.004.004c.536.53 1.834 1.606 3.3 2.273 1.658.754 3.434.933 4.726-.359 1.069-1.069.979-2.287.186-3.063zm-1.015 2.233c-.763.763-1.91.804-3.411.122-1.318-.6-2.51-1.594-2.96-2.037-.443-.45-1.437-1.642-2.036-2.96-.683-1.5-.642-2.648.121-3.411.445-.446.958-.643 1.397-.195l.009.009c1.04 1.04.966 1.4.731 1.635-.208.209-.824.627-1.023.826-.467.467-.38 1.19.259 2.15.38.572.884 1.128 1.121 1.366l.002.001c.238.237.793.74 1.366 1.122.96.638 1.683.725 2.15.258.199-.2.617-.815.825-1.023.159-.159.315-.22.645-.06.383.185.793.595.99.792l.009.008c.452.443.251.952-.195 1.397z"/></g><defs><clipPath id="clip0"><path fill="#fff" d="M0 0h20v20H0z"/></clipPath></defs></svg>