<svg width="20" height="22" fill="none" xmlns="http://www.w3.org/2000/svg"><path d="M18.566 21.03a.5.5 0 00.403-.18.651.651 0 00.131-.417h0v-.013L17.363 6.803l-.001-.01-.003-.01c-.077-.226-.247-.493-.601-.493h-1.996v-.61c0-1.586-.594-2.784-1.49-3.584C12.376 1.297 11.186.9 10 .9c-1.187 0-2.377.397-3.272 1.196-.897.8-1.49 1.998-1.49 3.585v.61H3.24a.539.539 0 00-.368.16.525.525 0 00-.166.358L.901 20.49H.9v.012a.59.59 0 00.606.597h0l17.06-.07zm0 0v-.1m0 .1h0v-.1m0 0c.29 0 .434-.214.434-.497l-18 .07a.49.49 0 00.506.497l17.06-.07zM13.623 9.51c0 .187.07.334.18.434a.58.58 0 00.39.145.58.58 0 00.39-.145c.11-.1.18-.247.18-.433V7.412h1.475l1.636 12.495H2.198L3.763 7.412h1.474v2.099c0 .186.07.333.18.433a.58.58 0 00.39.145.58.58 0 00.39-.145c.11-.1.18-.247.18-.433V7.412h7.246v2.099zm0-3.83v.61H6.377v-.61c0-1.231.455-2.148 1.13-2.757.678-.611 1.584-.919 2.493-.919.909 0 1.815.308 2.492.919.676.609 1.13 1.526 1.13 2.758z" fill="#000" stroke="#000" stroke-width=".2"/></svg>