<svg width="20" height="20" fill="none" xmlns="http://www.w3.org/2000/svg"><path d="M14.586 0H5.414A5.42 5.42 0 000 5.414v9.172A5.42 5.42 0 005.414 20h9.172A5.42 5.42 0 0020 14.586V5.414A5.42 5.42 0 0014.586 0zm4.242 14.586a4.246 4.246 0 01-4.242 4.242H5.414a4.246 4.246 0 01-4.242-4.242V5.414a4.246 4.246 0 014.242-4.242h9.172a4.246 4.246 0 014.242 4.242v9.172z" fill="#000"/><path d="M10 4.531A5.475 5.475 0 004.531 10a5.475 5.475 0 005.47 5.468A5.475 5.475 0 0015.468 10 5.475 5.475 0 0010 4.53zm0 9.765A4.301 4.301 0 015.704 10 4.301 4.301 0 0110 5.704 4.301 4.301 0 0114.296 10 4.3 4.3 0 0110 14.296zM15.6 2.59c-.892 0-1.617.724-1.617 1.615s.725 1.616 1.616 1.616c.891 0 1.616-.725 1.616-1.616 0-.89-.725-1.616-1.616-1.616zm0 2.059a.444.444 0 110-.888.444.444 0 010 .888z" fill="#000"/></svg>