<svg width="129" height="88" fill="none" xmlns="http://www.w3.org/2000/svg"><path d="M63.982 59.08a.54.54 0 101.083 0 .544.544 0 00-.541-.544.53.53 0 00-.542.543z" fill="#fff"/><path d="M65.133 59.08a.54.54 0 11-1.083 0c0-.3.243-.544.541-.544.3 0 .542.224.542.543zm-1.151-3.058c0 .3.243.545.542.545a.543.543 0 000-1.085.53.53 0 00-.542.54zm-5.94-2.819a.542.542 0 10.542-.544.53.53 0 00-.542.544zm-1.376 1.402c0 .298.243.543.54.543a.543.543 0 000-1.087.531.531 0 00-.54.544zm2.897.167a.543.543 0 10.541-.541.529.529 0 00-.541.541zm-1.396 1.391a.542.542 0 10.542-.542.53.53 0 00-.542.542zm10.264-1.419a.54.54 0 001.083 0 .542.542 0 00-.54-.544c-.3 0-.543.224-.543.544zm1.436 1.456a.542.542 0 10.541-.543.53.53 0 00-.541.543z" fill="#fff"/><path d="M59.018 53.53l-.692-.683-1.431 1.453.692.684 1.43-1.454zm-.081 3.008l-.683-.69 1.508-1.504.684.69-1.509 1.504z" fill="#fff"/><path d="M64.072 59.371l-4.227-4.255.687-.688 4.229 4.256-.69.687zm28.022-28.279a.488.488 0 10.488-.488.477.477 0 00-.488.488zm-2.951-.046a.488.488 0 10.974 0c0-.27-.218-.49-.487-.49a.478.478 0 00-.487.49zm0 5.955c0 .268.218.49.487.49a.49.49 0 000-.979c-.27 0-.487.2-.487.49zM65.132 56.022c0 .3-.243.545-.542.545a.542.542 0 010-1.085c.3 0 .542.223.542.54zm5.94-2.819a.542.542 0 11-.541-.544c.299 0 .541.226.541.544zm1.374 1.402a.542.542 0 11-1.082 0c0-.3.242-.543.541-.543.3 0 .541.224.541.543zm-2.896.167a.542.542 0 11-.542-.541c.3 0 .542.222.542.541zm1.395 1.391a.542.542 0 11-.542-.542.53.53 0 01.542.542z" fill="#fff"/><path d="M72.21 54.3l-1.432-1.454-.69.683 1.433 1.453.69-.683zm-1.361 1.545l-1.509-1.503-.685.69 1.509 1.504.685-.69z" fill="#fff"/><path d="M65.04 59.371l-.688-.687 4.228-4.256.688.688-4.228 4.255zm-.03-56.312a.487.487 0 11-.974.005.487.487 0 01.974-.005zm-.025 11.897a.496.496 0 11-.994 0 .497.497 0 11.994 0zm14.653 5.702a.476.476 0 11-.477-.477c.262 0 .477.197.477.477zm-29.272.008a.489.489 0 11-.488-.488c.269 0 .488.201.488.488zm.557-6.428a.49.49 0 11-.49-.49.48.48 0 01.49.49zm2.319 3.535a.487.487 0 11-.976 0c0-.27.219-.488.489-.488.268 0 .487.2.487.488zm-1.538 1.471a.49.49 0 11-.489-.489c.27 0 .49.201.49.49zm-1.458-1.471a.487.487 0 11-.976 0c0-.27.22-.488.489-.488s.487.2.487.488zM37.02 31.092a.489.489 0 11-.488-.488c.27 0 .488.201.488.488zm4.421 4.419a.489.489 0 11-.488-.489c.27 0 .488.201.488.49zm1.457 1.49a.49.49 0 01-.488.49.49.49 0 010-.979c.27 0 .488.2.488.49zm-1.457 1.479a.489.489 0 11-.488-.488c.27 0 .488.203.488.489zm-1.471-7.434a.489.489 0 11-.489-.49.48.48 0 01.489.49zm0 5.955a.49.49 0 01-.489.49.49.49 0 010-.979c.27 0 .489.2.489.49zm25.063-19.114a.51.51 0 11-1.02 0 .51.51 0 111.02 0zM60.55 7.483a.486.486 0 11-.973 0 .486.486 0 01.973 0zm8.919 0a.487.487 0 11-.974-.001.487.487 0 01.974.001zm-5.479-1.5a.487.487 0 10.975 0 .487.487 0 00-.974 0z" fill="#fff"/><path d="M64.873 3.405l-.684-.692-4.46 4.424.684.692 4.46-4.424z" fill="#fff"/><path d="M69.32 7.138l-4.46-4.423-.682.691 4.46 4.423.682-.691zm2.518.947a.486.486 0 10.485-.486.486.486 0 00-.485.486zm-3.443 2.226c.037.307.227.511.51.511.28 0 .466-.228.507-.51.043-.28-.227-.51-.508-.51-.282 0-.541.229-.51.51z" fill="#fff"/><path d="M69.296 10.617l-.738-.635c1.815-2.118 3.658-2.374 3.736-2.383l.123.963-.061-.48.063.48c-.015.003-1.568.24-3.123 2.055z" fill="#fff"/><path d="M69.265 10.024L64.812 5.64l-.68.695 4.452 4.383.68-.694zm-12.15-1.939a.486.486 0 11-.971 0 .487.487 0 11.971 0zm3.444 2.226c-.036.307-.228.511-.51.511-.282 0-.467-.228-.508-.51-.042-.28.226-.51.508-.51.282 0 .542.229.51.51z" fill="#fff"/><path d="M59.658 10.617c-1.556-1.815-3.108-2.052-3.125-2.055l.126-.963c.078.01 1.921.265 3.736 2.383l-.737.635z" fill="#fff"/><path d="M64.818 6.332l-.68-.693-4.448 4.385.68.694 4.448-4.386zM79.83 24.794L67.41 12.612l-.026-.038c-.66-.96-1.523-1.94-2.915-1.965-1.18-.019-1.765.651-2.822 1.868l-.087.1L49.41 24.79l-.688-.687L60.86 11.9l.055-.06c1.107-1.276 1.912-2.203 3.5-2.203h.07c1.823.03 2.919 1.262 3.67 2.345L80.511 24.1l-.68.695z" fill="#fff"/><path d="M55.938 45.211l-2.64-2.594-.414-.382c-2.964-2.735-7.026-6.479-7.124-10.308-.106-4.157 1.27-6.252 4.014-8.876l.67.705c-2.593 2.48-3.812 4.331-3.714 8.147.087 3.418 3.975 7 6.812 9.617l.425.392 2.651 2.603-.68.696zm16.92.345l-.668-.706 3.509-3.33c2.838-2.616 6.724-6.199 6.812-9.617.098-3.816-1.121-5.667-3.716-8.147l.67-.705c2.748 2.624 4.123 4.719 4.015 8.876-.097 3.83-4.159 7.574-7.124 10.308l-.424.392-3.074 2.93z" fill="#fff"/><path d="M64.865 56.444l-.682-.69 13.839-13.699c3.155-2.92 6.774-6.704 6.864-10.185.096-3.802-.721-5.835-3.362-8.357l-2.67-2.469.658-.715 2.677 2.474c2.847 2.72 3.772 5.015 3.668 9.093-.098 3.822-3.677 7.635-7.164 10.86L64.865 56.445zm-.808-32.791a.486.486 0 10.485-.486.476.476 0 00-.485.486zm-4.386 1.544c0 .269.226.486.504.486.275 0 .5-.217.5-.486a.493.493 0 00-.5-.487c-.278 0-.504.201-.504.487zm4.384 10.311a.486.486 0 10.486-.486.476.476 0 00-.486.486zm-.017 2.97a.487.487 0 10.486-.486c-.268 0-.486.2-.486.486z" fill="#fff"/><path d="M64.182 56.444l-13.85-13.696c-3.475-3.217-7.054-7.03-7.15-10.852-.105-4.078.819-6.373 3.66-9.087l2.684-2.48.658.715-2.679 2.474c-2.635 2.517-3.451 4.549-3.354 8.352.089 3.48 3.707 7.266 6.852 10.173l13.861 13.71-.682.691zm.845-32.79h-.97v11.855h.97V23.654zm-4.354 1.512h-.97V37.02h.97V25.166zm8.638.031a.493.493 0 01-.5.486.493.493 0 01-.502-.486c0-.27.224-.487.502-.487.276 0 .5.201.5.487z" fill="#fff"/><path d="M69.282 25.166h-.97V37.02h.97V25.166zm-4.589 12.855l-4.397-1.575-.327.916 4.397 1.576.327-.917z" fill="#fff"/><path d="M69.055 37.37l-.327-.916-4.397 1.575.327.916 4.397-1.575zm-4.829 4.309l-5.274-5.292c-.081-.079-.172-.17-.265-.264-.456-.465-.975-.988-1.475-.988-.547 0-1.045.526-1.045 1.105h-.97c0-1.107.942-2.079 2.015-2.079.906 0 1.607.709 2.167 1.278a7.6 7.6 0 00.255.254l5.281 5.298-.689.688z" fill="#fff"/><path d="M64.762 41.679l-.687-.688 5.277-5.292c.088-.084.172-.17.26-.258.56-.572 1.259-1.28 2.166-1.28 1.073 0 2.017.972 2.017 2.08h-.971c0-.58-.498-1.106-1.046-1.106-.502 0-1.018.525-1.475.988-.095.094-.183.185-.27.27l-5.27 5.286zm-4.738 5.768c-2.617 0-4.828-2.142-4.828-4.68h.97c0 2.008 1.767 3.708 3.858 3.708 2.126 0 3.856-1.617 3.856-3.608h.972c0 2.525-2.166 4.58-4.828 4.58z" fill="#fff"/><path d="M69.006 47.446c-2.64 0-4.786-2.055-4.786-4.58h.97c0 1.991 1.71 3.609 3.817 3.609 2.104 0 3.816-1.634 3.816-3.638h.971c0 2.542-2.148 4.609-4.788 4.609z" fill="#fff"/><path d="M65.222 41.078h-1.456v2.847h1.456v-2.847zm-9.056-4.869h-.97v6.658h.97v-6.658zm17.628 0h-.971v6.658h.97v-6.658zM64.509 47c-.81 0-1.507-.42-1.875-.78l.676-.696-.338.347.336-.35c.119.112 1.189 1.068 2.322-.005l.666.708c-.602.572-1.222.776-1.787.776z" fill="#fff"/><path d="M64.479 50.792c-1.175 0-2.01-.152-2.063-.162-3.52-.749-3.76-3.607-3.761-3.635l.968-.067-.483.032.483-.037c.007.09.21 2.164 2.983 2.754.005 0 1.777.32 3.734-.004 2.966-.495 3.166-2.655 3.174-2.745l.968.064c0 .03-.235 3.017-3.983 3.64-.722.121-1.417.16-2.02.16zM52.438 18.143c-2.464-2.121-2.489-3.834-2.489-3.905l.97.001-.486-.001.486-.007c0 .014.066 1.378 2.152 3.174l-.633.738zm25.797-3.905a.489.489 0 10.487-.49.478.478 0 00-.487.49zm-2.321 3.535a.488.488 0 10.488-.488c-.27 0-.488.2-.488.488z" fill="#fff"/><path d="M76.719 18.143l-.633-.738c2.094-1.803 2.151-3.153 2.151-3.165l.972-.002c0 .07-.025 1.784-2.49 3.905zm-23.731.071l-.667-.703-1.44 1.373.667.703 1.44-1.373z" fill="#fff"/><path d="M51.507 18.814l-1.401-1.384-.681.692 1.4 1.384.682-.692z" fill="#fff"/><path d="M36.876 31.438l-.688-.688 13.255-13.343.687.686-13.254 13.345z" fill="#fff"/><path d="M40.611 35.854l-4.401-4.416.686-.688 4.4 4.417-.684.687z" fill="#fff"/><path d="M41.305 35.853l-.696-.677-1.415 1.46.696.678 1.415-1.46zm1.5 1.452l-.686-.688-1.495 1.496.687.688 1.494-1.496z" fill="#fff"/><path d="M61.506 62.195c-.023 0-.048 0-.071-.004a1.421 1.421 0 01-1.035-.495L45.82 47.093 33.789 35.005a1.425 1.425 0 01-.487-1.039 1.625 1.625 0 01.39-1.114 1.614 1.614 0 011.032-.572c.416-.056.816.06 1.124.322l.032.03 3.95 4.028-.691.681-3.93-4.008a.482.482 0 00-.36-.09.651.651 0 00-.415.235.65.65 0 00-.162.45.476.476 0 00.161.351l.03.029 12.046 12.097L61.13 61.056a.47.47 0 00.347.164.67.67 0 00.45-.16c.255-.21.32-.554.151-.773l-3.825-3.825.684-.688 3.876 3.875c.524.632.405 1.6-.264 2.158a1.617 1.617 0 01-1.044.388zM35.093 29.699c-.378 0-.746-.135-1.045-.385-.67-.56-.788-1.529-.264-2.16l.031-.032 3.989-3.986.687.689-3.97 3.966c-.17.22-.104.564.148.775.131.11.296.166.45.16a.482.482 0 00.35-.165l.03-.033 14.591-14.62.688.689L36.2 29.2c-.26.3-.626.477-1.035.495-.024.003-.05.003-.072.003z" fill="#fff"/><path d="M38.108 24.207l-.687-.688L60.425.498a1.43 1.43 0 011.033-.495c.4-.021.798.117 1.117.381.319.266.524.633.578 1.031.058.415-.055.816-.314 1.127l-.028.034-5.837 5.854-.686-.688 5.816-5.836a.476.476 0 00.088-.359.665.665 0 00-.238-.414.655.655 0 00-.45-.16.48.48 0 00-.35.165l-.03.034-23.016 23.035zm1.718 7.185l-.687-.688 6.03-6.041.686.688-6.029 6.04z" fill="#fff"/><path d="M46.937 37.83l-7.109-7.128-.687.688 7.11 7.127.686-.688zm11.304 15.64L42.028 37.307l.684-.689 16.212 16.16-.683.692zm-.721.824L41.26 38.097l-.684.69 16.26 16.196.684-.69zm6.583-51.235c0 .27.218.49.486.49a.487.487 0 000-.976.485.485 0 00-.486.486zm.025 11.897zm14.618 5.71a.49.49 0 10.488-.488.478.478 0 00-.488.488zm-.556-6.428a.489.489 0 10.488-.49.478.478 0 00-.487.49zm-2.32 3.535a.487.487 0 10.975 0 .488.488 0 00-.488-.488c-.27 0-.487.2-.487.488zm1.541 1.471a.489.489 0 10.488-.489.477.477 0 00-.488.49zm1.456-1.471a.488.488 0 10.487-.488c-.268 0-.487.2-.487.488zm8.803 17.738a.489.489 0 10.489-.489.478.478 0 00-.489.49zm-1.455 1.49c0 .268.218.49.488.49a.49.49 0 000-.979c-.27 0-.488.2-.488.49zm1.455 1.479a.489.489 0 10.489-.488.48.48 0 00-.489.489zM64.08 17.887a.51.51 0 101.02.001.51.51 0 00-1.02-.001zm4.484-10.404a.486.486 0 10.485-.488.487.487 0 00-.485.488zm-3.441-1.5a.487.487 0 11-.974 0 .487.487 0 01.974 0z" fill="#fff"/><path d="M69.392 7.137l-4.46-4.424-.683.693 4.46 4.423.683-.692z" fill="#fff"/><path d="M60.47 7.828l-.68-.692 4.457-4.423.684.692-4.46 4.423zm-3.195.257c0 .27-.218.489-.486.489a.488.488 0 010-.975c.268 0 .486.219.486.486zm3.443 2.226c-.036.307-.227.511-.51.511-.278 0-.466-.228-.508-.51-.042-.28.23-.51.509-.51.282 0 .542.229.51.51z" fill="#fff"/><path d="M59.817 10.617c-1.554-1.815-3.108-2.052-3.123-2.055l.125-.963c.079.01 1.921.265 3.736 2.383l-.738.635z" fill="#fff"/><path d="M64.982 6.331l-.681-.693-4.447 4.387.68.694 4.448-4.388zm7.015 1.754a.487.487 0 10.486-.487.487.487 0 00-.486.487zm-3.442 2.226c.035.307.228.511.508.511.281 0 .467-.228.51-.51.04-.28-.229-.51-.51-.51-.28 0-.542.229-.508.51z" fill="#fff"/><path d="M69.455 10.617l-.736-.635c1.815-2.118 3.657-2.374 3.735-2.383l.121.963-.06-.48.064.48c-.016.003-1.569.24-3.124 2.055z" fill="#fff"/><path d="M69.427 10.024l-4.45-4.384-.68.694 4.45 4.383.68-.693zm-20.144 14.77l-.68-.695 12.354-12.117c.754-1.084 1.85-2.314 3.67-2.345h.072c1.587 0 2.39.925 3.498 2.2l.055.063L80.39 24.103l-.687.685-12.17-12.236-.067-.076c-1.058-1.216-1.633-1.885-2.82-1.868-1.394.025-2.257 1.007-2.916 1.965l-.06.07-12.387 12.15z" fill="#fff"/><path d="M73.176 45.211l-.68-.696 2.641-2.594.434-.401c2.838-2.616 6.724-6.199 6.812-9.617.098-3.817-1.12-5.669-3.714-8.147l.669-.705c2.747 2.624 4.121 4.717 4.015 8.876-.098 3.83-4.159 7.574-7.124 10.308l-.425.392-2.628 2.584zm-8.927 11.233l-13.84-13.696c-3.476-3.217-7.054-7.03-7.152-10.852-.104-4.078.82-6.373 3.663-9.087l2.682-2.48.659.715-2.679 2.474c-2.635 2.517-3.452 4.549-3.355 8.354.09 3.478 3.708 7.264 6.853 10.17l13.85 13.711-.681.691zm.808-32.791a.486.486 0 11-.487-.486c.27 0 .487.2.487.486zm4.382 1.544a.492.492 0 01-.5.486.494.494 0 01-.502-.486c0-.27.225-.487.502-.487s.5.201.5.487zm-4.382 10.311a.486.486 0 11-.486-.486c.269 0 .486.201.486.486zm.017 2.97a.485.485 0 11-.484-.486c.267 0 .484.2.484.486z" fill="#fff"/><path d="M64.93 56.444l-.681-.692 13.848-13.697c3.156-2.92 6.775-6.704 6.863-10.185.098-3.803-.719-5.835-3.36-8.357l-2.671-2.469.657-.715 2.677 2.474c2.848 2.72 3.773 5.015 3.67 9.093-.099 3.822-3.677 7.635-7.166 10.86L64.931 56.445zm.126-32.79h-.97v11.855h.97V23.654zm4.354 1.512h-.971V37.02h.971V25.166z" fill="#fff"/><path d="M69.15 37.354l-.328-.916-4.395 1.579.327.916 4.396-1.58z" fill="#fff"/><path d="M64.784 38.023l-4.397-1.576-.327.916 4.397 1.576.327-.916zm.1 3.656l-.685-.688 5.275-5.292c.09-.084.173-.17.26-.258.562-.572 1.26-1.28 2.168-1.28 1.074 0 2.017.972 2.017 2.08h-.97c0-.58-.5-1.106-1.046-1.106-.501 0-1.021.525-1.477.988a27.27 27.27 0 01-.269.27l-5.273 5.286z" fill="#fff"/><path d="M64.352 41.679l-5.277-5.292c-.082-.079-.171-.17-.264-.264-.457-.465-.975-.988-1.475-.988-.547 0-1.046.526-1.046 1.105h-.97c0-1.107.942-2.079 2.016-2.079.907 0 1.606.709 2.166 1.278.088.09.173.176.255.254l5.282 5.298-.687.688zm4.737 5.768c-2.662 0-4.828-2.055-4.828-4.58h.97c0 1.99 1.732 3.608 3.857 3.608 2.091 0 3.86-1.7 3.86-3.708h.97c0 2.538-2.211 4.68-4.83 4.68z" fill="#fff"/><path d="M60.106 47.446c-2.638 0-4.786-2.067-4.786-4.61h.97c0 2.005 1.711 3.639 3.816 3.639 2.105 0 3.817-1.618 3.817-3.608h.97c0 2.524-2.148 4.579-4.787 4.579z" fill="#fff"/><path d="M65.347 41.078h-1.456v2.847h1.456v-2.847zm8.571-4.869h-.97v6.658h.97v-6.658zM64.604 47c-.566 0-1.185-.204-1.789-.775l.668-.708c1.166 1.104 2.273.051 2.32.008l.676.696c-.368.358-1.066.78-1.875.78z" fill="#fff"/><path d="M64.632 50.792a12.3 12.3 0 01-2.019-.16c-3.748-.623-3.981-3.61-3.983-3.64l.97-.063c.007.089.206 2.25 3.173 2.744a12.13 12.13 0 003.747 0c2.758-.586 2.963-2.66 2.97-2.75l.969.072c-.003.028-.243 2.886-3.75 3.634-.06.008-.899.163-2.077.163zm12.042-32.649l-.633-.738c2.095-1.803 2.152-3.153 2.152-3.165l.97-.002c0 .07-.024 1.784-2.49 3.905z" fill="#fff"/><path d="M77.563 19.595l-1.44-1.372.668-.704 1.441 1.373-.669.703z" fill="#fff"/><path d="M79.695 18.122l-.68-.692-1.401 1.384.681.692 1.4-1.384z" fill="#fff"/><path d="M92.238 31.438L78.983 18.093l.688-.686L92.924 30.75l-.686.688z" fill="#fff"/><path d="M92.901 31.434l-.687-.687-4.4 4.42.688.687 4.4-4.42z" fill="#fff"/><path d="M89.916 36.622l-1.414-1.458-.696.677L89.22 37.3l.696-.678zm-1.431 1.506l-1.492-1.498-.687.688 1.491 1.497.688-.687z" fill="#fff"/><path d="M67.607 62.194c-.377 0-.744-.135-1.045-.387a1.637 1.637 0 01-.578-1.03 1.434 1.434 0 01.316-1.128l.029-.031 3.846-3.844.685.688-3.826 3.825a.476.476 0 00-.087.357c.021.16.105.307.237.417a.68.68 0 00.451.158.47.47 0 00.347-.163l.031-.032 14.594-14.62L94.68 34.28a.473.473 0 00.162-.35.663.663 0 00-.162-.45.655.655 0 00-.416-.236.478.478 0 00-.358.09l-3.93 4.008-.693-.68 3.982-4.06c.31-.26.71-.376 1.123-.322.399.051.766.255 1.034.572.267.316.405.713.39 1.115-.016.41-.189.778-.489 1.04l-12.03 12.086-14.58 14.604a1.425 1.425 0 01-1.035.495c-.025.003-.047.003-.072.003zM94.02 29.698c-.024 0-.048 0-.07-.002a1.433 1.433 0 01-1.036-.495L78.335 14.596l.686-.688L93.643 28.56a.48.48 0 00.35.166c.16.005.32-.05.451-.16a.669.669 0 00.236-.415.48.48 0 00-.086-.36l-3.972-3.968.686-.688 4.02 4.019c.26.313.371.712.315 1.129-.055.398-.26.764-.579 1.03-.298.25-.667.386-1.043.386z" fill="#fff"/><path d="M91.006 24.207L67.972 1.155l-.014-.018a.475.475 0 00-.35-.164.66.66 0 00-.449.16.657.657 0 00-.237.414.47.47 0 00.087.358l5.817 5.836-.687.688-5.865-5.887a1.429 1.429 0 01-.315-1.127 1.63 1.63 0 01.579-1.031 1.612 1.612 0 011.116-.382c.41.019.776.194 1.035.495L91.69 23.52l-.685.688zm-1.033 6.495l-6.03-6.041-.686.688 6.029 6.04.687-.687z" fill="#fff"/><path d="M89.963 31.388l-.688-.688-7.105 7.131.688.688 7.105-7.13zM70.874 53.47l-.685-.692L86.4 36.618l.685.69L70.874 53.47zm17.661-14.687l-.684-.689-16.254 16.203.684.69 16.254-16.204zM57.22 22.261a1.5 1.5 0 01-1.101-.48l-2.223-2.183.68-.695 2.252 2.212c.195.218.53.234.746.039a.53.53 0 00.046-.739l-4.351-4.254a3.957 3.957 0 01-1.235-2.657 3.586 3.586 0 01.974-2.689c1.402-1.477 3.8-1.477 5.346-.003l6.47 6.714-.696.675-6.458-6.7c-1.145-1.09-2.927-1.103-3.96-.018a2.628 2.628 0 00-.707 1.969 2.98 2.98 0 00.94 2.007l4.388 4.294a1.506 1.506 0 01-.106 2.12c-.286.26-.645.388-1.005.388z" fill="#fff"/><path d="M61.568 20.688c-.025 0-.052 0-.077-.002a1.494 1.494 0 01-1.027-.48l-6-5.94a1.504 1.504 0 01.207-2.113 1.498 1.498 0 012.072.162l5.933 5.863c.27.296.407.681.386 1.082-.02.4-.194.77-.491 1.04a1.488 1.488 0 01-1.003.388zm-6.366-7.055l5.972 5.907a.528.528 0 00.79-.701l-6.015-5.942a.528.528 0 00-.747.736zm.448 18.898l-.076-.001a1.495 1.495 0 01-1.027-.482l-6.515-6.457.683-.693 6.542 6.487a.524.524 0 00.366.172c.14.009.276-.04.38-.135a.532.532 0 00.045-.74l-5.37-5.303.682-.693 5.4 5.338a1.504 1.504 0 01-.104 2.118 1.49 1.49 0 01-1.005.39zm17.762 0a1.503 1.503 0 01-1.109-2.507l.018-.022 5.38-5.317.683.694-5.37 5.302a.533.533 0 00.046.742.52.52 0 00.38.134.525.525 0 00.366-.172l.018-.02 6.523-6.468.683.694-6.516 6.457c-.265.29-.63.46-1.025.481-.026.002-.051.002-.077.002zm-20.629 2.977c-.369 0-.72-.133-.996-.38l-.021-.02-5.649-5.664.687-.688 5.637 5.654a.525.525 0 00.737-.052.526.526 0 00-.043-.747l-.023-.02-6.222-6.316.69-.682 6.214 6.303c.292.265.463.628.487 1.024a1.5 1.5 0 01-1.41 1.585c-.03.003-.06.003-.088.003zm23.573 0c-.028 0-.06 0-.088-.003a1.487 1.487 0 01-1.033-.5 1.494 1.494 0 01-.377-1.085c.022-.395.196-.759.487-1.023l6.213-6.304.69.683-6.245 6.336a.531.531 0 00.321.923.526.526 0 00.372-.125l5.639-5.653.686.687-5.67 5.684c-.276.247-.627.38-.995.38zm-8.996-14.82a1.5 1.5 0 01-1.11-2.51l.02-.02 5.915-5.846c.25-.281.594-.457.972-.493a1.48 1.48 0 011.098.334c.31.254.501.613.54 1.013.038.4-.079.79-.334 1.101l-.034.035-5.967 5.901a1.48 1.48 0 01-1.025.482c-.025.003-.051.003-.076.003zm-.4-1.85a.534.534 0 00-.129.373.53.53 0 00.92.329l.02-.019 5.954-5.888a.53.53 0 00-.75-.736l-6.014 5.942z" fill="#fff"/><path d="M71.705 22.26c-.358 0-.718-.127-1.005-.387a1.507 1.507 0 01-.106-2.121l.023-.022 4.363-4.266c.57-.544.903-1.257.943-2.013a2.62 2.62 0 00-.709-1.968 2.609 2.609 0 00-1.915-.806h-.009a2.981 2.981 0 00-2.04.83l-6.314 6.713-.707-.666 6.343-6.743a3.943 3.943 0 012.714-1.107h.013a3.57 3.57 0 012.619 1.11 3.581 3.581 0 01.974 2.689 3.96 3.96 0 01-1.238 2.66l-4.348 4.251a.53.53 0 00.046.738c.216.196.55.18.745-.038l.032-.031 2.397-2.208.657.716-2.383 2.195a1.486 1.486 0 01-1.095.475zm-6.881-7.653l-2.973-3.123-.703.671 2.973 3.123.703-.671z" fill="#fff"/><path d="M67.89 12.189l-.692-.681-3.018 3.077.691.681 3.019-3.077zM60.175 24.71h-11.28v.973h11.28v-.973zm19.915 0H68.811v.973h11.28v-.973z" fill="#fff"/><path d="M60.526 30.748l-5.891-5.896-.687.689 5.892 5.896.686-.689zm0-2.818l-2.944-3.079-.702.674 2.944 3.079.702-.673zm11.367-5.669a1.49 1.49 0 01-1.005-.387 1.493 1.493 0 01-.492-1.04c-.02-.4.117-.784.387-1.082l.02-.021 4.364-4.267c1.163-1.11 1.267-2.893.236-3.98-1.033-1.087-2.816-1.072-3.974.033l-6.443 6.684-.699-.675 6.457-6.701c1.561-1.488 3.96-1.488 5.36-.011 1.402 1.474 1.283 3.875-.264 5.35l-4.347 4.25a.529.529 0 00.793.7l.018-.02 2.234-2.191.68.695-2.225 2.183c-.293.318-.696.48-1.1.48z" fill="#fff"/><path d="M67.545 20.688c-.372 0-.725-.137-1.005-.389a1.508 1.508 0 01-.104-2.121l.018-.02 5.919-5.846c.25-.281.593-.457.97-.493.4-.04.788.078 1.099.334a1.503 1.503 0 01.206 2.114l-.035.035-5.964 5.903c-.268.29-.633.46-1.028.48-.024.003-.05.003-.076.003zm-.396-1.85a.531.531 0 00.424.876.521.521 0 00.366-.174l.019-.019 5.954-5.889a.524.524 0 00.104-.37.521.521 0 00-.19-.359.526.526 0 00-.662-.007L67.15 18.84zm6.315 13.693c-.359 0-.718-.128-1.004-.389a1.502 1.502 0 01-.106-2.121l.019-.02 5.379-5.316.682.694-5.368 5.302a.535.535 0 00.044.74.53.53 0 00.748-.038l.017-.019 6.524-6.467.682.694-6.514 6.457c-.294.32-.698.483-1.103.483zm2.867 2.977c-.029 0-.058 0-.088-.003a1.487 1.487 0 01-1.032-.5 1.484 1.484 0 01-.377-1.085c.022-.395.194-.759.487-1.023l6.211-6.304.691.683-6.244 6.336a.526.526 0 00-.043.747.518.518 0 00.363.176.516.516 0 00.373-.125l5.638-5.653.686.687-5.67 5.684c-.277.247-.628.38-.995.38zm-8.379-23.351l-.703-.672-2.972 3.125.703.671 2.972-3.124z" fill="#fff"/><path d="M80.218 24.71H68.94v.973h11.28v-.973z" fill="#fff"/><path d="M75.166 25.539l-.686-.688-5.89 5.897.686.688 5.89-5.897zm-5.877 3.075l-.7-.673 2.945-3.081.7.674-2.945 3.08z" fill="#fff"/><path d="M75.076 25.547l-.688-.688-5.885 5.904.688.688 5.885-5.904zm-5.881 3.067l-.7-.673 2.944-3.081.701.674-2.945 3.08z" fill="#fff"/><path fill-rule="evenodd" clip-rule="evenodd" d="M49.948 76.966v9.794c-.003.853-.38 1.23-1.24 1.23h-2.655c-.773 0-1.172-.402-1.172-1.181V72.592c0-1.739-.003-3.477 0-5.216.003-.842.765-1.363 1.475-1.01.135.069.257.174.367.277 3.629 3.465 7.252 6.928 10.878 10.391.073.07.15.137.274.248v-9.803c0-.836.383-1.214 1.22-1.217.907 0 1.813-.002 2.718.003.714 0 1.127.41 1.127 1.136.003 6.486 0 12.972 0 19.459 0 .477-.175.852-.625 1.047-.464.194-.855.053-1.21-.287-3.63-3.473-7.262-6.942-10.896-10.41-.067-.066-.138-.13-.261-.244zM48.91 74.54c4.353 4.16 8.652 8.265 12.978 12.4V67.314h-2.99v12.39c-4.342-4.152-8.637-8.255-12.97-12.395v19.636h2.982V74.54zm67.088 2.415v9.82c0 .844-.372 1.214-1.215 1.214h-2.687c-.743 0-1.145-.397-1.146-1.139 0-6.478.001-12.953-.004-19.43 0-.495.164-.875.624-1.075.461-.194.855-.051 1.21.286 3.581 3.428 7.163 6.85 10.746 10.276l.393.37c.008-.178.019-.295.019-.411v-9.237c0-.116-.003-.229.005-.348.035-.62.44-1.015 1.065-1.017.961-.006 1.926-.006 2.887 0 .698.002 1.101.421 1.102 1.128v17.113c0 .771-.01 1.546.003 2.318.008.489-.159.877-.619 1.077-.473.208-.871.051-1.231-.295-2.324-2.229-4.655-4.45-6.983-6.677l-3.847-3.676c-.089-.086-.179-.164-.322-.297zm-1.029-2.418l12.977 12.397V67.312h-2.993v12.386a29108.4 29108.4 0 00-12.96-12.384v19.625h2.976V74.537zm-80.117-3.391v2.931h.339c2.09 0 4.18-.002 6.27 0 .826 0 1.205.381 1.205 1.201.002.837.002 1.677 0 2.516 0 .767-.391 1.166-1.15 1.166h-6.658v4.14h.343c2.07 0 4.142.02 6.212-.007.85-.014 1.302.5 1.262 1.28-.039.836-.005 1.678-.01 2.515-.002.68-.422 1.101-1.098 1.101H30.873c-.66 0-1.096-.424-1.096-1.08-.002-6.523-.002-13.047 0-19.573 0-.645.429-1.072 1.074-1.072 3.583-.003 7.167-.003 10.752 0 .645 0 1.06.427 1.063 1.077.006.896.005 1.795 0 2.694 0 .698-.407 1.109-1.115 1.109-2.11.005-4.218.002-6.329.002h-.37zm-4.022-3.838V86.94h10.786v-2.818h-7.789V77.93h7.791v-2.826h-7.793v-4.99h7.788v-2.805H30.83zM5.079 71.147v2.931h.355c2.081 0 4.162-.002 6.243 0 .838 0 1.213.381 1.213 1.22 0 .851.003 1.701 0 2.549-.001.701-.414 1.111-1.117 1.114H5.078c-.008.127-.02.23-.02.332 0 1.159.008 2.316-.005 3.474-.004.262.065.342.334.34 2.081-.008 4.162-.006 6.243-.003.898 0 1.26.365 1.26 1.26 0 .84.002 1.68 0 2.522-.001.677-.424 1.104-1.098 1.104H1.099c-.675 0-1.098-.427-1.098-1.102V67.371c0-.685.413-1.107 1.093-1.107 3.564-.002 7.128-.002 10.692 0 .697 0 1.103.422 1.103 1.125.003.881.003 1.757 0 2.635 0 .704-.404 1.12-1.11 1.12-2.11.006-4.219.003-6.328.003H5.08zm6.764 3.952H4.05v-4.977h7.793V67.31H1.056v19.628h10.78v-2.821H4.053v-6.19h7.79V75.1zM106.4 87.99c-.502 0-1.002-.008-1.502.002-.538.011-.891-.234-1.1-.723-.539-1.258-1.088-2.513-1.621-3.768-.085-.2-.189-.264-.404-.264-2.169.008-4.334.008-6.502 0-.208 0-.3.07-.383.253-.552 1.242-1.126 2.473-1.67 3.714-.237.548-.607.805-1.207.79-.973-.021-1.946-.005-2.919-.005-.95 0-1.41-.717-1.012-1.592 2.219-4.853 4.44-9.704 6.662-14.556.742-1.622 1.486-3.24 2.222-4.864.22-.483.566-.731 1.105-.715.413.013.829.016 1.241.005.585-.019.949.249 1.18.783 1.613 3.722 3.236 7.439 4.855 11.155 1.187 2.729 2.377 5.46 3.565 8.187.391.901-.06 1.598-1.036 1.598H106.4zm1.614-1.034c-.039-.109-.066-.189-.099-.262-2.782-6.39-5.563-12.775-8.34-19.161-.07-.16-.145-.24-.334-.232-.337.013-.677.01-1.012-.008-.2-.01-.304.054-.391.245-2.915 6.39-5.84 12.776-8.76 19.159-.035.075-.059.156-.097.26 1.004 0 1.977-.006 2.95.007.21.003.298-.076.378-.26.634-1.413 1.28-2.823 1.91-4.242.09-.197.196-.262.41-.26 2.592.009 5.183.009 7.775-.002.247 0 .366.07.465.302a296.58 296.58 0 001.825 4.216c.043.097.154.227.236.23 1.02.016 2.038.008 3.084.008zm-36.029-9.825v-9.64c0-.862.365-1.23 1.23-1.23 1.599.004 3.197-.013 4.797.014 1.95.036 3.862.31 5.615 1.231 2.938 1.542 4.682 4.005 5.35 7.225.557 2.68.293 5.299-1.044 7.717-1.642 2.969-4.206 4.71-7.527 5.293-.981.173-1.99.21-2.987.24-1.436.038-2.872.008-4.307.008-.722 0-1.127-.402-1.127-1.128-.002-3.244 0-6.486 0-9.73zm1.042 9.825c1.383 0 2.732.022 4.08-.008.98-.024 1.97-.033 2.936-.189 3.205-.516 5.644-2.18 7.138-5.099 1.067-2.084 1.259-4.323.816-6.596-.573-2.936-2.132-5.196-4.798-6.62-1.539-.822-3.22-1.089-4.939-1.126-1.666-.038-3.333-.019-4.998-.022-.075-.003-.147.013-.234.019l-.001 19.64zM20.103 83.1h.384c1.996 0 3.989 0 5.983.003.88 0 1.243.365 1.245 1.247 0 .821.001 1.641-.002 2.462 0 .786-.388 1.177-1.166 1.177H16.2c-.755 0-1.163-.405-1.163-1.16-.002-6.468-.002-12.935 0-19.402 0-.759.401-1.163 1.156-1.166.895-.003 1.792 0 2.687 0 .838.003 1.222.38 1.222 1.217l.001 15.207v.416zM16.09 67.31v19.627h10.602c0-.845-.01-1.663.008-2.48.006-.27-.077-.338-.34-.335-2.312.008-4.624.006-6.935.006h-.36v-16.82H16.09z" fill="#fff"/><path fill-rule="evenodd" clip-rule="evenodd" d="M98.61 72.21c.984 2.416 1.941 4.77 2.91 7.153h-5.935l3.025-7.152zm-1.471 6.128h2.853c-.467-1.142-.92-2.254-1.4-3.433-.502 1.184-.97 2.288-1.453 3.433zm-21.115 5.758V70.118c.37 0 .725.002 1.08 0 1.177-.003 2.346.06 3.485.404 2.483.759 3.9 2.508 4.426 4.983.514 2.416.013 4.62-1.67 6.486-1.056 1.166-2.409 1.8-3.94 1.981-1.076.132-2.17.108-3.258.151-.035 0-.073-.016-.123-.027zm1.021-.969c.674-.04 1.319-.051 1.958-.126 1.276-.157 2.456-.573 3.387-1.513 1.65-1.67 2.095-3.686 1.588-5.924-.374-1.646-1.255-2.953-2.815-3.716-.852-.416-1.764-.6-2.705-.653-.466-.028-.935-.007-1.413-.007v11.94z" fill="#fff"/></svg>