<svg width="92" height="91" fill="none" xmlns="http://www.w3.org/2000/svg"><path d="M44.982 86.443c0 .44.356.792.795.792a.791.791 0 00.792-.792.796.796 0 00-.792-.796.778.778 0 00-.795.796z" fill="#fff"/><path d="M46.67 86.443c0 .44-.356.792-.795.792a.792.792 0 01-.794-.792c0-.437.357-.796.794-.796.44 0 .795.328.795.796zm-1.688-4.474c0 .44.356.797.795.797a.793.793 0 000-1.588.776.776 0 00-.795.79zm-8.708-4.125a.793.793 0 10.795-.795c-.44 0-.795.33-.795.795zm-2.018 2.051c0 .436.356.794.794.794a.794.794 0 100-1.589.778.778 0 00-.794.795zm4.247.245a.795.795 0 001.588 0 .791.791 0 00-.794-.792.775.775 0 00-.794.792zm-2.046 2.035a.794.794 0 10.794-.793.776.776 0 00-.794.793zm15.047-2.076c0 .435.356.789.795.789a.794.794 0 000-1.586.778.778 0 00-.795.797zm2.106 2.13a.794.794 0 10.794-.794.777.777 0 00-.795.794z" fill="#fff"/><path d="M37.705 78.323l-1.015-1-2.098 2.127 1.014 1 2.099-2.127zm-.119 4.401l-1.002-1.01 2.21-2.2 1.004 1.01-2.212 2.2z" fill="#fff"/><path d="M45.114 86.868l-6.197-6.225 1.007-1.007 6.2 6.228-1.01 1.004zm41.082-41.375a.715.715 0 10.715-.714.698.698 0 00-.715.714zm-4.326-.068a.715.715 0 101.428 0 .716.716 0 00-.715-.716.7.7 0 00-.713.716zm0 8.713c0 .392.319.716.713.716a.715.715 0 100-1.432.698.698 0 00-.713.716zM46.667 81.969c0 .44-.355.797-.794.797a.794.794 0 110-1.588c.439 0 .794.327.794.79zm8.71-4.125a.794.794 0 11-.795-.795c.44 0 .794.33.794.795zm2.014 2.051a.793.793 0 11-.793-.795c.44 0 .793.327.793.795zm-4.246.245a.795.795 0 01-1.587 0 .79.79 0 01.792-.792c.44 0 .795.324.795.792zm2.046 2.035a.794.794 0 11-.794-.793c.438 0 .794.326.794.793z" fill="#fff"/><path d="M57.046 79.448l-2.1-2.126-1.012.999 2.1 2.126 1.012-1zM55.05 81.71l-2.212-2.2-1.005 1.01 2.212 2.2 1.005-1.01z" fill="#fff"/><path d="M46.534 86.868l-1.009-1.004 6.197-6.228 1.01 1.007-6.198 6.225zm-.046-82.393a.713.713 0 11-1.425.007.713.713 0 011.425-.007zm-.036 17.408a.727.727 0 01-.727.728.727.727 0 110-1.456c.402 0 .727.326.727.728zm21.482 8.343a.697.697 0 01-.698.696.697.697 0 110-1.395c.384 0 .698.29.698.699zm-42.914.012a.716.716 0 11-.715-.715.7.7 0 01.716.715zm.816-9.406a.717.717 0 11-.717-.716c.396 0 .717.296.717.716zm3.4 5.172a.715.715 0 11-.714-.714c.395 0 .714.292.714.714zm-2.254 2.153a.716.716 0 11-.717-.716.7.7 0 01.717.716zm-2.138-2.153a.715.715 0 11-.714-.714c.395 0 .714.292.714.714zM5.454 45.493a.716.716 0 11-.715-.715.7.7 0 01.715.715zm6.482 6.465a.716.716 0 11-.715-.716.7.7 0 01.715.716zm2.136 2.18c0 .392-.32.716-.716.716a.716.716 0 110-1.432.7.7 0 01.716.716zm-2.136 2.165a.716.716 0 11-.715-.716c.394 0 .715.298.715.716zM9.779 45.425a.716.716 0 11-.716-.716c.395 0 .716.298.716.716zm0 8.713c0 .392-.32.716-.716.716a.718.718 0 01-.714-.716c0-.396.32-.716.714-.716a.7.7 0 01.716.716zm36.743-27.966a.747.747 0 11-1.494 0 .748.748 0 111.494 0zM39.95 10.948a.713.713 0 11-1.425-.001.713.713 0 011.425.001zm13.076 0a.714.714 0 11-1.428-.003.714.714 0 011.428.003zm-8.031-2.193a.713.713 0 001.425 0 .71.71 0 00-.714-.71.71.71 0 00-.71.71z" fill="#fff"/><path d="M46.287 4.981L45.285 3.97l-6.538 6.474 1.003 1.012 6.537-6.474z" fill="#fff"/><path d="M52.809 10.443L46.27 3.971l-1.002 1.011 6.538 6.472 1.002-1.011zM56.5 11.83a.712.712 0 101.425.005.712.712 0 00-1.424-.005zm-5.049 3.257c.054.45.334.748.747.748.411 0 .685-.334.744-.748.064-.41-.333-.746-.744-.746-.413 0-.794.336-.747.746z" fill="#fff"/><path d="M52.773 15.534l-1.082-.929c2.661-3.099 5.363-3.473 5.477-3.487l.18 1.41-.09-.704.093.704c-.022.004-2.299.35-4.578 3.006z" fill="#fff"/><path d="M52.726 14.666L46.2 8.252l-.998 1.017 6.527 6.413.998-1.016zM34.915 11.83a.711.711 0 11-1.424 0 .713.713 0 011.424 0zm5.048 3.257c-.053.45-.333.748-.747.748-.413 0-.684-.334-.745-.748-.062-.41.332-.746.745-.746.414 0 .795.336.747.746z" fill="#fff"/><path d="M38.643 15.534c-2.28-2.656-4.556-3.002-4.581-3.006l.185-1.41c.114.014 2.816.388 5.477 3.487l-1.081.93z" fill="#fff"/><path d="M46.208 9.265L45.21 8.25l-6.52 6.417.997 1.014 6.52-6.416zm22.009 27.012L50.009 18.452l-.04-.055c-.967-1.403-2.232-2.84-4.273-2.875-1.729-.027-2.588.953-4.138 2.734l-.126.145-17.813 17.87-1.01-1.005 17.796-17.854.08-.09c1.623-1.866 2.804-3.222 5.132-3.222h.102c2.672.045 4.28 1.846 5.382 3.431l18.113 17.73-.997 1.016z" fill="#fff"/><path d="M33.19 66.15l-3.872-3.796-.607-.559c-4.346-4-10.3-9.479-10.444-15.081-.155-6.083 1.86-9.148 5.885-12.987l.983 1.03c-3.803 3.63-5.589 6.339-5.446 11.921.127 5.001 5.827 10.244 9.986 14.07l.623.576 3.887 3.808-.996 1.018zm24.805.506l-.979-1.035 5.144-4.872c4.16-3.827 9.858-9.07 9.987-14.071.143-5.582-1.644-8.291-5.448-11.92l.983-1.03c4.027 3.838 6.043 6.903 5.886 12.986-.142 5.602-6.097 11.081-10.444 15.081l-.623.575-4.506 4.286z" fill="#fff"/><path d="M46.276 82.587l-1-1.01 20.289-20.044c4.626-4.271 9.932-9.81 10.063-14.902.141-5.563-1.057-8.537-4.929-12.227l-3.915-3.613.965-1.046 3.925 3.62c4.174 3.979 5.53 7.337 5.377 13.304-.143 5.592-5.39 11.172-10.502 15.891L46.276 82.587zm-1.185-47.978a.712.712 0 10.712-.712.697.697 0 00-.712.712zm-6.428 2.257c0 .394.33.712.738.712a.723.723 0 00.733-.712.722.722 0 00-.733-.712c-.407 0-.738.294-.738.712zm6.426 15.088a.712.712 0 10.713-.712.697.697 0 00-.713.712zm-.026 4.345a.713.713 0 001.424 0 .71.71 0 00-.71-.71.696.696 0 00-.714.71z" fill="#fff"/><path d="M45.276 82.587L24.97 62.547C19.876 57.842 14.628 52.26 14.488 46.67c-.154-5.966 1.2-9.325 5.366-13.296l3.935-3.628.964 1.046-3.927 3.62c-3.864 3.683-5.06 6.655-4.917 12.22.13 5.092 5.435 10.63 10.045 14.884l20.321 20.06-1 1.012zm1.238-47.978h-1.422v17.345h1.422V34.61zm-6.384 2.212h-1.422v17.346h1.422V36.82zm12.665.045a.723.723 0 01-.734.712.723.723 0 01-.735-.712c0-.394.328-.712.735-.712.405 0 .734.294.734.712z" fill="#fff"/><path d="M52.752 36.821H51.33v17.346h1.422V36.82zM46.025 55.63l-6.446-2.305-.48 1.341 6.447 2.306.48-1.341z" fill="#fff"/><path d="M52.42 54.678l-.48-1.34-6.446 2.304.479 1.34 6.447-2.304zm-7.08 6.304l-7.732-7.743c-.12-.115-.253-.249-.39-.386-.668-.68-1.428-1.446-2.162-1.446-.801 0-1.532.77-1.532 1.617h-1.422c0-1.62 1.381-3.042 2.954-3.042 1.329 0 2.356 1.037 3.178 1.87.127.132.252.257.373.372l7.743 7.752-1.01 1.006z" fill="#fff"/><path d="M46.126 60.982l-1.008-1.007 7.736-7.742c.129-.123.252-.25.381-.378.823-.836 1.846-1.873 3.175-1.873 1.574 0 2.958 1.422 2.958 3.042h-1.424c0-.847-.73-1.617-1.533-1.617-.735 0-1.493.768-2.163 1.446-.138.137-.268.27-.395.394l-7.727 7.735zm-6.947 8.438c-3.837 0-7.077-3.132-7.077-6.847h1.42c0 2.939 2.592 5.427 5.657 5.427 3.118 0 5.654-2.367 5.654-5.28h1.424c.001 3.695-3.175 6.7-7.078 6.7z" fill="#fff"/><path d="M52.348 69.421c-3.87 0-7.017-3.006-7.017-6.7h1.421c0 2.913 2.51 5.28 5.597 5.28 3.086 0 5.595-2.391 5.595-5.324h1.423c0 3.72-3.148 6.744-7.019 6.744z" fill="#fff"/><path d="M46.8 60.103h-2.135v4.166h2.136v-4.166zm-13.276-7.124h-1.422v9.742h1.422v-9.742zm25.843 0h-1.424v9.742h1.424v-9.742zm-13.612 15.79c-1.187 0-2.209-.616-2.749-1.14l.99-1.02-.495.508.492-.511c.175.163 1.744 1.562 3.405-.008l.977 1.036c-.883.836-1.792 1.135-2.62 1.135z" fill="#fff"/><path d="M45.71 74.316c-1.722 0-2.947-.222-3.023-.237-5.16-1.096-5.512-5.277-5.515-5.319l1.42-.098-.709.048.709-.055c.01.13.308 3.166 4.372 4.03.009 0 2.607.467 5.475-.006 4.349-.724 4.643-3.885 4.653-4.017l1.42.094c0 .044-.345 4.414-5.84 5.325a17.956 17.956 0 01-2.961.235zm-17.651-47.77c-3.613-3.104-3.65-5.61-3.65-5.714l1.422.002-.713-.002.713-.01c0 .02.097 2.015 3.155 4.643l-.927 1.08zm37.818-5.714a.716.716 0 10.715-.716.7.7 0 00-.715.716zm-3.403 5.172a.715.715 0 10.717-.714.699.699 0 00-.717.714z" fill="#fff"/><path d="M63.655 26.546l-.928-1.08c3.07-2.638 3.154-4.613 3.154-4.631l1.425-.003c0 .103-.037 2.61-3.651 5.714zm-34.791.105l-.978-1.028-2.112 2.009.978 1.028 2.112-2.009z" fill="#fff"/><path d="M26.694 27.528l-2.055-2.025-.999 1.013 2.055 2.026.998-1.014z" fill="#fff"/><path d="M5.243 45.998l-1.009-1.006L23.666 25.47l1.008 1.004-19.43 19.524z" fill="#fff"/><path d="M10.72 52.46l-6.454-6.462 1.006-1.006 6.452 6.463-1.005 1.005z" fill="#fff"/><path d="M11.736 52.459l-1.02-.99-2.075 2.136 1.02.99 2.075-2.136zm2.199 2.124l-1.006-1.006-2.19 2.189 1.006 1.007 2.19-2.19z" fill="#fff"/><path d="M41.352 91c-.033 0-.07 0-.104-.006a2.086 2.086 0 01-1.517-.725L18.357 68.903.717 51.218a2.083 2.083 0 01-.715-1.52 2.38 2.38 0 01.572-1.632 2.367 2.367 0 011.512-.837 2.09 2.09 0 011.648.472l.048.045 5.79 5.893-1.013.997-5.763-5.865a.708.708 0 00-.525-.132.956.956 0 00-.61.344.949.949 0 00-.237.66.699.699 0 00.236.512l.045.042 17.659 17.7 21.438 21.437c.12.145.3.229.51.24a.978.978 0 00.659-.233c.374-.31.468-.812.222-1.133l-5.609-5.596 1.003-1.006 5.683 5.67c.767.924.594 2.34-.388 3.156a2.373 2.373 0 01-1.53.568zM2.628 43.454a2.384 2.384 0 01-1.53-.563c-.983-.82-1.156-2.237-.388-3.16l.045-.047 5.848-5.833 1.008 1.008-5.821 5.803c-.249.323-.152.826.218 1.135a.988.988 0 00.66.234.707.707 0 00.512-.242l.043-.048 21.393-21.39 1.009 1.006L4.25 42.727c-.38.439-.917.697-1.517.723-.035.004-.072.004-.106.004z" fill="#fff"/><path d="M7.05 35.418l-1.008-1.006L39.767.728c.377-.44.915-.697 1.515-.725a2.38 2.38 0 011.637.56c.467.387.77.925.848 1.507a2.095 2.095 0 01-.46 1.65l-.042.05-8.557 8.564-1.006-1.007 8.527-8.539a.695.695 0 00.13-.525.972.972 0 00-.35-.606.961.961 0 00-.66-.233.704.704 0 00-.512.24l-.045.05L7.05 35.419zM9.568 45.93L8.56 44.924l8.84-8.839 1.005 1.007-8.838 8.838z" fill="#fff"/><path d="M19.994 55.35L9.57 44.923 8.564 45.93l10.423 10.428 1.007-1.006zm16.572 22.884l-23.77-23.648 1.002-1.008 23.77 23.644-1.002 1.012zm-1.058 1.206l-23.84-23.698-1.001 1.008 23.838 23.698 1.003-1.008zM45.16 4.475c0 .396.319.716.713.716a.713.713 0 000-1.426.711.711 0 00-.712.71zm.037 17.408a.728.728 0 101.458 0 .728.728 0 00-1.458 0zm21.429 8.355a.717.717 0 001.432 0 .715.715 0 00-.715-.715.7.7 0 00-.717.715zm-.812-9.406a.716.716 0 10.714-.716.7.7 0 00-.715.716zm-3.404 5.172a.715.715 0 10.713-.714.697.697 0 00-.712.714zm2.26 2.153a.715.715 0 10.715-.716.7.7 0 00-.716.716zm2.134-2.153a.714.714 0 10.714-.714.698.698 0 00-.714.714zM79.71 51.958a.716.716 0 10.717-.716.7.7 0 00-.716.716zm-2.132 2.18c0 .392.319.716.714.716a.715.715 0 100-1.432.698.698 0 00-.714.716zm2.132 2.165a.716.716 0 10.717-.716.702.702 0 00-.716.716zM45.126 26.172a.747.747 0 101.495 0 .747.747 0 00-1.495 0zM51.7 10.948a.712.712 0 101.423 0 .712.712 0 00-1.424 0zm-5.046-2.193a.713.713 0 01-1.427 0c0-.394.321-.71.714-.71a.71.71 0 01.713.71z" fill="#fff"/><path d="M52.913 10.442L46.377 3.97l-1.003 1.013 6.538 6.472 1.002-1.013z" fill="#fff"/><path d="M39.834 11.454l-.999-1.012 6.536-6.472 1.002 1.012-6.54 6.472zm-4.684.376c0 .394-.32.715-.713.715a.714.714 0 010-1.427c.393 0 .713.32.713.712zm5.047 3.257c-.053.45-.333.748-.747.748-.409 0-.684-.334-.745-.748-.062-.41.336-.746.745-.746.414 0 .795.336.747.746z" fill="#fff"/><path d="M38.876 15.534c-2.279-2.656-4.556-3.002-4.578-3.006l.183-1.41c.115.014 2.816.388 5.476 3.487l-1.08.93z" fill="#fff"/><path d="M46.448 9.264l-.999-1.014-6.52 6.419 1 1.014 6.519-6.42zm10.285 2.566a.713.713 0 101.422.003.713.713 0 00-1.422-.003zm-5.048 3.257c.053.45.335.748.746.748.412 0 .685-.334.747-.748.06-.41-.335-.746-.747-.746-.411 0-.794.336-.746.746z" fill="#fff"/><path d="M53.005 15.534l-1.079-.929c2.661-3.099 5.361-3.473 5.476-3.487l.178 1.41-.09-.704.095.704c-.023.004-2.3.35-4.58 3.006z" fill="#fff"/><path d="M52.964 14.666l-6.523-6.414-.998 1.015 6.524 6.414.997-1.015zM23.432 36.277l-.996-1.016 18.111-17.73c1.105-1.585 2.712-3.386 5.381-3.431h.105c2.327 0 3.505 1.353 5.128 3.218l.08.094 17.796 17.855-1.008 1.002-17.841-17.904-.099-.111c-1.55-1.78-2.393-2.758-4.135-2.733-2.042.036-3.308 1.473-4.274 2.875l-.088.103-18.16 17.778z" fill="#fff"/><path d="M58.461 66.15l-.998-1.018 3.873-3.796.637-.587c4.16-3.827 9.857-9.07 9.986-14.071.143-5.584-1.642-8.294-5.445-11.92l.98-1.03c4.028 3.838 6.043 6.9 5.887 12.986-.143 5.602-6.097 11.081-10.444 15.081l-.623.575-3.853 3.78zM45.374 82.587l-20.29-20.04C19.988 57.842 14.742 52.26 14.6 46.67c-.153-5.966 1.201-9.325 5.369-13.296l3.933-3.628.965 1.046-3.927 3.62c-3.863 3.683-5.06 6.655-4.918 12.223.131 5.09 5.436 10.628 10.046 14.881l20.306 20.06-1 1.012zm1.183-47.978a.712.712 0 11-.712-.712c.394 0 .712.294.712.712zm6.426 2.257a.722.722 0 01-.733.712.724.724 0 01-.736-.712c0-.394.33-.712.736-.712.406 0 .733.294.733.712zm-6.425 15.088a.712.712 0 11-.713-.712c.394 0 .713.295.713.712zm.025 4.345a.71.71 0 11-.71-.71c.392 0 .71.292.71.71z" fill="#fff"/><path d="M46.373 82.587l-1-1.013 20.303-20.04c4.626-4.272 9.932-9.81 10.062-14.903.142-5.565-1.054-8.537-4.928-12.227l-3.915-3.613.964-1.046 3.925 3.62c4.175 3.979 5.53 7.337 5.379 13.304-.144 5.592-5.39 11.172-10.505 15.891L46.373 82.587zm.185-47.978h-1.423v17.345h1.423V34.61zm6.382 2.212h-1.424v17.346h1.424V36.82z" fill="#fff"/><path d="M52.559 54.655l-.48-1.341-6.445 2.31.48 1.341 6.445-2.31z" fill="#fff"/><path d="M46.158 55.633l-6.447-2.305-.48 1.34 6.447 2.306.48-1.34zm.147 5.349L45.3 59.975l7.734-7.742c.13-.123.254-.25.381-.378.824-.836 1.848-1.873 3.179-1.873 1.574 0 2.956 1.422 2.956 3.042h-1.423c0-.847-.732-1.617-1.533-1.617-.734 0-1.496.768-2.164 1.446l-.395.394-7.73 7.735z" fill="#fff"/><path d="M45.524 60.982l-7.735-7.743c-.12-.115-.252-.249-.388-.386-.67-.68-1.43-1.446-2.163-1.446-.801 0-1.533.77-1.533 1.617h-1.422c0-1.62 1.381-3.042 2.956-3.042 1.33 0 2.354 1.037 3.176 1.87.128.132.252.257.373.372l7.744 7.752-1.008 1.006zm6.945 8.438c-3.903 0-7.078-3.005-7.078-6.7h1.422c0 2.913 2.539 5.28 5.655 5.28 3.066 0 5.657-2.488 5.657-5.427h1.423c0 3.715-3.241 6.848-7.08 6.848z" fill="#fff"/><path d="M39.3 69.421c-3.868 0-7.017-3.024-7.017-6.744h1.422C33.705 65.61 36.214 68 39.3 68s5.595-2.367 5.595-5.279h1.422c0 3.694-3.148 6.7-7.017 6.7z" fill="#fff"/><path d="M46.983 60.103h-2.135v4.166h2.135v-4.166zm12.565-7.124h-1.422v9.742h1.422v-9.742zm-13.654 15.79c-.83 0-1.737-.299-2.622-1.135l.978-1.036c1.71 1.615 3.333.076 3.4.012l.993 1.018c-.54.525-1.562 1.14-2.749 1.14z" fill="#fff"/><path d="M45.935 74.317c-.883 0-1.9-.058-2.96-.235-5.495-.911-5.837-5.282-5.839-5.325l1.422-.092c.01.13.303 3.29 4.651 4.015 2.88.475 5.466.006 5.493 0 4.045-.858 4.345-3.894 4.355-4.024l1.42.105c-.004.042-.355 4.223-5.496 5.318-.088.011-1.319.238-3.046.238zM63.59 26.546l-.928-1.08c3.071-2.638 3.154-4.613 3.154-4.631l1.424-.003c0 .103-.036 2.61-3.65 5.714z" fill="#fff"/><path d="M64.893 28.67l-2.113-2.007.981-1.03 2.112 2.01-.98 1.027z" fill="#fff"/><path d="M68.019 26.516l-.999-1.013-2.053 2.025.999 1.012 2.053-2.024z" fill="#fff"/><path d="M86.407 45.998L66.974 26.474l1.01-1.004 19.43 19.522-1.007 1.006z" fill="#fff"/><path d="M87.38 45.992l-1.007-1.005-6.451 6.467 1.007 1.005 6.451-6.467z" fill="#fff"/><path d="M83.004 53.584L80.93 51.45l-1.021.991 2.073 2.135 1.02-.992zm-2.1 2.202l-2.186-2.19L77.71 54.6l2.187 2.19 1.007-1.005z" fill="#fff"/><path d="M50.296 91a2.378 2.378 0 01-1.531-.567 2.394 2.394 0 01-.848-1.506 2.095 2.095 0 01.463-1.652l.042-.045 5.64-5.624 1.003 1.006-5.61 5.597a.696.696 0 00-.127.522.96.96 0 00.349.61 1 1 0 00.66.232.69.69 0 00.51-.239l.045-.047 21.395-21.39 17.701-17.742a.692.692 0 00.237-.513.968.968 0 00-.237-.659.96.96 0 00-.61-.344.702.702 0 00-.524.132l-5.762 5.865-1.016-.997 5.839-5.938a2.105 2.105 0 011.645-.471 2.38 2.38 0 011.516.837 2.38 2.38 0 01.571 1.63 2.088 2.088 0 01-.715 1.521L73.294 68.902 51.919 90.27a2.09 2.09 0 01-1.517.724c-.037.006-.07.006-.106.006zM89.02 43.454c-.035 0-.07 0-.103-.005a2.102 2.102 0 01-1.52-.723l-21.372-21.37 1.006-1.005 21.437 21.437a.704.704 0 00.512.243.98.98 0 00.662-.235.978.978 0 00.346-.607.702.702 0 00-.127-.527l-5.823-5.805 1.006-1.007 5.892 5.88a2.1 2.1 0 01.463 1.652 2.395 2.395 0 01-.848 1.508 2.382 2.382 0 01-1.53.564z" fill="#fff"/><path d="M84.6 35.418L50.833 1.69l-.02-.026a.696.696 0 00-.514-.24.97.97 0 00-.658.232.96.96 0 00-.348.607.687.687 0 00.128.525l8.529 8.538-1.008 1.007-8.6-8.614a2.088 2.088 0 01-.46-1.65A2.377 2.377 0 0148.73.562a2.366 2.366 0 011.636-.559 2.1 2.1 0 011.517.724l33.724 33.684-1.005 1.007zm-1.514 9.503l-8.838-8.838-1.007 1.006 8.838 8.84 1.007-1.008z" fill="#fff"/><path d="M83.072 45.925l-1.008-1.006-10.416 10.433 1.008 1.007 10.416-10.434zM55.086 78.234l-1.005-1.012 23.768-23.644 1.004 1.008-23.767 23.648zm25.892-21.488l-1.003-1.009-23.83 23.708 1.004 1.009 23.829-23.708zM35.069 32.571c-.59 0-1.182-.236-1.615-.702l-3.258-3.194.995-1.017 3.304 3.236a.773.773 0 001.16-1.024l-6.379-6.225a5.785 5.785 0 01-1.81-3.887c-.078-1.487.428-2.884 1.428-3.934 2.055-2.161 5.571-2.161 7.837-.005l9.487 9.823-1.021.989-9.469-9.804c-1.678-1.594-4.29-1.613-5.805-.026-.726.768-1.095 1.789-1.036 2.88a4.357 4.357 0 001.377 2.937l6.434 6.282a2.2 2.2 0 01-.155 3.104c-.42.38-.946.567-1.474.567z" fill="#fff"/><path d="M41.443 30.27c-.036 0-.076 0-.112-.004a2.193 2.193 0 01-1.507-.702l-8.796-8.69a2.198 2.198 0 013.341-2.855l8.699 8.578c.394.434.596.997.566 1.584a2.184 2.184 0 01-.72 1.52 2.184 2.184 0 01-1.471.569zM32.11 19.947l8.756 8.643a.775.775 0 001.159-1.026l-8.82-8.694a.775.775 0 00-1.095 1.077zm.658 27.65c-.038 0-.075 0-.112-.002a2.193 2.193 0 01-1.506-.704l-9.55-9.448 1-1.014 9.591 9.491a.77.77 0 00.536.253.766.766 0 00.559-.199.777.777 0 00.064-1.082l-7.87-7.759.997-1.014 7.918 7.81a2.197 2.197 0 01-1.627 3.668zm26.038.001a2.196 2.196 0 01-1.626-3.669l.027-.032 7.888-7.779 1 1.015-7.872 7.758a.779.779 0 00.067 1.085c.153.137.35.209.556.197a.77.77 0 00.538-.253l.026-.03 9.564-9.462 1.001 1.015-9.552 9.448a2.183 2.183 0 01-1.504.705c-.037.002-.075.002-.113.002zm-30.243 4.356a2.18 2.18 0 01-1.46-.557l-.03-.028-8.282-8.288 1.007-1.006 8.264 8.272a.772.772 0 001.08-.075.769.769 0 00.196-.56.767.767 0 00-.259-.533l-.034-.03-9.121-9.241 1.012-.998 9.11 9.222c.428.388.678.92.713 1.498a2.192 2.192 0 01-2.066 2.32c-.045.004-.088.004-.13.004zm34.559 0c-.04 0-.087 0-.129-.004a2.182 2.182 0 01-1.513-.732 2.18 2.18 0 01-.553-1.587c.031-.58.287-1.11.713-1.498l9.109-9.223 1.011.998-9.155 9.271a.777.777 0 00.471 1.352.773.773 0 00.545-.183l8.267-8.273 1.007 1.007-8.313 8.315c-.406.362-.92.557-1.46.557zM49.933 30.27a2.18 2.18 0 01-1.472-.57 2.192 2.192 0 01-.721-1.52 2.19 2.19 0 01.565-1.583l.03-.03 8.674-8.553a2.18 2.18 0 011.424-.722 2.177 2.177 0 011.61.49c.453.372.735.897.792 1.482a2.192 2.192 0 01-.49 1.611l-.05.051-8.747 8.634a2.17 2.17 0 01-1.504.705c-.037.005-.074.005-.11.005zm-.583-2.706a.78.78 0 00-.19.545.777.777 0 001.35.481l.027-.027 8.73-8.616a.776.776 0 00-1.1-1.077l-8.817 8.694z" fill="#fff"/><path d="M56.305 32.572a2.19 2.19 0 01-1.474-.567 2.202 2.202 0 01-.155-3.104l.034-.032 6.395-6.242c.838-.796 1.324-1.839 1.383-2.945.059-1.092-.31-2.112-1.04-2.88-.721-.76-1.72-1.18-2.808-1.18h-.012a4.375 4.375 0 00-2.99 1.216l-9.257 9.821-1.036-.975 9.297-9.865a5.786 5.786 0 013.98-1.62h.018c1.481 0 2.843.575 3.84 1.624 1 1.05 1.51 2.447 1.428 3.934a5.788 5.788 0 01-1.815 3.894l-6.373 6.218a.774.774 0 001.159 1.025l.047-.046 3.515-3.23.962 1.048-3.493 3.21a2.18 2.18 0 01-1.605.695zM46.216 21.373l-4.359-4.57-1.03.982 4.36 4.57 1.03-.982z" fill="#fff"/><path d="M50.711 17.835l-1.014-.997-4.425 4.503 1.014.996 4.425-4.502zM39.4 36.154H22.864v1.424H39.4v-1.424zm29.197 0H52.061v1.424h16.536v-1.424z" fill="#fff"/><path d="M39.915 44.99l-8.637-8.628-1.006 1.008 8.637 8.627 1.006-1.007zm.001-4.124L35.6 36.36l-1.029.986 4.316 4.506 1.029-.986zm16.664-8.295a2.186 2.186 0 01-1.473-.567 2.183 2.183 0 01-.721-1.52c-.03-.587.17-1.148.567-1.584l.03-.031 6.396-6.243c1.707-1.623 1.858-4.233.346-5.825-1.514-1.59-4.127-1.567-5.825.05l-9.447 9.78-1.024-.989 9.467-9.804c2.288-2.176 5.805-2.176 7.859-.016 2.054 2.156 1.88 5.67-.389 7.828l-6.372 6.22a.773.773 0 00.066 1.08.775.775 0 001.096-.056l.027-.03 3.275-3.207.996 1.017-3.262 3.195a2.19 2.19 0 01-1.612.702z" fill="#fff"/><path d="M50.205 30.27a2.19 2.19 0 01-1.473-.57 2.204 2.204 0 01-.153-3.103l.027-.03 8.677-8.553a2.18 2.18 0 011.422-.722 2.18 2.18 0 011.612.49 2.197 2.197 0 01.302 3.093l-.05.051-8.745 8.637a2.192 2.192 0 01-1.506.702c-.036.005-.074.005-.113.005zm-.58-2.706a.776.776 0 00.622 1.28.766.766 0 00.536-.254l.027-.028 8.73-8.616a.767.767 0 00.152-.543.763.763 0 00-.278-.523.771.771 0 00-.97-.01l-8.82 8.694zm9.258 20.034a2.178 2.178 0 01-1.473-.57 2.194 2.194 0 01-.155-3.104l.029-.027 7.886-7.779.999 1.015-7.87 7.758a.78.78 0 00.065 1.083.777.777 0 001.097-.056l.025-.028 9.564-9.462 1 1.015-9.55 9.448a2.192 2.192 0 01-1.617.707zm4.204 4.356c-.043 0-.086 0-.13-.004a2.182 2.182 0 01-1.513-.732 2.169 2.169 0 01-.553-1.587c.033-.58.285-1.11.715-1.498l9.106-9.223 1.012.998-9.154 9.271a.77.77 0 00-.062 1.093.76.76 0 00.532.259.757.757 0 00.546-.183l8.265-8.273 1.007 1.007-8.313 8.315a2.186 2.186 0 01-1.458.557zM50.803 17.787l-1.031-.983-4.357 4.572 1.03.982 4.358-4.571z" fill="#fff"/><path d="M68.785 36.154H52.25v1.424h16.535v-1.424z" fill="#fff"/><path d="M61.378 37.367l-1.005-1.006-8.636 8.628 1.006 1.006 8.635-8.628zm-8.615 4.499l-1.027-.985 4.318-4.508 1.025.987-4.316 4.506z" fill="#fff"/><path d="M61.246 37.38l-1.008-1.007-8.628 8.638 1.008 1.007 8.628-8.639zm-8.62 4.486l-1.027-.985 4.315-4.508 1.028.987-4.316 4.506z" fill="#fff"/></svg>