<svg width="330" height="195" viewBox="0 0 330 195" fill="none" xmlns="http://www.w3.org/2000/svg">
<rect opacity="0.4" x="0.5" y="0.5" width="329" height="194" rx="0.5" fill="black" stroke="#AFAFAF"/>
<mask id="mask0" mask-type="alpha" maskUnits="userSpaceOnUse" x="1" y="1" width="329" height="193">
<rect x="1.5" y="1.5" width="328" height="192" fill="#F7F7F7" stroke="#DDDDDD"/>
</mask>
<g mask="url(#mask0)">
<path d="M30.3008 183.332C30.3008 184.422 31.1886 185.307 32.2805 185.307C33.3685 185.307 34.255 184.422 34.255 183.332C34.255 182.252 33.3685 181.373 32.2805 181.373C31.1872 181.373 30.3008 182.183 30.3008 183.332Z" fill="#AFAFAF"/>
<path d="M8.61133 173.109C8.61133 174.188 9.49387 175.072 10.5898 175.072C11.6765 175.072 12.5603 174.188 12.5603 173.109C12.5603 172.02 11.6765 171.138 10.5898 171.138C9.49387 171.137 8.61133 171.956 8.61133 173.109Z" fill="#AFAFAF"/>
<path d="M3.58398 178.193C3.58398 179.273 4.47179 180.16 5.56111 180.16C6.6557 180.16 7.54085 179.272 7.54085 178.193C7.54085 177.103 6.6557 176.223 5.56111 176.223C4.47179 176.223 3.58398 177.035 3.58398 178.193Z" fill="#AFAFAF"/>
<path d="M14.168 178.8C14.168 179.885 15.0571 180.768 16.1451 180.768C17.2384 180.768 18.1235 179.885 18.1235 178.8C18.1235 177.71 17.2384 176.839 16.1451 176.839C15.0558 176.839 14.168 177.642 14.168 178.8Z" fill="#AFAFAF"/>
<path d="M9.06836 183.843C9.06836 184.928 9.95749 185.806 11.0468 185.806C12.1375 185.806 13.0239 184.928 13.0239 183.843C13.0239 182.758 12.1375 181.877 11.0468 181.877C9.95617 181.876 9.06836 182.685 9.06836 183.843Z" fill="#AFAFAF"/>
<path d="M46.5527 178.696C46.5527 179.776 47.4379 180.653 48.5325 180.653C49.6218 180.653 50.5069 179.777 50.5069 178.696C50.5069 177.602 49.6218 176.723 48.5325 176.723C47.4379 176.723 46.5527 177.537 46.5527 178.696Z" fill="#AFAFAF"/>
<path d="M51.7949 183.975C51.7949 185.065 52.6814 185.945 53.7734 185.945C54.868 185.945 55.7492 185.064 55.7492 183.975C55.7492 182.895 54.868 182.007 53.7734 182.007C52.6814 182.007 51.7949 182.821 51.7949 183.975Z" fill="#AFAFAF"/>
<path d="M12.1785 174.297L9.65234 171.818L4.42571 177.088L6.95191 179.567L12.1785 174.297Z" fill="#AFAFAF"/>
<path d="M11.8776 185.202L9.38281 182.698L14.89 177.248L17.3901 179.751L11.8776 185.202Z" fill="#AFAFAF"/>
<path d="M30.6322 195.472L15.1973 180.047L17.7052 177.551L33.1494 192.983L30.6322 195.472Z" fill="#AFAFAF"/>
<path d="M132.977 92.9422C132.977 93.9184 133.771 94.7163 134.757 94.7163C135.74 94.7163 136.533 93.9184 136.533 92.9422C136.533 91.9661 135.74 91.1721 134.757 91.1721C133.77 91.1721 132.977 91.9019 132.977 92.9422Z" fill="#AFAFAF"/>
<path d="M122.199 92.7768C122.199 93.7568 122.995 94.5509 123.976 94.5509C124.959 94.5509 125.757 93.7582 125.757 92.7768C125.757 91.7993 124.96 91.0027 123.976 91.0027C122.995 91.0027 122.199 91.7417 122.199 92.7768Z" fill="#AFAFAF"/>
<path d="M122.199 114.37C122.199 115.34 122.995 116.144 123.976 116.144C124.959 116.144 125.757 115.34 125.757 114.37C125.757 113.388 124.96 112.595 123.976 112.595C122.995 112.594 122.199 113.324 122.199 114.37Z" fill="#AFAFAF"/>
<path d="M34.5037 183.332C34.5037 184.422 33.6173 185.307 32.524 185.307C31.436 185.307 30.5469 184.422 30.5469 183.332C30.5469 182.252 31.436 181.373 32.524 181.373C33.6173 181.373 34.5037 182.183 34.5037 183.332Z" fill="#AFAFAF"/>
<path d="M56.201 173.109C56.201 174.188 55.3158 175.072 54.2226 175.072C53.1293 175.072 52.2441 174.188 52.2441 173.109C52.2441 172.02 53.1293 171.138 54.2226 171.138C55.3158 171.138 56.201 171.956 56.201 173.109Z" fill="#AFAFAF"/>
<path d="M61.2185 178.193C61.2185 179.273 60.34 180.16 59.2441 180.16C58.1508 180.16 57.2656 179.272 57.2656 178.193C57.2656 177.103 58.1508 176.223 59.2441 176.223C60.34 176.223 61.2185 177.035 61.2185 178.193Z" fill="#AFAFAF"/>
<path d="M50.645 178.8C50.645 179.885 49.7585 180.768 48.6639 180.768C47.5706 180.768 46.6895 179.885 46.6895 178.8C46.6895 177.71 47.5706 176.839 48.6639 176.839C49.7585 176.839 50.645 177.642 50.645 178.8Z" fill="#AFAFAF"/>
<path d="M55.7355 183.843C55.7355 184.928 54.8477 185.806 53.7557 185.806C52.6611 185.806 51.7812 184.928 51.7812 183.843C51.7812 182.758 52.6611 181.877 53.7557 181.877C54.8477 181.876 55.7355 182.685 55.7355 183.843Z" fill="#AFAFAF"/>
<path d="M60.3611 177.084L55.1289 171.816L52.6101 174.291L57.8423 179.559L60.3611 177.084Z" fill="#AFAFAF"/>
<path d="M55.3869 182.691L49.877 177.24L47.3736 179.743L52.8836 185.195L55.3869 182.691Z" fill="#AFAFAF"/>
<path d="M34.1701 195.472L31.6582 192.983L47.0958 177.551L49.609 180.047L34.1701 195.472Z" fill="#AFAFAF"/>
<path d="M33.972 34.4395C33.972 35.4405 33.1606 36.2437 32.1595 36.2437C31.1532 36.2437 30.3418 35.4405 30.3418 34.4395C30.3418 33.4437 31.1532 32.6353 32.1595 32.6353C33.1606 32.6353 33.972 33.4437 33.972 34.4395Z" fill="#AFAFAF"/>
<path d="M87.4826 55.1134C87.4826 56.0699 86.7002 56.8377 85.7426 56.8377C84.785 56.8377 84.0039 56.0699 84.0039 55.1134C84.0039 54.1583 84.785 53.3826 85.7426 53.3826C86.7002 53.3826 87.4826 54.098 87.4826 55.1134Z" fill="#AFAFAF"/>
<path d="M34.1391 45.0675C34.1391 46.0921 33.3079 46.9202 32.2766 46.9202C31.2531 46.9202 30.418 46.0921 30.418 45.0675C30.418 44.0415 31.2531 43.2122 32.2766 43.2122C33.3079 43.2122 34.1391 44.0415 34.1391 45.0675Z" fill="#AFAFAF"/>
<path d="M17.7705 7.34488C17.7705 8.31578 16.9763 9.10845 15.9989 9.10845C15.0163 9.10845 14.2246 8.31578 14.2246 7.34488C14.2246 6.36874 15.0163 5.57471 15.9989 5.57471C16.9763 5.57471 17.7705 6.36874 17.7705 7.34488Z" fill="#AFAFAF"/>
<path d="M50.3461 7.34488C50.3461 8.31578 49.5492 9.10845 48.5705 9.10845C47.5905 9.10845 46.7949 8.31578 46.7949 7.34488C46.7949 6.36874 47.5905 5.57471 48.5705 5.57471C49.5492 5.57471 50.3461 6.36874 50.3461 7.34488Z" fill="#AFAFAF"/>
<path d="M30.3418 1.90638C30.3418 2.87728 31.1374 3.67132 32.1121 3.67132C33.0987 3.67132 33.8903 2.87859 33.8903 1.90638C33.8903 0.930245 33.0987 0.14673 32.1121 0.14673C31.1361 0.14542 30.3418 0.930245 30.3418 1.90638Z" fill="#AFAFAF"/>
<path d="M33.5573 -7.44117L31.0605 -9.94946L14.7741 6.0915L17.2709 8.59979L33.5573 -7.44117Z" fill="#AFAFAF"/>
<path d="M49.7986 6.09569L33.5117 -9.94116L31.0181 -7.4353L47.3049 8.60155L49.7986 6.09569Z" fill="#AFAFAF"/>
<path d="M59 9.52983C59 10.506 59.7903 11.3 60.7703 11.3C61.7503 11.3 62.5459 10.506 62.5459 9.52983C62.5459 8.55893 61.7503 7.76489 60.7703 7.76489C59.7903 7.76489 59 8.55893 59 9.52983Z" fill="#AFAFAF"/>
<path d="M46.422 17.5993C46.5563 18.713 47.2531 19.452 48.2819 19.452C49.3066 19.452 49.9876 18.6252 50.1365 17.5993C50.2945 16.5838 49.3066 15.7505 48.2819 15.7505C47.2531 15.7505 46.3047 16.5825 46.422 17.5993Z" fill="#AFAFAF"/>
<path d="M49.7119 18.7082L47.0156 16.406C53.6451 8.72662 60.3747 7.80027 60.6605 7.76489L61.1083 11.2594L60.8844 9.51411L61.1149 11.2594C61.0609 11.2685 55.3891 12.1268 49.7119 18.7082Z" fill="#AFAFAF"/>
<path d="M49.5979 16.5576L33.3379 0.664551L30.8507 3.18238L47.1107 19.0755L49.5979 16.5576Z" fill="#AFAFAF"/>
<path d="M5.22561 9.52983C5.22561 10.506 4.44056 11.3 3.45397 11.3C2.47134 11.3 1.67969 10.506 1.67969 9.52983C1.67969 8.55893 2.47134 7.76489 3.45397 7.76489C4.44056 7.76358 5.22561 8.55893 5.22561 9.52983Z" fill="#AFAFAF"/>
<path d="M17.8046 17.5993C17.6728 18.713 16.9734 19.452 15.9434 19.452C14.9146 19.452 14.2389 18.6252 14.0861 17.5993C13.9333 16.5838 14.9146 15.7505 15.9434 15.7505C16.9734 15.7505 17.9231 16.5825 17.8046 17.5993Z" fill="#AFAFAF"/>
<path d="M14.5183 18.7082C8.83855 12.1268 3.17065 11.2685 3.10742 11.2594L3.56845 7.76489C3.85165 7.80027 10.5825 8.72662 17.2107 16.406L14.5183 18.7082Z" fill="#AFAFAF"/>
<path d="M33.3631 3.1744L30.877 0.661133L14.634 16.5601L17.1202 19.0733L33.3631 3.1744Z" fill="#AFAFAF"/>
<path d="M88.1846 70.1087L42.8269 25.9401L42.7294 25.8025C40.3189 22.3264 37.1669 18.7677 32.0825 18.6786C27.7766 18.6105 25.6374 21.0397 21.7754 25.4526L21.4606 25.8117L-22.9132 70.0943L-25.4277 67.6049L18.9039 23.3615L19.1028 23.1401C23.1466 18.5162 26.0879 15.1541 31.8875 15.1541C31.9705 15.1541 32.0574 15.1541 32.1404 15.1541C38.7975 15.2667 42.8018 19.7294 45.5469 23.6576L90.6702 67.5904L88.1846 70.1087Z" fill="#AFAFAF"/>
<path d="M0.931637 144.134L-8.71288 134.728L-10.2237 133.343C-21.0498 123.43 -35.8841 109.854 -36.241 95.9722C-36.627 80.8977 -31.6058 73.3048 -21.5806 63.791L-19.1333 66.3447C-28.6052 75.337 -33.0547 82.0507 -32.6978 95.8831C-32.383 108.275 -18.1835 121.267 -7.82246 130.75L-6.2695 132.174L3.41324 141.611L0.931637 144.134Z" fill="#AFAFAF"/>
<path d="M62.7233 145.387L60.2852 142.824L73.0989 130.75C83.4626 121.267 97.6567 108.277 97.9768 95.8831C98.3337 82.0507 93.8829 75.337 84.407 66.3447L86.8557 63.791C96.8875 73.3048 101.909 80.8977 101.517 95.9722C101.163 109.854 86.3288 123.431 75.5001 133.343L73.9498 134.768L62.7233 145.387Z" fill="#AFAFAF"/>
<path d="M33.5299 184.862L31.0391 182.359L81.5813 132.692C93.1042 122.108 106.322 108.384 106.65 95.7639C107.002 81.98 104.016 74.6098 94.3713 65.4656L84.6174 56.5139L87.0226 53.9209L96.8002 62.8922C107.198 72.7519 110.575 81.0733 110.195 95.8582C109.838 109.715 96.7673 123.543 84.0326 135.237L33.5299 184.862Z" fill="#AFAFAF"/>
<path d="M30.5762 65.9729C30.5762 66.9543 31.3718 67.7418 32.3491 67.7418C33.3331 67.7418 34.126 66.953 34.126 65.9729C34.126 65.0007 33.3331 64.208 32.3491 64.208C31.3718 64.208 30.5762 64.9378 30.5762 65.9729Z" fill="#AFAFAF"/>
<path d="M14.5625 71.5705C14.5625 72.5466 15.3871 73.3354 16.4013 73.3354C17.4077 73.3354 18.227 72.5466 18.227 71.5705C18.227 70.5944 17.4077 69.8069 16.4013 69.8069C15.3871 69.8069 14.5625 70.5354 14.5625 71.5705Z" fill="#AFAFAF"/>
<path d="M30.5762 108.955C30.5762 109.931 31.3717 110.72 32.3517 110.72C33.3331 110.72 34.1221 109.93 34.1221 108.955C34.1221 107.98 33.3331 107.19 32.3517 107.19C31.3704 107.19 30.5762 107.92 30.5762 108.955Z" fill="#AFAFAF"/>
<path d="M30.5117 119.723C30.5117 120.699 31.3086 121.488 32.2873 121.488C33.266 121.488 34.0576 120.698 34.0576 119.723C34.0576 118.748 33.2647 117.963 32.2873 117.963C31.3099 117.963 30.5117 118.688 30.5117 119.723Z" fill="#AFAFAF"/>
<path d="M31.0438 184.862L-19.5379 135.206C-32.2305 123.543 -45.3024 109.714 -45.6527 95.8582C-46.036 81.0746 -42.6627 72.7532 -32.2858 62.9119L-22.4832 53.9209L-20.0806 56.5139L-29.8635 65.4852C-39.4882 74.6098 -42.4677 81.9747 -42.1121 95.7639C-41.7894 108.383 -28.5739 122.108 -17.0893 132.648L33.5333 182.353L31.0438 184.862Z" fill="#AFAFAF"/>
<path d="M34.124 65.9756H30.582V108.957H34.124V65.9756Z" fill="#AFAFAF"/>
<path d="M18.2171 71.4565H14.6738V114.438H18.2171V71.4565Z" fill="#AFAFAF"/>
<path d="M49.7738 71.5705C49.7738 72.5466 48.9545 73.3354 47.9455 73.3354C46.93 73.3354 46.1133 72.5466 46.1133 71.5705C46.1133 70.5944 46.93 69.8069 47.9455 69.8069C48.9545 69.8069 49.7738 70.5354 49.7738 71.5705Z" fill="#AFAFAF"/>
<path d="M49.6624 71.4565H46.1191V114.438H49.6624V71.4565Z" fill="#AFAFAF"/>
<path d="M32.9016 118.066L16.8438 112.353L15.6491 115.675L31.7069 121.389L32.9016 118.066Z" fill="#AFAFAF"/>
<path d="M48.8366 115.706L47.6426 112.383L31.5818 118.094L32.7758 121.416L48.8366 115.706Z" fill="#AFAFAF"/>
<path d="M31.1942 131.329L11.9328 112.141C11.6338 111.856 11.3032 111.524 10.9633 111.185C9.29707 109.498 7.40426 107.601 5.57467 107.601C3.57911 107.601 1.76006 109.509 1.76006 111.609H-1.7832C-1.7832 107.596 1.65733 104.071 5.57599 104.071C8.88611 104.071 11.4441 106.639 13.4923 108.706C13.8085 109.031 14.1207 109.341 14.421 109.627L33.71 128.834L31.1942 131.329Z" fill="#AFAFAF"/>
<path d="M33.1571 131.329L30.6465 128.834L49.9198 109.648C50.2398 109.342 50.5467 109.031 50.8681 108.711C52.9177 106.639 55.4665 104.071 58.7779 104.071C62.6979 104.071 66.145 107.595 66.145 111.609H62.5991C62.5991 109.509 60.78 107.601 58.7792 107.601C56.9483 107.601 55.0608 109.505 53.3919 111.185C53.0468 111.524 52.7227 111.856 52.4079 112.161L33.1571 131.329Z" fill="#AFAFAF"/>
<path d="M15.8475 152.239C6.2886 152.239 -1.7832 144.476 -1.7832 135.271H1.75741C1.75741 142.552 8.21302 148.718 15.8462 148.718C23.6137 148.718 29.931 142.852 29.931 135.637H33.4795C33.4822 144.79 25.5698 152.239 15.8475 152.239Z" fill="#AFAFAF"/>
<path d="M48.6524 152.235C39.0105 152.235 31.1719 144.787 31.1719 135.633H34.7125C34.7125 142.85 40.9639 148.715 48.6537 148.715C56.3409 148.715 62.5923 142.791 62.5923 135.524H66.1382C66.1382 144.742 58.2943 152.235 48.6524 152.235Z" fill="#AFAFAF"/>
<path d="M34.8417 129.148H29.5215V139.47H34.8417V129.148Z" fill="#AFAFAF"/>
<path d="M1.76006 111.495H-1.7832V135.635H1.76006V111.495Z" fill="#AFAFAF"/>
<path d="M66.1416 111.495H62.5957V135.635H66.1416V111.495Z" fill="#AFAFAF"/>
<path d="M32.2296 150.621C29.2738 150.621 26.7277 149.095 25.3828 147.794L27.8499 145.271L26.6157 146.527L27.842 145.26C28.2767 145.665 32.1848 149.131 36.3221 145.241L38.7563 147.809C36.5579 149.88 34.2923 150.621 32.2296 150.621Z" fill="#AFAFAF"/>
<path d="M32.1237 164.37C27.8322 164.37 24.7816 163.819 24.5906 163.783C11.7361 161.067 10.8601 150.706 10.8535 150.602L14.3889 150.36L12.6239 150.478L14.3889 150.341C14.4166 150.666 15.1581 158.188 25.2821 160.328C25.3032 160.328 31.7746 161.486 38.9204 160.312C49.7531 158.519 50.4854 150.686 50.5117 150.36L54.0484 150.592C54.0471 150.7 53.1896 161.531 39.5026 163.787C36.8656 164.229 34.326 164.37 32.1237 164.37Z" fill="#AFAFAF"/>
<path d="M82.3594 31.8366C82.3594 32.8127 83.1563 33.6107 84.1389 33.6107C85.1255 33.6107 85.9224 32.8127 85.9224 31.8366C85.9224 30.8604 85.1255 30.0625 84.1389 30.0625C83.1576 30.0625 82.3594 30.7962 82.3594 31.8366Z" fill="#AFAFAF"/>
<path d="M73.8828 44.6522C73.8828 45.6388 74.6836 46.4262 75.6676 46.4262C76.6515 46.4262 77.4485 45.6375 77.4485 44.6522C77.4485 43.676 76.6529 42.8833 75.6676 42.8833C74.6823 42.8833 73.8828 43.6079 73.8828 44.6522Z" fill="#AFAFAF"/>
<path d="M76.8195 45.9959L74.5078 43.3204C82.1568 36.7835 82.3649 31.8884 82.3649 31.8439L85.9134 31.8386C85.9134 32.0928 85.8212 38.3047 76.8195 45.9959Z" fill="#AFAFAF"/>
<path d="M21.2651 205.709C21.1821 205.709 21.0886 205.709 21.0043 205.695C19.5106 205.632 18.1697 204.995 17.2266 203.9L-36.0198 150.955L-79.9642 107.131C-81.0562 106.185 -81.6924 104.854 -81.7437 103.364C-81.8004 101.906 -81.2959 100.466 -80.3172 99.3219C-79.3425 98.1689 -78.0029 97.4299 -76.5513 97.2478C-75.0313 97.046 -73.5705 97.4692 -72.447 98.4165L-72.3271 98.5292L-57.9051 113.131L-60.4275 115.6L-74.7824 101.067C-75.1393 100.796 -75.6016 100.678 -76.0916 100.741C-76.6686 100.816 -77.21 101.116 -77.6091 101.594C-78.0174 102.071 -78.2281 102.649 -78.2005 103.226C-78.182 103.739 -77.9726 104.192 -77.613 104.497L-77.5011 104.601L-33.5106 148.46L19.8939 201.582C20.193 201.941 20.6434 202.149 21.1637 202.174C21.7485 202.189 22.3321 201.997 22.8049 201.599C23.7375 200.833 23.9707 199.586 23.3582 198.792L9.38663 184.925L11.8854 182.431L26.0413 196.48C27.9539 198.773 27.5218 202.279 25.0758 204.303C23.9852 205.217 22.6429 205.709 21.2651 205.709Z" fill="#AFAFAF"/>
<path d="M-64.1893 67.9812L-66.6973 65.4879L17.3137 -17.9806C18.2541 -19.0707 19.5924 -19.7062 21.0874 -19.7756C22.5482 -19.8503 24.0024 -19.3511 25.1668 -18.3907C26.3299 -17.429 27.082 -16.0978 27.2783 -14.6539C27.4877 -13.151 27.0781 -11.6966 26.131 -10.5672L26.0269 -10.444L4.71072 10.7782L2.2054 8.28347L23.4479 -12.8745C23.7219 -13.2296 23.8364 -13.6882 23.7693 -14.1756C23.6889 -14.7469 23.378 -15.2802 22.8986 -15.6785C22.4191 -16.0781 21.8554 -16.2746 21.2561 -16.255C20.7371 -16.2301 20.284 -16.0178 19.9784 -15.6588L19.8677 -15.5356L-64.1893 67.9812Z" fill="#AFAFAF"/>
<path d="M9.34423 174.078L-49.8691 115.478L-47.3717 112.979L11.839 171.569L9.34423 174.078Z" fill="#AFAFAF"/>
<path d="M6.70172 177.064L-52.6836 118.342L-55.1807 120.84L4.20465 179.563L6.70172 177.064Z" fill="#AFAFAF"/>
<path d="M30.8418 34.4395C30.8418 35.4405 31.6479 36.2437 32.6529 36.2437C33.6567 36.2437 34.472 35.4405 34.472 34.4395C34.472 33.4437 33.6567 32.6353 32.6529 32.6353C31.6479 32.6353 30.8418 33.4437 30.8418 34.4395Z" fill="#AFAFAF"/>
<path d="M84.2227 55.1439C84.2227 56.1253 85.0248 56.918 86.0075 56.918C86.9901 56.918 87.7883 56.124 87.7883 55.1439C87.7883 54.1678 86.9914 53.3738 86.0075 53.3738C85.0235 53.3738 84.2227 54.1036 84.2227 55.1439Z" fill="#AFAFAF"/>
<path d="M82.1992 31.8366C82.1992 32.8127 82.9948 33.6107 83.9787 33.6107C84.964 33.6107 85.7622 32.8127 85.7622 31.8366C85.7622 30.8604 84.9653 30.0625 83.9787 30.0625C82.9948 30.0625 82.1992 30.7962 82.1992 31.8366Z" fill="#AFAFAF"/>
<path d="M73.7227 44.6522C73.7227 45.6388 74.5169 46.4262 75.4996 46.4262C76.4861 46.4262 77.2843 45.6375 77.2843 44.6522C77.2843 43.676 76.4861 42.8833 75.4996 42.8833C74.5169 42.8833 73.7227 43.6079 73.7227 44.6522Z" fill="#AFAFAF"/>
<path d="M79.3496 49.9882C79.3496 50.9695 80.1478 51.7622 81.1318 51.7622C82.1131 51.7622 82.9113 50.9695 82.9113 49.9882C82.9113 49.0068 82.1144 48.2141 81.1318 48.2141C80.1478 48.2141 79.3496 48.9426 79.3496 49.9882Z" fill="#AFAFAF"/>
<path d="M84.666 44.6522C84.666 45.6388 85.4656 46.4262 86.4456 46.4262C87.4282 46.4262 88.2291 45.6375 88.2291 44.6522C88.2291 43.676 87.4295 42.8833 86.4456 42.8833C85.4669 42.8833 84.666 43.6079 84.666 44.6522Z" fill="#AFAFAF"/>
<path d="M116.82 108.966C116.82 109.941 117.62 110.736 118.604 110.736C119.586 110.736 120.387 109.942 120.387 108.966C120.387 107.985 119.588 107.192 118.604 107.192C117.621 107.191 116.82 107.921 116.82 108.966Z" fill="#AFAFAF"/>
<path d="M111.508 114.37C111.508 115.34 112.303 116.144 113.287 116.144C114.274 116.144 115.071 115.34 115.071 114.37C115.071 113.388 114.275 112.595 113.287 112.595C112.305 112.594 111.508 113.324 111.508 114.37Z" fill="#AFAFAF"/>
<path d="M116.82 119.734C116.82 120.71 117.62 121.504 118.604 121.504C119.586 121.504 120.387 120.71 120.387 119.734C120.387 118.758 119.588 117.96 118.604 117.96C117.621 117.958 116.82 118.697 116.82 119.734Z" fill="#AFAFAF"/>
<path d="M30.6602 45.0675C30.6602 46.0921 31.4939 46.9202 32.524 46.9202C33.5514 46.9202 34.3852 46.0921 34.3852 45.0675C34.3852 44.0415 33.5514 43.2122 32.524 43.2122C31.4939 43.2122 30.6602 44.0415 30.6602 45.0675Z" fill="#AFAFAF"/>
<path d="M47.0371 7.34488C47.0371 8.31578 47.8301 9.10845 48.8075 9.10845C49.7875 9.10845 50.5856 8.31578 50.5856 7.34488C50.5856 6.36874 49.7888 5.57471 48.8075 5.57471C47.8288 5.57471 47.0371 6.36874 47.0371 7.34488Z" fill="#AFAFAF"/>
<path d="M34.4731 1.90638C34.4731 2.87728 33.6788 3.67132 32.6975 3.67132C31.7188 3.67132 30.918 2.87859 30.918 1.90638C30.918 0.930245 31.7175 0.14673 32.6975 0.14673C33.6788 0.14542 34.4731 0.930245 34.4731 1.90638Z" fill="#AFAFAF"/>
<path d="M50.0642 6.08934L33.7773 -9.94751L31.28 -7.43793L47.5669 8.59893L50.0642 6.08934Z" fill="#AFAFAF"/>
<path d="M17.4843 8.59719L14.9961 6.08804L31.278 -9.94946L33.7741 -7.44033L17.4843 8.59719Z" fill="#AFAFAF"/>
<path d="M5.81221 9.52983C5.81221 10.506 5.0166 11.3 4.03792 11.3C3.06056 11.3 2.26367 10.506 2.26367 9.52983C2.26367 8.55893 3.05924 7.76489 4.03792 7.76489C5.0166 7.76358 5.81221 8.55893 5.81221 9.52983Z" fill="#AFAFAF"/>
<path d="M18.3884 17.5993C18.2554 18.713 17.5572 19.452 16.5272 19.452C15.509 19.452 14.8241 18.6252 14.6699 17.5993C14.5171 16.5838 15.509 15.7505 16.5272 15.7505C17.5572 15.7505 18.5083 16.5825 18.3884 17.5993Z" fill="#AFAFAF"/>
<path d="M15.0951 18.7082C9.41795 12.1268 3.74478 11.2685 3.68945 11.2594L4.14517 7.76489C4.43232 7.80027 11.1606 8.72662 17.7874 16.406L15.0951 18.7082Z" fill="#AFAFAF"/>
<path d="M33.9566 3.17122L31.4688 0.657715L15.2275 16.5639L17.7153 19.0774L33.9566 3.17122Z" fill="#AFAFAF"/>
<path d="M59.5762 9.52983C59.5762 10.506 60.3717 11.3 61.3504 11.3C62.3317 11.3 63.1234 10.506 63.1234 9.52983C63.1234 8.55893 62.3317 7.76489 61.3504 7.76489C60.3717 7.76358 59.5762 8.55893 59.5762 9.52983Z" fill="#AFAFAF"/>
<path d="M47.0046 17.5993C47.135 18.713 47.8383 19.452 48.8631 19.452C49.8879 19.452 50.5676 18.6252 50.723 17.5993C50.8732 16.5838 49.8879 15.7505 48.8631 15.7505C47.8383 15.7505 46.8834 16.5825 47.0046 17.5993Z" fill="#AFAFAF"/>
<path d="M50.2958 18.7082L47.6074 16.406C54.2356 8.72662 60.9625 7.80027 61.247 7.76489L61.6909 11.2594L61.4696 9.51411L61.7041 11.2594C61.6474 11.2685 55.9756 12.1268 50.2958 18.7082Z" fill="#AFAFAF"/>
<path d="M50.1921 16.5576L33.9414 0.664551L31.4563 3.17885L47.707 19.0719L50.1921 16.5576Z" fill="#AFAFAF"/>
<path d="M-23.381 70.1087L-25.8613 67.5904L19.2554 23.6576C22.007 19.7281 26.0113 15.2667 32.6605 15.1541C32.7501 15.1541 32.8357 15.1541 32.92 15.1541C38.717 15.1541 41.653 18.507 45.6968 23.1296L45.897 23.3615L90.226 67.6049L87.7168 70.0891L43.2706 25.7226L43.0256 25.4474C39.1635 21.0384 37.0626 18.6144 32.725 18.6773C27.638 18.7664 24.4834 22.3251 22.0768 25.8012L21.8568 26.0567L-23.381 70.1087Z" fill="#AFAFAF"/>
<path d="M63.8834 144.134L61.3965 141.611L71.0449 132.205L72.6309 130.75C82.9933 121.267 97.1861 108.277 97.5075 95.8831C97.8644 82.0455 93.4176 75.3317 83.943 66.3447L86.3864 63.791C96.4181 73.3048 101.439 80.8925 101.051 95.9722C100.694 109.854 85.8621 123.431 75.0334 133.343L73.4804 134.767L63.8834 144.134Z" fill="#AFAFAF"/>
<path d="M31.2781 184.862L-19.2655 135.206C-31.9606 123.543 -45.0299 109.714 -45.3855 95.8582C-45.7662 81.0746 -42.3929 72.7532 -32.0107 62.9119L-22.2134 53.9209L-19.8082 56.5139L-29.591 65.4852C-39.2158 74.6098 -42.1966 81.9747 -41.8423 95.773C-41.5156 108.383 -28.3015 122.108 -16.8181 132.648L33.7676 182.357L31.2781 184.862Z" fill="#AFAFAF"/>
<path d="M34.2283 65.9729C34.2283 66.9543 33.4327 67.7418 32.4527 67.7418C31.4687 67.7418 30.6758 66.953 30.6758 65.9729C30.6758 65.0007 31.4687 64.208 32.4527 64.208C33.434 64.208 34.2283 64.9378 34.2283 65.9729Z" fill="#AFAFAF"/>
<path d="M50.2334 71.5705C50.2334 72.5466 49.4194 73.3354 48.4078 73.3354C47.3948 73.3354 46.5742 72.5466 46.5742 71.5705C46.5742 70.5944 47.3948 69.8069 48.4078 69.8069C49.4194 69.8069 50.2334 70.5354 50.2334 71.5705Z" fill="#AFAFAF"/>
<path d="M34.2288 108.955C34.2288 109.931 33.4346 110.72 32.4519 110.72C31.4825 110.72 30.6816 109.93 30.6816 108.955C30.6816 107.98 31.4812 107.19 32.4519 107.19C33.4346 107.19 34.2288 107.92 34.2288 108.955Z" fill="#AFAFAF"/>
<path d="M34.2952 119.723C34.2952 120.699 33.5023 121.488 32.5289 121.488C31.5502 121.488 30.752 120.698 30.752 119.723C30.752 118.748 31.5489 117.963 32.5289 117.963C33.5023 117.963 34.2952 118.688 34.2952 119.723Z" fill="#AFAFAF"/>
<path d="M33.774 184.862L31.2832 182.353L81.861 132.692C93.3839 122.108 106.602 108.384 106.925 95.7639C107.28 81.9747 104.299 74.6098 94.6497 65.4656L84.8972 56.5139L87.2984 53.9209L97.0746 62.8922C107.475 72.7519 110.853 81.0733 110.475 95.8582C110.118 109.715 97.0496 123.543 84.3071 135.237L33.774 184.862Z" fill="#AFAFAF"/>
<path d="M34.2321 65.9756H30.6875V108.957H34.2321V65.9756Z" fill="#AFAFAF"/>
<path d="M50.1292 71.4565H46.582V114.438H50.1292V71.4565Z" fill="#AFAFAF"/>
<path d="M49.1859 115.647L47.9883 112.324L31.9343 118.05L33.132 121.373L49.1859 115.647Z" fill="#AFAFAF"/>
<path d="M33.2407 118.072L17.1816 112.358L15.9869 115.681L32.046 121.395L33.2407 118.072Z" fill="#AFAFAF"/>
<path d="M33.5977 131.329L31.0938 128.834L50.3604 109.648C50.6858 109.342 50.9927 109.031 51.3101 108.711C53.361 106.639 55.9124 104.071 59.2278 104.071C63.1491 104.071 66.5923 107.595 66.5923 111.609H63.0477C63.0477 109.509 61.2234 107.601 59.2291 107.601C57.3995 107.601 55.5014 109.505 53.8378 111.185C53.4993 111.524 53.1674 111.856 52.8539 112.161L33.5977 131.329Z" fill="#AFAFAF"/>
<path d="M31.6532 131.329L12.384 112.141C12.0836 111.856 11.757 111.524 11.4184 111.185C9.74824 109.498 7.85805 107.601 6.02978 107.601C4.03422 107.601 2.20991 109.509 2.20991 111.609H-1.33203C-1.33203 107.596 2.1098 104.071 6.0311 104.071C9.34386 104.071 11.8953 106.639 13.9435 108.706C14.2623 109.031 14.5731 109.341 14.8721 109.627L34.1638 128.834L31.6532 131.329Z" fill="#AFAFAF"/>
<path d="M48.9582 152.239C39.2373 152.239 31.3262 144.79 31.3262 135.637H34.8682C34.8682 142.854 41.1933 148.718 48.9569 148.718C56.594 148.718 63.0496 142.552 63.0496 135.271H66.5942C66.5955 144.476 58.5198 152.239 48.9582 152.239Z" fill="#AFAFAF"/>
<path d="M16.1485 152.235C6.5132 152.235 -1.33203 144.742 -1.33203 135.524H2.20991C2.20991 142.791 8.46002 148.715 16.1485 148.715C23.8357 148.715 30.0871 142.849 30.0871 135.633H33.629C33.6304 144.787 25.7864 152.235 16.1485 152.235Z" fill="#AFAFAF"/>
<path d="M35.2876 129.148H29.9688V139.47H35.2876V129.148Z" fill="#AFAFAF"/>
<path d="M66.5953 111.495H63.0508V135.635H66.5953V111.495Z" fill="#AFAFAF"/>
<path d="M32.5769 150.621C30.5089 150.621 28.2499 149.88 26.0449 147.81L28.4817 145.242C32.7403 149.245 36.7841 145.43 36.9527 145.271L39.4237 147.795C38.0789 149.096 35.5327 150.621 32.5769 150.621Z" fill="#AFAFAF"/>
<path d="M32.6793 164.369C30.4783 164.369 27.9453 164.226 25.3056 163.787C11.6173 161.53 10.7637 150.699 10.7598 150.592L14.3004 150.365C14.3268 150.686 15.0552 158.519 25.8878 160.312C33.0639 161.492 39.505 160.328 39.5722 160.312C49.6474 158.187 50.3956 150.665 50.4193 150.341L53.9586 150.602C53.9481 150.706 53.0735 161.067 40.2663 163.779C40.0464 163.808 36.9813 164.369 32.6793 164.369Z" fill="#AFAFAF"/>
<path d="M76.6639 45.9959L74.3535 43.3204C82.0051 36.7835 82.2119 31.8884 82.2119 31.8439L85.7578 31.8386C85.7578 32.0928 85.6683 38.3047 76.6639 45.9959Z" fill="#AFAFAF"/>
<path d="M79.9061 51.259L74.6426 46.2853L77.0873 43.7329L82.3482 48.7105L79.9061 51.259Z" fill="#AFAFAF"/>
<path d="M87.6951 45.9194L85.207 43.4099L80.093 48.427L82.581 50.9365L87.6951 45.9194Z" fill="#AFAFAF"/>
<path d="M133.502 94.1972L85.0938 45.8161L87.6083 43.3279L136.01 91.7025L133.502 94.1972Z" fill="#AFAFAF"/>
<path d="M135.92 94.1834L133.41 91.6934L117.341 107.719L119.85 110.209L135.92 94.1834Z" fill="#AFAFAF"/>
<path d="M125.025 112.995L119.861 107.706L117.318 110.163L122.482 115.452L125.025 112.995Z" fill="#AFAFAF"/>
<path d="M119.795 118.453L114.348 113.023L111.838 115.515L117.284 120.945L119.795 118.453Z" fill="#AFAFAF"/>
<path d="M43.5428 205.709C42.1663 205.709 40.8254 205.218 39.7282 204.304C38.5691 203.343 37.8183 202.013 37.6181 200.573C37.4086 199.07 37.817 197.614 38.7706 196.479L38.8746 196.367L52.9226 182.431L55.424 184.924L41.4498 198.792C41.1771 199.142 41.0678 199.606 41.1323 200.088C41.2114 200.67 41.5183 201.202 42.0004 201.599C42.4798 201.997 43.0778 202.188 43.6469 202.174C44.1632 202.149 44.6137 201.942 44.914 201.582L45.0273 201.464L98.3251 148.46L142.421 104.497C142.782 104.192 142.995 103.738 143.011 103.226C143.036 102.65 142.823 102.072 142.421 101.593C142.018 101.115 141.477 100.814 140.901 100.74C140.411 100.678 139.95 100.796 139.596 101.067L125.242 115.6L122.712 113.13L137.255 98.4161C138.384 97.4701 139.847 97.0508 141.354 97.2474C142.811 97.4308 144.152 98.1698 145.13 99.3215C146.106 100.467 146.61 101.905 146.553 103.364C146.496 104.852 145.867 106.183 144.771 107.131L100.833 150.951L47.5853 203.899C46.6395 204.994 45.3026 205.63 43.8076 205.694C43.7141 205.709 43.6337 205.709 43.5428 205.709Z" fill="#AFAFAF"/>
<path d="M140.008 87.8915C139.92 87.8915 139.832 87.8916 139.749 87.8811C138.25 87.8169 136.914 87.1761 135.966 86.0873L82.7246 33.136L85.2299 30.6426L138.63 83.7642C138.939 84.1285 139.387 84.3368 139.907 84.3656C140.492 84.3853 141.075 84.1835 141.556 83.7839C142.031 83.3829 142.341 82.847 142.419 82.2797C142.487 81.7923 142.373 81.3285 142.101 80.9734L127.596 66.5881L130.103 64.0947L144.78 78.666C145.731 79.7994 146.14 81.2486 145.933 82.758C145.733 84.2019 144.983 85.5278 143.82 86.4948C142.731 87.4028 141.385 87.8915 140.008 87.8915Z" fill="#AFAFAF"/>
<path d="M129.001 67.9811L44.8778 -15.5961L44.8277 -15.6603C44.5274 -16.0193 44.0756 -16.2316 43.5487 -16.2565C42.9625 -16.2761 42.3883 -16.0783 41.9088 -15.6799C41.428 -15.2816 41.1185 -14.7484 41.0421 -14.1771C40.9723 -13.6884 41.0868 -13.2298 41.3621 -12.876L62.6072 8.28198L60.0967 10.7767L38.6751 -10.5686C37.7228 -11.6981 37.317 -13.1525 37.5265 -14.6553C37.7227 -16.1005 38.4775 -17.4304 39.6393 -18.3922C40.8024 -19.3526 42.2368 -19.8518 43.716 -19.7771C45.211 -19.709 46.5506 -19.0722 47.495 -17.9821L131.503 65.4864L129.001 67.9811Z" fill="#AFAFAF"/>
<path d="M125.233 91.5278L103.215 69.6257L100.707 72.1208L122.725 94.0228L125.233 91.5278Z" fill="#AFAFAF"/>
<path d="M125.196 94.0172L122.684 91.5225L96.7357 117.377L99.2479 119.872L125.196 94.0172Z" fill="#AFAFAF"/>
<path d="M55.4767 174.078L52.9727 171.569L112.183 112.979L114.683 115.478L55.4767 174.078Z" fill="#AFAFAF"/>
<path d="M119.98 120.83L117.48 118.331L58.1203 177.079L60.6193 179.577L119.98 120.83Z" fill="#AFAFAF"/>
<path d="M5.60914 60.9252C4.13783 60.9252 2.66522 60.3395 1.58644 59.1865L-6.53016 51.2699L-4.04984 48.7503L4.17867 56.7704C4.89127 57.5592 6.11497 57.6181 6.90134 56.9093C7.67849 56.2083 7.75488 55.016 7.07126 54.2324L-8.82075 38.8081C-11.5302 36.244 -13.1372 32.8189 -13.3322 29.1751C-13.5258 25.4894 -12.2652 22.0277 -9.77307 19.4255C-4.65444 14.0718 4.10492 14.0718 9.75043 19.415L33.3823 43.7556L30.8388 46.2058L7.2517 21.9124C3.07223 17.9633 -3.43736 17.9148 -7.2085 21.8482C-9.01833 23.7507 -9.93642 26.2795 -9.79152 28.9851C-9.64795 31.7262 -8.43085 34.3087 -6.36153 36.2623L9.66747 51.8294C11.6946 54.0595 11.5168 57.5094 9.2802 59.5206C8.23566 60.4627 6.92371 60.9252 5.60914 60.9252Z" fill="#AFAFAF"/>
<path d="M21.49 55.2219C21.3991 55.2219 21.3003 55.2219 21.2108 55.2127C19.7698 55.1433 18.4407 54.5222 17.4581 53.4727L-4.45615 31.94C-6.37136 29.6222 -6.03286 26.1867 -3.69746 24.2789C-1.42266 22.4157 1.93091 22.6909 3.86851 24.8646L25.5378 46.1222C26.5204 47.1966 27.0236 48.5907 26.9485 50.0464C26.876 51.4955 26.2398 52.8359 25.1531 53.8134C24.1415 54.724 22.8454 55.2219 21.49 55.2219ZM-1.75985 29.6418L20.053 51.0605C20.3981 51.4444 20.8709 51.6672 21.3886 51.6921C21.9075 51.7117 22.3975 51.544 22.7795 51.1994C23.1641 50.8548 23.3868 50.3805 23.4105 49.8682C23.4368 49.3755 23.2643 48.8921 22.9389 48.5174L0.969372 26.9741C0.273891 26.4317 -0.732458 26.4173 -1.44506 26.999C-2.24855 27.6555 -2.38025 28.8282 -1.75985 29.6418Z" fill="#AFAFAF"/>
<path d="M-0.122122 98.1608C-0.21696 98.1608 -0.310498 98.1608 -0.402702 98.1556C-1.84635 98.0809 -3.17539 97.4612 -4.15407 96.4091L-27.9453 72.9974L-25.4519 70.4844L-1.55919 94.0047C-1.21408 94.3847 -0.735931 94.6062 -0.223541 94.6311C0.287533 94.6599 0.784116 94.483 1.16742 94.1384C1.94457 93.4387 2.01303 92.2464 1.32809 91.4563L-18.2797 72.2309L-15.7928 69.7166L3.92957 89.0703C5.9541 91.2886 5.77891 94.7398 3.54889 96.7497C2.52675 97.6669 1.23328 98.1608 -0.122122 98.1608Z" fill="#AFAFAF"/>
<path d="M64.7417 98.1602C63.3797 98.1602 62.0942 97.6676 61.076 96.7491C58.842 94.7378 58.6655 91.2879 60.6913 89.0697L60.7572 88.9897L80.4085 69.7146L82.9006 72.229L63.2902 91.4543C62.6052 92.2444 62.6764 93.4368 63.4561 94.1417C63.8368 94.4823 64.3295 94.6592 64.8418 94.6304C65.3595 94.6055 65.835 94.3841 66.1814 94.0041L66.2459 93.9294L90.0715 70.4837L92.5649 72.9968L68.7684 96.4084C67.8003 97.4593 66.4686 98.079 65.0236 98.155C64.9301 98.1602 64.8365 98.1602 64.7417 98.1602Z" fill="#AFAFAF"/>
<path d="M75.492 108.955C75.3906 108.955 75.276 108.955 75.1706 108.945C73.7098 108.861 72.3716 108.215 71.4008 107.132C70.4274 106.047 69.9387 104.647 70.023 103.198C70.102 101.763 70.7396 100.447 71.8012 99.4863L94.4913 76.6328L97.0111 79.1066L74.2038 102.079C73.8231 102.42 73.5966 102.893 73.5663 103.401C73.5373 103.914 73.7033 104.402 74.0523 104.788C74.3935 105.171 74.8611 105.398 75.3774 105.428C75.8674 105.453 76.3561 105.3 76.7355 104.975L97.3286 84.476L99.8365 86.9694L79.1288 107.576C78.1185 108.472 76.8382 108.955 75.492 108.955Z" fill="#AFAFAF"/>
<path d="M42.6377 55.2218C41.2757 55.2218 39.9848 54.724 38.9693 53.812C37.8839 52.8346 37.249 51.4942 37.1726 50.045C37.1015 48.5893 37.6047 47.1952 38.5807 46.1208L38.6571 46.0461L60.2631 24.8541C61.1786 23.8334 62.4312 23.1979 63.8117 23.0643C65.2659 22.9215 66.6898 23.3499 67.8212 24.2776C68.9514 25.1987 69.6521 26.5011 69.7957 27.9502C69.9353 29.398 69.5059 30.8144 68.576 31.9426L68.4495 32.0697L46.6604 53.4648C45.6883 54.5195 44.3567 55.1406 42.9143 55.21C42.8221 55.2218 42.7286 55.2218 42.6377 55.2218ZM41.1835 48.5173C40.8569 48.892 40.6896 49.3742 40.7106 49.8681C40.7396 50.3805 40.9635 50.8535 41.3455 51.1994C41.7249 51.544 42.2254 51.713 42.7391 51.692C43.2502 51.6671 43.7257 51.4457 44.0734 51.0605L44.1419 50.9923L65.8876 29.6418C66.1813 29.2526 66.3143 28.7783 66.2682 28.2961C66.2155 27.7825 65.9705 27.3292 65.5754 26.999C65.1776 26.6727 64.6758 26.5207 64.1594 26.5692C63.7867 26.6085 63.435 26.7474 63.1491 26.9741L41.1835 48.5173Z" fill="#AFAFAF"/>
<path d="M58.5119 60.923C57.2026 60.923 55.888 60.4605 54.8408 59.5184C52.6016 57.5019 52.4369 54.0573 54.4549 51.8272L54.5379 51.7486L70.4707 36.2797C72.5558 34.3078 73.7677 31.724 73.9152 28.9829C74.0614 26.2773 73.1433 23.7485 71.3256 21.846C69.5276 19.9631 67.0407 18.9228 64.3299 18.9228C64.3194 18.9228 64.3075 18.9228 64.2996 18.9228C61.5533 18.932 58.9084 20.0024 56.8496 21.9351L33.7894 46.273L31.209 43.8569L54.3706 19.4102C57.0946 16.8329 60.6168 15.4074 64.2852 15.3982C64.2996 15.3982 64.3128 15.3982 64.3299 15.3982C68.0194 15.3982 71.4112 16.8224 73.8967 19.4207C76.3849 22.0228 77.6547 25.4846 77.4532 29.1703C77.2583 32.8141 75.6552 36.2404 72.9312 38.8177L57.0537 54.2276C56.3688 55.0111 56.4412 56.2048 57.2197 56.9044C58.0087 57.6146 59.2297 57.5543 59.941 56.7656L60.0582 56.6529L68.815 48.6472L71.2123 51.2441L62.5096 59.2013C61.44 60.3465 59.9806 60.923 58.5119 60.923Z" fill="#AFAFAF"/>
<path d="M33.3801 33.1757L22.5215 21.8516L19.9557 24.2861L30.8143 35.6102L33.3801 33.1757Z" fill="#AFAFAF"/>
<path d="M44.5788 24.4085L42.0527 21.9387L31.0279 33.0963L33.554 35.5661L44.5788 24.4085Z" fill="#AFAFAF"/>
<path d="M16.4011 69.8069H-24.793V73.3354H16.4011V69.8069Z" fill="#AFAFAF"/>
<path d="M89.138 69.8069H47.9453V73.3354H89.138V69.8069Z" fill="#AFAFAF"/>
<path d="M17.6841 91.6983L-3.83203 70.3198L-6.33887 72.8163L15.1773 94.1948L17.6841 91.6983Z" fill="#AFAFAF"/>
<path d="M17.6875 81.4813L6.93555 70.3159L4.37315 72.7575L15.1251 83.9229L17.6875 81.4813Z" fill="#AFAFAF"/>
<path d="M59.195 60.9249C57.8844 60.9249 56.5738 60.4624 55.5266 59.5203C54.4426 58.5441 53.8024 57.2077 53.73 55.7533C53.6575 54.2989 54.1554 52.9087 55.142 51.8291L55.2158 51.7505L71.1512 36.2816C75.4018 32.2591 75.7786 25.7917 72.0127 21.8479C68.2403 17.9093 61.7306 17.963 57.5011 21.971L33.9694 46.2055L31.418 43.7553L54.9998 19.4606C60.7006 14.0676 69.4613 14.0676 74.5773 19.4213C79.6959 24.7645 79.2612 33.4711 73.6105 38.8196L57.7356 54.2295C57.4089 54.6095 57.2443 55.0824 57.268 55.5764C57.2943 56.0926 57.5209 56.5617 57.9016 56.9077C58.6919 57.6178 59.9103 57.5575 60.6294 56.7687L60.6979 56.6954L68.8554 48.7487L71.337 51.2683L63.2125 59.1849C62.1416 60.3379 60.6703 60.9249 59.195 60.9249Z" fill="#AFAFAF"/>
<path d="M43.3205 55.2218C41.9625 55.2218 40.6729 54.724 39.6521 53.812C37.4208 51.7995 37.2482 48.3443 39.2701 46.1208L39.3386 46.0461L60.9525 24.8541C61.868 23.8334 63.1206 23.1979 64.4945 23.0643C65.9553 22.9215 67.3765 23.3499 68.5106 24.2776C69.6368 25.1987 70.3402 26.5011 70.4838 27.9502C70.6234 29.398 70.1914 30.8144 69.2641 31.9426L69.1363 32.0697L47.3538 53.4701C46.3738 54.5196 45.0408 55.1406 43.6011 55.21C43.5115 55.2218 43.418 55.2218 43.3205 55.2218ZM41.8742 48.5173C41.1893 49.3061 41.2591 50.4932 42.0362 51.1981C42.4182 51.5427 42.9253 51.7117 43.4246 51.6907C43.9396 51.6658 44.4112 51.4444 44.7602 51.0592L44.8287 50.991L66.573 29.6405C66.8694 29.2513 67.0024 28.777 66.9537 28.2948C66.9102 27.7812 66.6573 27.3279 66.2608 26.9977C65.8631 26.6767 65.3546 26.5194 64.8475 26.5679C64.4734 26.6072 64.1296 26.7461 63.8438 26.9728L41.8742 48.5173Z" fill="#AFAFAF"/>
<path d="M64.9379 98.1615C63.6286 98.1615 62.314 97.6977 61.2695 96.7504C60.1841 95.7795 59.5479 94.443 59.4715 92.9886C59.4003 91.5356 59.9035 90.1389 60.8835 89.0592L60.9533 88.9897L80.598 69.7146L83.0876 72.229L63.4837 91.4544C63.1544 91.8356 62.9937 92.3126 63.0147 92.8105C63.0385 93.3188 63.2624 93.7918 63.6457 94.1364C64.4347 94.8466 65.6544 94.7877 66.3762 93.9989L66.4408 93.9294L90.265 70.4837L92.7571 72.9968L68.9645 96.4084C67.891 97.5693 66.4158 98.1615 64.9379 98.1615Z" fill="#AFAFAF"/>
<path d="M75.4067 108.955C75.3013 108.955 75.1933 108.955 75.084 108.945C73.6271 108.861 72.2836 108.215 71.3155 107.132C70.3381 106.047 69.8507 104.647 69.9376 103.198C70.0193 101.763 70.6476 100.447 71.7172 99.4863L94.402 76.6328L96.9244 79.1066L74.1211 102.079C73.7352 102.42 73.5059 102.893 73.477 103.401C73.448 103.914 73.6179 104.402 73.9643 104.788C74.3028 105.171 74.7718 105.398 75.2908 105.428C75.7953 105.458 76.2721 105.3 76.6514 104.975L97.2406 84.476L99.7472 86.9694L79.0408 107.576C78.0292 108.472 76.7449 108.955 75.4067 108.955Z" fill="#AFAFAF"/>
<path d="M44.809 24.2922L42.2402 21.8569L31.3872 33.1848L33.956 35.62L44.809 24.2922Z" fill="#AFAFAF"/>
<path d="M89.6075 69.8069H48.416V73.3354H89.6075V69.8069Z" fill="#AFAFAF"/>
<path d="M71.1498 72.8101L68.6445 70.3159L47.1333 91.6956L49.6386 94.1898L71.1498 72.8101Z" fill="#AFAFAF"/>
<path d="M49.6876 83.9583L47.1309 81.5186L57.8858 70.3474L60.4398 72.7923L49.6876 83.9583Z" fill="#AFAFAF"/>
<path d="M70.8176 72.8385L68.3066 70.344L46.8139 91.7507L49.3248 94.2452L70.8176 72.8385Z" fill="#AFAFAF"/>
<path d="M49.347 83.9583L46.7891 81.5186L57.54 70.3474L60.1007 72.7923L49.347 83.9583Z" fill="#AFAFAF"/>
</g>
<path d="M79.8398 153.498C79.8398 154.098 80.3298 154.578 80.9324 154.578C81.5329 154.578 82.0221 154.097 82.0221 153.498C82.0221 152.902 81.5329 152.413 80.9324 152.413C80.3291 152.413 79.8398 152.86 79.8398 153.498Z" fill="#AFAFAF"/>
<path d="M82.1623 153.498C82.1623 154.098 81.673 154.578 81.0697 154.578C80.4692 154.578 79.9785 154.098 79.9785 153.498C79.9785 152.902 80.4692 152.414 81.0697 152.414C81.673 152.414 82.1623 152.861 82.1623 153.498Z" fill="#AFAFAF"/>
<path d="M184.198 47.832C184.217 47.832 184.226 47.86 184.226 47.916C184.226 47.972 184.217 48 184.198 48H182.308C182.177 48 182.065 47.9673 181.972 47.902C181.879 47.8273 181.715 47.636 181.482 47.328C181.249 47.02 180.847 46.46 180.278 45.648L180.11 45.41C179.709 44.8407 179.415 44.444 179.228 44.22C179.041 43.9867 178.845 43.8233 178.64 43.73C178.444 43.6367 178.183 43.59 177.856 43.59H177.73V46.866C177.73 47.146 177.758 47.356 177.814 47.496C177.87 47.6267 177.977 47.7153 178.136 47.762C178.304 47.8087 178.561 47.832 178.906 47.832C178.925 47.832 178.934 47.86 178.934 47.916C178.934 47.972 178.925 48 178.906 48C178.598 48 178.355 47.9953 178.178 47.986L177.128 47.972L176.148 47.986C175.98 47.9953 175.742 48 175.434 48C175.415 48 175.406 47.972 175.406 47.916C175.406 47.86 175.415 47.832 175.434 47.832C175.779 47.832 176.031 47.8087 176.19 47.762C176.349 47.7153 176.456 47.6267 176.512 47.496C176.577 47.356 176.61 47.146 176.61 46.866V40.384C176.61 40.104 176.582 39.8987 176.526 39.768C176.47 39.6373 176.363 39.5487 176.204 39.502C176.045 39.446 175.793 39.418 175.448 39.418C175.429 39.418 175.42 39.39 175.42 39.334C175.42 39.278 175.429 39.25 175.448 39.25L176.162 39.264C176.554 39.2827 176.876 39.292 177.128 39.292C177.408 39.292 177.763 39.2827 178.192 39.264L178.906 39.25C178.925 39.25 178.934 39.278 178.934 39.334C178.934 39.39 178.925 39.418 178.906 39.418C178.57 39.418 178.318 39.446 178.15 39.502C177.991 39.558 177.879 39.656 177.814 39.796C177.758 39.9267 177.73 40.132 177.73 40.412V43.366C178.234 43.3473 178.547 43.338 178.668 43.338H178.85L180.474 41.084C180.875 40.5333 181.076 40.118 181.076 39.838C181.076 39.558 180.857 39.418 180.418 39.418C180.399 39.418 180.39 39.39 180.39 39.334C180.39 39.278 180.399 39.25 180.418 39.25L181.034 39.264C181.407 39.2827 181.748 39.292 182.056 39.292C182.392 39.292 182.737 39.2827 183.092 39.264L183.624 39.25C183.652 39.25 183.666 39.278 183.666 39.334C183.666 39.39 183.652 39.418 183.624 39.418C183.167 39.418 182.728 39.5487 182.308 39.81C181.888 40.0713 181.473 40.4633 181.062 40.986L179.186 43.366C179.466 43.394 179.699 43.4733 179.886 43.604C180.082 43.7253 180.273 43.9027 180.46 44.136C180.647 44.36 180.955 44.7707 181.384 45.368C181.832 46.0027 182.187 46.4787 182.448 46.796C182.709 47.1133 182.98 47.3653 183.26 47.552C183.54 47.7293 183.853 47.8227 184.198 47.832ZM185.082 48.168C184.858 48.168 184.681 48.1167 184.55 48.014C184.42 47.9207 184.354 47.7807 184.354 47.594C184.354 47.2487 184.564 47.076 184.984 47.076H185.278C185.801 47.076 186.249 46.7447 186.622 46.082C187.005 45.4193 187.29 44.5933 187.476 43.604C187.672 42.6147 187.77 41.644 187.77 40.692C187.77 40.244 187.677 39.922 187.49 39.726C187.313 39.5207 186.949 39.418 186.398 39.418C186.37 39.418 186.356 39.39 186.356 39.334C186.356 39.278 186.37 39.25 186.398 39.25H193.216C193.235 39.25 193.244 39.278 193.244 39.334C193.244 39.39 193.235 39.418 193.216 39.418C192.871 39.418 192.614 39.446 192.446 39.502C192.288 39.5487 192.176 39.6373 192.11 39.768C192.054 39.8987 192.026 40.104 192.026 40.384V46.866C192.026 47.146 192.054 47.356 192.11 47.496C192.176 47.6267 192.288 47.7153 192.446 47.762C192.614 47.8087 192.871 47.832 193.216 47.832C193.235 47.832 193.244 47.86 193.244 47.916C193.244 47.972 193.235 48 193.216 48C192.918 48 192.68 47.9953 192.502 47.986L191.508 47.972L190.472 47.986C190.304 47.9953 190.062 48 189.744 48C189.726 48 189.716 47.972 189.716 47.916C189.716 47.86 189.726 47.832 189.744 47.832C190.099 47.832 190.356 47.8087 190.514 47.762C190.673 47.7153 190.78 47.6267 190.836 47.496C190.892 47.3653 190.92 47.1553 190.92 46.866V40.482C190.92 40.1647 190.902 39.9547 190.864 39.852C190.836 39.7493 190.762 39.684 190.64 39.656C190.528 39.628 190.295 39.614 189.94 39.614H189.17C188.89 39.614 188.68 39.6373 188.54 39.684C188.4 39.7307 188.298 39.8287 188.232 39.978C188.167 40.1273 188.134 40.3653 188.134 40.692C188.134 41.6533 188.041 42.708 187.854 43.856C187.677 45.004 187.36 46.012 186.902 46.88C186.445 47.7387 185.838 48.168 185.082 48.168ZM202.383 39.25C202.411 39.25 202.425 39.278 202.425 39.334C202.425 39.39 202.411 39.418 202.383 39.418C202.131 39.418 201.884 39.5207 201.641 39.726C201.398 39.922 201.198 40.1927 201.039 40.538L198.071 47.104C197.903 47.4773 197.712 47.748 197.497 47.916C197.292 48.084 197.026 48.168 196.699 48.168C196.391 48.168 196.134 48.098 195.929 47.958C195.724 47.818 195.621 47.6313 195.621 47.398C195.621 47.23 195.677 47.0853 195.789 46.964C195.901 46.8333 196.055 46.768 196.251 46.768C196.428 46.768 196.559 46.8147 196.643 46.908C196.736 47.0013 196.82 47.132 196.895 47.3C196.942 47.412 196.988 47.5007 197.035 47.566C197.082 47.622 197.142 47.65 197.217 47.65C197.31 47.65 197.399 47.6033 197.483 47.51C197.567 47.4167 197.656 47.2627 197.749 47.048L198.141 46.18L195.075 40.412C194.87 40.0387 194.683 39.782 194.515 39.642C194.356 39.4927 194.142 39.418 193.871 39.418C193.852 39.418 193.843 39.39 193.843 39.334C193.843 39.278 193.852 39.25 193.871 39.25L194.375 39.264C194.655 39.2827 194.94 39.292 195.229 39.292C195.668 39.292 196.092 39.2827 196.503 39.264C196.643 39.2547 196.816 39.25 197.021 39.25C197.049 39.25 197.063 39.278 197.063 39.334C197.063 39.39 197.049 39.418 197.021 39.418C196.414 39.418 196.111 39.572 196.111 39.88C196.111 39.9827 196.153 40.1133 196.237 40.272L198.701 44.92L200.689 40.496C200.764 40.3467 200.801 40.1927 200.801 40.034C200.801 39.6233 200.451 39.418 199.751 39.418C199.723 39.418 199.709 39.39 199.709 39.334C199.709 39.278 199.723 39.25 199.751 39.25L200.339 39.264C200.675 39.2827 200.974 39.292 201.235 39.292C201.403 39.292 201.608 39.2827 201.851 39.264L202.383 39.25ZM206.32 43.058C207.309 43.058 208.103 43.2447 208.7 43.618C209.297 43.9913 209.596 44.584 209.596 45.396C209.596 45.9093 209.47 46.3667 209.218 46.768C208.975 47.1693 208.63 47.4867 208.182 47.72C207.734 47.944 207.225 48.056 206.656 48.056C206.404 48.056 206.11 48.042 205.774 48.014C205.634 48.0047 205.466 47.9953 205.27 47.986C205.074 47.9767 204.859 47.972 204.626 47.972L203.646 47.986C203.469 47.9953 203.231 48 202.932 48C202.904 48 202.89 47.972 202.89 47.916C202.89 47.86 202.904 47.832 202.932 47.832C203.268 47.832 203.515 47.8087 203.674 47.762C203.833 47.7153 203.94 47.6267 203.996 47.496C204.052 47.356 204.08 47.146 204.08 46.866V40.384C204.08 40.104 204.052 39.8987 203.996 39.768C203.94 39.6373 203.833 39.5487 203.674 39.502C203.525 39.446 203.282 39.418 202.946 39.418C202.927 39.418 202.918 39.39 202.918 39.334C202.918 39.278 202.927 39.25 202.946 39.25H208.574C208.658 39.25 208.709 39.264 208.728 39.292C208.756 39.32 208.77 39.3807 208.77 39.474L208.938 41.364C208.938 41.392 208.91 41.4107 208.854 41.42C208.807 41.42 208.779 41.406 208.77 41.378C208.658 40.79 208.439 40.3373 208.112 40.02C207.795 39.7027 207.403 39.544 206.936 39.544H206.208C205.919 39.544 205.704 39.572 205.564 39.628C205.424 39.6747 205.326 39.7633 205.27 39.894C205.214 40.0247 205.186 40.216 205.186 40.468V43.128C205.606 43.0813 205.984 43.058 206.32 43.058ZM206.39 47.776C207.09 47.776 207.599 47.608 207.916 47.272C208.243 46.936 208.406 46.432 208.406 45.76C208.406 44.92 208.191 44.3133 207.762 43.94C207.342 43.5667 206.735 43.38 205.942 43.38C205.671 43.38 205.419 43.3987 205.186 43.436V46.866C205.186 47.174 205.265 47.4027 205.424 47.552C205.592 47.7013 205.914 47.776 206.39 47.776ZM220.464 47.832C220.492 47.832 220.506 47.86 220.506 47.916C220.506 47.972 220.492 48 220.464 48C220.166 48 219.928 47.9953 219.75 47.986L218.742 47.972L217.636 47.986C217.478 47.9953 217.258 48 216.978 48C216.95 48 216.936 47.972 216.936 47.916C216.936 47.86 216.95 47.832 216.978 47.832C217.333 47.832 217.594 47.8087 217.762 47.762C217.93 47.7153 218.042 47.6267 218.098 47.496C218.154 47.356 218.182 47.146 218.182 46.866V43.604H213.086V46.866C213.086 47.146 213.114 47.356 213.17 47.496C213.226 47.6267 213.338 47.7153 213.506 47.762C213.674 47.8087 213.936 47.832 214.29 47.832C214.309 47.832 214.318 47.86 214.318 47.916C214.318 47.972 214.309 48 214.29 48C213.992 48 213.754 47.9953 213.576 47.986L212.498 47.972L211.504 47.986C211.327 47.9953 211.084 48 210.776 48C210.758 48 210.748 47.972 210.748 47.916C210.748 47.86 210.758 47.832 210.776 47.832C211.122 47.832 211.374 47.8087 211.532 47.762C211.7 47.7153 211.812 47.6267 211.868 47.496C211.934 47.356 211.966 47.146 211.966 46.866V40.384C211.966 40.104 211.938 39.8987 211.882 39.768C211.826 39.6373 211.719 39.5487 211.56 39.502C211.402 39.446 211.15 39.418 210.804 39.418C210.776 39.418 210.762 39.39 210.762 39.334C210.762 39.278 210.776 39.25 210.804 39.25L211.518 39.264C211.91 39.2827 212.237 39.292 212.498 39.292C212.797 39.292 213.161 39.2827 213.59 39.264L214.29 39.25C214.309 39.25 214.318 39.278 214.318 39.334C214.318 39.39 214.309 39.418 214.29 39.418C213.945 39.418 213.688 39.446 213.52 39.502C213.352 39.558 213.236 39.656 213.17 39.796C213.114 39.9267 213.086 40.132 213.086 40.412V43.282H218.182V40.412C218.182 40.132 218.15 39.9267 218.084 39.796C218.028 39.656 217.916 39.558 217.748 39.502C217.59 39.446 217.333 39.418 216.978 39.418C216.95 39.418 216.936 39.39 216.936 39.334C216.936 39.278 216.95 39.25 216.978 39.25L217.636 39.264C218.066 39.2827 218.434 39.292 218.742 39.292C219.004 39.292 219.34 39.2827 219.75 39.264L220.464 39.25C220.492 39.25 220.506 39.278 220.506 39.334C220.506 39.39 220.492 39.418 220.464 39.418C220.119 39.418 219.867 39.446 219.708 39.502C219.55 39.5487 219.438 39.6373 219.372 39.768C219.316 39.8987 219.288 40.104 219.288 40.384V46.866C219.288 47.146 219.316 47.356 219.372 47.496C219.438 47.6267 219.55 47.7153 219.708 47.762C219.867 47.8087 220.119 47.832 220.464 47.832ZM230.835 47.832C230.872 47.832 230.891 47.86 230.891 47.916C230.891 47.972 230.872 48 230.835 48C230.658 48 230.373 47.9907 229.981 47.972C229.608 47.9533 229.332 47.944 229.155 47.944C228.94 47.944 228.674 47.9533 228.357 47.972C228.04 47.9907 227.802 48 227.643 48C227.606 48 227.587 47.972 227.587 47.916C227.587 47.86 227.606 47.832 227.643 47.832C227.96 47.832 228.189 47.804 228.329 47.748C228.469 47.6827 228.539 47.5707 228.539 47.412C228.539 47.2533 228.469 47.034 228.329 46.754L226.761 43.506H224.185L223.037 46.152C222.906 46.46 222.841 46.7167 222.841 46.922C222.841 47.5287 223.294 47.832 224.199 47.832C224.246 47.832 224.269 47.86 224.269 47.916C224.269 47.972 224.246 48 224.199 48C224.031 48 223.788 47.9907 223.471 47.972C223.116 47.9533 222.808 47.944 222.547 47.944C222.304 47.944 222.015 47.9533 221.679 47.972C221.38 47.9907 221.138 48 220.951 48C220.914 48 220.895 47.972 220.895 47.916C220.895 47.86 220.914 47.832 220.951 47.832C221.212 47.832 221.432 47.7807 221.609 47.678C221.796 47.5753 221.973 47.398 222.141 47.146C222.309 46.894 222.5 46.5207 222.715 46.026L225.697 39.152C225.706 39.124 225.739 39.11 225.795 39.11C225.851 39.1007 225.884 39.1147 225.893 39.152L229.267 46.082C229.584 46.7633 229.855 47.2253 230.079 47.468C230.303 47.7107 230.555 47.832 230.835 47.832ZM224.311 43.184H226.607L225.403 40.664L224.311 43.184ZM238.816 47.832C238.834 47.832 238.844 47.86 238.844 47.916C238.844 47.972 238.834 48 238.816 48C238.498 48 238.251 47.9953 238.074 47.986L237.08 47.972L236.086 47.986C235.908 47.9953 235.67 48 235.372 48C235.353 48 235.344 47.972 235.344 47.916C235.344 47.86 235.353 47.832 235.372 47.832C235.717 47.832 235.964 47.8087 236.114 47.762C236.272 47.7153 236.375 47.6267 236.422 47.496C236.478 47.3653 236.506 47.1553 236.506 46.866V43.478C236.226 43.506 235.974 43.5853 235.75 43.716C235.535 43.8373 235.306 44.0473 235.064 44.346C234.83 44.6447 234.55 45.0787 234.224 45.648C233.766 46.4413 233.426 47.006 233.202 47.342C232.978 47.6687 232.819 47.86 232.726 47.916C232.632 47.972 232.511 48 232.362 48H230.794C230.766 48 230.752 47.972 230.752 47.916C230.752 47.86 230.766 47.832 230.794 47.832C231.111 47.8227 231.386 47.734 231.62 47.566C231.853 47.3887 232.072 47.1507 232.278 46.852C232.483 46.5533 232.791 46.0587 233.202 45.368C233.556 44.752 233.897 44.304 234.224 44.024C234.56 43.7347 234.942 43.548 235.372 43.464C234.532 43.3893 233.888 43.17 233.44 42.806C233.001 42.4327 232.782 41.952 232.782 41.364C232.782 40.944 232.894 40.5707 233.118 40.244C233.351 39.9173 233.668 39.6653 234.07 39.488C234.48 39.3013 234.942 39.208 235.456 39.208C235.67 39.208 235.918 39.222 236.198 39.25C236.31 39.2593 236.44 39.2687 236.59 39.278C236.739 39.2873 236.902 39.292 237.08 39.292C237.341 39.292 237.668 39.2827 238.06 39.264L238.802 39.25C238.82 39.25 238.83 39.278 238.83 39.334C238.83 39.39 238.82 39.418 238.802 39.418C238.447 39.418 238.19 39.446 238.032 39.502C237.873 39.5487 237.766 39.6373 237.71 39.768C237.654 39.8987 237.626 40.104 237.626 40.384V46.866C237.626 47.1553 237.654 47.3653 237.71 47.496C237.766 47.6267 237.873 47.7153 238.032 47.762C238.2 47.8087 238.461 47.832 238.816 47.832ZM233.93 41.014C233.93 41.686 234.112 42.2273 234.476 42.638C234.849 43.0393 235.39 43.24 236.1 43.24C236.277 43.24 236.412 43.2353 236.506 43.226V40.412C236.506 40.0387 236.403 39.7773 236.198 39.628C236.002 39.4693 235.75 39.39 235.442 39.39C234.434 39.39 233.93 39.9313 233.93 41.014ZM251.764 47.832C251.783 47.832 251.792 47.86 251.792 47.916C251.792 47.972 251.783 48 251.764 48H249.874C249.744 48 249.632 47.9673 249.538 47.902C249.445 47.8273 249.282 47.636 249.048 47.328C248.815 47.02 248.414 46.46 247.844 45.648L247.676 45.41C247.275 44.8407 246.981 44.444 246.794 44.22C246.608 43.9867 246.412 43.8233 246.206 43.73C246.01 43.6367 245.749 43.59 245.422 43.59H245.296V46.866C245.296 47.146 245.324 47.356 245.38 47.496C245.436 47.6267 245.544 47.7153 245.702 47.762C245.87 47.8087 246.127 47.832 246.472 47.832C246.491 47.832 246.5 47.86 246.5 47.916C246.5 47.972 246.491 48 246.472 48C246.164 48 245.922 47.9953 245.744 47.986L244.694 47.972L243.714 47.986C243.546 47.9953 243.308 48 243 48C242.982 48 242.972 47.972 242.972 47.916C242.972 47.86 242.982 47.832 243 47.832C243.346 47.832 243.598 47.8087 243.756 47.762C243.915 47.7153 244.022 47.6267 244.078 47.496C244.144 47.356 244.176 47.146 244.176 46.866V40.384C244.176 40.104 244.148 39.8987 244.092 39.768C244.036 39.6373 243.929 39.5487 243.77 39.502C243.612 39.446 243.36 39.418 243.014 39.418C242.996 39.418 242.986 39.39 242.986 39.334C242.986 39.278 242.996 39.25 243.014 39.25L243.728 39.264C244.12 39.2827 244.442 39.292 244.694 39.292C244.974 39.292 245.329 39.2827 245.758 39.264L246.472 39.25C246.491 39.25 246.5 39.278 246.5 39.334C246.5 39.39 246.491 39.418 246.472 39.418C246.136 39.418 245.884 39.446 245.716 39.502C245.558 39.558 245.446 39.656 245.38 39.796C245.324 39.9267 245.296 40.132 245.296 40.412V43.366C245.8 43.3473 246.113 43.338 246.234 43.338H246.416L248.04 41.084C248.442 40.5333 248.642 40.118 248.642 39.838C248.642 39.558 248.423 39.418 247.984 39.418C247.966 39.418 247.956 39.39 247.956 39.334C247.956 39.278 247.966 39.25 247.984 39.25L248.6 39.264C248.974 39.2827 249.314 39.292 249.622 39.292C249.958 39.292 250.304 39.2827 250.658 39.264L251.19 39.25C251.218 39.25 251.232 39.278 251.232 39.334C251.232 39.39 251.218 39.418 251.19 39.418C250.733 39.418 250.294 39.5487 249.874 39.81C249.454 40.0713 249.039 40.4633 248.628 40.986L246.752 43.366C247.032 43.394 247.266 43.4733 247.452 43.604C247.648 43.7253 247.84 43.9027 248.026 44.136C248.213 44.36 248.521 44.7707 248.95 45.368C249.398 46.0027 249.753 46.4787 250.014 46.796C250.276 47.1133 250.546 47.3653 250.826 47.552C251.106 47.7293 251.419 47.8227 251.764 47.832ZM261.679 47.832C261.716 47.832 261.735 47.86 261.735 47.916C261.735 47.972 261.716 48 261.679 48C261.501 48 261.217 47.9907 260.825 47.972C260.451 47.9533 260.176 47.944 259.999 47.944C259.784 47.944 259.518 47.9533 259.201 47.972C258.883 47.9907 258.645 48 258.487 48C258.449 48 258.431 47.972 258.431 47.916C258.431 47.86 258.449 47.832 258.487 47.832C258.804 47.832 259.033 47.804 259.173 47.748C259.313 47.6827 259.383 47.5707 259.383 47.412C259.383 47.2533 259.313 47.034 259.173 46.754L257.605 43.506H255.029L253.881 46.152C253.75 46.46 253.685 46.7167 253.685 46.922C253.685 47.5287 254.137 47.832 255.043 47.832C255.089 47.832 255.113 47.86 255.113 47.916C255.113 47.972 255.089 48 255.043 48C254.875 48 254.632 47.9907 254.315 47.972C253.96 47.9533 253.652 47.944 253.391 47.944C253.148 47.944 252.859 47.9533 252.523 47.972C252.224 47.9907 251.981 48 251.795 48C251.757 48 251.739 47.972 251.739 47.916C251.739 47.86 251.757 47.832 251.795 47.832C252.056 47.832 252.275 47.7807 252.453 47.678C252.639 47.5753 252.817 47.398 252.985 47.146C253.153 46.894 253.344 46.5207 253.559 46.026L256.541 39.152C256.55 39.124 256.583 39.11 256.639 39.11C256.695 39.1007 256.727 39.1147 256.737 39.152L260.111 46.082C260.428 46.7633 260.699 47.2253 260.923 47.468C261.147 47.7107 261.399 47.832 261.679 47.832ZM255.155 43.184H257.451L256.247 40.664L255.155 43.184ZM264.493 46.81C264.493 47.1087 264.531 47.328 264.605 47.468C264.68 47.5987 264.82 47.692 265.025 47.748C265.24 47.804 265.581 47.832 266.047 47.832C266.075 47.832 266.089 47.86 266.089 47.916C266.089 47.972 266.075 48 266.047 48C265.665 48 265.366 47.9953 265.151 47.986L263.933 47.972L262.967 47.986C262.79 47.9953 262.547 48 262.239 48C262.221 48 262.211 47.972 262.211 47.916C262.211 47.86 262.221 47.832 262.239 47.832C262.575 47.832 262.818 47.8087 262.967 47.762C263.126 47.7153 263.233 47.6267 263.289 47.496C263.345 47.356 263.373 47.146 263.373 46.866V40.384C263.373 40.104 263.345 39.8987 263.289 39.768C263.233 39.6373 263.126 39.5487 262.967 39.502C262.818 39.446 262.575 39.418 262.239 39.418C262.221 39.418 262.211 39.39 262.211 39.334C262.211 39.278 262.221 39.25 262.239 39.25L262.967 39.264C263.359 39.2827 263.677 39.292 263.919 39.292C264.143 39.292 264.409 39.278 264.717 39.25C264.829 39.25 265.002 39.2453 265.235 39.236C265.478 39.2173 265.688 39.208 265.865 39.208C266.743 39.208 267.447 39.404 267.979 39.796C268.511 40.1787 268.777 40.762 268.777 41.546C268.777 42.1527 268.623 42.666 268.315 43.086C268.017 43.506 267.629 43.8187 267.153 44.024C266.687 44.2293 266.201 44.332 265.697 44.332C265.427 44.332 265.203 44.3087 265.025 44.262C264.997 44.262 264.983 44.2387 264.983 44.192C264.983 44.164 264.988 44.136 264.997 44.108C265.016 44.08 265.035 44.0707 265.053 44.08C265.203 44.1173 265.371 44.136 265.557 44.136C266.108 44.136 266.575 43.9353 266.957 43.534C267.34 43.1327 267.531 42.554 267.531 41.798C267.531 41.0607 267.345 40.4867 266.971 40.076C266.598 39.656 266.103 39.446 265.487 39.446C265.207 39.446 264.997 39.4693 264.857 39.516C264.727 39.5533 264.633 39.642 264.577 39.782C264.521 39.9127 264.493 40.1227 264.493 40.412V46.81ZM272.122 39.53C271.543 39.53 271.091 39.6933 270.764 40.02C270.437 40.3373 270.195 40.8507 270.036 41.56C270.027 41.5787 269.994 41.588 269.938 41.588C269.891 41.588 269.868 41.5787 269.868 41.56C269.905 41.2893 269.947 40.86 269.994 40.272C270.041 39.684 270.064 39.2407 270.064 38.942C270.064 38.8953 270.092 38.872 270.148 38.872C270.204 38.872 270.232 38.8953 270.232 38.942C270.232 39.1473 270.489 39.25 271.002 39.25C271.795 39.278 272.733 39.292 273.816 39.292C274.367 39.292 274.95 39.2827 275.566 39.264L276.518 39.25C276.863 39.25 277.115 39.2267 277.274 39.18C277.433 39.1333 277.535 39.04 277.582 38.9C277.591 38.8627 277.619 38.844 277.666 38.844C277.722 38.844 277.75 38.8627 277.75 38.9C277.722 39.1613 277.689 39.5813 277.652 40.16C277.624 40.7387 277.61 41.2053 277.61 41.56C277.61 41.5787 277.582 41.588 277.526 41.588C277.479 41.588 277.456 41.5787 277.456 41.56C277.391 40.8413 277.204 40.3233 276.896 40.006C276.588 39.6887 276.131 39.53 275.524 39.53C275.179 39.53 274.931 39.5533 274.782 39.6C274.633 39.6373 274.53 39.7167 274.474 39.838C274.418 39.95 274.39 40.1413 274.39 40.412V46.866C274.39 47.1553 274.418 47.3653 274.474 47.496C274.539 47.6267 274.661 47.7153 274.838 47.762C275.015 47.8087 275.3 47.832 275.692 47.832C275.711 47.832 275.72 47.86 275.72 47.916C275.72 47.972 275.711 48 275.692 48C275.365 48 275.109 47.9953 274.922 47.986L273.816 47.972L272.738 47.986C272.551 47.9953 272.29 48 271.954 48C271.926 48 271.912 47.972 271.912 47.916C271.912 47.86 271.926 47.832 271.954 47.832C272.337 47.832 272.617 47.8087 272.794 47.762C272.971 47.7153 273.093 47.6267 273.158 47.496C273.223 47.356 273.256 47.146 273.256 46.866V40.384C273.256 40.1227 273.228 39.936 273.172 39.824C273.116 39.7027 273.013 39.6233 272.864 39.586C272.715 39.5487 272.467 39.53 272.122 39.53ZM287.136 47.832C287.173 47.832 287.192 47.86 287.192 47.916C287.192 47.972 287.173 48 287.136 48C286.958 48 286.674 47.9907 286.282 47.972C285.908 47.9533 285.633 47.944 285.456 47.944C285.241 47.944 284.975 47.9533 284.658 47.972C284.34 47.9907 284.102 48 283.944 48C283.906 48 283.888 47.972 283.888 47.916C283.888 47.86 283.906 47.832 283.944 47.832C284.261 47.832 284.49 47.804 284.63 47.748C284.77 47.6827 284.84 47.5707 284.84 47.412C284.84 47.2533 284.77 47.034 284.63 46.754L283.062 43.506H280.486L279.338 46.152C279.207 46.46 279.142 46.7167 279.142 46.922C279.142 47.5287 279.594 47.832 280.5 47.832C280.546 47.832 280.57 47.86 280.57 47.916C280.57 47.972 280.546 48 280.5 48C280.332 48 280.089 47.9907 279.772 47.972C279.417 47.9533 279.109 47.944 278.848 47.944C278.605 47.944 278.316 47.9533 277.98 47.972C277.681 47.9907 277.438 48 277.252 48C277.214 48 277.196 47.972 277.196 47.916C277.196 47.86 277.214 47.832 277.252 47.832C277.513 47.832 277.732 47.7807 277.91 47.678C278.096 47.5753 278.274 47.398 278.442 47.146C278.61 46.894 278.801 46.5207 279.016 46.026L281.998 39.152C282.007 39.124 282.04 39.11 282.096 39.11C282.152 39.1007 282.184 39.1147 282.194 39.152L285.568 46.082C285.885 46.7633 286.156 47.2253 286.38 47.468C286.604 47.7107 286.856 47.832 287.136 47.832ZM280.612 43.184H282.908L281.704 40.664L280.612 43.184Z" fill="#CACACA"/>
<path fill-rule="evenodd" clip-rule="evenodd" d="M220.498 99.7386C220.498 99.896 220.498 99.9916 220.498 100.085C220.498 102.937 220.498 105.79 220.498 108.642C220.495 109.417 220.152 109.761 219.368 109.761C218.562 109.761 217.756 109.761 216.949 109.761C216.246 109.761 215.882 109.395 215.882 108.686C215.882 104.38 215.882 100.07 215.882 95.7614C215.882 94.1807 215.879 92.6004 215.882 91.0197C215.885 90.2545 216.579 89.7807 217.226 90.102C217.349 90.1638 217.46 90.2594 217.56 90.3527C220.866 93.5033 224.166 96.6522 227.469 99.8004C227.535 99.8642 227.606 99.9253 227.719 100.026C227.719 99.8793 227.719 99.7879 227.719 99.6949C227.719 96.8362 227.719 93.9751 227.719 91.1136C227.719 90.353 228.068 90.0094 228.83 90.0067C229.656 90.0067 230.481 90.0044 231.305 90.0094C231.956 90.0094 232.332 90.3826 232.332 91.0427C232.335 96.9393 232.332 102.836 232.332 108.733C232.332 109.168 232.173 109.509 231.763 109.685C231.34 109.862 230.984 109.734 230.661 109.425C227.354 106.267 224.045 103.114 220.736 99.9598C220.675 99.9006 220.61 99.8415 220.498 99.7386ZM219.552 97.533C223.517 101.314 227.434 105.047 231.374 108.806C231.374 102.818 231.374 96.8897 231.374 90.9635C230.462 90.9635 229.571 90.9635 228.651 90.9635C228.651 94.7107 228.651 98.4435 228.651 102.227C224.696 98.453 220.783 94.7229 216.836 90.9586C216.836 96.9439 216.836 102.87 216.836 108.811C217.744 108.811 218.635 108.811 219.552 108.811C219.552 105.066 219.552 101.331 219.552 97.533Z" fill="#CACACA"/>
<path fill-rule="evenodd" clip-rule="evenodd" d="M280.662 99.7287C280.662 99.8881 280.662 99.9791 280.662 100.075C280.662 102.934 280.662 105.792 280.662 108.656C280.662 109.424 280.324 109.76 279.556 109.76C278.74 109.76 277.924 109.76 277.109 109.76C276.431 109.76 276.065 109.399 276.065 108.725C276.065 102.835 276.065 96.9485 276.061 91.0591C276.061 90.6099 276.21 90.2636 276.63 90.0823C277.049 89.9055 277.408 90.0356 277.731 90.3421C280.993 93.4585 284.256 96.57 287.519 99.6847C287.621 99.78 287.722 99.8759 287.878 100.02C287.885 99.8588 287.895 99.7531 287.895 99.6473C287.895 96.8499 287.895 94.0522 287.895 91.2499C287.895 91.1445 287.892 91.0413 287.9 90.9335C287.932 90.3688 288.301 90.0103 288.869 90.0083C289.746 90.0034 290.624 90.0034 291.499 90.0083C292.135 90.0106 292.503 90.3914 292.503 91.0338C292.503 96.2217 292.503 101.407 292.503 106.592C292.503 107.294 292.494 107.998 292.506 108.7C292.513 109.145 292.361 109.497 291.942 109.679C291.511 109.868 291.149 109.726 290.82 109.411C288.704 107.385 286.581 105.365 284.46 103.34C283.294 102.226 282.125 101.113 280.956 99.9982C280.875 99.92 280.793 99.849 280.662 99.7287ZM279.725 97.5304C283.695 101.314 287.603 105.042 291.546 108.801C291.546 102.811 291.546 96.8897 291.546 90.9611C290.638 90.9611 289.748 90.9611 288.82 90.9611C288.82 94.7057 288.82 98.4332 288.82 102.222C284.865 98.448 280.959 94.7228 277.015 90.9631C277.015 96.9557 277.015 102.874 277.015 108.806C277.922 108.806 278.811 108.806 279.725 108.806C279.725 105.064 279.725 101.339 279.725 97.5304Z" fill="#CACACA"/>
<path fill-rule="evenodd" clip-rule="evenodd" d="M206.747 94.4476C206.747 95.3508 206.747 96.2094 206.747 97.1123C206.855 97.1123 206.956 97.1123 207.056 97.1123C208.96 97.1123 210.864 97.11 212.768 97.1123C213.52 97.1123 213.865 97.4585 213.865 98.2044C213.867 98.9653 213.867 99.7286 213.865 100.491C213.865 101.188 213.509 101.552 212.818 101.552C210.896 101.552 208.975 101.552 207.053 101.552C206.958 101.552 206.864 101.552 206.753 101.552C206.753 102.81 206.753 104.045 206.753 105.316C206.861 105.316 206.963 105.316 207.065 105.316C208.951 105.316 210.838 105.333 212.724 105.309C213.498 105.297 213.909 105.763 213.873 106.472C213.838 107.233 213.869 107.998 213.865 108.759C213.862 109.378 213.48 109.76 212.864 109.76C209.615 109.76 206.369 109.76 203.123 109.76C202.522 109.76 202.125 109.375 202.125 108.779C202.123 102.848 202.123 96.9164 202.125 90.983C202.125 90.3968 202.515 90.0088 203.103 90.0088C206.367 90.0062 209.631 90.0062 212.896 90.0088C213.485 90.0088 213.863 90.3968 213.865 90.9876C213.87 91.8021 213.869 92.6195 213.865 93.437C213.864 94.0721 213.495 94.4453 212.85 94.4453C210.928 94.4503 209.007 94.4476 207.084 94.4476C206.98 94.4476 206.877 94.4476 206.747 94.4476ZM203.084 90.9583C203.084 96.926 203.084 102.865 203.084 108.806C206.369 108.806 209.638 108.806 212.908 108.806C212.908 107.949 212.908 107.11 212.908 106.244C210.534 106.244 208.18 106.244 205.814 106.244C205.814 104.357 205.814 102.501 205.814 100.614C208.185 100.614 210.541 100.614 212.911 100.614C212.911 99.748 212.911 98.9111 212.911 98.045C210.536 98.045 208.18 98.045 205.812 98.045C205.812 96.5261 205.812 95.0371 205.812 93.5076C208.183 93.5076 210.545 93.5076 212.906 93.5076C212.906 92.6314 212.906 91.7948 212.906 90.958C209.621 90.9583 206.359 90.9583 203.084 90.9583Z" fill="#CACACA"/>
<path fill-rule="evenodd" clip-rule="evenodd" d="M179.626 94.4488C179.626 95.3543 179.626 96.2181 179.626 97.1134C179.744 97.1134 179.848 97.1134 179.95 97.1134C181.846 97.1134 183.741 97.1111 185.637 97.1134C186.4 97.1134 186.741 97.4597 186.741 98.2229C186.741 98.996 186.744 99.7688 186.741 100.54C186.741 101.177 186.365 101.55 185.724 101.553C183.803 101.553 181.882 101.553 179.96 101.553C179.856 101.553 179.753 101.553 179.625 101.553C179.618 101.669 179.608 101.762 179.608 101.855C179.608 102.908 179.615 103.96 179.603 105.013C179.599 105.251 179.662 105.324 179.907 105.322C181.803 105.315 183.698 105.317 185.594 105.319C186.412 105.319 186.741 105.651 186.741 106.466C186.741 107.228 186.744 107.992 186.741 108.758C186.74 109.374 186.355 109.761 185.741 109.761C182.494 109.761 179.247 109.761 176.001 109.761C175.387 109.761 175 109.374 175 108.76C175 102.843 175 96.9317 175 91.0153C175 90.3924 175.377 90.0093 175.996 90.0093C179.243 90.0067 182.489 90.0067 185.736 90.0093C186.371 90.0093 186.741 90.3924 186.741 91.0321C186.744 91.8328 186.744 92.6296 186.741 93.4276C186.74 94.0677 186.373 94.4462 185.729 94.4462C183.807 94.4511 181.887 94.4485 179.966 94.4485C179.862 94.4488 179.758 94.4488 179.626 94.4488ZM185.788 98.0416C183.41 98.0416 181.054 98.0416 178.689 98.0416C178.689 96.5226 178.689 95.0359 178.689 93.5163C181.059 93.5163 183.415 93.5163 185.787 93.5163C185.787 92.6506 185.787 91.8111 185.787 90.9598C182.504 90.9598 179.237 90.9598 175.962 90.9598C175.962 96.9202 175.962 102.862 175.962 108.805C179.249 108.805 182.517 108.805 185.781 108.805C185.781 107.946 185.781 107.106 185.781 106.24C183.407 106.24 181.052 106.24 178.693 106.24C178.693 104.356 178.693 102.498 178.693 100.613C181.065 100.613 183.421 100.613 185.788 100.613C185.788 99.7517 185.788 98.9224 185.788 98.0416Z" fill="#CACACA"/>
<path fill-rule="evenodd" clip-rule="evenodd" d="M271.92 109.761C271.462 109.761 271.008 109.753 270.551 109.763C270.061 109.773 269.741 109.55 269.55 109.105C269.059 107.962 268.559 106.821 268.073 105.68C267.996 105.498 267.901 105.439 267.705 105.439C265.73 105.447 263.757 105.447 261.783 105.439C261.593 105.439 261.508 105.503 261.434 105.67C260.931 106.799 260.408 107.918 259.912 109.046C259.696 109.545 259.36 109.778 258.813 109.765C257.927 109.745 257.041 109.76 256.154 109.76C255.288 109.76 254.87 109.108 255.233 108.312C257.253 103.9 259.277 99.4905 261.301 95.0786C261.977 93.604 262.655 92.1337 263.325 90.6565C263.525 90.2176 263.84 89.9915 264.331 90.0063C264.707 90.0185 265.086 90.0211 265.462 90.0112C265.995 89.9941 266.326 90.2373 266.537 90.7229C268.006 94.107 269.484 97.4863 270.959 100.865C272.041 103.346 273.124 105.829 274.206 108.308C274.562 109.127 274.152 109.761 273.263 109.761C272.815 109.761 272.367 109.761 271.92 109.761ZM273.39 108.821C273.355 108.722 273.33 108.649 273.299 108.582C270.766 102.774 268.233 96.9678 265.703 91.1618C265.639 91.0173 265.57 90.9437 265.399 90.9509C265.091 90.9631 264.782 90.9608 264.477 90.9437C264.294 90.9341 264.2 90.9926 264.12 91.1671C261.465 96.9757 258.801 102.782 256.141 108.585C256.109 108.654 256.088 108.727 256.053 108.821C256.968 108.821 257.854 108.816 258.739 108.828C258.931 108.83 259.011 108.759 259.085 108.592C259.662 107.307 260.251 106.025 260.824 104.735C260.906 104.556 261.003 104.497 261.197 104.499C263.559 104.507 265.919 104.507 268.28 104.497C268.505 104.497 268.613 104.56 268.704 104.771C269.246 106.055 269.805 107.331 270.366 108.604C270.405 108.693 270.506 108.811 270.581 108.813C271.51 108.828 272.437 108.821 273.39 108.821Z" fill="#CACACA"/>
<path fill-rule="evenodd" clip-rule="evenodd" d="M240.571 99.8883C240.571 96.9681 240.571 94.0429 240.571 91.123C240.571 90.3401 240.904 90.0062 241.691 90.0062C243.147 90.0089 244.604 89.9941 246.06 90.0184C247.838 90.0506 249.578 90.3006 251.176 91.1375C253.852 92.5391 255.44 94.7789 256.048 97.7063C256.557 100.143 256.316 102.524 255.098 104.722C253.603 107.422 251.267 109.004 248.241 109.534C247.348 109.692 246.428 109.726 245.52 109.753C244.212 109.787 242.905 109.76 241.597 109.76C240.94 109.76 240.571 109.394 240.571 108.734C240.569 105.785 240.571 102.838 240.571 99.8883ZM241.52 108.821C242.779 108.821 244.009 108.84 245.236 108.813C246.129 108.792 247.03 108.784 247.91 108.642C250.83 108.173 253.052 106.659 254.413 104.006C255.385 102.111 255.56 100.075 255.156 98.0086C254.634 95.3391 253.214 93.2849 250.785 91.9894C249.384 91.2433 247.852 91.0004 246.287 90.9663C244.77 90.9321 243.251 90.9492 241.734 90.9466C241.666 90.9439 241.6 90.9587 241.52 90.9637C241.52 96.9165 241.52 102.855 241.52 108.821Z" fill="#CACACA"/>
<path fill-rule="evenodd" clip-rule="evenodd" d="M193.311 105.316C193.454 105.316 193.558 105.316 193.661 105.316C195.479 105.316 197.295 105.316 199.111 105.319C199.912 105.319 200.243 105.65 200.245 106.452C200.245 107.199 200.246 107.944 200.243 108.691C200.243 109.405 199.889 109.761 199.181 109.761C196.039 109.761 192.896 109.761 189.756 109.761C189.068 109.761 188.697 109.393 188.697 108.705C188.695 102.826 188.695 96.9463 188.697 91.0664C188.697 90.3768 189.062 90.0088 189.749 90.0061C190.565 90.0038 191.382 90.0061 192.197 90.0061C192.96 90.0088 193.31 90.3524 193.31 91.1131C193.311 95.7211 193.311 100.327 193.311 104.938C193.311 105.049 193.311 105.162 193.311 105.316ZM189.656 90.9586C189.656 96.9263 189.656 102.865 189.656 108.804C192.878 108.804 196.084 108.804 199.313 108.804C199.313 108.035 199.304 107.291 199.321 106.548C199.326 106.303 199.25 106.242 199.011 106.244C196.904 106.251 194.799 106.249 192.693 106.249C192.591 106.249 192.491 106.249 192.365 106.249C192.365 101.128 192.365 96.0506 192.365 90.9586C191.45 90.9586 190.559 90.9586 189.656 90.9586Z" fill="#CACACA"/>
<path fill-rule="evenodd" clip-rule="evenodd" d="M264.824 95.4148C265.721 97.6109 266.592 99.7505 267.475 101.917C265.662 101.917 263.884 101.917 262.068 101.917C262.986 99.7534 263.894 97.6109 264.824 95.4148ZM263.484 100.986C264.365 100.986 265.207 100.986 266.083 100.986C265.658 99.9473 265.246 98.9363 264.807 97.8639C264.351 98.9412 263.924 99.9446 263.484 100.986Z" fill="#CACACA"/>
<path fill-rule="evenodd" clip-rule="evenodd" d="M244.25 106.222C244.25 101.997 244.25 97.7706 244.25 93.5128C244.587 93.5128 244.91 93.5151 245.233 93.5128C246.305 93.5102 247.371 93.567 248.408 93.8808C250.67 94.5704 251.96 96.1606 252.439 98.4109C252.908 100.607 252.451 102.612 250.918 104.308C249.956 105.368 248.724 105.944 247.329 106.109C246.349 106.229 245.353 106.207 244.362 106.246C244.33 106.246 244.296 106.232 244.25 106.222ZM245.18 105.341C245.794 105.304 246.381 105.294 246.963 105.226C248.126 105.083 249.201 104.705 250.048 103.851C251.551 102.332 251.957 100.499 251.495 98.4645C251.154 96.9676 250.352 95.7798 248.931 95.0856C248.155 94.7078 247.323 94.5408 246.467 94.4919C246.042 94.4669 245.615 94.4863 245.18 94.4863C245.18 98.0827 245.18 101.68 245.18 105.341Z" fill="#CACACA"/>
</svg>
