<svg width="20" height="20" viewBox="0 0 20 20" fill="none" xmlns="http://www.w3.org/2000/svg">
<path d="M14.5862 0H5.41381C2.42858 0 0 2.42858 0 5.41381V14.5863C0 17.5714 2.42858 20 5.41381 20H14.5863C17.5714 20 20 17.5714 20 14.5863V5.41381C20 2.42858 17.5714 0 14.5862 0V0ZM18.8275 14.5863C18.8275 16.9249 16.9249 18.8275 14.5862 18.8275H5.41381C3.0751 18.8275 1.17248 16.9249 1.17248 14.5863V5.41381C1.17248 3.0751 3.0751 1.17248 5.41381 1.17248H14.5863C16.9249 1.17248 18.8275 3.0751 18.8275 5.41381V14.5863Z" fill="black"/>
<path d="M10.0001 4.53125C6.98464 4.53125 4.53149 6.9844 4.53149 9.99984C4.53149 13.0153 6.98464 15.4684 10.0001 15.4684C13.0155 15.4684 15.4687 13.0153 15.4687 9.99984C15.4687 6.9844 13.0155 4.53125 10.0001 4.53125ZM10.0001 14.2959C7.63131 14.2959 5.70398 12.3688 5.70398 9.99984C5.70398 7.63107 7.63131 5.70373 10.0001 5.70373C12.369 5.70373 14.2962 7.63107 14.2962 9.99984C14.2962 12.3688 12.369 14.2959 10.0001 14.2959Z" fill="black"/>
<path d="M15.5993 2.58936C14.7082 2.58936 13.9834 3.3143 13.9834 4.20526C13.9834 5.09637 14.7082 5.82131 15.5993 5.82131C16.4904 5.82131 17.2154 5.09637 17.2154 4.20526C17.2154 3.31415 16.4904 2.58936 15.5993 2.58936ZM15.5993 4.64868C15.3549 4.64868 15.1559 4.4497 15.1559 4.20526C15.1559 3.96066 15.3549 3.76184 15.5993 3.76184C15.8439 3.76184 16.0429 3.96066 16.0429 4.20526C16.0429 4.4497 15.8439 4.64868 15.5993 4.64868Z" fill="black"/>
</svg>
