<svg width="20" height="22" viewBox="0 0 20 22" fill="none" xmlns="http://www.w3.org/2000/svg">
<path d="M18.5663 21.0291C18.7378 21.0291 18.8759 20.9647 18.9691 20.8504C19.06 20.739 19.1 20.5901 19.1 20.4326H19.1008L19.0992 20.42L17.3643 6.80296L17.363 6.79297L17.3597 6.78343C17.2827 6.55654 17.1135 6.29007 16.759 6.29007H14.7627V5.68085C14.7627 4.09357 14.1688 2.89569 13.2722 2.0956C12.3774 1.29713 11.1871 0.9 10 0.9C8.81292 0.9 7.62264 1.29713 6.72785 2.0956C5.83125 2.89569 5.23735 4.09357 5.23735 5.68085V6.29007H3.24096C3.10068 6.29007 2.96829 6.35793 2.87274 6.45167C2.77891 6.54372 2.70959 6.67164 2.70729 6.80858L0.90086 20.4905L0.9 20.4903V20.5035C0.9 20.8443 1.16345 21.1 1.50602 21.1L1.50644 21.1L18.5663 21.0291ZM18.5663 21.0291V20.9291M18.5663 21.0291L18.5667 21.0291L18.5663 20.9291M18.5663 20.9291C18.8554 20.9291 19 20.7163 19 20.4326L1 20.5035C1 20.7872 1.21687 21 1.50602 21L18.5663 20.9291ZM13.6229 9.51064C13.6229 9.6967 13.6923 9.84391 13.8026 9.9438C13.9112 10.0422 14.0535 10.0894 14.1928 10.0894C14.3321 10.0894 14.4743 10.0422 14.5829 9.9438C14.6932 9.84391 14.7627 9.6967 14.7627 9.51064V7.41206H16.2375L17.874 19.9071H2.19765L3.76295 7.41206H5.23735V9.51064C5.23735 9.6967 5.30676 9.84391 5.41706 9.9438C5.52566 10.0422 5.66794 10.0894 5.80723 10.0894C5.94652 10.0894 6.0888 10.0422 6.1974 9.9438C6.30769 9.84391 6.37711 9.6967 6.37711 9.51064V7.41206H13.6229V9.51064ZM13.6229 5.68085V6.29007H6.37711V5.68085C6.37711 4.44863 6.83168 3.53205 7.50748 2.92267C8.18501 2.31173 9.09097 2.00426 10 2.00426C10.909 2.00426 11.815 2.31173 12.4925 2.92267C13.1683 3.53205 13.6229 4.44863 13.6229 5.68085Z" fill="black" stroke="black" stroke-width="0.2"/>
</svg>
