<svg width="20" height="20" viewBox="0 0 20 20" fill="none" xmlns="http://www.w3.org/2000/svg">
<g clip-path="url(#clip0)">
<path d="M17.063 2.93701C15.1691 1.04309 12.6607 0 10 0C4.49341 0 0 4.49402 0 10C0 11.6293 0.400085 13.2378 1.15921 14.6677L0.0172424 19.2731C-0.0321961 19.4724 0.0263977 19.6831 0.171661 19.8283C0.31601 19.9728 0.526428 20.0325 0.726929 19.9828L5.33234 18.8406C6.76224 19.5998 8.37067 20 10 20C12.6607 20 15.1691 18.9569 17.063 17.063C18.9569 15.1689 20 12.6607 20 10C20 7.33932 18.9569 4.83093 17.063 2.93701ZM10 18.8281C8.49243 18.8281 7.00562 18.4401 5.69992 17.7063C5.56992 17.6332 5.41687 17.6125 5.27176 17.6483L1.3887 18.6113L2.35153 14.7281C2.38754 14.5833 2.36679 14.4301 2.2937 14.2999C1.55975 12.9944 1.17188 11.5076 1.17188 10C1.17188 5.13214 5.13214 1.17188 10 1.17188C14.8679 1.17188 18.8281 5.13214 18.8281 10C18.8281 14.8679 14.8679 18.8281 10 18.8281Z" fill="black"/>
<path d="M15.2881 11.7791C14.8998 11.3906 14.4723 10.9985 13.9783 10.7603C13.2403 10.4046 12.5361 10.5065 11.9953 11.0473C11.7492 11.2934 11.4106 11.7787 11.2157 12.0173C10.7131 11.9332 9.70892 11.0865 9.31021 10.6892C8.91302 10.2905 8.06692 9.28614 7.98284 8.78458C8.22012 8.59079 8.70703 8.25083 8.953 8.00501C9.49377 7.46424 9.5957 6.75989 9.24002 6.02198C9.00183 5.5279 8.60968 5.1005 8.22149 4.71231C7.43078 3.90497 6.21115 3.84546 5.15844 4.89832C4.3717 5.68491 3.67086 7.14319 4.79879 9.62351C5.46621 11.0908 6.5418 12.3886 7.07205 12.9241L7.07617 12.9283C7.61175 13.4587 8.90951 14.5342 10.3768 15.2015C12.0339 15.9551 13.81 16.134 15.1021 14.842C16.1707 13.7733 16.0807 12.5552 15.2881 11.7791ZM14.2734 14.0133C13.5103 14.7764 12.3626 14.8173 10.8619 14.1348C9.54443 13.5356 8.3515 12.5414 7.90274 12.0976C7.45886 11.6487 6.46475 10.4559 5.86553 9.13843C5.18301 7.63773 5.2239 6.48996 5.98699 5.72687C6.4324 5.28147 6.94509 5.08387 7.38424 5.53232L7.39263 5.54087C8.43283 6.58106 8.35897 6.94162 8.12429 7.1763C7.91601 7.38459 7.30032 7.80268 7.10134 8.00165C6.63427 8.46857 6.72125 9.19184 7.35968 10.1512C7.74069 10.7238 8.24392 11.2795 8.48135 11.5176L8.48257 11.519C8.72076 11.7564 9.27633 12.2596 9.84899 12.6406C10.8085 13.2791 11.5316 13.3659 11.9985 12.899C12.1976 12.6998 12.6156 12.0843 12.8238 11.876C12.9825 11.7173 13.1389 11.6567 13.4693 11.816C13.8523 12.0007 14.2623 12.4107 14.4594 12.6077L14.468 12.6161C14.9199 13.0587 14.719 13.5678 14.2734 14.0133Z" fill="black"/>
</g>
<defs>
<clipPath id="clip0">
<rect width="20" height="20" fill="white"/>
</clipPath>
</defs>
</svg>
