<svg width="36" height="23" viewBox="0 0 36 23" fill="none" xmlns="http://www.w3.org/2000/svg">
<path d="M35 5.23096H16.6923" stroke="#484848" stroke-width="1.5" stroke-linecap="round"/>
<path d="M1 5.23096L6.23077 5.23096" stroke="#484848" stroke-width="1.5" stroke-linecap="round"/>
<path d="M16.6923 5.23077C16.6923 8.11964 14.3504 10.4615 11.4615 10.4615C8.57261 10.4615 6.23071 8.11964 6.23071 5.23077C6.23071 2.3419 8.57261 0 11.4615 0C14.3504 0 16.6923 2.3419 16.6923 5.23077ZM7.79994 5.23077C7.79994 7.25298 9.43927 8.89231 11.4615 8.89231C13.4837 8.89231 15.123 7.25298 15.123 5.23077C15.123 3.20856 13.4837 1.56923 11.4615 1.56923C9.43927 1.56923 7.79994 3.20856 7.79994 5.23077Z" fill="#484848"/>
<path d="M1.00005 17.6924H19.3077" stroke="#484848" stroke-width="1.5" stroke-linecap="round"/>
<path d="M35 17.6924H29.7692" stroke="#484848" stroke-width="1.5" stroke-linecap="round"/>
<path d="M19.3077 17.6922C19.3077 20.5811 21.6496 22.923 24.5385 22.923C27.4274 22.923 29.7693 20.5811 29.7693 17.6922C29.7693 14.8033 27.4274 12.4614 24.5385 12.4614C21.6496 12.4614 19.3077 14.8033 19.3077 17.6922ZM28.2001 17.6922C28.2001 19.7144 26.5607 21.3537 24.5385 21.3537C22.5163 21.3537 20.877 19.7144 20.877 17.6922C20.877 15.67 22.5163 14.0307 24.5385 14.0307C26.5607 14.0307 28.2001 15.67 28.2001 17.6922Z" fill="#484848"/>
</svg>
