<svg width="18" height="18" viewBox="0 0 18 18" fill="none" xmlns="http://www.w3.org/2000/svg">
<path d="M7.92682 0C3.55609 0 0 3.55609 0 7.92682C0 12.2978 3.55609 15.8536 7.92682 15.8536C12.2978 15.8536 15.8536 12.2978 15.8536 7.92682C15.8536 3.55609 12.2978 0 7.92682 0ZM7.92682 14.3903C4.36292 14.3903 1.46341 11.4907 1.46341 7.92685C1.46341 4.36296 4.36292 1.46341 7.92682 1.46341C11.4907 1.46341 14.3902 4.36292 14.3902 7.92682C14.3902 11.4907 11.4907 14.3903 7.92682 14.3903Z" fill="black"/>
<path d="M17.7855 16.7508L13.5903 12.5557C13.3045 12.2698 12.8416 12.2698 12.5557 12.5557C12.2698 12.8413 12.2698 13.3047 12.5557 13.5903L16.7508 17.7855C16.8937 17.9284 17.0808 17.9999 17.2681 17.9999C17.4552 17.9999 17.6425 17.9284 17.7855 17.7855C18.0713 17.4999 18.0713 17.0364 17.7855 16.7508Z" fill="black"/>
</svg>
