<svg width="19" height="20" viewBox="0 0 19 20" fill="none" xmlns="http://www.w3.org/2000/svg">
<path d="M13.1872 9.50086L13.1872 9.50086C14.6325 10.0783 15.858 10.9825 16.7296 12.1178C17.6253 13.2844 18.1001 14.6399 18.1 16.0376V16.0434C18.1 16.1726 18.0349 16.2904 17.93 16.3703L17.93 16.3703C15.6157 18.1317 12.6217 19.1 9.5 19.1C6.37826 19.1 3.38424 18.1317 1.06998 16.3703L1.06995 16.3703C0.965118 16.2904 0.9 16.1725 0.9 16.0434V16.0376C0.9 14.6399 1.3749 13.2843 2.27075 12.1177C3.1425 10.9825 4.36811 10.0782 5.81338 9.50083L13.1872 9.50086ZM13.1872 9.50086C13.0034 9.42743 12.7832 9.45727 12.634 9.58206L12.634 9.58207M13.1872 9.50086L12.634 9.58207M12.634 9.58207C11.6915 10.3709 10.6078 10.785 9.50005 10.785M12.634 9.58207L9.50005 10.785M9.50005 10.785C8.39211 10.785 7.30862 10.3709 6.36669 9.58214M9.50005 10.785L6.36669 9.58214M6.36669 9.58214C6.21754 9.45725 5.99721 9.42733 5.81341 9.50082L6.36669 9.58214ZM9.50026 10.4472C10.8069 10.4472 12.0743 9.78172 13.0715 8.58899C13.9503 7.538 14.4796 6.23384 14.4796 5.09496C14.4797 2.76607 12.2288 0.9 9.50026 0.9C6.7717 0.9 4.5209 2.76608 4.5209 5.09496C4.5209 6.23384 5.05019 7.538 5.92899 8.58899C6.92628 9.78172 8.19362 10.4472 9.50026 10.4472ZM9.50026 1.76774C11.7139 1.76774 13.484 3.27613 13.484 5.09496C13.484 6.03034 13.0206 7.17565 12.2668 8.07715C11.4626 9.03895 10.4522 9.57942 9.50026 9.57942C8.54834 9.57942 7.53792 9.03895 6.73369 8.07715C5.97995 7.17565 5.51656 6.03033 5.51656 5.09496C5.51656 3.27613 7.28661 1.76774 9.50026 1.76774ZM9.50005 18.2323C6.69432 18.2323 4.00448 17.3852 1.89908 15.8459C1.94012 14.6912 2.35177 13.5733 3.0982 12.6013C3.80628 11.6792 4.78184 10.927 5.93451 10.414C7.00302 11.2246 8.22937 11.6527 9.50005 11.6527C10.7705 11.6527 11.9971 11.2245 13.0661 10.414C14.2187 10.9269 15.1942 11.6792 15.9022 12.6012C16.6484 13.5732 17.06 14.691 17.101 15.8458C14.9956 17.3852 12.3058 18.2323 9.50005 18.2323Z" fill="#181818" stroke="#181818" stroke-width="0.2"/>
</svg>
