<svg width="118" height="20" viewBox="0 0 118 20" fill="none" xmlns="http://www.w3.org/2000/svg">
<path fill-rule="evenodd" clip-rule="evenodd" d="M45.4971 9.73783C45.4971 9.89519 45.4971 9.9908 45.4971 10.0841C45.4971 12.9354 45.4971 15.7891 45.4971 18.6404C45.4948 19.4154 45.1511 19.759 44.3676 19.759C43.561 19.759 42.7558 19.759 41.9489 19.759C41.2452 19.759 40.8815 19.3934 40.8815 18.6844C40.8815 14.3783 40.8815 10.0693 40.8815 5.76096C40.8815 4.18039 40.8789 2.60015 40.8815 1.01959C40.8848 0.25444 41.5784 -0.219302 42.2259 0.102001C42.3488 0.163765 42.4595 0.259368 42.5597 0.352671C45.8654 3.50296 49.1651 6.65161 52.4682 9.7996C52.5349 9.86333 52.6052 9.92443 52.7182 10.0253C52.7182 9.87844 52.7182 9.78711 52.7182 9.69413C52.7182 6.83558 52.7182 3.97473 52.7182 1.11355C52.7182 0.353003 53.0671 0.00935266 53.8296 0.00672441C54.6555 0.00672441 55.4808 0.00442324 56.3048 0.00935122C56.9559 0.00935122 57.3314 0.382569 57.3314 1.04259C57.3341 6.93875 57.3314 12.8352 57.3314 18.7317C57.3314 19.166 57.1721 19.507 56.7624 19.6838C56.3399 19.8602 55.9835 19.7324 55.6602 19.4229C52.3539 16.2654 49.0449 13.1125 45.7353 9.95893C45.6742 9.89979 45.6094 9.84066 45.4971 9.73783ZM44.5519 7.5324C48.5169 11.3135 52.433 15.0456 56.3738 18.8046C56.3738 12.8172 56.3738 6.88914 56.3738 0.963414C55.4611 0.963414 54.5705 0.963414 53.6502 0.963414C53.6502 4.71032 53.6502 8.44276 53.6502 12.2261C49.6951 8.45228 45.7829 4.72247 41.8356 0.958481C41.8356 6.94334 41.8356 12.8687 41.8356 18.8096C42.7437 18.8096 43.6343 18.8096 44.5519 18.8096C44.5519 15.065 44.5519 11.3302 44.5519 7.5324Z" fill="black"/>
<path fill-rule="evenodd" clip-rule="evenodd" d="M105.662 9.72792C105.662 9.88726 105.662 9.97827 105.662 10.0739C105.662 12.9324 105.662 15.791 105.662 18.6545C105.662 19.4222 105.324 19.7587 104.556 19.7587C103.74 19.7587 102.924 19.7587 102.109 19.7587C101.431 19.7587 101.065 19.3976 101.065 18.7231C101.065 12.8342 101.065 6.94789 101.061 1.05897C101.061 0.609863 101.21 0.263593 101.63 0.0822437C102.049 -0.0945062 102.408 0.0355873 102.731 0.342107C105.993 3.45823 109.256 6.56942 112.519 9.6839C112.621 9.77917 112.722 9.87511 112.878 10.0197C112.885 9.85802 112.895 9.75224 112.895 9.64645C112.895 6.84934 112.895 4.05189 112.895 1.24984C112.895 1.14438 112.892 1.04123 112.9 0.93347C112.932 0.368724 113.301 0.0102933 113.869 0.00832213C114.746 0.00339416 115.624 0.00339416 116.499 0.00832213C117.135 0.0106218 117.503 0.391391 117.503 1.03367C117.503 6.22118 117.503 11.4057 117.503 16.591C117.503 17.2924 117.494 17.9964 117.506 18.6982C117.513 19.143 117.361 19.4958 116.942 19.6775C116.511 19.8664 116.149 19.7242 115.82 19.4097C113.704 17.3834 111.581 15.3639 109.46 13.3391C108.294 12.2254 107.125 11.1117 105.956 9.99732C105.875 9.91913 105.793 9.84817 105.662 9.72792ZM104.725 7.52973C108.695 11.3134 112.603 15.0403 116.546 18.7997C116.546 12.8099 116.546 6.88908 116.546 0.961061C115.638 0.961061 114.748 0.961061 113.82 0.961061C113.82 4.70534 113.82 8.43253 113.82 12.2208C109.865 8.44731 105.959 4.72242 102.015 0.963037C102.015 6.95512 102.015 12.8733 102.015 18.8043C102.922 18.8043 103.811 18.8043 104.725 18.8043C104.725 15.0626 104.725 11.3377 104.725 7.52973Z" fill="black"/>
<path fill-rule="evenodd" clip-rule="evenodd" d="M31.7468 4.44726C31.7468 5.35039 31.7468 6.20885 31.7468 7.11166C31.8542 7.11166 31.9551 7.11166 32.0553 7.11166C33.9595 7.11166 35.864 7.10936 37.7675 7.11166C38.5192 7.11166 38.8644 7.45792 38.8644 8.20369C38.8661 8.96457 38.8661 9.72776 38.8644 10.4906C38.8644 11.1874 38.5083 11.5508 37.8171 11.5508C35.8955 11.5508 33.9742 11.5508 32.0527 11.5508C31.9574 11.5508 31.8638 11.5508 31.7521 11.5508C31.7521 12.8094 31.7521 14.0437 31.7521 15.3148C31.8605 15.3148 31.9623 15.3148 32.0648 15.3148C33.9503 15.3148 35.8377 15.3318 37.7234 15.3075C38.4978 15.2954 38.9088 15.7619 38.873 16.4709C38.8375 17.2314 38.8681 17.9969 38.8644 18.7574C38.8618 19.3761 38.4791 19.7588 37.8637 19.7588C34.6149 19.7588 31.3683 19.7588 28.1221 19.7588C27.5212 19.7588 27.124 19.3734 27.124 18.7772C27.1221 12.8468 27.1221 6.91585 27.124 0.982902C27.124 0.396802 27.5147 0.00880713 28.1027 0.00880713C31.366 0.00617887 34.6307 0.00617887 37.8959 0.00880713C38.4843 0.00880713 38.8621 0.396794 38.8648 0.987494C38.8697 1.80192 38.8687 2.61932 38.8648 3.4367C38.8638 4.07175 38.4942 4.44497 37.8493 4.44497C35.9277 4.44989 34.0064 4.44726 32.0839 4.44726C31.9794 4.44726 31.8762 4.44726 31.7468 4.44726ZM28.083 0.958258C28.083 6.92538 28.083 12.8636 28.083 18.8041C31.3683 18.8041 34.6372 18.8041 37.9078 18.8041C37.9078 17.9479 37.9078 17.1082 37.9078 16.2422C35.5335 16.2422 33.1795 16.2422 30.8134 16.2422C30.8134 14.3554 30.8134 12.5002 30.8134 10.6135C33.1845 10.6135 35.54 10.6135 37.9101 10.6135C37.9101 9.74714 37.9101 8.91036 37.9101 8.04436C35.5358 8.04436 33.1799 8.04436 30.8115 8.04436C30.8115 6.52555 30.8115 5.03665 30.8115 3.50733C33.1825 3.50733 35.545 3.50733 37.9055 3.50733C37.9055 2.63114 37.9055 1.7947 37.9055 0.957927C34.6208 0.958256 31.3582 0.958258 28.083 0.958258Z" fill="black"/>
<path fill-rule="evenodd" clip-rule="evenodd" d="M4.62621 4.44841C4.62621 5.35384 4.62621 6.21756 4.62621 7.11281C4.74416 7.11281 4.84797 7.11281 4.95015 7.11281C6.84577 7.11281 8.74107 7.11051 10.6367 7.11281C11.4002 7.11281 11.7412 7.45907 11.7412 8.22225C11.7412 8.99529 11.7439 9.76799 11.7412 10.5387C11.7406 11.1764 11.3647 11.5493 10.7244 11.5519C8.80284 11.5519 6.88159 11.5519 4.96001 11.5519C4.85586 11.5519 4.75303 11.5519 4.62523 11.5519C4.61833 11.6676 4.60815 11.7609 4.60815 11.8538C4.60815 12.9068 4.61472 13.9591 4.60289 15.0117C4.59895 15.2499 4.6617 15.3228 4.90678 15.3205C6.80274 15.3133 8.69836 15.3156 10.594 15.3179C11.412 15.3179 11.7409 15.6494 11.7409 16.4641C11.7409 17.227 11.7435 17.9902 11.7409 18.756C11.7402 19.372 11.3552 19.7596 10.7412 19.7596C7.49429 19.7596 4.24709 19.7596 1.0012 19.7596C0.386517 19.7596 0.000492797 19.372 0.000492797 18.7583C-0.000164266 12.8424 -0.000164266 6.93113 0.000492797 1.01526C0.000492797 0.392367 0.376989 0.00929541 0.996271 0.00929541C4.24315 0.00666716 7.48937 0.00666716 10.7362 0.00929541C11.3706 0.00929541 11.7409 0.392365 11.7409 1.03202C11.7435 1.83265 11.7435 2.62933 11.7409 3.42734C11.7402 4.06731 11.3729 4.44578 10.729 4.44578C8.80743 4.45071 6.88684 4.44808 4.96559 4.44808C4.86177 4.44841 4.75763 4.44841 4.62621 4.44841ZM10.7882 8.0409C8.40991 8.0409 6.05369 8.0409 3.68859 8.0409C3.68859 6.5221 3.68859 5.0355 3.68859 3.51604C6.05861 3.51604 8.41484 3.51604 10.7865 3.51604C10.7865 2.65036 10.7865 1.81096 10.7865 0.959739C7.50448 0.959739 4.23691 0.959739 0.961774 0.959739C0.961774 6.91963 0.961774 12.8605 0.961774 18.8033C4.24939 18.8033 7.51664 18.8033 10.7809 18.8033C10.7809 17.9442 10.7809 17.1048 10.7809 16.2388C8.40728 16.2388 6.05204 16.2388 3.69253 16.2388C3.69253 14.3546 3.69253 12.4968 3.69253 10.6123C6.06453 10.6123 8.42075 10.6123 10.7885 10.6123C10.7882 9.75091 10.7882 8.9217 10.7882 8.0409Z" fill="black"/>
<path fill-rule="evenodd" clip-rule="evenodd" d="M96.9195 19.7592C96.4618 19.7592 96.0072 19.7519 95.5508 19.7615C95.061 19.7713 94.74 19.5483 94.5495 19.1041C94.0586 17.9608 93.5583 16.8198 93.0727 15.6785C92.9952 15.4968 92.9009 15.4383 92.7044 15.4383C90.7293 15.4456 88.7565 15.4456 86.7823 15.4383C86.5928 15.4383 86.508 15.5017 86.4331 15.6686C85.9301 16.7978 85.4074 17.9168 84.9113 19.0449C84.6958 19.5433 84.3594 19.7763 83.8124 19.7638C82.9263 19.7441 82.0403 19.7588 81.1539 19.7588C80.2876 19.7588 79.869 19.1064 80.2321 18.311C82.2529 13.8992 84.2769 9.48994 86.3004 5.07842C86.9762 3.60397 87.6542 2.13378 88.3245 0.656706C88.5245 0.217788 88.8396 -0.00824303 89.3307 0.00654089C89.7069 0.0186966 90.0857 0.0213296 90.4615 0.0114737C90.9941 -0.00560997 91.3256 0.237498 91.5362 0.723068C93.0057 4.10694 94.4834 7.48589 95.9589 10.8642C97.0401 13.3449 98.1239 15.828 99.2057 18.3064C99.5615 19.1261 99.1512 19.7592 98.2622 19.7592C97.8144 19.7592 97.3666 19.7592 96.9195 19.7592ZM98.39 18.8192C98.3545 18.7207 98.3299 18.6478 98.299 18.5811C95.7654 12.773 93.2324 6.96747 90.7027 1.16199C90.6386 1.01743 90.57 0.943841 90.3981 0.951069C90.091 0.963225 89.7818 0.960924 89.4763 0.94384C89.2939 0.934313 89.1997 0.992799 89.1198 1.16725C86.4646 6.97536 83.8009 12.7808 81.1401 18.5837C81.1089 18.6527 81.0872 18.7259 81.0521 18.8196C81.967 18.8196 82.8537 18.8146 83.7388 18.8268C83.931 18.8291 84.0108 18.7578 84.0841 18.5909C84.6613 17.3054 85.2501 16.0241 85.824 14.734C85.9055 14.5546 86.0024 14.4961 86.1969 14.4984C88.5587 14.5056 90.9185 14.5056 93.279 14.4961C93.5044 14.4961 93.6128 14.5595 93.7032 14.7704C94.2452 16.054 94.8047 17.3297 95.3659 18.6031C95.405 18.6918 95.5058 18.8097 95.5807 18.812C96.5092 18.8268 97.4366 18.8192 98.39 18.8192Z" fill="black"/>
<path fill-rule="evenodd" clip-rule="evenodd" d="M65.571 9.88771C65.571 6.96773 65.571 4.04282 65.571 1.12316C65.571 0.340267 65.9035 0.00647313 66.6913 0.00647313C68.1474 0.00910139 69.6038 -0.00567668 71.0605 0.0186347C72.8378 0.0508307 74.5784 0.300845 76.1757 1.13761C78.8519 2.53913 80.4404 4.77872 81.0485 7.70594C81.5567 10.1427 81.3162 12.5229 80.0984 14.7214C78.6026 17.4203 76.2667 19.0032 73.2413 19.5331C72.348 19.6901 71.4281 19.7243 70.5204 19.7512C69.2122 19.7854 67.9046 19.7584 66.597 19.7584C65.94 19.7584 65.571 19.3928 65.571 18.7328C65.5694 15.7839 65.571 12.8369 65.571 9.88771ZM66.5198 18.8192C67.7794 18.8192 69.0088 18.8389 70.2359 18.8119C71.1291 18.7903 72.0303 18.7824 72.9104 18.6405C75.8304 18.1713 78.052 16.6578 79.4127 14.0052C80.3849 12.1106 80.5596 10.0743 80.1559 8.00819C79.6342 5.33887 78.2142 3.28489 75.7854 1.98949C74.3842 1.2434 72.852 1.00061 71.2872 0.966441C69.7697 0.932274 68.2512 0.949358 66.7344 0.94673C66.666 0.944102 66.6003 0.958887 66.5205 0.963814C66.5198 6.91615 66.5198 12.854 66.5198 18.8192Z" fill="black"/>
<path fill-rule="evenodd" clip-rule="evenodd" d="M18.3119 15.3148C18.4545 15.3148 18.5586 15.3148 18.6611 15.3148C20.4792 15.3148 22.295 15.3148 24.1115 15.3171C24.9124 15.3171 25.2439 15.6486 25.2456 16.4509C25.2456 17.197 25.2466 17.9427 25.2439 18.6888C25.2439 19.4031 24.8898 19.7589 24.1815 19.7589C21.0391 19.7589 17.897 19.7589 14.7565 19.7589C14.0683 19.7589 13.697 19.3909 13.697 18.7036C13.6954 12.8242 13.6954 6.94547 13.697 1.06607C13.697 0.376485 14.0627 0.00853316 14.7496 0.00590491C15.5654 0.00360519 16.3824 0.00590491 17.1979 0.00590491C17.9607 0.00853316 18.3103 0.352173 18.3103 1.11272C18.3119 5.72038 18.3119 10.3261 18.3119 14.9367C18.3119 15.0477 18.3119 15.1604 18.3119 15.3148ZM14.6563 0.958314C14.6563 6.92543 14.6563 12.8636 14.6563 18.8018C17.8789 18.8018 21.0847 18.8018 24.3139 18.8018C24.3139 18.0334 24.3043 17.2896 24.3211 16.5465C24.326 16.3014 24.2508 16.24 24.0116 16.2423C21.9047 16.2495 19.7992 16.2475 17.6939 16.2475C17.5911 16.2475 17.4912 16.2475 17.3657 16.2475C17.3657 11.1267 17.3657 6.0499 17.3657 0.958314C16.4508 0.958314 15.5591 0.958314 14.6563 0.958314Z" fill="black"/>
<path fill-rule="evenodd" clip-rule="evenodd" d="M89.8239 5.41455C90.7205 7.61046 91.5914 9.74986 92.4748 11.9165C90.6614 11.9165 88.8833 11.9165 87.0679 11.9165C87.9858 9.75281 88.8932 7.61046 89.8239 5.41455ZM88.4838 10.9848C89.365 10.9848 90.2067 10.9848 91.0825 10.9848C90.6577 9.94665 90.2454 8.93575 89.8068 7.86343C89.3502 8.94068 88.9234 9.94402 88.4838 10.9848Z" fill="black"/>
<path fill-rule="evenodd" clip-rule="evenodd" d="M69.2505 16.2202C69.2505 11.9953 69.2505 7.76973 69.2505 3.51229C69.5876 3.51229 69.9108 3.51459 70.2331 3.51229C71.3058 3.50966 72.3712 3.56651 73.4084 3.88026C75.6703 4.56984 76.9601 6.15993 77.4398 8.41005C77.9086 10.6063 77.4519 12.6106 75.9187 14.3062C74.9564 15.3664 73.7244 15.9429 72.3292 16.1072C71.3498 16.2275 70.3537 16.2051 69.3622 16.2445C69.3303 16.2449 69.2962 16.2301 69.2505 16.2202ZM70.1802 15.3394C70.7943 15.3026 71.3813 15.2925 71.9635 15.2241C73.1262 15.0815 74.2011 14.7037 75.0487 13.8495C76.5514 12.3307 76.9572 10.4979 76.4953 8.4636C76.1543 6.96681 75.3523 5.77917 73.9314 5.08498C73.1554 4.70717 72.3239 4.54027 71.4674 4.49132C71.0426 4.46635 70.6159 4.48574 70.1802 4.48574C70.1802 8.08184 70.1802 11.6786 70.1802 15.3394Z" fill="black"/>
</svg>
