<svg width="92" height="91" viewBox="0 0 92 91" fill="none" xmlns="http://www.w3.org/2000/svg">
<path d="M44.9819 86.4427C44.9819 86.8832 45.3383 87.2348 45.7767 87.2348C46.2134 87.2348 46.5693 86.8826 46.5693 86.4427C46.5693 86.006 46.2134 85.6475 45.7767 85.6475C45.3378 85.6475 44.9819 85.9753 44.9819 86.4427Z" fill="white"/>
<path d="M46.6699 86.4427C46.6699 86.8832 46.3141 87.2348 45.8752 87.2348C45.4385 87.2348 45.0815 86.8826 45.0815 86.4427C45.0815 86.006 45.4385 85.6475 45.8752 85.6475C46.3141 85.6475 46.6699 85.9753 46.6699 86.4427Z" fill="white"/>
<path d="M44.9819 81.9687C44.9819 82.4086 45.3383 82.7661 45.7767 82.7661C46.2134 82.7661 46.5693 82.4086 46.5693 81.9687C46.5693 81.533 46.2134 81.1782 45.7767 81.1782C45.3378 81.1782 44.9819 81.505 44.9819 81.9687Z" fill="white"/>
<path d="M36.2744 77.8441C36.2744 78.2798 36.6287 78.6362 37.0686 78.6362C37.5048 78.6362 37.8596 78.2798 37.8596 77.8441C37.8596 77.4047 37.5048 77.0488 37.0686 77.0488C36.6287 77.0483 36.2744 77.3788 36.2744 77.8441Z" fill="white"/>
<path d="M34.2559 79.8949C34.2559 80.3306 34.6122 80.6885 35.0495 80.6885C35.4889 80.6885 35.8443 80.33 35.8443 79.8949C35.8443 79.4549 35.4889 79.0996 35.0495 79.0996C34.6122 79.0996 34.2559 79.4274 34.2559 79.8949Z" fill="white"/>
<path d="M38.5034 80.1397C38.5034 80.5775 38.8603 80.9339 39.2971 80.9339C39.736 80.9339 40.0913 80.5775 40.0913 80.1397C40.0913 79.6998 39.736 79.3481 39.2971 79.3481C38.8598 79.3481 38.5034 79.6723 38.5034 80.1397Z" fill="white"/>
<path d="M36.457 82.175C36.457 82.6128 36.814 82.9671 37.2512 82.9671C37.6891 82.9671 38.0449 82.6128 38.0449 82.175C38.0449 81.7372 37.6891 81.3818 37.2512 81.3818C36.8134 81.3813 36.457 81.7076 36.457 82.175Z" fill="white"/>
<path d="M51.5044 80.0986C51.5044 80.5342 51.8597 80.888 52.2991 80.888C52.7364 80.888 53.0917 80.5348 53.0917 80.0986C53.0917 79.657 52.7364 79.3022 52.2991 79.3022C51.8597 79.3022 51.5044 79.6306 51.5044 80.0986Z" fill="white"/>
<path d="M53.6094 82.2288C53.6094 82.6687 53.9652 83.024 54.4036 83.024C54.843 83.024 55.1967 82.6682 55.1967 82.2288C55.1967 81.7931 54.843 81.4346 54.4036 81.4346C53.9652 81.4346 53.6094 81.7629 53.6094 82.2288Z" fill="white"/>
<path d="M37.7045 78.3232L36.6904 77.3228L34.5923 79.4496L35.6064 80.45L37.7045 78.3232Z" fill="white"/>
<path d="M37.5855 82.7238L36.584 81.7133L38.7947 79.5137L39.7983 80.5241L37.5855 82.7238Z" fill="white"/>
<path d="M45.1135 86.8681L38.9175 80.643L39.9242 79.6357L46.124 85.8635L45.1135 86.8681Z" fill="white"/>
<path d="M86.1963 45.4927C86.1963 45.8866 86.5151 46.2086 86.9112 46.2086C87.3056 46.2086 87.6239 45.8866 87.6239 45.4927C87.6239 45.0987 87.3056 44.7783 86.9112 44.7783C86.5146 44.7783 86.1963 45.0728 86.1963 45.4927Z" fill="white"/>
<path d="M81.8696 45.4249C81.8696 45.8204 82.189 46.1409 82.5829 46.1409C82.9774 46.1409 83.2978 45.821 83.2978 45.4249C83.2978 45.0305 82.9779 44.709 82.5829 44.709C82.189 44.709 81.8696 45.0072 81.8696 45.4249Z" fill="white"/>
<path d="M81.8696 54.1383C81.8696 54.5301 82.189 54.8543 82.5829 54.8543C82.9774 54.8543 83.2978 54.5301 83.2978 54.1383C83.2978 53.7423 82.9779 53.4224 82.5829 53.4224C82.189 53.4218 81.8696 53.7164 81.8696 54.1383Z" fill="white"/>
<path d="M46.6675 81.9687C46.6675 82.4086 46.3116 82.7661 45.8728 82.7661C45.436 82.7661 45.0791 82.4086 45.0791 81.9687C45.0791 81.533 45.436 81.1782 45.8728 81.1782C46.3116 81.1782 46.6675 81.505 46.6675 81.9687Z" fill="white"/>
<path d="M55.3765 77.8441C55.3765 78.2798 55.0211 78.6362 54.5823 78.6362C54.1434 78.6362 53.7881 78.2798 53.7881 77.8441C53.7881 77.4047 54.1434 77.0488 54.5823 77.0488C55.0211 77.0488 55.3765 77.3788 55.3765 77.8441Z" fill="white"/>
<path d="M57.391 79.8949C57.391 80.3306 57.0383 80.6885 56.5984 80.6885C56.1595 80.6885 55.8042 80.33 55.8042 79.8949C55.8042 79.4549 56.1595 79.0996 56.5984 79.0996C57.0383 79.0996 57.391 79.4274 57.391 79.8949Z" fill="white"/>
<path d="M53.1455 80.1397C53.1455 80.5775 52.7896 80.9339 52.3502 80.9339C51.9114 80.9339 51.5576 80.5775 51.5576 80.1397C51.5576 79.6998 51.9114 79.3481 52.3502 79.3481C52.7896 79.3481 53.1455 79.6723 53.1455 80.1397Z" fill="white"/>
<path d="M55.1913 82.175C55.1913 82.6128 54.835 82.9671 54.3966 82.9671C53.9572 82.9671 53.604 82.6128 53.604 82.175C53.604 81.7372 53.9572 81.3818 54.3966 81.3818C54.835 81.3813 55.1913 81.7076 55.1913 82.175Z" fill="white"/>
<path d="M57.0457 79.4478L54.9453 77.3218L53.9342 78.3207L56.0345 80.4467L57.0457 79.4478Z" fill="white"/>
<path d="M55.0497 81.7098L52.8379 79.5098L51.833 80.5201L54.0448 82.7201L55.0497 81.7098Z" fill="white"/>
<path d="M46.5337 86.8681L45.5254 85.8635L51.7225 79.6357L52.7314 80.643L46.5337 86.8681Z" fill="white"/>
<path d="M46.488 4.47526C46.488 4.87131 46.1707 5.19121 45.7758 5.19121C45.3834 5.19121 45.063 4.87131 45.063 4.47526C45.063 4.08345 45.3829 3.76514 45.7758 3.76514C46.1713 3.76514 46.488 4.08345 46.488 4.47526Z" fill="white"/>
<path d="M46.4524 21.8829C46.4524 22.2869 46.1267 22.611 45.7248 22.611C45.3208 22.611 44.9951 22.2869 44.9951 21.8829C44.9951 21.481 45.3208 21.1548 45.7248 21.1548C46.1267 21.1548 46.4524 21.481 46.4524 21.8829Z" fill="white"/>
<path d="M67.9341 30.2258C67.9341 30.6118 67.62 30.9217 67.2356 30.9217C66.8512 30.9217 66.5376 30.6118 66.5376 30.2258C66.5376 29.8404 66.8512 29.5273 67.2356 29.5273C67.62 29.5273 67.9341 29.8161 67.9341 30.2258Z" fill="white"/>
<path d="M25.0207 30.2378C25.0207 30.6338 24.6997 30.9537 24.3047 30.9537C23.9108 30.9537 23.5898 30.6333 23.5898 30.2378C23.5898 29.8439 23.9103 29.5234 24.3047 29.5234C24.6992 29.5234 25.0207 29.8179 25.0207 30.2378Z" fill="white"/>
<path d="M25.8357 20.8317C25.8357 21.2256 25.5158 21.5476 25.1187 21.5476C24.7253 21.5476 24.4043 21.2256 24.4043 20.8317C24.4043 20.4377 24.7247 20.1157 25.1187 20.1157C25.5152 20.1157 25.8357 20.4118 25.8357 20.8317Z" fill="white"/>
<path d="M29.2364 26.0039C29.2364 26.402 28.9166 26.7198 28.5221 26.7198C28.1276 26.7198 27.8062 26.4015 27.8062 26.0039C27.8062 25.6099 28.1271 25.29 28.5221 25.29C28.9166 25.29 29.2364 25.5824 29.2364 26.0039Z" fill="white"/>
<path d="M26.9817 28.1568C26.9817 28.5529 26.6602 28.8728 26.2653 28.8728C25.8703 28.8728 25.5493 28.5529 25.5493 28.1568C25.5493 27.7608 25.8697 27.4409 26.2653 27.4409C26.6608 27.4409 26.9817 27.7349 26.9817 28.1568Z" fill="white"/>
<path d="M24.8444 26.0039C24.8444 26.402 24.525 26.7198 24.13 26.7198C23.735 26.7198 23.4141 26.4015 23.4141 26.0039C23.4141 25.6099 23.735 25.29 24.13 25.29C24.5245 25.29 24.8444 25.5824 24.8444 26.0039Z" fill="white"/>
<path d="M5.45377 45.4927C5.45377 45.8866 5.13441 46.2086 4.73889 46.2086C4.34338 46.2086 4.02295 45.8866 4.02295 45.4927C4.02295 45.0987 4.34391 44.7783 4.73889 44.7783C5.13388 44.7783 5.45377 45.0728 5.45377 45.4927Z" fill="white"/>
<path d="M11.9362 51.9581C11.9362 52.3515 11.6152 52.6725 11.2207 52.6725C10.8258 52.6725 10.5059 52.3521 10.5059 51.9581C10.5059 51.5621 10.8252 51.2422 11.2207 51.2422C11.6152 51.2417 11.9362 51.5362 11.9362 51.9581Z" fill="white"/>
<path d="M14.0715 54.1383C14.0715 54.5301 13.7516 54.8543 13.3561 54.8543C12.9606 54.8543 12.6401 54.5301 12.6401 54.1383C12.6401 53.7423 12.9611 53.4224 13.3561 53.4224C13.7511 53.4224 14.0715 53.7164 14.0715 54.1383Z" fill="white"/>
<path d="M11.9362 56.3033C11.9362 56.6973 11.6152 57.0177 11.2207 57.0177C10.8258 57.0177 10.5059 56.6973 10.5059 56.3033C10.5059 55.9094 10.8252 55.5874 11.2207 55.5874C11.6152 55.5869 11.9362 55.8851 11.9362 56.3033Z" fill="white"/>
<path d="M9.77889 45.4249C9.77889 45.8204 9.45846 46.1409 9.06294 46.1409C8.66955 46.1409 8.34912 45.821 8.34912 45.4249C8.34912 45.0305 8.66902 44.709 9.06294 44.709C9.45846 44.709 9.77889 45.0072 9.77889 45.4249Z" fill="white"/>
<path d="M9.77889 54.1383C9.77889 54.5301 9.45846 54.8543 9.06294 54.8543C8.66955 54.8543 8.34912 54.5301 8.34912 54.1383C8.34912 53.7423 8.66902 53.4224 9.06294 53.4224C9.45846 53.4218 9.77889 53.7164 9.77889 54.1383Z" fill="white"/>
<path d="M46.5221 26.1716C46.5221 26.5851 46.1884 26.9192 45.7744 26.9192C45.3636 26.9192 45.0283 26.5851 45.0283 26.1716C45.0283 25.7575 45.3636 25.4229 45.7744 25.4229C46.1884 25.4229 46.5221 25.7575 46.5221 26.1716Z" fill="white"/>
<path d="M39.9498 10.9482C39.9498 11.3401 39.631 11.66 39.2386 11.66C38.8442 11.66 38.5264 11.3401 38.5264 10.9482C38.5264 10.5543 38.8442 10.2339 39.2386 10.2339C39.631 10.2339 39.9498 10.5543 39.9498 10.9482Z" fill="white"/>
<path d="M53.0256 10.9482C53.0256 11.3401 52.7057 11.66 52.3129 11.66C51.9195 11.66 51.6001 11.3401 51.6001 10.9482C51.6001 10.5543 51.9195 10.2339 52.3129 10.2339C52.7057 10.2339 53.0256 10.5543 53.0256 10.9482Z" fill="white"/>
<path d="M44.9951 8.75455C44.9951 9.14637 45.3145 9.4668 45.7058 9.4668C46.1018 9.4668 46.4196 9.14689 46.4196 8.75455C46.4196 8.36063 46.1018 8.04443 45.7058 8.04443C45.314 8.04391 44.9951 8.36063 44.9951 8.75455Z" fill="white"/>
<path d="M46.2874 4.98148L45.2852 3.96924L38.7473 10.4427L39.7496 11.4549L46.2874 4.98148Z" fill="white"/>
<path d="M52.8085 10.443L46.2705 3.97119L45.2695 4.98245L51.8075 11.4542L52.8085 10.443Z" fill="white"/>
<path d="M56.5005 11.8304C56.5005 12.2243 56.8177 12.5448 57.2111 12.5448C57.6045 12.5448 57.9239 12.2243 57.9239 11.8304C57.9239 11.4386 57.6045 11.1182 57.2111 11.1182C56.8177 11.1182 56.5005 11.4386 56.5005 11.8304Z" fill="white"/>
<path d="M51.4512 15.0869C51.5052 15.5364 51.7849 15.8346 52.1978 15.8346C52.6092 15.8346 52.8826 15.5009 52.9423 15.0869C53.0058 14.6771 52.6092 14.3408 52.1978 14.3408C51.7849 14.3408 51.4042 14.6766 51.4512 15.0869Z" fill="white"/>
<path d="M52.7733 15.5344L51.6909 14.6053C54.3522 11.5063 57.0536 11.1324 57.1684 11.1182L57.3481 12.5284L57.2582 11.8241L57.3508 12.5284C57.3291 12.5321 55.0523 12.8784 52.7733 15.5344Z" fill="white"/>
<path d="M52.7264 14.6662L46.1992 8.25244L45.2008 9.26852L51.728 15.6823L52.7264 14.6662Z" fill="white"/>
<path d="M34.9146 11.8304C34.9146 12.2243 34.5995 12.5448 34.2035 12.5448C33.809 12.5448 33.4912 12.2243 33.4912 11.8304C33.4912 11.4386 33.809 11.1182 34.2035 11.1182C34.5995 11.1176 34.9146 11.4386 34.9146 11.8304Z" fill="white"/>
<path d="M39.9634 15.0869C39.9105 15.5364 39.6297 15.8346 39.2162 15.8346C38.8033 15.8346 38.532 15.5009 38.4707 15.0869C38.4094 14.6771 38.8033 14.3408 39.2162 14.3408C39.6297 14.3408 40.011 14.6766 39.9634 15.0869Z" fill="white"/>
<path d="M38.6427 15.5344C36.3626 12.8784 34.0874 12.5321 34.062 12.5284L34.2471 11.1182C34.3608 11.1324 37.0627 11.5063 39.7235 14.6053L38.6427 15.5344Z" fill="white"/>
<path d="M46.2075 9.26473L45.2095 8.25049L38.6891 14.6666L39.6871 15.6808L46.2075 9.26473Z" fill="white"/>
<path d="M68.2166 36.2769L50.0087 18.4524L49.9696 18.3968C49.002 16.994 47.7366 15.5579 45.6956 15.522C43.9671 15.4945 43.1084 16.4748 41.5581 18.2557L41.4317 18.4006L23.6188 36.2711L22.6094 35.2665L40.4054 17.4118L40.4852 17.3224C42.1085 15.4564 43.2892 14.0996 45.6174 14.0996C45.6507 14.0996 45.6856 14.0996 45.7189 14.0996C48.3912 14.1451 49.9987 15.946 51.1006 17.5313L69.2144 35.2606L68.2166 36.2769Z" fill="white"/>
<path d="M33.1893 66.1502L29.3177 62.3542L28.7112 61.7953C24.3653 57.7947 18.4104 52.3162 18.2671 46.714C18.1122 40.6306 20.1278 37.5664 24.1522 33.7271L25.1346 34.7576C21.3323 38.3865 19.5462 41.0959 19.6895 46.678C19.8158 51.679 25.5159 56.9217 29.6751 60.7489L30.2985 61.3236L34.1855 65.1318L33.1893 66.1502Z" fill="white"/>
<path d="M57.9948 66.6557L57.0161 65.6214L62.1599 60.7489C66.3202 56.9217 72.0181 51.6796 72.1466 46.678C72.2899 41.0959 70.5032 38.3865 66.6993 34.7576L67.6823 33.7271C71.7093 37.5664 73.725 40.6306 73.5679 46.714C73.4257 52.3162 67.4708 57.7952 63.1238 61.7953L62.5015 62.3701L57.9948 66.6557Z" fill="white"/>
<path d="M46.2758 82.5869L45.2759 81.5764L65.565 61.5332C70.1906 57.2619 75.4967 51.7236 75.6283 46.6306C75.7695 41.068 74.5708 38.0938 70.6992 34.4035L66.7838 30.791L67.7493 29.7446L71.6743 33.365C75.8483 37.344 77.2041 40.7021 77.0512 46.6687C76.908 52.2609 71.6611 57.8409 66.549 62.5601L46.2758 82.5869Z" fill="white"/>
<path d="M45.0913 34.6087C45.0913 35.0048 45.4107 35.3225 45.803 35.3225C46.198 35.3225 46.5163 35.0042 46.5163 34.6087C46.5163 34.2164 46.198 33.8965 45.803 33.8965C45.4107 33.8965 45.0913 34.191 45.0913 34.6087Z" fill="white"/>
<path d="M38.6626 36.866C38.6626 37.2599 38.9936 37.5782 39.4008 37.5782C39.8047 37.5782 40.1336 37.2599 40.1336 36.866C40.1336 36.4721 39.8047 36.1543 39.4008 36.1543C38.9936 36.1543 38.6626 36.4483 38.6626 36.866Z" fill="white"/>
<path d="M45.0889 51.9544C45.0889 52.3483 45.4082 52.6667 45.8016 52.6667C46.1956 52.6667 46.5123 52.3478 46.5123 51.9544C46.5123 51.561 46.1956 51.2422 45.8016 51.2422C45.4077 51.2422 45.0889 51.5367 45.0889 51.9544Z" fill="white"/>
<path d="M45.0635 56.299C45.0635 56.6929 45.3834 57.0112 45.7762 57.0112C46.1691 57.0112 46.4869 56.6924 46.4869 56.299C46.4869 55.9056 46.1686 55.5889 45.7762 55.5889C45.3839 55.5889 45.0635 55.8813 45.0635 56.299Z" fill="white"/>
<path d="M45.2759 82.5869L24.9709 62.5479C19.8758 57.8409 14.6283 52.2603 14.4877 46.6687C14.3338 40.7027 15.688 37.3445 19.8535 33.373L23.7886 29.7446L24.7531 30.791L20.8259 34.4115C16.9623 38.0938 15.7662 41.0659 15.909 46.6306C16.0385 51.7231 21.3436 57.2619 25.9539 61.5152L46.2752 81.5743L45.2759 82.5869Z" fill="white"/>
<path d="M46.5141 34.6089H45.0923V51.9544H46.5141V34.6089Z" fill="white"/>
<path d="M40.1304 36.8213H38.708V54.1668H40.1304V36.8213Z" fill="white"/>
<path d="M52.7951 36.866C52.7951 37.2599 52.4662 37.5782 52.0612 37.5782C51.6535 37.5782 51.3257 37.2599 51.3257 36.866C51.3257 36.4721 51.6535 36.1543 52.0612 36.1543C52.4662 36.1543 52.7951 36.4483 52.7951 36.866Z" fill="white"/>
<path d="M52.752 36.8213H51.3296V54.1668H52.752V36.8213Z" fill="white"/>
<path d="M46.0252 55.6309L39.5791 53.3252L39.0995 54.666L45.5456 56.9717L46.0252 55.6309Z" fill="white"/>
<path d="M52.4202 54.6783L51.9409 53.3374L45.4937 55.6419L45.973 56.9828L52.4202 54.6783Z" fill="white"/>
<path d="M45.3401 60.9822L37.608 53.2391C37.488 53.1238 37.3553 52.99 37.2189 52.8531C36.55 52.1726 35.7902 51.4069 35.0557 51.4069C34.2546 51.4069 33.5244 52.1768 33.5244 53.0244H32.1021C32.1021 51.4048 33.4832 49.9824 35.0562 49.9824C36.385 49.9824 37.4119 51.0188 38.2341 51.8527C38.361 51.9838 38.4863 52.1091 38.6069 52.2244L46.35 59.9755L45.3401 60.9822Z" fill="white"/>
<path d="M46.1255 60.9822L45.1177 59.9755L52.8545 52.2328C52.983 52.1096 53.1062 51.9838 53.2352 51.8548C54.058 51.0188 55.0811 49.9824 56.4104 49.9824C57.984 49.9824 59.3678 51.4043 59.3678 53.0244H57.9444C57.9444 52.1768 57.2141 51.4069 56.411 51.4069C55.676 51.4069 54.9183 52.1752 54.2483 52.8531C54.1098 52.99 53.9797 53.1238 53.8533 53.247L46.1255 60.9822Z" fill="white"/>
<path d="M39.179 69.4207C35.3418 69.4207 32.1016 66.2878 32.1016 62.5732H33.5229C33.5229 65.5116 36.1143 67.9999 39.1785 67.9999C42.2966 67.9999 44.8325 65.6326 44.8325 62.7208H46.257C46.2581 66.4147 43.0818 69.4207 39.179 69.4207Z" fill="white"/>
<path d="M52.3482 69.4211C48.4777 69.4211 45.3311 66.4151 45.3311 62.7211H46.7524C46.7524 65.6336 49.2619 68.0003 52.3488 68.0003C55.4346 68.0003 57.9441 65.6098 57.9441 62.6772H59.3675C59.3675 66.3971 56.2188 69.4211 52.3482 69.4211Z" fill="white"/>
<path d="M46.8007 60.103H44.665V64.2686H46.8007V60.103Z" fill="white"/>
<path d="M33.5239 52.979H32.1016V62.7209H33.5239V52.979Z" fill="white"/>
<path d="M59.3668 52.979H57.9434V62.7209H59.3668V52.979Z" fill="white"/>
<path d="M45.7548 68.7687C44.5683 68.7687 43.5462 68.1533 43.0063 67.6282L43.9967 66.6098L43.5013 67.1169L43.9935 66.6056C44.168 66.769 45.7369 68.1675 47.3977 66.5977L48.3749 67.634C47.4923 68.47 46.5829 68.7687 45.7548 68.7687Z" fill="white"/>
<path d="M45.7108 74.3162C43.9881 74.3162 42.7635 74.0936 42.6868 74.0793C37.5266 72.9832 37.175 68.8018 37.1724 68.76L38.5916 68.6622L37.883 68.7098L38.5916 68.6548C38.6027 68.7859 38.9004 71.8215 42.9644 72.685C42.9729 72.685 45.5707 73.1524 48.4392 72.6787C52.7877 71.9548 53.0817 68.7939 53.0923 68.6622L54.512 68.7558C54.5115 68.7997 54.1673 73.1704 48.6729 74.0809C47.6143 74.2591 46.5949 74.3162 45.7108 74.3162Z" fill="white"/>
<path d="M28.0587 26.5456C24.4457 23.4417 24.4092 20.9354 24.4092 20.8318L25.8315 20.8339L25.1183 20.8318L25.8315 20.8223C25.8315 20.8418 25.9283 22.8374 28.9861 25.4653L28.0587 26.5456Z" fill="white"/>
<path d="M65.8774 20.8317C65.8774 21.2256 66.1973 21.5476 66.5918 21.5476C66.9878 21.5476 67.3077 21.2256 67.3077 20.8317C67.3077 20.4377 66.9878 20.1157 66.5918 20.1157C66.1979 20.1157 65.8774 20.4118 65.8774 20.8317Z" fill="white"/>
<path d="M62.4741 26.0039C62.4741 26.402 62.7956 26.7198 63.1906 26.7198C63.5856 26.7198 63.9055 26.4015 63.9055 26.0039C63.9055 25.6099 63.5861 25.29 63.1906 25.29C62.7951 25.29 62.4741 25.5824 62.4741 26.0039Z" fill="white"/>
<path d="M63.655 26.5458L62.7271 25.4661C65.7976 22.8281 65.8811 20.8526 65.8811 20.8346L67.3056 20.8325C67.3056 20.9351 67.2686 23.442 63.655 26.5458Z" fill="white"/>
<path d="M28.8642 26.6511L27.8857 25.6226L25.7738 27.6316L26.7523 28.6602L28.8642 26.6511Z" fill="white"/>
<path d="M26.6935 27.5284L24.6392 25.5029L23.6401 26.5162L25.6945 28.5417L26.6935 27.5284Z" fill="white"/>
<path d="M5.24325 45.9984L4.23438 44.9916L23.6663 25.4697L24.6736 26.4739L5.24325 45.9984Z" fill="white"/>
<path d="M10.7191 52.4599L4.26611 45.9985L5.27181 44.9917L11.7238 51.4547L10.7191 52.4599Z" fill="white"/>
<path d="M11.7356 52.4586L10.7153 51.4683L8.64117 53.6053L9.66148 54.5956L11.7356 52.4586Z" fill="white"/>
<path d="M13.9354 54.5834L12.9292 53.5767L10.7387 55.7659L11.7449 56.7727L13.9354 54.5834Z" fill="white"/>
<path d="M41.3524 90.9997C41.3191 90.9997 41.2816 90.9997 41.2477 90.9939C40.6481 90.9685 40.1099 90.7115 39.7313 90.2695L18.3566 68.9033L0.716081 51.2178C0.277738 50.836 0.0223475 50.2988 0.00172581 49.6976C-0.0210109 49.1091 0.181501 48.528 0.57437 48.0664C0.965653 47.6011 1.50341 47.3029 2.0861 47.2294C2.69629 47.1479 3.28269 47.3187 3.73372 47.701L3.78184 47.7465L9.57124 53.639L8.55867 54.6357L2.79622 48.7707C2.65293 48.6613 2.46734 48.6137 2.27064 48.639C2.03904 48.6692 1.82172 48.7903 1.6615 48.9833C1.49759 49.1757 1.41299 49.4089 1.42409 49.6421C1.4315 49.8488 1.51557 50.0318 1.65992 50.155L1.70486 50.1968L19.3639 67.8965L40.802 89.3341C40.922 89.479 41.1029 89.563 41.3117 89.5731C41.5465 89.5789 41.7807 89.5017 41.9706 89.341C42.3449 89.0316 42.4385 88.5288 42.1926 88.2084L36.5841 82.6119L37.5871 81.6057L43.2697 87.2751C44.0375 88.2004 43.864 89.6154 42.8821 90.4323C42.4443 90.8009 41.9055 90.9997 41.3524 90.9997Z" fill="white"/>
<path d="M2.62811 43.4537C2.0745 43.4537 1.53463 43.2565 1.09735 42.8906C0.114907 42.071 -0.0579984 40.6544 0.709763 39.7312L0.755244 39.6836L6.60281 33.8509L7.61063 34.8592L1.7895 40.6624C1.54098 40.9849 1.63774 41.4883 2.00787 41.7966C2.19981 41.9578 2.44146 42.0393 2.66724 42.0313C2.87557 42.0192 3.05588 41.9356 3.17961 41.7886L3.22297 41.7411L24.6161 20.3511L25.6245 21.3573L4.25141 42.7261C3.8707 43.1655 3.33401 43.4241 2.73386 43.45C2.69896 43.4537 2.66195 43.4537 2.62811 43.4537Z" fill="white"/>
<path d="M7.04925 35.4183L6.04248 34.412L39.7669 0.727843C40.1444 0.287913 40.6816 0.0314669 41.2818 0.00344257C41.8682 -0.0266968 42.4519 0.174765 42.9193 0.562347C43.3862 0.950457 43.6882 1.48767 43.7669 2.07037C43.851 2.67686 43.6866 3.26378 43.3064 3.71958L43.2646 3.76928L34.7077 12.3336L33.702 11.3269L42.2293 2.78843C42.3393 2.64513 42.3853 2.46007 42.3583 2.26337C42.3261 2.03283 42.2013 1.81762 42.0088 1.65688C41.8163 1.49561 41.59 1.41629 41.3494 1.42422C41.1411 1.43427 40.9592 1.51993 40.8366 1.66481L40.7921 1.71452L7.04925 35.4183Z" fill="white"/>
<path d="M9.56784 45.93L8.56055 44.9237L17.4014 36.085L18.4061 37.0917L9.56784 45.93Z" fill="white"/>
<path d="M19.9938 55.3508L9.57129 44.9224L8.56412 45.929L18.9866 56.3574L19.9938 55.3508Z" fill="white"/>
<path d="M36.5658 78.2343L12.7959 54.586L13.7984 53.5776L37.5673 77.2217L36.5658 78.2343Z" fill="white"/>
<path d="M35.5079 79.4395L11.6689 55.7417L10.6666 56.7501L34.5055 80.4478L35.5079 79.4395Z" fill="white"/>
<path d="M45.1606 4.47526C45.1606 4.87131 45.479 5.19121 45.8729 5.19121C46.2647 5.19121 46.583 4.87131 46.583 4.47526C46.583 4.08345 46.2647 3.76514 45.8729 3.76514C45.479 3.76514 45.1606 4.08345 45.1606 4.47526Z" fill="white"/>
<path d="M45.1968 21.8829C45.1968 22.2869 45.5204 22.611 45.9238 22.611C46.3267 22.611 46.654 22.2869 46.654 21.8829C46.654 21.481 46.3267 21.1548 45.9238 21.1548C45.5204 21.1548 45.1968 21.481 45.1968 21.8829Z" fill="white"/>
<path d="M66.6265 30.2378C66.6265 30.6338 66.9485 30.9537 67.3429 30.9537C67.7374 30.9537 68.0578 30.6333 68.0578 30.2378C68.0578 29.8439 67.7379 29.5234 67.3429 29.5234C66.948 29.5234 66.6265 29.8179 66.6265 30.2378Z" fill="white"/>
<path d="M65.8135 20.8317C65.8135 21.2256 66.1328 21.5476 66.5278 21.5476C66.9233 21.5476 67.2438 21.2256 67.2438 20.8317C67.2438 20.4377 66.9239 20.1157 66.5278 20.1157C66.1328 20.1157 65.8135 20.4118 65.8135 20.8317Z" fill="white"/>
<path d="M62.4106 26.0039C62.4106 26.402 62.7295 26.7198 63.1239 26.7198C63.52 26.7198 63.8404 26.4015 63.8404 26.0039C63.8404 25.6099 63.52 25.29 63.1239 25.29C62.7295 25.29 62.4106 25.5824 62.4106 26.0039Z" fill="white"/>
<path d="M64.6694 28.1568C64.6694 28.5529 64.9899 28.8728 65.3848 28.8728C65.7788 28.8728 66.0992 28.5529 66.0992 28.1568C66.0992 27.7608 65.7793 27.4409 65.3848 27.4409C64.9899 27.4409 64.6694 27.7349 64.6694 28.1568Z" fill="white"/>
<path d="M66.8037 26.0039C66.8037 26.402 67.1247 26.7198 67.5181 26.7198C67.9125 26.7198 68.234 26.4015 68.234 26.0039C68.234 25.6099 67.9131 25.29 67.5181 25.29C67.1252 25.29 66.8037 25.5824 66.8037 26.0039Z" fill="white"/>
<path d="M79.7109 51.9581C79.7109 52.3515 80.0319 52.6725 80.4269 52.6725C80.8213 52.6725 81.1428 52.3521 81.1428 51.9581C81.1428 51.5621 80.8219 51.2422 80.4269 51.2422C80.0324 51.2417 79.7109 51.5362 79.7109 51.9581Z" fill="white"/>
<path d="M77.5776 54.1383C77.5776 54.5301 77.897 54.8543 78.292 54.8543C78.688 54.8543 79.0079 54.5301 79.0079 54.1383C79.0079 53.7423 78.6886 53.4224 78.292 53.4224C77.8975 53.4218 77.5776 53.7164 77.5776 54.1383Z" fill="white"/>
<path d="M79.7109 56.3033C79.7109 56.6973 80.0319 57.0177 80.4269 57.0177C80.8213 57.0177 81.1428 56.6973 81.1428 56.3033C81.1428 55.9094 80.8219 55.5874 80.4269 55.5874C80.0324 55.5869 79.7109 55.8851 79.7109 56.3033Z" fill="white"/>
<path d="M45.126 26.1716C45.126 26.5851 45.4607 26.9192 45.8742 26.9192C46.2866 26.9192 46.6213 26.5851 46.6213 26.1716C46.6213 25.7575 46.2866 25.4229 45.8742 25.4229C45.4607 25.4229 45.126 25.7575 45.126 26.1716Z" fill="white"/>
<path d="M51.6992 10.9482C51.6992 11.3401 52.0175 11.66 52.4099 11.66C52.8033 11.66 53.1237 11.3401 53.1237 10.9482C53.1237 10.5543 52.8038 10.2339 52.4099 10.2339C52.017 10.2339 51.6992 10.5543 51.6992 10.9482Z" fill="white"/>
<path d="M46.6542 8.75455C46.6542 9.14637 46.3353 9.4668 45.9414 9.4668C45.5485 9.4668 45.2271 9.14689 45.2271 8.75455C45.2271 8.36063 45.548 8.04443 45.9414 8.04443C46.3353 8.04391 46.6542 8.36063 46.6542 8.75455Z" fill="white"/>
<path d="M52.9135 10.442L46.3755 3.97021L45.373 4.98297L51.911 11.4547L52.9135 10.442Z" fill="white"/>
<path d="M39.8338 11.4543L38.835 10.4418L45.371 3.96973L46.373 4.9823L39.8338 11.4543Z" fill="white"/>
<path d="M35.1496 11.8304C35.1496 12.2243 34.8302 12.5448 34.4373 12.5448C34.045 12.5448 33.7251 12.2243 33.7251 11.8304C33.7251 11.4386 34.0445 11.1182 34.4373 11.1182C34.8302 11.1176 35.1496 11.4386 35.1496 11.8304Z" fill="white"/>
<path d="M40.1972 15.0869C40.1438 15.5364 39.8636 15.8346 39.4501 15.8346C39.0413 15.8346 38.7664 15.5009 38.7045 15.0869C38.6432 14.6771 39.0413 14.3408 39.4501 14.3408C39.8636 14.3408 40.2453 14.6766 40.1972 15.0869Z" fill="white"/>
<path d="M38.8764 15.5344C36.5974 12.8784 34.3201 12.5321 34.2979 12.5284L34.4808 11.1182C34.5961 11.1324 37.297 11.5063 39.9572 14.6053L38.8764 15.5344Z" fill="white"/>
<path d="M46.4479 9.26385L45.4492 8.24951L38.9295 14.6686L39.9282 15.6829L46.4479 9.26385Z" fill="white"/>
<path d="M56.7329 11.8304C56.7329 12.2243 57.0523 12.5448 57.4451 12.5448C57.8391 12.5448 58.1569 12.2243 58.1569 11.8304C58.1569 11.4386 57.8391 11.1182 57.4451 11.1182C57.0523 11.1176 56.7329 11.4386 56.7329 11.8304Z" fill="white"/>
<path d="M51.6853 15.0869C51.7377 15.5364 52.02 15.8346 52.4314 15.8346C52.8428 15.8346 53.1156 15.5009 53.178 15.0869C53.2383 14.6771 52.8428 14.3408 52.4314 14.3408C52.02 14.3408 51.6367 14.6766 51.6853 15.0869Z" fill="white"/>
<path d="M53.0055 15.5344L51.9263 14.6053C54.587 11.5063 57.2874 11.1324 57.4016 11.1182L57.5798 12.5284L57.4909 11.8241L57.5851 12.5284C57.5623 12.5321 55.2855 12.8784 53.0055 15.5344Z" fill="white"/>
<path d="M52.9644 14.6662L46.4409 8.25244L45.4433 9.2671L51.9668 15.6808L52.9644 14.6662Z" fill="white"/>
<path d="M23.4317 36.2769L22.436 35.2606L40.5472 17.5313C41.6518 15.9455 43.2592 14.1451 45.9284 14.0996C45.9643 14.0996 45.9987 14.0996 46.0325 14.0996C48.3596 14.0996 49.5382 15.4527 51.1615 17.3182L51.2419 17.4118L69.0368 35.2665L68.0295 36.269L50.1875 18.3646L50.0892 18.2536C48.5389 16.4743 47.6955 15.4961 45.9543 15.5214C43.9122 15.5574 42.6458 16.9935 41.6798 18.3963L41.5915 18.4994L23.4317 36.2769Z" fill="white"/>
<path d="M58.4612 66.1502L57.4629 65.1318L61.3361 61.3358L61.9727 60.7489C66.1325 56.9217 71.8298 51.6796 71.9589 46.678C72.1022 41.0938 70.3171 38.3844 66.5137 34.7576L67.4945 33.7271C71.5216 37.5664 73.5372 40.6284 73.3812 46.714C73.2379 52.3162 67.2841 57.7952 62.9372 61.7953L62.3137 62.37L58.4612 66.1502Z" fill="white"/>
<path d="M45.3738 82.5869L25.0842 62.5479C19.988 57.8409 14.7416 52.2603 14.5989 46.6687C14.446 40.7027 15.8002 37.3445 19.9679 33.373L23.9008 29.7446L24.8663 30.791L20.9392 34.4115C17.0756 38.0938 15.879 41.0659 16.0212 46.6343C16.1524 51.7231 21.4569 57.2619 26.0666 61.5152L46.3732 81.5759L45.3738 82.5869Z" fill="white"/>
<path d="M46.5574 34.6087C46.5574 35.0048 46.238 35.3225 45.8446 35.3225C45.4497 35.3225 45.1313 35.0042 45.1313 34.6087C45.1313 34.2164 45.4497 33.8965 45.8446 33.8965C46.2386 33.8965 46.5574 34.191 46.5574 34.6087Z" fill="white"/>
<path d="M52.9826 36.866C52.9826 37.2599 52.6558 37.5782 52.2497 37.5782C51.8431 37.5782 51.5137 37.2599 51.5137 36.866C51.5137 36.4721 51.8431 36.1543 52.2497 36.1543C52.6558 36.1543 52.9826 36.4483 52.9826 36.866Z" fill="white"/>
<path d="M46.5582 51.9544C46.5582 52.3483 46.2394 52.6667 45.8449 52.6667C45.4558 52.6667 45.1343 52.3478 45.1343 51.9544C45.1343 51.561 45.4552 51.2422 45.8449 51.2422C46.2394 51.2422 46.5582 51.5367 46.5582 51.9544Z" fill="white"/>
<path d="M46.583 56.299C46.583 56.6929 46.2647 57.0112 45.8739 57.0112C45.4811 57.0112 45.1606 56.6924 45.1606 56.299C45.1606 55.9056 45.4805 55.5889 45.8739 55.5889C46.2647 55.5889 46.583 55.8813 46.583 56.299Z" fill="white"/>
<path d="M46.3729 82.5869L45.373 81.5743L65.6764 61.5332C70.302 57.2619 75.6081 51.7236 75.7377 46.6306C75.8804 41.0659 74.6839 38.0938 70.8102 34.4035L66.8952 30.791L67.8591 29.7446L71.7836 33.365C75.9587 37.344 77.3145 40.7021 77.1627 46.6687C77.0194 52.2609 71.7736 57.8409 66.6583 62.5601L46.3729 82.5869Z" fill="white"/>
<path d="M46.5577 34.6089H45.1348V51.9544H46.5577V34.6089Z" fill="white"/>
<path d="M52.9401 36.8213H51.5161V54.1668H52.9401V36.8213Z" fill="white"/>
<path d="M52.5589 54.6548L52.0781 53.314L45.6336 55.6246L46.1144 56.9655L52.5589 54.6548Z" fill="white"/>
<path d="M46.158 55.6335L39.7114 53.3276L39.2318 54.6684L45.6784 56.9743L46.158 55.6335Z" fill="white"/>
<path d="M46.305 60.9822L45.2998 59.9755L53.034 52.2328C53.1646 52.1096 53.2878 51.9838 53.4152 51.8548C54.2385 51.0188 55.2627 49.9824 56.5936 49.9824C58.1677 49.9824 59.5499 51.4043 59.5499 53.0244H58.127C58.127 52.1768 57.3947 51.4069 56.5941 51.4069C55.8597 51.4069 55.0977 52.1752 54.4299 52.8531C54.294 52.99 54.1608 53.1238 54.0349 53.247L46.305 60.9822Z" fill="white"/>
<path d="M45.5239 60.9822L37.7887 53.2391C37.6681 53.1238 37.537 52.99 37.4011 52.8531C36.7306 52.1726 35.9719 51.4069 35.238 51.4069C34.4369 51.4069 33.7046 52.1768 33.7046 53.0244H32.2827C32.2827 51.4048 33.6644 49.9824 35.2385 49.9824C36.5683 49.9824 37.5925 51.0188 38.4147 51.8527C38.5427 51.9838 38.6675 52.1091 38.7875 52.2244L46.5318 59.9755L45.5239 60.9822Z" fill="white"/>
<path d="M52.4686 69.4207C48.5664 69.4207 45.3906 66.4147 45.3906 62.7208H46.8125C46.8125 65.6332 49.3516 67.9999 52.4681 67.9999C55.5339 67.9999 58.1253 65.5116 58.1253 62.5732H59.5482C59.5487 66.2878 56.3069 69.4207 52.4686 69.4207Z" fill="white"/>
<path d="M39.2999 69.4211C35.432 69.4211 32.2827 66.3971 32.2827 62.6772H33.7046C33.7046 65.6098 36.2135 68.0003 39.2999 68.0003C42.3858 68.0003 44.8953 65.633 44.8953 62.7211H46.3171C46.3176 66.4151 43.1688 69.4211 39.2999 69.4211Z" fill="white"/>
<path d="M46.9833 60.103H44.8481V64.2686H46.9833V60.103Z" fill="white"/>
<path d="M59.5484 52.979H58.1255V62.7209H59.5484V52.979Z" fill="white"/>
<path d="M45.8941 68.7687C45.064 68.7687 44.1571 68.47 43.272 67.6345L44.2502 66.5981C45.9597 68.2135 47.583 66.6738 47.6506 66.6098L48.6426 67.6282C48.1027 68.1532 47.0806 68.7687 45.8941 68.7687Z" fill="white"/>
<path d="M45.9354 74.3167C45.0518 74.3167 44.035 74.259 42.9753 74.0819C37.4805 73.1708 37.1378 68.8001 37.1362 68.7568L38.5576 68.6653C38.5681 68.7948 38.8605 71.9558 43.2091 72.6796C46.0898 73.1555 48.6754 72.686 48.7023 72.6796C52.7468 71.822 53.0472 68.7864 53.0567 68.6558L54.4775 68.761C54.4733 68.8028 54.1222 72.9842 48.981 74.0787C48.8927 74.0904 47.6623 74.3167 45.9354 74.3167Z" fill="white"/>
<path d="M63.5891 26.5458L62.6616 25.4661C65.7332 22.8281 65.8162 20.8526 65.8162 20.8346L67.2396 20.8325C67.2396 20.9351 67.2037 23.442 63.5891 26.5458Z" fill="white"/>
<path d="M64.8927 28.6705L62.7798 26.6633L63.7612 25.6333L65.873 27.6421L64.8927 28.6705Z" fill="white"/>
<path d="M68.0188 26.5157L67.02 25.5029L64.9671 27.5276L65.9659 28.5403L68.0188 26.5157Z" fill="white"/>
<path d="M86.4066 45.9984L66.9741 26.4739L67.9835 25.4697L87.4134 44.9916L86.4066 45.9984Z" fill="white"/>
<path d="M87.38 45.9922L86.3726 44.9873L79.9219 51.4544L80.9293 52.4593L87.38 45.9922Z" fill="white"/>
<path d="M83.0036 53.5839L80.9307 51.4497L79.9096 52.4414L81.9826 54.5756L83.0036 53.5839Z" fill="white"/>
<path d="M80.9043 55.7864L78.7178 53.5952L77.7101 54.6007L79.8967 56.7919L80.9043 55.7864Z" fill="white"/>
<path d="M50.2959 90.9999C49.7433 90.9999 49.205 90.8016 48.7646 90.4331C48.2993 90.045 47.9979 89.5083 47.9175 88.9272C47.8334 88.3207 47.9974 87.7332 48.3802 87.2753L48.4219 87.2298L54.0612 81.6059L55.0653 82.6122L49.4557 88.2086C49.3462 88.3498 49.3023 88.5369 49.3283 88.7315C49.36 88.9663 49.4832 89.181 49.6767 89.3412C49.8692 89.5019 50.1092 89.5791 50.3377 89.5733C50.5449 89.5633 50.7258 89.4797 50.8463 89.3343L50.8918 89.2867L72.2871 67.8967L89.9884 50.1552C90.1333 50.032 90.2189 49.8491 90.2253 49.6423C90.2353 49.4097 90.1497 49.1765 89.9884 48.9835C89.8266 48.7905 89.6093 48.6689 89.3782 48.6393C89.1815 48.6139 88.9964 48.6615 88.8542 48.7709L83.0923 54.6359L82.0765 53.6392L87.9146 47.7012C88.3677 47.3195 88.9552 47.1503 89.5601 47.2296C90.1449 47.3036 90.6832 47.6018 91.076 48.0666C91.4679 48.5288 91.6699 49.1093 91.6471 49.6978C91.6244 50.2985 91.3716 50.8357 90.9317 51.218L73.2938 68.9019L51.9186 90.2697C51.539 90.7112 51.0023 90.9682 50.4022 90.9941C50.3646 90.9999 50.3324 90.9999 50.2959 90.9999Z" fill="white"/>
<path d="M89.0207 43.4538C88.9852 43.4538 88.9498 43.4538 88.9165 43.4495C88.3148 43.4236 87.7786 43.165 87.3979 42.7256L66.0254 21.3568L67.0311 20.3506L88.4676 41.7881C88.5913 41.9351 88.7711 42.0192 88.98 42.0309C89.2147 42.0388 89.449 41.9574 89.642 41.7961C89.8329 41.6343 89.9571 41.418 89.9883 41.1891C90.0158 40.9924 89.9698 40.8052 89.8609 40.6619L84.0382 34.8566L85.0444 33.8504L90.9364 39.7307C91.3182 40.1881 91.4821 40.7729 91.3991 41.3821C91.3187 41.9648 91.0178 42.4999 90.5509 42.8901C90.1136 43.2565 89.5732 43.4538 89.0207 43.4538Z" fill="white"/>
<path d="M84.6008 35.4183L50.8315 1.69023L50.8114 1.66432C50.6909 1.51944 50.5095 1.43378 50.298 1.42373C50.0627 1.4158 49.8321 1.49565 49.6397 1.65639C49.4467 1.81713 49.3224 2.03233 49.2918 2.26287C49.2637 2.4601 49.3097 2.64517 49.4202 2.78794L57.9486 11.3264L56.9408 12.3331L48.3416 3.71909C47.9593 3.2633 47.7964 2.67637 47.8805 2.06988C47.9593 1.48666 48.2623 0.949961 48.7286 0.56185C49.1955 0.174269 49.7713 -0.027185 50.3651 0.00295439C50.9653 0.03045 51.503 0.287425 51.8822 0.727354L85.6055 34.4115L84.6008 35.4183Z" fill="white"/>
<path d="M83.0863 44.9212L74.2476 36.0825L73.2407 37.0894L82.0794 45.9281L83.0863 44.9212Z" fill="white"/>
<path d="M83.0724 45.9252L82.064 44.9185L71.6477 55.3524L72.6562 56.3592L83.0724 45.9252Z" fill="white"/>
<path d="M55.0857 78.2343L54.0806 77.2217L77.8494 53.5776L78.853 54.586L55.0857 78.2343Z" fill="white"/>
<path d="M80.9778 56.7456L79.9746 55.7373L56.1457 79.4452L57.1489 80.4535L80.9778 56.7456Z" fill="white"/>
<path d="M35.0689 32.571C34.4783 32.571 33.8871 32.3346 33.4541 31.8693L30.1958 28.6746L31.1915 27.6578L34.4947 30.8943C34.7807 31.2126 35.2719 31.2364 35.5876 30.9504C35.8996 30.6675 35.9302 30.1863 35.6558 29.8701L29.2763 23.6455C28.1887 22.6107 27.5436 21.2285 27.4653 19.7581C27.3876 18.2707 27.8936 16.8737 28.894 15.8236C30.9488 13.663 34.465 13.663 36.7313 15.8193L46.2178 25.6421L45.1968 26.6309L35.7283 16.8271C34.0505 15.2335 31.4374 15.2139 29.9235 16.8012C29.197 17.569 28.8285 18.5895 28.8866 19.6814C28.9443 20.7876 29.4328 21.8297 30.2635 22.6181L36.698 28.9003C37.5118 29.8003 37.4404 31.1925 36.5426 32.0042C36.1232 32.3843 35.5966 32.571 35.0689 32.571Z" fill="white"/>
<path d="M41.443 30.2696C41.4066 30.2696 41.3669 30.2696 41.3309 30.2659C40.7525 30.2379 40.219 29.9872 39.8245 29.5637L31.0275 20.8741C30.2587 19.9387 30.3946 18.5523 31.3321 17.7824C32.2452 17.0305 33.5915 17.1415 34.3693 18.0187L43.0679 26.5974C43.4624 27.031 43.6644 27.5936 43.6342 28.181C43.6051 28.7658 43.3497 29.3067 42.9135 29.7012C42.5074 30.0687 41.9871 30.2696 41.443 30.2696ZM32.1099 19.9466L40.8662 28.5903C41.0047 28.7452 41.1945 28.8351 41.4023 28.8451C41.6107 28.8531 41.8074 28.7854 41.9607 28.6463C42.1151 28.5073 42.2045 28.3158 42.214 28.1091C42.2245 27.9103 42.1553 27.7152 42.0247 27.5639L33.2055 18.87C32.9263 18.6511 32.5223 18.6453 32.2363 18.8801C31.9137 19.145 31.8608 19.6182 32.1099 19.9466Z" fill="white"/>
<path d="M32.7681 47.5975C32.7301 47.5975 32.6925 47.5975 32.6555 47.5954C32.076 47.5653 31.5425 47.3152 31.1496 46.8906L21.5991 37.4427L22.6001 36.4285L32.1913 45.9203C32.3298 46.0736 32.5217 46.163 32.7274 46.1731C32.9326 46.1847 33.1319 46.1133 33.2858 45.9742C33.5978 45.6919 33.6253 45.2107 33.3503 44.8919L25.4792 37.1333L26.4775 36.1187L34.3946 43.929C35.2073 44.8242 35.137 46.2169 34.2418 47.028C33.8315 47.3982 33.3122 47.5975 32.7681 47.5975Z" fill="white"/>
<path d="M58.806 47.5976C58.2593 47.5976 57.7432 47.3988 57.3345 47.0281C56.4377 46.2164 56.3669 44.8242 57.1801 43.929L57.2066 43.8968L65.0951 36.1182L66.0956 37.1329L58.2234 44.8914C57.9484 45.2102 57.977 45.6914 58.29 45.9759C58.4428 46.1133 58.6406 46.1847 58.8462 46.1731C59.054 46.1631 59.2449 46.0737 59.384 45.9203L59.4099 45.8902L68.9741 36.4285L69.9751 37.4427L60.4225 46.8906C60.0338 47.3147 59.4993 47.5648 58.9192 47.5955C58.8817 47.5976 58.8441 47.5976 58.806 47.5976Z" fill="white"/>
<path d="M28.5631 51.9542C28.0232 51.9542 27.5087 51.7591 27.1031 51.3969L27.0725 51.3694L18.791 43.0811L19.7983 42.0748L28.0623 50.3473C28.2141 50.4784 28.4081 50.5398 28.609 50.5303C28.8147 50.5181 29.004 50.4271 29.1426 50.2717C29.28 50.1168 29.3499 49.919 29.3377 49.7123C29.3261 49.5071 29.2346 49.3162 29.0791 49.1787L29.0453 49.1491L19.9236 39.908L20.9362 38.9097L30.0452 48.1323C30.4735 48.5204 30.7241 49.0513 30.759 49.6303C30.7923 50.2146 30.5951 50.7798 30.2065 51.2176C29.8152 51.6555 29.2764 51.9156 28.6931 51.9495C28.6477 51.9542 28.6048 51.9542 28.5631 51.9542Z" fill="white"/>
<path d="M63.122 51.9542C63.0813 51.9542 63.0353 51.9542 62.993 51.9499C62.4066 51.9161 61.8694 51.6554 61.4797 51.2181C61.0889 50.7803 60.8928 50.2156 60.9266 49.6308C60.9583 49.0518 61.2142 48.5204 61.6404 48.1328L70.7489 38.9102L71.7604 39.9085L62.6049 49.1792C62.4521 49.3167 62.3611 49.5076 62.349 49.7127C62.3373 49.9195 62.404 50.1167 62.5441 50.2722C62.681 50.4271 62.8687 50.5186 63.076 50.5307C63.2727 50.5408 63.4689 50.4789 63.6212 50.3478L71.8878 42.0753L72.8946 43.0816L64.5819 51.3974C64.1764 51.759 63.6624 51.9542 63.122 51.9542Z" fill="white"/>
<path d="M49.9333 30.2695C49.3866 30.2695 48.8684 30.0686 48.4607 29.7006C48.025 29.3061 47.7701 28.7652 47.7395 28.1804C47.7109 27.5929 47.9129 27.0303 48.3047 26.5967L48.3354 26.5666L57.0087 18.0144C57.3761 17.6025 57.879 17.346 58.4331 17.2921C59.0169 17.2345 59.5885 17.4074 60.0427 17.7818C60.4964 18.1535 60.7777 18.6791 60.8353 19.2639C60.8914 19.8481 60.719 20.4197 60.3457 20.875L60.2949 20.9263L51.5481 29.5604C51.1579 29.9861 50.6233 30.2367 50.0444 30.2647C50.0073 30.2695 49.9698 30.2695 49.9333 30.2695ZM49.3496 27.5638C49.2184 27.7151 49.1513 27.9096 49.1597 28.109C49.1714 28.3157 49.2613 28.5066 49.4146 28.6462C49.5669 28.7853 49.7678 28.8535 49.974 28.845C50.1792 28.835 50.3701 28.7456 50.5096 28.5902L50.5371 28.5627L59.2665 19.9465C59.3844 19.7895 59.4378 19.598 59.4193 19.4035C59.3981 19.1962 59.2998 19.0132 59.1411 18.88C58.9815 18.7483 58.78 18.687 58.5727 18.7066C58.4231 18.7224 58.2819 18.7785 58.1672 18.8699L49.3496 27.5638Z" fill="white"/>
<path d="M56.3049 32.5715C55.7793 32.5715 55.2516 32.3849 54.8312 32.0047C53.9323 31.1909 53.8662 29.8008 54.6763 28.9009L54.7096 28.8691L61.1055 22.6266C61.9425 21.8308 62.429 20.7881 62.4882 19.6819C62.5469 18.59 62.1784 17.5695 61.4487 16.8018C60.7269 16.0419 59.7286 15.6221 58.6404 15.6221C58.6362 15.6221 58.6314 15.6221 58.6283 15.6221C57.5258 15.6258 56.464 16.0578 55.6376 16.8377L46.3806 26.6594L45.3447 25.6844L54.6425 15.8188C55.7359 14.7787 57.1498 14.2034 58.6224 14.1997C58.6283 14.1997 58.6335 14.1997 58.6404 14.1997C60.1215 14.1997 61.483 14.7745 62.4808 15.823C63.4796 16.8731 63.9894 18.2701 63.9085 19.7575C63.8302 21.228 63.1867 22.6107 62.0932 23.6508L55.7196 29.8695C55.4446 30.1857 55.4737 30.6674 55.7862 30.9498C56.1029 31.2364 56.5931 31.2121 56.8786 30.8938L56.9256 30.8483L60.4409 27.6176L61.4032 28.6656L57.9097 31.8767C57.4803 32.3389 56.8945 32.5715 56.3049 32.5715Z" fill="white"/>
<path d="M46.2164 21.3726L41.8574 16.8027L40.8274 17.7852L45.1864 22.3551L46.2164 21.3726Z" fill="white"/>
<path d="M50.7113 17.8346L49.6973 16.8379L45.2716 21.3406L46.2856 22.3373L50.7113 17.8346Z" fill="white"/>
<path d="M39.4002 36.1543H22.8638V37.5782H39.4002V36.1543Z" fill="white"/>
<path d="M68.597 36.1543H52.061V37.5782H68.597V36.1543Z" fill="white"/>
<path d="M39.915 44.9897L31.2778 36.3623L30.2715 37.3698L38.9087 45.9972L39.915 44.9897Z" fill="white"/>
<path d="M39.9158 40.8662L35.5996 36.3604L34.571 37.3457L38.8871 41.8515L39.9158 40.8662Z" fill="white"/>
<path d="M56.5797 32.5711C56.0536 32.5711 55.5275 32.3844 55.1071 32.0042C54.6719 31.6103 54.415 31.071 54.3859 30.484C54.3568 29.8971 54.5567 29.3361 54.9527 28.9004L54.9823 28.8687L61.3793 22.6261C63.0856 21.0028 63.2368 18.3929 61.7251 16.8013C60.2107 15.2118 57.5976 15.2335 55.8997 16.851L46.4534 26.631L45.4292 25.6422L54.8956 15.8379C57.1841 13.6615 60.7009 13.6615 62.7546 15.822C64.8093 17.9783 64.6348 21.4919 62.3665 23.6503L55.9938 29.8691C55.8627 30.0224 55.7966 30.2133 55.8061 30.4127C55.8167 30.621 55.9077 30.8103 56.0605 30.9499C56.3777 31.2365 56.8668 31.2121 57.1555 30.8938L57.183 30.8642L60.4576 27.6573L61.4538 28.6741L58.1924 31.8689C57.7626 32.3342 57.1719 32.5711 56.5797 32.5711Z" fill="white"/>
<path d="M50.2049 30.2695C49.6598 30.2695 49.1421 30.0686 48.7323 29.7006C47.8366 28.8884 47.7674 27.494 48.579 26.5967L48.6065 26.5666L57.2829 18.0144C57.6504 17.6025 58.1533 17.346 58.7048 17.2921C59.2912 17.2345 59.8617 17.4074 60.317 17.7818C60.7691 18.1535 61.0514 18.6791 61.1091 19.2639C61.1651 19.8481 60.9917 20.4197 60.6194 20.875L60.5681 20.9263L51.824 29.5626C51.4306 29.9861 50.8955 30.2367 50.3176 30.2647C50.2816 30.2695 50.2441 30.2695 50.2049 30.2695ZM49.6244 27.5638C49.3494 27.8822 49.3774 28.3612 49.6894 28.6457C49.8427 28.7847 50.0463 28.853 50.2467 28.8445C50.4535 28.8345 50.6428 28.7451 50.7829 28.5896L50.8104 28.5621L59.5392 19.946C59.6581 19.7889 59.7115 19.5975 59.692 19.4029C59.6745 19.1957 59.573 19.0127 59.4139 18.8795C59.2542 18.7499 59.0501 18.6865 58.8465 18.706C58.6963 18.7219 58.5583 18.7779 58.4436 18.8694L49.6244 27.5638Z" fill="white"/>
<path d="M58.8831 47.5981C58.3575 47.5981 57.8298 47.4109 57.4105 47.0286C56.9748 46.6368 56.7194 46.0975 56.6887 45.5105C56.6601 44.9242 56.8621 44.3605 57.2555 43.9248L57.2836 43.8968L65.1695 36.1182L66.1689 37.1329L58.2993 44.8914C58.1671 45.0452 58.1026 45.2377 58.1111 45.4386C58.1206 45.6438 58.2105 45.8347 58.3643 45.9737C58.6811 46.2603 59.1707 46.2366 59.4605 45.9182L59.4864 45.8902L69.0501 36.4285L70.0505 37.4427L60.4995 46.8906C60.0685 47.3591 59.4763 47.5981 58.8831 47.5981Z" fill="white"/>
<path d="M63.0866 51.9542C63.0443 51.9542 63.0009 51.9542 62.9571 51.9499C62.3723 51.9161 61.8329 51.6554 61.4443 51.2181C61.0519 50.7803 60.8563 50.2156 60.8912 49.6308C60.924 49.0518 61.1762 48.5204 61.6055 48.1328L70.7119 38.9102L71.7244 39.9085L62.5705 49.1792C62.4156 49.3167 62.3236 49.5076 62.312 49.7127C62.3003 49.9195 62.3685 50.1167 62.5076 50.2722C62.6435 50.4271 62.8318 50.5186 63.0401 50.5307C63.2426 50.5429 63.434 50.4789 63.5863 50.3478L71.8514 42.0753L72.8576 43.0816L64.5455 51.3974C64.1394 51.759 63.6238 51.9542 63.0866 51.9542Z" fill="white"/>
<path d="M50.8027 17.7869L49.7715 16.8042L45.4148 21.3756L46.4459 22.3584L50.8027 17.7869Z" fill="white"/>
<path d="M68.7854 36.1543H52.25V37.5782H68.7854V36.1543Z" fill="white"/>
<path d="M61.3783 37.3674L60.3726 36.3608L51.7373 44.9887L52.743 45.9953L61.3783 37.3674Z" fill="white"/>
<path d="M52.7627 41.8658L51.7363 40.8813L56.0537 36.373L57.0789 37.3597L52.7627 41.8658Z" fill="white"/>
<path d="M61.2458 37.3792L60.2378 36.3726L51.61 45.0113L52.618 46.018L61.2458 37.3792Z" fill="white"/>
<path d="M52.6255 41.8658L51.5986 40.8813L55.9144 36.373L56.9423 37.3597L52.6255 41.8658Z" fill="white"/>
</svg>
