<svg width="129" height="88" viewBox="0 0 129 88" fill="none" xmlns="http://www.w3.org/2000/svg">
<path d="M63.9819 59.0792C63.9819 59.3802 64.2249 59.6205 64.5239 59.6205C64.8218 59.6205 65.0646 59.3798 65.0646 59.0792C65.0646 58.7807 64.8218 58.5356 64.5239 58.5356C64.2246 58.5356 63.9819 58.7597 63.9819 59.0792Z" fill="black"/>
<path d="M65.1332 59.0794C65.1332 59.3804 64.8905 59.6208 64.5911 59.6208C64.2932 59.6208 64.0498 59.3801 64.0498 59.0794C64.0498 58.7809 64.2932 58.5359 64.5911 58.5359C64.8905 58.5359 65.1332 58.7599 65.1332 59.0794Z" fill="black"/>
<path d="M63.9819 56.022C63.9819 56.3226 64.2249 56.5669 64.5239 56.5669C64.8218 56.5669 65.0646 56.3226 65.0646 56.022C65.0646 55.7242 64.8218 55.4817 64.5239 55.4817C64.2246 55.4817 63.9819 55.705 63.9819 56.022Z" fill="black"/>
<path d="M58.0424 53.2027C58.0424 53.5005 58.284 53.7441 58.5841 53.7441C58.8817 53.7441 59.1237 53.5005 59.1237 53.2027C59.1237 52.9024 58.8817 52.6592 58.5841 52.6592C58.284 52.6588 58.0424 52.8847 58.0424 53.2027Z" fill="black"/>
<path d="M56.6657 54.605C56.6657 54.9028 56.9088 55.1475 57.2071 55.1475C57.5068 55.1475 57.7491 54.9025 57.7491 54.605C57.7491 54.3044 57.5068 54.0615 57.2071 54.0615C56.9088 54.0615 56.6657 54.2856 56.6657 54.605Z" fill="black"/>
<path d="M59.563 54.7722C59.563 55.0714 59.8064 55.315 60.1043 55.315C60.4037 55.315 60.646 55.0714 60.646 54.7722C60.646 54.4715 60.4037 54.2312 60.1043 54.2312C59.8061 54.2312 59.563 54.4527 59.563 54.7722Z" fill="black"/>
<path d="M58.1671 56.1634C58.1671 56.4626 58.4106 56.7048 58.7089 56.7048C59.0075 56.7048 59.2502 56.4626 59.2502 56.1634C59.2502 55.8642 59.0075 55.6213 58.7089 55.6213C58.4102 55.621 58.1671 55.844 58.1671 56.1634Z" fill="black"/>
<path d="M68.4311 54.7442C68.4311 55.042 68.6734 55.2837 68.9731 55.2837C69.2714 55.2837 69.5138 55.0423 69.5138 54.7442C69.5138 54.4424 69.2714 54.2 68.9731 54.2C68.6734 54.2 68.4311 54.4244 68.4311 54.7442Z" fill="black"/>
<path d="M69.8669 56.1998C69.8669 56.5005 70.1096 56.7433 70.4086 56.7433C70.7083 56.7433 70.9496 56.5001 70.9496 56.1998C70.9496 55.902 70.7083 55.657 70.4086 55.657C70.1096 55.657 69.8669 55.8814 69.8669 56.1998Z" fill="black"/>
<path d="M59.018 53.5304L58.3263 52.8467L56.8952 54.3003L57.5869 54.984L59.018 53.5304Z" fill="black"/>
<path d="M58.9368 56.5382L58.2537 55.8476L59.7617 54.3442L60.4462 55.0348L58.9368 56.5382Z" fill="black"/>
<path d="M64.0716 59.371L59.8454 55.1164L60.5321 54.428L64.7609 58.6844L64.0716 59.371Z" fill="black"/>
<path d="M92.0941 31.092C92.0941 31.3612 92.3116 31.5813 92.5817 31.5813C92.8508 31.5813 93.0679 31.3612 93.0679 31.092C93.0679 30.8228 92.8508 30.6038 92.5817 30.6038C92.3112 30.6038 92.0941 30.805 92.0941 31.092Z" fill="black"/>
<path d="M89.1431 31.0462C89.1431 31.3165 89.3609 31.5355 89.6296 31.5355C89.8987 31.5355 90.1172 31.3169 90.1172 31.0462C90.1172 30.7766 89.899 30.5569 89.6296 30.5569C89.3609 30.5569 89.1431 30.7607 89.1431 31.0462Z" fill="black"/>
<path d="M89.1431 37.0013C89.1431 37.2691 89.3609 37.4906 89.6296 37.4906C89.8987 37.4906 90.1172 37.2691 90.1172 37.0013C90.1172 36.7306 89.899 36.512 89.6296 36.512C89.3609 36.5116 89.1431 36.7129 89.1431 37.0013Z" fill="black"/>
<path d="M65.1317 56.022C65.1317 56.3226 64.8889 56.5669 64.5896 56.5669C64.2917 56.5669 64.0482 56.3226 64.0482 56.022C64.0482 55.7242 64.2917 55.4817 64.5896 55.4817C64.8889 55.4817 65.1317 55.705 65.1317 56.022Z" fill="black"/>
<path d="M71.0722 53.2027C71.0722 53.5005 70.8298 53.7441 70.5305 53.7441C70.2311 53.7441 69.9888 53.5005 69.9888 53.2027C69.9888 52.9024 70.2311 52.6592 70.5305 52.6592C70.8298 52.6592 71.0722 52.8847 71.0722 53.2027Z" fill="black"/>
<path d="M72.4464 54.605C72.4464 54.9028 72.2058 55.1475 71.9057 55.1475C71.6064 55.1475 71.364 54.9025 71.364 54.605C71.364 54.3044 71.6064 54.0615 71.9057 54.0615C72.2058 54.0615 72.4464 54.2856 72.4464 54.605Z" fill="black"/>
<path d="M69.5502 54.7722C69.5502 55.0714 69.3075 55.315 69.0078 55.315C68.7084 55.315 68.4671 55.0714 68.4671 54.7722C68.4671 54.4715 68.7084 54.2312 69.0078 54.2312C69.3075 54.2312 69.5502 54.4527 69.5502 54.7722Z" fill="black"/>
<path d="M70.9456 56.1634C70.9456 56.4626 70.7025 56.7048 70.4035 56.7048C70.1038 56.7048 69.8629 56.4626 69.8629 56.1634C69.8629 55.8642 70.1038 55.6213 70.4035 55.6213C70.7025 55.621 70.9456 55.844 70.9456 56.1634Z" fill="black"/>
<path d="M72.2105 54.2993L70.7778 52.8462L70.0882 53.5289L71.5208 54.982L72.2105 54.2993Z" fill="black"/>
<path d="M70.8492 55.8454L69.3405 54.3418L68.655 55.0323L70.1638 56.5359L70.8492 55.8454Z" fill="black"/>
<path d="M65.0404 59.371L64.3526 58.6844L68.5797 54.428L69.2678 55.1164L65.0404 59.371Z" fill="black"/>
<path d="M65.0094 3.05883C65.0094 3.32951 64.793 3.54814 64.5236 3.54814C64.2559 3.54814 64.0374 3.32951 64.0374 3.05883C64.0374 2.79104 64.2556 2.57349 64.5236 2.57349C64.7933 2.57349 65.0094 2.79104 65.0094 3.05883Z" fill="black"/>
<path d="M64.9849 14.9556C64.9849 15.2317 64.7627 15.4533 64.4886 15.4533C64.213 15.4533 63.9909 15.2317 63.9909 14.9556C63.9909 14.681 64.213 14.458 64.4886 14.458C64.7627 14.458 64.9849 14.681 64.9849 14.9556Z" fill="black"/>
<path d="M79.6373 20.6581C79.6373 20.9219 79.4231 21.1336 79.1609 21.1336C78.8987 21.1336 78.6848 20.9219 78.6848 20.6581C78.6848 20.3946 78.8987 20.1807 79.1609 20.1807C79.4231 20.1807 79.6373 20.378 79.6373 20.6581Z" fill="black"/>
<path d="M50.3663 20.6664C50.3663 20.9371 50.1474 21.1558 49.878 21.1558C49.6093 21.1558 49.3904 20.9368 49.3904 20.6664C49.3904 20.3972 49.6089 20.1782 49.878 20.1782C50.147 20.1782 50.3663 20.3795 50.3663 20.6664Z" fill="black"/>
<path d="M50.9224 14.2379C50.9224 14.5071 50.7042 14.7272 50.4334 14.7272C50.165 14.7272 49.9461 14.5071 49.9461 14.2379C49.9461 13.9686 50.1647 13.7485 50.4334 13.7485C50.7039 13.7485 50.9224 13.9509 50.9224 14.2379Z" fill="black"/>
<path d="M53.2419 17.7728C53.2419 18.0449 53.0237 18.2621 52.7546 18.2621C52.4856 18.2621 52.2663 18.0445 52.2663 17.7728C52.2663 17.5036 52.4852 17.2849 52.7546 17.2849C53.0237 17.2849 53.2419 17.4848 53.2419 17.7728Z" fill="black"/>
<path d="M51.704 19.2444C51.704 19.5151 51.4847 19.7338 51.2153 19.7338C50.9459 19.7338 50.727 19.5151 50.727 19.2444C50.727 18.9738 50.9455 18.7551 51.2153 18.7551C51.4851 18.7551 51.704 18.956 51.704 19.2444Z" fill="black"/>
<path d="M50.2462 17.7728C50.2462 18.0449 50.0284 18.2621 49.7589 18.2621C49.4895 18.2621 49.2706 18.0445 49.2706 17.7728C49.2706 17.5036 49.4895 17.2849 49.7589 17.2849C50.028 17.2849 50.2462 17.4848 50.2462 17.7728Z" fill="black"/>
<path d="M37.0198 31.092C37.0198 31.3612 36.8019 31.5813 36.5322 31.5813C36.2624 31.5813 36.0438 31.3612 36.0438 31.092C36.0438 30.8228 36.2627 30.6038 36.5322 30.6038C36.8016 30.6038 37.0198 30.805 37.0198 31.092Z" fill="black"/>
<path d="M41.4416 35.5115C41.4416 35.7804 41.2227 35.9998 40.9536 35.9998C40.6842 35.9998 40.466 35.7808 40.466 35.5115C40.466 35.2409 40.6838 35.0222 40.9536 35.0222C41.2227 35.0219 41.4416 35.2231 41.4416 35.5115Z" fill="black"/>
<path d="M42.898 37.0013C42.898 37.2691 42.6798 37.4906 42.41 37.4906C42.1402 37.4906 41.9216 37.2691 41.9216 37.0013C41.9216 36.7306 42.1406 36.512 42.41 36.512C42.6794 36.512 42.898 36.7129 42.898 37.0013Z" fill="black"/>
<path d="M41.4416 38.4808C41.4416 38.75 41.2227 38.969 40.9536 38.969C40.6842 38.969 40.466 38.75 40.466 38.4808C40.466 38.2115 40.6838 37.9915 40.9536 37.9915C41.2227 37.9911 41.4416 38.1949 41.4416 38.4808Z" fill="black"/>
<path d="M39.9701 31.0462C39.9701 31.3165 39.7515 31.5355 39.4817 31.5355C39.2134 31.5355 38.9948 31.3169 38.9948 31.0462C38.9948 30.7766 39.213 30.5569 39.4817 30.5569C39.7515 30.5569 39.9701 30.7607 39.9701 31.0462Z" fill="black"/>
<path d="M39.9701 37.0013C39.9701 37.2691 39.7515 37.4906 39.4817 37.4906C39.2134 37.4906 38.9948 37.2691 38.9948 37.0013C38.9948 36.7306 39.213 36.512 39.4817 36.512C39.7515 36.5116 39.9701 36.7129 39.9701 37.0013Z" fill="black"/>
<path d="M65.0325 17.887C65.0325 18.1696 64.8049 18.398 64.5225 18.398C64.2423 18.398 64.0136 18.1696 64.0136 17.887C64.0136 17.604 64.2423 17.3752 64.5225 17.3752C64.8049 17.3752 65.0325 17.604 65.0325 17.887Z" fill="black"/>
<path d="M60.5497 7.48311C60.5497 7.7509 60.3323 7.96953 60.0647 7.96953C59.7956 7.96953 59.5788 7.7509 59.5788 7.48311C59.5788 7.21388 59.7956 6.99487 60.0647 6.99487C60.3323 6.99487 60.5497 7.21388 60.5497 7.48311Z" fill="black"/>
<path d="M69.4687 7.48311C69.4687 7.7509 69.2505 7.96953 68.9825 7.96953C68.7142 7.96953 68.4963 7.7509 68.4963 7.48311C68.4963 7.21388 68.7142 6.99487 68.9825 6.99487C69.2505 6.99487 69.4687 7.21388 69.4687 7.48311Z" fill="black"/>
<path d="M63.9909 5.98314C63.9909 6.25093 64.2087 6.46993 64.4756 6.46993C64.7458 6.46993 64.9625 6.25129 64.9625 5.98314C64.9625 5.71391 64.7458 5.4978 64.4756 5.4978C64.2084 5.49744 63.9909 5.71391 63.9909 5.98314Z" fill="black"/>
<path d="M64.8724 3.40471L64.1887 2.71289L59.7293 7.1372L60.4129 7.82902L64.8724 3.40471Z" fill="black"/>
<path d="M69.3203 7.13802L64.8607 2.71484L64.178 3.40599L68.6375 7.82917L69.3203 7.13802Z" fill="black"/>
<path d="M71.8386 8.08542C71.8386 8.35466 72.055 8.57365 72.3234 8.57365C72.5917 8.57365 72.8095 8.35466 72.8095 8.08542C72.8095 7.81764 72.5917 7.59863 72.3234 7.59863C72.055 7.59863 71.8386 7.81764 71.8386 8.08542Z" fill="black"/>
<path d="M68.3946 10.3112C68.4314 10.6184 68.6222 10.8222 68.9039 10.8222C69.1845 10.8222 69.371 10.5942 69.4117 10.3112C69.455 10.0311 69.1845 9.80127 68.9039 9.80127C68.6222 9.80127 68.3625 10.0308 68.3946 10.3112Z" fill="black"/>
<path d="M69.2963 10.6169L68.558 9.98197C70.3733 7.86389 72.2159 7.60839 72.2942 7.59863L72.4168 8.56246L72.3555 8.08109L72.4186 8.56246C72.4038 8.56499 70.8508 8.80169 69.2963 10.6169Z" fill="black"/>
<path d="M69.2645 10.0237L64.8123 5.64014L64.1313 6.33459L68.5835 10.7181L69.2645 10.0237Z" fill="black"/>
<path d="M57.1151 8.08542C57.1151 8.35466 56.9001 8.57365 56.63 8.57365C56.3609 8.57365 56.1442 8.35466 56.1442 8.08542C56.1442 7.81764 56.3609 7.59863 56.63 7.59863C56.9001 7.59827 57.1151 7.81764 57.1151 8.08542Z" fill="black"/>
<path d="M60.5588 10.3112C60.5227 10.6184 60.3312 10.8222 60.0492 10.8222C59.7675 10.8222 59.5824 10.5942 59.5406 10.3112C59.4988 10.0311 59.7675 9.80127 60.0492 9.80127C60.3312 9.80127 60.5912 10.0308 60.5588 10.3112Z" fill="black"/>
<path d="M59.6578 10.6169C58.1026 8.80169 56.5507 8.56499 56.5333 8.56246L56.6596 7.59863C56.7371 7.60839 58.5801 7.86389 60.395 9.98197L59.6578 10.6169Z" fill="black"/>
<path d="M64.818 6.33235L64.1373 5.63916L59.6897 10.0243L60.3704 10.7175L64.818 6.33235Z" fill="black"/>
<path d="M79.8303 24.7939L67.4107 12.6116L67.384 12.5737C66.724 11.6149 65.8609 10.6334 64.4687 10.6088C63.2897 10.5901 62.704 11.2601 61.6465 12.4772L61.5603 12.5762L49.4101 24.79L48.7216 24.1033L60.8603 11.9004L60.9147 11.8394C62.022 10.564 62.8273 9.63672 64.4154 9.63672C64.4381 9.63672 64.4619 9.63672 64.4846 9.63672C66.3074 9.6678 67.4038 10.8987 68.1555 11.9821L80.5109 24.0994L79.8303 24.7939Z" fill="black"/>
<path d="M55.9382 45.2111L53.2974 42.6167L52.8838 42.2347C49.9194 39.5004 45.8576 35.7561 45.7598 31.9273C45.6542 27.7695 47.029 25.6753 49.7741 23.0513L50.4442 23.7556C47.8506 26.2358 46.6323 28.0875 46.73 31.9027C46.8162 35.3207 50.7042 38.9038 53.5412 41.5195L53.9665 41.9123L56.6177 44.515L55.9382 45.2111Z" fill="black"/>
<path d="M72.8582 45.5565L72.1906 44.8497L75.6992 41.5195C78.5369 38.9038 82.4235 35.321 82.5111 31.9027C82.6089 28.0875 81.3902 26.2358 78.7955 23.7556L79.466 23.0513C82.2129 25.6753 83.5877 27.7695 83.4806 31.9273C83.3836 35.7561 79.3218 39.5008 76.3567 42.2347L75.9322 42.6275L72.8582 45.5565Z" fill="black"/>
<path d="M64.8644 56.4443L64.1824 55.7536L78.0216 42.055C81.1767 39.1357 84.796 35.3506 84.8858 31.8697C84.9821 28.0679 84.1644 26.0351 81.5236 23.513L78.8529 21.044L79.5115 20.3289L82.1887 22.8033C85.0358 25.5227 85.9606 27.8178 85.8563 31.8957C85.7586 35.7177 82.1797 39.5314 78.6928 42.7568L64.8644 56.4443Z" fill="black"/>
<path d="M64.0565 23.6533C64.0565 23.924 64.2743 24.1412 64.542 24.1412C64.8114 24.1412 65.0285 23.9236 65.0285 23.6533C65.0285 23.3851 64.8114 23.1665 64.542 23.1665C64.2743 23.1665 64.0565 23.3678 64.0565 23.6533Z" fill="black"/>
<path d="M59.6715 25.1966C59.6715 25.4659 59.8973 25.6834 60.175 25.6834C60.4506 25.6834 60.6749 25.4659 60.6749 25.1966C60.6749 24.9274 60.4506 24.7102 60.175 24.7102C59.8973 24.7102 59.6715 24.9111 59.6715 25.1966Z" fill="black"/>
<path d="M64.0551 35.5085C64.0551 35.7777 64.2729 35.9953 64.5412 35.9953C64.8099 35.9953 65.026 35.7774 65.026 35.5085C65.026 35.2396 64.8099 35.0217 64.5412 35.0217C64.2725 35.0217 64.0551 35.223 64.0551 35.5085Z" fill="black"/>
<path d="M64.0378 38.4778C64.0378 38.747 64.256 38.9646 64.5239 38.9646C64.7919 38.9646 65.0087 38.7466 65.0087 38.4778C65.0087 38.2089 64.7915 37.9924 64.5239 37.9924C64.2563 37.9924 64.0378 38.1923 64.0378 38.4778Z" fill="black"/>
<path d="M64.1824 56.4443L50.3324 42.7485C46.857 39.5314 43.2777 35.7174 43.1818 31.8957C43.0768 27.8182 44.0005 25.523 46.8418 22.8087L49.5259 20.3289L50.1838 21.044L47.5051 23.5184C44.8697 26.0351 44.0539 28.0665 44.1513 31.8697C44.2396 35.3502 47.8582 39.1357 51.0029 42.0427L64.864 55.7522L64.1824 56.4443Z" fill="black"/>
<path d="M65.0271 23.6538H64.0573V35.5087H65.0271V23.6538Z" fill="black"/>
<path d="M60.6727 25.1658H59.7025V37.0206H60.6727V25.1658Z" fill="black"/>
<path d="M69.3114 25.1966C69.3114 25.4659 69.0871 25.6834 68.8108 25.6834C68.5327 25.6834 68.3091 25.4659 68.3091 25.1966C68.3091 24.9274 68.5327 24.7102 68.8108 24.7102C69.0871 24.7102 69.3114 24.9111 69.3114 25.1966Z" fill="black"/>
<path d="M69.2819 25.1658H68.3117V37.0206H69.2819V25.1658Z" fill="black"/>
<path d="M64.6934 38.0214L60.2966 36.4456L59.9694 37.3619L64.3663 38.9378L64.6934 38.0214Z" fill="black"/>
<path d="M69.0556 37.3703L68.7286 36.4539L64.331 38.0289L64.6579 38.9454L69.0556 37.3703Z" fill="black"/>
<path d="M64.2264 41.679L58.9524 36.3869C58.8705 36.3081 58.78 36.2167 58.6869 36.1231C58.2307 35.658 57.7124 35.1347 57.2114 35.1347C56.665 35.1347 56.1669 35.6609 56.1669 36.2402H55.1967C55.1967 35.1333 56.1388 34.1611 57.2118 34.1611C58.1181 34.1611 58.8185 34.8695 59.3794 35.4394C59.4659 35.529 59.5514 35.6146 59.6337 35.6934L64.9153 40.991L64.2264 41.679Z" fill="black"/>
<path d="M64.762 41.679L64.0746 40.991L69.3518 35.6992C69.4395 35.615 69.5235 35.529 69.6115 35.4408C70.1727 34.8695 70.8706 34.1611 71.7773 34.1611C72.8507 34.1611 73.7945 35.1329 73.7945 36.2402H72.8236C72.8236 35.6609 72.3255 35.1347 71.7777 35.1347C71.2764 35.1347 70.7595 35.6598 70.3026 36.1231C70.2081 36.2167 70.1193 36.3081 70.0331 36.3923L64.762 41.679Z" fill="black"/>
<path d="M60.0239 47.4465C57.4065 47.4465 55.1964 45.3053 55.1964 42.7666H56.1658C56.1658 44.7748 57.9335 46.4755 60.0235 46.4755C62.1504 46.4755 63.8802 44.8576 63.8802 42.8674H64.8518C64.8525 45.3921 62.686 47.4465 60.0239 47.4465Z" fill="black"/>
<path d="M69.0063 47.4458C66.3662 47.4458 64.2199 45.3913 64.2199 42.8667H65.1894C65.1894 44.8572 66.9011 46.4747 69.0067 46.4747C71.1115 46.4747 72.8233 44.8409 72.8233 42.8367H73.7942C73.7942 45.379 71.6464 47.4458 69.0063 47.4458Z" fill="black"/>
<path d="M65.2226 41.0776H63.7658V43.9246H65.2226V41.0776Z" fill="black"/>
<path d="M56.1666 36.2087H55.1964V42.8669H56.1666V36.2087Z" fill="black"/>
<path d="M73.7938 36.2087H72.8229V42.8669H73.7938V36.2087Z" fill="black"/>
<path d="M64.5091 47C63.6998 47 63.0026 46.5793 62.6344 46.2205L63.3099 45.5244L62.972 45.871L63.3078 45.5215C63.4268 45.6332 64.4969 46.5891 65.6297 45.5161L66.2963 46.2244C65.6943 46.7958 65.074 47 64.5091 47Z" fill="black"/>
<path d="M64.4788 50.7922C63.3038 50.7922 62.4685 50.6401 62.4162 50.6303C58.8964 49.8812 58.6566 47.0233 58.6548 46.9948L59.6228 46.9279L59.1395 46.9604L59.6228 46.9229C59.6304 47.0125 59.8335 49.0872 62.6055 49.6773C62.6113 49.6773 64.3833 49.9968 66.3399 49.673C69.306 49.1783 69.5065 47.0179 69.5138 46.9279L70.4822 46.9919C70.4818 47.0219 70.247 50.0091 66.4993 50.6314C65.7772 50.7532 65.0819 50.7922 64.4788 50.7922Z" fill="black"/>
<path d="M52.4387 18.1431C49.9743 16.0217 49.9494 14.3088 49.9494 14.2379L50.9196 14.2394L50.433 14.2379L50.9196 14.2314C50.9196 14.2448 50.9856 15.6087 53.0713 17.4048L52.4387 18.1431Z" fill="black"/>
<path d="M78.2347 14.2379C78.2347 14.5071 78.4529 14.7272 78.722 14.7272C78.9921 14.7272 79.2103 14.5071 79.2103 14.2379C79.2103 13.9686 78.9921 13.7485 78.722 13.7485C78.4533 13.7485 78.2347 13.9509 78.2347 14.2379Z" fill="black"/>
<path d="M75.9135 17.7728C75.9135 18.0449 76.1327 18.2621 76.4021 18.2621C76.6716 18.2621 76.8898 18.0445 76.8898 17.7728C76.8898 17.5036 76.6719 17.2849 76.4021 17.2849C76.1324 17.2849 75.9135 17.4848 75.9135 17.7728Z" fill="black"/>
<path d="M76.7188 18.143L76.0858 17.4051C78.1802 15.6021 78.2372 14.252 78.2372 14.2397L79.2088 14.2383C79.2088 14.3084 79.1836 16.0217 76.7188 18.143Z" fill="black"/>
<path d="M52.988 18.2142L52.3206 17.5112L50.8801 18.8843L51.5475 19.5873L52.988 18.2142Z" fill="black"/>
<path d="M51.5074 18.814L50.1061 17.4297L49.4247 18.1222L50.826 19.5065L51.5074 18.814Z" fill="black"/>
<path d="M36.8763 31.4376L36.1881 30.7496L49.4426 17.4072L50.1297 18.0935L36.8763 31.4376Z" fill="black"/>
<path d="M40.6113 35.8537L36.2097 31.4376L36.8957 30.7495L41.2966 35.1667L40.6113 35.8537Z" fill="black"/>
<path d="M41.3048 35.8531L40.6088 35.1763L39.194 36.6368L39.89 37.3136L41.3048 35.8531Z" fill="black"/>
<path d="M42.805 37.3053L42.1186 36.6172L40.6245 38.1134L41.3109 38.8015L42.805 37.3053Z" fill="black"/>
<path d="M61.5062 62.1946C61.4835 62.1946 61.4579 62.1946 61.4348 62.1906C61.0258 62.1733 60.6587 61.9976 60.4004 61.6955L45.8208 47.0926L33.7882 35.0054C33.4892 34.7445 33.315 34.3773 33.301 33.9664C33.2855 33.5642 33.4236 33.167 33.6916 32.8515C33.9585 32.5335 34.3253 32.3297 34.7227 32.2795C35.1389 32.2238 35.5389 32.3405 35.8466 32.6018L35.8794 32.6329L39.8283 36.6602L39.1376 37.3414L35.2071 33.3329C35.1093 33.2581 34.9828 33.2256 34.8486 33.2429C34.6906 33.2635 34.5424 33.3463 34.4331 33.4782C34.3213 33.6097 34.2636 33.7691 34.2712 33.9285C34.2762 34.0698 34.3336 34.1948 34.432 34.279L34.4627 34.3076L46.5079 46.4046L61.1308 61.0562C61.2127 61.1552 61.336 61.2127 61.4785 61.2196C61.6386 61.2235 61.7984 61.1708 61.9279 61.0609C62.1832 60.8495 62.2471 60.5058 62.0793 60.2868L58.2537 56.4619L58.9379 55.7742L62.814 59.649C63.3377 60.2814 63.2194 61.2485 62.5496 61.8068C62.251 62.0587 61.8835 62.1946 61.5062 62.1946Z" fill="black"/>
<path d="M35.0924 29.6986C34.7148 29.6986 34.3465 29.5638 34.0483 29.3137C33.3781 28.7536 33.2602 27.7854 33.7839 27.1544L33.8149 27.1219L37.8035 23.1355L38.491 23.8246L34.5204 27.7908C34.3509 28.0113 34.4169 28.3553 34.6693 28.566C34.8003 28.6762 34.9651 28.7319 35.1191 28.7265C35.2612 28.7181 35.3842 28.661 35.4686 28.5606L35.4981 28.5281L50.0904 13.9089L50.7782 14.5967L36.1996 29.2013C35.94 29.5016 35.5739 29.6783 35.1645 29.696C35.1407 29.6986 35.1155 29.6986 35.0924 29.6986Z" fill="black"/>
<path d="M38.1079 24.207L37.4212 23.5193L60.4246 0.497603C60.6821 0.196931 61.0485 0.0216608 61.4579 0.00250741C61.8579 -0.0180915 62.256 0.119599 62.5749 0.384494C62.8933 0.649751 63.0993 1.01691 63.153 1.41516C63.2104 1.82967 63.0982 2.23081 62.8389 2.54232L62.8104 2.57629L56.9737 8.42965L56.2877 7.74158L62.1042 1.90592C62.1792 1.80799 62.2106 1.6815 62.1922 1.54707C62.1702 1.3895 62.0851 1.24242 61.9538 1.13256C61.8225 1.02234 61.6682 0.968127 61.5041 0.973548C61.362 0.980415 61.2379 1.03896 61.1542 1.13798L61.1239 1.17195L38.1079 24.207Z" fill="black"/>
<path d="M39.8261 31.3915L39.1391 30.7038L45.1694 24.6628L45.8547 25.3509L39.8261 31.3915Z" fill="black"/>
<path d="M46.9375 37.8295L39.8283 30.7021L39.1413 31.3901L46.2505 38.5175L46.9375 37.8295Z" fill="black"/>
<path d="M58.2411 53.4699L42.0277 37.3073L42.7115 36.6182L58.9242 52.7779L58.2411 53.4699Z" fill="black"/>
<path d="M57.5197 54.2936L41.2592 38.0972L40.5755 38.7863L56.836 54.9827L57.5197 54.2936Z" fill="black"/>
<path d="M64.1037 3.05883C64.1037 3.32951 64.3209 3.54814 64.5896 3.54814C64.8568 3.54814 65.0739 3.32951 65.0739 3.05883C65.0739 2.79104 64.8568 2.57349 64.5896 2.57349C64.3209 2.57349 64.1037 2.79104 64.1037 3.05883Z" fill="black"/>
<path d="M64.1286 14.9556C64.1286 15.2317 64.3494 15.4533 64.6246 15.4533C64.8994 15.4533 65.1227 15.2317 65.1227 14.9556C65.1227 14.681 64.8994 14.458 64.6246 14.458C64.3494 14.458 64.1286 14.681 64.1286 14.9556Z" fill="black"/>
<path d="M78.7454 20.6664C78.7454 20.9371 78.9651 21.1558 79.2341 21.1558C79.5032 21.1558 79.7217 20.9368 79.7217 20.6664C79.7217 20.3972 79.5035 20.1782 79.2341 20.1782C78.9647 20.1782 78.7454 20.3795 78.7454 20.6664Z" fill="black"/>
<path d="M78.1911 14.2379C78.1911 14.5071 78.4089 14.7272 78.6783 14.7272C78.9481 14.7272 79.1667 14.5071 79.1667 14.2379C79.1667 13.9686 78.9485 13.7485 78.6783 13.7485C78.4089 13.7485 78.1911 13.9509 78.1911 14.2379Z" fill="black"/>
<path d="M75.8702 17.7728C75.8702 18.0449 76.0877 18.2621 76.3567 18.2621C76.6269 18.2621 76.8454 18.0445 76.8454 17.7728C76.8454 17.5036 76.6269 17.2849 76.3567 17.2849C76.0877 17.2849 75.8702 17.4848 75.8702 17.7728Z" fill="black"/>
<path d="M77.4109 19.2444C77.4109 19.5151 77.6295 19.7338 77.8989 19.7338C78.1676 19.7338 78.3862 19.5151 78.3862 19.2444C78.3862 18.9738 78.168 18.7551 77.8989 18.7551C77.6295 18.7551 77.4109 18.956 77.4109 19.2444Z" fill="black"/>
<path d="M78.8666 17.7728C78.8666 18.0449 79.0855 18.2621 79.3539 18.2621C79.6229 18.2621 79.8422 18.0445 79.8422 17.7728C79.8422 17.5036 79.6233 17.2849 79.3539 17.2849C79.0859 17.2849 78.8666 17.4848 78.8666 17.7728Z" fill="black"/>
<path d="M87.6705 35.5115C87.6705 35.7804 87.8894 35.9998 88.1588 35.9998C88.4279 35.9998 88.6472 35.7808 88.6472 35.5115C88.6472 35.2409 88.4282 35.0222 88.1588 35.0222C87.8898 35.0219 87.6705 35.2231 87.6705 35.5115Z" fill="black"/>
<path d="M86.2156 37.0013C86.2156 37.2691 86.4334 37.4906 86.7028 37.4906C86.973 37.4906 87.1912 37.2691 87.1912 37.0013C87.1912 36.7306 86.9733 36.512 86.7028 36.512C86.4338 36.5116 86.2156 36.7129 86.2156 37.0013Z" fill="black"/>
<path d="M87.6705 38.4808C87.6705 38.75 87.8894 38.969 88.1588 38.969C88.4279 38.969 88.6472 38.75 88.6472 38.4808C88.6472 38.2115 88.4282 37.9915 88.1588 37.9915C87.8898 37.9911 87.6705 38.1949 87.6705 38.4808Z" fill="black"/>
<path d="M64.08 17.887C64.08 18.1696 64.3083 18.398 64.5903 18.398C64.8716 18.398 65.0999 18.1696 65.0999 17.887C65.0999 17.604 64.8716 17.3752 64.5903 17.3752C64.3083 17.3752 64.08 17.604 64.08 17.887Z" fill="black"/>
<path d="M68.5638 7.48311C68.5638 7.7509 68.7809 7.96953 69.0485 7.96953C69.3169 7.96953 69.5354 7.7509 69.5354 7.48311C69.5354 7.21388 69.3172 6.99487 69.0485 6.99487C68.7806 6.99487 68.5638 7.21388 68.5638 7.48311Z" fill="black"/>
<path d="M65.1227 5.98314C65.1227 6.25093 64.9052 6.46993 64.6365 6.46993C64.3685 6.46993 64.1492 6.25129 64.1492 5.98314C64.1492 5.71391 64.3681 5.4978 64.6365 5.4978C64.9052 5.49744 65.1227 5.71391 65.1227 5.98314Z" fill="black"/>
<path d="M69.392 7.13655L64.9324 2.71338L64.2486 3.40556L68.7082 7.82873L69.392 7.13655Z" fill="black"/>
<path d="M60.4704 7.8283L59.7891 7.13624L64.2473 2.71289L64.9308 3.40494L60.4704 7.8283Z" fill="black"/>
<path d="M57.2753 8.08542C57.2753 8.35466 57.0574 8.57365 56.7894 8.57365C56.5218 8.57365 56.3036 8.35466 56.3036 8.08542C56.3036 7.81764 56.5215 7.59863 56.7894 7.59863C57.0574 7.59827 57.2753 7.81764 57.2753 8.08542Z" fill="black"/>
<path d="M60.7182 10.3112C60.6817 10.6184 60.4906 10.8222 60.2086 10.8222C59.9298 10.8222 59.7422 10.5942 59.7 10.3112C59.6582 10.0311 59.9298 9.80127 60.2086 9.80127C60.4906 9.80127 60.751 10.0308 60.7182 10.3112Z" fill="black"/>
<path d="M59.8172 10.6169C58.2628 8.80169 56.7094 8.56499 56.6942 8.56246L56.819 7.59863C56.8976 7.60839 58.7399 7.86389 60.5545 9.98197L59.8172 10.6169Z" fill="black"/>
<path d="M64.9819 6.33144L64.3007 5.63818L59.8536 10.0253L60.5348 10.7186L64.9819 6.33144Z" fill="black"/>
<path d="M71.9973 8.08542C71.9973 8.35466 72.2152 8.57365 72.4831 8.57365C72.7518 8.57365 72.9686 8.35466 72.9686 8.08542C72.9686 7.81764 72.7518 7.59863 72.4831 7.59863C72.2152 7.59827 71.9973 7.81764 71.9973 8.08542Z" fill="black"/>
<path d="M68.5544 10.3112C68.5901 10.6184 68.7827 10.8222 69.0633 10.8222C69.3439 10.8222 69.53 10.5942 69.5726 10.3112C69.6137 10.0311 69.3439 9.80127 69.0633 9.80127C68.7827 9.80127 68.5212 10.0308 68.5544 10.3112Z" fill="black"/>
<path d="M69.455 10.6169L68.7189 9.98197C70.5337 7.86389 72.3757 7.60839 72.4536 7.59863L72.5751 8.56246L72.5145 8.08109L72.5787 8.56246C72.5632 8.56499 71.0102 8.80169 69.455 10.6169Z" fill="black"/>
<path d="M69.4268 10.0236L64.9771 5.64014L64.2967 6.33361L68.7463 10.7171L69.4268 10.0236Z" fill="black"/>
<path d="M49.2825 24.7939L48.6034 24.0994L60.957 11.9821C61.7104 10.8983 62.8068 9.6678 64.6275 9.63672C64.652 9.63672 64.6754 9.63672 64.6985 9.63672C66.2858 9.63672 67.0897 10.5615 68.197 11.8365L68.2518 11.9004L80.3897 24.1033L79.7026 24.7885L67.5327 12.5517L67.4656 12.4758C66.4081 11.2597 65.8328 10.5911 64.6451 10.6085C63.2522 10.6331 62.3885 11.6146 61.7295 12.5733L61.6693 12.6438L49.2825 24.7939Z" fill="black"/>
<path d="M73.176 45.2111L72.4951 44.515L75.1369 41.9206L75.5712 41.5195C78.4086 38.9038 82.2947 35.321 82.3827 31.9027C82.4805 28.0861 81.2629 26.2344 78.6686 23.7556L79.3376 23.0513C82.0845 25.6753 83.4593 27.7681 83.3529 31.9273C83.2552 35.7561 79.1941 39.5008 76.229 42.2347L75.8038 42.6275L73.176 45.2111Z" fill="black"/>
<path d="M64.2491 56.4443L50.4096 42.7485C46.9334 39.5314 43.3549 35.7174 43.2575 31.8957C43.1533 27.8182 44.077 25.523 46.9197 22.8087L49.6024 20.3289L50.261 21.044L47.5823 23.5184C44.9469 26.0351 44.1307 28.0665 44.2277 31.8722C44.3172 35.3502 47.9354 39.1357 51.0797 42.0427L64.9307 55.7533L64.2491 56.4443Z" fill="black"/>
<path d="M65.0566 23.6533C65.0566 23.924 64.8388 24.1412 64.5704 24.1412C64.301 24.1412 64.0839 23.9236 64.0839 23.6533C64.0839 23.3851 64.301 23.1665 64.5704 23.1665C64.8391 23.1665 65.0566 23.3678 65.0566 23.6533Z" fill="black"/>
<path d="M69.4391 25.1966C69.4391 25.4659 69.2162 25.6834 68.9392 25.6834C68.6619 25.6834 68.4372 25.4659 68.4372 25.1966C68.4372 24.9274 68.6619 24.7102 68.9392 24.7102C69.2162 24.7102 69.4391 24.9111 69.4391 25.1966Z" fill="black"/>
<path d="M65.057 35.5085C65.057 35.7777 64.8395 35.9953 64.5705 35.9953C64.305 35.9953 64.0857 35.7774 64.0857 35.5085C64.0857 35.2396 64.3046 35.0217 64.5705 35.0217C64.8395 35.0217 65.057 35.223 65.057 35.5085Z" fill="black"/>
<path d="M65.0739 38.4778C65.0739 38.747 64.8568 38.9646 64.5903 38.9646C64.3223 38.9646 64.1037 38.7466 64.1037 38.4778C64.1037 38.2089 64.3219 37.9924 64.5903 37.9924C64.8568 37.9924 65.0739 38.1923 65.0739 38.4778Z" fill="black"/>
<path d="M64.9308 56.4443L64.2487 55.7522L78.0977 42.055C81.2528 39.1357 84.8721 35.3506 84.9604 31.8697C85.0578 28.0665 84.2416 26.0351 81.5994 23.513L78.929 21.044L79.5865 20.3289L82.2634 22.8033C85.1112 25.5227 86.0359 27.8178 85.9324 31.8957C85.8347 35.7177 82.2565 39.5314 78.7674 42.7568L64.9308 56.4443Z" fill="black"/>
<path d="M65.0567 23.6538H64.0861V35.5087H65.0567V23.6538Z" fill="black"/>
<path d="M69.4102 25.1658H68.439V37.0206H69.4102V25.1658Z" fill="black"/>
<path d="M69.1503 37.3539L68.8224 36.4375L64.4266 38.0167L64.7545 38.9332L69.1503 37.3539Z" fill="black"/>
<path d="M64.784 38.023L60.3868 36.447L60.0597 37.3634L64.4569 38.9394L64.784 38.023Z" fill="black"/>
<path d="M64.8842 41.679L64.1986 40.991L69.4741 35.6992C69.5632 35.615 69.6472 35.529 69.7341 35.4408C70.2957 34.8695 70.9943 34.1611 71.9021 34.1611C72.9758 34.1611 73.9186 35.1329 73.9186 36.2402H72.948C72.948 35.6609 72.4485 35.1347 71.9025 35.1347C71.4015 35.1347 70.8818 35.6598 70.4262 36.1231C70.3335 36.2167 70.2427 36.3081 70.1568 36.3923L64.8842 41.679Z" fill="black"/>
<path d="M64.3519 41.679L59.0757 36.3869C58.9935 36.3081 58.904 36.2167 58.8113 36.1231C58.354 35.658 57.8364 35.1347 57.3358 35.1347C56.7894 35.1347 56.2899 35.6609 56.2899 36.2402H55.3201C55.3201 35.1333 56.2625 34.1611 57.3362 34.1611C58.2433 34.1611 58.9419 34.8695 59.5027 35.4394C59.59 35.529 59.6751 35.6146 59.757 35.6934L65.0393 40.991L64.3519 41.679Z" fill="black"/>
<path d="M69.0885 47.4465C66.4268 47.4465 64.2606 45.3921 64.2606 42.8674H65.2305C65.2305 44.8579 66.9624 46.4755 69.0882 46.4755C71.1793 46.4755 72.9469 44.7748 72.9469 42.7666H73.9175C73.9179 45.3053 71.7066 47.4465 69.0885 47.4465Z" fill="black"/>
<path d="M60.1061 47.4458C57.4678 47.4458 55.3197 45.379 55.3197 42.8367H56.2895C56.2895 44.8409 58.0009 46.4747 60.1061 46.4747C62.211 46.4747 63.9227 44.8568 63.9227 42.8667H64.8925C64.8929 45.3913 62.7451 47.4458 60.1061 47.4458Z" fill="black"/>
<path d="M65.347 41.0776H63.8906V43.9246H65.347V41.0776Z" fill="black"/>
<path d="M73.9179 36.2087H72.9473V42.8669H73.9179V36.2087Z" fill="black"/>
<path d="M64.604 47.0001C64.0378 47.0001 63.4192 46.7959 62.8154 46.2249L63.4827 45.5166C64.6487 46.6206 65.756 45.5683 65.8021 45.5246L66.4787 46.2206C66.1105 46.5794 65.4133 47.0001 64.604 47.0001Z" fill="black"/>
<path d="M64.6321 50.7918C64.0295 50.7918 63.3359 50.7524 62.6131 50.6314C58.8651 50.0087 58.6313 47.0215 58.6303 46.9919L59.5997 46.9294C59.607 47.0179 59.8064 49.1783 62.7725 49.673C64.7375 49.9982 66.5011 49.6773 66.5195 49.673C69.2782 49.0868 69.4831 47.0121 69.4896 46.9229L70.4587 46.9948C70.4558 47.0233 70.2163 49.8812 66.7096 50.6292C66.6493 50.6372 65.8101 50.7918 64.6321 50.7918Z" fill="black"/>
<path d="M76.6738 18.143L76.0412 17.4051C78.1363 15.6021 78.1929 14.252 78.1929 14.2397L79.1638 14.2383C79.1638 14.3084 79.1393 16.0217 76.6738 18.143Z" fill="black"/>
<path d="M77.5631 19.5951L76.1219 18.2233L76.7913 17.5193L78.2318 18.8922L77.5631 19.5951Z" fill="black"/>
<path d="M79.6954 18.1218L79.0142 17.4297L77.6139 18.8135L78.2951 19.5056L79.6954 18.1218Z" fill="black"/>
<path d="M92.2376 31.4376L78.9827 18.0935L79.6712 17.4072L92.9243 30.7496L92.2376 31.4376Z" fill="black"/>
<path d="M92.9016 31.4338L92.2144 30.7471L87.8144 35.1671L88.5016 35.8538L92.9016 31.4338Z" fill="black"/>
<path d="M89.9164 36.6222L88.5025 35.1636L87.8061 35.8414L89.22 37.3L89.9164 36.6222Z" fill="black"/>
<path d="M88.4846 38.128L86.9931 36.6304L86.3058 37.3176L87.7973 38.8152L88.4846 38.128Z" fill="black"/>
<path d="M67.6065 62.1945C67.2296 62.1945 66.8625 62.059 66.562 61.8071C66.2447 61.5419 66.0391 61.1751 65.9843 60.7779C65.9269 60.3634 66.0387 59.9619 66.2998 59.6489L66.3283 59.6179L70.1748 55.7742L70.8598 56.4619L67.0334 60.2868C66.9588 60.3833 66.9288 60.5112 66.9465 60.6442C66.9682 60.8047 67.0522 60.9514 67.1842 61.0609C67.3155 61.1707 67.4792 61.2235 67.635 61.2195C67.7764 61.2127 67.8998 61.1556 67.982 61.0562L68.013 61.0237L82.6067 46.4045L94.6808 34.279C94.7796 34.1948 94.838 34.0697 94.8423 33.9284C94.8492 33.7694 94.7908 33.61 94.6808 33.4781C94.5704 33.3462 94.4222 33.2631 94.2645 33.2429C94.1304 33.2255 94.0041 33.2581 93.9071 33.3329L89.9769 37.3414L89.2841 36.6601L93.2662 32.6018C93.5753 32.3409 93.976 32.2252 94.3886 32.2794C94.7875 32.33 95.1547 32.5339 95.4226 32.8515C95.6899 33.1674 95.8277 33.5642 95.8122 33.9664C95.7967 34.3769 95.6243 34.7441 95.3242 35.0054L83.2934 47.0915L68.7134 61.6955C68.4545 61.9972 68.0884 62.1729 67.679 62.1906C67.6534 62.1945 67.6314 62.1945 67.6065 62.1945Z" fill="black"/>
<path d="M94.0207 29.6985C93.9966 29.6985 93.9724 29.6985 93.9497 29.6956C93.5393 29.6779 93.1735 29.5011 92.9138 29.2008L78.3357 14.5962L79.0217 13.9084L93.6435 28.5601C93.7279 28.6606 93.8505 28.718 93.993 28.726C94.1531 28.7314 94.3129 28.6757 94.4445 28.5655C94.5747 28.4549 94.6595 28.3071 94.6808 28.1506C94.6995 28.0162 94.6681 27.8883 94.5938 27.7903L90.6222 23.8227L91.3085 23.135L95.3274 27.1539C95.5878 27.4665 95.6997 27.8662 95.643 28.2826C95.5882 28.6808 95.383 29.0465 95.0645 29.3132C94.7662 29.5637 94.3976 29.6985 94.0207 29.6985Z" fill="black"/>
<path d="M91.0059 24.2069L67.9719 1.1552L67.9582 1.13749C67.876 1.03847 67.7522 0.979926 67.608 0.97306C67.4475 0.967639 67.2902 1.02221 67.159 1.13207C67.0273 1.24193 66.9426 1.38901 66.9216 1.54657C66.9025 1.68137 66.9339 1.80786 67.0093 1.90543L72.8265 7.74108L72.1391 8.42916L66.2735 2.54183C66.0128 2.23032 65.9017 1.82918 65.959 1.41467C66.0128 1.01606 66.2194 0.649257 66.5375 0.384C66.856 0.119105 67.2488 -0.0185798 67.6538 0.0020192C68.0631 0.0208112 68.4299 0.196443 68.6885 0.497115L91.6912 23.5188L91.0059 24.2069Z" fill="black"/>
<path d="M89.9729 30.7018L83.9441 24.6609L83.2573 25.3491L89.2861 31.3899L89.9729 30.7018Z" fill="black"/>
<path d="M89.9635 31.3883L89.2756 30.7002L82.1707 37.8313L82.8586 38.5194L89.9635 31.3883Z" fill="black"/>
<path d="M70.8739 53.4699L70.1882 52.7779L86.401 36.6182L87.0855 37.3073L70.8739 53.4699Z" fill="black"/>
<path d="M88.5347 38.7834L87.8504 38.0942L71.5967 54.2975L72.281 54.9867L88.5347 38.7834Z" fill="black"/>
<path d="M57.2201 22.2613C56.8172 22.2613 56.414 22.0997 56.1186 21.7817L53.8962 19.5982L54.5753 18.9033L56.8284 21.1153C57.0235 21.3329 57.3586 21.3491 57.5739 21.1536C57.7867 20.9603 57.8076 20.6314 57.6204 20.4153L53.269 16.1611C52.5271 15.4538 52.0871 14.5092 52.0337 13.5042C51.9807 12.4876 52.3258 11.5328 53.0082 10.8151C54.4098 9.33849 56.8082 9.33848 58.354 10.8122L64.8248 17.5257L64.1283 18.2015L57.6698 11.501C56.5254 10.4118 54.743 10.3984 53.7104 11.4833C53.2149 12.008 52.9635 12.7055 53.0032 13.4518C53.0425 14.2078 53.3757 14.9201 53.9423 15.4589L58.3313 19.7525C58.8864 20.3676 58.8377 21.3191 58.2253 21.8739C57.9392 22.1337 57.58 22.2613 57.2201 22.2613Z" fill="black"/>
<path d="M61.5679 20.688C61.543 20.688 61.516 20.688 61.4914 20.6855C61.0969 20.6663 60.733 20.495 60.4639 20.2055L54.4635 14.2665C53.9391 13.6272 54.0318 12.6797 54.6712 12.1535C55.2941 11.6396 56.2123 11.7155 56.7429 12.3151L62.6762 18.1782C62.9453 18.4745 63.0831 18.859 63.0625 19.2605C63.0427 19.6602 62.8685 20.0299 62.5709 20.2995C62.2939 20.5507 61.939 20.688 61.5679 20.688ZM55.2018 13.6327L61.1744 19.5402C61.2689 19.6461 61.3984 19.7075 61.5401 19.7144C61.6822 19.7198 61.8164 19.6736 61.921 19.5785C62.0263 19.4835 62.0873 19.3527 62.0937 19.2114C62.101 19.0755 62.0537 18.9421 61.9646 18.8388L55.9491 12.8969C55.7586 12.7473 55.4831 12.7433 55.288 12.9038C55.0679 13.0848 55.0319 13.4082 55.2018 13.6327Z" fill="black"/>
<path d="M55.6508 32.5311C55.6248 32.5311 55.5992 32.5311 55.574 32.5297C55.1787 32.5091 54.8148 32.3381 54.5468 32.0479L48.0324 25.5907L48.7152 24.8976L55.2573 31.3848C55.3518 31.4896 55.4827 31.5507 55.623 31.5575C55.763 31.5655 55.8989 31.5167 56.0039 31.4217C56.2167 31.2287 56.2354 30.8998 56.0479 30.6819L50.679 25.3793L51.3599 24.6858L56.7602 30.0238C57.3146 30.6356 57.2666 31.5875 56.656 32.1419C56.3761 32.3949 56.0219 32.5311 55.6508 32.5311Z" fill="black"/>
<path d="M73.4115 32.531C73.0386 32.531 72.6866 32.3951 72.4078 32.1418C71.7961 31.587 71.7477 30.6355 72.3025 30.0237L72.3205 30.0016L77.7013 24.6853L78.3837 25.3788L73.0141 30.6814C72.8265 30.8993 72.846 31.2282 73.0595 31.4226C73.1637 31.5166 73.2986 31.5654 73.4389 31.5574C73.5807 31.5505 73.7109 31.4895 73.8057 31.3847L73.8234 31.3641L80.3471 24.8974L81.0299 25.5906L74.5141 32.0478C74.249 32.3376 73.8843 32.5086 73.4887 32.5295C73.4631 32.531 73.4375 32.531 73.4115 32.531Z" fill="black"/>
<path d="M52.7828 35.5082C52.4145 35.5082 52.0636 35.3748 51.7869 35.1273L51.766 35.1085L46.1172 29.4437L46.8043 28.756L52.4412 34.4099C52.5447 34.4995 52.6771 34.5415 52.8141 34.5349C52.9544 34.5266 53.0835 34.4645 53.178 34.3582C53.2718 34.2523 53.3194 34.1172 53.3111 33.9759C53.3032 33.8357 53.2408 33.7052 53.1348 33.6112L53.1117 33.591L46.8898 27.2751L47.5805 26.5928L53.7937 32.8961C54.0858 33.1613 54.2568 33.5242 54.2806 33.9199C54.3033 34.3192 54.1688 34.7055 53.9037 35.0047C53.6368 35.304 53.2693 35.4818 52.8715 35.5049C52.8405 35.5082 52.8112 35.5082 52.7828 35.5082Z" fill="black"/>
<path d="M76.3553 35.5083C76.3275 35.5083 76.2961 35.5083 76.2673 35.5054C75.8673 35.4823 75.5009 35.3041 75.2351 35.0052C74.9685 34.706 74.8347 34.32 74.8578 33.9203C74.8794 33.5246 75.054 33.1614 75.3447 32.8965L81.5576 26.5933L82.2475 27.2756L76.0025 33.6117C75.8983 33.7057 75.8363 33.8361 75.828 33.9764C75.8201 34.1177 75.8655 34.2525 75.9611 34.3587C76.0545 34.4646 76.1825 34.5271 76.3239 34.5354C76.4581 34.5423 76.5919 34.5 76.6958 34.4104L82.3344 28.7565L83.0211 29.4442L77.3511 35.1277C77.0745 35.3749 76.7239 35.5083 76.3553 35.5083Z" fill="black"/>
<path d="M67.3592 20.6879C66.9862 20.6879 66.6328 20.5506 66.3547 20.2991C66.0575 20.0295 65.8837 19.6598 65.8627 19.2601C65.8433 18.8586 65.981 18.4741 66.2483 18.1778L66.2692 18.1572L72.1852 12.3121C72.4359 12.0306 72.7789 11.8553 73.1569 11.8185C73.5551 11.7791 73.9449 11.8973 74.2548 12.1531C74.5642 12.4072 74.7561 12.7664 74.7954 13.1661C74.8336 13.5654 74.7161 13.9561 74.4614 14.2672L74.4268 14.3023L68.4606 20.2033C68.1945 20.4942 67.8298 20.6655 67.4349 20.6847C67.4097 20.6879 67.384 20.6879 67.3592 20.6879ZM66.961 18.8387C66.8715 18.9421 66.8257 19.0751 66.8315 19.2113C66.8394 19.3526 66.9007 19.4831 67.0053 19.5785C67.1092 19.6735 67.2463 19.7201 67.3869 19.7144C67.5269 19.7075 67.6571 19.6464 67.7523 19.5402L67.771 19.5214L73.7253 13.6326C73.8057 13.5253 73.8421 13.3945 73.8295 13.2615C73.8151 13.1198 73.748 12.9948 73.6398 12.9037C73.5309 12.8137 73.3935 12.7718 73.2521 12.7852C73.15 12.796 73.0537 12.8343 72.9755 12.8968L66.961 18.8387Z" fill="black"/>
<path d="M71.7052 22.2607C71.3467 22.2607 70.9867 22.1331 70.7 21.8733C70.0869 21.3171 70.0418 20.367 70.5943 19.7519L70.617 19.7303L74.9797 15.4637C75.5506 14.9199 75.8824 14.2072 75.9228 13.4512C75.9629 12.7049 75.7115 12.0075 75.2137 11.4827C74.7214 10.9634 74.0405 10.6765 73.2982 10.6765C73.2954 10.6765 73.2921 10.6765 73.2899 10.6765C72.538 10.679 71.8137 10.9743 71.25 11.5073L64.9358 18.22L64.2293 17.5536L70.5712 10.8109C71.3171 10.1001 72.2815 9.70688 73.286 9.70435C73.2899 9.70435 73.2936 9.70435 73.2982 9.70435C74.3085 9.70435 75.2372 10.0972 75.9178 10.8138C76.5991 11.5315 76.9468 12.4863 76.8916 13.5029C76.8382 14.5079 76.3993 15.4529 75.6534 16.1638L71.3059 20.414C71.1184 20.6301 71.1382 20.9593 71.3514 21.1523C71.5674 21.3482 71.9017 21.3316 72.0965 21.114L72.1286 21.0829L74.5263 18.8749L75.1827 19.5911L72.7998 21.7858C72.5069 22.1017 72.1073 22.2607 71.7052 22.2607Z" fill="black"/>
<path d="M64.8239 14.607L61.8507 11.4836L61.1481 12.1551L64.1214 15.2784L64.8239 14.607Z" fill="black"/>
<path d="M67.89 12.189L67.1984 11.5078L64.1796 14.5852L64.8713 15.2664L67.89 12.189Z" fill="black"/>
<path d="M60.1746 24.7102H48.8951V25.6834H60.1746V24.7102Z" fill="black"/>
<path d="M80.09 24.7102H68.8108V25.6834H80.09V24.7102Z" fill="black"/>
<path d="M60.5259 30.7485L54.6345 24.8521L53.9481 25.5406L59.8395 31.4371L60.5259 30.7485Z" fill="black"/>
<path d="M60.5263 27.9306L57.5822 24.8511L56.8806 25.5245L59.8247 28.604L60.5263 27.9306Z" fill="black"/>
<path d="M71.8927 22.2611C71.5339 22.2611 71.175 22.1335 70.8883 21.8737C70.5914 21.6045 70.4162 21.2359 70.3963 20.8347C70.3765 20.4336 70.5128 20.0502 70.7829 19.7524L70.8031 19.7307L75.1665 15.4642C76.3304 14.3547 76.4335 12.5709 75.4024 11.4832C74.3694 10.3968 72.587 10.4117 71.4289 11.5171L64.9856 18.2013L64.287 17.5255L70.744 10.8247C72.305 9.33726 74.7038 9.33726 76.1046 10.8139C77.5062 12.2876 77.3871 14.689 75.8399 16.1642L71.4931 20.4144C71.4037 20.5192 71.3586 20.6497 71.3651 20.7859C71.3723 20.9283 71.4343 21.0577 71.5385 21.1531C71.7549 21.349 72.0886 21.3324 72.2855 21.1148L72.3042 21.0946L74.5379 18.9028L75.2174 19.5977L72.9928 21.7812C72.6995 22.0992 72.2967 22.2611 71.8927 22.2611Z" fill="black"/>
<path d="M67.5446 20.6879C67.1727 20.6879 66.8196 20.5506 66.5401 20.2991C65.9291 19.744 65.8819 18.791 66.4355 18.1778L66.4543 18.1572L72.3725 12.3121C72.6231 12.0306 72.9661 11.8553 73.3423 11.8185C73.7423 11.7791 74.1314 11.8973 74.442 12.1531C74.7503 12.4072 74.9429 12.7664 74.9822 13.1661C75.0205 13.5654 74.9022 13.9561 74.6483 14.2672L74.6133 14.3023L68.6489 20.2048C68.3806 20.4942 68.0156 20.6655 67.6214 20.6847C67.5969 20.6879 67.5712 20.6879 67.5446 20.6879ZM67.1485 18.8387C66.961 19.0563 66.9801 19.3837 67.1929 19.5781C67.2975 19.6732 67.4364 19.7198 67.5731 19.714C67.7141 19.7071 67.8432 19.6461 67.9388 19.5398L67.9575 19.521L73.9114 13.6323C73.9926 13.5249 74.029 13.3941 74.0157 13.2611C74.0038 13.1194 73.9345 12.9944 73.8259 12.9033C73.717 12.8148 73.5778 12.7714 73.4389 12.7848C73.3365 12.7956 73.2424 12.834 73.1641 12.8965L67.1485 18.8387Z" fill="black"/>
<path d="M73.4638 32.5313C73.1053 32.5313 72.7454 32.4034 72.4593 32.1421C72.1622 31.8743 71.9879 31.5057 71.967 31.1046C71.9475 30.7038 72.0853 30.3186 72.3537 30.0208L72.3728 30.0016L77.7518 24.6853L78.4334 25.3788L73.0656 30.6814C72.9755 30.7866 72.9315 30.9181 72.9372 31.0554C72.9437 31.1957 73.005 31.3261 73.11 31.4212C73.326 31.617 73.66 31.6008 73.8576 31.3832L73.8753 31.3641L80.3987 24.8974L81.0811 25.5906L74.5664 32.0478C74.2724 32.368 73.8685 32.5313 73.4638 32.5313Z" fill="black"/>
<path d="M76.3311 35.5083C76.3022 35.5083 76.2727 35.5083 76.2427 35.5054C75.8438 35.4823 75.4759 35.3041 75.2108 35.0052C74.9432 34.706 74.8098 34.32 74.8336 33.9203C74.8559 33.5246 75.028 33.1614 75.3209 32.8965L81.5323 26.5933L82.2229 27.2756L75.9791 33.6117C75.8734 33.7057 75.8106 33.8361 75.8027 33.9764C75.7948 34.1177 75.8413 34.2525 75.9361 34.3587C76.0288 34.4646 76.1572 34.5271 76.2993 34.5354C76.4375 34.5437 76.568 34.5 76.6719 34.4104L82.3095 28.7565L82.9959 29.4442L77.3262 35.1277C77.0492 35.3749 76.6975 35.5083 76.3311 35.5083Z" fill="black"/>
<path d="M67.9521 12.1568L67.2487 11.4851L64.277 14.6095L64.9804 15.2812L67.9521 12.1568Z" fill="black"/>
<path d="M80.2184 24.7102H68.9396V25.6834H80.2184V24.7102Z" fill="black"/>
<path d="M75.166 25.539L74.48 24.8511L68.5899 30.7479L69.2759 31.4358L75.166 25.539Z" fill="black"/>
<path d="M69.2891 28.6139L68.589 27.941L71.5339 24.8599L72.2332 25.5342L69.2891 28.6139Z" fill="black"/>
<path d="M75.0757 25.5469L74.3881 24.8589L68.5031 30.7631L69.1906 31.4511L75.0757 25.5469Z" fill="black"/>
<path d="M69.1957 28.6139L68.4952 27.941L71.439 24.8599L72.1401 25.5342L69.1957 28.6139Z" fill="black"/>
<path fill-rule="evenodd" clip-rule="evenodd" d="M49.9476 76.9663C49.9476 77.1394 49.9476 77.2445 49.9476 77.3472C49.9476 80.4836 49.9476 83.6226 49.9476 86.7591C49.9451 87.6116 49.5678 87.9896 48.7076 87.9896C47.8222 87.9896 46.9382 87.9896 46.0524 87.9896C45.2798 87.9896 44.8806 87.5874 44.8806 86.8075C44.8806 82.0708 44.8806 77.3309 44.8806 72.5917C44.8806 70.8531 44.8777 69.1148 44.8806 67.3762C44.8842 66.5345 45.6456 66.0134 46.3564 66.3668C46.4913 66.4348 46.6129 66.5399 46.7229 66.6426C50.3519 70.1079 53.9744 73.5714 57.6006 77.0342C57.6738 77.1043 57.751 77.1715 57.8751 77.2825C57.8751 77.1209 57.8751 77.0205 57.8751 76.9182C57.8751 73.7738 57.8751 70.6269 57.8751 67.4795C57.8751 66.6429 58.2581 66.2649 59.0952 66.262C60.0019 66.262 60.9079 66.2595 61.8125 66.2649C62.5273 66.2649 62.9396 66.6755 62.9396 67.4015C62.9424 73.8873 62.9396 80.3734 62.9396 86.8596C62.9396 87.3373 62.7646 87.7124 62.3149 87.9068C61.8511 88.1009 61.4597 87.9603 61.1048 87.6199C57.4751 84.1466 53.8424 80.6784 50.2091 77.2095C50.142 77.1444 50.0709 77.0794 49.9476 76.9663ZM48.91 74.5403C53.2628 78.6995 57.562 82.8048 61.8882 86.9398C61.8882 80.3535 61.8882 73.8327 61.8882 67.3144C60.8863 67.3144 59.9085 67.3144 58.8983 67.3144C58.8983 71.436 58.8983 75.5417 58.8983 79.7034C54.5562 75.5522 50.2614 71.4494 45.928 67.309C45.928 73.8923 45.928 80.4103 45.928 86.9452C46.9248 86.9452 47.9026 86.9452 48.91 86.9452C48.91 82.8261 48.91 78.7179 48.91 74.5403Z" fill="black"/>
<path fill-rule="evenodd" clip-rule="evenodd" d="M115.998 76.9554C115.998 77.1306 115.998 77.2308 115.998 77.3359C115.998 80.4803 115.998 83.6247 115.998 86.7746C115.998 87.6191 115.626 87.9892 114.783 87.9892C113.888 87.9892 112.992 87.9892 112.096 87.9892C111.353 87.9892 110.951 87.592 110.95 86.8501C110.95 80.3723 110.951 73.8973 110.946 67.4195C110.946 66.9255 111.11 66.5446 111.57 66.3451C112.031 66.1507 112.425 66.2938 112.78 66.631C116.361 70.0587 119.943 73.481 123.526 76.9069C123.637 77.0117 123.748 77.1173 123.919 77.2763C123.927 77.0985 123.938 76.9821 123.938 76.8658C123.938 73.7889 123.938 70.7117 123.938 67.6295C123.938 67.5135 123.935 67.4 123.943 67.2815C123.978 66.6602 124.383 66.266 125.008 66.2638C125.969 66.2584 126.934 66.2584 127.895 66.2638C128.593 66.2663 128.996 66.6852 128.997 67.3917C128.997 73.0979 128.997 78.801 128.997 84.5047C128.997 85.2763 128.987 86.0507 129 86.8226C129.008 87.312 128.841 87.7001 128.381 87.8999C127.908 88.1077 127.51 87.9512 127.15 87.6054C124.826 85.3764 122.495 83.1549 120.167 80.9277C118.886 79.7026 117.603 78.4775 116.32 77.2517C116.231 77.1657 116.141 77.0876 115.998 76.9554ZM114.969 74.5374C119.327 78.6994 123.617 82.799 127.946 86.9343C127.946 80.3455 127.946 73.8326 127.946 67.3118C126.95 67.3118 125.972 67.3118 124.953 67.3118C124.953 71.4305 124.953 75.5304 124.953 79.6976C120.611 75.5467 116.324 71.4493 111.993 67.314C111.993 73.9053 111.993 80.4153 111.993 86.9394C112.989 86.9394 113.965 86.9394 114.969 86.9394C114.969 82.8235 114.969 78.7262 114.969 74.5374Z" fill="black"/>
<path fill-rule="evenodd" clip-rule="evenodd" d="M34.8522 71.1464C34.8522 72.1399 34.8522 73.0842 34.8522 74.0773C34.9701 74.0773 35.0809 74.0773 35.1909 74.0773C37.2813 74.0773 39.3721 74.0747 41.4618 74.0773C42.287 74.0773 42.6661 74.4582 42.6661 75.2785C42.6679 76.1155 42.6679 76.955 42.6661 77.7941C42.6661 78.5606 42.2751 78.9603 41.5163 78.9603C39.4067 78.9603 37.2975 78.9603 35.188 78.9603C35.0834 78.9603 34.9806 78.9603 34.858 78.9603C34.858 80.3448 34.858 81.7025 34.858 83.1007C34.977 83.1007 35.0888 83.1007 35.2013 83.1007C37.2712 83.1007 39.3432 83.1195 41.4135 83.0928C42.2636 83.0794 42.7147 83.5925 42.6754 84.3724C42.6365 85.209 42.67 86.0511 42.6661 86.8877C42.6632 87.5682 42.243 87.9892 41.5675 87.9892C38.0008 87.9892 34.4367 87.9892 30.873 87.9892C30.2133 87.9892 29.7773 87.5653 29.7773 86.9093C29.7751 80.386 29.7751 73.8619 29.7773 67.3356C29.7773 66.6909 30.2061 66.2641 30.8517 66.2641C34.4342 66.2612 38.0181 66.2612 41.6028 66.2641C42.2488 66.2641 42.6635 66.6909 42.6664 67.3407C42.6718 68.2366 42.6707 69.1357 42.6664 70.0348C42.6653 70.7334 42.2596 71.1439 41.5516 71.1439C39.4421 71.1493 37.3329 71.1464 35.2222 71.1464C35.1076 71.1464 34.9943 71.1464 34.8522 71.1464ZM30.83 67.3085C30.83 73.8724 30.83 80.4044 30.83 86.939C34.4367 86.939 38.0254 86.939 41.6158 86.939C41.6158 85.9972 41.6158 85.0735 41.6158 84.1209C39.0093 84.1209 36.4251 84.1209 33.8275 84.1209C33.8275 82.0455 33.8275 80.0047 33.8275 77.9293C36.4305 77.9293 39.0165 77.9293 41.6183 77.9293C41.6183 76.9763 41.6183 76.0559 41.6183 75.1032C39.0118 75.1032 36.4254 75.1032 33.8254 75.1032C33.8254 73.4326 33.8254 71.7948 33.8254 70.1125C36.4283 70.1125 39.0219 70.1125 41.6133 70.1125C41.6133 69.1487 41.6133 68.2286 41.6133 67.3082C38.0073 67.3085 34.4255 67.3085 30.83 67.3085Z" fill="black"/>
<path fill-rule="evenodd" clip-rule="evenodd" d="M5.07874 71.1474C5.07874 72.1434 5.07874 73.0935 5.07874 74.0783C5.20822 74.0783 5.32219 74.0783 5.43435 74.0783C7.51541 74.0783 9.5961 74.0757 11.6771 74.0783C12.5153 74.0783 12.8897 74.4591 12.8897 75.2986C12.8897 76.149 12.8926 76.999 12.8897 77.8468C12.889 78.5482 12.4764 78.9584 11.7734 78.9613C9.6639 78.9613 7.55472 78.9613 5.44518 78.9613C5.33085 78.9613 5.21795 78.9613 5.07765 78.9613C5.07008 79.0885 5.0589 79.1911 5.0589 79.2934C5.0589 80.4516 5.06611 81.6092 5.05313 82.767C5.0488 83.029 5.11769 83.1093 5.38675 83.1067C7.46816 83.0988 9.54921 83.1013 11.6303 83.1038C12.5283 83.1038 12.8893 83.4685 12.8893 84.3647C12.8893 85.2039 12.8922 86.0434 12.8893 86.8857C12.8886 87.5633 12.4659 87.9898 11.7918 87.9898C8.22736 87.9898 4.66253 87.9898 1.09913 87.9898C0.424324 87.9898 0.000541001 87.5633 0.000541001 86.8883C-0.000180334 80.3808 -0.000180334 73.8784 0.000541001 67.3709C0.000541001 66.6858 0.413865 66.2644 1.09372 66.2644C4.6582 66.2615 8.22195 66.2615 11.7864 66.2644C12.4829 66.2644 12.8893 66.6858 12.8893 67.3894C12.8922 68.2701 12.8922 69.1464 12.8893 70.0242C12.8886 70.7282 12.4854 71.1445 11.7785 71.1445C9.66895 71.1499 7.56049 71.147 5.45131 71.147C5.33734 71.1474 5.223 71.1474 5.07874 71.1474ZM11.8434 75.0992C9.23254 75.0992 6.64584 75.0992 4.04939 75.0992C4.04939 73.4285 4.04939 71.7932 4.04939 70.1218C6.65125 70.1218 9.23795 70.1218 11.8416 70.1218C11.8416 69.1696 11.8416 68.2462 11.8416 67.3099C8.23854 67.3099 4.65135 67.3099 1.05585 67.3099C1.05585 73.8658 1.05585 80.4007 1.05585 86.9378C4.66505 86.9378 8.25189 86.9378 11.8355 86.9378C11.8355 85.9928 11.8355 85.0694 11.8355 84.1168C9.22966 84.1168 6.64403 84.1168 4.05372 84.1168C4.05372 82.0443 4.05372 80.0006 4.05372 77.9277C6.65774 77.9277 9.24444 77.9277 11.8438 77.9277C11.8434 76.9802 11.8434 76.068 11.8434 75.0992Z" fill="black"/>
<path fill-rule="evenodd" clip-rule="evenodd" d="M106.4 87.9897C105.898 87.9897 105.398 87.9817 104.897 87.9922C104.36 88.003 104.007 87.7577 103.798 87.2691C103.259 86.0114 102.71 84.7564 102.177 83.5009C102.092 83.3011 101.988 83.2367 101.773 83.2367C99.6042 83.2447 97.4384 83.2447 95.2712 83.2367C95.0631 83.2367 94.97 83.3065 94.8878 83.4901C94.3356 84.7321 93.7618 85.963 93.2172 87.204C92.9806 87.7522 92.6113 88.0085 92.0108 87.9947C91.038 87.973 90.0653 87.9893 89.0922 87.9893C88.1412 87.9893 87.6817 87.2716 88.0802 86.3967C90.2987 81.5436 92.5207 76.6935 94.7421 71.8408C95.484 70.2189 96.2284 68.6017 96.9642 66.9769C97.1838 66.4941 97.5297 66.2455 98.0689 66.2617C98.4818 66.2751 98.8977 66.278 99.3103 66.2672C99.8949 66.2484 100.259 66.5158 100.49 67.0499C102.103 70.7722 103.726 74.489 105.345 78.2052C106.532 80.934 107.722 83.6653 108.91 86.3916C109.3 87.2933 108.85 87.9897 107.874 87.9897C107.382 87.9897 106.891 87.9897 106.4 87.9897ZM108.014 86.9557C107.975 86.8473 107.948 86.7671 107.914 86.6937C105.133 80.3048 102.352 73.9188 99.575 67.5327C99.5047 67.3737 99.4293 67.2928 99.2407 67.3007C98.9035 67.3141 98.5641 67.3116 98.2287 67.2928C98.0285 67.2823 97.925 67.3466 97.8373 67.5385C94.9224 73.9274 91.9981 80.3135 89.0771 86.6966C89.0428 86.7725 89.019 86.8531 88.9804 86.9561C89.9849 86.9561 90.9583 86.9507 91.93 86.9641C92.141 86.9666 92.2286 86.8882 92.309 86.7046C92.9427 85.2905 93.589 83.8811 94.2191 82.4619C94.3086 82.2646 94.415 82.2003 94.6285 82.2028C97.2213 82.2108 99.812 82.2108 102.403 82.2003C102.651 82.2003 102.77 82.27 102.869 82.502C103.464 83.914 104.078 85.3172 104.694 86.718C104.737 86.8155 104.848 86.9453 104.93 86.9478C105.949 86.9641 106.968 86.9557 108.014 86.9557Z" fill="black"/>
<path fill-rule="evenodd" clip-rule="evenodd" d="M71.9851 77.1312C71.9851 73.9192 71.9851 70.7018 71.9851 67.4902C71.9851 66.629 72.3501 66.2618 73.2149 66.2618C74.8134 66.2647 76.4122 66.2484 78.0114 66.2752C79.9627 66.3106 81.8735 66.5856 83.627 67.5061C86.565 69.0477 88.3089 71.5113 88.9765 74.7312C89.5344 77.4116 89.2704 80.0299 87.9334 82.4483C86.2913 85.417 83.7269 87.1582 80.4056 87.7411C79.4249 87.9138 78.415 87.9514 77.4185 87.9811C75.9823 88.0187 74.5469 87.989 73.1114 87.989C72.3901 87.989 71.9851 87.5868 71.9851 86.8608C71.9833 83.617 71.9851 80.3753 71.9851 77.1312ZM73.0267 86.9558C74.4095 86.9558 75.7591 86.9775 77.1062 86.9479C78.0868 86.924 79.0761 86.9153 80.0424 86.7592C83.248 86.2432 85.6868 84.5783 87.1807 81.6604C88.2479 79.5763 88.4398 77.3365 87.9965 75.0637C87.4238 72.1275 85.865 69.8681 83.1986 68.4431C81.6603 67.6224 79.9782 67.3554 78.2603 67.3178C76.5944 67.2802 74.9274 67.299 73.2622 67.2961C73.1872 67.2932 73.115 67.3095 73.0274 67.3149C73.0267 73.8625 73.0267 80.3941 73.0267 86.9558Z" fill="black"/>
<path fill-rule="evenodd" clip-rule="evenodd" d="M20.103 83.1007C20.2596 83.1007 20.3739 83.1007 20.4864 83.1007C22.4824 83.1007 24.4758 83.1007 26.4699 83.1032C27.3492 83.1032 27.7131 83.4679 27.7149 84.3504C27.7149 85.1711 27.716 85.9914 27.7131 86.8121C27.7131 87.5978 27.3243 87.9892 26.5467 87.9892C23.0969 87.9892 19.6475 87.9892 16.1999 87.9892C15.4443 87.9892 15.0368 87.5844 15.0368 86.8284C15.0349 80.3611 15.0349 73.8944 15.0368 67.4271C15.0368 66.6685 15.4382 66.2638 16.1923 66.2609C17.0879 66.2584 17.9848 66.2609 18.88 66.2609C19.7175 66.2638 20.1012 66.6418 20.1012 67.4784C20.103 72.5468 20.103 77.6131 20.103 82.6848C20.103 82.8069 20.103 82.9309 20.103 83.1007ZM16.0899 67.3085C16.0899 73.8724 16.0899 80.4044 16.0899 86.9365C19.6277 86.9365 23.1471 86.9365 26.6921 86.9365C26.6921 86.0912 26.6816 85.273 26.7 84.4555C26.7054 84.186 26.6228 84.1184 26.3603 84.1209C24.0473 84.1289 21.7358 84.1267 19.4246 84.1267C19.3117 84.1267 19.2021 84.1267 19.0643 84.1267C19.0643 78.4938 19.0643 72.9093 19.0643 67.3085C18.0599 67.3085 17.081 67.3085 16.0899 67.3085Z" fill="black"/>
<path fill-rule="evenodd" clip-rule="evenodd" d="M98.6103 72.2107C99.5945 74.6262 100.551 76.9795 101.52 79.3629C99.5296 79.3629 97.5777 79.3629 95.5846 79.3629C96.5923 76.9828 97.5885 74.6262 98.6103 72.2107ZM97.1391 78.338C98.1064 78.338 99.0304 78.338 99.992 78.338C99.5256 77.196 99.073 76.084 98.5915 74.9045C98.0902 76.0894 97.6217 77.1931 97.1391 78.338Z" fill="black"/>
<path fill-rule="evenodd" clip-rule="evenodd" d="M76.0242 84.0963C76.0242 79.4489 76.0242 74.8007 76.0242 70.1175C76.3942 70.1175 76.7491 70.1201 77.1029 70.1175C78.2805 70.1146 79.4502 70.1772 80.5888 70.5223C83.072 71.2808 84.488 73.0299 85.0145 75.5051C85.5292 77.9209 85.0279 80.1257 83.3447 81.9908C82.2883 83.157 80.9358 83.7913 79.404 83.972C78.3289 84.1042 77.2353 84.0796 76.1468 84.123C76.1118 84.1234 76.0743 84.1071 76.0242 84.0963ZM77.0449 83.1274C77.719 83.0869 78.3635 83.0757 79.0026 83.0006C80.279 82.8437 81.4591 82.4281 82.3896 81.4885C84.0393 79.8178 84.4847 77.8017 83.9776 75.564C83.6033 73.9175 82.7229 72.6111 81.163 71.8475C80.3111 71.4319 79.3982 71.2483 78.458 71.1945C77.9916 71.167 77.5231 71.1883 77.0449 71.1883C77.0449 75.144 77.0449 79.1005 77.0449 83.1274Z" fill="black"/>
</svg>
