<svg width="129" height="88" viewBox="0 0 129 88" fill="none" xmlns="http://www.w3.org/2000/svg">
<path d="M63.9819 59.0792C63.9819 59.3802 64.225 59.6205 64.524 59.6205C64.8219 59.6205 65.0647 59.3798 65.0647 59.0792C65.0647 58.7807 64.8219 58.5356 64.524 58.5356C64.2247 58.5356 63.9819 58.7597 63.9819 59.0792Z" fill="white"/>
<path d="M65.1332 59.0794C65.1332 59.3804 64.8905 59.6208 64.5912 59.6208C64.2933 59.6208 64.0498 59.3801 64.0498 59.0794C64.0498 58.7809 64.2933 58.5359 64.5912 58.5359C64.8905 58.5359 65.1332 58.7599 65.1332 59.0794Z" fill="white"/>
<path d="M63.9819 56.022C63.9819 56.3226 64.225 56.5669 64.524 56.5669C64.8219 56.5669 65.0647 56.3226 65.0647 56.022C65.0647 55.7242 64.8219 55.4817 64.524 55.4817C64.2247 55.4817 63.9819 55.705 63.9819 56.022Z" fill="white"/>
<path d="M58.0425 53.2027C58.0425 53.5005 58.2841 53.7441 58.5842 53.7441C58.8818 53.7441 59.1238 53.5005 59.1238 53.2027C59.1238 52.9024 58.8818 52.6592 58.5842 52.6592C58.2841 52.6588 58.0425 52.8847 58.0425 53.2027Z" fill="white"/>
<path d="M56.6655 54.605C56.6655 54.9028 56.9086 55.1475 57.2069 55.1475C57.5066 55.1475 57.749 54.9025 57.749 54.605C57.749 54.3044 57.5066 54.0615 57.2069 54.0615C56.9086 54.0615 56.6655 54.2856 56.6655 54.605Z" fill="white"/>
<path d="M59.563 54.7722C59.563 55.0714 59.8064 55.315 60.1044 55.315C60.4037 55.315 60.6461 55.0714 60.6461 54.7722C60.6461 54.4715 60.4037 54.2312 60.1044 54.2312C59.8061 54.2312 59.563 54.4527 59.563 54.7722Z" fill="white"/>
<path d="M58.167 56.1634C58.167 56.4626 58.4104 56.7048 58.7087 56.7048C59.0074 56.7048 59.2501 56.4626 59.2501 56.1634C59.2501 55.8642 59.0074 55.6213 58.7087 55.6213C58.4101 55.621 58.167 55.844 58.167 56.1634Z" fill="white"/>
<path d="M68.4312 54.7442C68.4312 55.042 68.6735 55.2837 68.9732 55.2837C69.2715 55.2837 69.5139 55.0423 69.5139 54.7442C69.5139 54.4424 69.2715 54.2 68.9732 54.2C68.6735 54.2 68.4312 54.4244 68.4312 54.7442Z" fill="white"/>
<path d="M69.8667 56.1998C69.8667 56.5005 70.1094 56.7433 70.4084 56.7433C70.7081 56.7433 70.9494 56.5001 70.9494 56.1998C70.9494 55.902 70.7081 55.657 70.4084 55.657C70.1094 55.657 69.8667 55.8814 69.8667 56.1998Z" fill="white"/>
<path d="M59.0179 53.5304L58.3262 52.8467L56.895 54.3003L57.5868 54.984L59.0179 53.5304Z" fill="white"/>
<path d="M58.937 56.5382L58.2539 55.8476L59.7619 54.3442L60.4464 55.0348L58.937 56.5382Z" fill="white"/>
<path d="M64.0715 59.371L59.8452 55.1164L60.5319 54.428L64.7608 58.6844L64.0715 59.371Z" fill="white"/>
<path d="M92.0942 31.092C92.0942 31.3612 92.3117 31.5813 92.5819 31.5813C92.8509 31.5813 93.068 31.3612 93.068 31.092C93.068 30.8228 92.8509 30.6038 92.5819 30.6038C92.3114 30.6038 92.0942 30.805 92.0942 31.092Z" fill="white"/>
<path d="M89.1431 31.0462C89.1431 31.3165 89.3609 31.5355 89.6296 31.5355C89.8987 31.5355 90.1172 31.3169 90.1172 31.0462C90.1172 30.7766 89.899 30.5569 89.6296 30.5569C89.3609 30.5569 89.1431 30.7607 89.1431 31.0462Z" fill="white"/>
<path d="M89.1431 37.0013C89.1431 37.2691 89.3609 37.4906 89.6296 37.4906C89.8987 37.4906 90.1172 37.2691 90.1172 37.0013C90.1172 36.7306 89.899 36.512 89.6296 36.512C89.3609 36.5116 89.1431 36.7129 89.1431 37.0013Z" fill="white"/>
<path d="M65.1318 56.022C65.1318 56.3226 64.8891 56.5669 64.5897 56.5669C64.2918 56.5669 64.0483 56.3226 64.0483 56.022C64.0483 55.7242 64.2918 55.4817 64.5897 55.4817C64.8891 55.4817 65.1318 55.705 65.1318 56.022Z" fill="white"/>
<path d="M71.0722 53.2027C71.0722 53.5005 70.8298 53.7441 70.5305 53.7441C70.2311 53.7441 69.9888 53.5005 69.9888 53.2027C69.9888 52.9024 70.2311 52.6592 70.5305 52.6592C70.8298 52.6592 71.0722 52.8847 71.0722 53.2027Z" fill="white"/>
<path d="M72.4461 54.605C72.4461 54.9028 72.2056 55.1475 71.9055 55.1475C71.6061 55.1475 71.3638 54.9025 71.3638 54.605C71.3638 54.3044 71.6061 54.0615 71.9055 54.0615C72.2056 54.0615 72.4461 54.2856 72.4461 54.605Z" fill="white"/>
<path d="M69.5504 54.7722C69.5504 55.0714 69.3076 55.315 69.0079 55.315C68.7086 55.315 68.4673 55.0714 68.4673 54.7722C68.4673 54.4715 68.7086 54.2312 69.0079 54.2312C69.3076 54.2312 69.5504 54.4527 69.5504 54.7722Z" fill="white"/>
<path d="M70.9455 56.1634C70.9455 56.4626 70.7024 56.7048 70.4034 56.7048C70.1037 56.7048 69.8628 56.4626 69.8628 56.1634C69.8628 55.8642 70.1037 55.6213 70.4034 55.6213C70.7024 55.621 70.9455 55.844 70.9455 56.1634Z" fill="white"/>
<path d="M72.2105 54.2993L70.7778 52.8462L70.0881 53.5289L71.5208 54.982L72.2105 54.2993Z" fill="white"/>
<path d="M70.849 55.8454L69.3403 54.3418L68.6549 55.0323L70.1636 56.5359L70.849 55.8454Z" fill="white"/>
<path d="M65.0403 59.371L64.3525 58.6844L68.5796 54.428L69.2677 55.1164L65.0403 59.371Z" fill="white"/>
<path d="M65.0096 3.05883C65.0096 3.32951 64.7932 3.54814 64.5238 3.54814C64.2562 3.54814 64.0376 3.32951 64.0376 3.05883C64.0376 2.79104 64.2558 2.57349 64.5238 2.57349C64.7936 2.57349 65.0096 2.79104 65.0096 3.05883Z" fill="white"/>
<path d="M64.9847 14.9556C64.9847 15.2317 64.7626 15.4533 64.4884 15.4533C64.2129 15.4533 63.9907 15.2317 63.9907 14.9556C63.9907 14.681 64.2129 14.458 64.4884 14.458C64.7626 14.458 64.9847 14.681 64.9847 14.9556Z" fill="white"/>
<path d="M79.6376 20.6581C79.6376 20.9219 79.4233 21.1336 79.1611 21.1336C78.8989 21.1336 78.6851 20.9219 78.6851 20.6581C78.6851 20.3946 78.8989 20.1807 79.1611 20.1807C79.4233 20.1807 79.6376 20.378 79.6376 20.6581Z" fill="white"/>
<path d="M50.3661 20.6664C50.3661 20.9371 50.1472 21.1558 49.8778 21.1558C49.6091 21.1558 49.3901 20.9368 49.3901 20.6664C49.3901 20.3972 49.6087 20.1782 49.8778 20.1782C50.1468 20.1782 50.3661 20.3795 50.3661 20.6664Z" fill="white"/>
<path d="M50.9226 14.2379C50.9226 14.5071 50.7044 14.7272 50.4336 14.7272C50.1652 14.7272 49.9463 14.5071 49.9463 14.2379C49.9463 13.9686 50.1649 13.7485 50.4336 13.7485C50.7041 13.7485 50.9226 13.9509 50.9226 14.2379Z" fill="white"/>
<path d="M53.2417 17.7728C53.2417 18.0449 53.0235 18.2621 52.7545 18.2621C52.4854 18.2621 52.2661 18.0445 52.2661 17.7728C52.2661 17.5036 52.485 17.2849 52.7545 17.2849C53.0235 17.2849 53.2417 17.4848 53.2417 17.7728Z" fill="white"/>
<path d="M51.7041 19.2444C51.7041 19.5151 51.4848 19.7338 51.2154 19.7338C50.946 19.7338 50.7271 19.5151 50.7271 19.2444C50.7271 18.9738 50.9456 18.7551 51.2154 18.7551C51.4852 18.7551 51.7041 18.956 51.7041 19.2444Z" fill="white"/>
<path d="M50.2461 17.7728C50.2461 18.0449 50.0283 18.2621 49.7588 18.2621C49.4894 18.2621 49.2705 18.0445 49.2705 17.7728C49.2705 17.5036 49.4894 17.2849 49.7588 17.2849C50.0279 17.2849 50.2461 17.4848 50.2461 17.7728Z" fill="white"/>
<path d="M37.0199 31.092C37.0199 31.3612 36.8021 31.5813 36.5323 31.5813C36.2625 31.5813 36.0439 31.3612 36.0439 31.092C36.0439 30.8228 36.2629 30.6038 36.5323 30.6038C36.8017 30.6038 37.0199 30.805 37.0199 31.092Z" fill="white"/>
<path d="M41.4414 35.5115C41.4414 35.7804 41.2225 35.9998 40.9534 35.9998C40.684 35.9998 40.4658 35.7808 40.4658 35.5115C40.4658 35.2409 40.6837 35.0222 40.9534 35.0222C41.2225 35.0219 41.4414 35.2231 41.4414 35.5115Z" fill="white"/>
<path d="M42.8982 37.0013C42.8982 37.2691 42.68 37.4906 42.4102 37.4906C42.1404 37.4906 41.9219 37.2691 41.9219 37.0013C41.9219 36.7306 42.1408 36.512 42.4102 36.512C42.6796 36.512 42.8982 36.7129 42.8982 37.0013Z" fill="white"/>
<path d="M41.4414 38.4808C41.4414 38.75 41.2225 38.969 40.9534 38.969C40.684 38.969 40.4658 38.75 40.4658 38.4808C40.4658 38.2115 40.6837 37.9915 40.9534 37.9915C41.2225 37.9911 41.4414 38.1949 41.4414 38.4808Z" fill="white"/>
<path d="M39.9699 31.0462C39.9699 31.3165 39.7513 31.5355 39.4815 31.5355C39.2132 31.5355 38.9946 31.3169 38.9946 31.0462C38.9946 30.7766 39.2128 30.5569 39.4815 30.5569C39.7513 30.5569 39.9699 30.7607 39.9699 31.0462Z" fill="white"/>
<path d="M39.9699 37.0013C39.9699 37.2691 39.7513 37.4906 39.4815 37.4906C39.2132 37.4906 38.9946 37.2691 38.9946 37.0013C38.9946 36.7306 39.2128 36.512 39.4815 36.512C39.7513 36.5116 39.9699 36.7129 39.9699 37.0013Z" fill="white"/>
<path d="M65.0326 17.887C65.0326 18.1696 64.805 18.398 64.5226 18.398C64.2423 18.398 64.0137 18.1696 64.0137 17.887C64.0137 17.604 64.2423 17.3752 64.5226 17.3752C64.805 17.3752 65.0326 17.604 65.0326 17.887Z" fill="white"/>
<path d="M60.5495 7.48311C60.5495 7.7509 60.3321 7.96953 60.0644 7.96953C59.7954 7.96953 59.5786 7.7509 59.5786 7.48311C59.5786 7.21388 59.7954 6.99487 60.0644 6.99487C60.3321 6.99487 60.5495 7.21388 60.5495 7.48311Z" fill="white"/>
<path d="M69.4689 7.48311C69.4689 7.7509 69.2507 7.96953 68.9828 7.96953C68.7144 7.96953 68.4966 7.7509 68.4966 7.48311C68.4966 7.21388 68.7144 6.99487 68.9828 6.99487C69.2507 6.99487 69.4689 7.21388 69.4689 7.48311Z" fill="white"/>
<path d="M63.9907 5.98314C63.9907 6.25093 64.2086 6.46993 64.4755 6.46993C64.7456 6.46993 64.9624 6.25129 64.9624 5.98314C64.9624 5.71391 64.7456 5.4978 64.4755 5.4978C64.2082 5.49744 63.9907 5.71391 63.9907 5.98314Z" fill="white"/>
<path d="M64.8726 3.40471L64.189 2.71289L59.7295 7.1372L60.4132 7.82902L64.8726 3.40471Z" fill="white"/>
<path d="M69.3204 7.13802L64.8608 2.71484L64.1781 3.40599L68.6376 7.82917L69.3204 7.13802Z" fill="white"/>
<path d="M71.8384 8.08542C71.8384 8.35466 72.0548 8.57365 72.3231 8.57365C72.5915 8.57365 72.8093 8.35466 72.8093 8.08542C72.8093 7.81764 72.5915 7.59863 72.3231 7.59863C72.0548 7.59863 71.8384 7.81764 71.8384 8.08542Z" fill="white"/>
<path d="M68.3948 10.3112C68.4316 10.6184 68.6224 10.8222 68.9041 10.8222C69.1847 10.8222 69.3711 10.5942 69.4119 10.3112C69.4551 10.0311 69.1847 9.80127 68.9041 9.80127C68.6224 9.80127 68.3627 10.0308 68.3948 10.3112Z" fill="white"/>
<path d="M69.2964 10.6169L68.5581 9.98197C70.3733 7.86389 72.216 7.60839 72.2943 7.59863L72.4169 8.56246L72.3556 8.08109L72.4187 8.56246C72.4039 8.56499 70.8509 8.80169 69.2964 10.6169Z" fill="white"/>
<path d="M69.2647 10.0237L64.8125 5.64014L64.1315 6.33459L68.5837 10.7181L69.2647 10.0237Z" fill="white"/>
<path d="M57.115 8.08542C57.115 8.35466 56.9 8.57365 56.6299 8.57365C56.3608 8.57365 56.144 8.35466 56.144 8.08542C56.144 7.81764 56.3608 7.59863 56.6299 7.59863C56.9 7.59827 57.115 7.81764 57.115 8.08542Z" fill="white"/>
<path d="M60.5586 10.3112C60.5226 10.6184 60.331 10.8222 60.049 10.8222C59.7673 10.8222 59.5823 10.5942 59.5405 10.3112C59.4986 10.0311 59.7673 9.80127 60.049 9.80127C60.331 9.80127 60.5911 10.0308 60.5586 10.3112Z" fill="white"/>
<path d="M59.6577 10.6169C58.1025 8.80169 56.5505 8.56499 56.5332 8.56246L56.6594 7.59863C56.737 7.60839 58.58 7.86389 60.3949 9.98197L59.6577 10.6169Z" fill="white"/>
<path d="M64.818 6.33235L64.1372 5.63916L59.6897 10.0243L60.3704 10.7175L64.818 6.33235Z" fill="white"/>
<path d="M79.8303 24.7939L67.4107 12.6116L67.3841 12.5737C66.724 11.6149 65.861 10.6334 64.4688 10.6088C63.2898 10.5901 62.704 11.2601 61.6466 12.4772L61.5604 12.5762L49.4102 24.79L48.7217 24.1033L60.8603 11.9004L60.9148 11.8394C62.022 10.564 62.8274 9.63672 64.4154 9.63672C64.4381 9.63672 64.4619 9.63672 64.4846 9.63672C66.3075 9.6678 67.4039 10.8987 68.1555 11.9821L80.5109 24.0994L79.8303 24.7939Z" fill="white"/>
<path d="M55.9385 45.2111L53.2977 42.6167L52.884 42.2347C49.9196 39.5004 45.8578 35.7561 45.7601 31.9273C45.6544 27.7695 47.0292 25.6753 49.7743 23.0513L50.4444 23.7556C47.8508 26.2358 46.6325 28.0875 46.7303 31.9027C46.8165 35.3207 50.7045 38.9038 53.5415 41.5195L53.9667 41.9123L56.618 44.515L55.9385 45.2111Z" fill="white"/>
<path d="M72.858 45.5565L72.1904 44.8497L75.699 41.5195C78.5367 38.9038 82.4233 35.321 82.5109 31.9027C82.6087 28.0875 81.39 26.2358 78.7953 23.7556L79.4658 23.0513C82.2127 25.6753 83.5875 27.7695 83.4804 31.9273C83.3834 35.7561 79.3215 39.5008 76.3565 42.2347L75.932 42.6275L72.858 45.5565Z" fill="white"/>
<path d="M64.8646 56.4443L64.1826 55.7536L78.0218 42.055C81.1769 39.1357 84.7962 35.3506 84.886 31.8697C84.9823 28.0679 84.1647 26.0351 81.5239 23.513L78.8531 21.044L79.5117 20.3289L82.1889 22.8033C85.036 25.5227 85.9608 27.8178 85.8566 31.8957C85.7588 35.7177 82.1799 39.5314 78.693 42.7568L64.8646 56.4443Z" fill="white"/>
<path d="M64.0566 23.6533C64.0566 23.924 64.2745 24.1412 64.5421 24.1412C64.8115 24.1412 65.0286 23.9236 65.0286 23.6533C65.0286 23.3851 64.8115 23.1665 64.5421 23.1665C64.2745 23.1665 64.0566 23.3678 64.0566 23.6533Z" fill="white"/>
<path d="M59.6714 25.1966C59.6714 25.4659 59.8972 25.6834 60.1749 25.6834C60.4504 25.6834 60.6748 25.4659 60.6748 25.1966C60.6748 24.9274 60.4504 24.7102 60.1749 24.7102C59.8972 24.7102 59.6714 24.9111 59.6714 25.1966Z" fill="white"/>
<path d="M64.0552 35.5085C64.0552 35.7777 64.273 35.9953 64.5414 35.9953C64.81 35.9953 65.0261 35.7774 65.0261 35.5085C65.0261 35.2396 64.81 35.0217 64.5414 35.0217C64.2727 35.0217 64.0552 35.223 64.0552 35.5085Z" fill="white"/>
<path d="M64.0376 38.4778C64.0376 38.747 64.2558 38.9646 64.5238 38.9646C64.7918 38.9646 65.0085 38.7466 65.0085 38.4778C65.0085 38.2089 64.7914 37.9924 64.5238 37.9924C64.2562 37.9924 64.0376 38.1923 64.0376 38.4778Z" fill="white"/>
<path d="M64.1823 56.4443L50.3323 42.7485C46.8569 39.5314 43.2777 35.7174 43.1817 31.8957C43.0768 27.8182 44.0005 25.523 46.8418 22.8087L49.5259 20.3289L50.1837 21.044L47.5051 23.5184C44.8697 26.0351 44.0538 28.0665 44.1512 31.8697C44.2396 35.3502 47.8582 39.1357 51.0028 42.0427L64.864 55.7522L64.1823 56.4443Z" fill="white"/>
<path d="M65.027 23.6538H64.0571V35.5087H65.027V23.6538Z" fill="white"/>
<path d="M60.6728 25.1658H59.7026V37.0206H60.6728V25.1658Z" fill="white"/>
<path d="M69.3114 25.1966C69.3114 25.4659 69.087 25.6834 68.8108 25.6834C68.5327 25.6834 68.3091 25.4659 68.3091 25.1966C68.3091 24.9274 68.5327 24.7102 68.8108 24.7102C69.087 24.7102 69.3114 24.9111 69.3114 25.1966Z" fill="white"/>
<path d="M69.2817 25.1658H68.3115V37.0206H69.2817V25.1658Z" fill="white"/>
<path d="M64.6933 38.0214L60.2964 36.4456L59.9693 37.3619L64.3661 38.9378L64.6933 38.0214Z" fill="white"/>
<path d="M69.0554 37.3703L68.7285 36.4539L64.3309 38.0289L64.6578 38.9454L69.0554 37.3703Z" fill="white"/>
<path d="M64.2264 41.679L58.9524 36.3869C58.8705 36.3081 58.78 36.2167 58.687 36.1231C58.2307 35.658 57.7124 35.1347 57.2115 35.1347C56.6651 35.1347 56.167 35.6609 56.167 36.2402H55.1968C55.1968 35.1333 56.1388 34.1611 57.2118 34.1611C58.1182 34.1611 58.8186 34.8695 59.3794 35.4394C59.466 35.529 59.5515 35.6146 59.6337 35.6934L64.9153 40.991L64.2264 41.679Z" fill="white"/>
<path d="M64.7621 41.679L64.0747 40.991L69.352 35.6992C69.4396 35.615 69.5237 35.529 69.6117 35.4408C70.1729 34.8695 70.8708 34.1611 71.7775 34.1611C72.8508 34.1611 73.7947 35.1329 73.7947 36.2402H72.8238C72.8238 35.6609 72.3257 35.1347 71.7778 35.1347C71.2765 35.1347 70.7597 35.6598 70.3027 36.1231C70.2082 36.2167 70.1195 36.3081 70.0333 36.3923L64.7621 41.679Z" fill="white"/>
<path d="M60.0238 47.4465C57.4065 47.4465 55.1963 45.3053 55.1963 42.7666H56.1658C56.1658 44.7748 57.9334 46.4755 60.0235 46.4755C62.1503 46.4755 63.8801 44.8576 63.8801 42.8674H64.8517C64.8524 45.3921 62.6859 47.4465 60.0238 47.4465Z" fill="white"/>
<path d="M69.0061 47.4458C66.3661 47.4458 64.2197 45.3913 64.2197 42.8667H65.1892C65.1892 44.8572 66.9009 46.4747 69.0065 46.4747C71.1114 46.4747 72.8231 44.8409 72.8231 42.8367H73.794C73.794 45.379 71.6462 47.4458 69.0061 47.4458Z" fill="white"/>
<path d="M65.2224 41.0776H63.7656V43.9246H65.2224V41.0776Z" fill="white"/>
<path d="M56.1665 36.2087H55.1963V42.8669H56.1665V36.2087Z" fill="white"/>
<path d="M73.7937 36.2087H72.8228V42.8669H73.7937V36.2087Z" fill="white"/>
<path d="M64.509 47C63.6997 47 63.0025 46.5793 62.6343 46.2205L63.3098 45.5244L62.9719 45.871L63.3076 45.5215C63.4267 45.6332 64.4968 46.5891 65.6296 45.5161L66.2961 46.2244C65.6942 46.7958 65.0738 47 64.509 47Z" fill="white"/>
<path d="M64.4788 50.7922C63.3038 50.7922 62.4685 50.6401 62.4162 50.6303C58.8964 49.8812 58.6566 47.0233 58.6548 46.9948L59.6228 46.9279L59.1395 46.9604L59.6228 46.9229C59.6304 47.0125 59.8335 49.0872 62.6055 49.6773C62.6113 49.6773 64.3833 49.9968 66.3399 49.673C69.306 49.1783 69.5065 47.0179 69.5138 46.9279L70.4822 46.9919C70.4818 47.0219 70.247 50.0091 66.4993 50.6314C65.7772 50.7532 65.0819 50.7922 64.4788 50.7922Z" fill="white"/>
<path d="M52.4385 18.1431C49.9741 16.0217 49.9492 14.3088 49.9492 14.2379L50.9194 14.2394L50.4329 14.2379L50.9194 14.2314C50.9194 14.2448 50.9854 15.6087 53.0712 17.4048L52.4385 18.1431Z" fill="white"/>
<path d="M78.2349 14.2379C78.2349 14.5071 78.4531 14.7272 78.7221 14.7272C78.9923 14.7272 79.2105 14.5071 79.2105 14.2379C79.2105 13.9686 78.9923 13.7485 78.7221 13.7485C78.4534 13.7485 78.2349 13.9509 78.2349 14.2379Z" fill="white"/>
<path d="M75.9136 17.7728C75.9136 18.0449 76.1329 18.2621 76.4023 18.2621C76.6717 18.2621 76.8899 18.0445 76.8899 17.7728C76.8899 17.5036 76.6721 17.2849 76.4023 17.2849C76.1325 17.2849 75.9136 17.4848 75.9136 17.7728Z" fill="white"/>
<path d="M76.7189 18.143L76.0859 17.4051C78.1803 15.6021 78.2373 14.252 78.2373 14.2397L79.209 14.2383C79.209 14.3084 79.1837 16.0217 76.7189 18.143Z" fill="white"/>
<path d="M52.9882 18.2142L52.3208 17.5112L50.8802 18.8843L51.5476 19.5873L52.9882 18.2142Z" fill="white"/>
<path d="M51.5072 18.814L50.106 17.4297L49.4245 18.1222L50.8258 19.5065L51.5072 18.814Z" fill="white"/>
<path d="M36.8761 31.4376L36.188 30.7496L49.4425 17.4072L50.1296 18.0935L36.8761 31.4376Z" fill="white"/>
<path d="M40.6115 35.8537L36.21 31.4376L36.8959 30.7495L41.2968 35.1667L40.6115 35.8537Z" fill="white"/>
<path d="M41.3048 35.8531L40.6089 35.1763L39.1941 36.6368L39.8901 37.3136L41.3048 35.8531Z" fill="white"/>
<path d="M42.805 37.3053L42.1187 36.6172L40.6245 38.1134L41.3109 38.8015L42.805 37.3053Z" fill="white"/>
<path d="M61.5063 62.1946C61.4835 62.1946 61.4579 62.1946 61.4348 62.1906C61.0258 62.1733 60.6587 61.9976 60.4005 61.6955L45.8208 47.0926L33.7882 35.0054C33.4892 34.7445 33.315 34.3773 33.301 33.9664C33.2855 33.5642 33.4236 33.167 33.6916 32.8515C33.9585 32.5335 34.3253 32.3297 34.7227 32.2795C35.1389 32.2238 35.5389 32.3405 35.8466 32.6018L35.8794 32.6329L39.8283 36.6602L39.1377 37.3414L35.2071 33.3329C35.1094 33.2581 34.9828 33.2256 34.8486 33.2429C34.6906 33.2635 34.5424 33.3463 34.4331 33.4782C34.3213 33.6097 34.2636 33.7691 34.2712 33.9285C34.2762 34.0698 34.3336 34.1948 34.432 34.279L34.4627 34.3076L46.5079 46.4046L61.1308 61.0562C61.2127 61.1552 61.336 61.2127 61.4785 61.2196C61.6386 61.2235 61.7984 61.1708 61.9279 61.0609C62.1832 60.8495 62.2471 60.5058 62.0794 60.2868L58.2537 56.4619L58.9379 55.7742L62.814 59.649C63.3377 60.2814 63.2194 61.2485 62.5497 61.8068C62.251 62.0587 61.8835 62.1946 61.5063 62.1946Z" fill="white"/>
<path d="M35.0925 29.6986C34.7148 29.6986 34.3466 29.5638 34.0483 29.3137C33.3782 28.7536 33.2603 27.7854 33.784 27.1544L33.815 27.1219L37.8036 23.1355L38.491 23.8246L34.5204 27.7908C34.3509 28.0113 34.4169 28.3553 34.6694 28.566C34.8003 28.6762 34.9651 28.7319 35.1192 28.7265C35.2613 28.7181 35.3842 28.661 35.4686 28.5606L35.4982 28.5281L50.0905 13.9089L50.7782 14.5967L36.1997 29.2013C35.94 29.5016 35.574 29.6783 35.1646 29.696C35.1408 29.6986 35.1155 29.6986 35.0925 29.6986Z" fill="white"/>
<path d="M38.1081 24.207L37.4214 23.5193L60.4248 0.497603C60.6823 0.196931 61.0487 0.0216608 61.4581 0.00250741C61.858 -0.0180915 62.2562 0.119599 62.5751 0.384494C62.8935 0.649751 63.0995 1.01691 63.1532 1.41516C63.2106 1.82967 63.0984 2.23081 62.8391 2.54232L62.8106 2.57629L56.9739 8.42965L56.2879 7.74158L62.1044 1.90592C62.1794 1.80799 62.2108 1.6815 62.1924 1.54707C62.1704 1.3895 62.0853 1.24242 61.954 1.13256C61.8227 1.02234 61.6683 0.968127 61.5042 0.973548C61.3621 0.980415 61.2381 1.03896 61.1544 1.13798L61.1241 1.17195L38.1081 24.207Z" fill="white"/>
<path d="M39.8262 31.3915L39.1392 30.7038L45.1695 24.6628L45.8548 25.3509L39.8262 31.3915Z" fill="white"/>
<path d="M46.9373 37.8295L39.8281 30.7021L39.1411 31.3901L46.2503 38.5175L46.9373 37.8295Z" fill="white"/>
<path d="M58.2413 53.4699L42.0278 37.3073L42.7117 36.6182L58.9244 52.7779L58.2413 53.4699Z" fill="white"/>
<path d="M57.5198 54.2936L41.2593 38.0972L40.5755 38.7863L56.8361 54.9827L57.5198 54.2936Z" fill="white"/>
<path d="M64.1035 3.05883C64.1035 3.32951 64.3206 3.54814 64.5893 3.54814C64.8566 3.54814 65.0737 3.32951 65.0737 3.05883C65.0737 2.79104 64.8566 2.57349 64.5893 2.57349C64.3206 2.57349 64.1035 2.79104 64.1035 3.05883Z" fill="white"/>
<path d="M64.1284 14.9556C64.1284 15.2317 64.3491 15.4533 64.6243 15.4533C64.8992 15.4533 65.1224 15.2317 65.1224 14.9556C65.1224 14.681 64.8992 14.458 64.6243 14.458C64.3491 14.458 64.1284 14.681 64.1284 14.9556Z" fill="white"/>
<path d="M78.7456 20.6664C78.7456 20.9371 78.9653 21.1558 79.2343 21.1558C79.5034 21.1558 79.7219 20.9368 79.7219 20.6664C79.7219 20.3972 79.5037 20.1782 79.2343 20.1782C78.9649 20.1782 78.7456 20.3795 78.7456 20.6664Z" fill="white"/>
<path d="M78.1909 14.2379C78.1909 14.5071 78.4088 14.7272 78.6782 14.7272C78.948 14.7272 79.1665 14.5071 79.1665 14.2379C79.1665 13.9686 78.9483 13.7485 78.6782 13.7485C78.4088 13.7485 78.1909 13.9509 78.1909 14.2379Z" fill="white"/>
<path d="M75.8701 17.7728C75.8701 18.0449 76.0876 18.2621 76.3567 18.2621C76.6268 18.2621 76.8454 18.0445 76.8454 17.7728C76.8454 17.5036 76.6268 17.2849 76.3567 17.2849C76.0876 17.2849 75.8701 17.4848 75.8701 17.7728Z" fill="white"/>
<path d="M77.4111 19.2444C77.4111 19.5151 77.6297 19.7338 77.8991 19.7338C78.1678 19.7338 78.3864 19.5151 78.3864 19.2444C78.3864 18.9738 78.1682 18.7551 77.8991 18.7551C77.6297 18.7551 77.4111 18.956 77.4111 19.2444Z" fill="white"/>
<path d="M78.8667 17.7728C78.8667 18.0449 79.0856 18.2621 79.354 18.2621C79.623 18.2621 79.8423 18.0445 79.8423 17.7728C79.8423 17.5036 79.6234 17.2849 79.354 17.2849C79.086 17.2849 78.8667 17.4848 78.8667 17.7728Z" fill="white"/>
<path d="M87.6704 35.5115C87.6704 35.7804 87.8893 35.9998 88.1588 35.9998C88.4278 35.9998 88.6471 35.7808 88.6471 35.5115C88.6471 35.2409 88.4282 35.0222 88.1588 35.0222C87.8897 35.0219 87.6704 35.2231 87.6704 35.5115Z" fill="white"/>
<path d="M86.2153 37.0013C86.2153 37.2691 86.4332 37.4906 86.7026 37.4906C86.9727 37.4906 87.1909 37.2691 87.1909 37.0013C87.1909 36.7306 86.9731 36.512 86.7026 36.512C86.4335 36.5116 86.2153 36.7129 86.2153 37.0013Z" fill="white"/>
<path d="M87.6704 38.4808C87.6704 38.75 87.8893 38.969 88.1588 38.969C88.4278 38.969 88.6471 38.75 88.6471 38.4808C88.6471 38.2115 88.4282 37.9915 88.1588 37.9915C87.8897 37.9911 87.6704 38.1949 87.6704 38.4808Z" fill="white"/>
<path d="M64.0801 17.887C64.0801 18.1696 64.3084 18.398 64.5904 18.398C64.8717 18.398 65.1 18.1696 65.1 17.887C65.1 17.604 64.8717 17.3752 64.5904 17.3752C64.3084 17.3752 64.0801 17.604 64.0801 17.887Z" fill="white"/>
<path d="M68.564 7.48311C68.564 7.7509 68.7811 7.96953 69.0487 7.96953C69.317 7.96953 69.5356 7.7509 69.5356 7.48311C69.5356 7.21388 69.3174 6.99487 69.0487 6.99487C68.7807 6.99487 68.564 7.21388 68.564 7.48311Z" fill="white"/>
<path d="M65.1229 5.98314C65.1229 6.25093 64.9054 6.46993 64.6367 6.46993C64.3687 6.46993 64.1494 6.25129 64.1494 5.98314C64.1494 5.71391 64.3683 5.4978 64.6367 5.4978C64.9054 5.49744 65.1229 5.71391 65.1229 5.98314Z" fill="white"/>
<path d="M69.3922 7.13655L64.9326 2.71338L64.2488 3.40556L68.7084 7.82873L69.3922 7.13655Z" fill="white"/>
<path d="M60.4704 7.8283L59.7891 7.13624L64.2473 2.71289L64.9307 3.40494L60.4704 7.8283Z" fill="white"/>
<path d="M57.2753 8.08542C57.2753 8.35466 57.0575 8.57365 56.7895 8.57365C56.5219 8.57365 56.3037 8.35466 56.3037 8.08542C56.3037 7.81764 56.5215 7.59863 56.7895 7.59863C57.0575 7.59827 57.2753 7.81764 57.2753 8.08542Z" fill="white"/>
<path d="M60.7182 10.3112C60.6818 10.6184 60.4907 10.8222 60.2086 10.8222C59.9298 10.8222 59.7423 10.5942 59.7001 10.3112C59.6582 10.0311 59.9298 9.80127 60.2086 9.80127C60.4907 9.80127 60.7511 10.0308 60.7182 10.3112Z" fill="white"/>
<path d="M59.8174 10.6169C58.2629 8.80169 56.7095 8.56499 56.6943 8.56246L56.8191 7.59863C56.8977 7.60839 58.74 7.86389 60.5546 9.98197L59.8174 10.6169Z" fill="white"/>
<path d="M64.982 6.33144L64.3008 5.63818L59.8537 10.0253L60.5349 10.7186L64.982 6.33144Z" fill="white"/>
<path d="M71.9971 8.08542C71.9971 8.35466 72.2149 8.57365 72.4829 8.57365C72.7516 8.57365 72.9683 8.35466 72.9683 8.08542C72.9683 7.81764 72.7516 7.59863 72.4829 7.59863C72.2149 7.59827 71.9971 7.81764 71.9971 8.08542Z" fill="white"/>
<path d="M68.5546 10.3112C68.5903 10.6184 68.7829 10.8222 69.0635 10.8222C69.3441 10.8222 69.5302 10.5942 69.5728 10.3112C69.6139 10.0311 69.3441 9.80127 69.0635 9.80127C68.7829 9.80127 68.5214 10.0308 68.5546 10.3112Z" fill="white"/>
<path d="M69.4549 10.6169L68.7188 9.98197C70.5336 7.86389 72.3755 7.60839 72.4535 7.59863L72.575 8.56246L72.5144 8.08109L72.5786 8.56246C72.5631 8.56499 71.0101 8.80169 69.4549 10.6169Z" fill="white"/>
<path d="M69.4267 10.0236L64.9771 5.64014L64.2966 6.33361L68.7463 10.7171L69.4267 10.0236Z" fill="white"/>
<path d="M49.2827 24.7939L48.6035 24.0994L60.9571 11.9821C61.7105 10.8983 62.807 9.6678 64.6276 9.63672C64.6521 9.63672 64.6756 9.63672 64.6987 9.63672C66.286 9.63672 67.0899 10.5615 68.1971 11.8365L68.252 11.9004L80.3899 24.1033L79.7028 24.7885L67.5328 12.5517L67.4657 12.4758C66.4082 11.2597 65.833 10.5911 64.6453 10.6085C63.2524 10.6331 62.3886 11.6146 61.7297 12.5733L61.6694 12.6438L49.2827 24.7939Z" fill="white"/>
<path d="M73.1761 45.2111L72.4951 44.515L75.137 41.9206L75.5712 41.5195C78.4086 38.9038 82.2948 35.321 82.3828 31.9027C82.4805 28.0861 81.2629 26.2344 78.6687 23.7556L79.3377 23.0513C82.0845 25.6753 83.4594 27.7681 83.353 31.9273C83.2553 35.7561 79.1942 39.5008 76.2291 42.2347L75.8039 42.6275L73.1761 45.2111Z" fill="white"/>
<path d="M64.2489 56.4443L50.4094 42.7485C46.9332 39.5314 43.3547 35.7174 43.2573 31.8957C43.1531 27.8182 44.0768 25.523 46.9195 22.8087L49.6022 20.3289L50.2608 21.044L47.5821 23.5184C44.9467 26.0351 44.1305 28.0665 44.2275 31.8722C44.317 35.3502 47.9352 39.1357 51.0795 42.0427L64.9305 55.7533L64.2489 56.4443Z" fill="white"/>
<path d="M65.0567 23.6533C65.0567 23.924 64.8389 24.1412 64.5705 24.1412C64.3011 24.1412 64.084 23.9236 64.084 23.6533C64.084 23.3851 64.3011 23.1665 64.5705 23.1665C64.8392 23.1665 65.0567 23.3678 65.0567 23.6533Z" fill="white"/>
<path d="M69.4389 25.1966C69.4389 25.4659 69.2161 25.6834 68.9391 25.6834C68.6617 25.6834 68.437 25.4659 68.437 25.1966C68.437 24.9274 68.6617 24.7102 68.9391 24.7102C69.2161 24.7102 69.4389 24.9111 69.4389 25.1966Z" fill="white"/>
<path d="M65.0572 35.5085C65.0572 35.7777 64.8397 35.9953 64.5707 35.9953C64.3052 35.9953 64.0859 35.7774 64.0859 35.5085C64.0859 35.2396 64.3049 35.0217 64.5707 35.0217C64.8397 35.0217 65.0572 35.223 65.0572 35.5085Z" fill="white"/>
<path d="M65.0737 38.4778C65.0737 38.747 64.8566 38.9646 64.5901 38.9646C64.3221 38.9646 64.1035 38.7466 64.1035 38.4778C64.1035 38.2089 64.3217 37.9924 64.5901 37.9924C64.8566 37.9924 65.0737 38.1923 65.0737 38.4778Z" fill="white"/>
<path d="M64.9306 56.4443L64.2485 55.7522L78.0974 42.055C81.2526 39.1357 84.8719 35.3506 84.9602 31.8697C85.0576 28.0665 84.2414 26.0351 81.5992 23.513L78.9288 21.044L79.5863 20.3289L82.2632 22.8033C85.111 25.5227 86.0357 27.8178 85.9322 31.8957C85.8345 35.7177 82.2563 39.5314 78.7672 42.7568L64.9306 56.4443Z" fill="white"/>
<path d="M65.0565 23.6538H64.0859V35.5087H65.0565V23.6538Z" fill="white"/>
<path d="M69.4102 25.1658H68.439V37.0206H69.4102V25.1658Z" fill="white"/>
<path d="M69.1502 37.3539L68.8223 36.4375L64.4265 38.0167L64.7544 38.9332L69.1502 37.3539Z" fill="white"/>
<path d="M64.7839 38.023L60.3867 36.447L60.0596 37.3634L64.4568 38.9394L64.7839 38.023Z" fill="white"/>
<path d="M64.8844 41.679L64.1987 40.991L69.4742 35.6992C69.5633 35.615 69.6473 35.529 69.7343 35.4408C70.2958 34.8695 70.9944 34.1611 71.9022 34.1611C72.9759 34.1611 73.9187 35.1329 73.9187 36.2402H72.9482C72.9482 35.6609 72.4486 35.1347 71.9026 35.1347C71.4016 35.1347 70.8819 35.6598 70.4264 36.1231C70.3337 36.2167 70.2428 36.3081 70.157 36.3923L64.8844 41.679Z" fill="white"/>
<path d="M64.3517 41.679L59.0755 36.3869C58.9932 36.3081 58.9038 36.2167 58.8111 36.1231C58.3538 35.658 57.8362 35.1347 57.3356 35.1347C56.7892 35.1347 56.2897 35.6609 56.2897 36.2402H55.3198C55.3198 35.1333 56.2622 34.1611 57.336 34.1611C58.243 34.1611 58.9416 34.8695 59.5025 35.4394C59.5898 35.529 59.6749 35.6146 59.7567 35.6934L65.0391 40.991L64.3517 41.679Z" fill="white"/>
<path d="M69.0886 47.4465C66.4269 47.4465 64.2607 45.3921 64.2607 42.8674H65.2306C65.2306 44.8579 66.9625 46.4755 69.0883 46.4755C71.1794 46.4755 72.9471 44.7748 72.9471 42.7666H73.9176C73.918 45.3053 71.7067 47.4465 69.0886 47.4465Z" fill="white"/>
<path d="M60.1062 47.4458C57.468 47.4458 55.3198 45.379 55.3198 42.8367H56.2897C56.2897 44.8409 58.001 46.4747 60.1062 46.4747C62.2111 46.4747 63.9228 44.8568 63.9228 42.8667H64.8927C64.893 45.3913 62.7452 47.4458 60.1062 47.4458Z" fill="white"/>
<path d="M65.347 41.0776H63.8906V43.9246H65.347V41.0776Z" fill="white"/>
<path d="M73.9178 36.2087H72.9473V42.8669H73.9178V36.2087Z" fill="white"/>
<path d="M64.604 47.0001C64.0377 47.0001 63.4192 46.7959 62.8154 46.2249L63.4827 45.5166C64.6487 46.6206 65.756 45.5683 65.8021 45.5246L66.4787 46.2206C66.1105 46.5794 65.4133 47.0001 64.604 47.0001Z" fill="white"/>
<path d="M64.6322 50.7918C64.0296 50.7918 63.336 50.7524 62.6132 50.6314C58.8652 50.0087 58.6315 47.0215 58.6304 46.9919L59.5999 46.9294C59.6071 47.0179 59.8065 49.1783 62.7726 49.673C64.7376 49.9982 66.5012 49.6773 66.5196 49.673C69.2784 49.0868 69.4832 47.0121 69.4897 46.9229L70.4588 46.9948C70.4559 47.0233 70.2165 49.8812 66.7097 50.6292C66.6495 50.6372 65.8102 50.7918 64.6322 50.7918Z" fill="white"/>
<path d="M76.6736 18.143L76.041 17.4051C78.1361 15.6021 78.1928 14.252 78.1928 14.2397L79.1637 14.2383C79.1637 14.3084 79.1391 16.0217 76.6736 18.143Z" fill="white"/>
<path d="M77.5633 19.5951L76.1221 18.2233L76.7915 17.5193L78.232 18.8922L77.5633 19.5951Z" fill="white"/>
<path d="M79.6954 18.1218L79.0142 17.4297L77.6139 18.8135L78.2951 19.5056L79.6954 18.1218Z" fill="white"/>
<path d="M92.2378 31.4376L78.9829 18.0935L79.6714 17.4072L92.9245 30.7496L92.2378 31.4376Z" fill="white"/>
<path d="M92.9015 31.4338L92.2144 30.7471L87.8144 35.1671L88.5015 35.8538L92.9015 31.4338Z" fill="white"/>
<path d="M89.9164 36.6222L88.5024 35.1636L87.806 35.8414L89.2199 37.3L89.9164 36.6222Z" fill="white"/>
<path d="M88.4846 38.128L86.9932 36.6304L86.3059 37.3176L87.7973 38.8152L88.4846 38.128Z" fill="white"/>
<path d="M67.6067 62.1945C67.2298 62.1945 66.8626 62.059 66.5622 61.8071C66.2448 61.5419 66.0392 61.1751 65.9844 60.7779C65.9271 60.3634 66.0389 59.9619 66.3 59.6489L66.3285 59.6179L70.175 55.7742L70.8599 56.4619L67.0336 60.2868C66.9589 60.3833 66.929 60.5112 66.9467 60.6442C66.9683 60.8047 67.0523 60.9514 67.1843 61.0609C67.3156 61.1707 67.4794 61.2235 67.6352 61.2195C67.7766 61.2127 67.8999 61.1556 67.9821 61.0562L68.0132 61.0237L82.6068 46.4045L94.6809 34.279C94.7797 34.1948 94.8382 34.0697 94.8425 33.9284C94.8493 33.7694 94.7909 33.61 94.6809 33.4781C94.5705 33.3462 94.4223 33.2631 94.2647 33.2429C94.1305 33.2255 94.0043 33.2581 93.9073 33.3329L89.9771 37.3414L89.2842 36.6601L93.2664 32.6018C93.5755 32.3409 93.9762 32.2252 94.3888 32.2794C94.7877 32.33 95.1548 32.5339 95.4228 32.8515C95.6901 33.1674 95.8278 33.5642 95.8123 33.9664C95.7968 34.3769 95.6244 34.7441 95.3243 35.0054L83.2936 47.0915L68.7136 61.6955C68.4546 61.9972 68.0885 62.1729 67.6792 62.1906C67.6536 62.1945 67.6316 62.1945 67.6067 62.1945Z" fill="white"/>
<path d="M94.0205 29.6985C93.9963 29.6985 93.9722 29.6985 93.9495 29.6956C93.539 29.6779 93.1733 29.5011 92.9136 29.2008L78.3354 14.5962L79.0214 13.9084L93.6433 28.5601C93.7277 28.6606 93.8503 28.718 93.9927 28.726C94.1529 28.7314 94.3127 28.6757 94.4443 28.5655C94.5745 28.4549 94.6593 28.3071 94.6805 28.1506C94.6993 28.0162 94.6679 27.8883 94.5936 27.7903L90.6219 23.8227L91.3083 23.135L95.3272 27.1539C95.5876 27.4665 95.6994 27.8662 95.6428 28.2826C95.588 28.6808 95.3828 29.0465 95.0643 29.3132C94.766 29.5637 94.3974 29.6985 94.0205 29.6985Z" fill="white"/>
<path d="M91.006 24.2069L67.972 1.1552L67.9583 1.13749C67.876 1.03847 67.7523 0.979926 67.608 0.97306C67.4475 0.967639 67.2903 1.02221 67.159 1.13207C67.0274 1.24193 66.9426 1.38901 66.9217 1.54657C66.9026 1.68137 66.934 1.80786 67.0093 1.90543L72.8265 7.74108L72.1391 8.42916L66.2736 2.54183C66.0128 2.23032 65.9017 1.82918 65.9591 1.41467C66.0128 1.01606 66.2195 0.649257 66.5376 0.384C66.8561 0.119105 67.2488 -0.0185798 67.6539 0.0020192C68.0632 0.0208112 68.43 0.196443 68.6886 0.497115L91.6913 23.5188L91.006 24.2069Z" fill="white"/>
<path d="M89.9727 30.7018L83.9438 24.6609L83.2571 25.3491L89.2859 31.3899L89.9727 30.7018Z" fill="white"/>
<path d="M89.9633 31.3883L89.2754 30.7002L82.1705 37.8313L82.8584 38.5194L89.9633 31.3883Z" fill="white"/>
<path d="M70.8741 53.4699L70.1885 52.7779L86.4012 36.6182L87.0857 37.3073L70.8741 53.4699Z" fill="white"/>
<path d="M88.5349 38.7834L87.8506 38.0942L71.5969 54.2975L72.2812 54.9867L88.5349 38.7834Z" fill="white"/>
<path d="M57.22 22.2613C56.8172 22.2613 56.4139 22.0997 56.1186 21.7817L53.8961 19.5982L54.5753 18.9033L56.8283 21.1153C57.0235 21.3329 57.3585 21.3491 57.5738 21.1536C57.7866 20.9603 57.8076 20.6314 57.6204 20.4153L53.2689 16.1611C52.527 15.4538 52.087 14.5092 52.0336 13.5042C51.9806 12.4876 52.3258 11.5328 53.0082 10.8151C54.4097 9.33849 56.8081 9.33848 58.354 10.8122L64.8247 17.5257L64.1283 18.2015L57.6698 11.501C56.5254 10.4118 54.743 10.3984 53.7104 11.4833C53.2148 12.008 52.9634 12.7055 53.0031 13.4518C53.0424 14.2078 53.3757 14.9201 53.9423 15.4589L58.3313 19.7525C58.8863 20.3676 58.8376 21.3191 58.2252 21.8739C57.9392 22.1337 57.58 22.2613 57.22 22.2613Z" fill="white"/>
<path d="M61.5678 20.688C61.5429 20.688 61.5159 20.688 61.4913 20.6855C61.0968 20.6663 60.7328 20.495 60.4638 20.2055L54.4634 14.2665C53.939 13.6272 54.0316 12.6797 54.6711 12.1535C55.294 11.6396 56.2122 11.7155 56.7428 12.3151L62.6761 18.1782C62.9452 18.4745 63.083 18.859 63.0624 19.2605C63.0426 19.6602 62.8684 20.0299 62.5708 20.2995C62.2938 20.5507 61.9389 20.688 61.5678 20.688ZM55.2017 13.6327L61.1743 19.5402C61.2688 19.6461 61.3983 19.7075 61.54 19.7144C61.6821 19.7198 61.8163 19.6736 61.9209 19.5785C62.0262 19.4835 62.0871 19.3527 62.0936 19.2114C62.1009 19.0755 62.0536 18.9421 61.9645 18.8388L55.949 12.8969C55.7585 12.7473 55.483 12.7433 55.2878 12.9038C55.0678 13.0848 55.0318 13.4082 55.2017 13.6327Z" fill="white"/>
<path d="M55.6506 32.5311C55.6246 32.5311 55.599 32.5311 55.5738 32.5297C55.1785 32.5091 54.8146 32.3381 54.5466 32.0479L48.0322 25.5907L48.715 24.8976L55.2571 31.3848C55.3516 31.4896 55.4825 31.5507 55.6228 31.5575C55.7628 31.5655 55.8987 31.5167 56.0037 31.4217C56.2165 31.2287 56.2352 30.8998 56.0477 30.6819L50.6788 25.3793L51.3597 24.6858L56.76 30.0238C57.3144 30.6356 57.2664 31.5875 56.6558 32.1419C56.3759 32.3949 56.0217 32.5311 55.6506 32.5311Z" fill="white"/>
<path d="M73.4117 32.531C73.0388 32.531 72.6868 32.3951 72.408 32.1418C71.7963 31.587 71.7479 30.6355 72.3027 30.0237L72.3207 30.0016L77.7015 24.6853L78.3839 25.3788L73.0142 30.6814C72.8267 30.8993 72.8462 31.2282 73.0597 31.4226C73.1639 31.5166 73.2988 31.5654 73.4391 31.5574C73.5809 31.5505 73.7111 31.4895 73.8059 31.3847L73.8236 31.3641L80.3473 24.8974L81.0301 25.5906L74.5143 32.0478C74.2492 32.3376 73.8845 32.5086 73.4889 32.5295C73.4633 32.531 73.4377 32.531 73.4117 32.531Z" fill="white"/>
<path d="M52.7827 35.5082C52.4144 35.5082 52.0635 35.3748 51.7869 35.1273L51.766 35.1085L46.1172 29.4437L46.8043 28.756L52.4411 34.4099C52.5446 34.4995 52.677 34.5415 52.8141 34.5349C52.9544 34.5266 53.0835 34.4645 53.178 34.3582C53.2717 34.2523 53.3194 34.1172 53.3111 33.9759C53.3031 33.8357 53.2407 33.7052 53.1347 33.6112L53.1116 33.591L46.8897 27.2751L47.5804 26.5928L53.7936 32.8961C54.0858 33.1613 54.2567 33.5242 54.2805 33.9199C54.3033 34.3192 54.1687 34.7055 53.9036 35.0047C53.6368 35.304 53.2692 35.4818 52.8714 35.5049C52.8404 35.5082 52.8112 35.5082 52.7827 35.5082Z" fill="white"/>
<path d="M76.3555 35.5083C76.3277 35.5083 76.2964 35.5083 76.2675 35.5054C75.8675 35.4823 75.5011 35.3041 75.2353 35.0052C74.9687 34.706 74.8349 34.32 74.858 33.9203C74.8797 33.5246 75.0542 33.1614 75.3449 32.8965L81.5578 26.5933L82.2477 27.2756L76.0028 33.6117C75.8985 33.7057 75.8365 33.8361 75.8282 33.9764C75.8203 34.1177 75.8657 34.2525 75.9613 34.3587C76.0547 34.4646 76.1828 34.5271 76.3241 34.5354C76.4583 34.5423 76.5921 34.5 76.696 34.4104L82.3347 28.7565L83.0214 29.4442L77.3513 35.1277C77.0747 35.3749 76.7241 35.5083 76.3555 35.5083Z" fill="white"/>
<path d="M67.3591 20.6879C66.9861 20.6879 66.6327 20.5506 66.3546 20.2991C66.0574 20.0295 65.8836 19.6598 65.8627 19.2601C65.8432 18.8586 65.981 18.4741 66.2482 18.1778L66.2691 18.1572L72.1852 12.3121C72.4358 12.0306 72.7788 11.8553 73.1568 11.8185C73.555 11.7791 73.9449 11.8973 74.2547 12.1531C74.5641 12.4072 74.756 12.7664 74.7953 13.1661C74.8335 13.5654 74.716 13.9561 74.4613 14.2672L74.4267 14.3023L68.4605 20.2033C68.1944 20.4942 67.8297 20.6655 67.4348 20.6847C67.4096 20.6879 67.3839 20.6879 67.3591 20.6879ZM66.9609 18.8387C66.8714 18.9421 66.8256 19.0751 66.8314 19.2113C66.8393 19.3526 66.9007 19.4831 67.0052 19.5785C67.1091 19.6735 67.2462 19.7201 67.3868 19.7144C67.5268 19.7075 67.657 19.6464 67.7522 19.5402L67.7709 19.5214L73.7252 13.6326C73.8056 13.5253 73.8421 13.3945 73.8294 13.2615C73.815 13.1198 73.7479 12.9948 73.6397 12.9037C73.5308 12.8137 73.3934 12.7718 73.252 12.7852C73.1499 12.796 73.0536 12.8343 72.9754 12.8968L66.9609 18.8387Z" fill="white"/>
<path d="M71.7054 22.2607C71.3469 22.2607 70.9869 22.1331 70.7002 21.8733C70.0871 21.3171 70.042 20.367 70.5945 19.7519L70.6173 19.7303L74.9799 15.4637C75.5508 14.9199 75.8827 14.2072 75.9231 13.4512C75.9631 12.7049 75.7117 12.0075 75.214 11.4827C74.7217 10.9634 74.0407 10.6765 73.2985 10.6765C73.2956 10.6765 73.2923 10.6765 73.2902 10.6765C72.5382 10.679 71.814 10.9743 71.2502 11.5073L64.936 18.22L64.2295 17.5536L70.5715 10.8109C71.3173 10.1001 72.2818 9.70688 73.2862 9.70435C73.2902 9.70435 73.2938 9.70435 73.2985 9.70435C74.3087 9.70435 75.2374 10.0972 75.918 10.8138C76.5993 11.5315 76.947 12.4863 76.8918 13.5029C76.8384 14.5079 76.3995 15.4529 75.6536 16.1638L71.3061 20.414C71.1186 20.6301 71.1384 20.9593 71.3516 21.1523C71.5676 21.3482 71.902 21.3316 72.0967 21.114L72.1288 21.0829L74.5265 18.8749L75.183 19.5911L72.8 21.7858C72.5072 22.1017 72.1075 22.2607 71.7054 22.2607Z" fill="white"/>
<path d="M64.8238 14.607L61.8506 11.4836L61.148 12.1551L64.1213 15.2784L64.8238 14.607Z" fill="white"/>
<path d="M67.8899 12.189L67.1982 11.5078L64.1795 14.5852L64.8712 15.2664L67.8899 12.189Z" fill="white"/>
<path d="M60.1745 24.7102H48.895V25.6834H60.1745V24.7102Z" fill="white"/>
<path d="M80.0902 24.7102H68.811V25.6834H80.0902V24.7102Z" fill="white"/>
<path d="M60.5262 30.7485L54.6348 24.8521L53.9484 25.5406L59.8398 31.4371L60.5262 30.7485Z" fill="white"/>
<path d="M60.5261 27.9306L57.582 24.8511L56.8804 25.5245L59.8245 28.604L60.5261 27.9306Z" fill="white"/>
<path d="M71.8929 22.2611C71.534 22.2611 71.1751 22.1335 70.8884 21.8737C70.5916 21.6045 70.4163 21.2359 70.3965 20.8347C70.3766 20.4336 70.5129 20.0502 70.7831 19.7524L70.8033 19.7307L75.1666 15.4642C76.3305 14.3547 76.4337 12.5709 75.4025 11.4832C74.3696 10.3968 72.5871 10.4117 71.429 11.5171L64.9857 18.2013L64.2871 17.5255L70.7441 10.8247C72.3051 9.33726 74.7039 9.33726 76.1047 10.8139C77.5063 12.2876 77.3873 14.689 75.84 16.1642L71.4932 20.4144C71.4038 20.5192 71.3587 20.6497 71.3652 20.7859C71.3724 20.9283 71.4345 21.0577 71.5387 21.1531C71.7551 21.349 72.0887 21.3324 72.2856 21.1148L72.3044 21.0946L74.538 18.9028L75.2175 19.5977L72.9929 21.7812C72.6997 22.0992 72.2968 22.2611 71.8929 22.2611Z" fill="white"/>
<path d="M67.5446 20.6879C67.1728 20.6879 66.8197 20.5506 66.5402 20.2991C65.9292 19.744 65.882 18.791 66.4356 18.1778L66.4543 18.1572L72.3725 12.3121C72.6232 12.0306 72.9662 11.8553 73.3424 11.8185C73.7424 11.7791 74.1315 11.8973 74.442 12.1531C74.7504 12.4072 74.943 12.7664 74.9823 13.1661C75.0206 13.5654 74.9023 13.9561 74.6484 14.2672L74.6134 14.3023L68.649 20.2048C68.3807 20.4942 68.0157 20.6655 67.6215 20.6847C67.5969 20.6879 67.5713 20.6879 67.5446 20.6879ZM67.1486 18.8387C66.9611 19.0563 66.9802 19.3837 67.193 19.5781C67.2976 19.6732 67.4365 19.7198 67.5731 19.714C67.7142 19.7071 67.8433 19.6461 67.9389 19.5398L67.9576 19.521L73.9115 13.6323C73.9927 13.5249 74.0291 13.3941 74.0157 13.2611C74.0038 13.1194 73.9346 12.9944 73.826 12.9033C73.7171 12.8148 73.5779 12.7714 73.439 12.7848C73.3366 12.7956 73.2425 12.834 73.1642 12.8965L67.1486 18.8387Z" fill="white"/>
<path d="M73.4639 32.5313C73.1054 32.5313 72.7455 32.4034 72.4595 32.1421C72.1623 31.8743 71.9881 31.5057 71.9671 31.1046C71.9477 30.7038 72.0855 30.3186 72.3538 30.0208L72.3729 30.0016L77.7519 24.6853L78.4336 25.3788L73.0657 30.6814C72.9756 30.7866 72.9316 30.9181 72.9373 31.0554C72.9438 31.1957 73.0052 31.3261 73.1101 31.4212C73.3261 31.617 73.6601 31.6008 73.8578 31.3832L73.8754 31.3641L80.3988 24.8974L81.0812 25.5906L74.5665 32.0478C74.2725 32.368 73.8686 32.5313 73.4639 32.5313Z" fill="white"/>
<path d="M76.3313 35.5083C76.3024 35.5083 76.2728 35.5083 76.2429 35.5054C75.844 35.4823 75.4761 35.3041 75.211 35.0052C74.9434 34.706 74.81 34.32 74.8338 33.9203C74.8561 33.5246 75.0282 33.1614 75.321 32.8965L81.5324 26.5933L82.2231 27.2756L75.9793 33.6117C75.8736 33.7057 75.8108 33.8361 75.8029 33.9764C75.795 34.1177 75.8415 34.2525 75.9363 34.3587C76.029 34.4646 76.1574 34.5271 76.2995 34.5354C76.4377 34.5437 76.5682 34.5 76.6721 34.4104L82.3097 28.7565L82.996 29.4442L77.3263 35.1277C77.0494 35.3749 76.6977 35.5083 76.3313 35.5083Z" fill="white"/>
<path d="M67.9519 12.1568L67.2485 11.4851L64.2768 14.6095L64.9802 15.2812L67.9519 12.1568Z" fill="white"/>
<path d="M80.2182 24.7102H68.9395V25.6834H80.2182V24.7102Z" fill="white"/>
<path d="M75.166 25.539L74.48 24.8511L68.5899 30.7479L69.2759 31.4358L75.166 25.539Z" fill="white"/>
<path d="M69.2889 28.6139L68.5889 27.941L71.5337 24.8599L72.2331 25.5342L69.2889 28.6139Z" fill="white"/>
<path d="M75.0757 25.5469L74.3882 24.8589L68.5032 30.7631L69.1907 31.4511L75.0757 25.5469Z" fill="white"/>
<path d="M69.1955 28.6139L68.4951 27.941L71.4389 24.8599L72.14 25.5342L69.1955 28.6139Z" fill="white"/>
<path fill-rule="evenodd" clip-rule="evenodd" d="M49.9477 76.9663C49.9477 77.1394 49.9477 77.2445 49.9477 77.3472C49.9477 80.4836 49.9477 83.6226 49.9477 86.7591C49.9452 87.6116 49.5679 87.9896 48.7077 87.9896C47.8223 87.9896 46.9383 87.9896 46.0525 87.9896C45.2799 87.9896 44.8807 87.5874 44.8807 86.8075C44.8807 82.0708 44.8807 77.3309 44.8807 72.5917C44.8807 70.8531 44.8778 69.1148 44.8807 67.3762C44.8843 66.5345 45.6457 66.0134 46.3565 66.3668C46.4914 66.4348 46.613 66.5399 46.723 66.6426C50.352 70.1079 53.9745 73.5714 57.6007 77.0342C57.6739 77.1043 57.7511 77.1715 57.8752 77.2825C57.8752 77.1209 57.8752 77.0205 57.8752 76.9182C57.8752 73.7738 57.8752 70.6269 57.8752 67.4795C57.8752 66.6429 58.2582 66.2649 59.0953 66.262C60.002 66.262 60.908 66.2595 61.8126 66.2649C62.5274 66.2649 62.9396 66.6755 62.9396 67.4015C62.9425 73.8873 62.9396 80.3734 62.9396 86.8596C62.9396 87.3373 62.7647 87.7124 62.315 87.9068C61.8512 88.1009 61.4598 87.9603 61.1049 87.6199C57.4752 84.1466 53.8425 80.6784 50.2092 77.2095C50.1421 77.1444 50.071 77.0794 49.9477 76.9663ZM48.9101 74.5403C53.2629 78.6995 57.5621 82.8048 61.8883 86.9398C61.8883 80.3535 61.8883 73.8327 61.8883 67.3144C60.8864 67.3144 59.9086 67.3144 58.8984 67.3144C58.8984 71.436 58.8984 75.5417 58.8984 79.7034C54.5563 75.5522 50.2615 71.4494 45.9281 67.309C45.9281 73.8923 45.9281 80.4103 45.9281 86.9452C46.9249 86.9452 47.9027 86.9452 48.9101 86.9452C48.9101 82.8261 48.9101 78.7179 48.9101 74.5403Z" fill="white"/>
<path fill-rule="evenodd" clip-rule="evenodd" d="M115.998 76.9554C115.998 77.1306 115.998 77.2308 115.998 77.3359C115.998 80.4803 115.998 83.6247 115.998 86.7746C115.998 87.6191 115.626 87.9892 114.783 87.9892C113.888 87.9892 112.992 87.9892 112.096 87.9892C111.353 87.9892 110.951 87.592 110.95 86.8501C110.95 80.3723 110.951 73.8973 110.946 67.4195C110.946 66.9255 111.11 66.5446 111.57 66.3451C112.031 66.1507 112.425 66.2938 112.78 66.631C116.361 70.0587 119.943 73.481 123.526 76.9069C123.637 77.0117 123.748 77.1173 123.919 77.2763C123.927 77.0985 123.938 76.9821 123.938 76.8658C123.938 73.7889 123.938 70.7117 123.938 67.6295C123.938 67.5135 123.935 67.4 123.943 67.2815C123.978 66.6602 124.383 66.266 125.008 66.2638C125.969 66.2584 126.934 66.2584 127.895 66.2638C128.593 66.2663 128.996 66.6852 128.997 67.3917C128.997 73.0979 128.997 78.801 128.997 84.5047C128.997 85.2763 128.987 86.0507 129 86.8226C129.008 87.312 128.841 87.7001 128.381 87.8999C127.908 88.1077 127.51 87.9512 127.15 87.6054C124.826 85.3764 122.495 83.1549 120.167 80.9277C118.886 79.7026 117.603 78.4775 116.32 77.2517C116.231 77.1657 116.141 77.0876 115.998 76.9554ZM114.969 74.5374C119.327 78.6994 123.617 82.799 127.946 86.9343C127.946 80.3455 127.946 73.8326 127.946 67.3118C126.95 67.3118 125.972 67.3118 124.953 67.3118C124.953 71.4305 124.953 75.5304 124.953 79.6976C120.611 75.5467 116.324 71.4493 111.993 67.314C111.993 73.9053 111.993 80.4153 111.993 86.9394C112.989 86.9394 113.965 86.9394 114.969 86.9394C114.969 82.8235 114.969 78.7262 114.969 74.5374Z" fill="white"/>
<path fill-rule="evenodd" clip-rule="evenodd" d="M34.852 71.1464C34.852 72.1399 34.852 73.0842 34.852 74.0773C34.9699 74.0773 35.0806 74.0773 35.1906 74.0773C37.2811 74.0773 39.3719 74.0747 41.4616 74.0773C42.2868 74.0773 42.6658 74.4582 42.6658 75.2785C42.6676 76.1155 42.6676 76.955 42.6658 77.7941C42.6658 78.5606 42.2749 78.9603 41.516 78.9603C39.4065 78.9603 37.2973 78.9603 35.1877 78.9603C35.0832 78.9603 34.9804 78.9603 34.8577 78.9603C34.8577 80.3448 34.8577 81.7025 34.8577 83.1007C34.9768 83.1007 35.0886 83.1007 35.2011 83.1007C37.271 83.1007 39.343 83.1195 41.4132 83.0928C42.2633 83.0794 42.7145 83.5925 42.6752 84.3724C42.6362 85.209 42.6698 86.0511 42.6658 86.8877C42.6629 87.5682 42.2428 87.9892 41.5672 87.9892C38.0006 87.9892 34.4365 87.9892 30.8727 87.9892C30.2131 87.9892 29.777 87.5653 29.777 86.9093C29.7748 80.386 29.7748 73.8619 29.777 67.3356C29.777 66.6909 30.2058 66.2641 30.8514 66.2641C34.434 66.2612 38.0179 66.2612 41.6026 66.2641C42.2485 66.2641 42.6633 66.6909 42.6662 67.3407C42.6716 68.2366 42.6705 69.1357 42.6662 70.0348C42.6651 70.7334 42.2594 71.1439 41.5514 71.1439C39.4418 71.1493 37.3326 71.1464 35.222 71.1464C35.1073 71.1464 34.9941 71.1464 34.852 71.1464ZM30.8298 67.3085C30.8298 73.8724 30.8298 80.4044 30.8298 86.939C34.4365 86.939 38.0251 86.939 41.6156 86.939C41.6156 85.9972 41.6156 85.0735 41.6156 84.1209C39.009 84.1209 36.4248 84.1209 33.8273 84.1209C33.8273 82.0455 33.8273 80.0047 33.8273 77.9293C36.4302 77.9293 39.0162 77.9293 41.6181 77.9293C41.6181 76.9763 41.6181 76.0559 41.6181 75.1032C39.0115 75.1032 36.4252 75.1032 33.8251 75.1032C33.8251 73.4326 33.8251 71.7948 33.8251 70.1125C36.4281 70.1125 39.0216 70.1125 41.613 70.1125C41.613 69.1487 41.613 68.2286 41.613 67.3082C38.0071 67.3085 34.4253 67.3085 30.8298 67.3085Z" fill="white"/>
<path fill-rule="evenodd" clip-rule="evenodd" d="M5.07874 71.1474C5.07874 72.1434 5.07874 73.0935 5.07874 74.0783C5.20822 74.0783 5.32219 74.0783 5.43435 74.0783C7.51541 74.0783 9.5961 74.0757 11.6771 74.0783C12.5153 74.0783 12.8897 74.4591 12.8897 75.2986C12.8897 76.149 12.8926 76.999 12.8897 77.8468C12.889 78.5482 12.4764 78.9584 11.7734 78.9613C9.6639 78.9613 7.55472 78.9613 5.44518 78.9613C5.33085 78.9613 5.21795 78.9613 5.07765 78.9613C5.07008 79.0885 5.0589 79.1911 5.0589 79.2934C5.0589 80.4516 5.06611 81.6092 5.05313 82.767C5.0488 83.029 5.11769 83.1093 5.38675 83.1067C7.46816 83.0988 9.54921 83.1013 11.6303 83.1038C12.5283 83.1038 12.8893 83.4685 12.8893 84.3647C12.8893 85.2039 12.8922 86.0434 12.8893 86.8857C12.8886 87.5633 12.4659 87.9898 11.7918 87.9898C8.22736 87.9898 4.66253 87.9898 1.09913 87.9898C0.424324 87.9898 0.000541001 87.5633 0.000541001 86.8883C-0.000180334 80.3808 -0.000180334 73.8784 0.000541001 67.3709C0.000541001 66.6858 0.413865 66.2644 1.09372 66.2644C4.6582 66.2615 8.22195 66.2615 11.7864 66.2644C12.4829 66.2644 12.8893 66.6858 12.8893 67.3894C12.8922 68.2701 12.8922 69.1464 12.8893 70.0242C12.8886 70.7282 12.4854 71.1445 11.7785 71.1445C9.66895 71.1499 7.56049 71.147 5.45131 71.147C5.33734 71.1474 5.223 71.1474 5.07874 71.1474ZM11.8434 75.0992C9.23254 75.0992 6.64584 75.0992 4.04939 75.0992C4.04939 73.4285 4.04939 71.7932 4.04939 70.1218C6.65125 70.1218 9.23795 70.1218 11.8416 70.1218C11.8416 69.1696 11.8416 68.2462 11.8416 67.3099C8.23854 67.3099 4.65135 67.3099 1.05585 67.3099C1.05585 73.8658 1.05585 80.4007 1.05585 86.9378C4.66505 86.9378 8.25189 86.9378 11.8355 86.9378C11.8355 85.9928 11.8355 85.0694 11.8355 84.1168C9.22966 84.1168 6.64403 84.1168 4.05372 84.1168C4.05372 82.0443 4.05372 80.0006 4.05372 77.9277C6.65774 77.9277 9.24444 77.9277 11.8438 77.9277C11.8434 76.9802 11.8434 76.068 11.8434 75.0992Z" fill="white"/>
<path fill-rule="evenodd" clip-rule="evenodd" d="M106.4 87.9897C105.898 87.9897 105.398 87.9817 104.898 87.9922C104.36 88.003 104.007 87.7577 103.798 87.2691C103.259 86.0114 102.71 84.7564 102.177 83.5009C102.092 83.3011 101.988 83.2367 101.773 83.2367C99.6044 83.2447 97.4386 83.2447 95.2713 83.2367C95.0632 83.2367 94.9702 83.3065 94.8879 83.4901C94.3357 84.7321 93.7619 85.963 93.2173 87.204C92.9807 87.7522 92.6114 88.0085 92.0109 87.9947C91.0382 87.973 90.0654 87.9893 89.0924 87.9893C88.1413 87.9893 87.6818 87.2716 88.0803 86.3967C90.2988 81.5436 92.5209 76.6935 94.7422 71.8408C95.4841 70.2189 96.2285 68.6017 96.9643 66.9769C97.1839 66.4941 97.5298 66.2455 98.069 66.2617C98.482 66.2751 98.8978 66.278 99.3104 66.2672C99.8951 66.2484 100.259 66.5158 100.49 67.0499C102.103 70.7722 103.726 74.489 105.345 78.2052C106.532 80.934 107.722 83.6653 108.91 86.3916C109.301 87.2933 108.85 87.9897 107.874 87.9897C107.383 87.9897 106.891 87.9897 106.4 87.9897ZM108.014 86.9557C107.975 86.8473 107.948 86.7671 107.915 86.6937C105.133 80.3048 102.352 73.9188 99.5752 67.5327C99.5048 67.3737 99.4295 67.2928 99.2408 67.3007C98.9036 67.3141 98.5642 67.3116 98.2288 67.2928C98.0286 67.2823 97.9251 67.3466 97.8375 67.5385C94.9225 73.9274 91.9983 80.3135 89.0772 86.6966C89.0429 86.7725 89.0191 86.8531 88.9805 86.9561C89.985 86.9561 90.9584 86.9507 91.9301 86.9641C92.1411 86.9666 92.2287 86.8882 92.3091 86.7046C92.9428 85.2905 93.5892 83.8811 94.2192 82.4619C94.3087 82.2646 94.4151 82.2003 94.6286 82.2028C97.2214 82.2108 99.8121 82.2108 102.404 82.2003C102.651 82.2003 102.77 82.27 102.869 82.502C103.464 83.914 104.078 85.3172 104.694 86.718C104.737 86.8155 104.848 86.9453 104.93 86.9478C105.95 86.9641 106.968 86.9557 108.014 86.9557Z" fill="white"/>
<path fill-rule="evenodd" clip-rule="evenodd" d="M71.9852 77.1312C71.9852 73.9192 71.9852 70.7018 71.9852 67.4902C71.9852 66.629 72.3502 66.2618 73.2151 66.2618C74.8135 66.2647 76.4124 66.2484 78.0116 66.2752C79.9628 66.3106 81.8736 66.5856 83.6272 67.5061C86.5652 69.0477 88.309 71.5113 88.9766 74.7312C89.5345 77.4116 89.2705 80.0299 87.9335 82.4483C86.2914 85.417 83.7271 87.1582 80.4057 87.7411C79.425 87.9138 78.4152 87.9514 77.4186 87.9811C75.9825 88.0187 74.547 87.989 73.1115 87.989C72.3902 87.989 71.9852 87.5868 71.9852 86.8608C71.9834 83.617 71.9852 80.3753 71.9852 77.1312ZM73.0268 86.9558C74.4096 86.9558 75.7592 86.9775 77.1063 86.9479C78.0869 86.924 79.0763 86.9153 80.0425 86.7592C83.2481 86.2432 85.6869 84.5783 87.1808 81.6604C88.248 79.5763 88.4399 77.3365 87.9966 75.0637C87.4239 72.1275 85.8651 69.8681 83.1987 68.4431C81.6604 67.6224 79.9783 67.3554 78.2604 67.3178C76.5945 67.2802 74.9275 67.299 73.2623 67.2961C73.1873 67.2932 73.1151 67.3095 73.0275 67.3149C73.0268 73.8625 73.0268 80.3941 73.0268 86.9558Z" fill="white"/>
<path fill-rule="evenodd" clip-rule="evenodd" d="M20.1033 83.1007C20.2598 83.1007 20.3742 83.1007 20.4867 83.1007C22.4826 83.1007 24.476 83.1007 26.4702 83.1032C27.3495 83.1032 27.7134 83.4679 27.7152 84.3504C27.7152 85.1711 27.7163 85.9914 27.7134 86.8121C27.7134 87.5978 27.3246 87.9892 26.547 87.9892C23.0972 87.9892 19.6478 87.9892 16.2001 87.9892C15.4445 87.9892 15.037 87.5844 15.037 86.8284C15.0352 80.3611 15.0352 73.8944 15.037 67.4271C15.037 66.6685 15.4384 66.2638 16.1926 66.2609C17.0881 66.2584 17.9851 66.2609 18.8803 66.2609C19.7177 66.2638 20.1015 66.6418 20.1015 67.4784C20.1033 72.5468 20.1033 77.6131 20.1033 82.6848C20.1033 82.8069 20.1033 82.9309 20.1033 83.1007ZM16.0901 67.3085C16.0901 73.8724 16.0901 80.4044 16.0901 86.9365C19.6279 86.9365 23.1473 86.9365 26.6923 86.9365C26.6923 86.0912 26.6819 85.273 26.7003 84.4555C26.7057 84.186 26.6231 84.1184 26.3605 84.1209C24.0476 84.1289 21.736 84.1267 19.4249 84.1267C19.312 84.1267 19.2023 84.1267 19.0646 84.1267C19.0646 78.4938 19.0646 72.9093 19.0646 67.3085C18.0601 67.3085 17.0813 67.3085 16.0901 67.3085Z" fill="white"/>
<path fill-rule="evenodd" clip-rule="evenodd" d="M98.6101 72.2107C99.5944 74.6262 100.551 76.9795 101.52 79.3629C99.5295 79.3629 97.5775 79.3629 95.5845 79.3629C96.5922 76.9828 97.5883 74.6262 98.6101 72.2107ZM97.1389 78.338C98.1063 78.338 99.0303 78.338 99.9918 78.338C99.5255 77.196 99.0729 76.084 98.5914 74.9045C98.09 76.0894 97.6215 77.1931 97.1389 78.338Z" fill="white"/>
<path fill-rule="evenodd" clip-rule="evenodd" d="M76.0244 84.0963C76.0244 79.4489 76.0244 74.8007 76.0244 70.1175C76.3945 70.1175 76.7494 70.1201 77.1032 70.1175C78.2807 70.1146 79.4504 70.1772 80.589 70.5223C83.0722 71.2808 84.4882 73.0299 85.0148 75.5051C85.5294 77.9209 85.0281 80.1257 83.3449 81.9908C82.2885 83.157 80.936 83.7913 79.4042 83.972C78.3291 84.1042 77.2355 84.0796 76.147 84.123C76.1121 84.1234 76.0745 84.1071 76.0244 84.0963ZM77.0451 83.1274C77.7192 83.0869 78.3637 83.0757 79.0028 83.0006C80.2792 82.8437 81.4593 82.4281 82.3898 81.4885C84.0395 79.8178 84.485 77.8017 83.9779 75.564C83.6035 73.9175 82.7231 72.6111 81.1632 71.8475C80.3113 71.4319 79.3985 71.2483 78.4582 71.1945C77.9918 71.167 77.5233 71.1883 77.0451 71.1883C77.0451 75.144 77.0451 79.1005 77.0451 83.1274Z" fill="white"/>
</svg>
