<svg width="151" height="149" viewBox="0 0 151 149" fill="none" xmlns="http://www.w3.org/2000/svg">
<path d="M73.6514 141.538C73.6514 142.259 74.2349 142.835 74.9526 142.835C75.6677 142.835 76.2504 142.258 76.2504 141.538C76.2504 140.823 75.6677 140.236 74.9526 140.236C74.234 140.236 73.6514 140.772 73.6514 141.538Z" fill="black"/>
<path d="M76.4152 141.537C76.4152 142.259 75.8326 142.834 75.114 142.834C74.3989 142.834 73.8145 142.258 73.8145 141.537C73.8145 140.822 74.3989 140.235 75.114 140.235C75.8326 140.235 76.4152 140.772 76.4152 141.537Z" fill="black"/>
<path d="M73.6514 134.212C73.6514 134.932 74.2349 135.518 74.9526 135.518C75.6677 135.518 76.2504 134.932 76.2504 134.212C76.2504 133.499 75.6677 132.918 74.9526 132.918C74.234 132.918 73.6514 133.453 73.6514 134.212Z" fill="black"/>
<path d="M59.394 127.459C59.394 128.173 59.9741 128.756 60.6944 128.756C61.4087 128.756 61.9896 128.173 61.9896 127.459C61.9896 126.74 61.4087 126.157 60.6944 126.157C59.9741 126.156 59.394 126.697 59.394 127.459Z" fill="black"/>
<path d="M56.0894 130.817C56.0894 131.53 56.6729 132.117 57.3889 132.117C58.1083 132.117 58.6901 131.53 58.6901 130.817C58.6901 130.097 58.1083 129.515 57.3889 129.515C56.6729 129.515 56.0894 130.052 56.0894 130.817Z" fill="black"/>
<path d="M63.0439 131.218C63.0439 131.935 63.6283 132.518 64.3435 132.518C65.0621 132.518 65.6439 131.935 65.6439 131.218C65.6439 130.497 65.0621 129.922 64.3435 129.922C63.6275 129.922 63.0439 130.452 63.0439 131.218Z" fill="black"/>
<path d="M59.6934 134.55C59.6934 135.267 60.2778 135.847 60.9938 135.847C61.7106 135.847 62.2933 135.267 62.2933 134.55C62.2933 133.834 61.7106 133.252 60.9938 133.252C60.2769 133.251 59.6934 133.785 59.6934 134.55Z" fill="black"/>
<path d="M84.3315 131.15C84.3315 131.863 84.9133 132.443 85.6328 132.443C86.3488 132.443 86.9306 131.864 86.9306 131.15C86.9306 130.427 86.3488 129.846 85.6328 129.846C84.9133 129.846 84.3315 130.384 84.3315 131.15Z" fill="black"/>
<path d="M87.7783 134.638C87.7783 135.359 88.361 135.94 89.0787 135.94C89.7982 135.94 90.3774 135.358 90.3774 134.638C90.3774 133.925 89.7982 133.338 89.0787 133.338C88.361 133.338 87.7783 133.876 87.7783 134.638Z" fill="black"/>
<path d="M61.7361 128.244L60.0757 126.605L56.6403 130.088L58.3007 131.726L61.7361 128.244Z" fill="black"/>
<path d="M61.5412 135.449L59.9014 133.794L63.5212 130.193L65.1644 131.847L61.5412 135.449Z" fill="black"/>
<path d="M73.8673 142.235L63.7222 132.042L65.3706 130.393L75.5218 140.59L73.8673 142.235Z" fill="black"/>
<path d="M141.134 74.488C141.134 75.133 141.656 75.6603 142.305 75.6603C142.951 75.6603 143.472 75.133 143.472 74.488C143.472 73.843 142.951 73.3184 142.305 73.3184C141.655 73.3184 141.134 73.8006 141.134 74.488Z" fill="black"/>
<path d="M134.05 74.3773C134.05 75.0249 134.573 75.5496 135.218 75.5496C135.864 75.5496 136.389 75.0258 136.389 74.3773C136.389 73.7315 135.865 73.2051 135.218 73.2051C134.573 73.2051 134.05 73.6934 134.05 74.3773Z" fill="black"/>
<path d="M134.05 88.6442C134.05 89.2857 134.573 89.8164 135.218 89.8164C135.864 89.8164 136.389 89.2857 136.389 88.6442C136.389 87.9957 135.865 87.4719 135.218 87.4719C134.573 87.4711 134.05 87.9533 134.05 88.6442Z" fill="black"/>
<path d="M76.4118 134.212C76.4118 134.932 75.8292 135.518 75.1106 135.518C74.3954 135.518 73.811 134.932 73.811 134.212C73.811 133.499 74.3954 132.918 75.1106 132.918C75.8292 132.918 76.4118 133.453 76.4118 134.212Z" fill="black"/>
<path d="M90.6716 127.459C90.6716 128.173 90.0898 128.756 89.3712 128.756C88.6526 128.756 88.0708 128.173 88.0708 127.459C88.0708 126.74 88.6526 126.157 89.3712 126.157C90.0898 126.157 90.6716 126.697 90.6716 127.459Z" fill="black"/>
<path d="M93.9703 130.817C93.9703 131.53 93.3928 132.117 92.6725 132.117C91.9539 132.117 91.3721 131.53 91.3721 130.817C91.3721 130.097 91.9539 129.515 92.6725 129.515C93.3928 129.515 93.9703 130.052 93.9703 130.817Z" fill="black"/>
<path d="M87.0184 131.218C87.0184 131.935 86.4357 132.518 85.7162 132.518C84.9977 132.518 84.4185 131.935 84.4185 131.218C84.4185 130.497 84.9977 129.922 85.7162 129.922C86.4357 129.922 87.0184 130.452 87.0184 131.218Z" fill="black"/>
<path d="M90.3681 134.55C90.3681 135.267 89.7846 135.847 89.0668 135.847C88.3474 135.847 87.769 135.267 87.769 134.55C87.769 133.834 88.3474 133.252 89.0668 133.252C89.7846 133.251 90.3681 133.785 90.3681 134.55Z" fill="black"/>
<path d="M93.4044 130.085L89.9653 126.604L88.3098 128.24L91.7488 131.721L93.4044 130.085Z" fill="black"/>
<path d="M90.1363 133.789L86.5146 130.187L84.8692 131.841L88.4908 135.443L90.1363 133.789Z" fill="black"/>
<path d="M76.1925 142.235L74.5415 140.59L84.6884 130.393L86.3403 132.042L76.1925 142.235Z" fill="black"/>
<path d="M76.1179 7.32778C76.1179 7.97624 75.5985 8.50004 74.9517 8.50004C74.3093 8.50004 73.7847 7.97624 73.7847 7.32778C73.7847 6.68624 74.3085 6.16504 74.9517 6.16504C75.5993 6.16504 76.1179 6.68624 76.1179 7.32778Z" fill="black"/>
<path d="M76.0594 35.8299C76.0594 36.4913 75.5261 37.022 74.8681 37.022C74.2067 37.022 73.6733 36.4913 73.6733 35.8299C73.6733 35.1719 74.2067 34.6377 74.8681 34.6377C75.5261 34.6377 76.0594 35.1719 76.0594 35.8299Z" fill="black"/>
<path d="M111.232 49.4906C111.232 50.1226 110.718 50.63 110.089 50.63C109.459 50.63 108.946 50.1226 108.946 49.4906C108.946 48.8595 109.459 48.3469 110.089 48.3469C110.718 48.3469 111.232 48.8196 111.232 49.4906Z" fill="black"/>
<path d="M40.9678 49.5107C40.9678 50.1592 40.4423 50.683 39.7955 50.683C39.1505 50.683 38.625 50.1583 38.625 49.5107C38.625 48.8657 39.1497 48.3411 39.7955 48.3411C40.4414 48.3411 40.9678 48.8233 40.9678 49.5107Z" fill="black"/>
<path d="M42.3026 34.1095C42.3026 34.7545 41.7788 35.2818 41.1286 35.2818C40.4845 35.2818 39.959 34.7545 39.959 34.1095C39.959 33.4645 40.4836 32.9373 41.1286 32.9373C41.778 32.9373 42.3026 33.4221 42.3026 34.1095Z" fill="black"/>
<path d="M47.8707 42.578C47.8707 43.2299 47.3469 43.7502 46.7011 43.7502C46.0552 43.7502 45.5288 43.229 45.5288 42.578C45.5288 41.933 46.0543 41.4092 46.7011 41.4092C47.3469 41.4092 47.8707 41.888 47.8707 42.578Z" fill="black"/>
<path d="M44.1789 46.1027C44.1789 46.7511 43.6525 47.2749 43.0058 47.2749C42.359 47.2749 41.8335 46.7511 41.8335 46.1027C41.8335 45.4542 42.3582 44.9304 43.0058 44.9304C43.6534 44.9304 44.1789 45.4118 44.1789 46.1027Z" fill="black"/>
<path d="M40.6793 42.578C40.6793 43.2299 40.1564 43.7502 39.5097 43.7502C38.8629 43.7502 38.3374 43.229 38.3374 42.578C38.3374 41.933 38.8629 41.4092 39.5097 41.4092C40.1555 41.4092 40.6793 41.888 40.6793 42.578Z" fill="black"/>
<path d="M8.92969 74.488C8.92969 75.133 8.40677 75.6603 7.75918 75.6603C7.11158 75.6603 6.58691 75.133 6.58691 74.488C6.58691 73.843 7.11244 73.3184 7.75918 73.3184C8.40591 73.3184 8.92969 73.8006 8.92969 74.488Z" fill="black"/>
<path d="M19.5441 85.0749C19.5441 85.719 19.0185 86.2445 18.3727 86.2445C17.7259 86.2445 17.2021 85.7199 17.2021 85.0749C17.2021 84.4264 17.7251 83.9026 18.3727 83.9026C19.0185 83.9017 19.5441 84.384 19.5441 85.0749Z" fill="black"/>
<path d="M23.0399 88.6442C23.0399 89.2857 22.5161 89.8164 21.8686 89.8164C21.221 89.8164 20.6963 89.2857 20.6963 88.6442C20.6963 87.9957 21.2218 87.4719 21.8686 87.4719C22.5153 87.4719 23.0399 87.9533 23.0399 88.6442Z" fill="black"/>
<path d="M19.5441 92.1894C19.5441 92.8344 19.0185 93.359 18.3727 93.359C17.7259 93.359 17.2021 92.8344 17.2021 92.1894C17.2021 91.5444 17.7251 91.0171 18.3727 91.0171C19.0185 91.0162 19.5441 91.5045 19.5441 92.1894Z" fill="black"/>
<path d="M16.0119 74.3773C16.0119 75.0249 15.4873 75.5496 14.8397 75.5496C14.1955 75.5496 13.6709 75.0258 13.6709 74.3773C13.6709 73.7315 14.1947 73.2051 14.8397 73.2051C15.4873 73.2051 16.0119 73.6934 16.0119 74.3773Z" fill="black"/>
<path d="M16.0119 88.6442C16.0119 89.2857 15.4873 89.8164 14.8397 89.8164C14.1955 89.8164 13.6709 89.2857 13.6709 88.6442C13.6709 87.9957 14.1947 87.4719 14.8397 87.4719C15.4873 87.4711 16.0119 87.9533 16.0119 88.6442Z" fill="black"/>
<path d="M76.1734 42.8526C76.1734 43.5297 75.6271 44.0768 74.9492 44.0768C74.2764 44.0768 73.7275 43.5297 73.7275 42.8526C73.7275 42.1747 74.2764 41.6267 74.9492 41.6267C75.6271 41.6267 76.1734 42.1747 76.1734 42.8526Z" fill="black"/>
<path d="M65.4127 17.9265C65.4127 18.568 64.8906 19.0918 64.2482 19.0918C63.6024 19.0918 63.082 18.568 63.082 17.9265C63.082 17.2815 63.6024 16.7568 64.2482 16.7568C64.8906 16.7568 65.4127 17.2815 65.4127 17.9265Z" fill="black"/>
<path d="M86.8224 17.9265C86.8224 18.568 86.2986 19.0918 85.6553 19.0918C85.0112 19.0918 84.4883 18.568 84.4883 17.9265C84.4883 17.2815 85.0112 16.7568 85.6553 16.7568C86.2986 16.7568 86.8224 17.2815 86.8224 17.9265Z" fill="black"/>
<path d="M73.6733 14.3339C73.6733 14.9754 74.1963 15.5001 74.8369 15.5001C75.4854 15.5001 76.0057 14.9763 76.0057 14.3339C76.0057 13.6889 75.4854 13.1711 74.8369 13.1711C74.1954 13.1703 73.6733 13.6889 73.6733 14.3339Z" fill="black"/>
<path d="M75.789 8.15618L74.1479 6.49878L63.4431 17.0981L65.0842 18.7555L75.789 8.15618Z" fill="black"/>
<path d="M86.4663 17.0993L75.7612 6.50269L74.1222 8.15848L84.8273 18.7551L86.4663 17.0993Z" fill="black"/>
<path d="M92.5117 19.3706C92.5117 20.0156 93.0312 20.5402 93.6753 20.5402C94.3194 20.5402 94.8424 20.0156 94.8424 19.3706C94.8424 18.729 94.3194 18.2043 93.6753 18.2043C93.0312 18.2043 92.5117 18.729 92.5117 19.3706Z" fill="black"/>
<path d="M84.2443 24.7023C84.3326 25.4382 84.7906 25.9265 85.4668 25.9265C86.1403 25.9265 86.5879 25.3802 86.6858 24.7023C86.7896 24.0314 86.1403 23.4807 85.4668 23.4807C84.7906 23.4807 84.1672 24.0305 84.2443 24.7023Z" fill="black"/>
<path d="M86.409 25.4353L84.6367 23.9141C88.9942 18.8398 93.4174 18.2277 93.6053 18.2043L93.8996 20.5134L93.7524 19.3602L93.904 20.5134C93.8685 20.5194 90.1404 21.0865 86.409 25.4353Z" fill="black"/>
<path d="M86.3324 24.0138L75.645 13.5122L74.0102 15.1759L84.6977 25.6775L86.3324 24.0138Z" fill="black"/>
<path d="M57.1681 19.3706C57.1681 20.0156 56.6521 20.5402 56.0036 20.5402C55.3577 20.5402 54.8374 20.0156 54.8374 19.3706C54.8374 18.729 55.3577 18.2043 56.0036 18.2043C56.6521 18.2035 57.1681 18.729 57.1681 19.3706Z" fill="black"/>
<path d="M65.4344 24.7023C65.3479 25.4382 64.8881 25.9265 64.2111 25.9265C63.5349 25.9265 63.0908 25.3802 62.9904 24.7023C62.8899 24.0314 63.5349 23.4807 64.2111 23.4807C64.8881 23.4807 65.5124 24.0305 65.4344 24.7023Z" fill="black"/>
<path d="M63.2717 25.4353C59.5385 21.0865 55.813 20.5194 55.7715 20.5134L56.0745 18.2043C56.2607 18.2277 60.6848 18.8398 65.0413 23.9141L63.2717 25.4353Z" fill="black"/>
<path d="M75.6585 15.1697L74.0244 13.509L63.3482 24.0145L64.9823 25.6752L75.6585 15.1697Z" fill="black"/>
<path d="M111.695 59.3987L81.8822 30.2135L81.8181 30.1226C80.2338 27.8257 78.162 25.4742 74.8201 25.4154C71.9899 25.3703 70.5838 26.9755 68.0454 29.8914L67.8385 30.1286L38.6723 59.3892L37.0195 57.7442L66.158 28.5096L66.2888 28.3633C68.9467 25.308 70.8799 23.0864 74.6919 23.0864C74.7465 23.0864 74.8036 23.0864 74.8582 23.0864C79.2338 23.1609 81.8657 26.1097 83.67 28.7053L113.329 57.7347L111.695 59.3987Z" fill="black"/>
<path d="M54.3431 108.312L48.0039 102.096L47.0109 101.181C39.8951 94.6306 30.1447 85.6603 29.9101 76.4874C29.6564 66.5267 32.9567 61.5095 39.5461 55.2231L41.1547 56.9105C34.929 62.8523 32.0044 67.2886 32.239 76.4286C32.4459 84.617 41.779 93.2012 48.5892 99.4676L49.6099 100.409L55.9742 106.644L54.3431 108.312Z" fill="black"/>
<path d="M94.959 109.139L93.3564 107.446L101.779 99.4677C108.591 93.2012 117.92 84.6179 118.131 76.4286C118.365 67.2886 115.44 62.8523 109.211 56.9105L110.821 55.2231C117.415 61.5095 120.715 66.5267 120.458 76.4874C120.225 85.6603 110.475 94.6314 103.357 101.181L102.338 102.122L94.959 109.139Z" fill="black"/>
<path d="M75.77 135.224L74.1328 133.57L107.353 100.752C114.927 93.7581 123.615 84.69 123.831 76.3509C124.062 67.2429 122.099 62.373 115.76 56.3307L109.349 50.4158L110.93 48.7024L117.357 54.6303C124.191 61.1453 126.411 66.6438 126.161 76.4132C125.926 85.5696 117.335 94.7061 108.965 102.433L75.77 135.224Z" fill="black"/>
<path d="M73.8306 56.6669C73.8306 57.3154 74.3535 57.8357 74.9959 57.8357C75.6426 57.8357 76.1638 57.3145 76.1638 56.6669C76.1638 56.0245 75.6426 55.5007 74.9959 55.5007C74.3535 55.5007 73.8306 55.983 73.8306 56.6669Z" fill="black"/>
<path d="M63.3047 60.3633C63.3047 61.0083 63.8467 61.5295 64.5133 61.5295C65.1748 61.5295 65.7133 61.0083 65.7133 60.3633C65.7133 59.7183 65.1748 59.198 64.5133 59.198C63.8467 59.198 63.3047 59.6794 63.3047 60.3633Z" fill="black"/>
<path d="M73.8271 85.068C73.8271 85.713 74.3501 86.2343 74.9942 86.2343C75.6392 86.2343 76.1578 85.7122 76.1578 85.068C76.1578 84.4239 75.6392 83.9019 74.9942 83.9019C74.3492 83.9019 73.8271 84.3841 73.8271 85.068Z" fill="black"/>
<path d="M73.7856 92.1815C73.7856 92.8265 74.3094 93.3477 74.9527 93.3477C75.596 93.3477 76.1163 92.8257 76.1163 92.1815C76.1163 91.5374 75.5951 91.0188 74.9527 91.0188C74.3103 91.0188 73.7856 91.4976 73.7856 92.1815Z" fill="black"/>
<path d="M74.1331 135.224L40.8865 102.413C32.5439 94.7061 23.9519 85.5688 23.7216 76.4132C23.4697 66.6447 25.6869 61.1462 32.5075 54.6433L38.9506 48.7024L40.5298 50.4158L34.0997 56.3437C27.7735 62.3729 25.8151 67.2395 26.0488 76.3509C26.261 84.6891 34.9473 93.7581 42.4959 100.722L75.7694 133.566L74.1331 135.224Z" fill="black"/>
<path d="M76.1606 56.6675H73.8325V85.0683H76.1606V56.6675Z" fill="black"/>
<path d="M65.7078 60.29H63.3789V88.6909H65.7078V60.29Z" fill="black"/>
<path d="M86.4451 60.3633C86.4451 61.0083 85.9066 61.5295 85.2434 61.5295C84.5759 61.5295 84.0391 61.0083 84.0391 60.3633C84.0391 59.7183 84.5759 59.198 85.2434 59.198C85.9066 59.198 86.4451 59.6794 86.4451 60.3633Z" fill="black"/>
<path d="M86.3743 60.29H84.0454V88.6909H86.3743V60.29Z" fill="black"/>
<path d="M75.3598 91.0882L64.8052 87.313L64.0199 89.5084L74.5745 93.2836L75.3598 91.0882Z" fill="black"/>
<path d="M85.8307 89.5279L85.0459 87.3323L74.4894 91.1056L75.2742 93.3012L85.8307 89.5279Z" fill="black"/>
<path d="M74.2385 99.8498L61.5783 87.1714C61.3818 86.9827 61.1645 86.7636 60.9411 86.5394C59.8459 85.4252 58.6018 84.1715 57.3992 84.1715C56.0876 84.1715 54.8919 85.4321 54.8919 86.8199H52.563C52.563 84.168 54.8244 81.8391 57.4001 81.8391C59.5758 81.8391 61.2571 83.536 62.6034 84.9014C62.8111 85.1161 63.0163 85.3212 63.2137 85.51L75.8921 98.2014L74.2385 99.8498Z" fill="black"/>
<path d="M75.5242 99.8498L73.874 98.2014L86.542 85.5239C86.7524 85.3221 86.9541 85.1161 87.1654 84.9048C88.5125 83.536 90.1878 81.8391 92.3643 81.8391C94.9409 81.8391 97.2066 84.1672 97.2066 86.8199H94.876C94.876 85.4321 93.6803 84.1715 92.3652 84.1715C91.1618 84.1715 89.9211 85.4295 88.8242 86.5394C88.5974 86.7636 88.3844 86.9827 88.1775 87.1844L75.5242 99.8498Z" fill="black"/>
<path d="M64.1504 113.667C57.8675 113.667 52.562 108.537 52.562 102.455H54.8892C54.8892 107.266 59.1324 111.341 64.1495 111.341C69.255 111.341 73.4072 107.464 73.4072 102.697H75.7396C75.7414 108.745 70.5407 113.667 64.1504 113.667Z" fill="black"/>
<path d="M85.7128 113.667C79.3754 113.667 74.2231 108.745 74.2231 102.697H76.5503C76.5503 107.466 80.6593 111.341 85.7137 111.341C90.7664 111.341 94.8753 107.427 94.8753 102.625H97.206C97.206 108.716 92.0503 113.667 85.7128 113.667Z" fill="black"/>
<path d="M76.6297 98.4102H73.1328V105.231H76.6297V98.4102Z" fill="black"/>
<path d="M54.8909 86.7456H52.562V102.697H54.8909V86.7456Z" fill="black"/>
<path d="M97.2047 86.7456H94.874V102.697H97.2047V86.7456Z" fill="black"/>
<path d="M74.9173 112.6C72.9745 112.6 71.3009 111.592 70.417 110.732L72.0386 109.065L71.2273 109.895L72.0334 109.058C72.3191 109.325 74.8878 111.615 77.6072 109.045L79.2072 110.742C77.7622 112.11 76.2731 112.6 74.9173 112.6Z" fill="black"/>
<path d="M74.8448 121.683C72.0241 121.683 70.019 121.318 69.8934 121.295C61.4443 119.5 60.8686 112.654 60.8643 112.585L63.188 112.425L62.0279 112.503L63.188 112.413C63.2062 112.628 63.6936 117.598 70.348 119.012C70.3618 119.012 74.6154 119.777 79.3122 119.002C86.4323 117.816 86.9137 112.641 86.931 112.425L89.2556 112.578C89.2547 112.65 88.6911 119.807 79.6948 121.298C77.9616 121.589 76.2924 121.683 74.8448 121.683Z" fill="black"/>
<path d="M45.9424 43.4651C40.0265 38.383 39.9668 34.2792 39.9668 34.1096L42.2957 34.113L41.1278 34.1096L42.2957 34.094C42.2957 34.126 42.4542 37.3934 47.4609 41.6963L45.9424 43.4651Z" fill="black"/>
<path d="M107.865 34.1095C107.865 34.7545 108.389 35.2818 109.035 35.2818C109.683 35.2818 110.207 34.7545 110.207 34.1095C110.207 33.4645 109.683 32.9373 109.035 32.9373C108.39 32.9373 107.865 33.4221 107.865 34.1095Z" fill="black"/>
<path d="M102.293 42.578C102.293 43.2299 102.819 43.7502 103.466 43.7502C104.113 43.7502 104.637 43.229 104.637 42.578C104.637 41.933 104.114 41.4092 103.466 41.4092C102.818 41.4092 102.293 41.888 102.293 42.578Z" fill="black"/>
<path d="M104.226 43.4648L102.707 41.6969C107.735 37.3775 107.871 34.143 107.871 34.1136L110.204 34.1101C110.204 34.2781 110.143 38.3827 104.226 43.4648Z" fill="black"/>
<path d="M47.2613 43.6371L45.6592 41.9529L42.2011 45.2424L43.8032 46.9266L47.2613 43.6371Z" fill="black"/>
<path d="M43.707 45.0736L40.3433 41.7571L38.7075 43.4161L42.0712 46.7326L43.707 45.0736Z" fill="black"/>
<path d="M8.58501 75.3159L6.93311 73.6675L38.7503 41.7031L40.3996 43.3472L8.58501 75.3159Z" fill="black"/>
<path d="M17.5512 85.8959L6.98535 75.3162L8.63205 73.6677L19.1962 84.2501L17.5512 85.8959Z" fill="black"/>
<path d="M19.2155 85.894L17.5449 84.2725L14.1488 87.7715L15.8194 89.393L19.2155 85.894Z" fill="black"/>
<path d="M22.817 89.3733L21.1694 87.7249L17.5828 91.3094L19.2304 92.9579L22.817 89.3733Z" fill="black"/>
<path d="M67.7089 149C67.6544 149 67.5929 149 67.5375 148.99C66.5557 148.949 65.6744 148.528 65.0545 147.804L30.0564 112.82L1.17248 83.8627C0.454758 83.2376 0.036591 82.3579 0.00282577 81.3736C-0.0344025 80.41 0.297182 79.4585 0.940452 78.7027C1.58112 77.9408 2.46162 77.4525 3.41571 77.3321C4.41481 77.1988 5.37495 77.4784 6.11346 78.1044L6.19224 78.1789L15.6716 87.827L14.0136 89.459L4.57843 79.8559C4.34381 79.6767 4.03993 79.5987 3.71786 79.6403C3.33865 79.6896 2.98281 79.8879 2.72048 80.2039C2.45209 80.519 2.31358 80.9008 2.33176 81.2826C2.34388 81.6212 2.48154 81.9207 2.71789 82.1224L2.79148 82.1909L31.7057 111.172L66.8077 146.273C67.0042 146.51 67.3003 146.648 67.6423 146.664C68.0267 146.674 68.4102 146.547 68.721 146.284C69.334 145.778 69.4872 144.954 69.0846 144.43L59.9014 135.266L61.5437 133.619L70.8482 142.901C72.1053 144.417 71.8214 146.733 70.2136 148.071C69.4967 148.674 68.6145 149 67.7089 149Z" fill="black"/>
<path d="M4.30325 71.1494C3.39679 71.1494 2.51283 70.8265 1.79683 70.2274C0.188226 68.8854 -0.0948839 66.566 1.16222 65.0544L1.23669 64.9765L10.8113 55.4261L12.4614 57.0771L2.93014 66.579C2.52322 67.1071 2.68165 67.9313 3.2877 68.4361C3.60197 68.7001 3.99764 68.8335 4.36732 68.8205C4.70844 68.8006 5.00366 68.6638 5.20625 68.4231L5.27725 68.3452L40.3056 33.322L41.9566 34.9696L6.96118 69.9581C6.33783 70.6776 5.45906 71.1009 4.4764 71.1433C4.41926 71.1494 4.35866 71.1494 4.30325 71.1494Z" fill="black"/>
<path d="M11.542 57.9925L9.89355 56.3449L65.1126 1.19168C65.7308 0.471352 66.6104 0.0514557 67.593 0.00556967C68.5532 -0.0437794 69.509 0.286086 70.2743 0.920698C71.0388 1.55618 71.5332 2.43579 71.6622 3.38988C71.7998 4.38292 71.5306 5.34393 70.9081 6.09023L70.8397 6.1716L56.8289 20.1945L55.1822 18.5461L69.1445 4.5656C69.3246 4.33097 69.3999 4.02796 69.3558 3.70589C69.3029 3.32841 69.0986 2.97604 68.7835 2.71284C68.4683 2.44878 68.0978 2.31891 67.7039 2.3319C67.3628 2.34835 67.0649 2.48861 66.8641 2.72583L66.7913 2.80722L11.542 57.9925Z" fill="black"/>
<path d="M15.6664 75.2041L14.0171 73.5565L28.4928 59.0842L30.1378 60.7327L15.6664 75.2041Z" fill="black"/>
<path d="M32.7368 90.6295L15.6714 73.5544L14.0223 75.2026L31.0877 92.2777L32.7368 90.6295Z" fill="black"/>
<path d="M59.8712 128.098L20.9512 89.3771L22.5927 87.7261L61.5109 126.44L59.8712 128.098Z" fill="black"/>
<path d="M58.1395 130.071L19.1064 91.269L17.4652 92.9201L56.4982 131.722L58.1395 130.071Z" fill="black"/>
<path d="M73.9443 7.32778C73.9443 7.97624 74.4655 8.50004 75.1105 8.50004C75.7521 8.50004 76.2733 7.97624 76.2733 7.32778C76.2733 6.68624 75.7521 6.16504 75.1105 6.16504C74.4655 6.16504 73.9443 6.68624 73.9443 7.32778Z" fill="black"/>
<path d="M74.0039 35.8299C74.0039 36.4913 74.5338 37.022 75.1943 37.022C75.8541 37.022 76.39 36.4913 76.39 35.8299C76.39 35.1719 75.8541 34.6377 75.1943 34.6377C74.5338 34.6377 74.0039 35.1719 74.0039 35.8299Z" fill="black"/>
<path d="M109.091 49.5107C109.091 50.1592 109.619 50.683 110.264 50.683C110.91 50.683 111.435 50.1583 111.435 49.5107C111.435 48.8657 110.911 48.3411 110.264 48.3411C109.618 48.3411 109.091 48.8233 109.091 49.5107Z" fill="black"/>
<path d="M107.76 34.1095C107.76 34.7545 108.283 35.2818 108.93 35.2818C109.577 35.2818 110.102 34.7545 110.102 34.1095C110.102 33.4645 109.578 32.9373 108.93 32.9373C108.283 32.9373 107.76 33.4221 107.76 34.1095Z" fill="black"/>
<path d="M102.189 42.578C102.189 43.2299 102.711 43.7502 103.357 43.7502C104.005 43.7502 104.53 43.229 104.53 42.578C104.53 41.933 104.005 41.4092 103.357 41.4092C102.711 41.4092 102.189 41.888 102.189 42.578Z" fill="black"/>
<path d="M105.888 46.1027C105.888 46.7511 106.412 47.2749 107.059 47.2749C107.704 47.2749 108.229 46.7511 108.229 46.1027C108.229 45.4542 107.705 44.9304 107.059 44.9304C106.412 44.9304 105.888 45.4118 105.888 46.1027Z" fill="black"/>
<path d="M109.382 42.578C109.382 43.2299 109.907 43.7502 110.552 43.7502C111.197 43.7502 111.724 43.229 111.724 42.578C111.724 41.933 111.198 41.4092 110.552 41.4092C109.908 41.4092 109.382 41.888 109.382 42.578Z" fill="black"/>
<path d="M130.516 85.0749C130.516 85.719 131.041 86.2445 131.688 86.2445C132.334 86.2445 132.86 85.7199 132.86 85.0749C132.86 84.4264 132.335 83.9026 131.688 83.9026C131.042 83.9017 130.516 84.384 130.516 85.0749Z" fill="black"/>
<path d="M127.023 88.6442C127.023 89.2857 127.546 89.8164 128.193 89.8164C128.841 89.8164 129.365 89.2857 129.365 88.6442C129.365 87.9957 128.842 87.4719 128.193 87.4719C127.547 87.4711 127.023 87.9533 127.023 88.6442Z" fill="black"/>
<path d="M130.516 92.1894C130.516 92.8344 131.041 93.359 131.688 93.359C132.334 93.359 132.86 92.8344 132.86 92.1894C132.86 91.5444 132.335 91.0171 131.688 91.0171C131.042 91.0162 130.516 91.5045 130.516 92.1894Z" fill="black"/>
<path d="M73.8872 42.8526C73.8872 43.5297 74.4352 44.0768 75.1123 44.0768C75.7876 44.0768 76.3356 43.5297 76.3356 42.8526C76.3356 42.1747 75.7876 41.6267 75.1123 41.6267C74.4352 41.6267 73.8872 42.1747 73.8872 42.8526Z" fill="black"/>
<path d="M84.6504 17.9265C84.6504 18.568 85.1716 19.0918 85.814 19.0918C86.4581 19.0918 86.9828 18.568 86.9828 17.9265C86.9828 17.2815 86.459 16.7568 85.814 16.7568C85.1707 16.7568 84.6504 17.2815 84.6504 17.9265Z" fill="black"/>
<path d="M76.39 14.3339C76.39 14.9754 75.8679 15.5001 75.2229 15.5001C74.5796 15.5001 74.0532 14.9763 74.0532 14.3339C74.0532 13.6889 74.5788 13.1711 75.2229 13.1711C75.8679 13.1703 76.39 13.6889 76.39 14.3339Z" fill="black"/>
<path d="M86.6387 17.0974L75.9336 6.50073L74.2921 8.15898L84.9972 18.7556L86.6387 17.0974Z" fill="black"/>
<path d="M65.2224 18.7545L63.5869 17.0966L74.2887 6.49951L75.9294 8.15746L65.2224 18.7545Z" fill="black"/>
<path d="M57.5526 19.3706C57.5526 20.0156 57.0297 20.5402 56.3864 20.5402C55.744 20.5402 55.2202 20.0156 55.2202 19.3706C55.2202 18.729 55.7431 18.2043 56.3864 18.2043C57.0297 18.2035 57.5526 18.729 57.5526 19.3706Z" fill="black"/>
<path d="M65.8172 24.7023C65.7297 25.4382 65.2709 25.9265 64.5938 25.9265C63.9246 25.9265 63.4744 25.3802 63.3731 24.7023C63.2726 24.0314 63.9246 23.4807 64.5938 23.4807C65.2709 23.4807 65.8959 24.0305 65.8172 24.7023Z" fill="black"/>
<path d="M63.6544 25.4353C59.923 21.0865 56.1941 20.5194 56.1577 20.5134L56.4573 18.2043C56.646 18.2277 61.0684 18.8398 65.4241 23.9141L63.6544 25.4353Z" fill="black"/>
<path d="M76.0522 15.1679L74.417 13.5071L63.7419 24.0174L65.3771 25.6782L76.0522 15.1679Z" fill="black"/>
<path d="M92.8926 19.3706C92.8926 20.0156 93.4155 20.5402 94.0588 20.5402C94.7038 20.5402 95.2241 20.0156 95.2241 19.3706C95.2241 18.729 94.7038 18.2043 94.0588 18.2043C93.4155 18.2035 92.8926 18.729 92.8926 19.3706Z" fill="black"/>
<path d="M84.6279 24.7023C84.7137 25.4382 85.176 25.9265 85.8495 25.9265C86.5231 25.9265 86.9699 25.3802 87.072 24.7023C87.1707 24.0314 86.5231 23.4807 85.8495 23.4807C85.176 23.4807 84.5483 24.0305 84.6279 24.7023Z" fill="black"/>
<path d="M86.7895 25.4353L85.0225 23.9141C89.379 18.8398 93.8005 18.2277 93.9875 18.2043L94.2793 20.5134L94.1339 19.3602L94.288 20.5134C94.2507 20.5194 90.5227 21.0865 86.7895 25.4353Z" fill="black"/>
<path d="M86.7219 24.0138L76.0405 13.5122L74.4071 15.1736L85.0885 25.6752L86.7219 24.0138Z" fill="black"/>
<path d="M38.3661 59.3987L36.7358 57.7347L66.3903 28.7053C68.1989 26.1088 70.8309 23.1609 75.2013 23.0864C75.2602 23.0864 75.3165 23.0864 75.3719 23.0864C79.1821 23.0864 81.1119 25.3019 83.7699 28.3564L83.9015 28.5096L113.038 57.7442L111.389 59.3857L82.1751 30.0698L82.0141 29.8879C79.4756 26.9746 78.0947 25.3729 75.2437 25.4145C71.9001 25.4734 69.8266 27.8248 68.2448 30.1217L68.1002 30.2905L38.3661 59.3987Z" fill="black"/>
<path d="M95.722 108.312L94.0874 106.644L100.429 100.429L101.472 99.4676C108.283 93.2012 117.611 84.6179 117.823 76.4286C118.057 67.2851 115.134 62.8489 108.907 56.9105L110.513 55.2231C117.107 61.5095 120.407 66.5232 120.152 76.4874C119.917 85.6603 110.168 94.6314 103.051 101.181L102.03 102.122L95.722 108.312Z" fill="black"/>
<path d="M74.2933 135.224L41.0718 102.413C32.7275 94.7061 24.1373 85.5688 23.9035 76.4132C23.6533 66.6447 25.8706 61.1462 32.6946 54.6433L39.1342 48.7024L40.7151 50.4158L34.285 56.3437C27.9588 62.3729 25.9996 67.2395 26.2324 76.3569C26.4472 84.6891 35.1326 93.7581 42.6804 100.722L75.9296 133.569L74.2933 135.224Z" fill="black"/>
<path d="M76.2315 56.6669C76.2315 57.3154 75.7085 57.8357 75.0644 57.8357C74.4177 57.8357 73.8965 57.3145 73.8965 56.6669C73.8965 56.0245 74.4177 55.5007 75.0644 55.5007C75.7094 55.5007 76.2315 55.983 76.2315 56.6669Z" fill="black"/>
<path d="M86.7518 60.3633C86.7518 61.0083 86.2167 61.5295 85.5518 61.5295C84.8861 61.5295 84.3467 61.0083 84.3467 60.3633C84.3467 59.7183 84.8861 59.198 85.5518 59.198C86.2167 59.198 86.7518 59.6794 86.7518 60.3633Z" fill="black"/>
<path d="M76.2324 85.068C76.2324 85.713 75.7103 86.2343 75.0645 86.2343C74.4273 86.2343 73.9009 85.7122 73.9009 85.068C73.9009 84.4239 74.4264 83.9019 75.0645 83.9019C75.7103 83.9019 76.2324 84.3841 76.2324 85.068Z" fill="black"/>
<path d="M76.2733 92.1815C76.2733 92.8265 75.7521 93.3477 75.1123 93.3477C74.469 93.3477 73.9443 92.8257 73.9443 92.1815C73.9443 91.5374 74.4681 91.0188 75.1123 91.0188C75.7521 91.0188 76.2733 91.4976 76.2733 92.1815Z" fill="black"/>
<path d="M75.9292 135.224L74.292 133.566L107.536 100.752C115.11 93.7581 123.798 84.69 124.01 76.3509C124.244 67.2395 122.284 62.373 115.942 56.3307L109.532 50.4158L111.11 48.7024L117.536 54.6303C124.372 61.1453 126.592 66.6438 126.343 76.4132C126.109 85.5696 117.519 94.7061 109.144 102.433L75.9292 135.224Z" fill="black"/>
<path d="M76.2316 56.6675H73.9019V85.0683H76.2316V56.6675Z" fill="black"/>
<path d="M86.6821 60.29H84.3506V88.6909H86.6821V60.29Z" fill="black"/>
<path d="M86.0582 89.4892L85.271 87.2937L74.719 91.0771L75.5062 93.2726L86.0582 89.4892Z" fill="black"/>
<path d="M75.5773 91.0917L65.022 87.3162L64.2367 89.5115L74.7921 93.2871L75.5773 91.0917Z" fill="black"/>
<path d="M75.8177 99.8498L74.1719 98.2014L86.8356 85.5239C87.0494 85.3221 87.2511 85.1161 87.4598 84.9048C88.8078 83.536 90.4848 81.8391 92.6639 81.8391C95.2414 81.8391 97.5045 84.1672 97.5045 86.8199H95.1747C95.1747 85.4321 93.9756 84.1715 92.6648 84.1715C91.4623 84.1715 90.2147 85.4295 89.1212 86.5394C88.8987 86.7636 88.6805 86.9827 88.4745 87.1844L75.8177 99.8498Z" fill="black"/>
<path d="M74.5396 99.8498L61.8742 87.1714C61.6768 86.9827 61.4621 86.7636 61.2396 86.5394C60.1418 85.4252 58.8994 84.1715 57.6977 84.1715C56.386 84.1715 55.1869 85.4321 55.1869 86.8199H52.8589C52.8589 84.168 55.1212 81.8391 57.6986 81.8391C59.876 81.8391 61.553 83.536 62.8993 84.9014C63.1088 85.1161 63.3131 85.3212 63.5096 85.51L76.1898 98.2014L74.5396 99.8498Z" fill="black"/>
<path d="M85.9101 113.667C79.5207 113.667 74.3208 108.745 74.3208 102.697H76.6489C76.6489 107.465 80.8063 111.341 85.9092 111.341C90.9289 111.341 95.1721 107.266 95.1721 102.455H97.5019C97.5028 108.537 92.1947 113.667 85.9101 113.667Z" fill="black"/>
<path d="M64.3481 113.667C58.0149 113.667 52.8584 108.716 52.8584 102.625H55.1865C55.1865 107.427 59.2946 111.341 64.3481 111.341C69.4007 111.341 73.5097 107.465 73.5097 102.697H75.8378C75.8386 108.745 70.6829 113.667 64.3481 113.667Z" fill="black"/>
<path d="M76.9286 98.4102H73.4326V105.231H76.9286V98.4102Z" fill="black"/>
<path d="M97.5026 86.7456H95.1729V102.697H97.5026V86.7456Z" fill="black"/>
<path d="M75.1449 112.599C73.7857 112.599 72.3009 112.11 70.8516 110.742L72.4532 109.045C75.2523 111.69 77.9102 109.169 78.021 109.064L79.6452 110.732C78.7613 111.591 77.0877 112.599 75.1449 112.599Z" fill="black"/>
<path d="M75.2125 121.683C73.7658 121.683 72.1009 121.588 70.3659 121.298C61.3688 119.807 60.8078 112.65 60.8052 112.579L63.1324 112.429C63.1497 112.642 63.6285 117.817 70.7486 119.002C75.4653 119.782 79.6989 119.013 79.7431 119.002C86.3654 117.598 86.8572 112.628 86.8728 112.414L89.1991 112.586C89.1922 112.655 88.6173 119.501 80.1994 121.293C80.0548 121.312 78.0402 121.683 75.2125 121.683Z" fill="black"/>
<path d="M104.118 43.4648L102.6 41.6969C107.629 37.3775 107.765 34.143 107.765 34.1136L110.095 34.1101C110.095 34.2781 110.037 38.3827 104.118 43.4648Z" fill="black"/>
<path d="M106.253 46.9439L102.793 43.6575L104.4 41.9709L107.858 45.26L106.253 46.9439Z" fill="black"/>
<path d="M111.372 43.4153L109.736 41.7571L106.375 45.0722L108.01 46.7304L111.372 43.4153Z" fill="black"/>
<path d="M141.479 75.3159L109.661 43.3472L111.313 41.7031L143.127 73.6675L141.479 75.3159Z" fill="black"/>
<path d="M143.073 75.3057L141.423 73.6604L130.861 84.2494L132.511 85.8947L143.073 75.3057Z" fill="black"/>
<path d="M135.907 87.7359L132.513 84.2415L130.841 85.8652L134.235 89.3597L135.907 87.7359Z" fill="black"/>
<path d="M132.47 91.3427L128.89 87.7549L127.24 89.4013L130.82 92.9891L132.47 91.3427Z" fill="black"/>
<path d="M82.3523 149C81.4476 149 80.5662 148.675 79.845 148.072C79.0832 147.436 78.5897 146.558 78.4581 145.606C78.3204 144.613 78.5888 143.651 79.2156 142.901L79.284 142.827L88.5175 133.619L90.1616 135.266L80.9766 144.43C80.7974 144.661 80.7255 144.967 80.768 145.286C80.8199 145.67 81.0216 146.022 81.3385 146.284C81.6537 146.547 82.0467 146.674 82.4207 146.664C82.7601 146.648 83.0562 146.511 83.2536 146.273L83.3281 146.195L118.36 111.172L147.343 82.1224C147.581 81.9207 147.721 81.6211 147.731 81.2826C147.748 80.9017 147.607 80.5199 147.343 80.2039C147.078 79.8879 146.723 79.6887 146.344 79.6402C146.022 79.5987 145.719 79.6766 145.486 79.8558L136.052 89.459L134.389 87.827L143.948 78.1044C144.69 77.4793 145.652 77.2022 146.642 77.3321C147.6 77.4533 148.481 77.9416 149.124 78.7026C149.766 79.4593 150.097 80.4099 150.059 81.3735C150.022 82.3571 149.608 83.2367 148.888 83.8626L120.008 112.818L85.0094 147.804C84.3878 148.527 83.509 148.948 82.5264 148.99C82.4649 149 82.4121 149 82.3523 149Z" fill="black"/>
<path d="M145.759 71.1496C145.701 71.1496 145.643 71.1496 145.588 71.1426C144.603 71.1002 143.725 70.6768 143.102 69.9574L108.107 34.9689L109.754 33.3213L144.853 68.4224C145.056 68.663 145.35 68.8007 145.692 68.8198C146.077 68.8327 146.46 68.6994 146.776 68.4353C147.089 68.1704 147.292 67.8163 147.343 67.4414C147.388 67.1194 147.313 66.8129 147.135 66.5783L137.601 57.0729L139.248 55.4254L148.896 65.0536C149.521 65.8025 149.789 66.7601 149.653 67.7575C149.522 68.7115 149.029 69.5877 148.265 70.2266C147.549 70.8266 146.664 71.1496 145.759 71.1496Z" fill="black"/>
<path d="M138.522 57.9926L83.2296 2.76752L83.1967 2.7251C82.9993 2.48787 82.7023 2.34762 82.356 2.33117C81.9707 2.31818 81.5932 2.44892 81.2781 2.71211C80.9621 2.97531 80.7587 3.32767 80.7084 3.70514C80.6626 4.02808 80.7379 4.33111 80.9188 4.56487L94.8829 18.5454L93.2327 20.1938L79.1526 6.08949C78.5267 5.3432 78.26 4.38219 78.3977 3.38914C78.5267 2.4342 79.0228 1.55543 79.7864 0.919953C80.5509 0.285341 81.4937 -0.0445117 82.466 0.00483741C83.4486 0.0498576 84.3291 0.470619 84.9499 1.19094L140.167 56.3442L138.522 57.9926Z" fill="black"/>
<path d="M136.042 73.5525L121.57 59.0803L119.922 60.729L134.394 75.2011L136.042 73.5525Z" fill="black"/>
<path d="M136.02 75.1963L134.369 73.5479L117.313 90.632L118.965 92.2804L136.02 75.1963Z" fill="black"/>
<path d="M90.1956 128.098L88.5498 126.44L127.468 87.7261L129.111 89.3771L90.1956 128.098Z" fill="black"/>
<path d="M132.59 92.9132L130.947 91.2622L91.9307 130.081L93.5733 131.732L132.59 92.9132Z" fill="black"/>
<path d="M57.4201 53.3306C56.453 53.3306 55.4851 52.9436 54.776 52.1817L49.4411 46.9507L51.0714 45.2858L56.4799 50.5852C56.9482 51.1064 57.7526 51.1454 58.2694 50.677C58.7802 50.2138 58.8304 49.4259 58.3811 48.9082L47.9355 38.7163C46.1547 37.022 45.0984 34.7588 44.9703 32.3511C44.843 29.9157 45.6716 27.6284 47.3096 25.9089C50.674 22.3714 56.4314 22.3714 60.1421 25.902L75.6749 41.9855L74.0031 43.6045L58.4997 27.5521C55.7526 24.9427 51.474 24.9107 48.9953 27.5097C47.8057 28.7668 47.2022 30.4378 47.2975 32.2256C47.3918 34.0368 48.1918 35.7432 49.552 37.0341L60.0876 47.3204C61.42 48.7939 61.3031 51.0735 59.833 52.4024C59.1465 53.0249 58.2841 53.3306 57.4201 53.3306Z" fill="black"/>
<path d="M67.8571 49.5626C67.7973 49.5626 67.7324 49.5626 67.6735 49.5565C66.7264 49.5106 65.8528 49.1003 65.2069 48.4068L50.8031 34.1787C49.5442 32.6471 49.7667 30.377 51.3017 29.1165C52.7969 27.8853 55.0012 28.0672 56.2747 29.5035L70.5176 43.5498C71.1635 44.2597 71.4942 45.1809 71.4448 46.1428C71.3972 47.1003 70.979 47.986 70.2648 48.6319C69.5999 49.2336 68.748 49.5626 67.8571 49.5626ZM52.5753 32.6601L66.9125 46.8129C67.1393 47.0666 67.4501 47.2137 67.7904 47.2302C68.1315 47.2432 68.4536 47.1324 68.7046 46.9047C68.9575 46.677 69.1038 46.3636 69.1194 46.025C69.1367 45.6995 69.0233 45.3801 68.8094 45.1324L54.3692 30.8974C53.9121 30.5389 53.2506 30.5294 52.7822 30.9138C52.2541 31.3476 52.1675 32.1225 52.5753 32.6601Z" fill="black"/>
<path d="M53.653 77.9345C53.5906 77.9345 53.5292 77.9345 53.4686 77.931C52.5197 77.8817 51.6461 77.4722 51.0028 76.777L35.3652 61.3073L37.0041 59.6467L52.7084 75.1882C52.9352 75.4393 53.2495 75.5857 53.5863 75.6021C53.9222 75.6212 54.2486 75.5043 54.5006 75.2766C55.0114 74.8142 55.0564 74.0264 54.6062 73.5043L41.7183 60.8008L43.3529 59.1394L56.3161 71.9277C57.6468 73.3935 57.5316 75.6739 56.0659 77.002C55.394 77.6081 54.5439 77.9345 53.653 77.9345Z" fill="black"/>
<path d="M96.2871 77.9346C95.3919 77.9346 94.5469 77.6091 93.8777 77.0022C92.4093 75.6732 92.2933 73.3936 93.6249 71.9279L93.6682 71.8751L106.585 59.1387L108.223 60.8001L95.3331 73.5036C94.8829 74.0257 94.9296 74.8135 95.4422 75.2793C95.6924 75.5044 96.0162 75.6213 96.3529 75.6022C96.6932 75.5858 97.0057 75.4395 97.2334 75.1884L97.2758 75.1391L112.936 59.6469L114.575 61.3074L98.9338 76.7771C98.2975 77.4714 97.4222 77.8809 96.4724 77.9312C96.411 77.9346 96.3495 77.9346 96.2871 77.9346Z" fill="black"/>
<path d="M46.7684 85.0681C45.8845 85.0681 45.0421 84.7487 44.378 84.1556L44.3278 84.1106L30.7681 70.5396L32.4174 68.892L45.9485 82.437C46.197 82.6517 46.5148 82.7522 46.8437 82.7366C47.1805 82.7167 47.4905 82.5678 47.7173 82.3132C47.9424 82.0596 48.0567 81.7358 48.0368 81.3973C48.0178 81.0613 47.868 80.7488 47.6134 80.5237L47.558 80.4752L32.6226 65.3441L34.2805 63.7095L49.1952 78.8103C49.8965 79.4458 50.3069 80.315 50.364 81.2631C50.4185 82.2197 50.0956 83.1452 49.4593 83.8621C48.8186 84.579 47.9364 85.0049 46.9814 85.0603C46.907 85.0681 46.8368 85.0681 46.7684 85.0681Z" fill="black"/>
<path d="M103.354 85.0677C103.287 85.0677 103.212 85.0677 103.143 85.0608C102.182 85.0054 101.303 84.5786 100.665 83.8626C100.025 83.1457 99.7037 82.2211 99.7591 81.2635C99.811 80.3155 100.23 79.4454 100.928 78.8108L115.842 63.71L117.498 65.3445L102.507 80.5242C102.257 80.7493 102.108 81.0618 102.088 81.3977C102.069 81.7362 102.178 82.0592 102.407 82.3137C102.632 82.5674 102.939 82.7172 103.278 82.7371C103.601 82.7535 103.922 82.6522 104.171 82.4375L117.707 68.8925L119.355 70.5401L105.744 84.1561C105.08 84.7483 104.239 85.0677 103.354 85.0677Z" fill="black"/>
<path d="M81.7586 49.5624C80.8633 49.5624 80.0149 49.2334 79.3474 48.6308C78.634 47.9849 78.2167 47.0993 78.1665 46.1417C78.1197 45.1798 78.4504 44.2587 79.092 43.5487L79.1422 43.4994L93.3435 29.4963C93.9452 28.8219 94.7685 28.402 95.6759 28.3137C96.6317 28.2193 97.5676 28.5024 98.3113 29.1154C99.0541 29.7241 99.5147 30.5846 99.6091 31.5422C99.7009 32.4988 99.4186 33.4347 98.8074 34.1802L98.7243 34.2642L84.4026 48.4014C83.7637 49.0983 82.8884 49.5087 81.9404 49.5546C81.8798 49.5624 81.8183 49.5624 81.7586 49.5624ZM80.8028 45.1322C80.588 45.3798 80.4781 45.6984 80.4919 46.0248C80.511 46.3633 80.6582 46.6759 80.9092 46.9045C81.1586 47.1322 81.4876 47.2438 81.8252 47.23C82.1612 47.2135 82.4737 47.0672 82.7022 46.8127L82.7473 46.7677L97.0403 32.6599C97.2334 32.4028 97.3208 32.0893 97.2905 31.7707C97.2559 31.4313 97.0949 31.1318 96.8351 30.9136C96.5737 30.698 96.2438 30.5976 95.9044 30.6296C95.6594 30.6556 95.4283 30.7474 95.2404 30.8972L80.8028 45.1322Z" fill="black"/>
<path d="M92.1914 53.3311C91.3308 53.3311 90.4667 53.0254 89.7784 52.403C88.3066 51.0705 88.1984 48.7944 89.5248 47.3209L89.5793 47.2689L100.052 37.0476C101.422 35.7446 102.219 34.0373 102.316 32.2261C102.412 30.4383 101.808 28.7673 100.614 27.5102C99.4318 26.2661 97.7972 25.5787 96.0155 25.5787C96.0086 25.5787 96.0008 25.5787 95.9956 25.5787C94.1904 25.5847 92.452 26.2921 91.0988 27.5691L75.9416 43.6508L74.2456 42.0544L89.4694 25.9008C91.2598 24.1978 93.5749 23.2558 95.986 23.2498C95.9956 23.2498 96.0042 23.2498 96.0155 23.2498C98.4405 23.2498 100.67 24.1909 102.304 25.9077C103.939 27.6271 104.774 29.9145 104.641 32.3499C104.513 34.7576 103.459 37.0216 101.669 38.7246L91.233 48.907C90.7828 49.4247 90.8303 50.2134 91.342 50.6757C91.8606 51.145 92.6632 51.1052 93.1307 50.584L93.2078 50.5095L98.9634 45.2196L100.539 46.9356L94.819 52.1934C94.116 52.9501 93.1567 53.3311 92.1914 53.3311Z" fill="black"/>
<path d="M75.6729 34.9948L68.5356 27.5122L66.8492 29.1208L73.9864 36.6034L75.6729 34.9948Z" fill="black"/>
<path d="M83.0329 29.2013L81.3726 27.5693L74.1261 34.9419L75.7865 36.5739L83.0329 29.2013Z" fill="black"/>
<path d="M64.5122 59.198H37.436V61.5295H64.5122V59.198Z" fill="black"/>
<path d="M112.318 59.198H85.2432V61.5295H112.318V59.198Z" fill="black"/>
<path d="M65.3556 73.6646L51.2134 59.5383L49.5657 61.1879L63.7079 75.3141L65.3556 73.6646Z" fill="black"/>
<path d="M65.3567 66.9129L58.2896 59.5352L56.6053 61.1485L63.6724 68.5262L65.3567 66.9129Z" fill="black"/>
<path d="M92.6412 53.3312C91.7798 53.3312 90.9183 53.0256 90.23 52.4031C89.5175 51.7581 89.0967 50.8751 89.0491 49.914C89.0015 48.953 89.3288 48.0345 89.9772 47.3211L90.0257 47.2691L100.5 37.0478C103.294 34.3899 103.541 30.1164 101.066 27.5104C98.5865 24.9079 94.3078 24.9434 91.5278 27.5918L76.0608 43.6052L74.3838 41.9862L89.8837 25.933C93.6308 22.3695 99.3891 22.3695 102.752 25.907C106.116 29.4376 105.83 35.1907 102.116 38.7248L91.6819 48.9072C91.4672 49.1582 91.359 49.4708 91.3746 49.7972C91.3919 50.1383 91.5408 50.4482 91.791 50.6768C92.3105 51.1461 93.1113 51.1062 93.584 50.585L93.629 50.5365L98.9908 45.2856L100.622 46.9505L95.2818 52.1815C94.578 52.9434 93.6109 53.3312 92.6412 53.3312Z" fill="black"/>
<path d="M82.2038 49.5624C81.3112 49.5624 80.4636 49.2334 79.7926 48.6308C78.326 47.301 78.2126 45.0179 79.5415 43.5487L79.5865 43.4994L93.793 29.4963C94.3947 28.8219 95.2181 28.402 96.1211 28.3137C97.0812 28.2193 98.0154 28.5024 98.7608 29.1154C99.501 29.7241 99.9634 30.5846 100.058 31.5422C100.15 32.4988 99.8656 33.4347 99.2561 34.1802L99.1721 34.2642L84.8548 48.4049C84.2106 49.0983 83.3345 49.5087 82.3882 49.5546C82.3293 49.5624 82.2678 49.5624 82.2038 49.5624ZM81.2532 45.1322C80.8029 45.6534 80.8488 46.4378 81.3596 46.9036C81.6107 47.1313 81.944 47.243 82.2722 47.2291C82.6107 47.2127 82.9206 47.0663 83.1501 46.8118L83.1951 46.7668L97.4873 32.659C97.6821 32.4019 97.7695 32.0885 97.7375 31.7699C97.7089 31.4305 97.5427 31.1309 97.2821 30.9128C97.0206 30.7006 96.6864 30.5967 96.3531 30.6288C96.1072 30.6547 95.8813 30.7465 95.6934 30.8963L81.2532 45.1322Z" fill="black"/>
<path d="M96.4128 77.935C95.5522 77.935 94.6881 77.6285 94.0016 77.0026C93.2882 76.361 92.87 75.4779 92.8198 74.5169C92.773 73.5568 93.1038 72.6339 93.7479 71.9205L93.7938 71.8746L106.706 59.1382L108.342 60.7996L95.457 73.5031C95.2405 73.7551 95.1349 74.0702 95.1487 74.3992C95.1643 74.7351 95.3115 75.0476 95.5634 75.2753C96.082 75.7446 96.8837 75.7057 97.3582 75.1845L97.4006 75.1386L113.06 59.6464L114.698 61.307L99.0594 76.7766C98.3538 77.5437 97.3842 77.935 96.4128 77.935Z" fill="black"/>
<path d="M103.296 85.0677C103.226 85.0677 103.155 85.0677 103.083 85.0608C102.126 85.0054 101.243 84.5786 100.606 83.8626C99.9641 83.1457 99.6437 82.2211 99.7008 81.2635C99.7545 80.3155 100.168 79.4454 100.871 78.8108L115.781 63.71L117.439 65.3445L102.451 80.5242C102.197 80.7493 102.046 81.0618 102.027 81.3977C102.008 81.7362 102.12 82.0592 102.348 82.3137C102.57 82.5674 102.878 82.7172 103.219 82.7371C103.551 82.757 103.864 82.6522 104.114 82.4375L117.647 68.8925L119.294 70.5401L105.684 84.1561C105.019 84.7483 104.175 85.0677 103.296 85.0677Z" fill="black"/>
<path d="M83.1821 29.124L81.4937 27.5149L74.3601 35L76.0485 36.6091L83.1821 29.124Z" fill="black"/>
<path d="M112.627 59.198H85.5522V61.5295H112.627V59.198Z" fill="black"/>
<path d="M100.499 61.184L98.8521 59.5359L84.7131 73.6629L86.3598 75.311L100.499 61.184Z" fill="black"/>
<path d="M86.3914 68.5496L84.7109 66.9375L91.78 59.5559L93.4587 61.1714L86.3914 68.5496Z" fill="black"/>
<path d="M100.282 61.2035L98.6313 59.5552L84.5045 73.7L86.1549 75.3483L100.282 61.2035Z" fill="black"/>
<path d="M86.1672 68.5496L84.4858 66.9375L91.5523 59.5559L93.2353 61.1714L86.1672 68.5496Z" fill="black"/>
</svg>
