<svg width="118" height="80" viewBox="0 0 118 80" fill="none" xmlns="http://www.w3.org/2000/svg">
<path d="M58.2808 53.709C58.2808 53.9826 58.5022 54.2011 58.7745 54.2011C59.0459 54.2011 59.267 53.9823 59.267 53.709C59.267 53.4376 59.0459 53.2148 58.7745 53.2148C58.5019 53.2148 58.2808 53.4185 58.2808 53.709Z" fill="black"/>
<path d="M59.3297 53.709C59.3297 53.9826 59.1086 54.2011 58.8359 54.2011C58.5645 54.2011 58.3428 53.9823 58.3428 53.709C58.3428 53.4376 58.5645 53.2148 58.8359 53.2148C59.1086 53.2148 59.3297 53.4185 59.3297 53.709Z" fill="black"/>
<path d="M58.2808 50.9287C58.2808 51.202 58.5022 51.4241 58.7745 51.4241C59.0459 51.4241 59.267 51.202 59.267 50.9287C59.267 50.6579 59.0459 50.4375 58.7745 50.4375C58.5019 50.4375 58.2808 50.6405 58.2808 50.9287Z" fill="black"/>
<path d="M52.8706 48.3662C52.8706 48.6369 53.0907 48.8583 53.3641 48.8583C53.6351 48.8583 53.8555 48.6369 53.8555 48.3662C53.8555 48.0932 53.6351 47.8721 53.3641 47.8721C53.0907 47.8717 52.8706 48.0771 52.8706 48.3662Z" fill="black"/>
<path d="M51.6167 49.6406C51.6167 49.9113 51.8381 50.1337 52.1098 50.1337C52.3828 50.1337 52.6036 49.911 52.6036 49.6406C52.6036 49.3673 52.3828 49.1465 52.1098 49.1465C51.8381 49.1465 51.6167 49.3502 51.6167 49.6406Z" fill="black"/>
<path d="M54.2554 49.7926C54.2554 50.0646 54.4771 50.286 54.7485 50.286C55.0212 50.286 55.242 50.0646 55.242 49.7926C55.242 49.5192 55.0212 49.3008 54.7485 49.3008C54.4768 49.3008 54.2554 49.5022 54.2554 49.7926Z" fill="black"/>
<path d="M52.9844 51.0573C52.9844 51.3293 53.2061 51.5494 53.4778 51.5494C53.7499 51.5494 53.971 51.3293 53.971 51.0573C53.971 50.7852 53.7499 50.5645 53.4778 50.5645C53.2058 50.5641 52.9844 50.7668 52.9844 51.0573Z" fill="black"/>
<path d="M62.3335 49.7672C62.3335 50.0379 62.5543 50.2577 62.8273 50.2577C63.099 50.2577 63.3197 50.0383 63.3197 49.7672C63.3197 49.4929 63.099 49.2725 62.8273 49.2725C62.5543 49.2725 62.3335 49.4765 62.3335 49.7672Z" fill="black"/>
<path d="M63.6416 51.0911C63.6416 51.3645 63.8627 51.5852 64.1351 51.5852C64.4081 51.5852 64.6279 51.3641 64.6279 51.0911C64.6279 50.8204 64.4081 50.5977 64.1351 50.5977C63.8627 50.5977 63.6416 50.8017 63.6416 51.0911Z" fill="black"/>
<path d="M53.7595 48.6645L53.1294 48.043L51.8258 49.3644L52.4559 49.986L53.7595 48.6645Z" fill="black"/>
<path d="M53.6852 51.3988L53.063 50.771L54.4366 49.4043L55.0601 50.0321L53.6852 51.3988Z" fill="black"/>
<path d="M58.3624 53.9731L54.5127 50.1053L55.1382 49.4795L58.9903 53.3489L58.3624 53.9731Z" fill="black"/>
<path d="M83.8882 28.2661C83.8882 28.5109 84.0863 28.7109 84.3324 28.7109C84.5774 28.7109 84.7752 28.5109 84.7752 28.2661C84.7752 28.0214 84.5774 27.8223 84.3324 27.8223C84.086 27.8223 83.8882 28.0053 83.8882 28.2661Z" fill="black"/>
<path d="M81.2002 28.2241C81.2002 28.4699 81.3986 28.669 81.6434 28.669C81.8885 28.669 82.0876 28.4702 82.0876 28.2241C82.0876 27.979 81.8888 27.7793 81.6434 27.7793C81.3986 27.7793 81.2002 27.9646 81.2002 28.2241Z" fill="black"/>
<path d="M81.2002 33.6372C81.2002 33.8807 81.3986 34.082 81.6434 34.082C81.8885 34.082 82.0876 33.8807 82.0876 33.6372C82.0876 33.3911 81.8888 33.1924 81.6434 33.1924C81.3986 33.1921 81.2002 33.375 81.2002 33.6372Z" fill="black"/>
<path d="M59.3282 50.9287C59.3282 51.202 59.1071 51.4241 58.8344 51.4241C58.5631 51.4241 58.3413 51.202 58.3413 50.9287C58.3413 50.6579 58.5631 50.4375 58.8344 50.4375C59.1071 50.4375 59.3282 50.6405 59.3282 50.9287Z" fill="black"/>
<path d="M64.7393 48.3662C64.7393 48.6369 64.5186 48.8583 64.2459 48.8583C63.9732 48.8583 63.7524 48.6369 63.7524 48.3662C63.7524 48.0932 63.9732 47.8721 64.2459 47.8721C64.5186 47.8721 64.7393 48.0771 64.7393 48.3662Z" fill="black"/>
<path d="M65.9913 49.6406C65.9913 49.9113 65.7722 50.1337 65.4988 50.1337C65.2261 50.1337 65.0054 49.911 65.0054 49.6406C65.0054 49.3673 65.2261 49.1465 65.4988 49.1465C65.7722 49.1465 65.9913 49.3502 65.9913 49.6406Z" fill="black"/>
<path d="M63.3528 49.7926C63.3528 50.0646 63.1317 50.286 62.8587 50.286C62.586 50.286 62.3662 50.0646 62.3662 49.7926C62.3662 49.5192 62.586 49.3008 62.8587 49.3008C63.1317 49.3008 63.3528 49.5022 63.3528 49.7926Z" fill="black"/>
<path d="M64.6239 51.0573C64.6239 51.3293 64.4025 51.5494 64.1302 51.5494C63.8572 51.5494 63.6377 51.3293 63.6377 51.0573C63.6377 50.7852 63.8572 50.5645 64.1302 50.5645C64.4025 50.5641 64.6239 50.7668 64.6239 51.0573Z" fill="black"/>
<path d="M65.7762 49.363L64.4712 48.042L63.843 48.6626L65.148 49.9836L65.7762 49.363Z" fill="black"/>
<path d="M64.5364 50.7683L63.1621 49.4014L62.5377 50.0291L63.912 51.396L64.5364 50.7683Z" fill="black"/>
<path d="M59.2452 53.9731L58.6187 53.3489L62.469 49.4795L63.0959 50.1053L59.2452 53.9731Z" fill="black"/>
<path d="M59.2169 2.78106C59.2169 3.02713 59.0198 3.2259 58.7744 3.2259C58.5306 3.2259 58.3315 3.02713 58.3315 2.78106C58.3315 2.53762 58.5303 2.33984 58.7744 2.33984C59.0201 2.33984 59.2169 2.53762 59.2169 2.78106Z" fill="black"/>
<path d="M59.1945 13.5959C59.1945 13.8469 58.9921 14.0483 58.7424 14.0483C58.4914 14.0483 58.2891 13.8469 58.2891 13.5959C58.2891 13.3463 58.4914 13.1436 58.7424 13.1436C58.9921 13.1436 59.1945 13.3463 59.1945 13.5959Z" fill="black"/>
<path d="M72.5415 18.7797C72.5415 19.0195 72.3463 19.212 72.1075 19.212C71.8686 19.212 71.6738 19.0195 71.6738 18.7797C71.6738 18.5402 71.8686 18.3457 72.1075 18.3457C72.3463 18.3457 72.5415 18.5251 72.5415 18.7797Z" fill="black"/>
<path d="M45.8783 18.7876C45.8783 19.0337 45.6788 19.2324 45.4334 19.2324C45.1887 19.2324 44.9893 19.0333 44.9893 18.7876C44.9893 18.5428 45.1883 18.3438 45.4334 18.3438C45.6785 18.3438 45.8783 18.5267 45.8783 18.7876Z" fill="black"/>
<path d="M46.3849 12.9429C46.3849 13.1876 46.1862 13.3877 45.9395 13.3877C45.695 13.3877 45.4956 13.1876 45.4956 12.9429C45.4956 12.6981 45.6947 12.498 45.9395 12.498C46.1858 12.498 46.3849 12.682 46.3849 12.9429Z" fill="black"/>
<path d="M48.4976 16.1574C48.4976 16.4048 48.2988 16.6022 48.0537 16.6022C47.8086 16.6022 47.6089 16.4044 47.6089 16.1574C47.6089 15.9126 47.8083 15.7139 48.0537 15.7139C48.2988 15.7139 48.4976 15.8955 48.4976 16.1574Z" fill="black"/>
<path d="M47.097 17.4946C47.097 17.7407 46.8973 17.9395 46.6519 17.9395C46.4065 17.9395 46.207 17.7407 46.207 17.4946C46.207 17.2486 46.4061 17.0498 46.6519 17.0498C46.8976 17.0498 47.097 17.2325 47.097 17.4946Z" fill="black"/>
<path d="M45.769 16.1574C45.769 16.4048 45.5706 16.6022 45.3252 16.6022C45.0798 16.6022 44.8804 16.4044 44.8804 16.1574C44.8804 15.9126 45.0798 15.7139 45.3252 15.7139C45.5703 15.7139 45.769 15.8955 45.769 16.1574Z" fill="black"/>
<path d="M33.721 28.2661C33.721 28.5109 33.5226 28.7109 33.2769 28.7109C33.0311 28.7109 32.832 28.5109 32.832 28.2661C32.832 28.0214 33.0315 27.8223 33.2769 27.8223C33.5223 27.8223 33.721 28.0053 33.721 28.2661Z" fill="black"/>
<path d="M37.749 32.2827C37.749 32.5272 37.5496 32.7266 37.3045 32.7266C37.0591 32.7266 36.8604 32.5275 36.8604 32.2827C36.8604 32.0367 37.0588 31.8379 37.3045 31.8379C37.5496 31.8376 37.749 32.0206 37.749 32.2827Z" fill="black"/>
<path d="M39.0754 33.6372C39.0754 33.8807 38.8766 34.082 38.6309 34.082C38.3851 34.082 38.186 33.8807 38.186 33.6372C38.186 33.3911 38.3855 33.1924 38.6309 33.1924C38.8763 33.1924 39.0754 33.375 39.0754 33.6372Z" fill="black"/>
<path d="M37.749 34.9829C37.749 35.2277 37.5496 35.4268 37.3045 35.4268C37.0591 35.4268 36.8604 35.2277 36.8604 34.9829C36.8604 34.7382 37.0588 34.5381 37.3045 34.5381C37.5496 34.5378 37.749 34.7231 37.749 34.9829Z" fill="black"/>
<path d="M36.4084 28.2241C36.4084 28.4699 36.2093 28.669 35.9635 28.669C35.7191 28.669 35.52 28.4702 35.52 28.2241C35.52 27.979 35.7188 27.7793 35.9635 27.7793C36.2093 27.7793 36.4084 27.9646 36.4084 28.2241Z" fill="black"/>
<path d="M36.4084 33.6372C36.4084 33.8807 36.2093 34.082 35.9635 34.082C35.7191 34.082 35.52 33.8807 35.52 33.6372C35.52 33.3911 35.7188 33.1924 35.9635 33.1924C36.2093 33.1921 36.4084 33.375 36.4084 33.6372Z" fill="black"/>
<path d="M59.2377 16.2611C59.2377 16.518 59.0304 16.7256 58.7731 16.7256C58.5179 16.7256 58.3096 16.518 58.3096 16.2611C58.3096 16.0039 58.5179 15.7959 58.7731 15.7959C59.0304 15.7959 59.2377 16.0039 59.2377 16.2611Z" fill="black"/>
<path d="M55.1544 6.80225C55.1544 7.04569 54.9563 7.24444 54.7126 7.24444C54.4675 7.24444 54.27 7.04569 54.27 6.80225C54.27 6.55749 54.4675 6.3584 54.7126 6.3584C54.9563 6.3584 55.1544 6.55749 55.1544 6.80225Z" fill="black"/>
<path d="M63.2788 6.80225C63.2788 7.04569 63.08 7.24444 62.8359 7.24444C62.5915 7.24444 62.3931 7.04569 62.3931 6.80225C62.3931 6.55749 62.5915 6.3584 62.8359 6.3584C63.08 6.3584 63.2788 6.55749 63.2788 6.80225Z" fill="black"/>
<path d="M58.2891 5.43926C58.2891 5.6827 58.4875 5.8818 58.7306 5.8818C58.9767 5.8818 59.1741 5.68303 59.1741 5.43926C59.1741 5.1945 58.9767 4.99805 58.7306 4.99805C58.4872 4.99772 58.2891 5.1945 58.2891 5.43926Z" fill="black"/>
<path d="M59.092 3.09475L58.4692 2.46582L54.4071 6.48791L55.0299 7.11684L59.092 3.09475Z" fill="black"/>
<path d="M63.1438 6.48883L59.0815 2.46777L58.4596 3.09609L62.5218 7.11715L63.1438 6.48883Z" fill="black"/>
<path d="M65.4375 7.35074C65.4375 7.5955 65.6346 7.79458 65.879 7.79458C66.1235 7.79458 66.3219 7.5955 66.3219 7.35074C66.3219 7.1073 66.1235 6.9082 65.879 6.9082C65.6346 6.9082 65.4375 7.1073 65.4375 7.35074Z" fill="black"/>
<path d="M62.3003 9.37372C62.3338 9.65297 62.5076 9.83826 62.7642 9.83826C63.0198 9.83826 63.1896 9.63096 63.2268 9.37372C63.2662 9.11911 63.0198 8.91016 62.7642 8.91016C62.5076 8.91016 62.2711 9.11878 62.3003 9.37372Z" fill="black"/>
<path d="M63.1217 9.6521L62.4492 9.07487C64.1027 7.14935 65.7812 6.91707 65.8525 6.9082L65.9642 7.7844L65.9083 7.3468L65.9658 7.7844C65.9524 7.7867 64.5377 8.00189 63.1217 9.6521Z" fill="black"/>
<path d="M63.0926 9.11294L59.0371 5.12793L58.4168 5.75925L62.4723 9.74426L63.0926 9.11294Z" fill="black"/>
<path d="M52.026 7.35074C52.026 7.5955 51.8302 7.79458 51.5841 7.79458C51.3391 7.79458 51.1416 7.5955 51.1416 7.35074C51.1416 7.1073 51.3391 6.9082 51.5841 6.9082C51.8302 6.90787 52.026 7.1073 52.026 7.35074Z" fill="black"/>
<path d="M55.1628 9.37372C55.13 9.65297 54.9555 9.83826 54.6986 9.83826C54.442 9.83826 54.2735 9.63096 54.2354 9.37372C54.1973 9.11911 54.442 8.91016 54.6986 8.91016C54.9555 8.91016 55.1924 9.11878 55.1628 9.37372Z" fill="black"/>
<path d="M54.3422 9.6521C52.9255 8.00189 51.5119 7.7867 51.4961 7.7844L51.6111 6.9082C51.6817 6.91707 53.3605 7.14935 55.0137 9.07487L54.3422 9.6521Z" fill="black"/>
<path d="M59.0425 5.75615L58.4224 5.12598L54.3711 9.11245L54.9912 9.74263L59.0425 5.75615Z" fill="black"/>
<path d="M72.7172 22.54L61.4042 11.4652L61.3799 11.4307C60.7787 10.5591 59.9925 9.66683 58.7244 9.64449C57.6504 9.62741 57.1169 10.2365 56.1536 11.343L56.0751 11.433L45.0075 22.5364L44.3804 21.9122L55.4374 10.8187L55.487 10.7631C56.4956 9.60375 57.2292 8.76074 58.6758 8.76074C58.6965 8.76074 58.7181 8.76074 58.7388 8.76074C60.3992 8.789 61.398 9.90797 62.0826 10.8929L73.3371 21.9086L72.7172 22.54Z" fill="black"/>
<path d="M50.9539 41.1003L48.5484 38.7418L48.1716 38.3945C45.4714 35.9088 41.7714 32.5049 41.6824 29.0241C41.5861 25.2444 42.8385 23.3405 45.339 20.9551L45.9494 21.5954C43.5869 23.8501 42.4771 25.5335 42.5662 29.0018C42.6447 32.1091 46.1862 35.3664 48.7705 37.7444L49.1578 38.1015L51.5728 40.4676L50.9539 41.1003Z" fill="black"/>
<path d="M66.3664 41.4144L65.7583 40.7718L68.9543 37.7444C71.5391 35.3664 75.0794 32.1094 75.1592 29.0018C75.2483 25.5335 74.1382 23.8501 71.7747 21.5954L72.3854 20.9551C74.8875 23.3405 76.1399 25.2444 76.0423 29.0241C75.9539 32.5049 72.254 35.9092 69.5532 38.3945L69.1665 38.7516L66.3664 41.4144Z" fill="black"/>
<path d="M59.0846 51.3126L58.4634 50.6848L71.0695 38.2315C73.9435 35.5776 77.2403 32.1365 77.3221 28.9721C77.4098 25.516 76.665 23.668 74.2595 21.3752L71.8267 19.1306L72.4266 18.4805L74.8653 20.7299C77.4587 23.2021 78.3011 25.2886 78.2062 28.9958C78.1171 32.4703 74.8571 35.9373 71.6809 38.8695L59.0846 51.3126Z" fill="black"/>
<path d="M58.3486 21.5031C58.3486 21.7492 58.5471 21.9466 58.7908 21.9466C59.0363 21.9466 59.234 21.7488 59.234 21.5031C59.234 21.2593 59.0363 21.0605 58.7908 21.0605C58.5471 21.0605 58.3486 21.2435 58.3486 21.5031Z" fill="black"/>
<path d="M54.3545 22.9061C54.3545 23.1508 54.5602 23.3486 54.8131 23.3486C55.0641 23.3486 55.2685 23.1508 55.2685 22.9061C55.2685 22.6613 55.0641 22.4639 54.8131 22.4639C54.5602 22.4639 54.3545 22.6465 54.3545 22.9061Z" fill="black"/>
<path d="M58.3477 32.2804C58.3477 32.5252 58.5461 32.723 58.7905 32.723C59.0353 32.723 59.2321 32.5248 59.2321 32.2804C59.2321 32.036 59.0353 31.8379 58.7905 31.8379C58.5458 31.8379 58.3477 32.0209 58.3477 32.2804Z" fill="black"/>
<path d="M58.3315 34.9803C58.3315 35.225 58.5303 35.4228 58.7744 35.4228C59.0185 35.4228 59.2159 35.2247 59.2159 34.9803C59.2159 34.7359 59.0182 34.5391 58.7744 34.5391C58.5306 34.5391 58.3315 34.7207 58.3315 34.9803Z" fill="black"/>
<path d="M58.4633 51.3126L45.8473 38.8619C42.6816 35.9373 39.4213 32.47 39.3339 28.9958C39.2383 25.289 40.0796 23.2025 42.6678 20.7349L45.1127 18.4805L45.712 19.1306L43.272 21.3801C40.8714 23.668 40.1283 25.5147 40.217 28.9721C40.2975 32.1362 43.5936 35.5776 46.4581 38.2203L59.0842 50.6835L58.4633 51.3126Z" fill="black"/>
<path d="M59.233 21.5029H58.3496V32.2801H59.233V21.5029Z" fill="black"/>
<path d="M55.2666 22.8779H54.3828V33.6551H55.2666V22.8779Z" fill="black"/>
<path d="M63.1357 22.9061C63.1357 23.1508 62.9313 23.3486 62.6797 23.3486C62.4264 23.3486 62.2227 23.1508 62.2227 22.9061C62.2227 22.6613 62.4264 22.4639 62.6797 22.4639C62.9313 22.4639 63.1357 22.6465 63.1357 22.9061Z" fill="black"/>
<path d="M63.1084 22.8779H62.2246V33.6551H63.1084V22.8779Z" fill="black"/>
<path d="M58.9289 34.5644L54.9238 33.1318L54.6258 33.9649L58.631 35.3975L58.9289 34.5644Z" fill="black"/>
<path d="M62.9023 33.9728L62.6045 33.1396L58.5987 34.5715L58.8965 35.4046L62.9023 33.9728Z" fill="black"/>
<path d="M58.5034 37.8891L53.6993 33.0781C53.6247 33.0065 53.5423 32.9234 53.4575 32.8383C53.0419 32.4155 52.5698 31.9398 52.1135 31.9398C51.6158 31.9398 51.1621 32.4181 51.1621 32.9447H50.2783C50.2783 31.9384 51.1364 31.0547 52.1138 31.0547C52.9394 31.0547 53.5774 31.6986 54.0883 32.2167C54.1671 32.2982 54.245 32.376 54.3199 32.4477L59.1309 37.2636L58.5034 37.8891Z" fill="black"/>
<path d="M58.9914 37.8891L58.3652 37.2636L63.1723 32.4529C63.2521 32.3764 63.3287 32.2982 63.4089 32.218C63.9201 31.6986 64.5558 31.0547 65.3817 31.0547C66.3594 31.0547 67.2192 31.9381 67.2192 32.9447H66.3348C66.3348 32.4181 65.8811 31.9398 65.382 31.9398C64.9254 31.9398 64.4546 32.4171 64.0383 32.8383C63.9522 32.9234 63.8714 33.0065 63.7929 33.083L58.9914 37.8891Z" fill="black"/>
<path d="M54.6752 43.1324C52.2911 43.1324 50.2778 41.1859 50.2778 38.8779H51.1609C51.1609 40.7036 52.7711 42.2496 54.6749 42.2496C56.6122 42.2496 58.1879 40.7788 58.1879 38.9696H59.0729C59.0736 41.2647 57.1001 43.1324 54.6752 43.1324Z" fill="black"/>
<path d="M62.8575 43.1325C60.4526 43.1325 58.4976 41.2648 58.4976 38.9697H59.3806C59.3806 40.7792 60.9399 42.2497 62.8578 42.2497C64.7751 42.2497 66.3344 40.7644 66.3344 38.9424H67.2188C67.2188 41.2536 65.2623 43.1325 62.8575 43.1325Z" fill="black"/>
<path d="M59.4109 37.3438H58.084V39.9319H59.4109V37.3438Z" fill="black"/>
<path d="M51.1616 32.917H50.2778V38.9699H51.1616V32.917Z" fill="black"/>
<path d="M67.2184 32.917H66.334V38.9699H67.2184V32.917Z" fill="black"/>
<path d="M58.7609 42.7279C58.0237 42.7279 57.3887 42.3454 57.0532 42.0192L57.6686 41.3865L57.3607 41.7015L57.6666 41.3838C57.775 41.4854 58.7498 42.3543 59.7817 41.3789L60.3888 42.0228C59.8405 42.5422 59.2754 42.7279 58.7609 42.7279Z" fill="black"/>
<path d="M58.7334 46.1748C57.663 46.1748 56.9021 46.0365 56.8545 46.0276C53.6483 45.3466 53.4299 42.7486 53.4282 42.7226L54.31 42.6618L53.8698 42.6914L54.31 42.6572C54.3169 42.7387 54.5019 44.6248 57.027 45.1613C57.0322 45.1613 58.6463 45.4517 60.4286 45.1574C63.1304 44.7076 63.3131 42.7436 63.3197 42.6618L64.2018 42.72C64.2014 42.7472 63.9876 45.4629 60.5738 46.0286C59.9161 46.1393 59.2827 46.1748 58.7334 46.1748Z" fill="black"/>
<path d="M47.7661 16.4935C45.5212 14.565 45.4985 13.0078 45.4985 12.9434L46.3823 12.9447L45.9391 12.9434L46.3823 12.9375C46.3823 12.9497 46.4424 14.1895 48.3423 15.8223L47.7661 16.4935Z" fill="black"/>
<path d="M71.2637 12.9429C71.2637 13.1876 71.4624 13.3877 71.7075 13.3877C71.9536 13.3877 72.1523 13.1876 72.1523 12.9429C72.1523 12.6981 71.9536 12.498 71.7075 12.498C71.4628 12.498 71.2637 12.682 71.2637 12.9429Z" fill="black"/>
<path d="M69.1494 16.1574C69.1494 16.4048 69.3492 16.6022 69.5946 16.6022C69.84 16.6022 70.0387 16.4044 70.0387 16.1574C70.0387 15.9126 69.8403 15.7139 69.5946 15.7139C69.3488 15.7139 69.1494 15.8955 69.1494 16.1574Z" fill="black"/>
<path d="M69.8827 16.4931L69.3062 15.8223C71.2139 14.1832 71.2658 12.9558 71.2658 12.9447L72.1509 12.9434C72.1509 13.0071 72.1279 14.5647 69.8827 16.4931Z" fill="black"/>
<path d="M48.2666 16.559L47.6587 15.9199L46.3465 17.1682L46.9544 17.8073L48.2666 16.559Z" fill="black"/>
<path d="M46.918 17.1042L45.6416 15.8457L45.0209 16.4753L46.2973 17.7337L46.918 17.1042Z" fill="black"/>
<path d="M33.5902 28.5801L32.9634 27.9546L45.0369 15.8252L45.6628 16.4491L33.5902 28.5801Z" fill="black"/>
<path d="M36.9928 32.5943L32.9834 28.5796L33.6083 27.9541L37.617 31.9697L36.9928 32.5943Z" fill="black"/>
<path d="M37.6242 32.5938L36.9902 31.9785L35.7015 33.3063L36.3355 33.9216L37.6242 32.5938Z" fill="black"/>
<path d="M38.9909 33.9136L38.3657 33.2881L37.0047 34.6483L37.6299 35.2738L38.9909 33.9136Z" fill="black"/>
<path d="M56.0257 56.5399C56.005 56.5399 55.9817 56.5399 55.9607 56.5363C55.5881 56.5205 55.2537 56.3609 55.0185 56.0862L41.7379 42.8109L30.7774 31.8225C30.5051 31.5853 30.3464 31.2515 30.3336 30.878C30.3195 30.5123 30.4453 30.1513 30.6894 29.8645C30.9325 29.5754 31.2666 29.3901 31.6287 29.3444C32.0078 29.2938 32.3721 29.3999 32.6524 29.6374L32.6823 29.6657L36.2794 33.3269L35.6502 33.9461L32.0699 30.3021C31.9808 30.2341 31.8655 30.2045 31.7433 30.2203C31.5994 30.239 31.4644 30.3142 31.3648 30.4341C31.263 30.5537 31.2104 30.6986 31.2173 30.8435C31.2219 30.9719 31.2742 31.0856 31.3639 31.1622L31.3918 31.1881L42.3638 42.1854L55.6837 55.505C55.7583 55.595 55.8707 55.6473 56.0004 55.6535C56.1463 55.6571 56.2919 55.6092 56.4098 55.5093C56.6424 55.3171 56.7006 55.0047 56.5478 54.8056L53.063 51.3284L53.6863 50.7032L57.217 54.2257C57.694 54.8006 57.5863 55.6798 56.9762 56.1874C56.7042 56.4164 56.3694 56.5399 56.0257 56.5399Z" fill="black"/>
<path d="M31.9653 26.9987C31.6213 26.9987 31.2859 26.8762 31.0142 26.6488C30.4038 26.1396 30.2964 25.2595 30.7734 24.6859L30.8016 24.6563L34.4349 21.0323L35.0611 21.6588L31.4442 25.2644C31.2898 25.4648 31.35 25.7776 31.5799 25.9691C31.6992 26.0693 31.8493 26.1199 31.9896 26.115C32.1191 26.1074 32.2311 26.0555 32.308 25.9642L32.3349 25.9346L45.627 12.6445L46.2535 13.2697L32.9739 26.5467C32.7373 26.8197 32.4039 26.9803 32.031 26.9964C32.0093 26.9987 31.9863 26.9987 31.9653 26.9987Z" fill="black"/>
<path d="M34.7124 22.0059L34.0869 21.3807L55.0407 0.451922C55.2752 0.178584 55.609 0.0192477 55.9819 0.00183557C56.3462 -0.0168907 56.7089 0.108282 56.9994 0.349096C57.2895 0.590238 57.477 0.924022 57.526 1.28606C57.5782 1.66289 57.4761 2.02756 57.2398 2.31076L57.2139 2.34163L51.8973 7.66286L51.2724 7.03734L56.5706 1.73221C56.639 1.64318 56.6675 1.52819 56.6508 1.40598C56.6307 1.26274 56.5532 1.12903 56.4336 1.02915C56.314 0.928951 56.1734 0.879671 56.024 0.884599C55.8945 0.890841 55.7815 0.944063 55.7053 1.03408L55.6777 1.06497L34.7124 22.0059Z" fill="black"/>
<path d="M36.2772 28.5368L35.6514 27.9117L41.1444 22.4199L41.7686 23.0454L36.2772 28.5368Z" fill="black"/>
<path d="M42.755 34.3905L36.2793 27.9111L35.6535 28.5366L42.1293 35.016L42.755 34.3905Z" fill="black"/>
<path d="M53.0515 48.6088L38.2827 33.9156L38.9056 33.2891L53.6738 47.9797L53.0515 48.6088Z" fill="black"/>
<path d="M52.3942 49.3578L37.5825 34.6338L36.9597 35.2603L51.7714 49.9843L52.3942 49.3578Z" fill="black"/>
<path d="M58.3916 2.78106C58.3916 3.02713 58.5894 3.2259 58.8341 3.2259C59.0776 3.2259 59.2754 3.02713 59.2754 2.78106C59.2754 2.53762 59.0776 2.33984 58.8341 2.33984C58.5894 2.33984 58.3916 2.53762 58.3916 2.78106Z" fill="black"/>
<path d="M58.4146 13.5959C58.4146 13.8469 58.6156 14.0483 58.8663 14.0483C59.1166 14.0483 59.32 13.8469 59.32 13.5959C59.32 13.3463 59.1166 13.1436 58.8663 13.1436C58.6156 13.1436 58.4146 13.3463 58.4146 13.5959Z" fill="black"/>
<path d="M71.729 18.7876C71.729 19.0337 71.9291 19.2324 72.1742 19.2324C72.4193 19.2324 72.6183 19.0333 72.6183 18.7876C72.6183 18.5428 72.4196 18.3438 72.1742 18.3438C71.9288 18.3438 71.729 18.5267 71.729 18.7876Z" fill="black"/>
<path d="M71.2241 12.9429C71.2241 13.1876 71.4225 13.3877 71.668 13.3877C71.9137 13.3877 72.1128 13.1876 72.1128 12.9429C72.1128 12.6981 71.914 12.498 71.668 12.498C71.4225 12.498 71.2241 12.682 71.2241 12.9429Z" fill="black"/>
<path d="M69.1099 16.1574C69.1099 16.4048 69.308 16.6022 69.5531 16.6022C69.7991 16.6022 69.9982 16.4044 69.9982 16.1574C69.9982 15.9126 69.7991 15.7139 69.5531 15.7139C69.308 15.7139 69.1099 15.8955 69.1099 16.1574Z" fill="black"/>
<path d="M70.5132 17.4946C70.5132 17.7407 70.7123 17.9395 70.9577 17.9395C71.2024 17.9395 71.4015 17.7407 71.4015 17.4946C71.4015 17.2486 71.2028 17.0498 70.9577 17.0498C70.7123 17.0498 70.5132 17.2325 70.5132 17.4946Z" fill="black"/>
<path d="M71.8394 16.1574C71.8394 16.4048 72.0388 16.6022 72.2832 16.6022C72.5283 16.6022 72.728 16.4044 72.728 16.1574C72.728 15.9126 72.5286 15.7139 72.2832 15.7139C72.0391 15.7139 71.8394 15.8955 71.8394 16.1574Z" fill="black"/>
<path d="M79.8589 32.2827C79.8589 32.5272 80.0583 32.7266 80.3037 32.7266C80.5488 32.7266 80.7486 32.5275 80.7486 32.2827C80.7486 32.0367 80.5491 31.8379 80.3037 31.8379C80.0586 31.8376 79.8589 32.0206 79.8589 32.2827Z" fill="black"/>
<path d="M78.5332 33.6372C78.5332 33.8807 78.7316 34.082 78.9771 34.082C79.2231 34.082 79.4219 33.8807 79.4219 33.6372C79.4219 33.3911 79.2235 33.1924 78.9771 33.1924C78.732 33.1921 78.5332 33.375 78.5332 33.6372Z" fill="black"/>
<path d="M79.8589 34.9829C79.8589 35.2277 80.0583 35.4268 80.3037 35.4268C80.5488 35.4268 80.7486 35.2277 80.7486 34.9829C80.7486 34.7382 80.5491 34.5381 80.3037 34.5381C80.0586 34.5378 79.8589 34.7231 79.8589 34.9829Z" fill="black"/>
<path d="M58.3701 16.2611C58.3701 16.518 58.5781 16.7256 58.835 16.7256C59.0912 16.7256 59.2992 16.518 59.2992 16.2611C59.2992 16.0039 59.0912 15.7959 58.835 15.7959C58.5781 15.7959 58.3701 16.0039 58.3701 16.2611Z" fill="black"/>
<path d="M62.4546 6.80225C62.4546 7.04569 62.6524 7.24444 62.8961 7.24444C63.1406 7.24444 63.3397 7.04569 63.3397 6.80225C63.3397 6.55749 63.1409 6.3584 62.8961 6.3584C62.652 6.3584 62.4546 6.55749 62.4546 6.80225Z" fill="black"/>
<path d="M59.3198 5.43926C59.3198 5.6827 59.1217 5.8818 58.877 5.8818C58.6329 5.8818 58.4331 5.68303 58.4331 5.43926C58.4331 5.1945 58.6325 4.99805 58.877 4.99805C59.1217 4.99772 59.3198 5.1945 59.3198 5.43926Z" fill="black"/>
<path d="M63.2087 6.48786L59.1465 2.4668L58.5236 3.09605L62.5858 7.11711L63.2087 6.48786Z" fill="black"/>
<path d="M55.082 7.11716L54.4614 6.48802L58.5224 2.4668L59.145 3.09593L55.082 7.11716Z" fill="black"/>
<path d="M52.1717 7.35074C52.1717 7.5955 51.9732 7.79458 51.7291 7.79458C51.4854 7.79458 51.2866 7.5955 51.2866 7.35074C51.2866 7.1073 51.485 6.9082 51.7291 6.9082C51.9732 6.90787 52.1717 7.1073 52.1717 7.35074Z" fill="black"/>
<path d="M55.3078 9.37372C55.2746 9.65297 55.1005 9.83826 54.8436 9.83826C54.5896 9.83826 54.4188 9.63096 54.3804 9.37372C54.3423 9.11911 54.5896 8.91016 54.8436 8.91016C55.1005 8.91016 55.3377 9.11878 55.3078 9.37372Z" fill="black"/>
<path d="M54.4873 9.6521C53.0714 8.00189 51.6564 7.7867 51.6426 7.7844L51.7562 6.9082C51.8279 6.91707 53.506 7.14935 55.1589 9.07487L54.4873 9.6521Z" fill="black"/>
<path d="M59.1918 5.75523L58.5713 5.125L54.5205 9.1133L55.141 9.74354L59.1918 5.75523Z" fill="black"/>
<path d="M65.582 7.35074C65.582 7.5955 65.7805 7.79458 66.0246 7.79458C66.2693 7.79458 66.4668 7.5955 66.4668 7.35074C66.4668 7.1073 66.2693 6.9082 66.0246 6.9082C65.7805 6.90787 65.582 7.1073 65.582 7.35074Z" fill="black"/>
<path d="M62.446 9.37372C62.4785 9.65297 62.6539 9.83826 62.9095 9.83826C63.1651 9.83826 63.3346 9.63096 63.3734 9.37372C63.4109 9.11911 63.1651 8.91016 62.9095 8.91016C62.6539 8.91016 62.4157 9.11878 62.446 9.37372Z" fill="black"/>
<path d="M63.2662 9.6521L62.5957 9.07487C64.2489 7.14935 65.9267 6.91707 65.9976 6.9082L66.1084 7.7844L66.0532 7.3468L66.1116 7.7844C66.0975 7.7867 64.6829 8.00189 63.2662 9.6521Z" fill="black"/>
<path d="M63.2407 9.11293L59.1875 5.12793L58.5677 5.75836L62.6209 9.74336L63.2407 9.11293Z" fill="black"/>
<path d="M44.8911 22.54L44.2725 21.9086L55.5253 10.8929C56.2116 9.90764 57.2104 8.789 58.8688 8.76074C58.8911 8.76074 58.9125 8.76074 58.9335 8.76074C60.3794 8.76074 61.1117 9.60146 62.1203 10.7605L62.1702 10.8187L73.2266 21.9122L72.6007 22.5351L61.5151 11.4107L61.454 11.3417C60.4907 10.2362 59.9667 9.62839 58.8849 9.64416C57.6161 9.6665 56.8293 10.5588 56.229 11.4304L56.1742 11.4944L44.8911 22.54Z" fill="black"/>
<path d="M66.6559 41.1003L66.0356 40.4676L68.4421 38.109L68.8377 37.7444C71.4222 35.3664 74.9622 32.1094 75.0423 29.0018C75.1314 25.5322 74.0222 23.8488 71.6591 21.5954L72.2685 20.9551C74.7706 23.3405 76.023 25.2431 75.9261 29.0241C75.837 32.5049 72.1378 35.9092 69.4369 38.3945L69.0496 38.7516L66.6559 41.1003Z" fill="black"/>
<path d="M58.5243 51.3126L45.9179 38.8619C42.7515 35.9373 39.4918 32.47 39.4031 28.9958C39.3082 25.289 40.1495 23.2025 42.739 20.7349L45.1826 18.4805L45.7825 19.1306L43.3425 21.3801C40.942 23.668 40.1985 25.5147 40.2869 28.9744C40.3683 32.1362 43.6642 35.5776 46.5283 38.2203L59.1452 50.6844L58.5243 51.3126Z" fill="black"/>
<path d="M59.2596 21.5031C59.2596 21.7492 59.0612 21.9466 58.8167 21.9466C58.5713 21.9466 58.3735 21.7488 58.3735 21.5031C58.3735 21.2593 58.5713 21.0605 58.8167 21.0605C59.0615 21.0605 59.2596 21.2435 59.2596 21.5031Z" fill="black"/>
<path d="M63.252 22.9061C63.252 23.1508 63.049 23.3486 62.7967 23.3486C62.544 23.3486 62.3394 23.1508 62.3394 22.9061C62.3394 22.6613 62.544 22.4639 62.7967 22.4639C63.049 22.4639 63.252 22.6465 63.252 22.9061Z" fill="black"/>
<path d="M59.2602 32.2804C59.2602 32.5252 59.0621 32.723 58.817 32.723C58.5752 32.723 58.3755 32.5248 58.3755 32.2804C58.3755 32.036 58.5749 31.8379 58.817 31.8379C59.0621 31.8379 59.2602 32.0209 59.2602 32.2804Z" fill="black"/>
<path d="M59.2754 34.9803C59.2754 35.225 59.0776 35.4228 58.8348 35.4228C58.5907 35.4228 58.3916 35.2247 58.3916 34.9803C58.3916 34.7359 58.5904 34.5391 58.8348 34.5391C59.0776 34.5391 59.2754 34.7207 59.2754 34.9803Z" fill="black"/>
<path d="M59.1452 51.3126L58.5239 50.6835L71.1389 38.2315C74.0129 35.5776 77.3097 32.1365 77.3902 28.9721C77.4789 25.5147 76.7354 23.668 74.3286 21.3752L71.8961 19.1306L72.4951 18.4805L74.9334 20.7299C77.5275 23.2021 78.3699 25.2886 78.2756 28.9958C78.1865 32.4703 74.9272 35.9373 71.749 38.8695L59.1452 51.3126Z" fill="black"/>
<path d="M59.2596 21.5029H58.3755V32.2801H59.2596V21.5029Z" fill="black"/>
<path d="M63.2256 22.8779H62.3408V33.6551H63.2256V22.8779Z" fill="black"/>
<path d="M62.9887 33.9581L62.6899 33.125L58.6858 34.5607L58.9845 35.3938L62.9887 33.9581Z" fill="black"/>
<path d="M59.0113 34.5665L55.0059 33.1338L54.7079 33.9669L58.7133 35.3995L59.0113 34.5665Z" fill="black"/>
<path d="M59.1026 37.8891L58.478 37.2636L63.2835 32.4529C63.3646 32.3764 63.4412 32.2982 63.5203 32.218C64.0319 31.6986 64.6682 31.0547 65.4951 31.0547C66.4732 31.0547 67.332 31.9381 67.332 32.9447H66.4479C66.4479 32.4181 65.9929 31.9398 65.4955 31.9398C65.0391 31.9398 64.5657 32.4171 64.1508 32.8383C64.0663 32.9234 63.9836 33.0065 63.9054 33.083L59.1026 37.8891Z" fill="black"/>
<path d="M58.6177 37.8891L53.8116 33.0781C53.7367 33.0065 53.6552 32.9234 53.5708 32.8383C53.1542 32.4155 52.6828 31.9398 52.2268 31.9398C51.7291 31.9398 51.274 32.4181 51.274 32.9447H50.3906C50.3906 31.9384 51.2491 31.0547 52.2271 31.0547C53.0534 31.0547 53.6897 31.6986 54.2006 32.2167C54.2801 32.2982 54.3576 32.376 54.4322 32.4477L59.2439 37.2636L58.6177 37.8891Z" fill="black"/>
<path d="M62.9324 43.1324C60.5078 43.1324 58.5347 41.2647 58.5347 38.9696H59.4181C59.4181 40.7791 60.9957 42.2496 62.9321 42.2496C64.8369 42.2496 66.447 40.7036 66.447 38.8779H67.3311C67.3314 41.1859 65.3172 43.1324 62.9324 43.1324Z" fill="black"/>
<path d="M54.7506 43.1325C52.3474 43.1325 50.3906 41.2536 50.3906 38.9424H51.274C51.274 40.7644 52.8329 42.2497 54.7506 42.2497C56.6679 42.2497 58.2271 40.7789 58.2271 38.9697H59.1105C59.1108 41.2648 57.1544 43.1325 54.7506 43.1325Z" fill="black"/>
<path d="M59.5244 37.3438H58.1978V39.9319H59.5244V37.3438Z" fill="black"/>
<path d="M67.3313 32.917H66.4473V38.9699H67.3313V32.917Z" fill="black"/>
<path d="M58.8475 42.7275C58.3317 42.7275 57.7682 42.5419 57.2183 42.0228L57.826 41.3789C58.8882 42.3826 59.8968 41.4259 59.9388 41.3861L60.5552 42.0189C60.2197 42.3451 59.5847 42.7275 58.8475 42.7275Z" fill="black"/>
<path d="M58.8729 46.1745C58.3239 46.1745 57.6921 46.1387 57.0337 46.0286C53.6196 45.4626 53.4067 42.7469 53.4058 42.72L54.2889 42.6631C54.2954 42.7436 54.4771 44.7076 57.179 45.1574C58.9688 45.453 60.5753 45.1613 60.5921 45.1574C63.105 44.6245 63.2916 42.7384 63.2975 42.6572L64.1803 42.7226C64.1777 42.7486 63.9595 45.3466 60.7652 46.0266C60.7103 46.0339 59.9458 46.1745 58.8729 46.1745Z" fill="black"/>
<path d="M69.8419 16.4931L69.2656 15.8223C71.1741 14.1832 71.2256 12.9558 71.2256 12.9447L72.11 12.9434C72.11 13.0071 72.0877 14.5647 69.8419 16.4931Z" fill="black"/>
<path d="M70.6522 17.8138L69.3394 16.5667L69.9491 15.9268L71.2613 17.1748L70.6522 17.8138Z" fill="black"/>
<path d="M72.5942 16.4749L71.9736 15.8457L70.6981 17.1037L71.3187 17.7329L72.5942 16.4749Z" fill="black"/>
<path d="M84.0187 28.5801L71.9448 16.4491L72.572 15.8252L84.6442 27.9546L84.0187 28.5801Z" fill="black"/>
<path d="M84.6235 28.5755L83.9976 27.9512L79.9896 31.9693L80.6155 32.5937L84.6235 28.5755Z" fill="black"/>
<path d="M81.9046 33.2928L80.6167 31.9668L79.9823 32.583L81.2703 33.909L81.9046 33.2928Z" fill="black"/>
<path d="M80.6003 34.6613L79.2417 33.2998L78.6156 33.9245L79.9742 35.286L80.6003 34.6613Z" fill="black"/>
<path d="M61.5824 56.5404C61.2391 56.5404 60.9047 56.4172 60.631 56.1882C60.3419 55.9471 60.1546 55.6136 60.1047 55.2526C60.0524 54.8757 60.1543 54.5107 60.3921 54.2262L60.4181 54.198L63.9219 50.7037L64.5458 51.3289L61.0604 54.8061C60.9924 54.8938 60.9651 55.0101 60.9812 55.131C61.0009 55.2769 61.0775 55.4103 61.1977 55.5098C61.3173 55.6097 61.4664 55.6576 61.6084 55.654C61.7372 55.6478 61.8495 55.5959 61.9244 55.5055L61.9527 55.476L75.246 42.1859L86.2443 31.1627C86.3343 31.0861 86.3875 30.9724 86.3915 30.844C86.3977 30.6994 86.3445 30.5545 86.2443 30.4346C86.1438 30.3147 86.0087 30.2392 85.8652 30.2208C85.7429 30.205 85.628 30.2346 85.5396 30.3026L81.9596 33.9466L81.3285 33.3274L84.9558 29.6379C85.2373 29.4007 85.6023 29.2956 85.9782 29.3449C86.3415 29.3909 86.676 29.5762 86.9201 29.865C87.1635 30.1521 87.289 30.5128 87.2749 30.8785C87.2608 31.2517 87.1037 31.5855 86.8304 31.823L75.8716 42.8104L62.5907 56.0867C62.3548 56.361 62.0213 56.5207 61.6485 56.5368C61.6251 56.5404 61.6051 56.5404 61.5824 56.5404Z" fill="black"/>
<path d="M85.643 26.9991C85.621 26.9991 85.599 26.9991 85.5783 26.9964C85.2044 26.9803 84.8713 26.8197 84.6347 26.5467L71.3555 13.2697L71.9803 12.6445L85.2993 25.9642C85.3762 26.0555 85.4879 26.1078 85.6177 26.115C85.7635 26.1199 85.9091 26.0693 86.029 25.9691C86.1476 25.8686 86.2248 25.7342 86.2442 25.592C86.2613 25.4697 86.2327 25.3535 86.165 25.2644L82.5472 21.6575L83.1724 21.0323L86.8332 24.6859C87.0704 24.9701 87.1723 25.3334 87.1207 25.7119C87.0708 26.0739 86.8838 26.4064 86.5937 26.6488C86.3221 26.8765 85.9863 26.9991 85.643 26.9991Z" fill="black"/>
<path d="M82.897 22.0062L61.9153 1.05018L61.9028 1.03408C61.8279 0.944063 61.7152 0.890841 61.5838 0.884599C61.4376 0.879671 61.2944 0.92928 61.1748 1.02915C61.0549 1.12903 60.9777 1.26274 60.9586 1.40597C60.9412 1.52852 60.9698 1.64351 61.0385 1.73221L66.3373 7.03734L65.7112 7.66286L60.3683 2.31076C60.1307 2.02756 60.0295 1.66289 60.0818 1.28606C60.1307 0.923694 60.319 0.590233 60.6087 0.349091C60.8988 0.108277 61.2566 -0.0168907 61.6256 0.00183563C61.9984 0.0189193 62.3326 0.178584 62.5681 0.451922L83.5212 21.3807L82.897 22.0062Z" fill="black"/>
<path d="M81.956 27.9106L76.4644 22.4189L75.8388 23.0445L81.3304 28.5362L81.956 27.9106Z" fill="black"/>
<path d="M81.9474 28.5347L81.3208 27.9092L74.8489 34.392L75.4755 35.0175L81.9474 28.5347Z" fill="black"/>
<path d="M64.5586 48.6088L63.9341 47.9797L78.7022 33.2891L79.3258 33.9156L64.5586 48.6088Z" fill="black"/>
<path d="M80.6458 35.2574L80.0225 34.6309L65.217 49.3611L65.8403 49.9876L80.6458 35.2574Z" fill="black"/>
<path d="M52.1217 20.2369C51.7547 20.2369 51.3874 20.0901 51.1184 19.8009L49.0939 17.816L49.7126 17.1842L51.7649 19.1951C51.9426 19.3929 52.2479 19.4077 52.444 19.23C52.6378 19.0542 52.6569 18.7552 52.4864 18.5588L48.5226 14.6913C47.8468 14.0484 47.446 13.1896 47.3974 12.2759C47.3491 11.3518 47.6635 10.4838 48.2851 9.83134C49.5618 8.48896 51.7465 8.48895 53.1546 9.8287L59.0488 15.9318L58.4144 16.5462L52.5314 10.4549C51.4889 9.46469 49.8653 9.45254 48.9248 10.4388C48.4734 10.9158 48.2444 11.5499 48.2805 12.2283C48.3163 12.9156 48.6199 13.5631 49.136 14.053L53.1339 17.9562C53.6395 18.5154 53.5952 19.3804 53.0373 19.8847C52.7768 20.1209 52.4496 20.2369 52.1217 20.2369Z" fill="black"/>
<path d="M56.0817 18.8073C56.0591 18.8073 56.0344 18.8073 56.0121 18.805C55.6527 18.7876 55.3212 18.6319 55.0761 18.3687L49.6103 12.9697C49.1327 12.3885 49.2171 11.5271 49.7996 11.0487C50.3669 10.5816 51.2034 10.6506 51.6866 11.1956L57.0913 16.5257C57.3364 16.7951 57.4619 17.1446 57.4432 17.5096C57.4251 17.873 57.2664 18.2091 56.9954 18.4542C56.7431 18.6825 56.4198 18.8073 56.0817 18.8073ZM50.2828 12.3934L55.7233 17.7639C55.8094 17.8602 55.9273 17.916 56.0564 17.9223C56.1859 17.9272 56.3081 17.8852 56.4034 17.7988C56.4993 17.7123 56.5548 17.5934 56.5607 17.465C56.5673 17.3414 56.5243 17.2202 56.4431 17.1262L50.9636 11.7245C50.7901 11.5885 50.5391 11.5849 50.3614 11.7308C50.1609 11.8954 50.1281 12.1894 50.2828 12.3934Z" fill="black"/>
<path d="M50.692 29.5735C50.6684 29.5735 50.645 29.5735 50.622 29.5722C50.262 29.5535 49.9305 29.3981 49.6864 29.1343L43.7524 23.264L44.3743 22.6339L50.3336 28.5314C50.4197 28.6267 50.5389 28.6822 50.6667 28.6884C50.7942 28.6957 50.918 28.6513 51.0136 28.5649C51.2075 28.3895 51.2246 28.0905 51.0537 27.8924L46.1632 23.0719L46.7835 22.4414L51.7026 27.2941C52.2075 27.8503 52.1638 28.7157 51.6076 29.2197C51.3527 29.4496 51.0301 29.5735 50.692 29.5735Z" fill="black"/>
<path d="M66.8702 29.5738C66.5305 29.5738 66.2099 29.4503 65.9559 29.22C65.3987 28.7157 65.3547 27.8507 65.86 27.2945L65.8764 27.2744L70.7778 22.4414L71.3994 23.0719L66.5082 27.8924C66.3374 28.0905 66.3551 28.3895 66.5496 28.5662C66.6445 28.6516 66.7674 28.696 66.8952 28.6888C67.0243 28.6825 67.1429 28.627 67.2293 28.5317L67.2454 28.513L73.1879 22.6343L73.8098 23.2644L67.8746 29.1346C67.6331 29.3981 67.3009 29.5535 66.9405 29.5725C66.9172 29.5738 66.8939 29.5738 66.8702 29.5738Z" fill="black"/>
<path d="M48.0794 32.2807C47.744 32.2807 47.4243 32.1594 47.1723 31.9344L47.1533 31.9173L42.0078 26.7676L42.6337 26.1424L47.7683 31.2823C47.8626 31.3637 47.9831 31.4018 48.108 31.3959C48.2358 31.3884 48.3534 31.3319 48.4395 31.2353C48.5249 31.139 48.5683 31.0161 48.5607 30.8877C48.5535 30.7602 48.4966 30.6416 48.4001 30.5562L48.379 30.5378L42.7115 24.796L43.3407 24.1758L49.0003 29.906C49.2664 30.1472 49.4221 30.477 49.4438 30.8368C49.4645 31.1998 49.342 31.551 49.1005 31.823C48.8574 32.095 48.5226 32.2567 48.1602 32.2777C48.132 32.2807 48.1054 32.2807 48.0794 32.2807Z" fill="black"/>
<path d="M69.5519 32.2803C69.5266 32.2803 69.4981 32.2803 69.4718 32.2777C69.1074 32.2567 68.7736 32.0947 68.5315 31.823C68.2887 31.551 68.1668 31.2001 68.1879 30.8368C68.2076 30.477 68.3666 30.1468 68.6314 29.906L74.2907 24.1758L74.9192 24.796L69.2306 30.5562C69.1357 30.6416 69.0792 30.7602 69.0716 30.8877C69.0644 31.0161 69.1058 31.1387 69.1929 31.2353C69.2779 31.3315 69.3946 31.3884 69.5234 31.3959C69.6456 31.4022 69.7675 31.3637 69.8621 31.2823L74.9983 26.1424L75.6239 26.7676L70.459 31.9344C70.207 32.1591 69.8877 32.2803 69.5519 32.2803Z" fill="black"/>
<path d="M61.3569 18.8072C61.0172 18.8072 60.6953 18.6824 60.442 18.4537C60.1712 18.2086 60.0129 17.8725 59.9938 17.5092C59.9761 17.1442 60.1016 16.7946 60.345 16.5252L60.3641 16.5065L65.753 11.1928C65.9813 10.9369 66.2938 10.7776 66.6381 10.7441C67.0008 10.7082 67.3559 10.8157 67.6381 11.0483C67.92 11.2792 68.0948 11.6058 68.1306 11.9691C68.1654 12.3322 68.0583 12.6873 67.8264 12.9702L67.7948 13.0021L62.3603 18.3666C62.1178 18.6311 61.7857 18.7868 61.4259 18.8042C61.4029 18.8072 61.3796 18.8072 61.3569 18.8072ZM60.9942 17.1261C60.9127 17.2201 60.871 17.341 60.8763 17.4648C60.8835 17.5933 60.9394 17.7119 61.0346 17.7986C61.1292 17.885 61.2541 17.9274 61.3822 17.9221C61.5097 17.9159 61.6283 17.8604 61.715 17.7638L61.7321 17.7467L67.1558 12.3933C67.2291 12.2957 67.2623 12.1768 67.2508 12.0559C67.2376 11.9271 67.1765 11.8134 67.078 11.7306C66.9787 11.6488 66.8536 11.6107 66.7248 11.6229C66.6318 11.6327 66.5441 11.6676 66.4728 11.7244L60.9942 17.1261Z" fill="black"/>
<path d="M65.3161 20.2371C64.9896 20.2371 64.6617 20.1211 64.4005 19.8849C63.842 19.3793 63.801 18.5156 64.3043 17.9564L64.325 17.9367L68.2989 14.0581C68.8189 13.5636 69.1212 12.9158 69.158 12.2285C69.1945 11.5501 68.9655 10.916 68.5121 10.439C68.0637 9.96688 67.4434 9.70602 66.7673 9.70602C66.7646 9.70602 66.7617 9.70602 66.7597 9.70602C66.0747 9.70832 65.415 9.97673 64.9015 10.4613L59.1499 16.5638L58.5063 15.958L64.2832 9.82823C64.9626 9.18201 65.8411 8.82457 66.7561 8.82227C66.7597 8.82227 66.763 8.82227 66.7673 8.82227C67.6875 8.82227 68.5335 9.17938 69.1534 9.83086C69.774 10.4833 70.0907 11.3513 70.0404 12.2755C69.9918 13.1891 69.592 14.0482 68.9126 14.6944L64.9525 18.5583C64.7816 18.7548 64.7997 19.0541 64.9939 19.2295C65.1906 19.4076 65.4952 19.3924 65.6726 19.1947L65.7018 19.1664L67.8859 17.1591L68.4838 17.8102L66.3132 19.8054C66.0465 20.0925 65.6825 20.2371 65.3161 20.2371Z" fill="black"/>
<path d="M59.0477 13.2798L56.3394 10.4404L55.6994 11.0509L58.4077 13.8902L59.0477 13.2798Z" fill="black"/>
<path d="M61.8405 11.0812L61.2104 10.4619L58.4607 13.2596L59.0907 13.8788L61.8405 11.0812Z" fill="black"/>
<path d="M54.8126 22.4639H44.5381V23.3486H54.8126V22.4639Z" fill="black"/>
<path d="M72.9538 22.4639H62.6797V23.3486H72.9538V22.4639Z" fill="black"/>
<path d="M55.1326 27.9532L49.7661 22.5928L49.1409 23.2187L54.5074 28.5791L55.1326 27.9532Z" fill="black"/>
<path d="M55.1329 25.3914L52.4512 22.5918L51.8121 23.204L54.4938 26.0036L55.1329 25.3914Z" fill="black"/>
<path d="M65.4867 20.2373C65.1598 20.2373 64.8329 20.1213 64.5717 19.8851C64.3013 19.6404 64.1417 19.3053 64.1236 18.9406C64.1055 18.5759 64.2297 18.2274 64.4758 17.9567L64.4942 17.9369L68.4687 14.0583C69.5289 13.0497 69.6229 11.4281 68.6836 10.4392C67.7427 9.45163 66.1191 9.4651 65.0642 10.4701L59.195 16.5466L58.5586 15.9322L64.4403 9.84061C65.8622 8.48837 68.0472 8.48837 69.3233 9.83075C70.5999 11.1705 70.4915 13.3536 69.0821 14.6947L65.1226 18.5585C65.0412 18.6538 65.0001 18.7724 65.006 18.8962C65.0126 19.0257 65.0691 19.1433 65.164 19.23C65.3612 19.4081 65.665 19.393 65.8444 19.1952L65.8615 19.1768L67.8961 17.1843L68.5151 17.816L66.4887 19.801C66.2216 20.0901 65.8546 20.2373 65.4867 20.2373Z" fill="black"/>
<path d="M61.5262 18.8072C61.1874 18.8072 60.8658 18.6824 60.6112 18.4537C60.0547 17.9491 60.0116 17.0827 60.5159 16.5252L60.533 16.5065L65.9239 11.1928C66.1522 10.9369 66.4646 10.7776 66.8073 10.7441C67.1716 10.7082 67.5261 10.8157 67.809 11.0483C68.0899 11.2792 68.2653 11.6058 68.3011 11.9691C68.336 12.3322 68.2282 12.6873 67.9969 12.9702L67.965 13.0021L62.5321 18.368C62.2877 18.6311 61.9552 18.7868 61.5961 18.8042C61.5738 18.8072 61.5505 18.8072 61.5262 18.8072ZM61.1654 17.1261C60.9946 17.3239 61.012 17.6215 61.2058 17.7983C61.3011 17.8847 61.4276 17.9271 61.5521 17.9218C61.6806 17.9156 61.7982 17.86 61.8852 17.7635L61.9023 17.7464L67.3257 12.393C67.3996 12.2954 67.4328 12.1765 67.4207 12.0556C67.4098 11.9268 67.3468 11.8131 67.2479 11.7303C67.1487 11.6498 67.0218 11.6104 66.8954 11.6226C66.8021 11.6324 66.7163 11.6672 66.645 11.7241L61.1654 17.1261Z" fill="black"/>
<path d="M66.9178 29.5732C66.5912 29.5732 66.2634 29.4569 66.0028 29.2194C65.7321 28.9759 65.5734 28.6408 65.5544 28.2761C65.5366 27.9118 65.6622 27.5616 65.9066 27.2909L65.924 27.2735L70.8237 22.4404L71.4446 23.0709L66.5551 27.8914C66.473 27.987 66.4329 28.1066 66.4381 28.2315C66.4441 28.3589 66.4999 28.4775 66.5955 28.5639C66.7923 28.742 67.0965 28.7272 67.2766 28.5294L67.2927 28.512L73.2348 22.6333L73.8564 23.2634L67.9221 29.1336C67.6544 29.4247 67.2864 29.5732 66.9178 29.5732Z" fill="black"/>
<path d="M69.5296 32.2803C69.5033 32.2803 69.4764 32.2803 69.4491 32.2777C69.0858 32.2567 68.7507 32.0947 68.5092 31.823C68.2654 31.551 68.1439 31.2001 68.1656 30.8368C68.1859 30.477 68.3426 30.1468 68.6094 29.906L74.2674 24.1758L74.8965 24.796L69.209 30.5562C69.1127 30.6416 69.0556 30.7602 69.0483 30.8877C69.0411 31.0161 69.0835 31.1387 69.1699 31.2353C69.2543 31.3315 69.3713 31.3884 69.5007 31.3959C69.6265 31.4035 69.7455 31.3637 69.8401 31.2823L74.9754 26.1424L75.6006 26.7676L70.436 31.9344C70.1837 32.1591 69.8634 32.2803 69.5296 32.2803Z" fill="black"/>
<path d="M61.897 11.052L61.2563 10.4414L58.5494 13.2817L59.1901 13.8923L61.897 11.052Z" fill="black"/>
<path d="M73.0707 22.4639H62.7969V23.3486H73.0707V22.4639Z" fill="black"/>
<path d="M68.4681 23.2172L67.8433 22.5918L62.478 27.9525L63.1029 28.5779L68.4681 23.2172Z" fill="black"/>
<path d="M63.1152 26.0124L62.4775 25.4007L65.16 22.5996L65.797 23.2126L63.1152 26.0124Z" fill="black"/>
<path d="M68.386 23.2241L67.7598 22.5986L62.3991 27.9661L63.0254 28.5916L68.386 23.2241Z" fill="black"/>
<path d="M63.0301 26.0124L62.3921 25.4007L65.0736 22.5996L65.7122 23.2126L63.0301 26.0124Z" fill="black"/>
<path fill-rule="evenodd" clip-rule="evenodd" d="M45.4971 69.9693C45.4971 70.1266 45.4971 70.2222 45.4971 70.3155C45.4971 73.1669 45.4971 76.0205 45.4971 78.8718C45.4948 79.6468 45.1511 79.9905 44.3676 79.9905C43.561 79.9905 42.7558 79.9905 41.9489 79.9905C41.2452 79.9905 40.8815 79.6248 40.8815 78.9158C40.8815 74.6098 40.8815 70.3008 40.8815 65.9924C40.8815 64.4118 40.8789 62.8316 40.8815 61.251C40.8848 60.4859 41.5784 60.0121 42.2259 60.3334C42.3488 60.3952 42.4595 60.4908 42.5597 60.5841C45.8654 63.7344 49.1651 66.8831 52.4682 70.031C52.5349 70.0948 52.6052 70.1559 52.7182 70.2567C52.7182 70.1099 52.7182 70.0186 52.7182 69.9256C52.7182 67.067 52.7182 64.2062 52.7182 61.345C52.7182 60.5844 53.0671 60.2408 53.8296 60.2382C54.6555 60.2382 55.4808 60.2359 56.3048 60.2408C56.9559 60.2408 57.3314 60.614 57.3314 61.274C57.3341 67.1702 57.3314 73.0667 57.3314 78.9632C57.3314 79.3975 57.1721 79.7385 56.7624 79.9152C56.3399 80.0917 55.9835 79.9639 55.6602 79.6544C52.3539 76.4969 49.0449 73.3439 45.7353 70.1904C45.6742 70.1312 45.6094 70.0721 45.4971 69.9693ZM44.5519 67.7638C48.5169 71.5449 52.433 75.277 56.3738 79.0361C56.3738 73.0486 56.3738 67.1206 56.3738 61.1949C55.4611 61.1949 54.5705 61.1949 53.6502 61.1949C53.6502 64.9418 53.6502 68.6742 53.6502 72.4576C49.6951 68.6837 45.7829 64.9539 41.8356 61.1899C41.8356 67.1748 41.8356 73.1002 41.8356 79.041C42.7437 79.041 43.6343 79.041 44.5519 79.041C44.5519 75.2964 44.5519 71.5617 44.5519 67.7638Z" fill="black"/>
<path fill-rule="evenodd" clip-rule="evenodd" d="M105.662 69.9589C105.662 70.1182 105.662 70.2092 105.662 70.3048C105.662 73.1634 105.662 76.0219 105.662 78.8854C105.662 79.6532 105.324 79.9896 104.556 79.9896C103.74 79.9896 102.924 79.9896 102.109 79.9896C101.431 79.9896 101.065 79.6285 101.065 78.9541C101.065 73.0651 101.065 67.1788 101.061 61.2899C101.061 60.8408 101.21 60.4946 101.63 60.3132C102.049 60.1365 102.408 60.2665 102.731 60.5731C105.993 63.6892 109.256 66.8004 112.519 69.9149C112.621 70.0101 112.722 70.1061 112.878 70.2506C112.885 70.089 112.895 69.9832 112.895 69.8774C112.895 67.0803 112.895 64.2828 112.895 61.4808C112.895 61.3753 112.892 61.2722 112.9 61.1644C112.932 60.5997 113.301 60.2413 113.869 60.2393C114.746 60.2344 115.624 60.2344 116.499 60.2393C117.135 60.2416 117.503 60.6223 117.503 61.2646C117.503 66.4521 117.503 71.6367 117.503 76.8219C117.503 77.5233 117.494 78.2274 117.506 78.9291C117.513 79.3739 117.361 79.7268 116.942 79.9085C116.511 80.0974 116.149 79.9551 115.82 79.6407C113.704 77.6143 111.581 75.5948 109.46 73.5701C108.294 72.4564 107.125 71.3427 105.956 70.2283C105.875 70.1501 105.793 70.0791 105.662 69.9589ZM104.725 67.7607C108.695 71.5444 112.603 75.2712 116.546 79.0306C116.546 73.0408 116.546 67.12 116.546 61.192C115.638 61.192 114.748 61.192 113.82 61.192C113.82 64.9363 113.82 68.6635 113.82 72.4518C109.865 68.6783 105.959 64.9534 102.015 61.194C102.015 67.1861 102.015 73.1042 102.015 79.0352C102.922 79.0352 103.811 79.0352 104.725 79.0352C104.725 75.2936 104.725 71.5687 104.725 67.7607Z" fill="black"/>
<path fill-rule="evenodd" clip-rule="evenodd" d="M31.7468 64.6787C31.7468 65.5818 31.7468 66.4403 31.7468 67.3431C31.8542 67.3431 31.9551 67.3431 32.0553 67.3431C33.9595 67.3431 35.864 67.3408 37.7675 67.3431C38.5192 67.3431 38.8644 67.6894 38.8644 68.4351C38.8661 69.196 38.8661 69.9592 38.8644 70.7221C38.8644 71.4189 38.5083 71.7822 37.8171 71.7822C35.8955 71.7822 33.9742 71.7822 32.0527 71.7822C31.9574 71.7822 31.8638 71.7822 31.7521 71.7822C31.7521 73.0408 31.7521 74.2751 31.7521 75.5462C31.8605 75.5462 31.9623 75.5462 32.0648 75.5462C33.9503 75.5462 35.8377 75.5633 37.7234 75.539C38.4978 75.5268 38.9088 75.9933 38.873 76.7023C38.8375 77.4629 38.8681 78.2283 38.8644 78.9889C38.8618 79.6075 38.4791 79.9903 37.8637 79.9903C34.6149 79.9903 31.3683 79.9903 28.1221 79.9903C27.5212 79.9903 27.124 79.6049 27.124 79.0086C27.1221 73.0783 27.1221 67.1473 27.124 61.2143C27.124 60.6282 27.5147 60.2403 28.1027 60.2403C31.366 60.2376 34.6307 60.2376 37.8959 60.2403C38.4843 60.2403 38.8621 60.6282 38.8648 61.2189C38.8697 62.0334 38.8687 62.8508 38.8648 63.6681C38.8638 64.3032 38.4942 64.6764 37.8493 64.6764C35.9277 64.6813 34.0064 64.6787 32.0839 64.6787C31.9794 64.6787 31.8762 64.6787 31.7468 64.6787ZM28.083 61.1897C28.083 67.1568 28.083 73.095 28.083 79.0355C31.3683 79.0355 34.6372 79.0355 37.9078 79.0355C37.9078 78.1794 37.9078 77.3397 37.9078 76.4736C35.5335 76.4736 33.1795 76.4736 30.8134 76.4736C30.8134 74.5869 30.8134 72.7317 30.8134 70.8449C33.1845 70.8449 35.54 70.8449 37.9101 70.8449C37.9101 69.9786 37.9101 69.1418 37.9101 68.2758C35.5358 68.2758 33.1799 68.2758 30.8115 68.2758C30.8115 66.757 30.8115 65.2681 30.8115 63.7388C33.1825 63.7388 35.545 63.7388 37.9055 63.7388C37.9055 62.8626 37.9055 62.0261 37.9055 61.1894C34.6208 61.1897 31.3582 61.1897 28.083 61.1897Z" fill="black"/>
<path fill-rule="evenodd" clip-rule="evenodd" d="M4.62621 64.6794C4.62621 65.5848 4.62621 66.4485 4.62621 67.3438C4.74416 67.3438 4.84797 67.3438 4.95015 67.3438C6.84577 67.3438 8.74107 67.3415 10.6367 67.3438C11.4002 67.3438 11.7412 67.69 11.7412 68.4532C11.7412 69.2262 11.7439 69.999 11.7412 70.7697C11.7406 71.4074 11.3647 71.7803 10.7244 71.7829C8.80284 71.7829 6.88159 71.7829 4.96001 71.7829C4.85586 71.7829 4.75303 71.7829 4.62523 71.7829C4.61833 71.8985 4.60815 71.9918 4.60815 72.0848C4.60815 73.1377 4.61472 74.19 4.60289 75.2426C4.59895 75.4808 4.6617 75.5538 4.90678 75.5515C6.80274 75.5442 8.69836 75.5465 10.594 75.5488C11.412 75.5488 11.7409 75.8803 11.7409 76.6951C11.7409 77.4579 11.7435 78.2211 11.7409 78.9869C11.7402 79.6029 11.3552 79.9906 10.7412 79.9906C7.49429 79.9906 4.24709 79.9906 1.0012 79.9906C0.386517 79.9906 0.000492797 79.6029 0.000492797 78.9892C-0.000164266 73.0734 -0.000164266 67.1621 0.000492797 61.2462C0.000492797 60.6233 0.376989 60.2403 0.996271 60.2403C4.24315 60.2376 7.48937 60.2376 10.7362 60.2403C11.3706 60.2403 11.7409 60.6233 11.7409 61.263C11.7435 62.0636 11.7435 62.8603 11.7409 63.6583C11.7402 64.2983 11.3729 64.6767 10.729 64.6767C8.80743 64.6817 6.88684 64.679 4.96559 64.679C4.86177 64.6794 4.75763 64.6794 4.62621 64.6794ZM10.7882 68.2719C8.40991 68.2719 6.05369 68.2719 3.68859 68.2719C3.68859 66.7531 3.68859 65.2665 3.68859 63.747C6.05861 63.747 8.41484 63.747 10.7865 63.747C10.7865 62.8813 10.7865 62.0419 10.7865 61.1907C7.50448 61.1907 4.23691 61.1907 0.961774 61.1907C0.961774 67.1506 0.961774 73.0914 0.961774 79.0342C4.24939 79.0342 7.51664 79.0342 10.7809 79.0342C10.7809 78.1751 10.7809 77.3357 10.7809 76.4697C8.40728 76.4697 6.05204 76.4697 3.69253 76.4697C3.69253 74.5856 3.69253 72.7277 3.69253 70.8433C6.06453 70.8433 8.42075 70.8433 10.7885 70.8433C10.7882 69.9819 10.7882 69.1527 10.7882 68.2719Z" fill="black"/>
<path fill-rule="evenodd" clip-rule="evenodd" d="M96.9195 79.9906C96.4618 79.9906 96.0072 79.9834 95.5508 79.9929C95.061 80.0028 94.74 79.7797 94.5495 79.3355C94.0586 78.1922 93.5583 77.0512 93.0727 75.9099C92.9952 75.7282 92.9009 75.6698 92.7044 75.6698C90.7293 75.677 88.7565 75.677 86.7823 75.6698C86.5928 75.6698 86.508 75.7332 86.4331 75.9001C85.9301 77.0292 85.4074 78.1482 84.9113 79.2764C84.6958 79.7748 84.3594 80.0077 83.8124 79.9952C82.9263 79.9755 82.0403 79.9903 81.1539 79.9903C80.2876 79.9903 79.869 79.3378 80.2321 78.5424C82.2529 74.1306 84.2769 69.7214 86.3004 65.3099C86.9762 63.8354 87.6542 62.3652 88.3245 60.8882C88.5245 60.4492 88.8396 60.2232 89.3307 60.238C89.7069 60.2501 90.0857 60.2528 90.4615 60.2429C90.9941 60.2258 91.3256 60.4689 91.5362 60.9545C93.0057 64.3384 94.4834 67.7173 95.9589 71.0956C97.0401 73.5764 98.1239 76.0594 99.2057 78.5378C99.5615 79.3575 99.1512 79.9906 98.2622 79.9906C97.8144 79.9906 97.3666 79.9906 96.9195 79.9906ZM98.39 79.0507C98.3545 78.9521 98.3299 78.8792 98.299 78.8125C95.7654 73.0044 93.2324 67.1989 90.7027 61.3934C90.6386 61.2489 90.57 61.1753 90.3981 61.1825C90.091 61.1947 89.7818 61.1924 89.4763 61.1753C89.2939 61.1658 89.1997 61.2242 89.1198 61.3987C86.4646 67.2068 83.8009 73.0123 81.1401 78.8151C81.1089 78.8841 81.0872 78.9574 81.0521 79.051C81.967 79.051 82.8537 79.0461 83.7388 79.0582C83.931 79.0605 84.0108 78.9893 84.0841 78.8224C84.6613 77.5368 85.2501 76.2555 85.824 74.9654C85.9055 74.786 86.0024 74.7275 86.1969 74.7298C88.5587 74.7371 90.9185 74.7371 93.279 74.7275C93.5044 74.7275 93.6128 74.791 93.7032 75.0019C94.2452 76.2854 94.8047 77.5611 95.3659 78.8345C95.405 78.9232 95.5058 79.0412 95.5807 79.0435C96.5092 79.0582 97.4366 79.0507 98.39 79.0507Z" fill="black"/>
<path fill-rule="evenodd" clip-rule="evenodd" d="M65.571 70.1187C65.571 67.1987 65.571 64.2738 65.571 61.3541C65.571 60.5712 65.9035 60.2374 66.6913 60.2374C68.1474 60.2401 69.6038 60.2253 71.0605 60.2496C72.8378 60.2818 74.5784 60.5318 76.1757 61.3686C78.8519 62.7701 80.4404 65.0097 81.0485 67.9369C81.5567 70.3736 81.3162 72.7538 80.0984 74.9524C78.6026 77.6512 76.2667 79.2341 73.2413 79.764C72.348 79.9211 71.4281 79.9552 70.5204 79.9822C69.2122 80.0163 67.9046 79.9894 66.597 79.9894C65.94 79.9894 65.571 79.6237 65.571 78.9637C65.5694 76.0148 65.571 73.0679 65.571 70.1187ZM66.5198 79.0501C67.7794 79.0501 69.0088 79.0698 70.2359 79.0429C71.1291 79.0212 72.0303 79.0133 72.9104 78.8714C75.8304 78.4023 78.052 76.8887 79.4127 74.2362C80.3849 72.3415 80.5596 70.3053 80.1559 68.2392C79.6342 65.5698 78.2142 63.5159 75.7854 62.2205C74.3842 61.4744 72.852 61.2316 71.2872 61.1974C69.7697 61.1632 68.2512 61.1803 66.7344 61.1777C66.666 61.1751 66.6003 61.1898 66.5205 61.1948C66.5198 67.1471 66.5198 73.085 66.5198 79.0501Z" fill="black"/>
<path fill-rule="evenodd" clip-rule="evenodd" d="M18.3119 75.5463C18.4545 75.5463 18.5586 75.5463 18.6611 75.5463C20.4792 75.5463 22.295 75.5463 24.1115 75.5486C24.9124 75.5486 25.2439 75.8801 25.2456 76.6823C25.2456 77.4284 25.2466 78.1742 25.2439 78.9203C25.2439 79.6345 24.8898 79.9903 24.1815 79.9903C21.0391 79.9903 17.897 79.9903 14.7565 79.9903C14.0683 79.9903 13.697 79.6224 13.697 78.9351C13.6954 73.0557 13.6954 67.1769 13.697 61.2975C13.697 60.6079 14.0627 60.24 14.7496 60.2374C15.5654 60.2351 16.3824 60.2374 17.1979 60.2374C17.9607 60.24 18.3103 60.5836 18.3103 61.3442C18.3119 65.9518 18.3119 70.5575 18.3119 75.1681C18.3119 75.2792 18.3119 75.3919 18.3119 75.5463ZM14.6563 61.1898C14.6563 67.1569 14.6563 73.0951 14.6563 79.0333C17.8789 79.0333 21.0847 79.0333 24.3139 79.0333C24.3139 78.2649 24.3043 77.5211 24.3211 76.7779C24.326 76.5328 24.2508 76.4714 24.0116 76.4737C21.9047 76.4809 19.7992 76.479 17.6939 76.479C17.5911 76.479 17.4912 76.479 17.3657 76.479C17.3657 71.3581 17.3657 66.2813 17.3657 61.1898C16.4508 61.1898 15.5591 61.1898 14.6563 61.1898Z" fill="black"/>
<path fill-rule="evenodd" clip-rule="evenodd" d="M89.8239 65.6455C90.7205 67.8414 91.5914 69.9808 92.4748 72.1475C90.6614 72.1475 88.8833 72.1475 87.0679 72.1475C87.9858 69.9838 88.8932 67.8414 89.8239 65.6455ZM88.4838 71.2158C89.365 71.2158 90.2067 71.2158 91.0825 71.2158C90.6577 70.1776 90.2454 69.1667 89.8068 68.0944C89.3502 69.1716 88.9234 70.175 88.4838 71.2158Z" fill="black"/>
<path fill-rule="evenodd" clip-rule="evenodd" d="M69.2505 76.4522C69.2505 72.2272 69.2505 68.0017 69.2505 63.7442C69.5876 63.7442 69.9108 63.7465 70.2331 63.7442C71.3058 63.7416 72.3712 63.7984 73.4084 64.1122C75.6703 64.8018 76.9601 66.3919 77.4398 68.642C77.9086 70.8382 77.4519 72.8426 75.9187 74.5381C74.9564 75.5983 73.7244 76.1749 72.3292 76.3391C71.3498 76.4594 70.3537 76.437 69.3622 76.4765C69.3303 76.4768 69.2962 76.462 69.2505 76.4522ZM70.1802 75.5714C70.7943 75.5346 71.3813 75.5244 71.9635 75.4561C73.1262 75.3135 74.2011 74.9357 75.0487 74.0815C76.5514 72.5627 76.9572 70.7298 76.4953 68.6955C76.1543 67.1987 75.3523 66.0111 73.9314 65.3169C73.1554 64.9391 72.3239 64.7722 71.4674 64.7233C71.0426 64.6983 70.6159 64.7177 70.1802 64.7177C70.1802 68.3138 70.1802 71.9105 70.1802 75.5714Z" fill="black"/>
</svg>
