<svg width="157" height="283" viewBox="0 0 157 283" fill="none" xmlns="http://www.w3.org/2000/svg">
<g opacity="0.2">
<path d="M139.88 254.896C139.88 256.264 140.988 257.375 142.351 257.375C143.709 257.375 144.816 256.264 144.816 254.896C144.816 253.541 143.709 252.438 142.351 252.438C140.986 252.438 139.88 253.454 139.88 254.896Z" fill="#AFAFAF"/>
<path d="M112.801 242.072C112.801 243.427 113.902 244.535 115.27 244.535C116.627 244.535 117.73 243.427 117.73 242.072C117.73 240.705 116.627 239.599 115.27 239.599C113.902 239.597 112.801 240.625 112.801 242.072Z" fill="#AFAFAF"/>
<path d="M106.526 248.449C106.526 249.803 107.634 250.917 108.994 250.917C110.36 250.917 111.465 249.802 111.465 248.449C111.465 247.081 110.36 245.976 108.994 245.976C107.634 245.976 106.526 246.995 106.526 248.449Z" fill="#AFAFAF"/>
<path d="M119.734 249.211C119.734 250.573 120.844 251.681 122.202 251.681C123.567 251.681 124.672 250.573 124.672 249.211C124.672 247.843 123.567 246.75 122.202 246.75C120.842 246.75 119.734 247.758 119.734 249.211Z" fill="#AFAFAF"/>
<path d="M113.371 255.539C113.371 256.9 114.481 258.002 115.841 258.002C117.202 258.002 118.309 256.9 118.309 255.539C118.309 254.177 117.202 253.072 115.841 253.072C114.479 253.071 113.371 254.085 113.371 255.539Z" fill="#AFAFAF"/>
<path d="M117.25 243.563L114.096 240.452L107.572 247.065L110.725 250.176L117.25 243.563Z" fill="#AFAFAF"/>
<path d="M116.879 257.246L113.764 254.103L120.639 247.263L123.76 250.405L116.879 257.246Z" fill="#AFAFAF"/>
<path d="M140.29 270.134L121.022 250.775L124.153 247.643L143.432 267.009L140.29 270.134Z" fill="#AFAFAF"/>
<path d="M145.121 254.896C145.121 256.264 144.014 257.375 142.65 257.375C141.292 257.375 140.182 256.264 140.182 254.896C140.182 253.541 141.292 252.438 142.65 252.438C144.014 252.438 145.121 253.454 145.121 254.896Z" fill="#AFAFAF"/>
<path d="M144.706 270.134L141.57 267.009L160.841 247.643L163.979 250.775L144.706 270.134Z" fill="#AFAFAF"/>
<path d="M144.563 13.9187C144.563 15.1503 143.577 16.1451 142.348 16.1451C141.128 16.1451 140.132 15.1503 140.132 13.9187C140.132 12.7003 141.127 11.7104 142.348 11.7104C143.578 11.7104 144.563 12.7003 144.563 13.9187Z" fill="#AFAFAF"/>
<path d="M144.453 68.0474C144.453 69.3036 143.44 70.3116 142.19 70.3116C140.934 70.3116 139.921 69.3036 139.921 68.0474C139.921 66.7977 140.934 65.7832 142.19 65.7832C143.44 65.7832 144.453 66.7977 144.453 68.0474Z" fill="#AFAFAF"/>
<path d="M77.8065 94.03C77.8065 95.2616 76.8084 96.2564 75.5801 96.2564C74.3551 96.2564 73.3571 95.2599 73.3571 94.03C73.3571 92.805 74.3535 91.8086 75.5801 91.8086C76.8067 91.8086 77.8065 92.7244 77.8065 94.03Z" fill="#AFAFAF"/>
<path d="M80.3421 64.7815C80.3421 66.0065 79.3473 67.0079 78.1124 67.0079C76.8891 67.0079 75.891 66.0065 75.891 64.7815C75.891 63.5566 76.8874 62.5552 78.1124 62.5552C79.3456 62.5552 80.3421 63.476 80.3421 64.7815Z" fill="#AFAFAF"/>
<path d="M90.916 80.8638C90.916 82.102 89.9213 83.0902 88.6946 83.0902C87.468 83.0902 86.4683 82.1003 86.4683 80.8638C86.4683 79.6388 87.4663 78.644 88.6946 78.644C89.9213 78.644 90.916 79.5533 90.916 80.8638Z" fill="#AFAFAF"/>
<path d="M83.9049 87.5579C83.9049 88.7894 82.9052 89.7842 81.6769 89.7842C80.4486 89.7842 79.4506 88.7894 79.4506 87.5579C79.4506 86.3263 80.447 85.3315 81.6769 85.3315C82.9069 85.3315 83.9049 86.2457 83.9049 87.5579Z" fill="#AFAFAF"/>
<path d="M77.2591 80.8638C77.2591 82.102 76.2659 83.0902 75.0376 83.0902C73.8093 83.0902 72.8113 82.1003 72.8113 80.8638C72.8113 79.6388 73.8093 78.644 75.0376 78.644C76.2643 78.644 77.2591 79.5533 77.2591 80.8638Z" fill="#AFAFAF"/>
<path d="M16.9594 141.468C16.9594 142.693 15.9663 143.694 14.7364 143.694C13.5065 143.694 12.51 142.693 12.51 141.468C12.51 140.243 13.5081 139.247 14.7364 139.247C15.9647 139.247 16.9594 140.162 16.9594 141.468Z" fill="#AFAFAF"/>
<path d="M37.1173 161.574C37.1173 162.797 36.1193 163.795 34.8926 163.795C33.6644 163.795 32.6696 162.799 32.6696 161.574C32.6696 160.342 33.6627 159.348 34.8926 159.348C36.1193 159.346 37.1173 160.262 37.1173 161.574Z" fill="#AFAFAF"/>
<path d="M43.7582 168.355C43.7582 169.573 42.7634 170.581 41.5335 170.581C40.3036 170.581 39.3071 169.573 39.3071 168.355C39.3071 167.123 40.3052 166.128 41.5335 166.128C42.7618 166.128 43.7582 167.043 43.7582 168.355Z" fill="#AFAFAF"/>
<path d="M37.1173 175.087C37.1173 176.312 36.1193 177.309 34.8926 177.309C33.6644 177.309 32.6696 176.312 32.6696 175.087C32.6696 173.862 33.6627 172.861 34.8926 172.861C36.1193 172.859 37.1173 173.787 37.1173 175.087Z" fill="#AFAFAF"/>
<path d="M30.4111 141.258C30.4111 142.488 29.4147 143.484 28.1847 143.484C26.9614 143.484 25.965 142.489 25.965 141.258C25.965 140.031 26.9597 139.031 28.1847 139.031C29.4147 139.031 30.4111 139.959 30.4111 141.258Z" fill="#AFAFAF"/>
<path d="M30.4111 168.355C30.4111 169.573 29.4147 170.581 28.1847 170.581C26.9614 170.581 25.965 169.573 25.965 168.355C25.965 167.123 26.9597 166.128 28.1847 166.128C29.4147 166.127 30.4111 167.043 30.4111 168.355Z" fill="#AFAFAF"/>
<path d="M144.67 81.3859C144.67 82.6717 143.632 83.7109 142.345 83.7109C141.067 83.7109 140.025 82.6717 140.025 81.3859C140.025 80.0984 141.067 79.0576 142.345 79.0576C143.632 79.0576 144.67 80.0984 144.67 81.3859Z" fill="#AFAFAF"/>
<path d="M124.233 34.0476C124.233 35.266 123.241 36.2608 122.021 36.2608C120.795 36.2608 119.806 35.266 119.806 34.0476C119.806 32.8226 120.795 31.8262 122.021 31.8262C123.241 31.8262 124.233 32.8226 124.233 34.0476Z" fill="#AFAFAF"/>
<path d="M139.921 27.2224C139.921 28.4408 140.914 29.4373 142.131 29.4373C143.363 29.4373 144.351 28.4425 144.351 27.2224C144.351 25.9974 143.363 25.0142 142.131 25.0142C140.913 25.0125 139.921 25.9974 139.921 27.2224Z" fill="#AFAFAF"/>
<path d="M143.939 15.4895L140.823 12.3418L120.492 32.4722L123.609 35.6199L143.939 15.4895Z" fill="#AFAFAF"/>
<path d="M164.218 32.4763L143.887 12.3511L140.774 15.4958L161.105 35.621L164.218 32.4763Z" fill="#AFAFAF"/>
<path d="M163.963 45.6054L143.666 25.6606L140.561 28.8204L160.859 48.7651L163.963 45.6054Z" fill="#AFAFAF"/>
<path d="M108.574 36.7886C108.574 38.0136 107.594 39.01 106.362 39.01C105.136 39.01 104.147 38.0136 104.147 36.7886C104.147 35.5702 105.136 34.5737 106.362 34.5737C107.594 34.5721 108.574 35.5702 108.574 36.7886Z" fill="#AFAFAF"/>
<path d="M124.274 46.9158C124.11 48.3134 123.237 49.2408 121.951 49.2408C120.667 49.2408 119.823 48.2033 119.633 46.9158C119.442 45.6415 120.667 44.5957 121.951 44.5957C123.237 44.5957 124.422 45.6398 124.274 46.9158Z" fill="#AFAFAF"/>
<path d="M120.166 48.3068C113.076 40.0476 106 38.9706 105.921 38.9591L106.497 34.5737C106.85 34.6181 115.253 35.7806 123.527 45.4178L120.166 48.3068Z" fill="#AFAFAF"/>
<path d="M143.691 28.8122L140.588 25.6582L120.311 45.6103L123.415 48.7643L143.691 28.8122Z" fill="#AFAFAF"/>
<path d="M212.133 112.81L155.512 57.381L155.39 57.2083C152.381 52.846 148.447 48.3802 142.1 48.2683C136.725 48.1828 134.054 51.2313 129.233 56.7693L128.84 57.2198L73.4475 112.792L70.3086 109.668L125.649 54.145L125.897 53.8671C130.945 48.0645 134.617 43.8452 141.856 43.8452C141.96 43.8452 142.068 43.8452 142.172 43.8452C150.482 43.9866 155.481 49.587 158.908 54.5166L215.236 109.649L212.133 112.81Z" fill="#AFAFAF"/>
<path d="M103.209 205.705L91.1692 193.901L89.2832 192.162C75.7688 179.722 57.2508 162.685 56.8052 145.264C56.3235 126.347 62.5915 116.818 75.1061 104.879L78.1612 108.084C66.3372 119.368 60.7828 127.794 61.2284 145.152C61.6213 160.704 79.3468 177.007 92.2807 188.908L94.2193 190.696L106.306 202.538L103.209 205.705Z" fill="#AFAFAF"/>
<path d="M143.903 256.818L140.793 253.676L203.886 191.348C218.27 178.065 234.771 160.843 235.18 145.005C235.619 127.707 231.891 118.458 219.852 106.983L207.676 95.7492L210.679 92.4951L222.884 103.754C235.864 116.127 240.08 126.57 239.605 145.124C239.159 162.514 222.843 179.866 206.946 194.541L143.903 256.818Z" fill="#AFAFAF"/>
<path d="M140.22 107.623C140.22 108.854 141.213 109.842 142.433 109.842C143.661 109.842 144.651 108.853 144.651 107.623C144.651 106.403 143.661 105.408 142.433 105.408C141.213 105.408 140.22 106.324 140.22 107.623Z" fill="#AFAFAF"/>
<path d="M120.229 114.642C120.229 115.867 121.259 116.857 122.525 116.857C123.781 116.857 124.804 115.867 124.804 114.642C124.804 113.417 123.781 112.429 122.525 112.429C121.259 112.429 120.229 113.343 120.229 114.642Z" fill="#AFAFAF"/>
<path d="M140.213 161.562C140.213 162.787 141.206 163.777 142.429 163.777C143.654 163.777 144.639 162.786 144.639 161.562C144.639 160.339 143.654 159.348 142.429 159.348C141.204 159.348 140.213 160.263 140.213 161.562Z" fill="#AFAFAF"/>
<path d="M140.135 175.073C140.135 176.298 141.13 177.287 142.352 177.287C143.573 177.287 144.562 176.296 144.562 175.073C144.562 173.849 143.572 172.864 142.352 172.864C141.132 172.864 140.135 173.774 140.135 175.073Z" fill="#AFAFAF"/>
<path d="M140.793 256.818L77.6513 194.503C61.807 179.866 45.4891 162.512 45.0517 145.124C44.5732 126.571 48.7842 116.128 61.7379 103.778L73.9747 92.4951L76.9739 95.7492L64.7618 107.008C52.747 118.458 49.0276 127.701 49.4716 145.005C49.8744 160.841 66.3715 178.065 80.708 191.292L143.901 253.67L140.793 256.818Z" fill="#AFAFAF"/>
<path d="M144.645 107.625H140.223V161.564H144.645V107.625Z" fill="#AFAFAF"/>
<path d="M124.792 114.503H120.369V168.442H124.792V114.503Z" fill="#AFAFAF"/>
<path d="M143.125 172.995L123.079 165.825L121.588 169.995L141.633 177.165L143.125 172.995Z" fill="#AFAFAF"/>
<path d="M163.01 170.031L161.52 165.861L141.471 173.028L142.961 177.198L163.01 170.031Z" fill="#AFAFAF"/>
<path d="M140.994 189.636L116.95 165.557C116.577 165.199 116.164 164.783 115.74 164.357C113.66 162.241 111.297 159.86 109.013 159.86C106.522 159.86 104.251 162.254 104.251 164.89H99.8279C99.8279 159.853 104.123 155.43 109.015 155.43C113.147 155.43 116.34 158.653 118.897 161.246C119.291 161.654 119.681 162.043 120.056 162.402L144.135 186.506L140.994 189.636Z" fill="#AFAFAF"/>
<path d="M143.437 189.636L140.303 186.506L164.362 162.428C164.761 162.045 165.145 161.654 165.546 161.253C168.104 158.653 171.286 155.43 175.42 155.43C180.313 155.43 184.616 159.852 184.616 164.89H180.19C180.19 162.254 177.919 159.86 175.421 159.86C173.136 159.86 170.78 162.249 168.696 164.357C168.265 164.783 167.861 165.199 167.468 165.582L143.437 189.636Z" fill="#AFAFAF"/>
<path d="M121.835 215.877C109.902 215.877 99.8262 206.135 99.8262 194.584H104.246C104.246 203.721 112.305 211.459 121.833 211.459C131.53 211.459 139.416 204.098 139.416 195.043H143.845C143.849 206.53 133.971 215.877 121.835 215.877Z" fill="#AFAFAF"/>
<path d="M162.787 215.876C150.751 215.876 140.966 206.528 140.966 195.041H145.386C145.386 204.098 153.19 211.458 162.789 211.458C172.385 211.458 180.189 204.024 180.189 194.905H184.615C184.615 206.472 174.824 215.876 162.787 215.876Z" fill="#AFAFAF"/>
<path d="M145.536 186.9H138.895V199.854H145.536V186.9Z" fill="#AFAFAF"/>
<path d="M104.249 164.747H99.8262V195.041H104.249V164.747Z" fill="#AFAFAF"/>
<path d="M142.283 213.85C138.593 213.85 135.415 211.936 133.736 210.303L136.816 207.136L135.275 208.713L136.806 207.123C137.348 207.631 142.227 211.98 147.392 207.098L150.43 210.321C147.686 212.921 144.858 213.85 142.283 213.85Z" fill="#AFAFAF"/>
<path d="M142.146 231.102C136.789 231.102 132.98 230.41 132.742 230.365C116.695 226.957 115.602 213.954 115.594 213.824L120.007 213.52L117.804 213.668L120.007 213.497C120.042 213.904 120.967 223.344 133.605 226.029C133.632 226.029 141.71 227.483 150.63 226.01C164.153 223.759 165.067 213.929 165.1 213.52L169.515 213.811C169.513 213.947 168.443 227.539 151.357 230.37C148.065 230.924 144.895 231.102 142.146 231.102Z" fill="#AFAFAF"/>
<path d="M87.2535 82.5482C76.0181 72.8962 75.9047 65.1023 75.9047 64.78L80.3278 64.7866L78.1097 64.78L80.3278 64.7505C80.3278 64.8113 80.6287 71.0168 90.1376 79.1889L87.2535 82.5482Z" fill="#AFAFAF"/>
<path d="M89.7595 82.8754L86.7168 79.6768L80.1493 85.9243L83.192 89.1229L89.7595 82.8754Z" fill="#AFAFAF"/>
<path d="M83.008 85.6048L76.6196 79.3062L73.513 82.457L79.9014 88.7557L83.008 85.6048Z" fill="#AFAFAF"/>
<path d="M16.3053 143.04L13.168 139.91L73.5954 79.2026L76.7278 82.3252L16.3053 143.04Z" fill="#AFAFAF"/>
<path d="M33.3334 163.133L13.2666 143.04L16.394 139.909L36.4576 160.007L33.3334 163.133Z" fill="#AFAFAF"/>
<path d="M36.4938 163.132L33.3209 160.052L26.8709 166.698L30.0438 169.777L36.4938 163.132Z" fill="#AFAFAF"/>
<path d="M43.3342 169.739L40.2052 166.608L33.3935 173.416L36.5225 176.547L43.3342 169.739Z" fill="#AFAFAF"/>
<path d="M128.593 282.982C128.49 282.982 128.373 282.982 128.268 282.964C126.403 282.885 124.729 282.086 123.552 280.711L57.0834 214.269L2.22679 159.273C0.86368 158.086 0.0694938 156.415 0.00536673 154.545C-0.0653375 152.715 0.564411 150.908 1.78611 149.473C3.00289 148.026 4.67514 147.099 6.48714 146.87C8.38464 146.617 10.2082 147.148 11.6107 148.337L11.7604 148.478L29.7636 166.802L26.6148 169.901L8.69539 151.663C8.24979 151.323 7.67267 151.175 7.06099 151.254C6.3408 151.347 5.66498 151.724 5.16676 152.324C4.65704 152.923 4.39397 153.648 4.4285 154.373C4.45152 155.016 4.71296 155.585 5.16185 155.968L5.3016 156.098L60.2158 211.138L126.882 277.803C127.255 278.253 127.817 278.515 128.467 278.546C129.197 278.564 129.925 278.324 130.516 277.824C131.68 276.862 131.971 275.298 131.206 274.302L113.765 256.899L116.884 253.77L134.556 271.4C136.943 274.277 136.404 278.677 133.35 281.218C131.989 282.364 130.313 282.982 128.593 282.982Z" fill="#AFAFAF"/>
<path d="M8.17261 135.126C6.45104 135.126 4.77222 134.513 3.4124 133.375C0.357315 130.826 -0.180369 126.421 2.20713 123.551L2.34856 123.403L20.5327 105.264L23.6667 108.4L5.56477 126.446C4.79196 127.449 5.09286 129.014 6.24385 129.973C6.84073 130.475 7.59218 130.728 8.29429 130.703C8.94214 130.665 9.50283 130.406 9.8876 129.948L10.0224 129.8L76.5486 63.2842L79.6842 66.4133L13.2206 132.864C12.0367 134.23 10.3677 135.034 8.50146 135.115C8.39294 135.126 8.27784 135.126 8.17261 135.126Z" fill="#AFAFAF"/>
<path d="M21.9209 110.138L18.7902 107.009L123.663 2.26185C124.837 0.893804 126.507 0.096334 128.373 0.00918694C130.197 -0.0845373 132.012 0.541946 133.466 1.74721C134.918 2.95411 135.857 4.62469 136.102 6.43669C136.363 8.32268 135.852 10.1478 134.669 11.5652L134.54 11.7198L107.93 38.3523L104.803 35.2216L131.32 8.66963C131.662 8.22403 131.805 7.64854 131.721 7.03686C131.621 6.31995 131.233 5.65072 130.634 5.15086C130.036 4.64936 129.332 4.40271 128.584 4.42737C127.936 4.45861 127.371 4.72499 126.989 5.17553L126.851 5.3301L21.9209 110.138Z" fill="#AFAFAF"/>
<path d="M29.7535 142.828L26.6211 139.699L54.1135 112.213L57.2377 115.344L29.7535 142.828Z" fill="#AFAFAF"/>
<path d="M62.1735 172.123L29.7627 139.693L26.6307 142.824L59.0415 175.253L62.1735 172.123Z" fill="#AFAFAF"/>
<path d="M113.708 243.286L39.7908 169.747L42.9083 166.611L116.822 240.137L113.708 243.286Z" fill="#AFAFAF"/>
<path d="M110.418 247.031L36.2865 173.338L33.1694 176.474L107.301 250.166L110.418 247.031Z" fill="#AFAFAF"/>
<path d="M140.436 13.9187C140.436 15.1503 141.426 16.1451 142.651 16.1451C143.869 16.1451 144.859 15.1503 144.859 13.9187C144.859 12.7003 143.869 11.7104 142.651 11.7104C141.426 11.7104 140.436 12.7003 140.436 13.9187Z" fill="#AFAFAF"/>
<path d="M140.55 68.0474C140.55 69.3036 141.556 70.3116 142.811 70.3116C144.064 70.3116 145.081 69.3036 145.081 68.0474C145.081 66.7977 144.064 65.7832 142.811 65.7832C141.556 65.7832 140.55 66.7977 140.55 68.0474Z" fill="#AFAFAF"/>
<path d="M140.327 81.3859C140.327 82.6717 141.368 83.7109 142.653 83.7109C143.936 83.7109 144.977 82.6717 144.977 81.3859C144.977 80.0984 143.936 79.0576 142.653 79.0576C141.368 79.0576 140.327 80.0984 140.327 81.3859Z" fill="#AFAFAF"/>
<path d="M145.081 27.2224C145.081 28.4408 144.089 29.4373 142.864 29.4373C141.643 29.4373 140.643 28.4425 140.643 27.2224C140.643 25.9974 141.641 25.0142 142.864 25.0142C144.089 25.0125 145.081 25.9974 145.081 27.2224Z" fill="#AFAFAF"/>
<path d="M164.544 32.4704L144.213 12.3452L141.096 15.4946L161.427 35.6198L164.544 32.4704Z" fill="#AFAFAF"/>
<path d="M123.871 35.6201L120.765 32.4712L141.09 12.3452L144.206 15.494L123.871 35.6201Z" fill="#AFAFAF"/>
<path d="M109.304 36.7886C109.304 38.0136 108.311 39.01 107.09 39.01C105.87 39.01 104.875 38.0136 104.875 36.7886C104.875 35.5702 105.868 34.5737 107.09 34.5737C108.311 34.5721 109.304 35.5702 109.304 36.7886Z" fill="#AFAFAF"/>
<path d="M125.001 46.9158C124.835 48.3134 123.964 49.2408 122.678 49.2408C121.407 49.2408 120.552 48.2033 120.359 46.9158C120.169 45.6415 121.407 44.5957 122.678 44.5957C123.964 44.5957 125.151 45.6398 125.001 46.9158Z" fill="#AFAFAF"/>
<path d="M120.893 48.3068C113.806 40.0476 106.724 38.9706 106.655 38.9591L107.224 34.5737C107.583 34.6181 115.982 35.7806 124.254 45.4178L120.893 48.3068Z" fill="#AFAFAF"/>
<path d="M144.439 28.8066L141.334 25.6523L121.06 45.6136L124.165 48.7679L144.439 28.8066Z" fill="#AFAFAF"/>
<path d="M164.703 45.6054L144.417 25.6606L141.315 28.8159L161.601 48.7606L164.703 45.6054Z" fill="#AFAFAF"/>
<path d="M72.8658 112.81L69.7697 109.649L126.09 54.5166C129.525 49.5854 134.523 43.9866 142.824 43.8452C142.935 43.8452 143.042 43.8452 143.148 43.8452C150.384 43.8452 154.049 48.0529 159.097 53.854L159.347 54.145L214.684 109.668L211.551 112.785L156.068 57.108L155.762 56.7627C150.941 51.2297 148.319 48.1878 142.904 48.2667C136.554 48.3785 132.616 52.8444 129.612 57.2067L129.337 57.5273L72.8658 112.81Z" fill="#AFAFAF"/>
<path d="M141.099 256.818L78.0046 194.503C62.1569 179.866 45.8424 162.512 45.3984 145.124C44.9232 126.571 49.1342 116.128 62.0945 103.778L74.3247 92.4951L77.3271 95.7492L65.115 107.008C53.1002 118.458 49.3792 127.701 49.8215 145.017C50.2293 160.841 66.7248 178.065 81.0597 191.292L144.207 253.674L141.099 256.818Z" fill="#AFAFAF"/>
<path d="M144.779 107.623C144.779 108.854 143.786 109.842 142.562 109.842C141.334 109.842 140.344 108.853 140.344 107.623C140.344 106.403 141.334 105.408 142.562 105.408C143.787 105.408 144.779 106.324 144.779 107.623Z" fill="#AFAFAF"/>
<path d="M144.781 161.562C144.781 162.787 143.789 163.777 142.563 163.777C141.353 163.777 140.353 162.786 140.353 161.562C140.353 160.339 141.351 159.348 142.563 159.348C143.789 159.348 144.781 160.263 144.781 161.562Z" fill="#AFAFAF"/>
<path d="M144.859 175.073C144.859 176.298 143.869 177.287 142.654 177.287C141.432 177.287 140.436 176.296 140.436 175.073C140.436 173.849 141.43 172.864 142.654 172.864C143.869 172.864 144.859 173.774 144.859 175.073Z" fill="#AFAFAF"/>
<path d="M144.205 256.818L141.096 253.67L204.233 191.348C218.617 178.065 235.118 160.843 235.52 145.005C235.964 127.701 232.243 118.458 220.197 106.983L208.023 95.7492L211.021 92.4951L223.224 103.754C236.208 116.127 240.424 126.57 239.952 145.124C239.506 162.514 223.193 179.866 207.286 194.541L144.205 256.818Z" fill="#AFAFAF"/>
<path d="M144.779 107.625H140.355V161.564H144.779V107.625Z" fill="#AFAFAF"/>
<path d="M163.443 169.958L161.948 165.788L141.907 172.974L143.402 177.143L163.443 169.958Z" fill="#AFAFAF"/>
<path d="M143.537 173.002L123.49 165.832L121.999 170.001L142.046 177.172L143.537 173.002Z" fill="#AFAFAF"/>
<path d="M143.993 189.636L140.867 186.506L164.918 162.428C165.325 162.045 165.708 161.654 166.104 161.253C168.664 158.653 171.849 155.43 175.988 155.43C180.883 155.43 185.181 159.852 185.181 164.89H180.756C180.756 162.254 178.479 159.86 175.989 159.86C173.705 159.86 171.336 162.249 169.259 164.357C168.837 164.783 168.422 165.199 168.031 165.582L143.993 189.636Z" fill="#AFAFAF"/>
<path d="M141.567 189.636L117.513 165.557C117.138 165.199 116.73 164.783 116.308 164.357C114.223 162.241 111.863 159.86 109.581 159.86C107.09 159.86 104.812 162.254 104.812 164.89H100.391C100.391 159.853 104.688 155.43 109.583 155.43C113.718 155.43 116.903 158.653 119.46 161.246C119.858 161.654 120.246 162.043 120.619 162.402L144.701 186.506L141.567 189.636Z" fill="#AFAFAF"/>
<path d="M163.161 215.877C151.026 215.877 141.151 206.53 141.151 195.043H145.572C145.572 204.099 153.468 211.459 163.159 211.459C172.693 211.459 180.752 203.721 180.752 194.584H185.176C185.178 206.135 175.097 215.877 163.161 215.877Z" fill="#AFAFAF"/>
<path d="M122.211 215.876C110.183 215.876 100.389 206.472 100.389 194.905H104.811C104.811 204.024 112.613 211.458 122.211 211.458C131.807 211.458 139.61 204.096 139.61 195.041H144.032C144.034 206.528 134.242 215.876 122.211 215.876Z" fill="#AFAFAF"/>
<path d="M146.103 186.9H139.463V199.854H146.103V186.9Z" fill="#AFAFAF"/>
<path d="M142.716 213.848C140.134 213.848 137.314 212.919 134.562 210.321L137.603 207.098C142.919 212.121 147.967 207.333 148.178 207.134L151.263 210.301C149.584 211.934 146.405 213.848 142.716 213.848Z" fill="#AFAFAF"/>
<path d="M142.844 231.1C140.096 231.1 136.934 230.921 133.639 230.37C116.552 227.537 115.486 213.945 115.481 213.811L119.901 213.526C119.934 213.929 120.843 223.759 134.366 226.01C143.324 227.489 151.365 226.029 151.448 226.01C164.026 223.343 164.96 213.903 164.989 213.497L169.407 213.824C169.394 213.954 168.302 226.957 152.315 230.36C152.04 230.397 148.214 231.1 142.844 231.1Z" fill="#AFAFAF"/>
<path d="M156.405 282.983C154.687 282.983 153.013 282.367 151.643 281.221C150.196 280.014 149.259 278.345 149.009 276.538C148.748 274.652 149.257 272.825 150.448 271.401L150.578 271.259L168.114 253.771L171.237 256.9L153.792 274.303C153.452 274.742 153.315 275.324 153.396 275.929C153.495 276.659 153.878 277.327 154.48 277.825C155.078 278.325 155.825 278.565 156.535 278.547C157.18 278.516 157.742 278.256 158.117 277.804L158.258 277.656L224.791 211.14L279.837 155.969C280.287 155.586 280.553 155.017 280.573 154.374C280.604 153.65 280.338 152.925 279.837 152.325C279.333 151.725 278.658 151.347 277.939 151.255C277.327 151.176 276.752 151.324 276.31 151.664L258.392 169.902L255.233 166.803L273.388 148.338C274.797 147.151 276.624 146.624 278.505 146.871C280.323 147.101 281.997 148.029 283.219 149.474C284.437 150.911 285.065 152.716 284.995 154.547C284.924 156.414 284.138 158.085 282.77 159.274L227.922 214.265L161.451 280.713C160.271 282.085 158.602 282.885 156.736 282.965C156.619 282.983 156.518 282.983 156.405 282.983Z" fill="#AFAFAF"/>
<path d="M263.082 110.14L158.07 5.25609L158.008 5.17553C157.633 4.72499 157.069 4.45862 156.411 4.42737C155.679 4.40271 154.962 4.651 154.364 5.15086C153.764 5.65073 153.377 6.31993 153.282 7.03684C153.195 7.65016 153.338 8.22567 153.681 8.66963L180.202 35.2215L177.068 38.3522L150.327 11.5652C149.138 10.1478 148.632 8.32268 148.893 6.43669C149.138 4.62304 150.081 2.95409 151.531 1.74718C152.983 0.541922 154.773 -0.084537 156.62 0.00918725C158.486 0.09469 160.158 0.893804 161.337 2.26185L266.207 107.009L263.082 110.14Z" fill="#AFAFAF"/>
<path d="M109.052 101.287C107.216 101.287 105.377 100.552 104.031 99.1055L93.8987 89.1707L96.9949 86.0088L107.267 96.0734C108.156 97.0633 109.684 97.1373 110.666 96.2477C111.636 95.3681 111.731 93.8718 110.878 92.8885L91.0393 73.532C87.657 70.3141 85.651 66.0159 85.4076 61.4431C85.1659 56.8178 86.7395 52.4736 89.8505 49.2081C96.2402 42.4895 107.175 42.4895 114.222 49.1949L143.722 79.7408L140.547 82.8156L111.103 52.3289C105.886 47.373 97.7595 47.3122 93.0519 52.2483C90.7927 54.6358 89.6466 57.8093 89.8275 61.2047C90.0067 64.6446 91.526 67.8854 94.1092 70.3371L114.119 89.8728C116.649 92.6714 116.427 97.0008 113.635 99.5248C112.331 100.707 110.693 101.287 109.052 101.287Z" fill="#AFAFAF"/>
<path d="M128.875 94.1308C128.761 94.1308 128.638 94.1309 128.526 94.1193C126.727 94.0322 125.068 93.2528 123.842 91.9357L96.4858 64.9136C94.095 62.0048 94.5176 57.6935 97.4329 55.2994C100.273 52.9612 104.459 53.3066 106.878 56.0344L133.928 82.7113C135.154 84.0596 135.783 85.8091 135.689 87.6359C135.598 89.4545 134.804 91.1366 133.448 92.3633C132.185 93.506 130.567 94.1308 128.875 94.1308ZM99.8517 62.0295L127.081 88.9086C127.512 89.3904 128.102 89.6699 128.748 89.7011C129.396 89.7258 130.008 89.5154 130.485 89.0829C130.965 88.6505 131.243 88.0552 131.272 87.4123C131.305 86.794 131.09 86.1873 130.684 85.7171L103.259 58.6817C102.39 58.001 101.134 57.9829 100.245 58.713C99.2416 59.5368 99.0772 61.0084 99.8517 62.0295Z" fill="#AFAFAF"/>
<path d="M101.897 148.012C101.779 148.012 101.662 148.012 101.547 148.006C99.7448 147.912 98.0857 147.134 96.864 145.814L67.1649 116.434L70.2775 113.28L100.103 142.796C100.534 143.273 101.131 143.551 101.771 143.583C102.409 143.619 103.028 143.397 103.507 142.964C104.477 142.086 104.562 140.59 103.707 139.598L79.2307 115.472L82.3351 112.316L106.955 136.604C109.482 139.388 109.264 143.719 106.48 146.241C105.204 147.392 103.589 148.012 101.897 148.012Z" fill="#AFAFAF"/>
<path d="M88.8238 161.564C87.145 161.564 85.5451 160.957 84.284 159.831L84.1886 159.745L58.4358 133.971L61.5682 130.842L87.2667 156.567C87.7386 156.974 88.342 157.165 88.9669 157.136C89.6065 157.098 90.1951 156.815 90.6259 156.331C91.0535 155.85 91.2705 155.235 91.2327 154.592C91.1965 153.954 90.9121 153.36 90.4286 152.933L90.3234 152.841L61.9579 124.103L65.1067 120.999L93.4327 149.679C94.7646 150.886 95.544 152.536 95.6525 154.337C95.7561 156.154 95.1428 157.912 93.9343 159.273C92.7175 160.635 91.042 161.444 89.2283 161.549C89.0869 161.564 88.9537 161.564 88.8238 161.564Z" fill="#AFAFAF"/>
<path d="M155.277 94.1292C153.577 94.1292 151.965 93.5044 150.697 92.36C149.343 91.1333 148.55 89.4512 148.455 87.6327C148.366 85.8059 148.994 84.0563 150.212 82.708L150.308 82.6143L177.279 56.0196C178.422 54.7387 179.985 53.9412 181.709 53.7735C183.524 53.5943 185.301 54.132 186.714 55.2962C188.125 56.4521 188.999 58.0865 189.179 59.9051C189.353 61.722 188.817 63.4995 187.656 64.9152L187.498 65.0747L160.298 91.9242C159.085 93.2479 157.423 94.0273 155.622 94.1144C155.507 94.1292 155.39 94.1292 155.277 94.1292ZM153.462 85.7154C153.054 86.1857 152.845 86.7908 152.871 87.4107C152.907 88.0536 153.187 88.6472 153.664 89.0813C154.137 89.5137 154.762 89.7258 155.403 89.6995C156.041 89.6683 156.635 89.3904 157.069 88.907L157.155 88.8215L184.3 62.0279C184.667 61.5395 184.833 60.9443 184.775 60.3392C184.71 59.6946 184.404 59.1257 183.91 58.7113C183.414 58.3019 182.787 58.1112 182.143 58.172C181.677 58.2213 181.238 58.3956 180.882 58.6801L153.462 85.7154Z" fill="#AFAFAF"/>
<path d="M175.09 101.286C173.456 101.286 171.815 100.706 170.507 99.5233C167.712 96.9927 167.507 92.6699 170.026 89.8713L170.129 89.7727L190.018 70.3603C192.621 67.8856 194.134 64.6431 194.318 61.2032C194.501 57.8078 193.355 54.6343 191.086 52.2468C188.841 49.884 185.737 48.5784 182.353 48.5784C182.34 48.5784 182.325 48.5784 182.315 48.5784C178.887 48.5899 175.585 49.9333 173.015 52.3586L144.228 82.9012L141.007 79.8691L169.92 49.1901C173.321 45.9558 177.718 44.1668 182.297 44.1553C182.315 44.1553 182.331 44.1553 182.353 44.1553C186.958 44.1553 191.193 45.9426 194.295 49.2032C197.401 52.4688 198.986 56.813 198.735 61.4384C198.492 66.0111 196.49 70.3109 193.09 73.5452L173.27 92.8837C172.415 93.8669 172.505 95.3649 173.477 96.2429C174.462 97.1341 175.986 97.0585 176.874 96.0687L177.02 95.9272L187.952 85.8806L190.944 89.1396L180.08 99.1253C178.745 100.562 176.923 101.286 175.09 101.286Z" fill="#AFAFAF"/>
<path d="M143.719 66.4625L130.164 52.2515L126.961 55.3066L140.516 69.5176L143.719 66.4625Z" fill="#AFAFAF"/>
<path d="M157.697 55.4598L154.543 52.3604L140.781 66.3624L143.934 69.4619L157.697 55.4598Z" fill="#AFAFAF"/>
<path d="M122.523 112.429H71.0995V116.857H122.523V112.429Z" fill="#AFAFAF"/>
<path d="M124.124 139.904L97.2649 113.075L94.1356 116.208L120.995 143.037L124.124 139.904Z" fill="#AFAFAF"/>
<path d="M124.126 127.081L110.704 113.069L107.505 116.133L120.927 130.145L124.126 127.081Z" fill="#AFAFAF"/>
<path d="M175.945 101.288C174.308 101.288 172.672 100.707 171.365 99.5249C170.012 98.2999 169.213 96.6227 169.122 94.7975C169.032 92.9724 169.654 91.2278 170.885 89.8729L170.977 89.7743L190.87 70.3618C196.176 65.3139 196.646 57.1977 191.945 52.2484C187.236 47.3057 179.11 47.3731 173.83 52.403L144.455 82.8157L141.27 79.7409L170.707 49.2525C177.824 42.4846 188.76 42.4846 195.147 49.2032C201.536 55.9086 200.994 66.8349 193.94 73.5468L174.123 92.8853C173.715 93.3621 173.509 93.9557 173.539 94.5755C173.572 95.2234 173.855 95.8121 174.33 96.2462C175.316 97.1374 176.837 97.0617 177.735 96.0719L177.821 95.9798L188.004 86.0072L191.102 89.1692L180.96 99.104C179.623 100.551 177.786 101.288 175.945 101.288Z" fill="#AFAFAF"/>
<path d="M156.122 94.1292C154.427 94.1292 152.817 93.5044 151.543 92.36C148.757 89.8344 148.542 85.4984 151.066 82.708L151.151 82.6143L178.132 56.0196C179.275 54.7387 180.839 53.9412 182.554 53.7735C184.377 53.5943 186.151 54.132 187.567 55.2962C188.973 56.4521 189.851 58.0865 190.03 59.9051C190.205 61.722 189.665 63.4995 188.508 64.9152L188.348 65.0747L161.157 91.9308C159.933 93.2479 158.269 94.0273 156.472 94.1144C156.36 94.1292 156.244 94.1292 156.122 94.1292ZM154.316 85.7154C153.461 86.7053 153.549 88.195 154.519 89.0796C154.996 89.5121 155.629 89.7242 156.252 89.6979C156.895 89.6667 157.483 89.3887 157.919 88.9053L158.005 88.8198L185.148 62.0262C185.518 61.5379 185.685 60.9426 185.624 60.3375C185.569 59.693 185.254 59.1241 184.759 58.7097C184.262 58.3068 183.628 58.1095 182.994 58.1704C182.528 58.2197 182.098 58.394 181.741 58.6784L154.316 85.7154Z" fill="#AFAFAF"/>
<path d="M157.98 55.3139L154.773 52.2578L141.225 66.4736L144.432 69.5296L157.98 55.3139Z" fill="#AFAFAF"/>
</g>
</svg>
