<svg width="33" height="33" viewBox="0 0 33 33" fill="none" xmlns="http://www.w3.org/2000/svg">
<path d="M17.2558 16.4967L32.8442 0.908272C33.0519 0.700465 33.0519 0.363611 32.8442 0.155805C32.6364 -0.051935 32.2995 -0.051935 32.0917 0.155805L16.5033 15.7442L0.914921 0.155805C0.703522 -0.0483429 0.366668 -0.0424892 0.162454 0.168909C-0.0367047 0.375119 -0.0367047 0.702062 0.162454 0.908272L15.7509 16.4967L0.162454 32.0851C-0.0489442 32.2893 -0.0547979 32.6261 0.149416 32.8375C0.353631 33.0489 0.690484 33.0548 0.901883 32.8506C0.90634 32.8463 0.910663 32.8419 0.914921 32.8375L16.5033 17.2491L32.0917 32.8375C32.3031 33.0418 32.64 33.0359 32.8442 32.8245C33.0434 32.6183 33.0434 32.2913 32.8442 32.0851L17.2558 16.4967Z" fill="black"/>
</svg>
