<svg width="179" height="178" viewBox="0 0 179 178" fill="none" xmlns="http://www.w3.org/2000/svg">
<path d="M87.8555 160.093C87.8555 160.952 88.5515 161.651 89.4076 161.651C90.2607 161.651 90.9557 160.952 90.9557 160.093C90.9557 159.242 90.2607 158.549 89.4076 158.549C88.5505 158.549 87.8555 159.188 87.8555 160.093Z" fill="black"/>
<path d="M70.8457 152.038C70.8457 152.889 71.5376 153.585 72.3969 153.585C73.2489 153.585 73.9418 152.889 73.9418 152.038C73.9418 151.18 73.2489 150.485 72.3969 150.485C71.5376 150.484 70.8457 151.129 70.8457 152.038Z" fill="black"/>
<path d="M66.9062 156.043C66.9062 156.894 67.6023 157.594 68.4564 157.594C69.3146 157.594 70.0086 156.893 70.0086 156.043C70.0086 155.184 69.3146 154.49 68.4564 154.49C67.6023 154.49 66.9062 155.131 66.9062 156.043Z" fill="black"/>
<path d="M75.2031 156.521C75.2031 157.376 75.9002 158.072 76.7533 158.072C77.6104 158.072 78.3044 157.376 78.3044 156.521C78.3044 155.662 77.6104 154.975 76.7533 154.975C75.8992 154.975 75.2031 155.608 75.2031 156.521Z" fill="black"/>
<path d="M71.2051 160.496C71.2051 161.351 71.9022 162.043 72.7562 162.043C73.6113 162.043 74.3063 161.351 74.3063 160.496C74.3063 159.641 73.6113 158.947 72.7562 158.947C71.9012 158.946 71.2051 159.583 71.2051 160.496Z" fill="black"/>
<path d="M100.592 156.441C100.592 157.292 101.286 157.983 102.144 157.983C102.998 157.983 103.692 157.293 103.692 156.441C103.692 155.579 102.998 154.886 102.144 154.886C101.286 154.886 100.592 155.527 100.592 156.441Z" fill="black"/>
<path d="M104.705 160.601C104.705 161.461 105.4 162.155 106.256 162.155C107.114 162.155 107.805 161.46 107.805 160.601C107.805 159.75 107.114 159.05 106.256 159.05C105.4 159.05 104.705 159.692 104.705 160.601Z" fill="black"/>
<path d="M73.6427 152.973L71.6621 151.02L67.5643 155.173L69.5449 157.127L73.6427 152.973Z" fill="black"/>
<path d="M73.4091 161.569L71.4531 159.595L75.771 155.299L77.7311 157.273L73.4091 161.569Z" fill="black"/>
<path d="M88.1132 169.663L76.0117 157.504L77.978 155.537L90.0868 167.701L88.1132 169.663Z" fill="black"/>
<path d="M168.35 88.8522C168.35 89.6216 168.972 90.2505 169.746 90.2505C170.516 90.2505 171.138 89.6216 171.138 88.8522C171.138 88.0828 170.516 87.457 169.746 87.457C168.971 87.457 168.35 88.0322 168.35 88.8522Z" fill="black"/>
<path d="M159.898 88.7201C159.898 89.4926 160.522 90.1184 161.292 90.1184C162.062 90.1184 162.688 89.4936 162.688 88.7201C162.688 87.9497 162.063 87.3218 161.292 87.3218C160.522 87.3218 159.898 87.9042 159.898 88.7201Z" fill="black"/>
<path d="M159.898 105.738C159.898 106.503 160.522 107.136 161.292 107.136C162.062 107.136 162.688 106.503 162.688 105.738C162.688 104.965 162.063 104.34 161.292 104.34C160.522 104.339 159.898 104.914 159.898 105.738Z" fill="black"/>
<path d="M91.1492 160.093C91.1492 160.952 90.4542 161.651 89.597 161.651C88.744 161.651 88.0469 160.952 88.0469 160.093C88.0469 159.242 88.744 158.549 89.597 158.549C90.4542 158.549 91.1492 159.188 91.1492 160.093Z" fill="black"/>
<path d="M108.159 152.038C108.159 152.889 107.465 153.585 106.608 153.585C105.751 153.585 105.057 152.889 105.057 152.038C105.057 151.18 105.751 150.485 106.608 150.485C107.465 150.485 108.159 151.129 108.159 152.038Z" fill="black"/>
<path d="M112.091 156.043C112.091 156.894 111.403 157.594 110.543 157.594C109.686 157.594 108.992 156.893 108.992 156.043C108.992 155.184 109.686 154.49 110.543 154.49C111.403 154.49 112.091 155.131 112.091 156.043Z" fill="black"/>
<path d="M103.797 156.521C103.797 157.376 103.102 158.072 102.243 158.072C101.386 158.072 100.695 157.376 100.695 156.521C100.695 155.662 101.386 154.975 102.243 154.975C103.102 154.975 103.797 155.608 103.797 156.521Z" fill="black"/>
<path d="M107.794 160.496C107.794 161.351 107.098 162.043 106.241 162.043C105.383 162.043 104.693 161.351 104.693 160.496C104.693 159.641 105.383 158.947 106.241 158.947C107.098 158.946 107.794 159.583 107.794 160.496Z" fill="black"/>
<path d="M111.417 155.17L107.314 151.018L105.34 152.969L109.442 157.121L111.417 155.17Z" fill="black"/>
<path d="M107.517 159.588L103.197 155.292L101.235 157.265L105.555 161.562L107.517 159.588Z" fill="black"/>
<path d="M90.8854 169.663L88.916 167.701L101.02 155.537L102.99 157.504L90.8854 169.663Z" fill="black"/>
<path d="M90.7949 8.74096C90.7949 9.51447 90.1753 10.1393 89.4038 10.1393C88.6375 10.1393 88.0117 9.51447 88.0117 8.74096C88.0117 7.97571 88.6365 7.354 89.4038 7.354C90.1763 7.354 90.7949 7.97571 90.7949 8.74096Z" fill="black"/>
<path d="M90.729 42.7394C90.729 43.5284 90.0929 44.1615 89.308 44.1615C88.519 44.1615 87.8828 43.5284 87.8828 42.7394C87.8828 41.9546 88.519 41.3174 89.308 41.3174C90.0929 41.3174 90.729 41.9546 90.729 42.7394Z" fill="black"/>
<path d="M132.683 59.0342C132.683 59.7881 132.069 60.3932 131.318 60.3932C130.567 60.3932 129.955 59.7881 129.955 59.0342C129.955 58.2813 130.567 57.6699 131.318 57.6699C132.069 57.6699 132.683 58.2338 132.683 59.0342Z" fill="black"/>
<path d="M48.8688 59.0583C48.8688 59.8318 48.2419 60.4566 47.4705 60.4566C46.7011 60.4566 46.0742 59.8308 46.0742 59.0583C46.0742 58.2889 46.7 57.6631 47.4705 57.6631C48.2409 57.6631 48.8688 58.2383 48.8688 59.0583Z" fill="black"/>
<path d="M50.4597 40.6869C50.4597 41.4563 49.8349 42.0852 49.0593 42.0852C48.2909 42.0852 47.6641 41.4563 47.6641 40.6869C47.6641 39.9175 48.2899 39.2886 49.0593 39.2886C49.8338 39.2886 50.4597 39.8669 50.4597 40.6869Z" fill="black"/>
<path d="M57.1021 50.7887C57.1021 51.5664 56.4773 52.187 55.7069 52.187C54.9365 52.187 54.3086 51.5653 54.3086 50.7887C54.3086 50.0193 54.9355 49.3945 55.7069 49.3945C56.4773 49.3945 57.1021 49.9656 57.1021 50.7887Z" fill="black"/>
<path d="M52.698 54.993C52.698 55.7665 52.0702 56.3913 51.2987 56.3913C50.5273 56.3913 49.9004 55.7665 49.9004 54.993C49.9004 54.2195 50.5262 53.5947 51.2987 53.5947C52.0712 53.5947 52.698 54.1689 52.698 54.993Z" fill="black"/>
<path d="M48.524 50.7887C48.524 51.5664 47.9002 52.187 47.1288 52.187C46.3573 52.187 45.7305 51.5653 45.7305 50.7887C45.7305 50.0193 46.3573 49.3945 47.1288 49.3945C47.8992 49.3945 48.524 49.9656 48.524 50.7887Z" fill="black"/>
<path d="M10.652 88.8522C10.652 89.6216 10.0282 90.2505 9.25574 90.2505C8.48326 90.2505 7.85742 89.6216 7.85742 88.8522C7.85742 88.0828 8.48429 87.457 9.25574 87.457C10.0272 87.457 10.652 88.0322 10.652 88.8522Z" fill="black"/>
<path d="M23.3131 101.48C23.3131 102.249 22.6862 102.876 21.9158 102.876C21.1443 102.876 20.5195 102.25 20.5195 101.48C20.5195 100.707 21.1433 100.082 21.9158 100.082C22.6862 100.081 23.3131 100.656 23.3131 101.48Z" fill="black"/>
<path d="M27.485 105.738C27.485 106.503 26.8602 107.136 26.0878 107.136C25.3153 107.136 24.6895 106.503 24.6895 105.738C24.6895 104.965 25.3163 104.34 26.0878 104.34C26.8592 104.34 27.485 104.914 27.485 105.738Z" fill="black"/>
<path d="M23.3131 109.967C23.3131 110.736 22.6862 111.362 21.9158 111.362C21.1443 111.362 20.5195 110.736 20.5195 109.967C20.5195 109.197 21.1433 108.568 21.9158 108.568C22.6862 108.567 23.3131 109.15 23.3131 109.967Z" fill="black"/>
<path d="M19.1011 88.7201C19.1011 89.4926 18.4752 90.1184 17.7028 90.1184C16.9344 90.1184 16.3086 89.4936 16.3086 88.7201C16.3086 87.9497 16.9334 87.3218 17.7028 87.3218C18.4752 87.3218 19.1011 87.9042 19.1011 88.7201Z" fill="black"/>
<path d="M19.1011 105.738C19.1011 106.503 18.4752 107.136 17.7028 107.136C16.9344 107.136 16.3086 106.503 16.3086 105.738C16.3086 104.965 16.9334 104.34 17.7028 104.34C18.4752 104.339 19.1011 104.914 19.1011 105.738Z" fill="black"/>
<path d="M90.8608 51.1161C90.8608 51.9237 90.2092 52.5764 89.4005 52.5764C88.5981 52.5764 87.9434 51.9237 87.9434 51.1161C87.9434 50.3075 88.5981 49.6538 89.4005 49.6538C90.2092 49.6538 90.8608 50.3075 90.8608 51.1161Z" fill="black"/>
<path d="M78.0282 21.3835C78.0282 22.1488 77.4054 22.7735 76.6391 22.7735C75.8687 22.7735 75.248 22.1488 75.248 21.3835C75.248 20.6141 75.8687 19.9883 76.6391 19.9883C77.4054 19.9883 78.0282 20.6141 78.0282 21.3835Z" fill="black"/>
<path d="M103.564 21.3835C103.564 22.1488 102.939 22.7735 102.171 22.7735C101.403 22.7735 100.779 22.1488 100.779 21.3835C100.779 20.6141 101.403 19.9883 102.171 19.9883C102.939 19.9883 103.564 20.6141 103.564 21.3835Z" fill="black"/>
<path d="M87.8828 17.0979C87.8828 17.8631 88.5066 18.489 89.2708 18.489C90.0443 18.489 90.665 17.8642 90.665 17.0979C90.665 16.3285 90.0443 15.7109 89.2708 15.7109C88.5055 15.7099 87.8828 16.3285 87.8828 17.0979Z" fill="black"/>
<path d="M90.4048 9.72896L88.4473 7.75195L75.6782 20.3953L77.6357 22.3723L90.4048 9.72896Z" fill="black"/>
<path d="M103.139 20.3969L90.3691 7.75684L88.4141 9.73193L101.183 22.372L103.139 20.3969Z" fill="black"/>
<path d="M110.35 23.1059C110.35 23.8753 110.969 24.5011 111.738 24.5011C112.506 24.5011 113.13 23.8753 113.13 23.1059C113.13 22.3407 112.506 21.7148 111.738 21.7148C110.969 21.7148 110.35 22.3407 110.35 23.1059Z" fill="black"/>
<path d="M100.49 29.466C100.595 30.3438 101.142 30.9263 101.948 30.9263C102.752 30.9263 103.286 30.2746 103.402 29.466C103.526 28.6656 102.752 28.0088 101.948 28.0088C101.142 28.0088 100.398 28.6646 100.49 29.466Z" fill="black"/>
<path d="M103.073 30.3402L100.959 28.5257C106.157 22.4729 111.433 21.7427 111.657 21.7148L112.008 24.4692L111.833 23.0936L112.013 24.4692C111.971 24.4764 107.524 25.1528 103.073 30.3402Z" fill="black"/>
<path d="M102.981 28.6444L90.2324 16.1177L88.2824 18.1022L101.031 30.6289L102.981 28.6444Z" fill="black"/>
<path d="M68.1942 23.1059C68.1942 23.8753 67.5787 24.5011 66.8052 24.5011C66.0347 24.5011 65.4141 23.8753 65.4141 23.1059C65.4141 22.3407 66.0347 21.7148 66.8052 21.7148C67.5787 21.7138 68.1942 22.3407 68.1942 23.1059Z" fill="black"/>
<path d="M78.0528 29.466C77.9495 30.3438 77.4011 30.9263 76.5935 30.9263C75.787 30.9263 75.2572 30.2746 75.1374 29.466C75.0176 28.6656 75.787 28.0088 76.5935 28.0088C77.4011 28.0088 78.1457 28.6646 78.0528 29.466Z" fill="black"/>
<path d="M75.4739 30.3402C71.0207 25.1528 66.5769 24.4764 66.5273 24.4692L66.8888 21.7148C67.1108 21.7427 72.3881 22.4729 77.5848 28.5257L75.4739 30.3402Z" fill="black"/>
<path d="M90.2481 18.0952L88.2988 16.1143L75.5638 28.6456L77.513 30.6265L90.2481 18.0952Z" fill="black"/>
<path d="M133.234 70.8527L97.6721 36.0395L97.5956 35.931C95.7057 33.1912 93.2345 30.3864 89.2481 30.3161C85.8721 30.2624 84.195 32.1771 81.167 35.6553L80.9202 35.9383L46.1297 70.8414L44.1582 68.8792L78.9157 34.0071L79.0716 33.8326C82.2421 30.1881 84.5482 27.5381 89.0953 27.5381C89.1603 27.5381 89.2285 27.5381 89.2935 27.5381C94.5129 27.6269 97.6525 31.1444 99.8047 34.2405L135.183 68.8678L133.234 70.8527Z" fill="black"/>
<path d="M64.8249 129.198L57.2633 121.784L56.0787 120.693C47.5907 112.879 35.9601 102.179 35.6803 91.2374C35.3777 79.3559 39.3144 73.3712 47.1745 65.8726L49.0933 67.8853C41.667 74.973 38.1784 80.2647 38.4583 91.1672C38.7051 100.935 49.8379 111.174 57.9614 118.649L59.179 119.772L66.7705 127.209L64.8249 129.198Z" fill="black"/>
<path d="M113.269 130.186L111.357 128.166L121.404 118.649C129.529 111.174 140.658 100.936 140.909 91.1672C141.189 80.2647 137.699 74.973 130.27 67.8853L132.19 65.8726C140.055 73.3712 143.992 79.3559 143.685 91.2374C143.407 102.179 131.777 112.88 123.286 120.693L122.071 121.815L113.269 130.186Z" fill="black"/>
<path d="M90.3806 161.3L88.4277 159.327L128.055 120.18C137.089 111.838 147.452 101.021 147.709 91.0739C147.985 80.2096 145.644 74.4005 138.082 67.1931L130.435 60.1375L132.321 58.0938L139.987 65.1648C148.139 72.9361 150.787 79.4949 150.488 91.1482C150.209 102.07 139.961 112.969 129.976 122.186L90.3806 161.3Z" fill="black"/>
<path d="M88.0684 67.5942C88.0684 68.3677 88.6921 68.9884 89.4584 68.9884C90.2299 68.9884 90.8516 68.3667 90.8516 67.5942C90.8516 66.8279 90.2299 66.2031 89.4584 66.2031C88.6921 66.2031 88.0684 66.7784 88.0684 67.5942Z" fill="black"/>
<path d="M75.5117 72.0033C75.5117 72.7727 76.1582 73.3944 76.9534 73.3944C77.7424 73.3944 78.3848 72.7727 78.3848 72.0033C78.3848 71.234 77.7424 70.6133 76.9534 70.6133C76.1582 70.6133 75.5117 71.1875 75.5117 72.0033Z" fill="black"/>
<path d="M88.0645 101.473C88.0645 102.242 88.6882 102.864 89.4566 102.864C90.2259 102.864 90.8445 102.241 90.8445 101.473C90.8445 100.704 90.2259 100.082 89.4566 100.082C88.6872 100.082 88.0645 100.657 88.0645 101.473Z" fill="black"/>
<path d="M88.0156 109.958C88.0156 110.727 88.6404 111.349 89.4077 111.349C90.175 111.349 90.7957 110.726 90.7957 109.958C90.7957 109.189 90.174 108.571 89.4077 108.571C88.6414 108.571 88.0156 109.142 88.0156 109.958Z" fill="black"/>
<path d="M88.4287 161.3L48.771 122.162C38.8196 112.969 28.5708 102.069 28.2961 91.1482C27.9956 79.496 30.6404 72.9371 38.7762 65.1803L46.4618 58.0938L48.3455 60.1375L40.6754 67.2086C33.1293 74.4005 30.7932 80.2055 31.0721 91.0739C31.3251 101.02 41.6865 111.838 50.6908 120.145L90.3806 159.323L88.4287 161.3Z" fill="black"/>
<path d="M90.8454 67.5952H88.0684V101.473H90.8454V67.5952Z" fill="black"/>
<path d="M78.3776 71.916H75.5996V105.794H78.3776V71.916Z" fill="black"/>
<path d="M103.116 72.0033C103.116 72.7727 102.474 73.3944 101.683 73.3944C100.886 73.3944 100.246 72.7727 100.246 72.0033C100.246 71.234 100.886 70.6133 101.683 70.6133C102.474 70.6133 103.116 71.1875 103.116 72.0033Z" fill="black"/>
<path d="M103.032 71.916H100.254V105.794H103.032V71.916Z" fill="black"/>
<path d="M89.8907 108.654L77.3008 104.15L76.3641 106.769L88.954 111.272L89.8907 108.654Z" fill="black"/>
<path d="M102.383 106.792L101.447 104.173L88.8551 108.674L89.7912 111.293L102.383 106.792Z" fill="black"/>
<path d="M88.5526 119.105L73.451 103.982C73.2166 103.757 72.9574 103.495 72.691 103.228C71.3846 101.899 69.9005 100.403 68.4661 100.403C66.9015 100.403 65.4753 101.907 65.4753 103.562H62.6973C62.6973 100.399 65.3948 97.6211 68.4671 97.6211C71.0624 97.6211 73.0679 99.6453 74.6738 101.274C74.9216 101.53 75.1664 101.775 75.4019 102L90.5251 117.139L88.5526 119.105Z" fill="black"/>
<path d="M90.0875 119.105L88.1191 117.139L103.23 102.016C103.481 101.776 103.722 101.53 103.974 101.278C105.581 99.6453 107.579 97.6211 110.175 97.6211C113.248 97.6211 115.951 100.398 115.951 103.562H113.171C113.171 101.907 111.745 100.403 110.176 100.403C108.741 100.403 107.261 101.904 105.952 103.228C105.682 103.495 105.428 103.757 105.181 103.997L90.0875 119.105Z" fill="black"/>
<path d="M76.5203 135.586C69.0258 135.586 62.6973 129.467 62.6973 122.212H65.4732C65.4732 127.951 70.5346 132.811 76.5193 132.811C82.6093 132.811 87.5622 128.188 87.5622 122.501H90.3444C90.3465 129.715 84.1429 135.586 76.5203 135.586Z" fill="black"/>
<path d="M102.24 135.586C94.6809 135.586 88.5352 129.715 88.5352 122.501H91.3111C91.3111 128.189 96.2125 132.812 102.242 132.812C108.269 132.812 113.17 128.143 113.17 122.415H115.95C115.95 129.68 109.8 135.586 102.24 135.586Z" fill="black"/>
<path d="M91.4056 117.387H87.2344V125.523H91.4056V117.387Z" fill="black"/>
<path d="M65.4753 103.473H62.6973V122.5H65.4753V103.473Z" fill="black"/>
<path d="M115.95 103.473H113.17V122.5H115.95V103.473Z" fill="black"/>
<path d="M89.3623 134.313C87.0448 134.313 85.0486 133.111 83.9941 132.086L85.9284 130.097L84.9607 131.087L85.9222 130.088C86.263 130.407 89.3271 133.139 92.5709 130.073L94.4794 132.097C92.7558 133.73 90.9795 134.313 89.3623 134.313Z" fill="black"/>
<path d="M89.2781 145.148C85.9134 145.148 83.5216 144.713 83.3719 144.686C73.2935 142.545 72.6067 134.378 72.6016 134.296L75.3734 134.105L73.9896 134.198L75.3734 134.091C75.3951 134.347 75.9765 140.276 83.9141 141.962C83.9306 141.962 89.0044 142.875 94.6069 141.95C103.1 140.536 103.674 134.362 103.695 134.105L106.468 134.288C106.467 134.374 105.794 142.91 95.0634 144.689C92.9959 145.037 91.0048 145.148 89.2781 145.148Z" fill="black"/>
<path d="M54.8037 51.8467C47.747 45.7846 47.6758 40.8894 47.6758 40.687L50.4538 40.6911L49.0607 40.687L50.4538 40.6685C50.4538 40.7067 50.6428 44.6042 56.6151 49.7368L54.8037 51.8467Z" fill="black"/>
<path d="M128.664 40.6869C128.664 41.4563 129.289 42.0852 130.059 42.0852C130.833 42.0852 131.458 41.4563 131.458 40.6869C131.458 39.9175 130.833 39.2886 130.059 39.2886C129.29 39.2886 128.664 39.8669 128.664 40.6869Z" fill="black"/>
<path d="M122.02 50.7887C122.02 51.5664 122.647 52.187 123.419 52.187C124.19 52.187 124.815 51.5653 124.815 50.7887C124.815 50.0193 124.191 49.3945 123.419 49.3945C122.646 49.3945 122.02 49.9656 122.02 50.7887Z" fill="black"/>
<path d="M124.324 51.8466L122.512 49.7378C128.509 44.5855 128.672 40.7272 128.672 40.6921L131.454 40.688C131.454 40.8883 131.382 45.7845 124.324 51.8466Z" fill="black"/>
<path d="M56.3759 52.0519L54.4648 50.043L50.34 53.9669L52.251 55.9758L56.3759 52.0519Z" fill="black"/>
<path d="M52.1335 53.7656L48.1211 49.8096L46.1699 51.7886L50.1823 55.7446L52.1335 53.7656Z" fill="black"/>
<path d="M10.24 89.8397L8.26953 87.8734L46.2223 49.7451L48.1896 51.7063L10.24 89.8397Z" fill="black"/>
<path d="M20.9354 102.46L8.33203 89.8398L10.2963 87.8735L22.8976 100.497L20.9354 102.46Z" fill="black"/>
<path d="M22.9205 102.458L20.9277 100.523L16.8767 104.697L18.8694 106.631L22.9205 102.458Z" fill="black"/>
<path d="M27.2192 106.608L25.2539 104.642L20.9757 108.917L22.9409 110.884L27.2192 106.608Z" fill="black"/>
<path d="M80.7657 177.733C80.7007 177.733 80.6274 177.733 80.5613 177.721C79.3901 177.672 78.3389 177.17 77.5994 176.306L35.8524 134.576L1.39858 100.034C0.542452 99.2886 0.0436471 98.2394 0.00337069 97.0652C-0.0410366 95.9158 0.35449 94.7808 1.12181 93.8792C1.88602 92.9704 2.93632 92.388 4.07438 92.2444C5.26615 92.0854 6.41144 92.4189 7.29236 93.1656L7.38634 93.2544L18.6937 104.763L16.716 106.71L5.46132 95.2548C5.18145 95.0411 4.81898 94.9481 4.4348 94.9977C3.98247 95.0565 3.55801 95.293 3.24509 95.67C2.92495 96.0459 2.75972 96.5013 2.78141 96.9567C2.79587 97.3605 2.96007 97.7179 3.24201 97.9585L3.32978 98.0401L37.8198 132.61L79.6907 174.479C79.9251 174.762 80.2783 174.927 80.6862 174.946C81.1448 174.958 81.6023 174.807 81.973 174.493C82.7042 173.889 82.887 172.907 82.4068 172.281L71.4526 161.35L73.4117 159.385L84.5104 170.458C86.0099 172.265 85.6712 175.029 83.7534 176.624C82.8983 177.344 81.846 177.733 80.7657 177.733Z" fill="black"/>
<path d="M5.13207 84.8695C4.05081 84.8695 2.99639 84.4843 2.14232 83.7696C0.223515 82.1689 -0.114189 79.4022 1.38533 77.5991L1.47416 77.5061L12.8951 66.1141L14.8635 68.0836L3.49417 79.4177C3.00879 80.0477 3.19777 81.0308 3.92068 81.6329C4.29556 81.9479 4.76753 82.107 5.2085 82.0915C5.6154 82.0677 5.96755 81.9045 6.20921 81.6174L6.29389 81.5245L48.077 39.7476L50.0464 41.7129L8.30255 83.4485C7.55899 84.3067 6.51076 84.8116 5.33862 84.8623C5.27046 84.8695 5.19817 84.8695 5.13207 84.8695Z" fill="black"/>
<path d="M13.7691 69.1752L11.8027 67.21L77.6701 1.42109C78.4074 0.561861 79.4567 0.0609929 80.6288 0.00625833C81.7741 -0.0526071 82.9143 0.340869 83.8272 1.09786C84.7391 1.85588 85.3288 2.90512 85.4827 4.04319C85.6469 5.22772 85.3257 6.37405 84.5832 7.26427L84.5016 7.36134L67.7889 24.0884L65.8247 22.1221L82.4795 5.44563C82.6943 5.16576 82.7841 4.80431 82.7315 4.42014C82.6685 3.96987 82.4247 3.54954 82.0488 3.2356C81.6729 2.92061 81.2309 2.7657 80.761 2.78119C80.3541 2.80081 79.9989 2.96812 79.7593 3.25109L79.6725 3.34817L13.7691 69.1752Z" fill="black"/>
<path d="M18.6861 89.7064L16.7188 87.7411L33.986 70.478L35.9481 72.4443L18.6861 89.7064Z" fill="black"/>
<path d="M39.0477 108.107L18.6914 87.7388L16.7243 89.7048L37.0806 110.073L39.0477 108.107Z" fill="black"/>
<path d="M71.4155 152.8L24.9902 106.612L26.9483 104.643L73.3714 150.823L71.4155 152.8Z" fill="black"/>
<path d="M69.353 155.153L22.793 108.869L20.8352 110.839L67.3952 157.123L69.353 155.153Z" fill="black"/>
<path d="M88.2031 8.74096C88.2031 9.51447 88.8248 10.1393 89.5942 10.1393C90.3595 10.1393 90.9812 9.51447 90.9812 8.74096C90.9812 7.97571 90.3595 7.354 89.5942 7.354C88.8248 7.354 88.2031 7.97571 88.2031 8.74096Z" fill="black"/>
<path d="M88.2754 42.7394C88.2754 43.5284 88.9074 44.1615 89.6954 44.1615C90.4823 44.1615 91.1216 43.5284 91.1216 42.7394C91.1216 41.9546 90.4823 41.3174 89.6954 41.3174C88.9074 41.3174 88.2754 41.9546 88.2754 42.7394Z" fill="black"/>
<path d="M130.129 59.0583C130.129 59.8318 130.758 60.4566 131.528 60.4566C132.299 60.4566 132.924 59.8308 132.924 59.0583C132.924 58.2889 132.3 57.6631 131.528 57.6631C130.757 57.6631 130.129 58.2383 130.129 59.0583Z" fill="black"/>
<path d="M128.539 40.6869C128.539 41.4563 129.163 42.0852 129.934 42.0852C130.707 42.0852 131.333 41.4563 131.333 40.6869C131.333 39.9175 130.708 39.2886 129.934 39.2886C129.163 39.2886 128.539 39.8669 128.539 40.6869Z" fill="black"/>
<path d="M121.895 50.7887C121.895 51.5664 122.517 52.187 123.288 52.187C124.061 52.187 124.687 51.5653 124.687 50.7887C124.687 50.0193 124.061 49.3945 123.288 49.3945C122.517 49.3945 121.895 49.9656 121.895 50.7887Z" fill="black"/>
<path d="M126.307 54.993C126.307 55.7665 126.932 56.3913 127.704 56.3913C128.473 56.3913 129.099 55.7665 129.099 54.993C129.099 54.2195 128.474 53.5947 127.704 53.5947C126.932 53.5947 126.307 54.1689 126.307 54.993Z" fill="black"/>
<path d="M130.477 50.7887C130.477 51.5664 131.103 52.187 131.872 52.187C132.642 52.187 133.27 51.5653 133.27 50.7887C133.27 50.0193 132.643 49.3945 131.872 49.3945C131.104 49.3945 130.477 49.9656 130.477 50.7887Z" fill="black"/>
<path d="M155.684 101.48C155.684 102.249 156.31 102.876 157.082 102.876C157.852 102.876 158.48 102.25 158.48 101.48C158.48 100.707 157.853 100.082 157.082 100.082C156.311 100.081 155.684 100.656 155.684 101.48Z" fill="black"/>
<path d="M151.518 105.738C151.518 106.503 152.141 107.136 152.913 107.136C153.686 107.136 154.311 106.503 154.311 105.738C154.311 104.965 153.687 104.34 152.913 104.34C152.142 104.339 151.518 104.914 151.518 105.738Z" fill="black"/>
<path d="M155.684 109.967C155.684 110.736 156.31 111.362 157.082 111.362C157.852 111.362 158.48 110.736 158.48 109.967C158.48 109.197 157.853 108.568 157.082 108.568C156.311 108.567 155.684 109.15 155.684 109.967Z" fill="black"/>
<path d="M88.1348 51.1161C88.1348 51.9237 88.7885 52.5764 89.5961 52.5764C90.4016 52.5764 91.0553 51.9237 91.0553 51.1161C91.0553 50.3075 90.4016 49.6538 89.5961 49.6538C88.7885 49.6538 88.1348 50.3075 88.1348 51.1161Z" fill="black"/>
<path d="M100.975 21.3835C100.975 22.1488 101.596 22.7735 102.363 22.7735C103.131 22.7735 103.757 22.1488 103.757 21.3835C103.757 20.6141 103.132 19.9883 102.363 19.9883C101.595 19.9883 100.975 20.6141 100.975 21.3835Z" fill="black"/>
<path d="M91.1194 17.0979C91.1194 17.8631 90.4966 18.489 89.7273 18.489C88.9599 18.489 88.332 17.8642 88.332 17.0979C88.332 16.3285 88.9589 15.7109 89.7273 15.7109C90.4966 15.7099 91.1194 16.3285 91.1194 17.0979Z" fill="black"/>
<path d="M103.346 20.394L90.5762 7.75391L88.6182 9.73193L101.388 22.372L103.346 20.394Z" fill="black"/>
<path d="M77.8024 22.3712L75.8516 20.3935L88.6171 7.75293L90.5741 9.7306L77.8024 22.3712Z" fill="black"/>
<path d="M68.6494 23.1059C68.6494 23.8753 68.0256 24.5011 67.2583 24.5011C66.492 24.5011 65.8672 23.8753 65.8672 23.1059C65.8672 22.3407 66.4909 21.7148 67.2583 21.7148C68.0256 21.7138 68.6494 22.3407 68.6494 23.1059Z" fill="black"/>
<path d="M78.5077 29.466C78.4034 30.3438 77.8561 30.9263 77.0485 30.9263C76.2502 30.9263 75.7132 30.2746 75.5923 29.466C75.4725 28.6656 76.2502 28.0088 77.0485 28.0088C77.8561 28.0088 78.6017 28.6646 78.5077 29.466Z" fill="black"/>
<path d="M75.9287 30.3402C71.4777 25.1528 67.0297 24.4764 66.9863 24.4692L67.3436 21.7148C67.5688 21.7427 72.844 22.4729 78.0396 28.5257L75.9287 30.3402Z" fill="black"/>
<path d="M90.7181 18.0929L88.7676 16.1118L76.0339 28.6489L77.9845 30.63L90.7181 18.0929Z" fill="black"/>
<path d="M110.805 23.1059C110.805 23.8753 111.428 24.5011 112.196 24.5011C112.965 24.5011 113.586 23.8753 113.586 23.1059C113.586 22.3407 112.965 21.7148 112.196 21.7148C111.428 21.7138 110.805 22.3407 110.805 23.1059Z" fill="black"/>
<path d="M100.948 29.466C101.05 30.3438 101.601 30.9263 102.405 30.9263C103.208 30.9263 103.741 30.2746 103.863 29.466C103.981 28.6656 103.208 28.0088 102.405 28.0088C101.601 28.0088 100.853 28.6646 100.948 29.466Z" fill="black"/>
<path d="M103.524 30.3402L101.416 28.5257C106.613 22.4729 111.887 21.7427 112.11 21.7148L112.458 24.4692L112.284 23.0936L112.468 24.4692C112.424 24.4764 107.977 25.1528 103.524 30.3402Z" fill="black"/>
<path d="M103.446 28.6444L90.7051 16.1177L88.7567 18.0994L101.498 30.6261L103.446 28.6444Z" fill="black"/>
<path d="M45.763 70.8527L43.8184 68.8678L79.1914 34.2405C81.3487 31.1433 84.4882 27.6269 89.7014 27.5381C89.7716 27.5381 89.8388 27.5381 89.9049 27.5381C94.4499 27.5381 96.7518 30.1808 99.9223 33.8243L100.079 34.0071L134.835 68.8792L132.867 70.8372L98.02 35.8681L97.8279 35.6512C94.8 32.1761 93.1528 30.2655 89.752 30.3151C85.7636 30.3853 83.2902 33.1902 81.4035 35.93L81.231 36.1314L45.763 70.8527Z" fill="black"/>
<path d="M114.18 129.198L112.23 127.209L119.795 119.795L121.039 118.649C129.163 111.174 140.291 100.936 140.543 91.1672C140.823 80.2605 137.336 74.9688 129.908 67.8853L131.823 65.8726C139.689 73.3712 143.625 79.3517 143.321 91.2374C143.041 102.179 131.412 112.88 122.922 120.693L121.705 121.815L114.18 129.198Z" fill="black"/>
<path d="M88.6214 161.3L48.9935 122.162C39.0401 112.969 28.7934 102.069 28.5146 91.1482C28.2161 79.496 30.8609 72.9371 39.0009 65.1803L46.6823 58.0938L48.5681 60.1375L40.898 67.2086C33.3519 74.4005 31.0148 80.2055 31.2926 91.0811C31.5487 101.02 41.909 111.838 50.9123 120.145L90.5732 159.326L88.6214 161.3Z" fill="black"/>
<path d="M90.9298 67.5942C90.9298 68.3677 90.306 68.9884 89.5377 68.9884C88.7662 68.9884 88.1445 68.3667 88.1445 67.5942C88.1445 66.8279 88.7662 66.2031 89.5377 66.2031C90.3071 66.2031 90.9298 66.7784 90.9298 67.5942Z" fill="black"/>
<path d="M103.48 72.0033C103.48 72.7727 102.842 73.3944 102.049 73.3944C101.255 73.3944 100.611 72.7727 100.611 72.0033C100.611 71.234 101.255 70.6133 102.049 70.6133C102.842 70.6133 103.48 71.1875 103.48 72.0033Z" fill="black"/>
<path d="M90.9335 101.473C90.9335 102.242 90.3107 102.864 89.5403 102.864C88.7802 102.864 88.1523 102.241 88.1523 101.473C88.1523 100.704 88.7792 100.082 89.5403 100.082C90.3107 100.082 90.9335 100.657 90.9335 101.473Z" fill="black"/>
<path d="M90.9812 109.958C90.9812 110.727 90.3595 111.349 89.5963 111.349C88.829 111.349 88.2031 110.726 88.2031 109.958C88.2031 109.189 88.8279 108.571 89.5963 108.571C90.3595 108.571 90.9812 109.142 90.9812 109.958Z" fill="black"/>
<path d="M90.572 161.3L88.6191 159.323L128.274 120.18C137.308 111.838 147.672 101.021 147.925 91.0739C148.203 80.2055 145.866 74.4005 138.301 67.1931L130.654 60.1375L132.537 58.0938L140.202 65.1648C148.356 72.9361 151.004 79.4949 150.708 91.1482C150.428 102.07 140.182 112.969 130.192 122.186L90.572 161.3Z" fill="black"/>
<path d="M90.9314 67.5952H88.1523V101.473H90.9314V67.5952Z" fill="black"/>
<path d="M103.396 71.916H100.615V105.794H103.396V71.916Z" fill="black"/>
<path d="M102.654 106.746L101.715 104.127L89.128 108.64L90.067 111.259L102.654 106.746Z" fill="black"/>
<path d="M90.1514 108.657L77.5605 104.154L76.6239 106.773L89.2147 111.276L90.1514 108.657Z" fill="black"/>
<path d="M90.4359 119.105L88.4727 117.139L103.578 102.016C103.833 101.776 104.074 101.53 104.323 101.278C105.931 99.6453 107.931 97.6211 110.531 97.6211C113.605 97.6211 116.305 100.398 116.305 103.562H113.526C113.526 101.907 112.095 100.403 110.532 100.403C109.097 100.403 107.609 101.904 106.305 103.228C106.039 103.495 105.779 103.757 105.533 103.997L90.4359 119.105Z" fill="black"/>
<path d="M88.9143 119.105L73.8065 103.982C73.5711 103.757 73.3149 103.495 73.0495 103.228C71.74 101.899 70.2581 100.403 68.8246 100.403C67.2601 100.403 65.8297 101.907 65.8297 103.562H63.0527C63.0527 100.399 65.7512 97.6211 68.8257 97.6211C71.423 97.6211 73.4234 99.6453 75.0293 101.274C75.2792 101.53 75.5229 101.775 75.7573 102L90.8827 117.139L88.9143 119.105Z" fill="black"/>
<path d="M102.476 135.586C94.8549 135.586 88.6523 129.715 88.6523 122.501H91.4294C91.4294 128.189 96.3885 132.811 102.475 132.811C108.463 132.811 113.525 127.951 113.525 122.212H116.304C116.305 129.467 109.973 135.586 102.476 135.586Z" fill="black"/>
<path d="M76.7581 135.586C69.2037 135.586 63.0527 129.68 63.0527 122.415H65.8297C65.8297 128.143 70.73 132.812 76.7581 132.812C82.7851 132.812 87.6864 128.188 87.6864 122.501H90.4634C90.4644 129.715 84.3145 135.586 76.7581 135.586Z" fill="black"/>
<path d="M91.7619 117.387H87.5918V125.523H91.7619V117.387Z" fill="black"/>
<path d="M116.302 103.473H113.523V122.5H116.302V103.473Z" fill="black"/>
<path d="M89.635 134.313C88.0136 134.313 86.2425 133.729 84.5137 132.097L86.4242 130.073C89.763 133.228 92.9335 130.221 93.0657 130.096L95.0031 132.085C93.9487 133.11 91.9524 134.313 89.635 134.313Z" fill="black"/>
<path d="M89.7169 145.148C87.9912 145.148 86.0052 145.035 83.9357 144.689C73.2036 142.91 72.5343 134.373 72.5312 134.289L75.3072 134.11C75.3279 134.363 75.899 140.537 84.3921 141.95C90.0184 142.88 95.0685 141.963 95.1211 141.95C103.02 140.275 103.607 134.346 103.626 134.091L106.401 134.297C106.392 134.378 105.707 142.545 95.6654 144.683C95.4929 144.706 93.0898 145.148 89.7169 145.148Z" fill="black"/>
<path d="M124.198 51.8466L122.387 49.7378C128.386 44.5855 128.548 40.7272 128.548 40.6921L131.328 40.688C131.328 40.8883 131.258 45.7845 124.198 51.8466Z" fill="black"/>
<path d="M126.742 55.9964L122.615 52.0762L124.532 50.0645L128.657 53.9878L126.742 55.9964Z" fill="black"/>
<path d="M132.847 51.7875L130.896 49.8096L126.887 53.764L128.838 55.7419L132.847 51.7875Z" fill="black"/>
<path d="M168.762 89.8397L130.809 51.7063L132.78 49.7451L170.729 87.8734L168.762 89.8397Z" fill="black"/>
<path d="M170.663 89.8273L168.695 87.8647L156.096 100.496L158.064 102.458L170.663 89.8273Z" fill="black"/>
<path d="M162.113 104.655L158.064 100.486L156.07 102.423L160.119 106.592L162.113 104.655Z" fill="black"/>
<path d="M158.017 108.957L153.746 104.678L151.778 106.642L156.049 110.921L158.017 108.957Z" fill="black"/>
<path d="M98.2341 177.733C97.1549 177.733 96.1036 177.345 95.2433 176.625C94.3345 175.867 93.7459 174.819 93.5889 173.684C93.4247 172.5 93.7448 171.352 94.4925 170.458L94.5741 170.369L105.588 159.385L107.549 161.35L96.5931 172.281C96.3793 172.557 96.2936 172.922 96.3442 173.302C96.4062 173.761 96.6468 174.18 97.0248 174.493C97.4007 174.807 97.8696 174.958 98.3157 174.946C98.7205 174.927 99.0737 174.763 99.3092 174.479L99.398 174.387L141.185 132.61L175.758 97.9585C176.041 97.7178 176.208 97.3605 176.221 96.9567C176.24 96.5023 176.073 96.0469 175.758 95.6699C175.442 95.293 175.017 95.0555 174.566 94.9976C174.182 94.9481 173.82 95.041 173.543 95.2548L162.289 106.71L160.305 104.763L171.708 93.1656C172.593 92.42 173.74 92.0895 174.921 92.2444C176.064 92.389 177.115 92.9714 177.882 93.8792C178.647 94.7818 179.042 95.9157 178.998 97.0652C178.953 98.2384 178.459 99.2876 177.6 100.034L143.152 134.573L101.404 176.306C100.662 177.169 99.6138 177.671 98.4417 177.721C98.3684 177.733 98.3054 177.733 98.2341 177.733Z" fill="black"/>
<path d="M173.867 84.8701C173.798 84.8701 173.729 84.8701 173.664 84.8618C172.489 84.8112 171.441 84.3062 170.698 83.448L128.955 41.7124L130.919 39.7471L172.787 81.6169C173.029 81.904 173.38 82.0683 173.788 82.091C174.246 82.1065 174.704 81.9474 175.081 81.6324C175.454 81.3164 175.696 80.894 175.757 80.4469C175.811 80.0627 175.721 79.6971 175.508 79.4173L164.136 68.0789L166.101 66.1136L177.609 77.5986C178.355 78.4919 178.675 79.6341 178.513 80.8238C178.356 81.9619 177.768 83.007 176.856 83.7692C176.002 84.4848 174.947 84.8701 173.867 84.8701Z" fill="black"/>
<path d="M165.236 69.1758L99.2805 3.3012L99.2412 3.2506C99.0058 2.96763 98.6515 2.80033 98.2384 2.7807C97.7789 2.76521 97.3286 2.92116 96.9527 3.23511C96.5757 3.54906 96.3331 3.96936 96.2732 4.41963C96.2184 4.80484 96.3083 5.16631 96.5241 5.44514L113.181 22.1216L111.213 24.0879L94.4174 7.26378C93.6707 6.37357 93.3526 5.22724 93.5168 4.0427C93.6707 2.9036 94.2624 1.85538 95.1733 1.09735C96.0852 0.340365 97.2098 -0.0530952 98.3696 0.00577024C99.5417 0.0594721 100.592 0.561372 101.332 1.4206L167.198 67.2095L165.236 69.1758Z" fill="black"/>
<path d="M162.277 87.7361L145.014 70.4731L143.047 72.4397L160.31 89.7026L162.277 87.7361Z" fill="black"/>
<path d="M162.251 89.6968L160.281 87.7305L139.937 108.109L141.907 110.075L162.251 89.6968Z" fill="black"/>
<path d="M107.588 152.8L105.625 150.823L152.048 104.643L154.008 106.612L107.588 152.8Z" fill="black"/>
<path d="M158.159 110.83L156.199 108.861L109.659 155.165L111.618 157.134L158.159 110.83Z" fill="black"/>
<path d="M68.4928 63.6146C67.3392 63.6146 66.1846 63.153 65.3388 62.2442L58.9752 56.0045L60.9198 54.0186L67.3712 60.3399C67.9299 60.9616 68.8894 61.0081 69.5059 60.4494C70.1152 59.8969 70.1751 58.9571 69.6391 58.3395L57.1793 46.1822C55.0549 44.1612 53.795 41.4616 53.6422 38.5896C53.4904 35.6845 54.4787 32.9561 56.4326 30.9051C60.4458 26.6854 67.3134 26.6853 71.7397 30.8968L90.2678 50.0818L88.2737 52.013L69.7806 32.8652C66.5037 29.7526 61.4 29.7144 58.4433 32.8146C57.0243 34.3141 56.3045 36.3073 56.4181 38.4399C56.5307 40.6003 57.485 42.6358 59.1074 44.1756L71.6746 56.4455C73.264 58.2032 73.1246 60.9223 71.371 62.5076C70.552 63.2501 69.5234 63.6146 68.4928 63.6146Z" fill="black"/>
<path d="M80.9427 59.1202C80.8714 59.1202 80.794 59.1202 80.7237 59.1129C79.5939 59.0582 78.5519 58.5687 77.7815 57.7415L60.6 40.7696C59.0984 38.9427 59.3638 36.2349 61.1949 34.7313C62.9784 33.2627 65.6077 33.4796 67.1268 35.1929L84.1163 51.9479C84.8867 52.7947 85.2812 53.8935 85.2223 55.0409C85.1655 56.1831 84.6667 57.2396 83.8147 58.01C83.0215 58.7277 82.0054 59.1202 80.9427 59.1202ZM62.714 38.9582L79.816 55.8402C80.0866 56.1428 80.4573 56.3184 80.8631 56.338C81.27 56.3535 81.6542 56.2213 81.9537 55.9497C82.2553 55.6781 82.4298 55.3042 82.4484 54.9004C82.469 54.5121 82.3337 54.1311 82.0787 53.8357L64.8538 36.8556C64.3085 36.428 63.5195 36.4167 62.9608 36.8752C62.3309 37.3926 62.2276 38.3169 62.714 38.9582Z" fill="black"/>
<path d="M63.9998 92.9634C63.9255 92.9634 63.8522 92.9634 63.7799 92.9593C62.648 92.9004 61.606 92.412 60.8387 91.5827L42.1855 73.1299L44.1405 71.1491L62.8731 89.6876C63.1437 89.9871 63.5186 90.1616 63.9203 90.1813C64.321 90.204 64.7104 90.0646 65.0109 89.793C65.6202 89.2415 65.6739 88.3017 65.1369 87.679L49.7637 72.5258L51.7135 70.5439L67.1765 85.7984C68.7638 87.5468 68.6265 90.267 66.878 91.8512C66.0766 92.5741 65.0625 92.9634 63.9998 92.9634Z" fill="black"/>
<path d="M114.855 92.9635C113.787 92.9635 112.779 92.5752 111.981 91.8512C110.229 90.266 110.091 87.5468 111.679 85.7984L111.731 85.7354L127.138 70.543L129.092 72.5248L113.717 87.678C113.18 88.3007 113.236 89.2405 113.847 89.7961C114.146 90.0646 114.532 90.2041 114.933 90.1813C115.339 90.1617 115.712 89.9872 115.984 89.6877L116.034 89.6288L134.714 71.1492L136.669 73.13L118.012 91.5827C117.253 92.411 116.209 92.8994 115.076 92.9593C115.003 92.9635 114.929 92.9635 114.855 92.9635Z" fill="black"/>
<path d="M55.787 101.473C54.7326 101.473 53.7277 101.091 52.9356 100.384L52.8757 100.33L36.7012 84.1423L38.6685 82.177L54.809 98.3341C55.1054 98.5902 55.4844 98.71 55.8768 98.6914C56.2786 98.6676 56.6483 98.49 56.9189 98.1864C57.1874 97.8838 57.3237 97.4976 57.3 97.0938C57.2772 96.6931 57.0986 96.3202 56.7949 96.0517L56.7289 95.9939L38.9133 77.9449L40.891 75.9951L58.6817 94.008C59.5182 94.766 60.0078 95.8029 60.0759 96.9337C60.141 98.0749 59.7558 99.1788 58.9967 100.034C58.2325 100.889 57.1802 101.397 56.0411 101.463C55.9523 101.473 55.8686 101.473 55.787 101.473Z" fill="black"/>
<path d="M123.285 101.472C123.206 101.472 123.116 101.472 123.033 101.464C121.888 101.398 120.839 100.888 120.078 100.034C119.315 99.1793 118.931 98.0763 118.998 96.9341C119.06 95.8033 119.559 94.7654 120.392 94.0085L138.181 75.9956L140.157 77.9454L122.275 96.0522C121.977 96.3207 121.799 96.6935 121.776 97.0942C121.753 97.498 121.883 97.8832 122.157 98.1869C122.424 98.4894 122.791 98.6681 123.196 98.6919C123.58 98.7115 123.963 98.5907 124.26 98.3345L140.406 82.1775L142.372 84.1428L126.137 100.384C125.345 101.091 124.341 101.472 123.285 101.472Z" fill="black"/>
<path d="M97.5243 59.1199C96.4565 59.1199 95.4444 58.7275 94.6482 58.0087C93.7972 57.2383 93.2995 56.1818 93.2396 55.0396C93.1838 53.8922 93.5783 52.7934 94.3436 51.9466L94.4034 51.8877L111.343 35.1844C112.061 34.3799 113.043 33.879 114.125 33.7737C115.266 33.6611 116.382 33.9988 117.269 34.73C118.155 35.456 118.705 36.4825 118.817 37.6247C118.927 38.7659 118.59 39.8822 117.861 40.7714L117.762 40.8716L100.678 57.735C99.9162 58.5663 98.8721 59.0559 97.7412 59.1106C97.669 59.1199 97.5956 59.1199 97.5243 59.1199ZM96.3842 53.8354C96.1281 54.1308 95.997 54.5108 96.0135 54.9002C96.0362 55.304 96.2118 55.6768 96.5113 55.9494C96.8087 56.221 97.2011 56.3542 97.6039 56.3377C98.0046 56.3181 98.3774 56.1436 98.65 55.84L98.7037 55.7862L115.753 38.958C115.983 38.6513 116.088 38.2774 116.051 37.8974C116.01 37.4925 115.818 37.1352 115.508 36.875C115.196 36.6178 114.803 36.498 114.398 36.5362C114.106 36.5672 113.83 36.6767 113.606 36.8553L96.3842 53.8354Z" fill="black"/>
<path d="M109.967 63.6155C108.94 63.6155 107.91 63.251 107.089 62.5084C105.333 60.9191 105.204 58.204 106.786 56.4463L106.851 56.3844L119.343 44.192C120.978 42.6377 121.928 40.6012 122.044 38.4407C122.158 36.3081 121.438 34.315 120.013 32.8155C118.604 31.3314 116.654 30.5114 114.528 30.5114C114.52 30.5114 114.511 30.5114 114.505 30.5114C112.351 30.5187 110.278 31.3624 108.664 32.8857L90.5836 52.0686L88.5605 50.1642L106.72 30.8956C108.856 28.8642 111.617 27.7406 114.493 27.7334C114.505 27.7334 114.515 27.7334 114.528 27.7334C117.421 27.7334 120.08 28.856 122.029 30.9039C123.98 32.9549 124.976 35.6834 124.818 38.5884C124.665 41.4604 123.408 44.161 121.272 46.1924L108.824 58.3383C108.287 58.9559 108.343 59.8967 108.954 60.4481C109.572 61.0079 110.53 60.9604 111.087 60.3387L111.179 60.2499L118.045 53.9399L119.924 55.9868L113.101 62.2585C112.263 63.1611 111.118 63.6155 109.967 63.6155Z" fill="black"/>
<path d="M90.2655 41.7429L81.752 32.8174L79.7403 34.7362L88.2538 43.6618L90.2655 41.7429Z" fill="black"/>
<path d="M99.045 34.8324L97.0645 32.8857L88.4206 41.68L90.4011 43.6267L99.045 34.8324Z" fill="black"/>
<path d="M76.9518 70.6133H44.6543V73.3944H76.9518V70.6133Z" fill="black"/>
<path d="M133.976 70.6133H101.68V73.3944H133.976V70.6133Z" fill="black"/>
<path d="M77.9573 87.8698L61.0879 71.0195L59.1224 72.9872L75.9918 89.8375L77.9573 87.8698Z" fill="black"/>
<path d="M77.9592 79.816L69.5293 71.0156L67.5203 72.9401L75.9502 81.7405L77.9592 79.816Z" fill="black"/>
<path d="M110.507 63.6153C109.479 63.6153 108.452 63.2508 107.631 62.5082C106.781 61.7388 106.279 60.6855 106.222 59.5391C106.165 58.3928 106.555 57.2971 107.329 56.4461L107.387 56.3842L119.881 44.1918C123.213 41.0213 123.509 35.9238 120.556 32.8153C117.598 29.7109 112.495 29.7532 109.179 32.9123L90.7289 52.0137L88.7285 50.0825L107.217 30.9336C111.687 26.6829 118.556 26.6829 122.567 30.9026C126.58 35.1141 126.239 41.9766 121.809 46.1922L109.362 58.3381C109.106 58.6376 108.977 59.0104 108.996 59.3997C109.016 59.8066 109.194 60.1763 109.493 60.449C110.112 61.0087 111.067 60.9612 111.631 60.3395L111.685 60.2817L118.081 54.0182L120.026 56.0041L113.656 62.2439C112.817 63.1527 111.663 63.6153 110.507 63.6153Z" fill="black"/>
<path d="M98.0571 59.1199C96.9923 59.1199 95.9813 58.7275 95.1809 58.0087C93.4315 56.4224 93.2962 53.6991 94.8815 51.9466L94.9351 51.8877L111.881 35.1844C112.599 34.3799 113.581 33.879 114.658 33.7737C115.803 33.6611 116.918 33.9988 117.807 34.73C118.69 35.456 119.241 36.4825 119.354 37.6247C119.463 38.7659 119.125 39.8822 118.398 40.7714L118.298 40.8716L101.219 57.7392C100.451 58.5664 99.4058 59.0559 98.2771 59.1106C98.2068 59.1199 98.1335 59.1199 98.0571 59.1199ZM96.9232 53.8354C96.3861 54.4571 96.4409 55.3928 97.0502 55.9484C97.3497 56.22 97.7473 56.3532 98.1387 56.3367C98.5425 56.3171 98.9122 56.1425 99.1859 55.8389L99.2395 55.7852L116.288 38.9569C116.52 38.6502 116.625 38.2764 116.586 37.8963C116.552 37.4915 116.354 37.1342 116.043 36.8739C115.731 36.6209 115.333 36.497 114.935 36.5352C114.642 36.5662 114.372 36.6756 114.148 36.8543L96.9232 53.8354Z" fill="black"/>
<path d="M115.004 92.964C113.977 92.964 112.947 92.5984 112.128 91.8518C111.277 91.0865 110.778 90.0331 110.718 88.8868C110.662 87.7415 111.057 86.6406 111.825 85.7897L111.88 85.7349L127.282 70.5425L129.234 72.5243L113.864 87.6775C113.606 87.978 113.48 88.3539 113.496 88.7464C113.515 89.1471 113.69 89.5199 113.991 89.7915C114.609 90.3512 115.566 90.3048 116.132 89.6831L116.182 89.6283L134.861 71.1487L136.815 73.1295L118.161 91.5823C117.319 92.4972 116.163 92.964 115.004 92.964Z" fill="black"/>
<path d="M123.214 101.472C123.131 101.472 123.046 101.472 122.961 101.464C121.818 101.398 120.765 100.888 120.006 100.034C119.24 99.1793 118.858 98.0763 118.926 96.9341C118.99 95.8033 119.482 94.7654 120.321 94.0085L138.107 75.9956L140.084 77.9454L122.206 96.0522C121.903 96.3207 121.723 96.6935 121.701 97.0942C121.678 97.498 121.811 97.8832 122.083 98.1869C122.348 98.4894 122.716 98.6681 123.123 98.6919C123.518 98.7156 123.892 98.5907 124.19 98.3345L140.332 82.1775L142.297 84.1428L126.063 100.384C125.27 101.091 124.263 101.472 123.214 101.472Z" fill="black"/>
<path d="M99.223 34.7402L97.209 32.8208L88.6998 41.7493L90.7138 43.6687L99.223 34.7402Z" fill="black"/>
<path d="M134.346 70.6133H102.051V73.3944H134.346V70.6133Z" fill="black"/>
<path d="M119.88 72.983L117.916 71.0171L101.051 87.8683L103.015 89.8342L119.88 72.983Z" fill="black"/>
<path d="M103.051 81.7685L101.047 79.8456L109.479 71.0405L111.482 72.9676L103.051 81.7685Z" fill="black"/>
<path d="M119.621 73.0057L117.652 71.0396L100.801 87.912L102.77 89.8782L119.621 73.0057Z" fill="black"/>
<path d="M102.785 81.7685L100.779 79.8456L109.208 71.0405L111.216 72.9676L102.785 81.7685Z" fill="black"/>
</svg>
