<svg width="18" height="18" viewBox="0 0 18 18" fill="none" xmlns="http://www.w3.org/2000/svg">
<path d="M7.92682 0C3.55609 0 0 3.55609 0 7.92682C0 12.2978 3.55609 15.8536 7.92682 15.8536C12.2978 15.8536 15.8536 12.2978 15.8536 7.92682C15.8536 3.55609 12.2978 0 7.92682 0ZM7.92682 14.3903C4.36292 14.3903 1.46341 11.4907 1.46341 7.92685C1.46341 4.36296 4.36292 1.46341 7.92682 1.46341C11.4907 1.46341 14.3902 4.36292 14.3902 7.92682C14.3902 11.4907 11.4907 14.3903 7.92682 14.3903Z" fill="black"/>
<path d="M17.7857 16.7511L13.5906 12.5559C13.3047 12.2701 12.8418 12.2701 12.5559 12.5559C12.2701 12.8416 12.2701 13.305 12.5559 13.5906L16.7511 17.7857C16.894 17.9286 17.0811 18.0001 17.2684 18.0001C17.4555 18.0001 17.6428 17.9286 17.7857 17.7857C18.0716 17.5001 18.0716 17.0367 17.7857 16.7511Z" fill="black"/>
</svg>
