<svg width="268" height="102" viewBox="0 0 268 102" fill="none" xmlns="http://www.w3.org/2000/svg">
<path d="M251.668 49.1952C251.668 50.1494 252.597 50.9294 253.75 50.9294C254.899 50.9294 255.826 50.1494 255.826 49.1952C255.826 48.241 254.899 47.4648 253.75 47.4648C252.595 47.4648 251.668 48.1782 251.668 49.1952Z" fill="white"/>
<path d="M239.064 49.0313C239.064 49.9894 239.995 50.7655 241.142 50.7655C242.291 50.7655 243.224 49.9906 243.224 49.0313C243.224 48.0759 242.292 47.2971 241.142 47.2971C239.995 47.2971 239.064 48.0195 239.064 49.0313Z" fill="white"/>
<path d="M239.064 70.1373C239.064 71.0863 239.995 71.8715 241.142 71.8715C242.291 71.8715 243.224 71.0863 243.224 70.1373C243.224 69.178 242.292 68.4031 241.142 68.4031C239.995 68.4018 239.064 69.1152 239.064 70.1373Z" fill="white"/>
<path d="M198.481 12.2147C198.481 13.1496 197.566 13.9001 196.447 13.9001C195.327 13.9001 194.414 13.1496 194.414 12.2147C194.414 11.281 195.327 10.5227 196.447 10.5227C197.566 10.5227 198.481 11.222 198.481 12.2147Z" fill="white"/>
<path d="M73.5031 12.2445C73.5031 13.2038 72.5683 13.9787 71.418 13.9787C70.2707 13.9787 69.3359 13.2025 69.3359 12.2445C69.3359 11.2903 70.2691 10.5142 71.418 10.5142C72.5668 10.5142 73.5031 11.2275 73.5031 12.2445Z" fill="white"/>
<path d="M85.7847 1.98836C85.7847 2.9528 84.8531 3.72256 83.7043 3.72256C82.5554 3.72256 81.6191 2.95152 81.6191 1.98836C81.6191 1.03417 82.5539 0.259277 83.7043 0.259277C84.8531 0.259277 85.7847 0.967566 85.7847 1.98836Z" fill="white"/>
<path d="M79.2128 7.20268C79.2128 8.162 78.2765 8.93689 77.1261 8.93689C75.9758 8.93689 75.041 8.162 75.041 7.20268C75.041 6.24336 75.9742 5.46851 77.1261 5.46851C78.278 5.46851 79.2128 6.1806 79.2128 7.20268Z" fill="white"/>
<path d="M72.9879 1.98836C72.9879 2.9528 72.0577 3.72256 70.9074 3.72256C69.757 3.72256 68.8223 2.95152 68.8223 1.98836C68.8223 1.03417 69.757 0.259277 70.9074 0.259277C72.0562 0.259277 72.9879 0.967566 72.9879 1.98836Z" fill="white"/>
<path d="M16.5148 49.1952C16.5148 50.1494 15.5847 50.9294 14.4328 50.9294C13.2809 50.9294 12.3477 50.1494 12.3477 49.1952C12.3477 48.241 13.2824 47.4648 14.4328 47.4648C15.5832 47.4648 16.5148 48.1782 16.5148 49.1952Z" fill="white"/>
<path d="M35.3922 64.8568C35.3922 65.8097 34.4574 66.5871 33.3086 66.5871C32.1582 66.5871 31.2266 65.8109 31.2266 64.8568C31.2266 63.8974 32.1567 63.1226 33.3086 63.1226C34.4574 63.1213 35.3922 63.8347 35.3922 64.8568Z" fill="white"/>
<path d="M41.6179 70.1373C41.6179 71.0863 40.6862 71.8715 39.5343 71.8715C38.3824 71.8715 37.4492 71.0863 37.4492 70.1373C37.4492 69.178 38.384 68.4031 39.5343 68.4031C40.6847 68.4031 41.6179 69.1152 41.6179 70.1373Z" fill="white"/>
<path d="M35.3922 75.3817C35.3922 76.3359 34.4574 77.112 33.3086 77.112C32.1582 77.112 31.2266 76.3359 31.2266 75.3817C31.2266 74.4275 32.1567 73.6475 33.3086 73.6475C34.4574 73.6462 35.3922 74.3686 35.3922 75.3817Z" fill="white"/>
<path d="M29.1134 49.0313C29.1134 49.9894 28.1802 50.7655 27.0282 50.7655C25.8825 50.7655 24.9492 49.9906 24.9492 49.0313C24.9492 48.0759 25.8809 47.2971 27.0282 47.2971C28.1802 47.2971 29.1134 48.0195 29.1134 49.0313Z" fill="white"/>
<path d="M29.1134 70.1373C29.1134 71.0863 28.1802 71.8715 27.0282 71.8715C25.8825 71.8715 24.9492 71.0863 24.9492 70.1373C24.9492 69.178 25.8809 68.4031 27.0282 68.4031C28.1802 68.4018 29.1134 69.1152 29.1134 70.1373Z" fill="white"/>
<path d="M136.12 2.39489C136.12 3.39647 135.148 4.20593 133.942 4.20593C132.746 4.20593 131.77 3.39647 131.77 2.39489C131.77 1.39202 132.746 0.581299 133.942 0.581299C135.148 0.581299 136.12 1.39202 136.12 2.39489Z" fill="white"/>
<path d="M199.308 26.8722L146.279 -16.3034L146.165 -16.4379C143.347 -19.8359 139.662 -23.3145 133.717 -23.4016C128.683 -23.4682 126.182 -21.0936 121.667 -16.7799L121.299 -16.4289L69.4203 26.8582L66.4805 24.4246L118.31 -18.824L118.542 -19.0405C123.27 -23.5604 126.709 -26.8469 133.489 -26.8469C133.586 -26.8469 133.688 -26.8469 133.785 -26.8469C141.568 -26.7368 146.25 -22.3744 149.459 -18.5346L202.214 24.4105L199.308 26.8722Z" fill="white"/>
<path d="M97.2983 99.2325L86.0226 90.0377L84.2562 88.6839C71.5992 78.9933 54.256 65.723 53.8386 52.153C53.3874 37.4174 59.2578 29.9952 70.9786 20.6953L73.8398 23.1916C62.7659 31.9817 57.5638 38.5445 57.9812 52.0659C58.3492 64.1797 74.9502 76.8787 87.0636 86.1491L88.8792 87.5414L100.2 96.7657L97.2983 99.2325Z" fill="white"/>
<path d="M169.538 100.457L166.688 97.9517L181.668 86.1491C193.785 76.8787 210.38 64.1809 210.754 52.0659C211.171 38.5445 205.968 31.9817 194.889 23.1916L197.752 20.6953C209.48 29.9952 215.351 37.4174 214.893 52.153C214.479 65.723 197.136 78.9946 184.476 88.6838L182.663 90.0761L169.538 100.457Z" fill="white"/>
<path d="M135.406 139.046L132.494 136.599L191.584 88.0488C205.056 77.7025 220.51 64.2875 220.893 51.9508C221.304 38.4768 217.813 31.2724 206.538 22.3337L195.134 13.5833L197.946 11.0486L209.377 19.8182C221.534 29.4562 225.482 37.5905 225.037 52.043C224.62 65.5887 209.339 79.105 194.45 90.5361L135.406 139.046Z" fill="white"/>
<path d="M131.955 22.8312C131.955 23.7905 132.885 24.5602 134.028 24.5602C135.178 24.5602 136.105 23.7892 136.105 22.8312C136.105 21.8809 135.178 21.106 134.028 21.106C132.885 21.106 131.955 21.8194 131.955 22.8312Z" fill="white"/>
<path d="M113.23 28.2992C113.23 29.2534 114.195 30.0244 115.38 30.0244C116.557 30.0244 117.515 29.2534 117.515 28.2992C117.515 27.345 116.557 26.5752 115.38 26.5752C114.195 26.5752 113.23 27.2873 113.23 28.2992Z" fill="white"/>
<path d="M131.947 64.8468C131.947 65.801 132.877 66.572 134.023 66.572C135.17 66.572 136.093 65.7997 136.093 64.8468C136.093 63.8939 135.17 63.1216 134.023 63.1216C132.876 63.1216 131.947 63.835 131.947 64.8468Z" fill="white"/>
<path d="M131.881 75.37C131.881 76.3242 132.813 77.0952 133.957 77.0952C135.101 77.0952 136.026 76.3229 136.026 75.37C136.026 74.4171 135.099 73.6499 133.957 73.6499C132.814 73.6499 131.881 74.3582 131.881 75.37Z" fill="white"/>
<path d="M132.491 139.046L73.3544 90.5066C58.5152 79.105 43.2325 65.5875 42.8229 52.043C42.3747 37.5918 46.3186 29.4575 58.4505 19.8374L69.911 11.0486L72.7199 13.5833L61.2825 22.3529C50.0299 31.2724 46.5465 38.4717 46.9623 51.9508C47.3396 64.2862 62.7902 77.7025 76.2172 88.0052L135.401 136.594L132.491 139.046Z" fill="white"/>
<path d="M136.096 22.8318H131.955V64.847H136.096V22.8318Z" fill="white"/>
<path d="M117.506 28.1909H113.363V70.2061H117.506V28.1909Z" fill="white"/>
<path d="M154.391 28.2992C154.391 29.2534 153.433 30.0244 152.253 30.0244C151.066 30.0244 150.111 29.2534 150.111 28.2992C150.111 27.345 151.066 26.5752 152.253 26.5752C153.433 26.5752 154.391 27.2873 154.391 28.2992Z" fill="white"/>
<path d="M154.269 28.1909H150.127V70.2061H154.269V28.1909Z" fill="white"/>
<path d="M134.67 73.7532L115.896 68.1682L114.5 71.4159L133.273 77.0009L134.67 73.7532Z" fill="white"/>
<path d="M153.3 71.4446L151.904 68.1965L133.127 73.7786L134.523 77.0267L153.3 71.4446Z" fill="white"/>
<path d="M132.678 86.7148L110.159 67.9587C109.809 67.6795 109.423 67.3555 109.025 67.0238C107.077 65.3754 104.864 63.5208 102.725 63.5208C100.392 63.5208 98.2656 65.3856 98.2656 67.4387H94.123C94.123 63.5156 98.1455 60.0703 102.727 60.0703C106.597 60.0703 109.587 62.5807 111.982 64.6005C112.352 64.9182 112.717 65.2217 113.068 65.5009L135.619 84.2761L132.678 86.7148Z" fill="white"/>
<path d="M134.963 86.7148L132.027 84.2761L154.56 65.5214C154.934 65.223 155.293 64.9182 155.669 64.6056C158.065 62.5807 161.045 60.0703 164.917 60.0703C169.5 60.0703 173.53 63.5144 173.53 67.4387H169.384C169.384 65.3856 167.257 63.5208 164.918 63.5208C162.778 63.5208 160.571 65.3818 158.62 67.0238C158.216 67.3555 157.837 67.6795 157.469 67.978L134.963 86.7148Z" fill="white"/>
<path d="M114.736 107.155C103.56 107.155 94.123 99.5662 94.123 90.5686H98.2625C98.2625 97.686 105.81 103.713 114.734 103.713C123.815 103.713 131.201 97.9793 131.201 90.9259H135.35C135.353 99.8736 126.102 107.155 114.736 107.155Z" fill="white"/>
<path d="M153.087 107.155C141.815 107.155 132.65 99.8738 132.65 90.9261H136.79C136.79 97.9808 144.099 103.714 153.089 103.714C162.076 103.714 169.385 97.9231 169.385 90.8198H173.531C173.531 99.8302 164.36 107.155 153.087 107.155Z" fill="white"/>
<path d="M136.935 84.5847H130.715V94.6748H136.935V84.5847Z" fill="white"/>
<path d="M98.2656 67.3284H94.123V90.9258H98.2656V67.3284Z" fill="white"/>
<path d="M173.532 67.3284H169.387V90.9258H173.532V67.3284Z" fill="white"/>
<path d="M133.888 105.576C130.432 105.576 127.455 104.085 125.883 102.813L128.767 100.347L127.324 101.575L128.758 100.336C129.266 100.732 133.835 104.12 138.672 100.317L141.518 102.827C138.948 104.852 136.299 105.576 133.888 105.576Z" fill="white"/>
<path d="M82.3535 3.30081C71.8309 -4.21747 71.7246 -10.2884 71.7246 -10.5395L75.8671 -10.5344L73.7897 -10.5395L75.8671 -10.5625C75.8671 -10.5151 76.1489 -5.68141 85.0546 0.684145L82.3535 3.30081Z" fill="white"/>
<path d="M182.582 1.98836C182.582 2.9528 183.518 3.72256 184.669 3.72256C185.819 3.72256 186.751 2.95152 186.751 1.98836C186.751 1.03417 185.821 0.259277 184.669 0.259277C183.517 0.259277 182.582 0.967566 182.582 1.98836Z" fill="white"/>
<path d="M186.021 3.30017L183.318 0.684796C192.261 -5.70509 192.504 -10.4902 192.504 -10.5337L196.653 -10.5388C196.653 -10.2903 196.545 -4.2181 186.021 3.30017Z" fill="white"/>
<path d="M84.6974 3.55523L81.8477 1.06372L75.6968 5.93018L78.5465 8.42169L84.6974 3.55523Z" fill="white"/>
<path d="M78.3718 5.68023L72.3887 0.773926L69.4791 3.22828L75.4622 8.13458L78.3718 5.68023Z" fill="white"/>
<path d="M15.8992 50.42L12.9609 47.9814L69.5549 0.694336L72.4886 3.12659L15.8992 50.42Z" fill="white"/>
<path d="M31.8524 66.0714L13.0586 50.4201L15.9876 47.9814L34.7783 63.6366L31.8524 66.0714Z" fill="white"/>
<path d="M34.8075 66.0685L31.8359 63.6697L25.7951 68.846L28.7667 71.2448L34.8075 66.0685Z" fill="white"/>
<path d="M41.2196 71.2156L38.2891 68.7769L31.9095 74.0798L34.84 76.5185L41.2196 71.2156Z" fill="white"/>
<path d="M121.066 159.426C120.969 159.426 120.86 159.426 120.762 159.412C119.015 159.35 117.448 158.728 116.345 157.657L54.093 105.903L2.71639 63.0637C1.43975 62.139 0.695945 60.8377 0.635886 59.3814C0.569667 57.9559 1.15947 56.5483 2.30367 55.4302C3.44325 54.3031 5.00941 53.5807 6.70647 53.4027C8.4836 53.2054 10.1914 53.6191 11.505 54.5451L11.6452 54.6553L28.5063 68.9285L25.5573 71.3428L8.77463 57.1362C8.3573 56.8711 7.81678 56.7558 7.24391 56.8173C6.56941 56.8903 5.93646 57.1836 5.46985 57.6511C4.99246 58.1173 4.74608 58.6821 4.77842 59.2469C4.79998 59.7477 5.04483 60.1909 5.46525 60.4893L5.59613 60.5905L57.0266 103.464L119.463 155.391C119.813 155.742 120.34 155.946 120.948 155.97C121.632 155.984 122.314 155.797 122.867 155.408C123.957 154.659 124.23 153.441 123.514 152.664L107.179 139.108L110.1 136.671L126.65 150.404C128.886 152.645 128.381 156.073 125.522 158.051C124.247 158.944 122.677 159.426 121.066 159.426Z" fill="white"/>
<path d="M8.28762 44.256C6.67527 44.256 5.10295 43.7783 3.82939 42.892C0.968125 40.9067 0.464551 37.4755 2.70059 35.2392L2.83305 35.1239L19.8636 20.9954L22.7988 23.4379L5.84523 37.4947C5.12144 38.2759 5.40325 39.4953 6.48123 40.242C7.04024 40.6326 7.74402 40.8299 8.40159 40.8107C9.00834 40.7812 9.53346 40.5788 9.89381 40.2228L10.0201 40.1075L72.3259 -11.7046L75.2626 -9.26721L13.0154 42.4936C11.9066 43.558 10.3435 44.1843 8.59561 44.247C8.49397 44.256 8.38618 44.256 8.28762 44.256Z" fill="white"/>
<path d="M21.1626 24.792L18.2305 22.3547L116.45 -59.2372C117.549 -60.3028 119.114 -60.924 120.862 -60.9919C122.57 -61.0649 124.27 -60.5769 125.631 -59.6381C126.991 -58.698 127.87 -57.3967 128.1 -55.9852C128.345 -54.5162 127.866 -53.0945 126.758 -51.9904L126.637 -51.87L101.715 -31.125L98.7864 -33.5636L123.622 -54.2459C123.942 -54.593 124.076 -55.0413 123.997 -55.5177C123.903 -56.0762 123.54 -56.5975 122.979 -56.9868C122.419 -57.3775 121.76 -57.5696 121.059 -57.5504C120.452 -57.526 119.923 -57.3185 119.565 -56.9676L119.436 -56.8472L21.1626 24.792Z" fill="white"/>
<path d="M28.4961 50.2544L25.5625 47.817L51.3108 26.4072L54.2367 28.8459L28.4961 50.2544Z" fill="white"/>
<path d="M58.8606 73.0745L28.5059 47.8142L25.5726 50.2525L55.9273 75.5128L58.8606 73.0745Z" fill="white"/>
<path d="M107.121 128.504L37.8926 71.2213L40.8124 68.7788L110.037 126.051L107.121 128.504Z" fill="white"/>
<path d="M104.05 131.423L34.6211 74.0205L31.7017 76.463L101.131 133.865L104.05 131.423Z" fill="white"/>
<path d="M194.678 12.2445C194.678 13.2038 195.616 13.9787 196.764 13.9787C197.913 13.9787 198.846 13.2025 198.846 12.2445C198.846 11.2903 197.915 10.5142 196.764 10.5142C195.614 10.5142 194.678 11.2275 194.678 12.2445Z" fill="white"/>
<path d="M182.395 1.98836C182.395 2.9528 183.323 3.72256 184.472 3.72256C185.625 3.72256 186.559 2.95152 186.559 1.98836C186.559 1.03417 185.625 0.259277 184.472 0.259277C183.323 0.259277 182.395 0.967566 182.395 1.98836Z" fill="white"/>
<path d="M188.975 7.20268C188.975 8.162 189.908 8.93689 191.058 8.93689C192.205 8.93689 193.139 8.162 193.139 7.20268C193.139 6.24336 192.207 5.46851 191.058 5.46851C189.908 5.46851 188.975 6.1806 188.975 7.20268Z" fill="white"/>
<path d="M195.189 1.98836C195.189 2.9528 196.124 3.72256 197.27 3.72256C198.419 3.72256 199.355 2.95152 199.355 1.98836C199.355 1.03417 198.42 0.259277 197.27 0.259277C196.126 0.259277 195.189 0.967566 195.189 1.98836Z" fill="white"/>
<path d="M232.777 64.8568C232.777 65.8097 233.712 66.5871 234.863 66.5871C236.011 66.5871 236.948 65.8109 236.948 64.8568C236.948 63.8974 236.013 63.1226 234.863 63.1226C233.714 63.1213 232.777 63.8347 232.777 64.8568Z" fill="white"/>
<path d="M226.57 70.1373C226.57 71.0863 227.5 71.8715 228.651 71.8715C229.804 71.8715 230.736 71.0863 230.736 70.1373C230.736 69.178 229.806 68.4031 228.651 68.4031C227.502 68.4018 226.57 69.1152 226.57 70.1373Z" fill="white"/>
<path d="M232.777 75.3817C232.777 76.3359 233.712 77.112 234.863 77.112C236.011 77.112 236.948 76.3359 236.948 75.3817C236.948 74.4275 236.013 73.6475 234.863 73.6475C233.714 73.6462 232.777 74.3686 232.777 75.3817Z" fill="white"/>
<path d="M132.055 2.39489C132.055 3.39647 133.029 4.20593 134.234 4.20593C135.435 4.20593 136.41 3.39647 136.41 2.39489C136.41 1.39202 135.435 0.581299 134.234 0.581299C133.029 0.581299 132.055 1.39202 132.055 2.39489Z" fill="white"/>
<path d="M68.8705 26.8722L65.9707 24.4105L118.718 -18.5346C121.935 -22.3757 126.616 -26.7368 134.39 -26.8469C134.495 -26.8469 134.595 -26.8469 134.694 -26.8469C141.471 -26.8469 144.904 -23.5694 149.631 -19.0507L149.865 -18.824L201.692 24.4246L198.758 26.853L146.795 -16.516L146.508 -16.785C141.993 -21.0949 139.537 -23.4643 134.466 -23.4029C128.518 -23.3158 124.83 -19.8371 122.017 -16.4392L121.759 -16.1894L68.8705 26.8722Z" fill="white"/>
<path d="M170.894 99.2325L167.986 96.7657L179.267 87.5709L181.121 86.1491C193.236 76.8787 209.829 64.1809 210.205 52.0659C210.622 38.5394 205.423 31.9766 194.346 23.1916L197.203 20.6953C208.931 29.9952 214.802 37.4123 214.347 52.153C213.93 65.723 196.59 78.9946 183.93 88.6839L182.114 90.0761L170.894 99.2325Z" fill="white"/>
<path d="M132.784 139.046L73.6921 90.5066C58.8499 79.105 43.5703 65.5875 43.1545 52.043C42.7094 37.5918 46.6533 29.4575 58.7913 19.8374L70.2457 11.0486L73.0577 13.5833L61.6203 22.3529C50.3677 31.2724 46.8827 38.4717 47.297 51.9598C47.6789 64.2862 63.1279 77.7025 76.5534 88.0052L135.695 136.597L132.784 139.046Z" fill="white"/>
<path d="M136.222 22.8312C136.222 23.7905 135.291 24.5602 134.146 24.5602C132.995 24.5602 132.068 23.7892 132.068 22.8312C132.068 21.8809 132.995 21.106 134.146 21.106C135.293 21.106 136.222 21.8194 136.222 22.8312Z" fill="white"/>
<path d="M154.938 28.2992C154.938 29.2534 153.986 30.0244 152.804 30.0244C151.62 30.0244 150.66 29.2534 150.66 28.2992C150.66 27.345 151.62 26.5752 152.804 26.5752C153.986 26.5752 154.938 27.2873 154.938 28.2992Z" fill="white"/>
<path d="M136.227 64.8468C136.227 65.801 135.299 66.572 134.15 66.572C133.016 66.572 132.08 65.7997 132.08 64.8468C132.08 63.8939 133.015 63.1216 134.15 63.1216C135.299 63.1216 136.227 63.835 136.227 64.8468Z" fill="white"/>
<path d="M136.301 75.37C136.301 76.3242 135.374 77.0952 134.236 77.0952C133.091 77.0952 132.158 76.3229 132.158 75.37C132.158 74.4171 133.09 73.6499 134.236 73.6499C135.374 73.6499 136.301 74.3582 136.301 75.37Z" fill="white"/>
<path d="M135.687 139.046L132.775 136.594L191.907 88.0488C205.379 77.7025 220.833 64.2875 221.21 51.9508C221.626 38.4717 218.141 31.2724 206.859 22.3337L195.457 13.5833L198.264 11.0486L209.694 19.8182C221.854 29.4562 225.802 37.5905 225.36 52.043C224.943 65.5887 209.665 79.105 194.767 90.5361L135.687 139.046Z" fill="white"/>
<path d="M136.224 22.8318H132.08V64.847H136.224V22.8318Z" fill="white"/>
<path d="M154.809 28.1909H150.662V70.2061H154.809V28.1909Z" fill="white"/>
<path d="M153.705 71.3876L152.305 68.1396L133.536 73.7367L134.936 76.9846L153.705 71.3876Z" fill="white"/>
<path d="M135.06 73.758L116.285 68.1726L114.888 71.4204L133.663 77.0058L135.06 73.758Z" fill="white"/>
<path d="M135.484 86.7148L132.557 84.2761L155.082 65.5214C155.462 65.223 155.821 64.9182 156.192 64.6056C158.59 62.5807 161.573 60.0703 165.449 60.0703C170.034 60.0703 174.059 63.5144 174.059 67.4387H169.915C169.915 65.3856 167.782 63.5208 165.451 63.5208C163.312 63.5208 161.092 65.3818 159.147 67.0238C158.752 67.3555 158.364 67.6795 157.997 67.978L135.484 86.7148Z" fill="white"/>
<path d="M133.218 86.7148L110.69 67.9587C110.339 67.6795 109.957 67.3555 109.561 67.0238C107.609 65.3754 105.399 63.5208 103.261 63.5208C100.928 63.5208 98.7953 65.3856 98.7953 67.4387H94.6543C94.6543 63.5156 98.6782 60.0703 103.263 60.0703C107.136 60.0703 110.119 62.5807 112.513 64.6005C112.886 64.9182 113.249 65.2217 113.599 65.5009L136.154 84.2761L133.218 86.7148Z" fill="white"/>
<path d="M153.44 107.155C142.075 107.155 132.826 99.8736 132.826 90.9259H136.967C136.967 97.9806 144.362 103.713 153.439 103.713C162.368 103.713 169.915 97.686 169.915 90.5686H174.059C174.061 99.5662 164.619 107.155 153.44 107.155Z" fill="white"/>
<path d="M115.091 107.155C103.826 107.155 94.6543 99.8302 94.6543 90.8198H98.7953C98.7953 97.9231 106.102 103.714 115.091 103.714C124.079 103.714 131.387 97.9795 131.387 90.9261H135.528C135.53 99.8738 126.359 107.155 115.091 107.155Z" fill="white"/>
<path d="M137.466 84.5847H131.248V94.6748H137.466V84.5847Z" fill="white"/>
<path d="M174.056 67.3284H169.912V90.9258H174.056V67.3284Z" fill="white"/>
<path d="M134.289 105.576C131.871 105.576 129.23 104.852 126.652 102.828L129.501 100.318C134.48 104.231 139.208 100.501 139.405 100.346L142.294 102.813C140.722 104.085 137.745 105.576 134.289 105.576Z" fill="white"/>
<path d="M185.83 3.30017L183.129 0.684796C192.075 -5.70509 192.316 -10.4902 192.316 -10.5337L196.462 -10.5388C196.462 -10.2903 196.357 -4.2181 185.83 3.30017Z" fill="white"/>
<path d="M189.626 8.4472L183.473 3.58532L186.331 1.09033L192.482 5.95605L189.626 8.4472Z" fill="white"/>
<path d="M198.731 3.22701L195.822 0.773926L189.843 5.67823L192.752 8.13132L198.731 3.22701Z" fill="white"/>
<path d="M252.285 50.42L195.689 3.12659L198.629 0.694336L255.217 47.9814L252.285 50.42Z" fill="white"/>
<path d="M255.12 50.4047L252.186 47.9707L233.398 63.6357L236.332 66.0697L255.12 50.4047Z" fill="white"/>
<path d="M242.369 68.7934L236.332 63.6238L233.358 66.0259L239.396 71.1955L242.369 68.7934Z" fill="white"/>
<path d="M236.263 74.1297L229.895 68.822L226.96 71.2576L233.328 76.5653L236.263 74.1297Z" fill="white"/>
<path d="M147.114 159.426C145.505 159.426 143.937 158.945 142.655 158.053C141.3 157.113 140.422 155.813 140.188 154.405C139.943 152.936 140.42 151.513 141.535 150.404L141.657 150.294L158.081 136.671L161.005 139.108L144.667 152.664C144.349 153.006 144.221 153.46 144.296 153.931C144.389 154.5 144.748 155.02 145.311 155.408C145.872 155.797 146.571 155.984 147.236 155.97C147.84 155.946 148.366 155.743 148.718 155.391L148.85 155.276L211.162 103.464L262.716 60.4892C263.138 60.1908 263.387 59.7476 263.406 59.2468C263.435 58.6833 263.185 58.1184 262.716 57.6509C262.244 57.1834 261.611 56.8889 260.938 56.8171C260.366 56.7557 259.827 56.871 259.412 57.1361L242.631 71.3427L239.673 68.9284L256.676 54.545C257.996 53.6203 259.707 53.2104 261.468 53.4025C263.171 53.5819 264.739 54.3042 265.883 55.4301C267.024 56.5495 267.613 57.9558 267.547 59.3813C267.48 60.8363 266.744 62.1376 265.463 63.0636L214.094 105.899L151.841 157.657C150.735 158.726 149.172 159.349 147.424 159.412C147.315 159.426 147.221 159.426 147.114 159.426Z" fill="white"/>
<path d="M259.9 44.2563C259.796 44.2563 259.693 44.2563 259.596 44.2461C257.844 44.1833 256.282 43.557 255.173 42.4926L192.928 -9.26819L195.857 -11.7056L258.289 40.2218C258.649 40.5778 259.173 40.7815 259.781 40.8097C260.465 40.8289 261.147 40.6316 261.709 40.241C262.265 39.8491 262.627 39.3252 262.718 38.7706C262.798 38.2942 262.664 37.8408 262.347 37.4937L245.388 23.4318L248.319 20.9945L265.479 35.2382C266.591 36.3461 267.068 37.7627 266.826 39.2382C266.592 40.6496 265.716 41.9457 264.356 42.891C263.083 43.7786 261.509 44.2563 259.9 44.2563Z" fill="white"/>
<path d="M247.026 24.7923L148.675 -56.9058L148.617 -56.9686C148.265 -57.3195 147.737 -57.527 147.121 -57.5513C146.436 -57.5706 145.765 -57.3772 145.204 -56.9878C144.642 -56.5984 144.28 -56.0772 144.191 -55.5187C144.109 -55.041 144.243 -54.5927 144.565 -54.2469L169.403 -33.5646L166.468 -31.126L141.423 -51.9914C140.31 -53.0955 139.836 -54.5171 140.081 -55.9862C140.31 -57.3989 141.192 -58.6989 142.551 -59.6391C143.91 -60.5779 145.587 -61.0658 147.317 -60.9928C149.065 -60.9262 150.631 -60.3038 151.735 -59.2382L249.952 22.3537L247.026 24.7923Z" fill="white"/>
<path d="M242.613 47.8105L216.871 26.4009L213.939 28.8398L239.681 50.2494L242.613 47.8105Z" fill="white"/>
<path d="M242.574 50.2428L239.637 47.8042L209.3 73.0779L212.237 75.5165L242.574 50.2428Z" fill="white"/>
<path d="M161.062 128.504L158.135 126.051L227.36 68.7788L230.283 71.2213L161.062 128.504Z" fill="white"/>
<path d="M236.473 76.4527L233.551 74.0103L164.151 131.437L167.073 133.879L236.473 76.4527Z" fill="white"/>
<path d="M102.765 17.8953C101.045 17.8953 99.3233 17.3228 98.0621 16.1957L88.5727 8.45712L91.4726 5.99414L101.093 13.8339C101.926 14.6049 103.357 14.6626 104.276 13.9697C105.184 13.2845 105.274 12.1189 104.475 11.353L85.8948 -3.72453C82.727 -6.23105 80.8483 -9.57908 80.6203 -13.141C80.394 -16.7439 81.8677 -20.1277 84.7814 -22.6714C90.7657 -27.9047 101.007 -27.9047 107.607 -22.6816L135.236 1.11176L132.262 3.50685L104.686 -20.2404C99.7992 -24.1008 92.1886 -24.1481 87.7797 -20.3032C85.6638 -18.4434 84.5904 -15.9715 84.7598 -13.3267C84.9277 -10.6472 86.3506 -8.12281 88.7699 -6.21315L107.51 9.00402C109.88 11.1839 109.672 14.5563 107.057 16.5223C105.836 17.4432 104.302 17.8953 102.765 17.8953Z" fill="white"/>
<path d="M121.33 12.3211C121.224 12.3211 121.109 12.3212 121.004 12.3122C119.319 12.2443 117.765 11.6372 116.617 10.6113L90.9959 -10.4373C88.7568 -12.703 89.1526 -16.0613 91.883 -17.9262C94.5425 -19.7474 98.4632 -19.4785 100.729 -17.3536L126.063 3.42603C127.212 4.47629 127.8 5.83905 127.712 7.26201C127.627 8.67857 126.883 9.98883 125.613 10.9443C124.43 11.8345 122.915 12.3211 121.33 12.3211ZM94.1483 -12.6838L119.65 8.25333C120.054 8.62861 120.607 8.84633 121.212 8.87067C121.819 8.88988 122.391 8.72597 122.838 8.38912C123.288 8.05227 123.548 7.58859 123.576 7.0878C123.606 6.60622 123.405 6.13364 123.024 5.76733L97.3391 -15.2915C96.526 -15.8218 95.3494 -15.8359 94.5163 -15.2672C93.5769 -14.6255 93.4229 -13.4792 94.1483 -12.6838Z" fill="white"/>
<path d="M96.0679 54.2938C95.957 54.2938 95.8477 54.2938 95.7399 54.2887C94.0521 54.2157 92.4982 53.6099 91.354 52.5814L63.5391 29.6961L66.4542 27.2396L94.3878 50.2311C94.7913 50.6025 95.3503 50.819 95.9493 50.8434C96.5468 50.8715 97.1274 50.6986 97.5755 50.3618C98.4841 49.6778 98.5642 48.5123 97.7634 47.74L74.8394 28.9469L77.7468 26.489L100.805 45.4076C103.172 47.576 102.967 50.9496 100.36 52.9144C99.1648 53.8109 97.6525 54.2938 96.0679 54.2938Z" fill="white"/>
<path d="M171.898 54.2939C170.306 54.2939 168.803 53.8123 167.612 52.9145C165 50.9484 164.794 47.5761 167.163 45.4077L167.24 45.3296L190.214 26.4878L193.128 28.9457L170.201 47.7388C169.4 48.5111 169.483 49.6766 170.395 50.3657C170.84 50.6987 171.416 50.8716 172.015 50.8435C172.62 50.8191 173.176 50.6026 173.581 50.2312L173.657 50.1582L201.512 27.2396L204.427 29.6962L176.606 52.5815C175.474 53.6087 173.917 54.2145 172.228 54.2888C172.118 54.2939 172.009 54.2939 171.898 54.2939Z" fill="white"/>
<path d="M83.8197 64.8468C82.2474 64.8468 80.749 64.3742 79.5678 63.4968L79.4785 63.4302L55.3594 43.3537L58.2931 40.9164L82.3613 60.9544C82.8033 61.2721 83.3685 61.4206 83.9537 61.3976C84.5527 61.3681 85.104 61.1478 85.5075 60.7713C85.9079 60.396 86.1112 59.917 86.0758 59.4162C86.0419 58.9193 85.7755 58.4569 85.3227 58.1239L85.2242 58.0522L58.658 35.6677L61.6071 33.2495L88.1362 55.5892C89.3836 56.5293 90.1136 57.8152 90.2152 59.2177C90.3122 60.633 89.7378 62.0021 88.606 63.0626C87.4664 64.1231 85.8971 64.7533 84.1986 64.8352C84.0661 64.8468 83.9414 64.8468 83.8197 64.8468Z" fill="white"/>
<path d="M184.473 64.8465C184.355 64.8465 184.221 64.8465 184.097 64.8362C182.39 64.7543 180.825 64.1228 179.69 63.0636C178.552 62.0031 177.981 60.6352 178.079 59.2186C178.172 57.8162 178.917 56.529 180.158 55.5902L206.686 33.2505L209.632 35.6686L182.967 58.1249C182.522 58.4579 182.257 58.9202 182.222 59.4172C182.188 59.9179 182.382 60.3957 182.79 60.7723C183.189 61.1475 183.736 61.3691 184.339 61.3986C184.912 61.4229 185.483 61.2731 185.927 60.9554L210.003 40.9174L212.935 43.3547L188.725 63.4978C187.544 64.3738 186.047 64.8465 184.473 64.8465Z" fill="white"/>
<path d="M146.057 12.3208C144.465 12.3208 142.956 11.8341 141.768 10.9426C140.499 9.98717 139.757 8.67692 139.668 7.26036C139.585 5.83739 140.173 4.47463 141.314 3.42438L141.403 3.35136L166.664 -17.3643C167.734 -18.362 169.198 -18.9832 170.812 -19.1138C172.512 -19.2534 174.177 -18.8346 175.5 -17.9278C176.821 -17.0274 177.641 -15.7543 177.808 -14.3377C177.972 -12.9224 177.47 -11.5379 176.382 -10.4351L176.235 -10.3109L150.76 10.6032C149.624 11.6343 148.067 12.2414 146.381 12.3092C146.273 12.3208 146.163 12.3208 146.057 12.3208ZM144.357 5.76697C143.975 6.13327 143.78 6.60458 143.804 7.08744C143.838 7.58823 144.1 8.05062 144.547 8.38875C144.99 8.7256 145.575 8.8908 146.176 8.8703C146.773 8.84597 147.329 8.62952 147.736 8.25297L147.816 8.18636L173.239 -12.6842C173.583 -13.0646 173.738 -13.5283 173.684 -13.9996C173.623 -14.5017 173.336 -14.9448 172.874 -15.2676C172.409 -15.5865 171.823 -15.7351 171.219 -15.6877C170.783 -15.6492 170.372 -15.5135 170.038 -15.2919L144.357 5.76697Z" fill="white"/>
<path d="M164.61 17.8963C163.079 17.8963 161.542 17.4442 160.318 16.5233C157.7 14.5522 157.508 11.1849 159.867 9.00503L159.964 8.92818L178.591 -6.19291C181.029 -8.1205 182.446 -10.6462 182.618 -13.3257C182.789 -15.9705 181.716 -18.4424 179.591 -20.3022C177.489 -22.1427 174.581 -23.1596 171.412 -23.1596C171.4 -23.1596 171.386 -23.1596 171.377 -23.1596C168.166 -23.1507 165.074 -22.1042 162.667 -20.2151L135.706 3.57571L132.689 1.21393L159.768 -22.6832C162.953 -25.2025 167.071 -26.596 171.36 -26.605C171.377 -26.605 171.392 -26.605 171.412 -26.605C175.726 -26.605 179.691 -25.2127 182.597 -22.6729C185.506 -20.1293 186.99 -16.7454 186.755 -13.1425C186.527 -9.58061 184.653 -6.23131 181.468 -3.71199L162.905 11.3514C162.105 12.1174 162.189 13.2842 163.099 13.9681C164.022 14.6623 165.449 14.6034 166.281 13.8324L166.418 13.7222L176.656 5.89653L179.458 8.43506L169.284 16.2133C168.033 17.3328 166.327 17.8963 164.61 17.8963Z" fill="white"/>
<path d="M115.378 26.5752H67.2168V30.0244H115.378V26.5752Z" fill="white"/>
<path d="M200.412 26.5752H152.252V30.0244H200.412V26.5752Z" fill="white"/>
<path d="M116.878 47.977L91.7227 27.0791L88.7918 29.5194L113.947 50.4173L116.878 47.977Z" fill="white"/>
<path d="M116.883 37.9888L104.312 27.0745L101.317 29.4612L113.887 40.3755L116.883 37.9888Z" fill="white"/>
<path d="M165.412 17.896C163.88 17.896 162.348 17.4439 161.124 16.523C159.856 15.5688 159.108 14.2624 159.023 12.8407C158.938 11.419 159.521 10.0601 160.674 9.00472L160.76 8.92788L179.391 -6.19321C184.36 -10.1253 184.801 -16.4473 180.398 -20.3025C175.987 -24.1525 168.377 -24.1 163.432 -20.1821L135.92 3.50755L132.938 1.11247L160.508 -22.6361C167.173 -27.9079 177.415 -27.9078 183.396 -22.6745C189.381 -17.4514 188.872 -8.9405 182.266 -3.71229L163.706 11.3511C163.324 11.7226 163.132 12.1849 163.159 12.6678C163.19 13.1724 163.455 13.631 163.9 13.9691C164.824 14.6633 166.249 14.6044 167.089 13.8333L167.17 13.7616L176.707 5.99355L179.608 8.45653L170.109 16.1951C168.857 17.3222 167.137 17.896 165.412 17.896Z" fill="white"/>
<path d="M146.846 12.3208C145.258 12.3208 143.75 11.8341 142.557 10.9426C139.948 8.97534 139.746 5.59789 142.11 3.42438L142.19 3.35136L167.46 -17.3643C168.53 -18.362 169.995 -18.9832 171.601 -19.1138C173.309 -19.2534 174.97 -18.8346 176.296 -17.9278C177.613 -17.0274 178.435 -15.7543 178.603 -14.3377C178.766 -12.9224 178.261 -11.5379 177.177 -10.4351L177.028 -10.3109L151.561 10.6084C150.415 11.6343 148.857 12.2414 147.174 12.3092C147.069 12.3208 146.96 12.3208 146.846 12.3208ZM145.155 5.76697C144.354 6.53801 144.436 7.6984 145.344 8.38746C145.791 8.72431 146.384 8.88955 146.967 8.86905C147.569 8.84472 148.121 8.62823 148.529 8.25168L148.609 8.18507L174.031 -12.6855C174.377 -13.0659 174.533 -13.5295 174.476 -14.0009C174.425 -14.5029 174.129 -14.9461 173.666 -15.2689C173.201 -15.5826 172.606 -15.7363 172.014 -15.689C171.576 -15.6505 171.174 -15.5148 170.84 -15.2932L145.155 5.76697Z" fill="white"/>
<path d="M172.125 54.2947C170.595 54.2947 169.058 53.8413 167.836 52.9153C166.567 51.9662 165.824 50.6598 165.734 49.2381C165.651 47.8177 166.239 46.4524 167.385 45.397L167.467 45.3291L190.434 26.4873L193.345 28.9452L170.425 47.7383C170.04 48.111 169.852 48.5772 169.877 49.0639C169.905 49.5609 170.166 50.0232 170.615 50.3601C171.537 51.0543 172.963 50.9967 173.807 50.2256L173.882 50.1577L201.736 27.2391L204.65 29.6957L176.833 52.581C175.578 53.7158 173.853 54.2947 172.125 54.2947Z" fill="white"/>
<path d="M184.363 64.8465C184.239 64.8465 184.113 64.8465 183.985 64.8362C182.282 64.7543 180.711 64.1228 179.579 63.0636C178.437 62.0031 177.867 60.6352 177.969 59.2186C178.064 57.8162 178.799 56.529 180.049 55.5902L206.571 33.2505L209.52 35.6686L182.86 58.1249C182.408 58.4579 182.14 58.9202 182.107 59.4172C182.073 59.9179 182.271 60.3957 182.676 60.7723C183.072 61.1475 183.62 61.3691 184.227 61.3986C184.817 61.428 185.374 61.2731 185.818 60.9554L209.889 40.9174L212.82 43.3547L188.611 63.4978C187.429 64.3738 185.927 64.8465 184.363 64.8465Z" fill="white"/>
<path d="M200.965 26.5752H152.807V30.0244H200.965V26.5752Z" fill="white"/>
<path d="M179.392 29.5138L176.463 27.0757L151.314 47.9747L154.243 50.4128L179.392 29.5138Z" fill="white"/>
<path d="M154.296 40.4096L151.307 38.0248L163.881 27.1047L166.867 29.4947L154.296 40.4096Z" fill="white"/>
<path d="M179.008 29.5422L176.072 27.1038L150.944 48.0291L153.88 50.4676L179.008 29.5422Z" fill="white"/>
<path d="M153.897 40.4096L150.906 38.0248L163.475 27.1047L166.469 29.4947L153.897 40.4096Z" fill="white"/>
</svg>
